<?xml version="1.0" encoding="utf-8"?>
<!-- Generator: Adobe Illustrator 16.0.0, SVG Export Plug-In . SVG Version: 6.00 Build 0)  -->
<!DOCTYPE svg PUBLIC "-//W3C//DTD SVG 1.1//EN" "http://www.w3.org/Graphics/SVG/1.1/DTD/svg11.dtd">
<svg version="1.1" id="Layer_1" xmlns="http://www.w3.org/2000/svg" xmlns:xlink="http://www.w3.org/1999/xlink" x="0px" y="0px"
	 width="335.666px" height="232.425px" viewBox="0 0 335.666 232.425" enable-background="new 0 0 335.666 232.425"
	 xml:space="preserve">
<g>
	<defs>
		<rect id="SVGID_1_" width="335.666" height="232.425"/>
	</defs>
	<clipPath id="SVGID_2_">
		<use xlink:href="#SVGID_1_"  overflow="visible"/>
	</clipPath>
	<g clip-path="url(#SVGID_2_)">
		<defs>
			<rect id="SVGID_3_" width="335.666" height="232.425"/>
		</defs>
		<clipPath id="SVGID_4_">
			<use xlink:href="#SVGID_3_"  overflow="visible"/>
		</clipPath>
		<g opacity="0.45" clip-path="url(#SVGID_4_)" enable-background="new    ">
			<g>
				<defs>
					<rect id="SVGID_5_" x="14.358" y="199.944" width="321.308" height="32.48"/>
				</defs>
				<clipPath id="SVGID_6_">
					<use xlink:href="#SVGID_5_"  overflow="visible"/>
				</clipPath>
				<path clip-path="url(#SVGID_6_)" fill="#E6E6E6" d="M175.013,199.945c88.727,0,160.653,7.271,160.653,16.239
					c0,8.97-71.927,16.239-160.653,16.239c-88.727,0-160.654-7.27-160.654-16.239C14.358,207.216,86.286,199.945,175.013,199.945"/>
			</g>
		</g>
		<path clip-path="url(#SVGID_4_)" fill="#EC6952" d="M81.906,63.508C79.86,56.824,83.62,49.748,90.304,47.7
			c2.74-0.838,5.684-0.722,8.35,0.329c7.774,3.045,16.473,9.267,23.649,21.67c5.593,9.663,9.612,16.068,12.485,20.301
			c2.511,3.716,7.558,4.693,11.274,2.182c0.703-0.475,1.327-1.057,1.85-1.726l23.822-30.449l8.9,6.556
			c0,0-20.097,49.928-42.701,47.908C118.446,112.756,92.483,97.623,81.906,63.508"/>
		<g opacity="0.64" clip-path="url(#SVGID_4_)" enable-background="new    ">
			<g>
				<defs>
					<rect id="SVGID_7_" x="81.349" y="47.147" width="99.286" height="67.385"/>
				</defs>
				<clipPath id="SVGID_8_">
					<use xlink:href="#SVGID_7_"  overflow="visible"/>
				</clipPath>
				<path clip-path="url(#SVGID_8_)" fill="#FFFFFF" d="M81.906,63.508C79.86,56.824,83.62,49.748,90.304,47.7
					c2.74-0.838,5.684-0.722,8.35,0.329c7.774,3.045,16.473,9.267,23.649,21.67c5.593,9.663,9.612,16.068,12.485,20.301
					c2.511,3.716,7.558,4.693,11.274,2.182c0.703-0.475,1.327-1.057,1.85-1.726l23.822-30.449l8.9,6.556
					c0,0-20.097,49.928-42.701,47.908C118.446,112.756,92.483,97.623,81.906,63.508"/>
			</g>
		</g>
		<path clip-path="url(#SVGID_4_)" fill="#EC6952" d="M96.38,207.71c0,0,1.33,3.685,4.659,3.969s4.202,3.532,1.208,4.385
			c-2.994,0.853-10.719-3.045-10.719-3.045l0.213-4.801L96.38,207.71z"/>
		<path clip-path="url(#SVGID_4_)" fill="#EC6952" d="M54.532,207.71c0,0-1.319,3.685-4.648,3.969
			c-3.33,0.284-4.203,3.532-1.208,4.385c2.994,0.853,10.718-3.045,10.718-3.045l-0.223-4.761L54.532,207.71z"/>
		<path clip-path="url(#SVGID_4_)" fill="#F4A28C" d="M74.233,29.506c1.393,2.718,2.417,5.609,3.045,8.597
			c0.213,1.49-0.807,2.877-2.294,3.116c-2.347,0.474-4.753-0.471-6.15-2.416l-3.35-3.816c-1.209-1.706-1.209-3.989,0-5.694
			C67.453,26.055,72.842,26.461,74.233,29.506"/>
		<polygon clip-path="url(#SVGID_4_)" fill="#F4A28C" points="67.118,33.576 66.326,51.552 76.263,51.278 72.852,38.306 		"/>
		<path clip-path="url(#SVGID_4_)" fill="#F4A28C" d="M75.664,32.663l2.213,1.38c0.409,0.255,0.534,0.793,0.279,1.203
			c-0.07,0.113-0.166,0.209-0.279,0.279l-1.766,1.198L75.664,32.663z"/>
		<g opacity="0.31" clip-path="url(#SVGID_4_)" enable-background="new    ">
			<g>
				<defs>
					<rect id="SVGID_9_" x="70.244" y="39.768" width="4.476" height="6.09"/>
				</defs>
				<clipPath id="SVGID_10_">
					<use xlink:href="#SVGID_9_"  overflow="visible"/>
				</clipPath>
				<path clip-path="url(#SVGID_10_)" fill="#CE8172" d="M73.654,41.28c-1.259-0.162-2.445-0.687-3.41-1.512
					c0,0,0.517,3.248,4.476,6.09L73.654,41.28z"/>
			</g>
		</g>
		<path clip-path="url(#SVGID_4_)" fill="#EC6952" d="M89.956,46.294c-16.324,0.285-32.438,3.728-47.451,10.14
			c-9.298,3.92-13.658,14.635-9.738,23.932c0.155,0.368,0.322,0.731,0.501,1.088l25.812,51.47l47.867-2.821
			c0,0,8.709-28.927,6.953-61.651C113.182,55.826,102.599,46.033,89.956,46.294"/>
		<path clip-path="url(#SVGID_4_)" fill="#24285B" d="M66.742,40.143l3.431-1.847l0.345-1.817c0.97-1.464,0.97-3.367,0-4.832
			c0,0,6.577-3.197,5.075-5.947c-1.502-2.751-6.394-6.415-11.165-2.934C59.658,26.247,57.343,32.601,66.742,40.143"/>
		<path clip-path="url(#SVGID_4_)" fill="#F4A28C" d="M70.62,36.083c0,0-0.842-1.938-2.243-1.187
			c-1.401,0.75-0.203,3.562,1.898,3.044L70.62,36.083z"/>
		<path clip-path="url(#SVGID_4_)" fill="#FFFFFF" d="M63.362,49.603c5.851-1.663,11.878-2.624,17.956-2.862
			c0,0,8.373,33.424,1.776,60.351C83.104,107.092,73.715,73.171,63.362,49.603"/>
		<g opacity="0.09" clip-path="url(#SVGID_4_)" enable-background="new    ">
			<g>
				<defs>
					<rect id="SVGID_11_" x="34.841" y="65.143" width="49.766" height="67.741"/>
				</defs>
				<clipPath id="SVGID_12_">
					<use xlink:href="#SVGID_11_"  overflow="visible"/>
				</clipPath>
				<path clip-path="url(#SVGID_12_)" d="M44.646,65.143c0,0,16.483,1.37,14.382,12.657s5.076,42.509,9.917,45.105l15.661,8.477
					L59.1,132.884l-8.385-16.707L34.841,84.692L44.646,65.143z"/>
			</g>
		</g>
		<path clip-path="url(#SVGID_4_)" fill="#EC6952" d="M63.362,49.603c0,0-0.325-4.06,2.558-4.192
			c1.578-0.11,3.164,0.027,4.699,0.406c0,0,8.435-6.608,10.699,0.924C81.318,46.741,69.249,48.081,63.362,49.603"/>
		<g opacity="0.77" clip-path="url(#SVGID_4_)" enable-background="new    ">
			<g>
				<defs>
					<rect id="SVGID_13_" x="63.351" y="43.136" width="17.966" height="6.467"/>
				</defs>
				<clipPath id="SVGID_14_">
					<use xlink:href="#SVGID_13_"  overflow="visible"/>
				</clipPath>
				<path clip-path="url(#SVGID_14_)" fill="#FFFFFF" d="M63.362,49.603c0,0-0.325-4.06,2.558-4.192
					c1.578-0.11,3.164,0.027,4.699,0.406c0,0,8.435-6.608,10.699,0.924C81.318,46.741,69.249,48.081,63.362,49.603"/>
			</g>
		</g>
		<path clip-path="url(#SVGID_4_)" fill="#24285B" d="M69.25,48.344c0,0-0.954-3.177,1.015-3.573
			c1.969-0.396,3.817-1.685,4.243,2.386C74.933,51.228,70.924,51.653,69.25,48.344"/>
		<path clip-path="url(#SVGID_4_)" fill="#24285B" d="M70.579,49.917c0,0,6.333,22.411,6.395,36.824l6.089,20.3
			c1.757-7.239,2.606-14.668,2.528-22.117c0,0-6.537-29.486-11.165-36.377L70.579,49.917z"/>
		<polygon clip-path="url(#SVGID_4_)" fill="#FFFFFF" points="171.733,60.027 173.378,57.094 181.609,62.961 179.601,65.823 		"/>
		<path clip-path="url(#SVGID_4_)" fill="#F4A28C" d="M174.565,58.119c0,0,2.792-10.698,5.826-11.845s0.486,5.471,0.486,5.471
			s8.862,4.923,0,10.871L174.565,58.119z"/>
		<path clip-path="url(#SVGID_4_)" fill="#24285B" d="M51.751,208.867l7.349-75.942l47.847-2.823l-8.12,78.775H89.61
			c0,0,2.305-49.958-4.984-61.398v-0.05c-1.279-1.91-3.864-2.419-5.773-1.14c-0.554,0.371-1.011,0.87-1.331,1.455
			c-10.008,18.654-16.027,61.133-16.027,61.133L51.751,208.867z"/>
		<path clip-path="url(#SVGID_4_)" fill="#EC6952" d="M36.638,60.433c0,0-40.996,37.271-36.256,48.243
			c4.74,10.972,47.705,29.943,47.705,29.943l5.075-6.374c0,0-23.568-22.331-23.721-25.153c-0.152-2.821,8.902-6.425,16.758-16.351
			C54.055,80.814,60.875,57.266,36.638,60.433"/>
		<g opacity="0.64" clip-path="url(#SVGID_4_)" enable-background="new    ">
			<g>
				<defs>
					<rect id="SVGID_15_" y="60.143" width="53.476" height="78.476"/>
				</defs>
				<clipPath id="SVGID_16_">
					<use xlink:href="#SVGID_15_"  overflow="visible"/>
				</clipPath>
				<path clip-path="url(#SVGID_16_)" fill="#FFFFFF" d="M36.638,60.433c0,0-40.996,37.271-36.256,48.243
					c4.74,10.972,47.705,29.943,47.705,29.943l5.075-6.374c0,0-23.568-22.331-23.721-25.153c-0.152-2.821,8.902-6.425,16.758-16.351
					C54.055,80.814,60.875,57.266,36.638,60.433"/>
			</g>
		</g>
		<path clip-path="url(#SVGID_4_)" fill="#F4A28C" d="M53.151,132.245c0,0,5.43,3.815,5.765,5.53
			c0.335,1.717-0.446,8.455-2.03,9.015c-1.583,0.558-5.785-0.782-4.892-1.675l1.441-1.441c0,0-4.932-2.447-5.359-5.075
			L53.151,132.245z"/>
		<path clip-path="url(#SVGID_4_)" fill="#F4A28C" d="M212.912,49.177c0,0-10.332-0.518-12.981,6.354
			c-2.649,6.871,1.097,39.869-2.568,42.011c-3.664,2.141-29.079-8.882-29.079-8.882c-1.591-1.32-3.328-2.455-5.177-3.379
			c-1.827-0.701-0.223,1.44-0.152,2.101c0,0-7.105-3.502-7.298,0.395c-0.193,3.898,37.423,23.995,48.324,20.96
			c10.902-3.035,8.871-58.261,8.871-58.261"/>
		<polygon clip-path="url(#SVGID_4_)" fill="#F4A28C" points="239.425,149.368 247.758,210.531 243.574,210.348 223.875,148.708 		
			"/>
		<polygon clip-path="url(#SVGID_4_)" fill="#F4A28C" points="219.713,148.86 209.441,208.887 205.238,208.705 205.452,147.916 		
			"/>
		<path clip-path="url(#SVGID_4_)" fill="#EC6952" d="M247.758,210.531c0,0,2.202,3.045,5.176,3.045s3.238,4.202-1.532,3.563
			c-1.482-0.19-2.945-0.506-4.375-0.943c-1.33-0.359-2.73-0.359-4.06,0c-0.528,0.102-1.063-0.139-1.34-0.6
			c-1.289-1.653,2.201-5.186,2.201-5.186L247.758,210.531z"/>
		<path clip-path="url(#SVGID_4_)" fill="#EC6952" d="M205.544,208.715c0,0-2.457,2.853-5.421,2.578
			c-2.963-0.274-3.582,3.918,1.219,3.685c1.495-0.064,2.982-0.254,4.445-0.569c1.357-0.258,2.759-0.149,4.061,0.315
			c0.52,0.144,1.074-0.05,1.389-0.488c1.433-1.532-1.744-5.348-1.744-5.348L205.544,208.715z"/>
		<polygon clip-path="url(#SVGID_4_)" fill="#24285B" points="235.344,100.627 248.539,166.572 196.642,167.709 204.336,100.302 		
			"/>
		<path clip-path="url(#SVGID_4_)" fill="#F4A28C" d="M212.801,27.902c0,0-0.903,6.232-0.091,10.454
			c0.329,1.712,1.984,2.833,3.695,2.503c0.011-0.002,0.02-0.004,0.029-0.006c2.708-0.376,4.946-2.301,5.724-4.923l2.203-5.389
			c0.67-2.304-0.188-4.779-2.142-6.171C218.851,21.609,213.166,24.076,212.801,27.902"/>
		<polygon clip-path="url(#SVGID_4_)" fill="#F4A28C" points="223.875,29.008 223.905,49.644 216.242,49.105 218.333,34.855 		"/>
		<path clip-path="url(#SVGID_4_)" fill="#F4A28C" d="M212.436,31.851l-1.898,2.324c-0.349,0.439-0.275,1.077,0.163,1.426
			c0.11,0.088,0.238,0.152,0.375,0.188l2.385,0.599L212.436,31.851z"/>
		<path clip-path="url(#SVGID_4_)" fill="#24285B" d="M210.608,28.014L210.608,28.014c4.801,1.385,9.056,4.221,12.18,8.12
			l0.954,1.198c0,0,5.918-7.714,4.06-12.546C225.945,19.955,213.653,14.809,210.608,28.014"/>
		<path clip-path="url(#SVGID_4_)" fill="#24285B" d="M228.3,15.803c2.22,0,4.02,1.8,4.02,4.02c0,2.219-1.8,4.019-4.02,4.019
			s-4.021-1.8-4.021-4.019C224.279,17.604,226.08,15.803,228.3,15.803"/>
		<path clip-path="url(#SVGID_4_)" fill="#F4A28C" d="M219.175,33.678c0,0,0.183-2.416,2.03-2.122
			c1.848,0.295,1.563,3.787-0.925,3.969L219.175,33.678z"/>
		<path clip-path="url(#SVGID_4_)" fill="#EC6952" d="M213.096,44.731l14.28,0.609l-0.142,4.446c0,0,24.014,0.578,21.66,16.097
			c-2.356,15.52-13.54,34.785-13.54,34.785l-27.842-0.193c-5.137-8.425-9.088-17.516-11.743-27.019
			c-3.939-14.759,17.193-24.279,17.193-24.279L213.096,44.731z"/>
		<g opacity="0.09" clip-path="url(#SVGID_4_)" enable-background="new    ">
			<g>
				<defs>
					<rect id="SVGID_17_" x="215.673" y="59.479" width="25.482" height="41.412"/>
				</defs>
				<clipPath id="SVGID_18_">
					<use xlink:href="#SVGID_17_"  overflow="visible"/>
				</clipPath>
				<path clip-path="url(#SVGID_18_)" d="M240.227,59.479c0,0-10.272,2.659-8.313,16.687c1.959,14.027-0.273,18.736-16.24,19.65
					l2.487,5.075l17.194-0.224c0,0,4.344-7.724,5.43-10.586C241.87,87.219,240.227,59.479,240.227,59.479"/>
			</g>
		</g>
		
			<rect x="191.738" y="73.613" transform="matrix(-0.9989 0.0474 -0.0474 -0.9989 413.5632 172.47)" clip-path="url(#SVGID_4_)" fill="#FFD200" width="25.994" height="35.058"/>
		<path clip-path="url(#SVGID_4_)" fill="#F4A28C" d="M221.55,104.474c0,0-2.253-5.481-7.47-4.933
			c-5.219,0.548-1.959,10.303,4.952,10.84c6.913,0.538,21.315,17.976,30.541,9.714c9.228-8.262,9.836-53.43-1.694-61.154
			s-11.977,15.875-7.531,29.76C244.794,102.586,247.971,119.313,221.55,104.474"/>
		<path clip-path="url(#SVGID_4_)" fill="#EC6952" d="M258.699,107.539c0,0-0.051,0.538-0.184,1.482
			c-0.751,5.643-4.15,25.558-14.829,27.78c-12.453,2.59-25.82-3.218-25.82-3.218l-2.619,5.979c0,0,20.473,20.817,35.596,14.342
			c15.124-6.477,21.051-23.802,21.051-23.802L258.699,107.539z"/>
		<g opacity="0.46" clip-path="url(#SVGID_4_)" enable-background="new    ">
			<g>
				<defs>
					<rect id="SVGID_19_" x="215.247" y="107.539" width="56.646" height="47.615"/>
				</defs>
				<clipPath id="SVGID_20_">
					<use xlink:href="#SVGID_19_"  overflow="visible"/>
				</clipPath>
				<path clip-path="url(#SVGID_20_)" fill="#FFFFFF" d="M258.699,107.539c0,0-0.051,0.538-0.184,1.482
					c-0.751,5.643-4.15,25.558-14.829,27.78c-12.453,2.59-25.82-3.218-25.82-3.218l-2.619,5.979c0,0,20.473,20.817,35.596,14.342
					c15.124-6.477,21.051-23.802,21.051-23.802L258.699,107.539z"/>
			</g>
		</g>
		<path clip-path="url(#SVGID_4_)" fill="#F4A28C" d="M276.695,66.898c-1.282,2.403-2.238,4.967-2.842,7.623
			c-0.215,1.336,0.694,2.593,2.029,2.811c2.076,0.459,4.229-0.334,5.512-2.03l3.045-3.36c1.1-1.504,1.129-3.54,0.07-5.074
			C282.785,63.915,277.984,64.199,276.695,66.898"/>
		<polygon clip-path="url(#SVGID_4_)" fill="#F4A28C" points="282.207,72.532 286.054,88.112 277.313,89.615 278.005,77.972 		"/>
		<path clip-path="url(#SVGID_4_)" fill="#F4A28C" d="M275.376,69.7l-2.03,1.187c-0.367,0.238-0.473,0.728-0.236,1.095
			c0.063,0.094,0.143,0.175,0.236,0.236l1.583,1.014L275.376,69.7z"/>
		<g opacity="0.31" clip-path="url(#SVGID_4_)" enable-background="new    ">
			<g>
				<defs>
					<rect id="SVGID_21_" x="277.669" y="75.618" width="4.588" height="8.252"/>
				</defs>
				<clipPath id="SVGID_22_">
					<use xlink:href="#SVGID_21_"  overflow="visible"/>
				</clipPath>
				<path clip-path="url(#SVGID_22_)" fill="#CE8172" d="M277.984,77.323c0,0,3.207-0.69,4.271-1.706c0,0-0.303,7.298-4.586,8.252
					L277.984,77.323z"/>
			</g>
		</g>
		<path clip-path="url(#SVGID_4_)" fill="#F4A28C" d="M280.471,72.309c0,0,0.771-1.726,2.029-1.015
			c1.26,0.71,0.133,3.177-1.734,2.649L280.471,72.309z"/>
		<path clip-path="url(#SVGID_4_)" fill="#24285B" d="M286.632,71.994h-0.71c-0.914,0.061-0.731,1.187-1.808,1.147
			c-0.181-0.03-0.364-0.05-0.548-0.061c-0.411,0.047-0.78,0.269-1.015,0.609c-0.219,0.332-0.494,0.624-0.813,0.863
			c-0.323,0.184-0.711,0.221-1.064,0.101c-0.119-0.035-0.227-0.106-0.305-0.202c-0.142-0.224,0-0.518,0.112-0.762
			c0.193-0.382,0.356-0.779,0.487-1.187c0.111-0.356,0.202-0.711,0.294-1.015c0.091-0.305,0.476-1.198,0.305-1.482
			c-0.173-0.284-0.681-0.356-0.915-0.549c-0.232-0.192-0.436-0.547-0.811-0.751c-0.843-0.466-1.868-0.497-2.731-0.933
			c-0.339-0.15-0.621-0.407-0.801-0.731c-0.173-0.33-0.129-0.731,0.111-1.015c0.325-0.325,1.016-0.467,0.902-0.913
			c0-0.183-0.202-0.305-0.354-0.417c-0.823-0.57-1.339-1.487-1.4-2.487c-0.038-1.02,0.651-1.925,1.645-2.161
			c0.589-0.102,1.359,0,1.634-0.518c0.092-0.288,0.113-0.595,0.061-0.893c-0.023-1.054,0.813-1.927,1.865-1.951
			c0.511-0.011,1.006,0.183,1.373,0.54c0.254,0.254,0.466,0.589,0.813,0.649c0.345,0.061,0.832-0.385,1.228-0.659
			c0.612-0.391,1.385-0.427,2.03-0.092c0.635,0.348,1.116,0.919,1.35,1.604c0.067,0.269,0.188,0.521,0.355,0.741
			c0.184,0.165,0.407,0.277,0.648,0.325c1.017,0.254,2.274,0,3.045,0.659c0.652,0.58,0.758,1.559,0.245,2.264
			c-0.264,0.325-0.661,0.599-0.67,1.015c0.01,0.232,0.092,0.455,0.233,0.639c0.518,0.833,1.116,1.797,0.771,2.71
			c-0.345,0.914-1.542,1.706-2.222,2.335c-0.681,0.629-2.03,0.396-2.518,1.228c-0.214,0.376-0.152,0.904-0.468,1.198
			C286.883,71.92,286.761,71.973,286.632,71.994"/>
		<path clip-path="url(#SVGID_4_)" fill="#F4A28C" d="M283.638,71.06c0,0,2.629-0.843,3.045,1.198
			c0.416,2.04-2.467,2.892-3.979,1.38C283.316,72.92,283.648,72.004,283.638,71.06"/>
		<rect x="262.668" y="175.604" clip-path="url(#SVGID_4_)" fill="#E6E6E6" width="56.738" height="40.549"/>
		<g opacity="0.08" clip-path="url(#SVGID_4_)" enable-background="new    ">
			<g>
				<defs>
					<rect id="SVGID_23_" x="260.15" y="180.446" width="17.499" height="35.708"/>
				</defs>
				<clipPath id="SVGID_24_">
					<use xlink:href="#SVGID_23_"  overflow="visible"/>
				</clipPath>
				<polygon clip-path="url(#SVGID_24_)" points="277.649,216.154 274.919,180.447 263.541,182.182 260.15,195.875 262.668,216.154 
									"/>
			</g>
		</g>
		<path clip-path="url(#SVGID_4_)" fill="#EC6952" d="M276.218,211.466c0,0-1.208,3.38-4.263,3.633
			c-3.055,0.254-3.857,3.248-1.106,4.06c2.751,0.813,9.825-2.751,9.825-2.751l-0.203-4.404L276.218,211.466z"/>
		<path clip-path="url(#SVGID_4_)" fill="#EC6952" d="M276.573,89.432l8.729-1.502c0,0,29.06,0,34.146,9.998
			c5.085,9.997,4.06,46.994-12.789,77.394l-34.409,1.015c0,0,1.908-22.33-4.506-34.51
			C261.328,129.646,241.444,103.825,276.573,89.432"/>
		<path clip-path="url(#SVGID_4_)" fill="#24285B" d="M306.658,175.321l-16.829-2.537c-8.796-1.331-17.006,4.721-18.336,13.516
			c-0.203,1.345-0.236,2.71-0.098,4.063l2.203,21.387h8.252l-0.711-20.018c-0.158-4.179,3.1-7.694,7.278-7.854
			c0.499-0.019,0.999,0.011,1.492,0.09C297.076,185.116,305.958,184.619,306.658,175.321"/>
		<path clip-path="url(#SVGID_4_)" fill="#EC6952" d="M259.085,211.466c0,0-1.218,3.38-4.263,3.633
			c-3.046,0.254-3.857,3.248-1.117,4.06c2.74,0.813,9.836-2.751,9.836-2.751l-0.203-4.404L259.085,211.466z"/>
		<g opacity="0.08" clip-path="url(#SVGID_4_)" enable-background="new    ">
			<g>
				<defs>
					<rect id="SVGID_25_" x="278.654" y="101.49" width="43.472" height="73.832"/>
				</defs>
				<clipPath id="SVGID_26_">
					<use xlink:href="#SVGID_25_"  overflow="visible"/>
				</clipPath>
				<path clip-path="url(#SVGID_26_)" d="M303.715,101.49c0,0-9.541,8.363-7.633,17.6c0.314,1.492,0.639,3.298,0.954,5.278
					c2.513,15.503-2.021,31.318-12.363,43.138l-6.02,6.881l28.004,0.935l2.396-4.689l13.073-21.721L303.715,101.49z"/>
			</g>
		</g>
		<path clip-path="url(#SVGID_4_)" fill="#24285B" d="M289.524,175.321l-16.828-2.537c-8.797-1.331-17.006,4.721-18.337,13.516
			c-0.203,1.345-0.235,2.71-0.096,4.063l2.192,21.387h8.261l-0.71-20.018c-0.159-4.179,3.1-7.694,7.278-7.854
			c0.499-0.019,0.999,0.011,1.492,0.09C279.943,185.116,288.824,184.619,289.524,175.321"/>
		<path clip-path="url(#SVGID_4_)" fill="#EC6952" d="M319.935,98.84c6.374,8.973,12.048,28.786,7.104,56.708
			c-1.517,8.492-8.644,14.849-17.254,15.388l-26.299,1.664v-8.576l19.985-2.893c4.184-0.601,7.09-4.479,6.489-8.662
			c-0.056-0.392-0.142-0.776-0.257-1.153c-3.512-11.591-8.973-32.592-7.562-47.553C303.003,94.669,314.646,91.4,319.935,98.84"/>
		<g opacity="0.46" clip-path="url(#SVGID_4_)" enable-background="new    ">
			<g>
				<defs>
					<rect id="SVGID_27_" x="283.485" y="94.73" width="45.432" height="77.871"/>
				</defs>
				<clipPath id="SVGID_28_">
					<use xlink:href="#SVGID_27_"  overflow="visible"/>
				</clipPath>
				<path clip-path="url(#SVGID_28_)" fill="#FFFFFF" d="M319.935,98.84c6.374,8.973,12.048,28.786,7.104,56.708
					c-1.517,8.492-8.644,14.849-17.254,15.388l-26.299,1.664v-8.576l19.985-2.893c4.184-0.601,7.09-4.479,6.489-8.662
					c-0.056-0.392-0.142-0.776-0.257-1.153c-3.512-11.591-8.973-32.592-7.562-47.553C303.003,94.669,314.646,91.4,319.935,98.84"/>
			</g>
		</g>
		<path clip-path="url(#SVGID_4_)" fill="#F4A28C" d="M283.485,166.105c0,0-10.668-0.274-9.135,5.288
			c1.531,5.562,9.135,1.207,9.135,1.207V166.105z"/>
		<polygon clip-path="url(#SVGID_4_)" fill="#FFD200" points="247.98,174.601 243.677,150.25 274.229,150.25 276.877,171.007 
			290.885,171.21 290.885,174.601 		"/>
		<path clip-path="url(#SVGID_4_)" fill="#FFFFFF" d="M260.15,158.868c1.687,0,3.056,1.367,3.056,3.055
			c0,1.687-1.369,3.055-3.056,3.055c-1.688,0-3.056-1.368-3.056-3.055C257.095,160.235,258.463,158.868,260.15,158.868"/>
		<path clip-path="url(#SVGID_4_)" fill="#F4A28C" d="M217.855,133.584c0,0-1.816-4.496-2.618-3.848
			c-0.464,0.396-0.606,1.054-0.346,1.604c0,0-1.878-3.045-2.781-3.156c-0.903-0.112-2.598,2.456-2.466,4.465
			c0.132,2.01,5.593,6.913,5.593,6.913L217.855,133.584z"/>
		<g opacity="0.58" clip-path="url(#SVGID_4_)" enable-background="new    ">
			<g>
				<defs>
					<rect id="SVGID_29_" x="120.557" y="194.46" width="13.338" height="10.966"/>
				</defs>
				<clipPath id="SVGID_30_">
					<use xlink:href="#SVGID_29_"  overflow="visible"/>
				</clipPath>
				<path clip-path="url(#SVGID_30_)" fill="#EC6952" d="M130.708,204.746c0,0-8.374-2.294-10.15-10.079
					c0,0,12.962-2.618,13.337,10.759L130.708,204.746z"/>
			</g>
		</g>
		<g opacity="0.73" clip-path="url(#SVGID_4_)" enable-background="new    ">
			<g>
				<defs>
					<rect id="SVGID_31_" x="128.914" y="186.029" width="8.713" height="17.904"/>
				</defs>
				<clipPath id="SVGID_32_">
					<use xlink:href="#SVGID_31_"  overflow="visible"/>
				</clipPath>
				<path clip-path="url(#SVGID_32_)" fill="#EC6952" d="M131.733,203.914c0,0-5.847-9.247-0.7-17.886c0,0,9.855,6.264,5.471,17.906
					L131.733,203.914z"/>
			</g>
		</g>
		<path clip-path="url(#SVGID_4_)" fill="#EC6952" d="M133.235,203.914c0,0,3.045-9.755,12.424-11.603c0,0,1.756,6.333-6.039,11.632
			L133.235,203.914z"/>
		<polygon clip-path="url(#SVGID_4_)" fill="#24285B" points="127.166,203.7 128.86,215.302 139.548,215.352 141.121,203.751 		"/>
		<path clip-path="url(#SVGID_4_)" fill="#F2F2F2" d="M276.34,10.871h-6.679c-10.398,0-18.828,8.43-18.828,18.828v0.01
			c0.003,7.646,4.627,14.532,11.703,17.428l3.755,10.282l1.462-8.983c0.634,0.069,1.271,0.103,1.908,0.102h6.679
			c10.396-0.006,18.822-8.433,18.828-18.829C295.168,19.309,286.739,10.875,276.34,10.871"/>
		<path clip-path="url(#SVGID_4_)" fill="#F2F2F2" d="M204.306,21.721L204.306,21.721c-0.019-7.416-6.033-13.418-13.449-13.418
			h-17.417c-7.428,0-13.449,6.021-13.449,13.449v0.01c0.022,7.412,6.037,13.408,13.449,13.408h17.438
			c1.396-0.002,2.782-0.221,4.11-0.65l9.338,4.152l-3.999-7.389C202.881,28.758,204.314,25.313,204.306,21.721"/>
		<path clip-path="url(#SVGID_4_)" fill="#F2F2F2" d="M129.185,0h-21.498c-9.165,0-16.595,7.43-16.595,16.595
			c0.003,5.222,2.466,10.138,6.649,13.266l-4.73,9.379l10.555-6.577c1.347,0.35,2.731,0.531,4.121,0.538h21.498
			c9.162-0.006,16.585-7.434,16.585-16.596C145.776,7.44,138.351,0.005,129.185,0"/>
	</g>
</g>
</svg>
