<?xml version="1.0" encoding="utf-8"?>
<!-- Generator: Adobe Illustrator 16.0.0, SVG Export Plug-In . SVG Version: 6.00 Build 0)  -->
<!DOCTYPE svg PUBLIC "-//W3C//DTD SVG 1.1//EN" "http://www.w3.org/Graphics/SVG/1.1/DTD/svg11.dtd">
<svg version="1.1" id="Layer_1" xmlns="http://www.w3.org/2000/svg" xmlns:xlink="http://www.w3.org/1999/xlink" x="0px" y="0px"
	 width="119.664px" height="40px" viewBox="0 0 119.664 40" enable-background="new 0 0 119.664 40" xml:space="preserve">
<g>
	<defs>
		<rect id="SVGID_1_" width="119.664" height="40"/>
	</defs>
	<clipPath id="SVGID_2_">
		<use xlink:href="#SVGID_1_"  overflow="visible"/>
	</clipPath>
	<path clip-path="url(#SVGID_2_)" fill="#B7B7B7" d="M110.135,0H9.534C9.168,0,8.805,0,8.44,0.002
		C8.133,0.004,7.83,0.01,7.521,0.015c-0.666,0.016-1.34,0.057-2.004,0.176c-0.67,0.118-1.292,0.318-1.901,0.627
		C3.017,1.125,2.47,1.523,1.997,1.997C1.52,2.471,1.122,3.02,0.819,3.618C0.508,4.227,0.312,4.852,0.194,5.521
		C0.073,6.184,0.032,6.854,0.015,7.523C0.006,7.83,0.005,8.138,0,8.444v1.092v20.929v1.094c0.005,0.311,0.006,0.611,0.015,0.922
		c0.017,0.67,0.058,1.34,0.179,2.002c0.117,0.67,0.314,1.298,0.625,1.904c0.303,0.596,0.7,1.145,1.178,1.614
		c0.473,0.478,1.02,0.875,1.619,1.179c0.609,0.313,1.231,0.51,1.901,0.631c0.664,0.119,1.338,0.158,2.004,0.177
		c0.309,0.007,0.612,0.011,0.919,0.011C8.805,40,9.168,40,9.534,40h100.601c0.359,0,0.725,0,1.084-0.002
		c0.306,0,0.617-0.004,0.923-0.011c0.67-0.019,1.342-0.058,2-0.177c0.67-0.121,1.292-0.318,1.907-0.631
		c0.598-0.304,1.145-0.701,1.617-1.179c0.477-0.47,0.872-1.019,1.182-1.614c0.307-0.606,0.507-1.234,0.618-1.904
		c0.124-0.662,0.162-1.332,0.188-2.002c0.002-0.311,0.002-0.611,0.002-0.922c0.008-0.363,0.008-0.725,0.008-1.094V9.536
		c0-0.366,0-0.729-0.008-1.092c0-0.306,0-0.614-0.002-0.921c-0.025-0.669-0.063-1.339-0.188-2.002
		c-0.111-0.669-0.312-1.294-0.618-1.903c-0.31-0.598-0.705-1.147-1.182-1.621c-0.473-0.474-1.02-0.872-1.617-1.179
		c-0.615-0.309-1.237-0.509-1.907-0.627c-0.658-0.119-1.33-0.16-2-0.176c-0.306-0.005-0.617-0.011-0.923-0.013
		C110.859,0,110.494,0,110.135,0"/>
	<path clip-path="url(#SVGID_2_)" fill="#000001" d="M8.445,39.125c-0.305,0-0.602-0.004-0.904-0.011
		c-0.559-0.016-1.222-0.047-1.869-0.163c-0.611-0.11-1.153-0.29-1.657-0.548c-0.522-0.265-0.99-0.606-1.397-1.017
		c-0.414-0.406-0.755-0.873-1.021-1.396c-0.259-0.505-0.436-1.047-0.543-1.657c-0.122-0.673-0.153-1.355-0.166-1.875
		c-0.006-0.211-0.015-0.913-0.015-0.913V8.444c0,0,0.009-0.691,0.015-0.894c0.013-0.524,0.044-1.206,0.165-1.872
		C1.16,5.064,1.338,4.522,1.597,4.016c0.265-0.525,0.606-0.994,1.015-1.398c0.414-0.414,0.884-0.757,1.402-1.023
		C4.528,1.334,5.07,1.156,5.668,1.051C6.341,0.931,7.024,0.9,7.543,0.887l0.902-0.012h102.769l0.913,0.013
		c0.512,0.012,1.195,0.043,1.857,0.162c0.604,0.106,1.148,0.285,1.672,0.548c0.514,0.263,0.981,0.606,1.392,1.016
		c0.41,0.406,0.752,0.878,1.022,1.404c0.259,0.511,0.435,1.053,0.536,1.649c0.115,0.631,0.151,1.279,0.174,1.887
		c0.003,0.283,0.003,0.588,0.003,0.89c0.009,0.375,0.009,0.732,0.009,1.092v20.929c0,0.363,0,0.718-0.009,1.075
		c0,0.325,0,0.623-0.005,0.93c-0.021,0.589-0.057,1.236-0.171,1.854c-0.103,0.613-0.278,1.155-0.54,1.67
		c-0.268,0.52-0.611,0.989-1.015,1.386c-0.414,0.418-0.882,0.759-1.399,1.022c-0.52,0.264-1.049,0.438-1.669,0.55
		c-0.64,0.116-1.303,0.147-1.868,0.163c-0.292,0.007-0.601,0.011-0.898,0.011l-1.084,0.002L8.445,39.125z"/>
	<path clip-path="url(#SVGID_2_)" fill="#FFFFFF" d="M24.769,20.301c-0.025-2.751,2.252-4.089,2.356-4.152
		c-1.289-1.881-3.289-2.138-3.991-2.158c-1.679-0.176-3.307,1.005-4.163,1.005c-0.872,0-2.189-0.987-3.608-0.958
		c-1.826,0.028-3.536,1.086-4.473,2.728c-1.934,3.349-0.492,8.27,1.361,10.976c0.927,1.326,2.01,2.807,3.428,2.754
		c1.387-0.058,1.905-0.885,3.579-0.885c1.659,0,2.145,0.885,3.591,0.852c1.488-0.024,2.426-1.332,3.32-2.67
		c1.072-1.52,1.502-3.016,1.519-3.092C27.653,24.688,24.797,23.599,24.769,20.301"/>
	<path clip-path="url(#SVGID_2_)" fill="#FFFFFF" d="M22.037,12.211c0.746-0.933,1.256-2.202,1.115-3.491
		c-1.08,0.048-2.43,0.747-3.208,1.66c-0.688,0.804-1.303,2.123-1.144,3.361C20.013,13.832,21.259,13.129,22.037,12.211"/>
	<path clip-path="url(#SVGID_2_)" fill="#FFFFFF" d="M42.302,27.14h-4.733l-1.137,3.356h-2.005l4.484-12.418h2.083l4.483,12.418
		h-2.039L42.302,27.14z M38.059,25.591h3.752l-1.85-5.447H39.91L38.059,25.591z"/>
	<path clip-path="url(#SVGID_2_)" fill="#FFFFFF" d="M55.16,25.97c0,2.813-1.506,4.621-3.778,4.621c-1.29,0-2.315-0.577-2.849-1.584
		h-0.043v4.483h-1.858V21.442h1.799v1.506h0.034c0.516-0.972,1.618-1.601,2.883-1.601C53.646,21.348,55.16,23.164,55.16,25.97
		 M53.25,25.97c0-1.833-0.947-3.038-2.393-3.038c-1.42,0-2.375,1.23-2.375,3.038c0,1.824,0.955,3.046,2.375,3.046
		C52.303,29.016,53.25,27.819,53.25,25.97"/>
	<path clip-path="url(#SVGID_2_)" fill="#FFFFFF" d="M65.124,25.97c0,2.813-1.506,4.621-3.777,4.621
		c-1.29,0-2.315-0.577-2.849-1.584h-0.043v4.483h-1.858V21.442h1.799v1.506h0.034c0.516-0.972,1.619-1.601,2.883-1.601
		C63.61,21.348,65.124,23.164,65.124,25.97 M63.215,25.97c0-1.833-0.947-3.038-2.394-3.038c-1.42,0-2.375,1.23-2.375,3.038
		c0,1.824,0.955,3.046,2.375,3.046C62.268,29.016,63.215,27.819,63.215,25.97"/>
	<path clip-path="url(#SVGID_2_)" fill="#FFFFFF" d="M71.711,27.036c0.138,1.231,1.334,2.04,2.969,2.04
		c1.565,0,2.692-0.809,2.692-1.919c0-0.964-0.68-1.541-2.288-1.937l-1.609-0.388c-2.281-0.551-3.339-1.617-3.339-3.348
		c0-2.142,1.867-3.614,4.518-3.614c2.624,0,4.423,1.472,4.484,3.614h-1.876c-0.113-1.239-1.138-1.987-2.634-1.987
		c-1.497,0-2.521,0.757-2.521,1.858c0,0.878,0.654,1.395,2.254,1.79l1.369,0.336c2.547,0.603,3.606,1.626,3.606,3.442
		c0,2.323-1.852,3.778-4.795,3.778c-2.754,0-4.612-1.421-4.732-3.667H71.711z"/>
	<path clip-path="url(#SVGID_2_)" fill="#FFFFFF" d="M83.347,19.3v2.143h1.722v1.472h-1.722v4.991c0,0.775,0.345,1.137,1.102,1.137
		c0.188,0,0.491-0.026,0.611-0.043v1.463c-0.206,0.052-0.619,0.086-1.032,0.086c-1.833,0-2.548-0.688-2.548-2.444v-5.189h-1.317
		v-1.472h1.317V19.3H83.347z"/>
	<path clip-path="url(#SVGID_2_)" fill="#FFFFFF" d="M86.065,25.97c0-2.849,1.677-4.639,4.294-4.639c2.625,0,4.295,1.79,4.295,4.639
		c0,2.856-1.662,4.639-4.295,4.639S86.065,28.826,86.065,25.97 M92.761,25.97c0-1.954-0.896-3.107-2.401-3.107
		c-1.506,0-2.401,1.162-2.401,3.107c0,1.962,0.896,3.106,2.401,3.106C91.864,29.076,92.761,27.932,92.761,25.97"/>
	<path clip-path="url(#SVGID_2_)" fill="#FFFFFF" d="M96.187,21.442h1.771v1.541h0.043c0.285-1.024,1.111-1.636,2.178-1.636
		c0.268,0,0.49,0.035,0.638,0.069v1.738c-0.147-0.061-0.475-0.112-0.835-0.112c-1.196,0-1.938,0.81-1.938,2.083v5.37h-1.857V21.442z
		"/>
	<path clip-path="url(#SVGID_2_)" fill="#FFFFFF" d="M109.384,27.837c-0.25,1.644-1.85,2.771-3.897,2.771
		c-2.634,0-4.27-1.765-4.27-4.596c0-2.84,1.645-4.682,4.191-4.682c2.505,0,4.08,1.721,4.08,4.466v0.637h-6.396v0.112
		c0,1.549,0.974,2.564,2.437,2.564c1.032,0,1.842-0.49,2.091-1.273H109.384z M103.103,25.135h4.525
		c-0.043-1.386-0.929-2.298-2.22-2.298C104.125,22.837,103.197,23.767,103.103,25.135"/>
	<path clip-path="url(#SVGID_2_)" fill="#FFFFFF" d="M37.827,8.731c1.769,0,2.807,1.087,2.807,2.965c0,1.906-1.03,3.002-2.807,3.002
		h-2.156V8.731H37.827z M36.598,13.854h1.125c1.248,0,1.968-0.777,1.968-2.146c0-1.348-0.732-2.134-1.968-2.134h-1.125V13.854z"/>
	<path clip-path="url(#SVGID_2_)" fill="#FFFFFF" d="M41.681,12.444c0-1.452,0.811-2.336,2.125-2.336
		c1.312,0,2.122,0.884,2.122,2.336c0,1.459-0.807,2.34-2.122,2.34C42.488,14.784,41.681,13.903,41.681,12.444 M45.014,12.444
		c0-0.976-0.438-1.547-1.208-1.547c-0.772,0-1.207,0.571-1.207,1.547c0,0.984,0.435,1.55,1.207,1.55
		C44.576,13.994,45.014,13.424,45.014,12.444"/>
	<polygon clip-path="url(#SVGID_2_)" fill="#FFFFFF" points="51.573,14.698 50.651,14.698 49.72,11.382 49.65,11.382 48.723,14.698 
		47.81,14.698 46.569,10.195 47.47,10.195 48.277,13.631 48.344,13.631 49.27,10.195 50.122,10.195 51.048,13.631 51.118,13.631 
		51.921,10.195 52.809,10.195 	"/>
	<path clip-path="url(#SVGID_2_)" fill="#FFFFFF" d="M53.854,10.195h0.855v0.715h0.067c0.219-0.5,0.666-0.802,1.344-0.802
		c1.005,0,1.558,0.604,1.558,1.675v2.915H56.79v-2.692c0-0.724-0.315-1.083-0.972-1.083c-0.657,0-1.075,0.438-1.075,1.141v2.634
		h-0.889V10.195z"/>
	<rect x="59.094" y="8.437" clip-path="url(#SVGID_2_)" fill="#FFFFFF" width="0.89" height="6.261"/>
	<path clip-path="url(#SVGID_2_)" fill="#FFFFFF" d="M61.218,12.444c0-1.452,0.811-2.336,2.125-2.336
		c1.313,0,2.123,0.884,2.123,2.336c0,1.459-0.808,2.34-2.123,2.34C62.024,14.784,61.218,13.903,61.218,12.444 M64.551,12.444
		c0-0.976-0.438-1.547-1.208-1.547c-0.772,0-1.207,0.571-1.207,1.547c0,0.984,0.435,1.55,1.207,1.55
		C64.113,13.994,64.551,13.424,64.551,12.444"/>
	<path clip-path="url(#SVGID_2_)" fill="#FFFFFF" d="M66.4,13.425c0-0.811,0.604-1.278,1.675-1.344l1.22-0.071v-0.388
		c0-0.476-0.313-0.745-0.922-0.745c-0.496,0-0.84,0.183-0.938,0.501h-0.861c0.091-0.774,0.819-1.27,1.84-1.27
		c1.129,0,1.767,0.562,1.767,1.514v3.076h-0.856v-0.633h-0.069c-0.27,0.451-0.762,0.707-1.354,0.707
		C67.033,14.771,66.4,14.248,66.4,13.425 M69.295,13.04v-0.376l-1.1,0.07c-0.62,0.041-0.901,0.252-0.901,0.649
		c0,0.406,0.353,0.641,0.836,0.641C68.8,14.023,69.295,13.598,69.295,13.04"/>
	<path clip-path="url(#SVGID_2_)" fill="#FFFFFF" d="M71.348,12.444c0-1.423,0.731-2.324,1.869-2.324
		c0.616,0,1.138,0.293,1.381,0.79h0.066V8.438h0.889v6.26h-0.851v-0.711h-0.071c-0.268,0.492-0.794,0.786-1.414,0.786
		C72.072,14.772,71.348,13.87,71.348,12.444 M72.266,12.444c0,0.955,0.45,1.53,1.203,1.53c0.749,0,1.212-0.583,1.212-1.526
		c0-0.939-0.468-1.53-1.212-1.53C72.721,10.918,72.266,11.497,72.266,12.444"/>
	<path clip-path="url(#SVGID_2_)" fill="#FFFFFF" d="M79.23,12.444c0-1.452,0.811-2.336,2.125-2.336
		c1.312,0,2.121,0.884,2.121,2.336c0,1.459-0.807,2.34-2.121,2.34C80.037,14.784,79.23,13.903,79.23,12.444 M82.563,12.444
		c0-0.976-0.438-1.547-1.208-1.547c-0.772,0-1.207,0.571-1.207,1.547c0,0.984,0.435,1.55,1.207,1.55
		C82.125,13.994,82.563,13.424,82.563,12.444"/>
	<path clip-path="url(#SVGID_2_)" fill="#FFFFFF" d="M84.67,10.195h0.854v0.715h0.067c0.219-0.5,0.666-0.802,1.344-0.802
		c1.005,0,1.558,0.604,1.558,1.675v2.915h-0.888v-2.692c0-0.724-0.315-1.083-0.972-1.083c-0.657,0-1.075,0.438-1.075,1.141v2.634
		H84.67V10.195z"/>
	<path clip-path="url(#SVGID_2_)" fill="#FFFFFF" d="M93.516,9.074v1.142h0.976v0.748h-0.976v2.316c0,0.471,0.193,0.678,0.637,0.678
		c0.136,0,0.215-0.009,0.339-0.021v0.741c-0.146,0.024-0.311,0.045-0.484,0.045c-0.987,0-1.382-0.348-1.382-1.216v-2.543h-0.714
		v-0.748h0.714V9.074H93.516z"/>
	<path clip-path="url(#SVGID_2_)" fill="#FFFFFF" d="M95.705,8.437h0.881v2.481h0.069c0.22-0.504,0.695-0.806,1.373-0.806
		c0.959,0,1.552,0.608,1.552,1.679v2.907h-0.891V12.01c0-0.719-0.335-1.084-0.963-1.084c-0.728,0-1.133,0.46-1.133,1.142v2.63
		h-0.889V8.437z"/>
	<path clip-path="url(#SVGID_2_)" fill="#FFFFFF" d="M104.762,13.482c-0.202,0.807-0.923,1.303-1.951,1.303
		c-1.29,0-2.08-0.885-2.08-2.324s0.806-2.353,2.076-2.353c1.253,0,2.009,0.856,2.009,2.27v0.31h-3.18v0.05
		c0.028,0.79,0.487,1.29,1.198,1.29c0.538,0,0.906-0.194,1.072-0.546H104.762z M101.636,12.031h2.273
		c-0.02-0.707-0.45-1.167-1.107-1.167S101.686,11.328,101.636,12.031"/>
</g>
</svg>
