<?xml version="1.0" encoding="utf-8"?>
<!-- Generator: Adobe Illustrator 16.0.0, SVG Export Plug-In . SVG Version: 6.00 Build 0)  -->
<!DOCTYPE svg PUBLIC "-//W3C//DTD SVG 1.1//EN" "http://www.w3.org/Graphics/SVG/1.1/DTD/svg11.dtd">
<svg version="1.1" id="Layer_1" xmlns="http://www.w3.org/2000/svg" xmlns:xlink="http://www.w3.org/1999/xlink" x="0px" y="0px"
	 width="260.538px" height="239.539px" viewBox="0 0 260.538 239.539" enable-background="new 0 0 260.538 239.539"
	 xml:space="preserve">
<g>
	<defs>
		<rect id="SVGID_1_" width="260.538" height="239.539"/>
	</defs>
	<clipPath id="SVGID_2_">
		<use xlink:href="#SVGID_1_"  overflow="visible"/>
	</clipPath>
	<g clip-path="url(#SVGID_2_)">
		<defs>
			<rect id="SVGID_3_" width="260.538" height="239.539"/>
		</defs>
		<clipPath id="SVGID_4_">
			<use xlink:href="#SVGID_3_"  overflow="visible"/>
		</clipPath>
		<g opacity="0.3" clip-path="url(#SVGID_4_)" enable-background="new    ">
			<g>
				<defs>
					<rect id="SVGID_5_" y="16.031" width="260.538" height="163.271"/>
				</defs>
				<clipPath id="SVGID_6_">
					<use xlink:href="#SVGID_5_"  overflow="visible"/>
				</clipPath>
				<path clip-path="url(#SVGID_6_)" fill="#E6E6E6" d="M51.331,33.484C24.495,43.908,4.641,70.338,0.662,102.321
					c-3.309,26.938,4.598,56.718,51.116,65.205c90.518,16.503,175.299,21.213,196.909-23.346
					c21.61-44.559,15.002-120.846-30.917-125.779C181.24,14.473,103.746,13.083,51.331,33.484"/>
			</g>
		</g>
		<path clip-path="url(#SVGID_4_)" fill="#1D92DD" d="M158.729,54.434c0,0,36.072,10.048,25.72,41.057l-21.244-1.696L158.729,54.434
			z"/>
		<g opacity="0.44" clip-path="url(#SVGID_4_)" enable-background="new    ">
			<g>
				<defs>
					<rect id="SVGID_7_" x="158.728" y="54.433" width="27.588" height="41.057"/>
				</defs>
				<clipPath id="SVGID_8_">
					<use xlink:href="#SVGID_7_"  overflow="visible"/>
				</clipPath>
				<path clip-path="url(#SVGID_8_)" fill="#FFFFFF" d="M158.729,54.434c0,0,36.072,10.048,25.72,41.057l-21.244-1.696
					L158.729,54.434z"/>
			</g>
		</g>
		<path clip-path="url(#SVGID_4_)" fill="#1D92DD" d="M123.771,46.313l15.997,2.801c0,0,57.764,6.273,32.692,53.125
			c-25.07,46.853-87.178,20.737-87.178,20.737S31.771,40.244,123.771,46.313"/>
		<polygon clip-path="url(#SVGID_4_)" fill="#F4A28C" points="128.532,17.305 123.122,46.527 140.478,57.134 136.824,26.359 		"/>
		<g opacity="0.31" clip-path="url(#SVGID_4_)" enable-background="new    ">
			<g>
				<defs>
					<rect id="SVGID_9_" x="132.378" y="27.851" width="5.928" height="10.962"/>
				</defs>
				<clipPath id="SVGID_10_">
					<use xlink:href="#SVGID_9_"  overflow="visible"/>
				</clipPath>
				<path clip-path="url(#SVGID_10_)" fill="#CE8172" d="M137.605,31.149c-2.028-0.563-3.846-1.711-5.227-3.299
					c0,0,0.091,5.441,5.928,10.962L137.605,31.149z"/>
			</g>
		</g>
		<path clip-path="url(#SVGID_4_)" fill="#E6E6E6" d="M41.333,95.49h166.348c6.728,0,12.181,5.453,12.181,12.18v92.568
			c0,6.728-5.453,12.18-12.181,12.18H41.333c-6.727,0-12.18-5.452-12.18-12.18V107.67C29.153,100.943,34.606,95.49,41.333,95.49"/>
		<polygon clip-path="url(#SVGID_4_)" fill="#E6E6E6" points="64.059,189.702 83.913,239.539 104.903,189.702 		"/>
		<path clip-path="url(#SVGID_4_)" fill="#F4A28C" d="M184.448,95.49c0,0-11.987-8.506-16.891-2.233
			C162.656,99.53,173.557,108.888,184.448,95.49"/>
		<path clip-path="url(#SVGID_4_)" fill="#F4A28C" d="M141.798,15.214c0,0,1.786,8.891,0.943,15.032
			c-0.338,2.483-2.624,4.222-5.106,3.885c-0.017-0.003-0.033-0.005-0.05-0.008c-3.045-0.467-7.104-2.03-8.658-6.638l-3.573-7.572
			c0,0-2.08-4.821,2.599-9.043C132.633,6.647,140.985,9.763,141.798,15.214"/>
		<path clip-path="url(#SVGID_4_)" fill="#F4A28C" d="M142.641,20.898l2.901,3.187c0.54,0.593,0.497,1.511-0.096,2.05
			c-0.159,0.145-0.347,0.252-0.553,0.315l-3.38,1.015L142.641,20.898z"/>
		<path clip-path="url(#SVGID_4_)" fill="#24285B" d="M125.649,29.312l-3.045-11.936c0,0-6.882-1.198-4.791-5.694
			c2.091-4.497,4.791-1.482,4.893-6.618c0.101-5.136,4.313-6.192,7.267-3.279c2.954,2.913,1.593-1.147,5.298-1.684
			c3.704-0.539,4.68,1.126,4.761,3.938c0.081,2.811,5.429-0.163,6.79,3.4c1.359,3.562,1.543,7.024-7.673,7.561
			C129.932,15.539,136.5,23.141,125.649,29.312"/>
		<path clip-path="url(#SVGID_4_)" fill="#F4A28C" d="M133.089,24.024c0,0-0.457-3.461-3.045-2.903s-1.949,5.562,1.654,5.633
			L133.089,24.024z"/>
		<g opacity="0.09" clip-path="url(#SVGID_4_)" enable-background="new    ">
			<g>
				<defs>
					<rect id="SVGID_11_" x="87.505" y="50.485" width="23.01" height="45.005"/>
				</defs>
				<clipPath id="SVGID_12_">
					<use xlink:href="#SVGID_11_"  overflow="visible"/>
				</clipPath>
				<path clip-path="url(#SVGID_12_)" d="M87.505,50.485c0,0,20.3,11.459,23.01,45.005H90.043L87.505,50.485z"/>
			</g>
		</g>
		<path clip-path="url(#SVGID_4_)" fill="#1D92DD" d="M87.505,50.485c0,0-30.389,8.831-25.659,45.005h32.338
			C94.185,95.49,97.553,64.127,87.505,50.485"/>
		<g opacity="0.44" clip-path="url(#SVGID_4_)" enable-background="new    ">
			<g>
				<defs>
					<rect id="SVGID_13_" x="61.346" y="50.485" width="33.381" height="45.005"/>
				</defs>
				<clipPath id="SVGID_14_">
					<use xlink:href="#SVGID_13_"  overflow="visible"/>
				</clipPath>
				<path clip-path="url(#SVGID_14_)" fill="#FFFFFF" d="M87.505,50.485c0,0-30.389,8.831-25.659,45.005h32.338
					C94.185,95.49,97.553,64.127,87.505,50.485"/>
			</g>
		</g>
		<path clip-path="url(#SVGID_4_)" fill="#F4A28C" d="M110.515,95.49c0,0,5.867-12.048,14.383-7.369
			C133.413,92.8,129.039,101.093,110.515,95.49"/>
		<rect x="84.958" y="121.981" clip-path="url(#SVGID_4_)" fill="#FFD200" width="16.758" height="18.482"/>
		<g opacity="0.09" clip-path="url(#SVGID_4_)" enable-background="new    ">
			<g>
				<defs>
					<rect id="SVGID_15_" x="84.958" y="121.982" width="16.757" height="18.482"/>
				</defs>
				<clipPath id="SVGID_16_">
					<use xlink:href="#SVGID_15_"  overflow="visible"/>
				</clipPath>
				<rect x="84.958" y="121.981" clip-path="url(#SVGID_16_)" width="16.758" height="18.482"/>
			</g>
		</g>
		<rect x="73.245" y="129.198" clip-path="url(#SVGID_4_)" fill="#FFD200" width="16.89" height="16.89"/>
		
			<path clip-path="url(#SVGID_4_)" fill="none" stroke="#24285B" stroke-width="2.03" stroke-linecap="round" stroke-linejoin="round" stroke-miterlimit="4.06" d="
			M49.859,132.183h11.53c2.381,0,4.417,1.714,4.822,4.061l4.994,27.323c0.469,2.552,2.694,4.403,5.288,4.405h25.689"/>
		<path clip-path="url(#SVGID_4_)" fill="#24285B" d="M66.495,137.755h40.6c2.495-0.005,4.521,2.014,4.525,4.508
			c0.002,0.54-0.094,1.076-0.282,1.582l-3.289,9.074c-1.457,4.019-5.276,6.692-9.551,6.689H71.469L66.495,137.755z"/>
		<path clip-path="url(#SVGID_4_)" fill="#24285B" d="M77.558,172.103c1.957,0,3.542,1.586,3.542,3.542s-1.585,3.543-3.542,3.543
			c-1.956,0-3.542-1.587-3.542-3.543S75.602,172.103,77.558,172.103"/>
		<path clip-path="url(#SVGID_4_)" fill="#24285B" d="M98.173,172.103c1.957,0,3.542,1.586,3.542,3.542s-1.585,3.543-3.542,3.543
			s-3.542-1.587-3.542-3.543S96.216,172.103,98.173,172.103"/>
		<path clip-path="url(#SVGID_4_)" fill="#1D92DD" d="M107.633,131.198c5.269,0,9.541,4.271,9.541,9.541s-4.272,9.541-9.541,9.541
			c-5.27,0-9.541-4.271-9.541-9.541S102.363,131.198,107.633,131.198"/>
		
			<polyline clip-path="url(#SVGID_4_)" fill="none" stroke="#FFFFFF" stroke-width="2.03" stroke-linecap="round" stroke-linejoin="round" stroke-miterlimit="4.06" points="
			104.436,140.739 106.872,143.968 110.8,137.765 		"/>
		<rect x="138.671" y="123.108" clip-path="url(#SVGID_4_)" fill="#C1C1C1" width="31.871" height="9.438"/>
		<g opacity="0.49" clip-path="url(#SVGID_4_)" enable-background="new    ">
			<g>
				<defs>
					<rect id="SVGID_17_" x="138.671" y="140.841" width="58.576" height="9.439"/>
				</defs>
				<clipPath id="SVGID_18_">
					<use xlink:href="#SVGID_17_"  overflow="visible"/>
				</clipPath>
				<rect x="138.671" y="140.841" clip-path="url(#SVGID_18_)" fill="#C1C1C1" width="58.575" height="9.439"/>
			</g>
		</g>
		<rect x="138.671" y="159.577" clip-path="url(#SVGID_4_)" fill="#FFD200" width="58.575" height="16.078"/>
	</g>
</g>
</svg>
