<?xml version="1.0" encoding="utf-8"?>
<!-- Generator: Adobe Illustrator 16.0.0, SVG Export Plug-In . SVG Version: 6.00 Build 0)  -->
<!DOCTYPE svg PUBLIC "-//W3C//DTD SVG 1.1//EN" "http://www.w3.org/Graphics/SVG/1.1/DTD/svg11.dtd">
<svg version="1.1" id="Layer_1" xmlns="http://www.w3.org/2000/svg" xmlns:xlink="http://www.w3.org/1999/xlink" x="0px" y="0px"
	 width="256.135px" height="220.531px" viewBox="0 0 256.135 220.531" enable-background="new 0 0 256.135 220.531"
	 xml:space="preserve">
<g>
	<defs>
		<rect id="SVGID_1_" width="256.135" height="220.531"/>
	</defs>
	<clipPath id="SVGID_2_">
		<use xlink:href="#SVGID_1_"  overflow="visible"/>
	</clipPath>
	<g clip-path="url(#SVGID_2_)">
		<defs>
			<rect id="SVGID_3_" width="256.135" height="220.531"/>
		</defs>
		<clipPath id="SVGID_4_">
			<use xlink:href="#SVGID_3_"  overflow="visible"/>
		</clipPath>
		<path clip-path="url(#SVGID_4_)" fill="#1D92DD" d="M142.19,22.981c0,0-58.372,11.957-61.355,38.185
			c-2.984,26.227,32.023,31.038,62.666,20.695c30.642-10.342,19.285-42.477,6.678-43.645c-10.058-1.015-17.903,14.667-33.596,20.93
			c-1.556,0.639-3.335-0.103-3.974-1.659c-0.531-1.293-0.115-2.78,1.01-3.609L150.26,26.22l-4.131-3.999L142.19,22.981z"/>
		<g opacity="0.09" clip-path="url(#SVGID_4_)" enable-background="new    ">
			<g>
				<defs>
					<rect id="SVGID_5_" x="80.656" y="22.22" width="82.449" height="64.71"/>
				</defs>
				<clipPath id="SVGID_6_">
					<use xlink:href="#SVGID_5_"  overflow="visible"/>
				</clipPath>
				<path clip-path="url(#SVGID_6_)" d="M142.19,22.981c0,0-58.372,11.957-61.355,38.185c-2.984,26.227,32.023,31.038,62.666,20.695
					c30.642-10.342,19.285-42.477,6.678-43.645c-10.058-1.015-17.903,14.667-33.596,20.93c-1.556,0.639-3.335-0.103-3.974-1.659
					c-0.531-1.293-0.115-2.78,1.01-3.609L150.26,26.22l-4.131-3.999L142.19,22.981z"/>
			</g>
		</g>
		
			<rect x="143.875" y="11.154" transform="matrix(-0.6953 0.7187 -0.7187 -0.6953 270.1926 -81.7293)" clip-path="url(#SVGID_4_)" fill="#FFD200" width="17.092" height="10.514"/>
		<g opacity="0.09" clip-path="url(#SVGID_4_)" enable-background="new    ">
			<g>
				<defs>
					<rect id="SVGID_7_" x="142.7" y="6.613" width="19.441" height="19.596"/>
				</defs>
				<clipPath id="SVGID_8_">
					<use xlink:href="#SVGID_7_"  overflow="visible"/>
				</clipPath>
				
					<rect x="143.875" y="11.154" transform="matrix(-0.6953 0.7187 -0.7187 -0.6953 270.1926 -81.7293)" clip-path="url(#SVGID_8_)" width="17.092" height="10.514"/>
			</g>
		</g>
		<path clip-path="url(#SVGID_4_)" fill="#FFD200" d="M162.603,35.7c0,0,1.422-14.667,20.301-14.89
			c18.879-0.223,55.692,4.709,55.388,30.876c-0.304,26.167-2.841,65.052-36.54,102.393l-58.229-15.092
			C143.521,138.987,170.916,68.159,162.603,35.7"/>
		<g opacity="0.09" clip-path="url(#SVGID_4_)" enable-background="new    ">
			<g>
				<defs>
					<rect id="SVGID_9_" x="171.261" y="31.131" width="52.904" height="115.894"/>
				</defs>
				<clipPath id="SVGID_10_">
					<use xlink:href="#SVGID_9_"  overflow="visible"/>
				</clipPath>
				<path clip-path="url(#SVGID_10_)" d="M171.261,33.446c0,0,5.074-5.745,27.821,0.863c22.746,6.607,28.807,17.945,23.04,52.252
					c-5.765,34.307-24.411,60.463-24.411,60.463l-23.15-4.304L171.261,33.446z"/>
			</g>
		</g>
		<path clip-path="url(#SVGID_4_)" fill="#1D92DD" d="M171.484,35.385c0,0,43.97,2.893,50.05,22.503
			c6.08,19.609-37.118,88.355-37.118,88.355h-56.607c0,0,10.343-41.412,2.436-59.966C122.338,67.723,133.666,27.042,171.484,35.385"
			/>
		<polygon clip-path="url(#SVGID_4_)" fill="#F4A28C" points="168.703,10.934 171.483,35.385 156.522,43.15 161.323,17.937 		"/>
		<g opacity="0.31" clip-path="url(#SVGID_4_)" enable-background="new    ">
			<g>
				<defs>
					<rect id="SVGID_11_" x="159.385" y="19.429" width="5.532" height="8.709"/>
				</defs>
				<clipPath id="SVGID_12_">
					<use xlink:href="#SVGID_11_"  overflow="visible"/>
				</clipPath>
				<path clip-path="url(#SVGID_12_)" fill="#CE8172" d="M160.411,21.845c1.706-0.348,3.271-1.187,4.507-2.416
					c0,0-0.397,4.487-5.532,8.709L160.411,21.845z"/>
			</g>
		</g>
		<path clip-path="url(#SVGID_4_)" fill="#F4A28C" d="M157.863,8.457c0,0-2.03,7.237-1.654,12.363
			c0.138,2.075,1.933,3.644,4.008,3.505c0.018-0.001,0.035-0.002,0.051-0.004c2.578-0.202,5.999-1.238,7.542-4.983l3.36-6.06
			c1.129-2.628,0.477-5.682-1.624-7.622C165.941,1.9,158.847,3.981,157.863,8.457"/>
		<path clip-path="url(#SVGID_4_)" fill="#F4A28C" d="M156.838,13.085l-2.578,2.466c-0.496,0.437-0.545,1.194-0.109,1.691
			c0.137,0.155,0.311,0.271,0.505,0.34l2.731,1.014L156.838,13.085z"/>
		<path clip-path="url(#SVGID_4_)" fill="#24285B" d="M160.249,0.398c-0.841-0.646-2.046-0.489-2.69,0.351
			c-0.174,0.226-0.295,0.487-0.355,0.765c-0.659,2.822-0.884,6.923,2.902,8.12c5.958,1.929,3.442,11.328,10.333,11.165l3.918-8.536
			c0,0,1.594-6.191-4.181-8.83C165.141,1.179,164.35,3.341,160.249,0.398"/>
		<path clip-path="url(#SVGID_4_)" fill="#24285B" d="M161.415,34.36c4.061,0.244,10.941,0.771,16.759,1.756
			c0,0-23.895,37.119-28.42,78.5c0,0-10.354-51.968,0-79.089l5.073-0.842C157.006,34.339,159.215,34.229,161.415,34.36"/>
		<g opacity="0.09" clip-path="url(#SVGID_4_)" enable-background="new    ">
			<g>
				<defs>
					<rect id="SVGID_13_" x="145.429" y="51.686" width="61.928" height="94.578"/>
				</defs>
				<clipPath id="SVGID_14_">
					<use xlink:href="#SVGID_13_"  overflow="visible"/>
				</clipPath>
				<path clip-path="url(#SVGID_14_)" d="M197.041,51.686c0,0-11.823,12.413-8.778,26.613c3.045,14.2,6.901,36.54-4.061,39.97
					c-10.963,3.431-33.271-6.496-33.271-6.496l-5.501,9.541l2.253,13.591c0,0,24.36-4.06,16.523,11.358h20.198
					c0,0,19.377-33.494,22.474-40.063C209.974,99.635,197.041,51.686,197.041,51.686"/>
			</g>
		</g>
		
			<rect x="141.151" y="82.375" transform="matrix(-0.9959 0.0903 -0.0903 -0.9959 324.7664 195.4115)" clip-path="url(#SVGID_4_)" fill="#FFD200" width="33.626" height="45.35"/>
		<path clip-path="url(#SVGID_4_)" fill="#1D92DD" d="M195.956,54.305c1.762-6.137,8.164-9.685,14.302-7.923
			c1.501,0.431,2.898,1.161,4.109,2.148c8.071,6.436,13.196,15.862,14.21,26.136c2.731,24.126,7.866,60.341-6.413,64.898
			c-14.281,4.558-50.396-22.513-50.396-22.513l6.405-9.379c0,0,22.969,13.642,30.551,11.165
			C214.968,116.89,189.887,76.138,195.956,54.305"/>
		<g opacity="0.46" clip-path="url(#SVGID_4_)" enable-background="new    ">
			<g>
				<defs>
					<rect id="SVGID_15_" x="171.768" y="45.93" width="59.991" height="94.152"/>
				</defs>
				<clipPath id="SVGID_16_">
					<use xlink:href="#SVGID_15_"  overflow="visible"/>
				</clipPath>
				<path clip-path="url(#SVGID_16_)" fill="#FFFFFF" d="M195.956,54.305c1.762-6.137,8.164-9.685,14.302-7.923
					c1.501,0.431,2.898,1.161,4.109,2.148c8.071,6.436,13.196,15.862,14.21,26.136c2.731,24.126,7.866,60.341-6.413,64.898
					c-14.281,4.558-50.396-22.513-50.396-22.513l6.405-9.379c0,0,22.969,13.642,30.551,11.165
					C214.968,116.89,189.887,76.138,195.956,54.305"/>
			</g>
		</g>
		<path clip-path="url(#SVGID_4_)" fill="#F4A28C" d="M178.174,107.673c0,0-13.946-7.308-16.027-3.045
			c-2.08,4.264,10.809,10.668,10.809,10.668L178.174,107.673z"/>
		<path clip-path="url(#SVGID_4_)" fill="#24285B" d="M154.828,34.685l2.559-5.369l5.663,3.339l9.226-3.949l1.32,6.903
			C173.596,35.609,159.538,41.993,154.828,34.685"/>
		<polygon clip-path="url(#SVGID_4_)" fill="#FFFFFF" points="159.386,38.187 162.604,35.7 164.917,39.354 162.146,44.022 
			158.442,43.149 		"/>
		<path clip-path="url(#SVGID_4_)" fill="#FFFFFF" d="M158.441,43.15c0,0-9.836,19.285-13.003,36.012l0.266,4.233l11.165-1.016
			l1.552-4.598c0,0,2.852-22.401,3.705-33.758L158.441,43.15z"/>
		<polygon clip-path="url(#SVGID_4_)" fill="#1D92DD" points="88.863,139.474 256.136,170.045 189.581,220.532 0,176.165 		"/>
		<polygon clip-path="url(#SVGID_4_)" fill="#1D92DD" points="0,163.722 0,176.165 256.135,170.045 256.135,157.602 		"/>
		<polygon clip-path="url(#SVGID_4_)" fill="#24285B" points="88.863,127.029 256.136,157.602 189.581,208.077 0,163.722 		"/>
		<polygon clip-path="url(#SVGID_4_)" fill="#FFFFFF" points="71.151,162.128 98.75,145.36 151.62,158.778 125.079,177.028 		"/>
		<path clip-path="url(#SVGID_4_)" fill="#F4A28C" d="M164.553,16.222c0,0,0.567-2.842,2.669-2.223
			c2.102,0.619,1.289,4.71-1.686,4.557L164.553,16.222z"/>
		<polygon clip-path="url(#SVGID_4_)" fill="#FFD200" points="180.559,154.109 146.332,177.293 178.457,186.499 210.581,162.077 		
			"/>
		<polygon clip-path="url(#SVGID_4_)" fill="#1D92DD" points="71.151,162.128 57.256,123.832 115.75,136.834 125.079,177.028 		"/>
		<polygon clip-path="url(#SVGID_4_)" fill="#FFFFFF" points="185.451,161.936 151.215,185.119 183.349,194.324 215.474,169.903 		
			"/>
		<path clip-path="url(#SVGID_4_)" fill="#F4A28C" d="M142.19,22.981c0,0-0.323-8.404,6.092-9.866
			C154.696,11.655,152.737,22.515,142.19,22.981"/>
		<path clip-path="url(#SVGID_4_)" fill="#FFFFFF" d="M86.771,144.738c2.117-0.852,4.73,0.688,5.837,3.438s0.288,5.672-1.828,6.523
			c-2.117,0.852-4.73-0.688-5.837-3.438S84.654,145.591,86.771,144.738"/>
		<g opacity="0.09" clip-path="url(#SVGID_4_)" enable-background="new    ">
			<g>
				<defs>
					<rect id="SVGID_17_" x="189.582" y="157.602" width="66.553" height="62.93"/>
				</defs>
				<clipPath id="SVGID_18_">
					<use xlink:href="#SVGID_17_"  overflow="visible"/>
				</clipPath>
				<polygon clip-path="url(#SVGID_18_)" points="189.582,208.077 189.582,220.531 256.136,170.045 256.136,157.602 				"/>
			</g>
		</g>
	</g>
</g>
</svg>
