<?xml version="1.0" encoding="utf-8"?>
<!-- Generator: Adobe Illustrator 16.0.0, SVG Export Plug-In . SVG Version: 6.00 Build 0)  -->
<!DOCTYPE svg PUBLIC "-//W3C//DTD SVG 1.1//EN" "http://www.w3.org/Graphics/SVG/1.1/DTD/svg11.dtd">
<svg version="1.1" id="Layer_1" xmlns="http://www.w3.org/2000/svg" xmlns:xlink="http://www.w3.org/1999/xlink" x="0px" y="0px"
	 width="296.335px" height="245.749px" viewBox="0 0 296.335 245.749" enable-background="new 0 0 296.335 245.749"
	 xml:space="preserve">
<g>
	<defs>
		<rect id="SVGID_1_" width="296.335" height="245.749"/>
	</defs>
	<clipPath id="SVGID_2_">
		<use xlink:href="#SVGID_1_"  overflow="visible"/>
	</clipPath>
	<g clip-path="url(#SVGID_2_)">
		<defs>
			<path id="SVGID_3_" d="M109.975,11.03C41.624,22.834-6.751,85.45,0.77,154.4c1.959,17.518,7.034,32.945,17.255,42.893
				c40.894,39.585,211.12,47.573,253.284-13.327c42.162-60.901,30.105-168.206-29.04-181.34C234.023,0.79,223.7,0,212.054,0
				C182.56-0.001,144.539,5.063,109.975,11.03"/>
		</defs>
		<clipPath id="SVGID_4_">
			<use xlink:href="#SVGID_3_"  overflow="visible"/>
		</clipPath>
		<path clip-path="url(#SVGID_4_)" fill="#FFD200" d="M257.718,206.753c0,0,0.486,15.063-10.395,18.605
			c-10.88,3.542-48.1,9.459-66.715-1.767c-18.616-11.227-7.206-26.005,8.658-24.817S257.718,206.753,257.718,206.753"/>
		<path clip-path="url(#SVGID_4_)" fill="#FFD200" d="M241.813,86.516c0,0-3.3-19.478,10.881-23.923
			c14.18-4.446,34.561,0.284,32.795,21.558c-1.767,21.275-27.771,122.602-27.771,122.602l-29.547-2.03
			C228.17,204.723,251.313,130.831,241.813,86.516"/>
		<path clip-path="url(#SVGID_4_)" fill="#F4A28C" d="M211.424,113.048l29.2,6.892l-9.52,40.975
			c-2.111,8.954-11.079,14.502-20.033,12.392c-0.27-0.063-0.539-0.135-0.805-0.211l-53.39-15.388c0,0-7.287,7.104-13.59,4.334
			c-6.303-2.771,6.089-12.799,12.18-12.606c6.09,0.193,54.81,4.729,54.81,4.729L211.424,113.048z"/>
		<g opacity="0.08" clip-path="url(#SVGID_4_)" enable-background="new    ">
			<g>
				<defs>
					<rect id="SVGID_5_" x="141.546" y="113.048" width="99.079" height="60.707"/>
				</defs>
				<clipPath id="SVGID_6_">
					<use xlink:href="#SVGID_5_"  overflow="visible"/>
				</clipPath>
				<path clip-path="url(#SVGID_6_)" d="M211.424,113.048l29.2,6.892l-9.52,40.975c-2.111,8.954-11.079,14.502-20.033,12.392
					c-0.27-0.063-0.539-0.135-0.805-0.211l-53.39-15.388c0,0-7.287,7.104-13.59,4.334c-6.303-2.771,6.089-12.799,12.18-12.606
					c6.09,0.193,54.81,4.729,54.81,4.729L211.424,113.048z"/>
			</g>
		</g>
		<polygon clip-path="url(#SVGID_4_)" fill="#F4A28C" points="210.825,47.053 217.971,72.245 205.069,78.142 205.618,56.401 		"/>
		<g opacity="0.31" clip-path="url(#SVGID_4_)" enable-background="new    ">
			<g>
				<defs>
					<rect id="SVGID_7_" x="205.445" y="56.939" width="4.808" height="11.256"/>
				</defs>
				<clipPath id="SVGID_8_">
					<use xlink:href="#SVGID_7_"  overflow="visible"/>
				</clipPath>
				<path clip-path="url(#SVGID_8_)" fill="#CE8172" d="M205.445,60.644c1.928-0.741,3.597-2.028,4.801-3.705
					c0,0,0.406,5.329-4.79,11.256L205.445,60.644z"/>
			</g>
		</g>
		<path clip-path="url(#SVGID_4_)" fill="#F4A28C" d="M194.483,47.875c0,0,0.792,8.861,3.299,14.413
			c1.013,2.243,3.65,3.24,5.894,2.228c0.011-0.005,0.023-0.01,0.034-0.015c2.781-1.299,6.15-3.857,6.302-8.658l1.26-8.12
			c0,0,0.618-5.075-4.953-7.795C200.746,37.208,193.732,42.496,194.483,47.875"/>
		<path clip-path="url(#SVGID_4_)" fill="#F4A28C" d="M195.275,53.437l-1.849,3.786c-0.331,0.717-0.017,1.568,0.701,1.899
			c0.178,0.082,0.372,0.127,0.568,0.131h3.462L195.275,53.437z"/>
		<g opacity="0.08" clip-path="url(#SVGID_4_)" enable-background="new    ">
			<g>
				<defs>
					<rect id="SVGID_9_" x="173.396" y="88.576" width="82.315" height="130.881"/>
				</defs>
				<clipPath id="SVGID_10_">
					<use xlink:href="#SVGID_9_"  overflow="visible"/>
				</clipPath>
				<path clip-path="url(#SVGID_10_)" d="M245.7,88.576c0,0,9.733,3.522,10.008,24.472c0.273,20.949-12.708,57.855-12.516,77.048
					c0.193,19.193-23.486,41.889-59.134,21.081c-35.646-20.808,29.506-27.922,29.506-27.922L245.7,88.576z"/>
			</g>
		</g>
		<path clip-path="url(#SVGID_4_)" fill="#24285B" d="M236.251,171.705c0,0,4.334,26.481-8.12,32.977
			c-12.454,6.496-44.112,6.496-44.112,6.496l4.527,34.571h-45.817l-1.178-67.355l50.181-6.688H236.251z"/>
		<rect x="27.881" y="165.026" clip-path="url(#SVGID_4_)" fill="#E6E6E6" width="141.217" height="13.366"/>
		<polygon clip-path="url(#SVGID_4_)" fill="#E6E6E6" points="71.597,102.766 43.827,165.026 86.376,165.026 86.376,159.484 
			56.24,156.53 75.739,106.897 		"/>
		<polygon clip-path="url(#SVGID_4_)" fill="#24285B" points="88.608,145.427 82.184,145.386 60.351,76.508 65.212,71.646 		"/>
		<rect x="104.686" y="160.073" clip-path="url(#SVGID_4_)" fill="#FFD200" width="44.508" height="4.953"/>
		<path clip-path="url(#SVGID_4_)" fill="#24285B" d="M194.433,43.53c0,0-2.446,9.45,10.697,10.15l8.495,3.218
			c0,0,3.473-7.795,1.555-14.596C213.26,35.502,197.021,29.646,194.433,43.53"/>
		<path clip-path="url(#SVGID_4_)" fill="#24285B" d="M212.611,27.422c2.96,0,5.358,2.399,5.358,5.359s-2.398,5.359-5.358,5.359
			s-5.359-2.399-5.359-5.359S209.651,27.422,212.611,27.422"/>
		<path clip-path="url(#SVGID_4_)" fill="none" stroke="#24285B" stroke-width="1.015" stroke-miterlimit="10.15" d="
			M209.049,53.437c0,0,0.213,11.703-8.445,12.891"/>
		<path clip-path="url(#SVGID_4_)" fill="#24285B" d="M199.559,64.389c1.069,0,1.938,0.868,1.938,1.939
			c0,1.07-0.868,1.938-1.938,1.938c-1.071,0-1.938-0.868-1.938-1.938C197.62,65.257,198.487,64.389,199.559,64.389"/>
		<path clip-path="url(#SVGID_4_)" fill="#F4A28C" d="M205.131,53.721c0,0-0.538-3.38,2.029-3.573c2.568-0.193,3.38,4.689,0,5.765
			L205.131,53.721z"/>
		<path clip-path="url(#SVGID_4_)" fill="#1D92DD" d="M205.07,78.142l12.899-5.897c0,0,21.031-0.203,27.73,16.331
			c6.698,16.534-9.449,83.129-9.449,83.129h-44.52c-0.995-15.336-2.969-30.592-5.906-45.676
			C181.104,102.37,185.318,93.692,205.07,78.142"/>
		<g opacity="0.08" clip-path="url(#SVGID_4_)" enable-background="new    ">
			<g>
				<defs>
					<rect id="SVGID_11_" x="190.626" y="84.729" width="45.887" height="86.976"/>
				</defs>
				<clipPath id="SVGID_12_">
					<use xlink:href="#SVGID_11_"  overflow="visible"/>
				</clipPath>
				<path clip-path="url(#SVGID_12_)" d="M216.895,84.729c-7.581,5.565-12.07,14.397-12.1,23.802
					c0.062,15.792,3.573,45.533-7.207,45.349l-6.963,4.782l1.077,13.043h29.435c0,0,13.073-0.955,15.226-36.755
					C238.513,99.153,216.895,84.729,216.895,84.729"/>
			</g>
		</g>
		<path clip-path="url(#SVGID_4_)" fill="#F4A28C" d="M212.611,104.583l29.2,6.892l-9.56,40.966
			c-2.111,8.953-11.08,14.501-20.034,12.392c-0.27-0.064-0.538-0.135-0.804-0.211l-53.391-15.378c0,0-7.286,7.104-13.58,4.334
			c-6.293-2.771,6.09-12.81,12.18-12.606s54.809,4.729,54.809,4.729L212.611,104.583z"/>
		<rect x="157.416" y="139.691" clip-path="url(#SVGID_4_)" fill="#FFD200" width="3.988" height="12.262"/>
		<path clip-path="url(#SVGID_4_)" fill="#1D92DD" d="M202.065,80.568l-0.568-8.303l16.473-4.06l2.131,4.152
			C220.101,72.357,216.529,80,202.065,80.568"/>
		<rect x="41.462" y="178.394" clip-path="url(#SVGID_4_)" fill="#C7C9C9" width="112.554" height="67.355"/>
		<path clip-path="url(#SVGID_4_)" fill="#1D92DD" d="M212.611,104.583c0,0,0.67-22.452,9.57-24.644
			c8.902-2.192,25.985-0.842,19.63,31.536L212.611,104.583z"/>
		<g opacity="0.44" clip-path="url(#SVGID_4_)" enable-background="new    ">
			<g>
				<defs>
					<rect id="SVGID_13_" x="212.611" y="79.259" width="30.586" height="32.216"/>
				</defs>
				<clipPath id="SVGID_14_">
					<use xlink:href="#SVGID_13_"  overflow="visible"/>
				</clipPath>
				<path clip-path="url(#SVGID_14_)" fill="#FFFFFF" d="M212.611,104.583c0,0,0.67-22.452,9.57-24.644
					c8.902-2.192,25.985-0.842,19.63,31.536L212.611,104.583z"/>
			</g>
		</g>
	</g>
	<g clip-path="url(#SVGID_2_)">
		<defs>
			<rect id="SVGID_15_" width="296.335" height="245.749"/>
		</defs>
		<clipPath id="SVGID_16_">
			<use xlink:href="#SVGID_15_"  overflow="visible"/>
		</clipPath>
		<g opacity="0.08" clip-path="url(#SVGID_16_)" enable-background="new    ">
			<g>
				<defs>
					<rect id="SVGID_17_" x="41.462" y="178.394" width="112.563" height="21.021"/>
				</defs>
				<clipPath id="SVGID_18_">
					<use xlink:href="#SVGID_17_"  overflow="visible"/>
				</clipPath>
				<polygon clip-path="url(#SVGID_18_)" points="41.461,178.394 41.461,199.415 154.024,185.935 154.024,178.394 				"/>
			</g>
		</g>
	</g>
</g>
</svg>
