<?xml version="1.0" encoding="utf-8"?>
<!-- Generator: Adobe Illustrator 16.0.0, SVG Export Plug-In . SVG Version: 6.00 Build 0)  -->
<!DOCTYPE svg PUBLIC "-//W3C//DTD SVG 1.1//EN" "http://www.w3.org/Graphics/SVG/1.1/DTD/svg11.dtd">
<svg version="1.1" id="Layer_1" xmlns="http://www.w3.org/2000/svg" xmlns:xlink="http://www.w3.org/1999/xlink" x="0px" y="0px"
	 width="941px" height="307px" viewBox="0 0 941 307" enable-background="new 0 0 941 307" xml:space="preserve">
<g>
	<defs>
		<rect id="SVGID_1_" x="228" y="34.1" width="509.674" height="234.9"/>
	</defs>
	<clipPath id="SVGID_2_">
		<use xlink:href="#SVGID_1_"  overflow="visible"/>
	</clipPath>
	<path clip-path="url(#SVGID_2_)" fill="#333333" d="M294.736,182.586c0,1.473-9.999,2.667-22.333,2.667s-22.334-1.194-22.334-2.667
		s10-2.666,22.334-2.666S294.736,181.113,294.736,182.586"/>
	<path clip-path="url(#SVGID_2_)" fill="#DDDDDD" d="M312.236,244.046c0,3.028-16.08,5.482-35.917,5.482
		c-19.836,0-35.916-2.454-35.916-5.482s16.08-5.483,35.916-5.483C296.156,238.563,312.236,241.018,312.236,244.046"/>
	<path clip-path="url(#SVGID_2_)" fill="#EFE3DC" d="M273.403,173.92c0,0-48.843-60.895-40.104-133.496
		c0.291-2.425,3.252-3.474,5.009-1.776c12.09,11.689,45.514,51.87,39.762,134.605L273.403,173.92z"/>
	<path clip-path="url(#SVGID_2_)" fill="#333333" d="M272.402,154.986c-0.178,0-0.34-0.12-0.387-0.301
		c-8.234-31.946-29.113-91.369-29.323-91.966c-0.074-0.209,0.036-0.437,0.244-0.51c0.208-0.073,0.437,0.035,0.51,0.244
		c0.21,0.597,21.102,60.053,29.344,92.033c0.055,0.214-0.074,0.432-0.288,0.487C272.469,154.981,272.435,154.986,272.402,154.986"/>
	<path clip-path="url(#SVGID_2_)" fill="#C6D7D0" d="M278.653,186.92c0,0-15.688-61.579-48.196-85.943
		c-1.15-0.863-2.751,0.162-2.41,1.559c3.387,13.864,16.616,61.464,43.356,84.384C271.403,186.92,274.653,188.42,278.653,186.92"/>
	<path clip-path="url(#SVGID_2_)" fill="#333333" d="M270.653,179.82c-0.144,0-0.283-0.078-0.354-0.214
		c-4.695-8.896-32.717-61.469-33-61.998c-0.104-0.195-0.03-0.437,0.166-0.541c0.193-0.105,0.437-0.03,0.541,0.164
		c0.282,0.53,28.304,53.104,33,62.002c0.104,0.194,0.028,0.438-0.167,0.54C270.779,179.805,270.716,179.82,270.653,179.82"/>
	<path clip-path="url(#SVGID_2_)" fill="#EFE3DC" d="M228.301,144.968c2.912,7.064,13.008,28.828,31.852,42.702
		c0,0,17.638,3.817,16.25,0c-7.736-21.272-38.373-39.221-46.829-43.845C228.822,143.414,227.974,144.176,228.301,144.968"/>
	<path clip-path="url(#SVGID_2_)" fill="#333333" d="M268.403,186.82c-0.095,0-0.189-0.033-0.266-0.103
		c-4.465-3.968-27.07-28.968-28.031-30.029c-0.148-0.164-0.135-0.417,0.029-0.565c0.162-0.148,0.416-0.136,0.565,0.028
		c0.235,0.26,23.536,26.029,27.969,29.97c0.165,0.146,0.18,0.399,0.033,0.564C268.623,186.774,268.513,186.82,268.403,186.82"/>
	<path clip-path="url(#SVGID_2_)" fill="#CAE8D5" d="M271.723,186.92c0,0-12.17-79.943,14.924-119.132
		c0.816-1.181,2.839-0.951,3.285,0.375c3.57,10.594,15.803,64.524-5.6,116.8L271.723,186.92z"/>
	<path clip-path="url(#SVGID_2_)" fill="#333333" d="M278.367,157.32c-0.007,0-0.013-0.001-0.02-0.001
		c-0.22-0.011-0.391-0.198-0.38-0.418c0.33-6.932,6.935-68.734,7.002-69.358c0.023-0.22,0.222-0.378,0.44-0.355
		c0.22,0.024,0.379,0.221,0.355,0.441c-0.066,0.623-6.669,62.401-6.998,69.309C278.756,157.153,278.579,157.32,278.367,157.32"/>
	<path clip-path="url(#SVGID_2_)" fill="#EFE3DC" d="M275.653,184.17c0,0-8.064-32.495,10.923-54.051
		c0.661-0.751,1.899-0.44,2.119,0.536c1.805,8.027,6.872,35.928-4.792,55.015l-7.5,2L275.653,184.17z"/>
	<path clip-path="url(#SVGID_2_)" fill="#333333" d="M279.403,182.57c-0.02,0-0.04-0.002-0.06-0.005
		c-0.218-0.032-0.369-0.236-0.336-0.455l6.25-41.75c0.033-0.218,0.237-0.367,0.455-0.336c0.218,0.032,0.369,0.236,0.336,0.455
		l-6.25,41.75C279.768,182.427,279.598,182.57,279.403,182.57"/>
	<path clip-path="url(#SVGID_2_)" fill="#E2B8AF" d="M294.736,182.586c0,1.473-9.999,2.667-22.333,2.667s-22.334-1.194-22.334-2.667
		c0,0,3.334,43.667,10.667,61.667c0,0,16.667,2.667,30.333,0L294.736,182.586z"/>
	<path clip-path="url(#SVGID_2_)" fill="#DDDDDD" d="M456.068,254.515c0,6.159-39.699,11.152-88.669,11.152
		c-48.971,0-88.67-4.993-88.67-11.152s39.699-11.152,88.67-11.152C416.37,243.362,456.068,248.355,456.068,254.515"/>
	<path clip-path="url(#SVGID_2_)" fill="#EDAF8C" d="M392.153,239.42c0,0,1.25,3.75,8.25,7s12.75,3.75,14,5.25s-6.5,3.75-14.25,3.25
		s-18.25-6.5-18.25-6.5s0.75-7.75,1-9.25S392.153,239.42,392.153,239.42"/>
	<path clip-path="url(#SVGID_2_)" fill="#333333" d="M411.653,250.17c0,0,4.75,4.5-12.5,3.5c0,0-5-1-8.5-3s-8.75-2.25-8.75-2.25
		s-1.25,5.75-0.5,6.75s9.5,1.25,19,1.75S425.153,255.92,411.653,250.17"/>
	<path clip-path="url(#SVGID_2_)" fill="#EDAF8C" d="M378.653,246.42c0,0,1.25,3.75,8.25,7s12.75,3.75,14,5.25s-6.5,3.75-14.25,3.25
		s-18.25-6.5-18.25-6.5s0.75-7.75,1-9.25S378.653,246.42,378.653,246.42"/>
	<path clip-path="url(#SVGID_2_)" fill="#333333" d="M398.153,257.17c0,0,4.75,4.5-12.5,3.5c0,0-5-1-8.5-3s-8.75-2.25-8.75-2.25
		s-1.25,5.75-0.5,6.75s9.5,1.25,19,1.75S411.653,262.92,398.153,257.17"/>
	<path clip-path="url(#SVGID_2_)" fill="#6273A3" d="M347.736,140.253c0,0,26.667,8.667,34,33l0.667,62.667
		c0,0-13.334,12.333-18.667,18c0,0-7,5-33.667,5c-26.666,0-40.666-7.667-40.666-7.667v-91.667c0,0,0.333-15,9.666-19.333
		C308.403,135.92,347.736,140.253,347.736,140.253"/>
	<path clip-path="url(#SVGID_2_)" fill="#333333" d="M290.204,116.341c0,0,0-21.005,10.865-35.088c9.849-12.766,14-27.333,19.667-34
		c5.667-6.666,15-7.666,22.667-4.666c7.666,3,9.666,10.333,7.333,16.333l-6.5,13.833c0,0-2.333,20,1,38.333l-21.5-0.166
		L290.204,116.341z"/>
	<path clip-path="url(#SVGID_2_)" fill="#DDDDDD" d="M377.403,167.42c0,0-6-8.75-11-12.5s-15.75-12-16.25-13.75s-3.5-27.75-6.25-36
		c-2.369-7.107-4.25-15.25-12.25-19.25l-4.75,8.75l9.75,62.25l39.25,14.25L377.403,167.42z"/>
	<path clip-path="url(#SVGID_2_)" fill="#333333" d="M346.569,142.82c-0.09,0-0.181-0.031-0.256-0.093
		c-0.17-0.141-0.193-0.393-0.051-0.563c0.07-0.085,1.744-2.08,3.311-2.777c0.2-0.089,0.438,0,0.528,0.204
		c0.09,0.201-0.001,0.437-0.203,0.527c-1.396,0.621-3.006,2.539-3.022,2.557C346.797,142.77,346.683,142.82,346.569,142.82"/>
	<path clip-path="url(#SVGID_2_)" fill="#333333" d="M346.57,139.985c-0.125,0-0.249-0.059-0.327-0.168
		c-0.127-0.181-0.086-0.429,0.094-0.557c0.051-0.037,1.293-0.908,3.232-0.908c0.221,0,0.4,0.18,0.4,0.401c0,0.22-0.179,0.4-0.4,0.4
		c-1.671,0-2.758,0.751-2.769,0.759C346.73,139.962,346.65,139.985,346.57,139.985"/>
	<path clip-path="url(#SVGID_2_)" fill="#EECDB8" d="M342.403,152.92c0,0,38.75,14.75,45.5,18s8.5,6.5,7.5,14.5s-4,46.75-3.25,54
		c0,0-4.25,2.25-10.25,0.75c0,0-1.5-6.5-3.5-13.25c-1.297-4.377-2.5-10-2.5-10s0.5,22.5,4,30c0,0-4.5,3.5-12,2l-14.25-37.5
		l-29.25-49l10.75-9.5H342.403z"/>
	<path clip-path="url(#SVGID_2_)" fill="#333333" d="M375.903,217.32c-0.005,0-0.011,0-0.016-0.001
		c-0.221-0.008-0.393-0.194-0.384-0.415c0,0,0.25-6.5,0.75-18.501c0.477-11.448-0.309-16.2-3.003-18.16
		c-2.699-1.962-25.148-14.346-25.374-14.471c-0.194-0.107-0.264-0.351-0.157-0.544c0.106-0.192,0.349-0.263,0.543-0.157
		c0.927,0.511,22.72,12.533,25.458,14.525c2.988,2.173,3.829,6.927,3.332,18.84c-0.5,11.999-0.75,18.498-0.75,18.499
		C376.294,217.15,376.116,217.32,375.903,217.32"/>
	<path clip-path="url(#SVGID_2_)" fill="#F4F4F4" d="M329.069,160.92c0,0,5.833-4.667,11.167-5.834
		c5.333-1.166,5.5-0.666,5.333-1.166s-2.667-2.5-4-5.5s-1.667-11-2.5-15.667s-2.333-12.167-2.333-17.5s-2.667-22.333-5.667-26.833
		l-18.5,0.333l-4.833,48.833l9,20.167L329.069,160.92z"/>
	<path clip-path="url(#SVGID_2_)" fill="#333333" d="M339.57,152.486c-0.128,0-0.253-0.063-0.331-0.175
		c-2.498-3.663-6.539-14.299-6.71-14.75c-0.078-0.206,0.026-0.437,0.232-0.515c0.205-0.079,0.437,0.025,0.516,0.232
		c0.042,0.109,4.178,10.997,6.623,14.582c0.125,0.183,0.077,0.432-0.105,0.556C339.726,152.464,339.647,152.486,339.57,152.486"/>
	<path clip-path="url(#SVGID_2_)" fill="#EDAF8C" d="M312.903,87.92c0,0,5.167,10.166,12.5,10c7.333-0.167,6.333-6.834,6.333-7.334
		c0-0.341,0.544-3.559,1.367-6.467c0.382-1.35,0.824-2.635,1.3-3.533l-14.5-11.166l-6.333,13.5L312.903,87.92z"/>
	<path clip-path="url(#SVGID_2_)" fill="#333333" d="M319.903,69.419l14.5,11.167c-0.476,0.898-0.661,2.182-1.042,3.533
		C333.361,84.12,323.903,82.919,319.903,69.419"/>
	<path clip-path="url(#SVGID_2_)" fill="#EDAF8C" d="M321.569,63.253c0,0-4.5,8,0.167,11.667c2.601,2.043,7.833,6.666,11.833,7
		c4,0.333,10.333-4,12.667-11.167c1.746-5.363,4.333-8.833,4.333-13.333l-2.833-8.834l-13.167-1.166l-8.667,11.5
		c0,0-3.5-3-5.333-0.834C318.736,60.253,321.569,63.253,321.569,63.253"/>
	<path clip-path="url(#SVGID_2_)" fill="#333333" d="M323.903,60.586c0,0-1.5-2.167-2.5-1.167s1,2.834,1.5,2.5
		C323.403,61.586,323.903,60.586,323.903,60.586"/>
	<path clip-path="url(#SVGID_2_)" fill="#333333" d="M325.903,58.919c0,0,11,2.167,20.167-5.5c0,0,1.333,4.667,4.666,5.5l0.5-3.167
		l-3-8.333l-17.166-1.833l-5.5,8.5L325.903,58.919z"/>
	<path clip-path="url(#SVGID_2_)" fill="#333333" d="M340.397,71.67c-0.338,0-0.712-0.068-1.121-0.204
		c-0.21-0.07-0.323-0.296-0.253-0.506c0.07-0.209,0.296-0.322,0.506-0.253c0.628,0.21,1.113,0.218,1.443,0.027
		c0.27-0.156,0.451-0.457,0.538-0.893c0.169-0.844,1.775-5.989,1.844-6.207c0.065-0.211,0.29-0.327,0.501-0.263
		c0.21,0.066,0.328,0.29,0.262,0.501c-0.574,1.838-1.694,5.484-1.823,6.126c-0.132,0.662-0.451,1.155-0.92,1.428
		C341.093,71.589,340.768,71.67,340.397,71.67"/>
	<path clip-path="url(#SVGID_2_)" fill="#DD8E7C" d="M336.179,69.225c-0.314,1.375-2.797,1.98-5.546,1.352
		c-2.75-0.628-4.724-2.252-4.41-3.626c0.314-1.375,2.798-1.98,5.547-1.352S336.493,67.85,336.179,69.225"/>
	<path clip-path="url(#SVGID_2_)" fill="#DD8E7C" d="M346.259,70.685c-1.472,0.283-2.52,0.945-2.74,1.906
		c-0.163,0.714,0.157,1.479,0.824,2.192c0.761-1.216,1.414-2.559,1.893-4.03C346.243,70.729,346.252,70.708,346.259,70.685"/>
	<path clip-path="url(#SVGID_2_)" fill="#333333" d="M321.569,63.253c0,0-0.167,10.167-4.167,15.917s-8.75,10.75-14.25,14.75
		s-11,15.25-11,15.25s4.75-16.75,9-20.5s11.25-19.25,11.25-19.25L321.569,63.253z"/>
	<path clip-path="url(#SVGID_2_)" fill="#798BB2" d="M349.153,178.17c0,0,2.75,1,7.25,21.75s11.5,49,11.5,49l-13.5,2.5l-24.25-55.5
		l-1.074-25.667L349.153,178.17z"/>
	<path clip-path="url(#SVGID_2_)" fill="#EDAF8C" d="M340.736,170.253c0,0,6,3.5,8.167,5.167c2.166,1.666,4.333,5.333,3.666,9.666
		c0,0-2.166-3.166-4.166-4.166s-10.334-4.667-13.5-8.167L340.736,170.253z"/>
	<path clip-path="url(#SVGID_2_)" fill="#DDDDDD" d="M314.903,82.253c0,0-11.167,10-14.167,11.667c-3,1.666-12.5,9.5-10.166,31.5
		c2.333,22,4.833,26.333,10,34.166c5.166,7.834,30.666,14,32.5,14.167c1.833,0.167,7.166-1.667,9-2.667c0,0-3.334-4.166-6-6.166
		c-2.667-2-17.5-14.5-18.167-15.667s-3.167-0.833-3.167-0.833s1.834-0.5,2.167-1.167s-0.667-1-0.667-1s0.334-1.167,0-1.833
		c-0.333-0.667-0.5-9.167-0.5-11.167s-0.5-27.5-0.5-34S314.903,82.253,314.903,82.253"/>
	<path clip-path="url(#SVGID_2_)" fill="#333333" d="M315.903,143.486c-0.169,0-0.327-0.108-0.381-0.278
		c-1.331-4.16-3.589-28.229-3.684-29.251c-0.021-0.22,0.141-0.415,0.361-0.436c0.224-0.012,0.415,0.142,0.435,0.361
		c0.023,0.25,2.345,25.004,3.65,29.082c0.067,0.21-0.048,0.435-0.259,0.502C315.985,143.479,315.944,143.486,315.903,143.486"/>
	<path clip-path="url(#SVGID_2_)" fill="#333333" d="M308.611,147.653c-0.141,0-0.278-0.075-0.351-0.208
		c-0.107-0.193-0.036-0.437,0.158-0.543c2.573-1.416,7.632-1.062,7.847-1.049c0.221,0.017,0.386,0.208,0.37,0.429
		c-0.016,0.22-0.197,0.372-0.428,0.37c-0.051-0.005-5.038-0.35-7.404,0.951C308.742,147.636,308.676,147.653,308.611,147.653"/>
	<path clip-path="url(#SVGID_2_)" fill="#DDDDDD" d="M737.675,247.594c0,10.103-57.306,18.292-127.995,18.292
		c-70.69,0-127.994-8.189-127.994-18.292c0-10.104,57.304-18.292,127.994-18.292C680.369,229.302,737.675,237.49,737.675,247.594"/>
	<path clip-path="url(#SVGID_2_)" fill="#EFE3DC" d="M673.601,54.536c-5.451,14.729-21.018,66.772,5.633,123.904h10.022
		c0,0,16.177-72.479-11.806-124.187C676.584,52.655,674.231,52.83,673.601,54.536"/>
	<path clip-path="url(#SVGID_2_)" fill="#333333" d="M683.763,172.104c-0.207,0-0.382-0.159-0.398-0.368l-7.507-94.007
		c-0.018-0.22,0.146-0.413,0.366-0.431c0.231-0.019,0.413,0.148,0.431,0.368l7.506,94.004c0.019,0.222-0.146,0.413-0.365,0.432
		C683.783,172.103,683.772,172.104,683.763,172.104"/>
	<path clip-path="url(#SVGID_2_)" fill="#333333" d="M715.091,170.125c0,2.313-13.282,4.187-29.667,4.187
		c-16.386,0-29.668-1.874-29.668-4.187c0-2.313,13.282-4.188,29.668-4.188C701.809,165.938,715.091,167.812,715.091,170.125"/>
	<path clip-path="url(#SVGID_2_)" fill="#EFE3DC" d="M694.423,179.557c0,0-2.438-35.444,17.785-51.273
		c1.299-1.017,3.219-0.23,3.408,1.409c0.997,8.63,1.692,31.948-15.86,51.495L694.423,179.557z"/>
	<path clip-path="url(#SVGID_2_)" fill="#333333" d="M701.089,168.005c-0.038,0-0.077-0.006-0.115-0.019
		c-0.212-0.063-0.331-0.285-0.268-0.497c0.326-1.087,8.021-26.639,9.346-29.951c0.082-0.205,0.315-0.304,0.519-0.222
		c0.206,0.082,0.306,0.314,0.224,0.519c-1.312,3.279-9.242,29.618-9.322,29.884C701.42,167.893,701.261,168.005,701.089,168.005"/>
	<path clip-path="url(#SVGID_2_)" fill="#CAE8D5" d="M697.013,80.518c-7.697,12.734-27.896,52.425-11.589,96.004h8.906
		c0,0,23.981-42.444,7.043-95.5C700.744,79.054,698.081,78.75,697.013,80.518"/>
	<path clip-path="url(#SVGID_2_)" fill="#333333" d="M689.257,169.838c-0.016,0-0.03-0.001-0.045-0.003
		c-0.22-0.024-0.378-0.222-0.354-0.441l7.5-67.484c0.024-0.22,0.237-0.377,0.441-0.353c0.22,0.024,0.378,0.221,0.353,0.441
		l-7.5,67.483C689.631,169.687,689.457,169.838,689.257,169.838"/>
	<path clip-path="url(#SVGID_2_)" fill="#C6D7D0" d="M661.672,92.676c7.086,11.069,25.162,43.738,20.957,83.346l-11.536,1.919
		c0,0-26.946-26.313-13.296-84.736C658.181,91.561,660.733,91.208,661.672,92.676"/>
	<path clip-path="url(#SVGID_2_)" fill="#333333" d="M674.756,169.921c-0.178,0-0.34-0.119-0.387-0.299l-14.232-54.067
		c-0.057-0.213,0.071-0.433,0.285-0.488c0.219-0.055,0.433,0.071,0.488,0.285l14.232,54.067c0.057,0.213-0.072,0.433-0.285,0.488
		C674.823,169.916,674.789,169.921,674.756,169.921"/>
	<path clip-path="url(#SVGID_2_)" fill="#557571" d="M663.058,242.988c0,0.841,10.014,2.627,22.366,2.627
		c12.352,0,22.365-1.786,22.365-2.627l7.302-72.863c0,2.313-13.282,4.188-29.667,4.188c-16.387,0-29.668-1.874-29.668-4.188
		L663.058,242.988z"/>
	<path clip-path="url(#SVGID_2_)" fill="#333333" d="M604.824,265.725c-0.221,0-0.4-0.18-0.4-0.4V198.67c0-0.221,0.18-0.4,0.4-0.4
		s0.4,0.18,0.4,0.4v66.654C605.225,265.545,605.045,265.725,604.824,265.725"/>
	<path clip-path="url(#SVGID_2_)" fill="#333333" d="M647.557,253.027c-0.204,0-0.379-0.156-0.398-0.363l-6.721-71.624
		c-0.021-0.22,0.141-0.415,0.361-0.436c0.234-0.021,0.415,0.143,0.436,0.36l6.721,71.625c0.021,0.22-0.142,0.415-0.361,0.436
		C647.581,253.026,647.568,253.027,647.557,253.027"/>
	<path clip-path="url(#SVGID_2_)" fill="#333333" d="M552.997,255.153c-0.021,0-0.043-0.002-0.064-0.006
		c-0.218-0.035-0.366-0.241-0.331-0.459l10.405-63.75c0.035-0.217,0.234-0.371,0.459-0.33c0.218,0.035,0.366,0.241,0.33,0.459
		l-10.404,63.75C553.359,255.014,553.19,255.153,552.997,255.153"/>
	<path clip-path="url(#SVGID_2_)" fill="#EDAF8C" d="M528.016,241.427c0,0-6.086,16.846-7.868,19.222
		c-1.46,1.947,0.973,6.083,4.38,6.083s8.598-3.404,10.139-7.785s4.218-17.276,4.218-17.276l-4.866-2.677L528.016,241.427z"/>
	<path clip-path="url(#SVGID_2_)" fill="#333333" d="M520.147,260.648c0,0-2.838,5.11-0.243,7.381
		c2.596,2.271,9.409,0.649,12.978-5.84C532.882,262.189,523.636,267.219,520.147,260.648"/>
	<polygon clip-path="url(#SVGID_2_)" fill="#DDDDDD" points="558.471,193.336 612.205,202.523 648.734,181.003 660.068,103.993 
		604.824,103.993 602.237,163.648 558.471,188.419 	"/>
	<path clip-path="url(#SVGID_2_)" fill="#F4F4F4" d="M639.133,153.587c0,0,7.019,25.678-18.25,30.415
		c-11.679,2.189-26.035,3.894-47.771,1.299l-21.737,50.287c-2.271,0.162-4.542-0.406-6.245-1.015
		c-1.703-0.607-2.839-1.258-2.839-1.258l-5.515,9.734c-6.813,0.973-8.76-1.623-8.76-1.623l4.218-18.168
		c0,0,7.786-36.012,10.382-44.122c2.595-8.111,10.381-10.382,10.381-10.382s1.939-13.85,4.863-21.958
		c3.896-10.81,41.328-9.188,41.328-9.188L639.133,153.587z"/>
	<path clip-path="url(#SVGID_2_)" fill="#333333" d="M611.99,64.721c0,0-5.887,8.712,0,16.718l13.421,8.712l6.594,2.119
		c0,0,1.412-8.241-2.355-12.244c-3.767-4.003-7.77-8.006-5.415-13.657c2.354-5.65,2.825-19.072-8.477-17.188L611.99,64.721z"/>
	<path clip-path="url(#SVGID_2_)" fill="#333333" d="M604.265,69.148c0,0,8.07,0.511,11.553-9.399
		c3.483-9.911-1.759-20.907-7.601-23.622C602.375,33.413,604.265,69.148,604.265,69.148"/>
	<path clip-path="url(#SVGID_2_)" fill="#EC6952" d="M596.064,134.364c-8.029-9.489-11.438-19.466-11.438-19.466
		c-13.382,13.869-30.657,15.573-40.634,17.277c-9.976,1.703-39.936,2.959-39.936,2.959c-2.585-2.294-2.176-7.254-1.848-9.43
		c0.1-0.655,0.191-1.058,0.191-1.058s41.349-12.18,47.432-13.64s13.14-7.057,21.169-13.626c8.03-6.571,19.953-12.897,19.953-12.897
		c8.338-4.822,21.898-5.869,21.898-5.869l22.41,58.427c0,0,4.599,9.733,5.571,16.546c0,0-18.857,3.004-31.267-1.376
		c-12.41-4.38-10.098-7.384-10.827-8.601L596.064,134.364z"/>
	<path clip-path="url(#SVGID_2_)" fill="#333333" d="M504.058,135.134c-2.585-2.294-2.176-7.254-1.847-9.43
		c0.099-0.655,0.19-1.057,0.19-1.057s1.612-0.026,2.125,1.585c0.292,0.917,0.563,2.084,1.208,4.75
		c0.195,0.807,0.661,2.881,0.146,3.385C505.339,134.899,504.058,135.134,504.058,135.134"/>
	<path clip-path="url(#SVGID_2_)" fill="#333333" d="M612.205,79.455c0,0-1.298,7.868-8.03,11.517c0,0-9.539,6.82-13.773,4.781
		c-4.5-2.167-2.917-7.667-1.475-9.242C588.927,86.511,597.362,80.67,612.205,79.455"/>
	<path clip-path="url(#SVGID_2_)" fill="#EDAF8C" d="M587.71,73.209c0,0,0.642,2.464,1.216,6.015
		c0.686,4.233,1.274,10.008,0.569,14.992c0,0-0.487,2.271,4.461,2.19c4.947-0.081,14.357-5.24,17.479-14.259
		c0,0-4.908-4.964-6.611-13.237l-12.896,2.352L587.71,73.209z"/>
	<path clip-path="url(#SVGID_2_)" fill="#333333" d="M603.318,70.836l-11.391,0.427l-4.218,1.947c0,0,0.642,2.464,1.216,6.015
		C588.926,79.225,598.613,79.596,603.318,70.836"/>
	<path clip-path="url(#SVGID_2_)" fill="#EDAF8C" d="M583.401,51.327c0,0-2.14,7.589-0.773,15.711
		c0.88,5.238,3.502,7.931,5.489,8.439c2.056,0.527,14.729,3.628,20.515-14.235c0,0,4.32,0.131,4.526-3.728
		c0.206-3.858-4.375-2.464-4.375-2.464l-0.578-6.832l-11.44-7.506l-7.263,2.941L583.401,51.327z"/>
	<path clip-path="url(#SVGID_2_)" fill="#333333" d="M608.959,57.787c0,0,1.812-0.665,2.531-0.163s-2.105,1.44-2.456,1.325
		C608.684,58.834,608.959,57.787,608.959,57.787"/>
	<path clip-path="url(#SVGID_2_)" fill="#333333" d="M590.516,64.045c-0.013,0-0.026,0-0.04-0.002
		c-0.806-0.081-1.371-0.35-1.683-0.799c-0.294-0.425-0.349-0.969-0.165-1.665c0.224-0.85,2.267-6.15,2.354-6.375
		c0.081-0.206,0.313-0.31,0.517-0.229c0.205,0.079,0.31,0.311,0.229,0.517c-0.731,1.893-2.156,5.644-2.326,6.291
		c-0.12,0.455-0.104,0.784,0.05,1.005c0.17,0.248,0.543,0.403,1.104,0.459c0.22,0.023,0.38,0.218,0.358,0.438
		C590.893,63.892,590.719,64.045,590.516,64.045"/>
	<path clip-path="url(#SVGID_2_)" fill="#DD8E7C" d="M604.442,63.129c-0.168,1.156-2.188,1.82-4.51,1.482
		c-2.323-0.337-4.07-1.548-3.902-2.704c0.168-1.156,2.187-1.82,4.511-1.483C602.863,60.762,604.61,61.973,604.442,63.129"/>
	<path clip-path="url(#SVGID_2_)" fill="#DD8E7C" d="M582.487,57.144c-0.033-0.006-0.063-0.008-0.096-0.015
		c-0.085,1.284-0.138,2.692-0.146,4.182c2.254,0.408,4.143-0.13,4.254-1.244C586.615,58.923,584.818,57.614,582.487,57.144"/>
	<path clip-path="url(#SVGID_2_)" fill="#333333" d="M594.818,44.211c0,0-5.268,6.536-11.375,7.25c0,0-0.729-4.074,3.082-11.051
		c3.81-6.977,15.386-7.792,21.69-4.282l0.936,18.791C609.151,54.919,597.773,55.973,594.818,44.211"/>
	<path clip-path="url(#SVGID_2_)" fill="#333333" d="M573.111,185.701c-0.053,0-0.107-0.011-0.159-0.033
		c-0.202-0.088-0.296-0.323-0.208-0.527c5.01-11.588,7.09-24.111,7.11-24.236c0.036-0.217,0.236-0.372,0.459-0.33
		c0.218,0.035,0.366,0.241,0.33,0.459c-0.021,0.126-2.117,12.747-7.165,24.427C573.413,185.61,573.266,185.701,573.111,185.701"/>
	<path clip-path="url(#SVGID_2_)" fill="#333333" d="M579.741,164.049c-0.175,0-0.335-0.115-0.385-0.292
		c-0.061-0.212,0.063-0.435,0.276-0.493c1.972-0.558,18.16-5.265,18.323-5.312c0.21-0.062,0.434,0.061,0.496,0.272
		c0.061,0.212-0.061,0.433-0.273,0.495c-0.163,0.048-16.354,4.755-18.33,5.313C579.813,164.044,579.777,164.049,579.741,164.049"/>
	<path clip-path="url(#SVGID_2_)" fill="#EDAF8C" d="M551.374,235.588c-2.271,0.162-4.542-0.406-6.245-1.015
		c-1.703-0.607-2.839-1.257-2.839-1.257s-12.978,22.062-14.274,23.034c-1.298,0.974,5.84,4.217,5.84,4.217
		s9.732-5.839,12.328-10.706C548.779,244.996,551.374,235.588,551.374,235.588"/>
	<path clip-path="url(#SVGID_2_)" fill="#333333" d="M528.016,256.351c0,0-3.569,4.218-2.92,5.84
		c0.648,1.622,3.568,4.218,8.436,1.947c4.866-2.271,10.38-8.275,14.112-17.442c0,0-9.984,13.233-12.978,12.251
		C530.943,257.725,528.016,256.351,528.016,256.351"/>
	<polygon clip-path="url(#SVGID_2_)" fill="#EECDB8" points="541.818,142.945 578.868,158.247 609.447,142.945 578.868,133.878 	"/>
	<path clip-path="url(#SVGID_2_)" fill="#EDAF8C" d="M592.729,133.878l-1.7,0.85c0,0-5.668,1.521-10.632,3.212
		c-3.231,0.324-7.841,0.799-8.948,0.984c-1.442,0.241-1.287,1.867,2.089,1.935c-3.787,2.302-6.225,5.574-5.461,6.337
		c0.85,0.85,1.7,1.984,4.817,2.267c3.116,0.283,10.768-1.983,16.435-3.4c5.668-1.417,7.651-3.401,7.651-3.401L592.729,133.878z"/>
	<path clip-path="url(#SVGID_2_)" fill="#333333" d="M568.683,148.059c-0.105,0-0.212-0.042-0.29-0.125
		c-0.152-0.16-0.146-0.414,0.015-0.565c0.155-0.148,3.836-3.616,6.752-4.555c0.211-0.068,0.436,0.049,0.503,0.258
		c0.068,0.211-0.047,0.436-0.257,0.504c-2.744,0.882-6.411,4.338-6.447,4.373C568.881,148.021,568.781,148.059,568.683,148.059"/>
	<path clip-path="url(#SVGID_2_)" fill="#333333" d="M570.139,149.029c-0.133,0-0.264-0.067-0.339-0.188
		c-0.117-0.188-0.061-0.434,0.127-0.551c0.16-0.101,3.942-2.459,5.526-2.954c0.208-0.071,0.436,0.052,0.502,0.262
		c0.065,0.211-0.052,0.435-0.263,0.501c-1.486,0.465-5.304,2.845-5.342,2.868C570.284,149.009,570.212,149.029,570.139,149.029"/>
	<path clip-path="url(#SVGID_2_)" fill="#333333" d="M573.537,141.26c-0.156,0-0.307-0.093-0.369-0.247
		c-0.085-0.204,0.012-0.439,0.216-0.523c0.12-0.049,2.966-1.226,4.733-1.57c0.223-0.043,0.427,0.101,0.469,0.317
		c0.042,0.216-0.1,0.426-0.317,0.468c-1.687,0.328-4.55,1.512-4.578,1.524C573.641,141.25,573.588,141.26,573.537,141.26"/>
	<path clip-path="url(#SVGID_2_)" fill="#EF7B6C" d="M612.854,78.614c0,0-1.217,10.25,2.677,22.659
		c0.826,2.634,1.905,5.576,3.092,8.575c4.402,11.129,10.291,23.057,10.291,23.057s-24.297-2.836-36.22,1.056
		c0,0,1.813,6.406,4.031,8.844c0,0,3.447,0.607,7.749,1.668c8.906,2.197,23.863,5.623,31.739,5.951
		c1.402,0.059,2.637-0.076,3.723-0.365c7.949-2.116,7.897-12.512,7.47-15.938c-0.487-3.892-7.786-37.958-12.896-45.501
		C629.399,81.077,618.937,78.097,612.854,78.614"/>
	<polygon clip-path="url(#SVGID_2_)" fill="#333333" points="555.75,145.638 550.082,147.337 565.101,153.854 569.21,151.729 	"/>
	<path clip-path="url(#SVGID_2_)" fill="#EDAF8C" d="M504.527,126.229c0,0-4.329,0.666-8.659-1.499
		c-4.329-2.165-10.157-3.83-12.821-4.662c-2.664-0.833-3.248-0.75-3.414-0.084c-0.166,0.667,1.916,1.999,2.748,2.498
		c0.833,0.5,1.582,1.332,2.581,2.165c0,0-5.829,0.25-10.241,0.916s-9.491,1.415-9.574,2.081s1.582,0.833,4.162,0.916
		c2.582,0.083,6.244,0.333,6.244,0.333s0.666,0.666-0.332,0.749c-1,0.083-5.412,0.666-7.41,0.916s-3.08,0.833-2.997,1.332
		c0.083,0.5,1.582,0.749,4.995,0.5c3.414-0.25,6.41-0.583,6.328-0.25c-0.084,0.333-0.5,0.666-2.914,0.999
		c-2.416,0.333-6.916,1.315-7.493,1.499c-1.437,0.458-1.332,1.332,0.416,1.581c1.748,0.25,7.909-0.499,9.241-0.666
		c1.332-0.166,1.666,0.583,0.916,0.75c-0.75,0.166-5.744,1.748-6.41,1.998s-2.061,1.478,0.416,1.415
		c1.416-0.035,7.41-1.498,8.742-1.582c1.332-0.083,8.658-0.416,12.571-1.498c3.913-1.083,4.663-2.165,5.828-2.082
		c1.166,0.084,6.578-0.333,8.243-0.166C507.358,134.553,504.527,126.229,504.527,126.229"/>
	<path clip-path="url(#SVGID_2_)" fill="#333333" d="M481.965,135.121c-0.076,0-0.152-0.022-0.223-0.067
		c-2.836-1.891-4.344-6.917-4.407-7.13c-0.062-0.212,0.059-0.435,0.271-0.497c0.215-0.063,0.434,0.058,0.497,0.27
		c0.015,0.05,1.49,4.961,4.084,6.691c0.184,0.123,0.233,0.371,0.111,0.554C482.221,135.059,482.094,135.121,481.965,135.121"/>
	<path clip-path="url(#SVGID_2_)" fill="#333333" d="M489.542,127.961c-0.019,0-0.034-0.001-0.052-0.004
		c-3.413-0.436-4.823-3.013-4.881-3.122c-0.104-0.195-0.03-0.437,0.163-0.54c0.193-0.102,0.438-0.032,0.541,0.162
		c0.052,0.095,1.288,2.323,4.278,2.707c0.219,0.027,0.374,0.229,0.346,0.447C489.912,127.814,489.74,127.961,489.542,127.961"/>
	<path clip-path="url(#SVGID_2_)" fill="#333333" d="M636.842,150.837c-0.213,0-0.428-0.004-0.646-0.014
		c-8.008-0.333-23.373-3.879-31.817-5.962c-0.215-0.053-0.347-0.269-0.293-0.484c0.053-0.214,0.269-0.344,0.484-0.293
		c8.416,2.077,23.721,5.609,31.66,5.941c1.308,0.054,2.52-0.064,3.604-0.353c0.209-0.055,0.432,0.069,0.488,0.284
		c0.058,0.213-0.069,0.433-0.283,0.489C639.06,150.706,637.986,150.837,636.842,150.837"/>
	<path clip-path="url(#SVGID_2_)" fill="#333333" d="M592.756,134.361c-0.169,0-0.325-0.107-0.38-0.276
		c-0.069-0.21,0.046-0.436,0.256-0.504c10.708-3.496,31.471-1.581,35.603-1.153c-1.287-2.647-6.209-12.891-9.984-22.433
		c-0.081-0.206,0.02-0.439,0.225-0.52c0.208-0.078,0.438,0.02,0.52,0.225c4.346,10.987,10.219,22.908,10.277,23.027
		c0.065,0.131,0.053,0.287-0.031,0.407c-0.087,0.121-0.232,0.186-0.374,0.167c-0.241-0.028-24.284-2.781-35.986,1.039
		C592.839,134.354,592.797,134.361,592.756,134.361"/>
	<path clip-path="url(#SVGID_2_)" fill="#333333" d="M584.628,115.299c-0.207,0-0.382-0.159-0.398-0.369
		c-0.13-1.632-0.429-3.198-0.668-3.528c-0.843-0.025-0.96-0.412-1.048-1.035c-0.033-0.229-0.066-0.464-1.195-0.464
		c-0.221,0-0.4-0.179-0.4-0.4c0-0.221,0.18-0.4,0.4-0.4c0.592,0,1.823,0,1.979,1.093c0.025,0.186,0.049,0.348,0.071,0.399
		c0-0.013,0.071,0.008,0.281,0.008c0.284,0,1.037,0,1.375,4.264c0.019,0.22-0.146,0.412-0.366,0.43
		C584.648,115.298,584.638,115.299,584.628,115.299"/>
	<path clip-path="url(#SVGID_2_)" fill="#333333" d="M559.568,113.486c-0.104,0-0.205-0.039-0.283-0.117
		c-1.654-1.655-5.043-2.639-5.077-2.649c-0.212-0.06-0.335-0.282-0.274-0.495c0.062-0.211,0.28-0.336,0.495-0.274
		c0.146,0.042,3.619,1.05,5.423,2.851c0.155,0.157,0.155,0.411,0,0.567C559.773,113.447,559.671,113.486,559.568,113.486"/>
	<path clip-path="url(#SVGID_2_)" fill="#333333" d="M557.484,116.32c-0.163,0-0.315-0.101-0.375-0.263
		c-0.449-1.219-3.021-3.665-3.973-4.505c-0.165-0.145-0.182-0.398-0.035-0.564s0.398-0.182,0.564-0.035
		c0.146,0.128,3.583,3.169,4.193,4.829c0.077,0.207-0.029,0.436-0.237,0.513C557.577,116.312,557.53,116.32,557.484,116.32"/>
	<path clip-path="url(#SVGID_2_)" fill="#333333" d="M633.943,136.986c-0.119,0-0.237-0.054-0.316-0.156
		c-2.019-2.612-4.809-3.536-4.837-3.545c-0.21-0.069-0.326-0.293-0.258-0.503c0.067-0.211,0.293-0.325,0.503-0.259
		c0.123,0.039,3.049,1.002,5.225,3.818c0.135,0.175,0.103,0.426-0.072,0.561C634.115,136.959,634.029,136.986,633.943,136.986"/>
	<path clip-path="url(#SVGID_2_)" fill="#333333" d="M527.943,257.736c-0.067,0-0.136-0.018-0.198-0.053
		c-0.192-0.11-0.259-0.354-0.149-0.546l7.5-13.125c0.11-0.193,0.355-0.258,0.546-0.149c0.192,0.11,0.259,0.354,0.149,0.546
		l-7.5,13.125C528.216,257.664,528.082,257.736,527.943,257.736"/>
	<path clip-path="url(#SVGID_2_)" fill="#333333" d="M542.291,233.717c-0.021,0-0.043-0.002-0.065-0.006
		c-0.218-0.036-0.365-0.242-0.33-0.46l10.707-64.562c0.036-0.218,0.233-0.368,0.459-0.329c0.219,0.036,0.366,0.242,0.33,0.46
		l-10.706,64.562C542.653,233.577,542.483,233.717,542.291,233.717"/>
</g>
<g>
	<defs>
		
			<rect id="SVGID_3_" x="826.108" y="81.043" transform="matrix(-0.9715 -0.2371 0.2371 -0.9715 1648.2726 569.5637)" width="64.542" height="209.29"/>
	</defs>
	<clipPath id="SVGID_4_">
		<use xlink:href="#SVGID_3_"  overflow="visible"/>
	</clipPath>
	<path clip-path="url(#SVGID_4_)" fill="#C6D7D0" d="M878.062,115.233c0,0-24.087,29.261-20.715,57.213l4.311,10.019l16.685-48.364
		L878.062,115.233z"/>
	<path clip-path="url(#SVGID_4_)" fill="#C6D7D0" d="M848.108,290.896c0,0-31.971-37.323-28.163-83.729
		c0.128-1.551,1.957-2.302,3.095-1.272c7.837,7.086,29.681,31.68,27.973,84.444L848.108,290.896z"/>
	<path clip-path="url(#SVGID_4_)" fill="#333333" d="M846.641,279.167c-0.064-0.016-0.124-0.061-0.16-0.126
		c-2.921-5.483-18.188-52.892-18.837-54.905c-0.043-0.134,0.03-0.278,0.16-0.323c0.13-0.046,0.273,0.027,0.317,0.16
		c0.158,0.495,15.9,49.379,18.802,54.823c0.065,0.123,0.02,0.278-0.102,0.346C846.764,279.174,846.699,279.181,846.641,279.167"/>
	<path clip-path="url(#SVGID_4_)" fill="#EFE3DC" d="M842.036,285.906c0,0-27.779-75.938,4.188-145.017
		c1.067-2.307,4.287-2.397,5.445-0.153c7.969,15.446,27.462,65.935-4.881,146.004L842.036,285.906z"/>
	<path clip-path="url(#SVGID_4_)" fill="#333333" d="M844.921,265.04c-0.121-0.029-0.203-0.146-0.188-0.275
		c1.087-9.662,3.666-103.916,3.691-104.866c0.002-0.142,0.119-0.253,0.256-0.251c0.144,0,0.248,0.119,0.244,0.26
		c-0.025,0.951-2.606,95.227-3.694,104.912c-0.017,0.14-0.139,0.242-0.277,0.225C844.942,265.044,844.932,265.042,844.921,265.04"/>
	<path clip-path="url(#SVGID_4_)" fill="#EFE3DC" d="M858.04,188.609c0,0,21.179-73.535,53.556-97.157
		c0.977-0.712,2.115,0.076,2.181,1.289c0.522,9.654-22.498,64.418-51.771,101.222L858.04,188.609z"/>
	<path clip-path="url(#SVGID_4_)" fill="#333333" d="M878.454,154.726c-0.065-0.078-0.081-0.194-0.029-0.291
		c2.346-4.309,24.667-47.008,24.893-47.438c0.065-0.125,0.217-0.173,0.339-0.107c0.123,0.066,0.169,0.22,0.103,0.343
		c-0.224,0.432-22.55,43.135-24.896,47.447c-0.066,0.122-0.22,0.169-0.342,0.102C878.497,154.767,878.473,154.747,878.454,154.726"
		/>
</g>
<g>
	<defs>
		
			<rect id="SVGID_5_" x="53.342" y="146.177" transform="matrix(-0.9446 0.3282 -0.3282 -0.9446 266.4626 399.2509)" width="92.4" height="151.867"/>
	</defs>
	<clipPath id="SVGID_6_">
		<use xlink:href="#SVGID_5_"  overflow="visible"/>
	</clipPath>
	<path clip-path="url(#SVGID_6_)" fill="#EFE3DC" d="M108.767,259.176c0,0-4.073-41.676,15.769-68.857
		c0.599-0.818,1.888-0.544,2.095,0.45c1.66,7.931,5.439,34.653-8.431,71.46L108.767,259.176z"/>
	<path clip-path="url(#SVGID_6_)" fill="#333333" d="M113.299,248.154c-0.048,0.017-0.102,0.02-0.154,0.005
		c-0.144-0.036-0.23-0.183-0.193-0.325c0.398-1.535,10.316-45.652,10.417-46.098c0.032-0.145,0.175-0.236,0.319-0.202
		c0.144,0.032,0.235,0.175,0.203,0.319c-0.409,1.819-10.02,44.571-10.42,46.113C113.447,248.058,113.381,248.125,113.299,248.154"/>
	<path clip-path="url(#SVGID_6_)" fill="#EFE3DC" d="M93.865,290.72c0,0-54.633-68.741-54.792-115.074
		c-0.004-1.396,1.511-1.955,2.694-1.215c9.418,5.893,45.176,63.96,59.822,116.069L93.865,290.72z"/>
	<path clip-path="url(#SVGID_6_)" fill="#333333" d="M89.616,276.12c-0.125,0.078-0.291,0.04-0.369-0.086
		c-2.583-4.133-42.423-85.652-44.118-89.121c-0.064-0.132-0.013-0.294,0.124-0.357c0.132-0.064,0.293-0.009,0.357,0.123
		c0.415,0.85,41.522,84.963,44.09,89.072C89.779,275.875,89.741,276.041,89.616,276.12"/>
	<path clip-path="url(#SVGID_6_)" fill="#C6D7D0" d="M101.546,299.811c0,0-40.594-75.11-16.937-151.507
		c0.791-2.552,4.183-3.099,5.739-0.927c10.713,14.949,38.786,64.744,16.35,152.633L101.546,299.811z"/>
	<path clip-path="url(#SVGID_6_)" fill="#333333" d="M102.229,276.075c-0.065,0.022-0.138,0.021-0.205-0.012
		c-0.133-0.064-0.188-0.226-0.125-0.359c0.539-1.985-7.779-71.794-12.254-108.426c-0.017-0.146,0.088-0.284,0.233-0.298
		c0.147-0.018,0.28,0.086,0.298,0.234c1.337,10.946,13.04,106.999,12.205,108.724C102.349,276.005,102.293,276.053,102.229,276.075"
		/>
	<path clip-path="url(#SVGID_6_)" fill="#C6D7D0" d="M103.102,296.69c0,0-2.125-59.048,37.302-88.416
		c1.316-0.98,3.663,0.332,3.97,2.221c2.108,12.998,4.26,52.69-38.036,88.734L103.102,296.69z"/>
	<path clip-path="url(#SVGID_6_)" fill="#333333" d="M111.07,283.861c-0.11,0.039-0.236,0-0.307-0.099
		c-0.085-0.121-0.056-0.289,0.064-0.373c2.051-1.441,18.783-40.448,27.343-60.872c0.058-0.136,0.215-0.201,0.35-0.144
		c0.136,0.057,0.2,0.214,0.144,0.351c-1.014,2.416-24.841,59.213-27.529,61.103C111.115,283.843,111.093,283.854,111.07,283.861"/>
</g>
</svg>
