<?xml version="1.0" encoding="utf-8"?>
<!-- Generator: Adobe Illustrator 16.0.0, SVG Export Plug-In . SVG Version: 6.00 Build 0)  -->
<!DOCTYPE svg PUBLIC "-//W3C//DTD SVG 1.1//EN" "http://www.w3.org/Graphics/SVG/1.1/DTD/svg11.dtd">
<svg version="1.1" id="Layer_1" xmlns="http://www.w3.org/2000/svg" xmlns:xlink="http://www.w3.org/1999/xlink" x="0px" y="0px"
	 width="787px" height="250.797px" viewBox="0 0 787 250.797" enable-background="new 0 0 787 250.797" xml:space="preserve">
<g>
	<defs>
		<rect id="SVGID_1_" x="-6" width="799" height="255.305"/>
	</defs>
	<clipPath id="SVGID_2_">
		<use xlink:href="#SVGID_1_"  overflow="visible"/>
	</clipPath>
	<g clip-path="url(#SVGID_2_)">
		<defs>
			<rect id="SVGID_3_" x="154.873" y="31.505" width="519.127" height="178.886"/>
		</defs>
		<clipPath id="SVGID_4_">
			<use xlink:href="#SVGID_3_"  overflow="visible"/>
		</clipPath>
		<path clip-path="url(#SVGID_4_)" fill="#333333" d="M210.781,145.056c0,1.155-8.377,2.091-18.71,2.091
			c-10.333,0-18.71-0.936-18.71-2.091c0-1.156,8.377-2.092,18.71-2.092C202.404,142.964,210.781,143.899,210.781,145.056"/>
		<path clip-path="url(#SVGID_4_)" fill="#DDDDDD" d="M225.441,193.261c0,2.376-13.471,4.302-30.089,4.302
			s-30.088-1.926-30.088-4.302c0-2.375,13.471-4.3,30.088-4.3S225.441,190.886,225.441,193.261"/>
		<path clip-path="url(#SVGID_4_)" fill="#EFE3DC" d="M192.909,138.258c0,0-40.918-47.763-33.597-104.706
			c0.244-1.902,2.725-2.725,4.196-1.393c10.129,9.168,38.13,40.684,33.311,105.576L192.909,138.258z"/>
		<path clip-path="url(#SVGID_4_)" fill="#333333" d="M192.071,123.408c-0.149,0-0.285-0.095-0.324-0.237
			c-6.898-25.056-24.389-71.664-24.565-72.132c-0.063-0.164,0.03-0.343,0.205-0.4s0.366,0.027,0.427,0.191
			c0.176,0.468,17.678,47.103,24.583,72.186c0.046,0.168-0.062,0.338-0.241,0.383C192.127,123.404,192.098,123.408,192.071,123.408"
			/>
		<path clip-path="url(#SVGID_4_)" fill="#C6D7D0" d="M197.307,148.455c0,0-13.143-48.3-40.376-67.409
			c-0.964-0.677-2.305,0.127-2.019,1.222c2.837,10.874,13.92,48.209,36.321,66.187C191.233,148.455,193.956,149.632,197.307,148.455
			"/>
		<path clip-path="url(#SVGID_4_)" fill="#333333" d="M190.605,142.886c-0.121,0-0.237-0.061-0.296-0.167
			c-3.934-6.979-27.409-48.213-27.646-48.628c-0.086-0.154-0.025-0.343,0.14-0.424c0.162-0.083,0.366-0.024,0.453,0.129
			c0.236,0.416,23.711,41.652,27.646,48.63c0.087,0.153,0.023,0.343-0.14,0.423C190.711,142.874,190.658,142.886,190.605,142.886"/>
		<path clip-path="url(#SVGID_4_)" fill="#EFE3DC" d="M155.125,115.551c2.439,5.54,10.897,22.611,26.684,33.493
			c0,0,14.776,2.993,13.613,0c-6.48-16.686-32.146-30.764-39.23-34.39C155.562,114.331,154.851,114.927,155.125,115.551"/>
		<path clip-path="url(#SVGID_4_)" fill="#333333" d="M188.72,148.377c-0.08,0-0.159-0.026-0.224-0.081
			c-3.74-3.112-22.677-22.721-23.482-23.553c-0.125-0.128-0.113-0.328,0.024-0.444c0.136-0.116,0.349-0.105,0.474,0.023
			c0.196,0.203,19.717,20.416,23.431,23.506c0.138,0.114,0.15,0.313,0.027,0.443C188.904,148.341,188.812,148.377,188.72,148.377"/>
		<path clip-path="url(#SVGID_4_)" fill="#CAE8D5" d="M191.502,148.455c0,0-10.195-62.703,12.502-93.441
			c0.684-0.926,2.378-0.746,2.752,0.294c2.991,8.309,13.239,50.608-4.691,91.612L191.502,148.455z"/>
		<path clip-path="url(#SVGID_4_)" fill="#333333" d="M197.068,125.238c-0.006,0-0.011,0-0.017,0
			c-0.185-0.009-0.328-0.156-0.319-0.327c0.276-5.438,5.81-53.912,5.866-54.402c0.019-0.172,0.186-0.297,0.368-0.279
			c0.185,0.02,0.318,0.173,0.297,0.346c-0.055,0.489-5.587,48.945-5.862,54.363C197.393,125.107,197.245,125.238,197.068,125.238"/>
		<path clip-path="url(#SVGID_4_)" fill="#EFE3DC" d="M194.794,146.298c0,0-6.755-25.487,9.15-42.394
			c0.554-0.59,1.591-0.346,1.775,0.419c1.512,6.296,5.757,28.182-4.015,43.15l-6.283,1.57L194.794,146.298z"/>
		<path clip-path="url(#SVGID_4_)" fill="#333333" d="M197.936,145.042c-0.017,0-0.033-0.001-0.05-0.003
			c-0.183-0.025-0.309-0.185-0.281-0.355l5.235-32.747c0.027-0.171,0.199-0.288,0.381-0.264c0.182,0.024,0.309,0.186,0.282,0.356
			l-5.236,32.746C198.241,144.931,198.099,145.042,197.936,145.042"/>
		<path clip-path="url(#SVGID_4_)" fill="#E2B8AF" d="M210.781,145.056c0,1.155-8.377,2.091-18.71,2.091
			c-10.333,0-18.71-0.936-18.71-2.091c0,0,2.793,34.248,8.937,48.367c0,0,13.962,2.094,25.411,0L210.781,145.056z"/>
		<path clip-path="url(#SVGID_4_)" fill="#DDDDDD" d="M345.936,201.472c0,4.831-33.258,8.748-74.282,8.748
			c-41.026,0-74.283-3.917-74.283-8.748c0-4.83,33.257-8.748,74.283-8.748C312.678,192.724,345.936,196.642,345.936,201.472"/>
		<path clip-path="url(#SVGID_4_)" fill="#DDDDDD" d="M674.001,196.044c0,7.924-48.008,14.347-107.227,14.347
			c-59.221,0-107.227-6.423-107.227-14.347s48.006-14.348,107.227-14.348C625.993,181.696,674.001,188.12,674.001,196.044"/>
		<path clip-path="url(#SVGID_4_)" fill="#EFE3DC" d="M620.323,44.62c-4.567,11.553-17.605,52.373,4.719,97.184h8.396
			c0,0,13.552-56.849-9.891-97.405C622.822,43.146,620.853,43.282,620.323,44.62"/>
		<path clip-path="url(#SVGID_4_)" fill="#333333" d="M628.837,136.832c-0.174,0-0.319-0.124-0.335-0.287l-6.288-73.734
			c-0.014-0.172,0.123-0.324,0.308-0.338c0.192-0.015,0.346,0.116,0.359,0.289l6.289,73.733c0.016,0.173-0.122,0.323-0.307,0.337
			C628.854,136.832,628.846,136.832,628.837,136.832"/>
		<path clip-path="url(#SVGID_4_)" fill="#333333" d="M655.082,135.282c0,1.812-11.127,3.284-24.854,3.284
			s-24.854-1.473-24.854-3.284c0-1.815,11.128-3.285,24.854-3.285S655.082,133.467,655.082,135.282"/>
		<path clip-path="url(#SVGID_4_)" fill="#EFE3DC" d="M637.767,142.679c0,0-2.043-27.8,14.9-40.215
			c1.087-0.798,2.696-0.18,2.855,1.105c0.836,6.77,1.418,25.058-13.288,40.389L637.767,142.679z"/>
		<path clip-path="url(#SVGID_4_)" fill="#333333" d="M643.353,133.619c-0.032,0-0.064-0.006-0.098-0.015
			c-0.178-0.05-0.277-0.225-0.224-0.392c0.272-0.851,6.718-20.893,7.829-23.49c0.069-0.161,0.264-0.238,0.434-0.174
			c0.174,0.065,0.256,0.247,0.188,0.407c-1.099,2.572-7.742,23.23-7.808,23.439C643.629,133.53,643.495,133.619,643.353,133.619"/>
		<path clip-path="url(#SVGID_4_)" fill="#CAE8D5" d="M639.938,64.999c-6.448,9.987-23.371,41.118-9.709,75.299h7.461
			c0,0,20.091-33.29,5.9-74.903C643.063,63.85,640.831,63.612,639.938,64.999"/>
		<path clip-path="url(#SVGID_4_)" fill="#333333" d="M633.439,135.056c-0.014,0-0.026,0-0.037-0.002
			c-0.184-0.02-0.316-0.174-0.296-0.346l6.282-52.93c0.021-0.173,0.199-0.296,0.369-0.278c0.185,0.02,0.316,0.174,0.296,0.347
			l-6.283,52.93C633.754,134.938,633.606,135.056,633.439,135.056"/>
		<path clip-path="url(#SVGID_4_)" fill="#C6D7D0" d="M610.33,74.535c5.936,8.682,21.08,34.306,17.558,65.372l-9.664,1.504
			c0,0-22.575-20.639-11.14-66.461C607.405,73.66,609.545,73.383,610.33,74.535"/>
		<path clip-path="url(#SVGID_4_)" fill="#333333" d="M621.291,135.122c-0.149,0-0.284-0.094-0.323-0.234L609.044,92.48
			c-0.047-0.167,0.061-0.339,0.238-0.383c0.184-0.042,0.364,0.056,0.41,0.224l11.922,42.407c0.049,0.168-0.06,0.34-0.237,0.384
			C621.347,135.117,621.319,135.122,621.291,135.122"/>
		<path clip-path="url(#SVGID_4_)" fill="#557571" d="M611.491,192.432c0,0.658,8.389,2.061,18.737,2.061
			c10.348,0,18.736-1.402,18.736-2.061l6.117-57.149c0,1.813-11.127,3.284-24.854,3.284c-13.728,0-24.854-1.471-24.854-3.284
			L611.491,192.432z"/>
	</g>
	<g clip-path="url(#SVGID_2_)">
		<defs>
			<rect id="SVGID_5_" x="208" width="426.74" height="201.797"/>
		</defs>
		<clipPath id="SVGID_6_">
			<use xlink:href="#SVGID_5_"  overflow="visible"/>
		</clipPath>
		<path clip-path="url(#SVGID_6_)" fill="#777F82" d="M561.843,154.599h-49.054c-2.288,0-4.143-1.854-4.143-4.143
			s1.854-4.142,4.143-4.142h49.054c2.287,0,4.142,1.854,4.142,4.142S564.13,154.599,561.843,154.599"/>
		<rect x="531.325" y="193.599" clip-path="url(#SVGID_6_)" fill="#94999B" width="33.832" height="4.173"/>
		<path clip-path="url(#SVGID_6_)" fill="#94999B" d="M535.248,196.934c0.357,2.166-1.106,4.214-3.272,4.572
			c-2.166,0.36-4.214-1.104-4.572-3.271c-0.359-2.167,1.105-4.214,3.271-4.573C532.841,193.302,534.889,194.767,535.248,196.934"/>
		<rect x="545.956" y="151.877" clip-path="url(#SVGID_6_)" fill="#94999B" width="4.172" height="43.43"/>
		<path clip-path="url(#SVGID_6_)" fill="#94999B" d="M569.079,196.934c0.358,2.166-1.105,4.214-3.271,4.572
			c-2.166,0.36-4.214-1.104-4.573-3.271c-0.358-2.167,1.106-4.214,3.272-4.573C566.673,193.302,568.721,194.767,569.079,196.934"/>
		<path clip-path="url(#SVGID_6_)" fill="#94999B" d="M574.696,154.599H528.35c-3.16,0-5.433-3.094-4.537-6.18l22.132-76.29
			c0.594-2.048,2.44-3.453,4.539-3.453h46.346c3.161,0,5.433,3.094,4.538,6.18l-22.132,76.292
			C578.641,153.194,576.794,154.599,574.696,154.599"/>
		<path clip-path="url(#SVGID_6_)" fill="#A39DED" d="M568.319,154.599h-40.368c-3.162,0-5.435-3.094-4.539-6.18l22.132-76.29
			c0.593-2.048,2.441-3.453,4.539-3.453h40.368c3.162,0,5.434,3.094,4.539,6.18l-22.132,76.292
			C572.265,153.194,570.417,154.599,568.319,154.599"/>
		<path clip-path="url(#SVGID_6_)" fill="#94999B" d="M574.685,154.599h-49.054c-2.288,0-4.143-1.854-4.143-4.143
			s1.854-4.142,4.143-4.142h49.054c2.287,0,4.143,1.854,4.143,4.142S576.972,154.599,574.685,154.599"/>
		<polygon clip-path="url(#SVGID_6_)" fill="#D8A88A" points="507.372,103.658 476.687,109.592 477.924,117.34 516.393,118.707 
			525.16,102.187 		"/>
		<path clip-path="url(#SVGID_6_)" fill="#D8A88A" d="M507.161,84.689l-4.271,21.865c0,0,15.618,11.166,15.308,10.234
			c-0.311-0.935,3.309-32.099,3.309-32.099H507.161z"/>
		<path clip-path="url(#SVGID_6_)" fill="#EAB568" d="M521.506,64.371c0,0-10.227-1.363-14.465,10.358
			c-4.238,11.721-4.443,13.778-4.443,13.778l16.373,2.382L521.506,64.371z"/>
		
			<line clip-path="url(#SVGID_6_)" fill="none" stroke="#CD9380" stroke-width="0.75" stroke-linecap="round" stroke-linejoin="round" stroke-miterlimit="10" x1="503.872" y1="104.524" x2="508.354" y2="104.524"/>
		<polygon clip-path="url(#SVGID_6_)" fill="#EAB568" points="516.33,77.667 514.4,119.874 560.229,119.874 552.622,71.286 
			535.508,61.901 521.506,64.371 		"/>
		
			<line clip-path="url(#SVGID_6_)" fill="none" stroke="#D38B23" stroke-width="0.982" stroke-miterlimit="10" x1="514.195" y1="110.859" x2="516.738" y2="77.377"/>
		<path clip-path="url(#SVGID_6_)" fill="#EAB568" d="M535.508,61.902c0,0,13.356-6.246,18.704,0
			c5.347,6.246,10.899,19.407,10.899,19.407l-17.686,5.617L535.508,61.902z"/>
		<polyline clip-path="url(#SVGID_6_)" fill="none" stroke="#D38B23" stroke-width="0.982" stroke-miterlimit="10" points="
			547.426,86.926 544.322,88.037 539.493,75.902 		"/>
		<polygon clip-path="url(#SVGID_6_)" fill="#E4BB9E" points="547.426,86.926 557.907,110.447 571.942,98.233 565.111,81.309 		"/>
		<path clip-path="url(#SVGID_6_)" fill="#E4BB9E" d="M556.338,106.521l-33.122,7.068l1.329,6.286l38.865,0.994
			c0,0,18.806-4.179,8.531-22.636L556.338,106.521z"/>
		<path clip-path="url(#SVGID_6_)" fill="#E4BB9E" d="M523.216,113.589c0,0-16.197-6.338-20.618,3.359l0.292,3.92l26.024,1.239
			L523.216,113.589z"/>
		
			<line clip-path="url(#SVGID_6_)" fill="none" stroke="#CD9380" stroke-width="0.75" stroke-linecap="round" stroke-linejoin="round" stroke-miterlimit="10" x1="556.338" y1="106.521" x2="564.175" y2="105.436"/>
		<path clip-path="url(#SVGID_6_)" fill="#E4BB9E" d="M534.171,50.925l1.694,9.131c0.823,4.425-2.202,8.644-6.656,9.286
			l-0.248,0.036c-4.209,0.608-8.146-2.216-8.921-6.397l-1.979-10.688l14.068-6.405L534.171,50.925z"/>
		<path clip-path="url(#SVGID_6_)" fill="#CD9380" d="M520.228,63.765c0,0,13.369-0.519,8.813-17.877l-3.88,3.423l-5.909,10.081
			L520.228,63.765z"/>
		<path clip-path="url(#SVGID_6_)" fill="#CD9380" d="M503.968,46.571c0.18,2.14,2.061,3.729,4.2,3.549
			c2.141-0.179,3.729-2.06,3.55-4.2c-0.182-2.141-2.062-3.729-4.201-3.55C505.377,42.55,503.786,44.431,503.968,46.571"/>
		<path clip-path="url(#SVGID_6_)" fill="#E4BB9E" d="M519.296,60.273l0.429-0.036c6.344-0.533,11.056-6.11,10.523-12.454
			l-1.092-12.971c-0.137-1.643-1.58-2.862-3.223-2.725l-15.12,1.271c-2.934,0.247-5.112,2.825-4.866,5.758l0.895,10.634
			C507.375,56.095,512.951,60.806,519.296,60.273"/>
		<path clip-path="url(#SVGID_6_)" fill="#1F2326" d="M516.595,43.996c0.084,0.513,0.565,0.861,1.08,0.778
			c0.513-0.084,0.859-0.567,0.776-1.08c-0.084-0.512-0.566-0.861-1.08-0.777C516.859,43,516.512,43.483,516.595,43.996"/>
		<path clip-path="url(#SVGID_6_)" fill="#1F2326" d="M508.579,44.645c0.084,0.513,0.566,0.861,1.08,0.778
			c0.513-0.084,0.859-0.567,0.776-1.08c-0.084-0.512-0.565-0.861-1.079-0.777C508.845,43.649,508.496,44.132,508.579,44.645"/>
		
			<path clip-path="url(#SVGID_6_)" fill="none" stroke="#CD9380" stroke-width="0.75" stroke-linecap="round" stroke-linejoin="round" stroke-miterlimit="10" d="
			M512.286,44.516l0.097,3.91c0,0,0.286,1.402,2.254,0.677"/>
		<path clip-path="url(#SVGID_6_)" fill="#1F2326" d="M519.8,40.882c-0.056,0.014-0.114,0.023-0.174,0.026l-4.255,0.201
			c-0.475,0.022-0.877-0.345-0.9-0.82c-0.023-0.475,0.342-0.876,0.82-0.901l4.255-0.201c0.475-0.022,0.878,0.345,0.899,0.82
			C520.466,40.423,520.188,40.783,519.8,40.882"/>
		<path clip-path="url(#SVGID_6_)" fill="#1F2326" d="M510.13,41.519c-0.057,0.014-0.114,0.023-0.173,0.026l-2.602,0.123
			c-0.476,0.022-0.878-0.345-0.901-0.819c-0.022-0.476,0.346-0.879,0.819-0.902l2.602-0.123c0.476-0.022,0.879,0.344,0.9,0.82
			C510.796,41.059,510.518,41.419,510.13,41.519"/>
		
			<path clip-path="url(#SVGID_6_)" fill="none" stroke="#72685D" stroke-width="1.298" stroke-linecap="round" stroke-linejoin="round" stroke-miterlimit="10" d="
			M532.233,25.574c0,0,1.017,2.413-0.954,4.589"/>
		
			<path clip-path="url(#SVGID_6_)" fill="none" stroke="#72685D" stroke-width="1.298" stroke-linecap="round" stroke-linejoin="round" stroke-miterlimit="10" d="
			M534.9,29.314c0,0-2.834-0.222-2.593,1.138"/>
		<path clip-path="url(#SVGID_6_)" fill="#72685D" d="M532.066,29.092c-2.585-7.106-8.512-6.381-10.104-6.18
			c-1.59,0.201-6.553,2.952-8.854,1.896c-2.302-1.056-4.125-2.515-6.981-1.693c-3.655,1.054-8.193,7.871-3.449,12.592
			c3.942,3.922,16.301,1.605,21.134,0.509c0.161,1.707,0.914,4.254,4.017,4.074l1.316,2.929c0.282,5.263,5.025,7.706,5.025,7.706
			C541.564,31.15,532.066,29.092,532.066,29.092"/>
		<path clip-path="url(#SVGID_6_)" fill="#E4BB9E" d="M527.229,43.984c0.18,2.14,2.061,3.729,4.201,3.549
			c2.14-0.179,3.729-2.06,3.549-4.2c-0.18-2.141-2.062-3.729-4.201-3.55C528.638,39.963,527.049,41.844,527.229,43.984"/>
		<path clip-path="url(#SVGID_6_)" fill="#72685D" d="M524.978,33.667l1.299,14.478c0.118,1.31-0.373,2.648-1.426,3.438
			c-0.672,0.502-1.179,1.15-2.41,1.016c-3.47-0.377-1.942-2.733-8.929-2.088c-6.4,0.591-5.808,3.865-5.808,3.865
			s1.493,6.731,10.302,6.73s12.976-5.729,11.693-13.105l-1.438-15.28L524.978,33.667z"/>
		<path clip-path="url(#SVGID_6_)" fill="#DCDBDD" d="M522.303,120.638h-32.702v-3.688h32.702c1.019,0,1.845,0.825,1.845,1.844
			C524.147,119.813,523.321,120.638,522.303,120.638"/>
		<path clip-path="url(#SVGID_6_)" fill="#DCDBDD" d="M493.905,120.638h-43.332c-2.495,0-4.687-1.663-5.355-4.067l-8.449-30.357
			c-0.747-2.684,1.271-5.341,4.058-5.341h39.798c1.666,0,3.123,1.123,3.547,2.735L493.905,120.638z"/>
		<path clip-path="url(#SVGID_6_)" fill="#FFFFFF" d="M467.522,102.454c0,2.265-1.835,4.101-4.1,4.101
			c-2.264,0-4.099-1.836-4.099-4.101s1.835-4.1,4.099-4.1C465.688,98.354,467.522,100.189,467.522,102.454"/>
		<rect x="405.405" y="120.869" clip-path="url(#SVGID_6_)" fill="#F2F2F2" width="33.088" height="80.691"/>
		<rect x="438.493" y="120.869" clip-path="url(#SVGID_6_)" fill="#D8D8D8" width="36.209" height="80.691"/>
		<rect x="582.057" y="121.742" clip-path="url(#SVGID_6_)" fill="#D8D8D8" width="6.136" height="79.689"/>
		<rect x="624.737" y="122.106" clip-path="url(#SVGID_6_)" fill="#D8D8D8" width="6.135" height="79.69"/>
		<rect x="588.214" y="120.083" clip-path="url(#SVGID_6_)" fill="#D8D8D8" width="46.526" height="4.046"/>
		<rect x="390.092" y="120.083" clip-path="url(#SVGID_6_)" fill="#C6C6C6" width="198.122" height="4.046"/>
		<polygon clip-path="url(#SVGID_6_)" fill="#E4BB9E" points="506.55,176.448 514.497,194.082 533.236,194.082 526.945,176.448 		
			"/>
		<polygon clip-path="url(#SVGID_6_)" fill="#E4BB9E" points="487.544,176.448 478.219,194.082 496.959,194.082 504.874,176.448 		
			"/>
		<path clip-path="url(#SVGID_6_)" fill="#4C5356" d="M493.905,124.129c0,0-10.255,5.121-2.356,21.853l17.001,42.664h23.628
			l-21.215-64.517H493.905z"/>
		<path clip-path="url(#SVGID_6_)" fill="#62696D" d="M568.014,124.129c0,0,6.998,18.09-14.422,22.432h-34.75l-18.824,42.085
			h-21.799l22.849-64.517H568.014z"/>
		<path clip-path="url(#SVGID_6_)" fill="#121932" d="M533.236,194.081l3.066,7.479h-35.078c0,0,1.433-7.479,13.272-7.479H533.236z"
			/>
		<path clip-path="url(#SVGID_6_)" fill="#121932" d="M496.959,194.081l-2.951,7.479h-30.614c0,0,1.433-7.479,13.272-7.479H496.959z
			"/>
		
			<line clip-path="url(#SVGID_6_)" fill="none" stroke="#3E3A39" stroke-width="3.355" stroke-miterlimit="10" x1="239.512" y1="112.57" x2="239.512" y2="123.539"/>
		<path clip-path="url(#SVGID_6_)" fill-rule="evenodd" clip-rule="evenodd" fill="#94999B" d="M255.021,198.113
			c1.906,0,3.461-1.554,3.461-3.461c0-1.904-1.555-3.46-3.461-3.46c-1.906,0-3.461,1.556-3.461,3.46
			C251.56,196.56,253.115,198.113,255.021,198.113"/>
		<path clip-path="url(#SVGID_6_)" fill-rule="evenodd" clip-rule="evenodd" fill="#94999B" d="M290.995,198.113
			c1.906,0,3.461-1.554,3.461-3.461c0-1.904-1.555-3.46-3.461-3.46c-1.906,0-3.461,1.556-3.461,3.46
			C287.534,196.56,289.088,198.113,290.995,198.113"/>
		
			<rect x="253.926" y="162.144" clip-path="url(#SVGID_6_)" fill-rule="evenodd" clip-rule="evenodd" fill="#B8BAC5" width="6.111" height="23.696"/>
		<polygon clip-path="url(#SVGID_6_)" fill-rule="evenodd" clip-rule="evenodd" fill="#94999B" points="252.859,182.902 
			261.104,182.902 261.104,186.784 292.664,188.619 292.664,192.244 261.104,192.244 258.647,192.244 255.314,192.244 
			255.314,192.245 221.299,192.245 221.299,188.619 252.859,186.784 		"/>
		
			<rect x="252.042" y="155.741" clip-path="url(#SVGID_6_)" fill-rule="evenodd" clip-rule="evenodd" fill="#94999B" width="9.878" height="9.341"/>
		
			<rect x="251.56" y="144.704" clip-path="url(#SVGID_6_)" fill-rule="evenodd" clip-rule="evenodd" fill="#94999B" width="12.804" height="12.843"/>
		<path clip-path="url(#SVGID_6_)" fill-rule="evenodd" clip-rule="evenodd" fill="#94999B" d="M243.854,144.704h26.289
			c3.685,0,6.672-2.986,6.672-6.672h-39.633C237.182,141.718,240.169,144.704,243.854,144.704"/>
		<path clip-path="url(#SVGID_6_)" fill="#94999B" d="M220.322,194.652c0,1.906,1.555,3.462,3.461,3.462
			c1.906,0,3.461-1.556,3.461-3.462H220.322z"/>
		<path clip-path="url(#SVGID_6_)" fill="#94999B" d="M223.783,191.193c-1.906,0-3.46,1.555-3.461,3.46h6.922
			C227.244,192.748,225.689,191.193,223.783,191.193"/>
		<path clip-path="url(#SVGID_6_)" fill="#94999B" d="M255.021,191.193c-1.906,0-3.461,1.555-3.461,3.46h6.922
			C258.482,192.748,256.927,191.193,255.021,191.193"/>
		<path clip-path="url(#SVGID_6_)" fill="#94999B" d="M290.995,191.193c-1.906,0-3.46,1.555-3.461,3.46h6.922
			C294.455,192.748,292.9,191.193,290.995,191.193"/>
		<path clip-path="url(#SVGID_6_)" fill="#5A5375" d="M225.337,121.693h52.024c1.53,0,3.02,0.487,4.253,1.395l13.605,10.003
			l-59.381,1.147L225.337,121.693z"/>
		<polygon clip-path="url(#SVGID_6_)" fill="#6F698F" points="216.98,41.193 259.889,41.193 266.82,116.271 223.411,116.271 		"/>
		<path clip-path="url(#SVGID_6_)" fill="#5A5375" d="M288.599,139.619h-39.76c-2.972,0-5.382-2.409-5.382-5.382
			c0-2.972,2.41-5.382,5.382-5.382h39.76c2.972,0,5.382,2.41,5.382,5.382C293.981,137.21,291.571,139.619,288.599,139.619"/>
		<path clip-path="url(#SVGID_6_)" fill="#9893BB" d="M252.331,139.619h-16.497c-1.105,0-2.184-0.341-3.089-0.976l-10.216-7.163
			c-2.434-1.706-3.024-5.062-1.317-7.496c1.704-2.434,5.061-3.021,7.495-1.315l8.826,6.187h14.798c2.972,0,5.381,2.41,5.381,5.382
			C257.711,137.21,255.302,139.619,252.331,139.619"/>
		<path clip-path="url(#SVGID_6_)" fill="#9893BB" d="M223.411,116.294c-2.748,0-5.094-2.097-5.352-4.888l-5.942-64.36
			c-0.273-2.96,1.904-5.581,4.863-5.854c2.936-0.279,5.58,1.904,5.854,4.864l5.942,64.361c0.273,2.96-1.904,5.58-4.864,5.854
			C223.744,116.286,223.577,116.294,223.411,116.294"/>
		<path clip-path="url(#SVGID_6_)" fill="#6A74AD" d="M266.319,116.294c-2.748,0-5.094-2.097-5.352-4.888l-3.809-64.361
			c-0.274-2.959-0.228-5.58,2.731-5.853c2.94-0.279,5.579,1.904,5.854,4.865l5.941,64.359c0.274,2.96-1.904,5.58-4.863,5.854
			C266.652,116.286,266.486,116.294,266.319,116.294"/>
		<polygon clip-path="url(#SVGID_6_)" fill="#DF6666" points="421.89,102.826 405.549,102.826 407.97,120.383 419.348,120.383 		"/>
		<path clip-path="url(#SVGID_6_)" fill="#DF6666" d="M419.738,116.353c1.028,0,3.405-0.15,5.027-1.435
			c1.069-0.844,1.612-1.991,1.612-3.409c0-1.566-0.558-2.798-1.66-3.66c-1.779-1.393-4.295-1.21-4.402-1.203l0.199,1.908
			c0.017,0.002,1.666-0.104,2.707,0.716c0.613,0.484,0.923,1.238,0.923,2.239c0,0.873-0.292,1.529-0.893,2.001
			c-1.341,1.062-3.806,0.92-3.83,0.92l-0.184,1.908C419.269,116.34,419.45,116.353,419.738,116.353"/>
		<path clip-path="url(#SVGID_6_)" fill="#EAEAEA" d="M414.041,99.567c1.038-0.887,1.868-1.797,2.645-2.899
			c0.744-1.099,1.388-2.362,1.679-3.859c0.292-1.48,0.137-3.232-0.583-4.698c-0.685-1.495-1.767-2.633-2.869-3.553
			c-0.309-0.252-0.492-0.419-0.705-0.606l-0.615-0.56c-0.401-0.375-0.788-0.753-1.142-1.132c-0.702-0.739-1.331-1.555-1.508-2.087
			c-0.084-0.252-0.031-0.387,0.079-0.241c0.105,0.134,0.104,0.418,0.187,0.379c0.133-0.056,0.816-0.725,1.636-1.339
			c1.884-1.409,2.269-4.079,0.86-5.963c-1.409-1.883-4.079-2.268-5.963-0.859c-0.278,0.208-0.523,0.443-0.735,0.7l-0.132,0.162
			c-0.417,0.511-0.855,1.058-1.312,1.711c-0.451,0.661-0.944,1.408-1.353,2.476c-0.406,1.023-0.632,2.514-0.337,3.807
			c0.27,1.317,0.877,2.254,1.436,2.974c1.158,1.406,2.304,2.171,3.418,2.907c0.558,0.359,1.113,0.682,1.666,0.989l1.571,0.842
			c0.795,0.439,1.478,0.948,1.903,1.535c0.453,0.577,0.678,1.259,0.697,2.102c0.016,1.682-0.995,3.807-2.239,5.435l-0.068,0.089
			c-0.415,0.542-0.311,1.317,0.231,1.731C412.958,99.97,413.607,99.938,414.041,99.567"/>
		<path clip-path="url(#SVGID_6_)" fill="#EFC3A6" d="M288.85,195.061c0.127-0.713,0.832-18.471,0.832-18.471l9.427,0.137
			l-0.716,18.483L288.85,195.061z"/>
		<path clip-path="url(#SVGID_6_)" fill="#6778BF" d="M268.611,127.135h27.952l-9.777-10.133l-0.738,66.174h16.551l3.741-65.475
			c0.315-5.271-3.702-9.8-8.973-10.116c-0.182-0.011-0.362-0.016-0.542-0.017l-0.262,0.001h-27.952V127.135z"/>
		<path clip-path="url(#SVGID_6_)" fill="#A87560" d="M289.223,187.264h9.435c0,0,2.415,6.063,14.082,6.891
			c0,0,3.123,0.274,3.306,4.042c0,0,0.248,2.306-1.837,2.847h-25.748L289.223,187.264z"/>
		<path clip-path="url(#SVGID_6_)" fill="#EFC3A6" d="M260.174,195.061c0.127-0.713-0.31-18.471-0.31-18.471l9.427,0.137
			l0.426,18.483L260.174,195.061z"/>
		<path clip-path="url(#SVGID_6_)" fill="#808DD6" d="M242.218,125.356l32.011,6.025l0.389-15.504
			c0.075-4.264-3.869-7.756-8.761-7.756h-33.071v9.012C232.786,121.676,236.335,124.433,242.218,125.356"/>
		<polygon clip-path="url(#SVGID_6_)" fill="#808DD6" points="255.171,116.739 256.963,183.175 272.944,183.175 274.524,121.968 		
			"/>
		<path clip-path="url(#SVGID_6_)" fill="#A87560" d="M260.027,187.264h9.435c0,0,2.416,6.063,14.082,6.891
			c0,0,3.123,0.274,3.307,4.042c0,0,0.247,2.306-1.837,2.847h-25.749L260.027,187.264z"/>
		<path clip-path="url(#SVGID_6_)" fill="#DF6666" d="M266.846,47.533h-29.048c-4.066,0-11.25,4.449-8.999,15.539l3.987,43.169
			l35.825-0.257l8.99-43.446c0.031-0.183,0.054-0.368,0.062-0.554C278.029,54.141,274.272,47.533,266.846,47.533"/>
		<path clip-path="url(#SVGID_6_)" fill="#EFC3A6" d="M274.186,95.699c-1.722-3.525-7.278-5.088-15.601-1.324l-12.85-0.77
			l-1.469,8.204l14.893,1.262c2.064,2.323,8.834,3.561,11.763,2.128C274.447,103.476,275.908,99.223,274.186,95.699"/>
		<path clip-path="url(#SVGID_6_)" fill="#DF6666" d="M251.378,102.664h-35.737c-2.694,0-5.19-1.42-6.567-3.735
			c-1.378-2.316-1.433-5.186-0.147-7.554l21.765-40.061l13.428,7.295l-15.632,28.773h22.89V102.664z"/>
		<polyline clip-path="url(#SVGID_6_)" fill="none" stroke="#C14646" stroke-width="0.612" stroke-miterlimit="10" points="
			251.378,93.84 251.378,87.381 222.156,87.381 		"/>
		
			<line clip-path="url(#SVGID_6_)" fill="none" stroke="#C14646" stroke-width="0.612" stroke-miterlimit="10" x1="228.488" y1="87.381" x2="237.182" y2="71.36"/>
		<path clip-path="url(#SVGID_6_)" fill="#D49A83" d="M316.823,45.646c0,0,0.609-2.933,4.647-2.113
			c4.039,0.821,15.813-2.459,13.818-6.192c-1.052-1.968-5.169,0.917-9.157,1.382c-0.914,0.107-1.87,0.082-2.801-0.019
			c-3.277-0.356-6.206,2.032-6.408,5.323L316.823,45.646z"/>
		<path clip-path="url(#SVGID_6_)" fill="#D49A83" d="M312.054,45.72c0,0,0.608-2.934,4.382-2.167s14.85-2.654,13.029-6.352
			c-0.961-1.95-4.857,0.98-8.6,1.495c-0.857,0.118-1.753,0.106-2.624,0.017c-3.067-0.313-5.842,2.106-6.073,5.391L312.054,45.72z"/>
		<path clip-path="url(#SVGID_6_)" fill="#EFC3A6" d="M323.196,39.247c-0.091,0.449-7.408,15.004-7.408,15.004
			s-9.839-2.933-9.568-3.501c0.174-0.364,4.029-6.569,6.775-10.978c1.542-2.476,4.724-3.35,7.316-2.013L323.196,39.247z"/>
		<path clip-path="url(#SVGID_6_)" fill="#EFC3A6" d="M319.79,46.249c0,0,0-2.296,4.647-2.113
			c4.118,0.162,15.813-2.459,13.818-6.191c-1.052-1.969-5.169,0.916-9.157,1.381c-3.988,0.465-8.787-1.567-8.787-1.567
			L319.79,46.249z"/>
		<path clip-path="url(#SVGID_6_)" fill="#DF6666" d="M297.832,82.732c-1.496,0-2.972-0.439-4.236-1.281L264.71,62.206l8.474-12.718
			l22.317,14.869l10.885-18.911l13.837,5.504l-15.898,28.171c-1.092,1.757-2.849,2.999-4.871,3.437
			C298.916,82.675,298.373,82.732,297.832,82.732"/>
		
			<line clip-path="url(#SVGID_6_)" fill="none" stroke="#C14646" stroke-width="0.612" stroke-miterlimit="10" x1="277.602" y1="62.539" x2="276.101" y2="69.794"/>
		<path clip-path="url(#SVGID_6_)" fill="#A23D37" d="M246.767,46.236l-3.194,1.269c3.194,6.125,10.696,12.832,10.696,12.832
			l3.387-5.376L246.767,46.236z"/>
		<path clip-path="url(#SVGID_6_)" fill="#A23D37" d="M261.771,46.236l1.813,1.269c0.587,2.977-1.813,11.51-1.813,11.51
			l-4.116-4.054L261.771,46.236z"/>
		<path clip-path="url(#SVGID_6_)" fill="#EFC3A6" d="M257.656,54.961c0,0,2.688-2.941,4.116-7.491V31.729h-15.005v14.507
			C246.767,46.236,249.9,51.789,257.656,54.961"/>
		<path clip-path="url(#SVGID_6_)" fill="#D49A83" d="M260.667,28.077c0,0,0,17.323-13.898,16.237l0.013-8.381L260.667,28.077z"/>
		<path clip-path="url(#SVGID_6_)" fill="#A87560" d="M237.764,10.113c0,0-6.868,6.417,1.507,11.854l1.993-0.501
			c0,0,5.012-7.286,1.665-12.463L237.764,10.113z"/>
		<path clip-path="url(#SVGID_6_)" fill="#EFC3A6" d="M246.516,40.867L246.516,40.867c7.165,1.199,13.945-3.637,15.145-10.802
			l2.357-14.079c0.311-1.855-0.941-3.61-2.795-3.92l-16.591-2.778c-3.312-0.555-6.447,1.681-7.002,4.994l-1.915,11.44
			C234.516,32.887,239.351,39.667,246.516,40.867"/>
		<path clip-path="url(#SVGID_6_)" fill="#121932" d="M241.023,22.524c-0.101,0.604-0.687,1.01-1.307,0.906
			c-0.621-0.104-1.042-0.678-0.941-1.282c0.101-0.605,0.686-1.01,1.307-0.907C240.703,21.345,241.124,21.92,241.023,22.524"/>
		<path clip-path="url(#SVGID_6_)" fill="#121932" d="M249.465,24.029c-0.102,0.604-0.687,1.01-1.308,0.906
			c-0.62-0.104-1.042-0.678-0.941-1.282c0.102-0.604,0.687-1.01,1.308-0.906C249.145,22.851,249.566,23.425,249.465,24.029"/>
		
			<line clip-path="url(#SVGID_6_)" fill="none" stroke="#A87560" stroke-width="2.233" stroke-linecap="round" stroke-linejoin="round" stroke-miterlimit="10" x1="247.276" y1="18.313" x2="251.688" y2="19.052"/>
		
			<line clip-path="url(#SVGID_6_)" fill="none" stroke="#A87560" stroke-width="2.233" stroke-linecap="round" stroke-linejoin="round" stroke-miterlimit="10" x1="238.762" y1="18.203" x2="241.623" y2="18.682"/>
		<path clip-path="url(#SVGID_6_)" fill="#D49A83" d="M243.017,24.89l-2.687,2.444c-0.321,0.292-0.153,0.82,0.283,0.889l3.001,0.474
			L243.017,24.89z"/>
		<path clip-path="url(#SVGID_6_)" fill="#D49A83" d="M244.339,33.024l-2.536-0.424c-0.251-0.042-0.419-0.279-0.377-0.529
			s0.278-0.419,0.528-0.377l2.537,0.425c0.25,0.042,0.418,0.278,0.377,0.529C244.826,32.898,244.589,33.066,244.339,33.024"/>
		<path clip-path="url(#SVGID_6_)" fill="#A87560" d="M258.938,14.075c0,0-3.155,6.823,2.819,12.352l1.159-1.336
			c0,0,6.165-6.928,2.817-12.105L258.938,14.075z"/>
		<path clip-path="url(#SVGID_6_)" fill="#A87560" d="M243.483,3.533c0,0,16.945-5.86,21.097,9.095L245.813,9.46L243.483,3.533z"/>
		<path clip-path="url(#SVGID_6_)" fill="#A87560" d="M233.75,4.287c0.845-1.854,2.078-2.939,3.223-3.575
			c1.591-0.883,3.483-0.938,5.146-0.199c2.33,1.037,3.925,3.046,5.086,3.724c2.364,1.381,18.462,8.305,18.462,8.305l-5.758,2.626
			c0,0-11.647,0.363-19.798-2.05C236.422,12.024,231.741,8.692,233.75,4.287"/>
		
			<path clip-path="url(#SVGID_6_)" fill="none" stroke="#A87560" stroke-width="2.233" stroke-linecap="round" stroke-linejoin="round" stroke-miterlimit="10" d="
			M268.45,12.628c0,0-2.937-0.45-5.391,1.099"/>
		
			<path clip-path="url(#SVGID_6_)" fill="none" stroke="#A87560" stroke-width="2.233" stroke-linecap="round" stroke-linejoin="round" stroke-miterlimit="10" d="
			M265.152,8.278c0,0-0.074,3.11-1.969,4.708"/>
		<path clip-path="url(#SVGID_6_)" fill="#EFC3A6" d="M258.832,26.92c-0.397,2.372,1.204,4.617,3.577,5.015
			c2.372,0.397,4.617-1.204,5.014-3.577c0.397-2.372-1.204-4.618-3.576-5.015C261.475,22.946,259.229,24.547,258.832,26.92"/>
	</g>
	<g clip-path="url(#SVGID_2_)">
		<defs>
			
				<rect id="SVGID_7_" x="26.075" y="117.647" transform="matrix(-0.9763 0.2165 -0.2165 -0.9763 169.6635 347.3096)" width="79.464" height="130.604"/>
		</defs>
		<clipPath id="SVGID_8_">
			<use xlink:href="#SVGID_7_"  overflow="visible"/>
		</clipPath>
		<path clip-path="url(#SVGID_8_)" fill="#EFE3DC" d="M69.993,215.53c0,0,0.674-36.006,20.332-57.247
			c0.593-0.641,1.667-0.276,1.745,0.593c0.627,6.94,1.192,30.144-14.324,60.2L69.993,215.53z"/>
		<path clip-path="url(#SVGID_8_)" fill="#333333" d="M74.962,206.565c-0.043,0.01-0.089,0.007-0.132-0.01
			c-0.119-0.046-0.178-0.18-0.132-0.298c0.493-1.271,13.361-37.968,13.492-38.338c0.042-0.121,0.173-0.184,0.293-0.142
			c0.12,0.042,0.183,0.173,0.141,0.293c-0.53,1.514-13,37.075-13.496,38.353C75.098,206.499,75.035,206.55,74.962,206.565"/>
		<path clip-path="url(#SVGID_8_)" fill="#EFE3DC" d="M54.121,240.989c0,0-39.817-64.163-35.336-103.756
			c0.136-1.194,1.485-1.521,2.422-0.771c7.458,5.973,32.216,59.137,39.532,105.108L54.121,240.989z"/>
		<path clip-path="url(#SVGID_8_)" fill="#333333" d="M51.945,228.095c-0.115,0.054-0.252,0.004-0.306-0.111
			c-1.794-3.786-27.702-77.391-28.804-80.522c-0.042-0.119,0.018-0.252,0.141-0.293c0.12-0.042,0.251,0.021,0.293,0.141
			c0.27,0.767,27.001,76.713,28.786,80.479C52.109,227.901,52.06,228.039,51.945,228.095"/>
		<path clip-path="url(#SVGID_8_)" fill="#C6D7D0" d="M59.775,249.52c0,0-27.19-68.203,0.631-131.104
			c0.93-2.102,3.882-2.231,4.995-0.221c7.662,13.838,26.679,59.17-1.245,132.008L59.775,249.52z"/>
		<path clip-path="url(#SVGID_8_)" fill="#333333" d="M62.724,229.313c-0.058,0.013-0.12,0.003-0.174-0.03
			c-0.106-0.068-0.139-0.211-0.071-0.319c0.658-1.644,0.51-62.103,0.338-93.839c0-0.127,0.103-0.233,0.229-0.231
			c0.127,0,0.231,0.103,0.232,0.229c0.051,9.484,0.475,92.699-0.41,94.089C62.833,229.266,62.781,229.301,62.724,229.313"/>
		<path clip-path="url(#SVGID_8_)" fill="#C6D7D0" d="M61.416,247.009c0,0,4.069-50.65,40.674-71.807
			c1.223-0.706,3.096,0.649,3.169,2.292c0.506,11.313-1.611,45.434-41.333,72.007L61.416,247.009z"/>
		<path clip-path="url(#SVGID_8_)" fill="#333333" d="M69.5,236.846c-0.098,0.021-0.202-0.023-0.252-0.115
			c-0.06-0.112-0.019-0.252,0.093-0.312c1.896-1.028,20.075-32.68,29.422-49.272c0.063-0.111,0.204-0.15,0.314-0.088
			c0.11,0.062,0.149,0.203,0.088,0.313c-1.107,1.963-27.12,48.104-29.604,49.451C69.541,236.834,69.52,236.841,69.5,236.846"/>
	</g>
	<g clip-path="url(#SVGID_2_)">
		<defs>
			
				<rect id="SVGID_9_" x="681.367" y="30.028" transform="matrix(-0.9745 -0.2245 0.2245 -0.9745 1379.6094 424.3025)" width="65.112" height="207.405"/>
		</defs>
		<clipPath id="SVGID_10_">
			<use xlink:href="#SVGID_9_"  overflow="visible"/>
		</clipPath>
		<path clip-path="url(#SVGID_10_)" fill="#C6D7D0" d="M732.568,63.675c0,0-23.779,29.237-19.909,56.932l4.515,9.896l15.996-48.118
			L732.568,63.675z"/>
		<path clip-path="url(#SVGID_10_)" fill="#C6D7D0" d="M705.354,238.175c0,0-32.852-36.735-29.799-82.798
			c0.102-1.538,1.934-2.301,3.098-1.288c8.017,6.959,30.447,31.157,29.621,83.507L705.354,238.175z"/>
		<path clip-path="url(#SVGID_10_)" fill="#333333" d="M703.678,226.553c-0.067-0.016-0.128-0.059-0.164-0.122
			c-3.037-5.413-19.226-52.299-19.913-54.292c-0.046-0.133,0.024-0.275,0.155-0.32c0.13-0.047,0.276,0.023,0.321,0.156
			c0.17,0.487,16.861,48.833,19.877,54.208c0.067,0.122,0.025,0.275-0.097,0.345C703.8,226.558,703.735,226.566,703.678,226.553"/>
		<path clip-path="url(#SVGID_10_)" fill="#EFE3DC" d="M699.15,233.277c0,0-29.281-75.071,1.767-143.871
			c1.037-2.298,4.278-2.416,5.483-0.201c8.294,15.249,28.793,65.153-2.448,144.858L699.15,233.277z"/>
		<path clip-path="url(#SVGID_10_)" fill="#333333" d="M701.704,212.557c-0.121-0.027-0.205-0.144-0.194-0.271
			c0.932-9.594,1.937-103.102,1.945-104.046c0.001-0.14,0.115-0.252,0.255-0.25c0.143-0.002,0.252,0.116,0.251,0.255
			c-0.012,0.943-1.015,94.474-1.948,104.09c-0.013,0.14-0.138,0.241-0.276,0.229C701.727,212.561,701.715,212.56,701.704,212.557"/>
		<path clip-path="url(#SVGID_10_)" fill="#EFE3DC" d="M713.632,136.632c0,0,20.1-73.125,52.328-96.844
			c0.973-0.714,2.134,0.057,2.221,1.259c0.689,9.571-21.583,64.094-50.461,100.857L713.632,136.632z"/>
		<path clip-path="url(#SVGID_10_)" fill="#333333" d="M733.633,102.842c-0.068-0.077-0.086-0.192-0.035-0.289
			c2.291-4.294,24.063-46.845,24.283-47.273c0.063-0.124,0.216-0.173,0.34-0.11c0.126,0.065,0.174,0.216,0.109,0.34
			c-0.219,0.43-21.994,42.984-24.286,47.282c-0.066,0.123-0.22,0.17-0.344,0.105C733.675,102.881,733.651,102.862,733.633,102.842"
			/>
	</g>
</g>
</svg>
