<?xml version="1.0" encoding="utf-8"?>
<!-- Generator: Adobe Illustrator 16.0.0, SVG Export Plug-In . SVG Version: 6.00 Build 0)  -->
<!DOCTYPE svg PUBLIC "-//W3C//DTD SVG 1.1//EN" "http://www.w3.org/Graphics/SVG/1.1/DTD/svg11.dtd">
<svg version="1.1" id="Layer_1" xmlns="http://www.w3.org/2000/svg" xmlns:xlink="http://www.w3.org/1999/xlink" x="0px" y="0px"
	 width="352.566px" height="169.238px" viewBox="0 0 352.566 169.238" enable-background="new 0 0 352.566 169.238"
	 xml:space="preserve">
<g>
	<defs>
		<rect id="SVGID_1_" width="352.566" height="169.238"/>
	</defs>
	<clipPath id="SVGID_2_">
		<use xlink:href="#SVGID_1_"  overflow="visible"/>
	</clipPath>
	<g clip-path="url(#SVGID_2_)">
		<defs>
			<rect id="SVGID_3_" width="352.566" height="169.238"/>
		</defs>
		<clipPath id="SVGID_4_">
			<use xlink:href="#SVGID_3_"  overflow="visible"/>
		</clipPath>
		<g opacity="0.45" clip-path="url(#SVGID_4_)" enable-background="new    ">
			<g>
				<defs>
					<rect id="SVGID_5_" x="18.466" y="158.255" width="145.246" height="10.982"/>
				</defs>
				<clipPath id="SVGID_6_">
					<use xlink:href="#SVGID_5_"  overflow="visible"/>
				</clipPath>
				<path clip-path="url(#SVGID_6_)" fill="#E6E6E6" d="M91.089,158.255c40.109,0,72.624,2.458,72.624,5.491
					c0,3.032-32.515,5.491-72.624,5.491c-40.108,0-72.623-2.459-72.623-5.491C18.466,160.713,50.98,158.255,91.089,158.255"/>
			</g>
		</g>
		<g opacity="0.45" clip-path="url(#SVGID_4_)" enable-background="new    ">
			<g>
				<defs>
					<rect id="SVGID_7_" x="196.517" y="158.255" width="139.156" height="10.982"/>
				</defs>
				<clipPath id="SVGID_8_">
					<use xlink:href="#SVGID_7_"  overflow="visible"/>
				</clipPath>
				<path clip-path="url(#SVGID_8_)" fill="#E6E6E6" d="M266.095,158.255c38.428,0,69.578,2.458,69.578,5.491
					c0,3.032-31.15,5.491-69.578,5.491c-38.427,0-69.577-2.459-69.577-5.491C196.518,160.713,227.668,158.255,266.095,158.255"/>
			</g>
		</g>
		<path clip-path="url(#SVGID_4_)" fill="#FFD200" d="M299.438,31.36c0,0-17.123-3.786-26.634,1.208
			c-9.511,4.994-21.446,30.227-61.285,29.384l1.351,8.465c0,0,51.195,1.706,72.947-18.097
			C307.567,32.517,299.438,31.36,299.438,31.36"/>
		<g opacity="0.44" clip-path="url(#SVGID_4_)" enable-background="new    ">
			<g>
				<defs>
					<rect id="SVGID_9_" x="211.519" y="29.986" width="89.407" height="40.468"/>
				</defs>
				<clipPath id="SVGID_10_">
					<use xlink:href="#SVGID_9_"  overflow="visible"/>
				</clipPath>
				<path clip-path="url(#SVGID_10_)" fill="#FFFFFF" d="M299.438,31.36c0,0-17.123-3.786-26.634,1.208
					c-9.511,4.994-21.446,30.227-61.285,29.384l1.351,8.465c0,0,51.195,1.706,72.947-18.097
					C307.567,32.517,299.438,31.36,299.438,31.36"/>
			</g>
		</g>
		<polygon clip-path="url(#SVGID_4_)" fill="#F4A28C" points="297.742,12.887 297.58,30.051 288.182,29.279 292.079,17.109 		"/>
		<g opacity="0.31" clip-path="url(#SVGID_4_)" enable-background="new    ">
			<g>
				<defs>
					<rect id="SVGID_11_" x="289.877" y="18.439" width="4.537" height="5.563"/>
				</defs>
				<clipPath id="SVGID_12_">
					<use xlink:href="#SVGID_11_"  overflow="visible"/>
				</clipPath>
				<path clip-path="url(#SVGID_12_)" fill="#CE8172" d="M291.104,19.738c1.207-0.097,2.358-0.549,3.31-1.299
					c0,0-0.65,3.045-4.538,5.562L291.104,19.738z"/>
			</g>
		</g>
		<path clip-path="url(#SVGID_4_)" fill="#F4A28C" d="M288.435,10.644c-0.56,2.856-0.736,5.775-0.526,8.678
			c0.191,1.428,1.505,2.429,2.932,2.238c0.011-0.002,0.021-0.003,0.032-0.005c2.266-0.188,4.209-1.691,4.962-3.837l2.031-4.374
			c0.67-1.89,0.075-3.997-1.482-5.258C293.734,5.69,288.892,7.487,288.435,10.644"/>
		<path clip-path="url(#SVGID_4_)" fill="#F4A28C" d="M287.958,13.912l-1.665,1.847c-0.313,0.344-0.289,0.877,0.056,1.191
			c0.081,0.074,0.176,0.132,0.279,0.17l1.938,0.598L287.958,13.912z"/>
		<path clip-path="url(#SVGID_4_)" fill="#EC6952" d="M74.758,30.051c0,0,11.672,4.486,11.256,18.879
			c-0.416,14.392,4.294,24.472,14.109,24.877c5.725,0.304,11.462-0.296,17.001-1.776l2.456,6.993c0,0-28.846,12.292-42.153-3.948
			C64.121,58.836,74.758,30.051,74.758,30.051"/>
		<g opacity="0.44" clip-path="url(#SVGID_4_)" enable-background="new    ">
			<g>
				<defs>
					<rect id="SVGID_13_" x="70.731" y="30.051" width="48.849" height="53.431"/>
				</defs>
				<clipPath id="SVGID_14_">
					<use xlink:href="#SVGID_13_"  overflow="visible"/>
				</clipPath>
				<path clip-path="url(#SVGID_14_)" fill="#FFFFFF" d="M74.758,30.051c0,0,11.672,4.486,11.256,18.879
					c-0.416,14.392,4.294,24.472,14.109,24.877c5.725,0.304,11.462-0.296,17.001-1.776l2.456,6.993c0,0-28.846,12.292-42.153-3.948
					C64.121,58.836,74.758,30.051,74.758,30.051"/>
			</g>
		</g>
		<polygon clip-path="url(#SVGID_4_)" fill="#F4A28C" points="54.173,10.015 54.325,27.168 63.724,26.407 59.837,14.227 		"/>
		<g opacity="0.31" clip-path="url(#SVGID_4_)" enable-background="new    ">
			<g>
				<defs>
					<rect id="SVGID_15_" x="57.492" y="15.567" width="4.547" height="5.552"/>
				</defs>
				<clipPath id="SVGID_16_">
					<use xlink:href="#SVGID_15_"  overflow="visible"/>
				</clipPath>
				<path clip-path="url(#SVGID_16_)" fill="#CE8172" d="M60.801,16.855c-1.205-0.097-2.355-0.545-3.309-1.289
					c0,0,0.65,3.045,4.547,5.552L60.801,16.855z"/>
			</g>
		</g>
		<path clip-path="url(#SVGID_4_)" fill="#24285B" d="M288.182,9.558c0,0,0.903,4.994,5.663,5.075l3.837,4.872l2.143-7.937
			c0,0,3.978-1.756,2.526-4.578c-1.45-2.822-2.953-0.507-4.231-3.908c-1.28-3.4-3.817-3.156-4.062-1.918
			c-0.242,1.238-1.918,1.31-2.761-0.162c-0.7-1.218-3.765,0.67-3.399,3.045c0.124,0.686-0.329,1.343-1.016,1.471
			c-0.927,0.086-1.606,0.907-1.521,1.834c0.007,0.066,0.016,0.132,0.029,0.196c-0.07,1.119,0.777,2.084,1.896,2.156
			C287.592,9.724,287.898,9.674,288.182,9.558"/>
		<path clip-path="url(#SVGID_4_)" fill="#F4A28C" d="M293.449,15.708c0,0,0.254-2.03,1.735-1.675
			c1.483,0.356,1.127,3.208-0.943,3.248L293.449,15.708z"/>
		<path clip-path="url(#SVGID_4_)" fill="#FFD200" d="M288.182,29.279l9.398,0.771c0,0,14.404-2.253,21.133,8.597
			c13.49,21.793-18.707,55.105-18.707,55.105s-31.282,3.653-41.097-6.496c0,0,7.664-22.513,6.444-35.88
			C264.136,38.008,265.314,26.63,288.182,29.279"/>
		<path clip-path="url(#SVGID_4_)" fill="#F4A28C" d="M63.481,7.762c0.561,2.86,0.738,5.782,0.528,8.688
			c-0.204,1.438-1.535,2.437-2.972,2.234c-0.001-0.001-0.002-0.001-0.002-0.001c-2.267-0.194-4.209-1.7-4.964-3.846l-2.029-4.375
			c-0.647-1.882-0.046-3.967,1.502-5.217C58.254,2.809,63.014,4.604,63.481,7.762"/>
		<path clip-path="url(#SVGID_4_)" fill="#24285B" d="M62.222,8.086c-1.596,0.237-3.213,0.288-4.821,0.152
			c1.105,1.346,1.312,3.217,0.528,4.771c-0.734,1.512-2.433,2.298-4.06,1.878l-0.69-6.659c-0.277-1.959,0.55-3.912,2.151-5.075
			c0.67-0.49,1.372-0.934,2.101-1.33c1.828-1.014,4.771,0,6.354-1.502c0.506-0.46,1.29-0.423,1.75,0.083
			c0.133,0.147,0.229,0.324,0.28,0.516c0.528,2.03,0.518,5.248-2.101,6.659C63.248,7.828,62.744,8,62.222,8.086"/>
		<path clip-path="url(#SVGID_4_)" fill="#F4A28C" d="M58.467,12.826c0,0-0.213-2-1.735-1.695c-1.523,0.304-1.127,3.207,0.933,3.258
			L58.467,12.826z"/>
		<path clip-path="url(#SVGID_4_)" fill="#F4A28C" d="M63.948,11.029l1.665,1.848c0.312,0.344,0.286,0.877-0.06,1.19
			c-0.09,0.082-0.198,0.144-0.316,0.18l-1.908,0.589L63.948,11.029z"/>
		<path clip-path="url(#SVGID_4_)" fill="#F4A28C" d="M117.692,73.686c0,0,4.923-7.765,9.216-5.298
			c7.664,4.395-7.358,10.586-7.358,10.586L117.692,73.686z"/>
		<path clip-path="url(#SVGID_4_)" fill="#F4A28C" d="M211.833,64.215c0,0-11.397,0.761-9.836,5.552
			c1.564,4.791,10.82,0.65,10.82,0.65L211.833,64.215z"/>
		<g opacity="0.08" clip-path="url(#SVGID_4_)" enable-background="new    ">
			<g>
				<defs>
					<rect id="SVGID_17_" x="262.055" y="39.48" width="58.911" height="54.272"/>
				</defs>
				<clipPath id="SVGID_18_">
					<use xlink:href="#SVGID_17_"  overflow="visible"/>
				</clipPath>
				<path clip-path="url(#SVGID_18_)" d="M301.579,39.48c0,0-6.993,9.043-5.562,17.468c1.431,8.425,10.83,15.661-1.634,15.134
					c-12.465-0.528-30.938-1.482-30.938-1.482l-1.39,5.877c0,0,19.001,0.345,24.024,5.318c2.917,2.609,3.771,6.825,2.103,10.364
					l11.824,1.593c0,0,7.764-8.586,10.474-13.134c2.71-4.547,10.486-12.474,10.486-12.474L301.579,39.48z"/>
			</g>
		</g>
		<path clip-path="url(#SVGID_4_)" fill="#EC6952" d="M21.064,51.173c-5.876-15.773,8.049-31.79,24.36-28.024l1.086,0.243
			l11.307,2.365c0,0,26.949,1.015,26.137,18.849s2.029,42.63,2.029,42.63l-32.774,9.349C53.209,96.584,29.438,73.614,21.064,51.173"
			/>
		
			<path clip-path="url(#SVGID_4_)" fill="none" stroke="#24285B" stroke-width="2.03" stroke-linecap="round" stroke-linejoin="round" stroke-miterlimit="4.06" d="
			M18.466,139.021l8.465-23.853c4.344-12.261,3.339-34.763,29.08-43.188c2.875-0.91,5.875-1.362,8.891-1.339h253.273
			c18.554,0,33.606,15.6,33.374,34.723v0.762c-0.6,25.7-4.396,39.27-4.396,39.27"/>
		<g opacity="0.08" clip-path="url(#SVGID_4_)" enable-background="new    ">
			<g>
				<defs>
					<rect id="SVGID_19_" x="19.684" y="30.802" width="65.193" height="65.823"/>
				</defs>
				<clipPath id="SVGID_20_">
					<use xlink:href="#SVGID_19_"  overflow="visible"/>
				</clipPath>
				<path clip-path="url(#SVGID_20_)" d="M46.967,30.802c0,0,11.855,11.165-1.228,25.142c-13.084,13.976,3.045,19.883,3.045,19.883
					s13.073-9.064,18.798-8.526c5.724,0.538,2.699,3.299,2.699,3.299h14.211l0.385,5.227c0,0-30.48,0.265-31.637,20.797
					L40.634,82.729L19.684,67.9l1.32-14.037L46.967,30.802z"/>
			</g>
		</g>
		<path clip-path="url(#SVGID_4_)" fill="#F4A28C" d="M57.533,65.413c0,0,2.771-4.517,9.521-2.03s4.628,12.566-4.761,6.943
			L57.533,65.413z"/>
		<path clip-path="url(#SVGID_4_)" fill="#EC6952" d="M48.246,35.014c-1.157-9.673-12.322-14.373-20.32-8.973
			C14.122,35.339-6.442,53.446,1.952,75.147c12.272,31.637,61.103-4.547,61.103-4.547l-4.801-9.044c0,0-26.187,12.88-35.099,4.791
			C15.938,59.852,50.59,53.68,48.246,35.014"/>
		<g opacity="0.44" clip-path="url(#SVGID_4_)" enable-background="new    ">
			<g>
				<defs>
					<rect id="SVGID_21_" y="23.767" width="63.055" height="64.353"/>
				</defs>
				<clipPath id="SVGID_22_">
					<use xlink:href="#SVGID_21_"  overflow="visible"/>
				</clipPath>
				<path clip-path="url(#SVGID_22_)" fill="#FFFFFF" d="M48.246,35.014c-1.157-9.673-12.322-14.373-20.32-8.973
					C14.122,35.339-6.442,53.446,1.952,75.147c12.272,31.637,61.103-4.547,61.103-4.547l-4.801-9.044c0,0-26.187,12.88-35.099,4.791
					C15.938,59.852,50.59,53.68,48.246,35.014"/>
			</g>
		</g>
		<path clip-path="url(#SVGID_4_)" fill="#24285B" d="M53.24,96.625l5.542,16.494c2.672,7.918,1.18,16.651-3.969,23.234
			l-13.976,17.893l5.694,3.695l18.067-16.24c9.449-8.531,13.592-21.478,10.85-33.911c-0.306-1.379,0.565-2.745,1.944-3.051
			c0.741-0.164,1.515,0.009,2.116,0.473c11.165,8.779,35.525,30.044,40.022,51.298h7.358c0,0-10.434-49.328-40.894-69.172
			L53.24,96.625z"/>
		<path clip-path="url(#SVGID_4_)" fill="#EC6952" d="M42.734,155.423l-2.273,1.868c-0.79,0.637-0.913,1.794-0.275,2.583
			c0.035,0.044,0.073,0.086,0.112,0.127l2.73,2.761c0.605,0.641,1.444,1.008,2.325,1.016h3.988c0.517-0.002,0.933-0.421,0.932-0.938
			c-0.001-0.302-0.148-0.584-0.393-0.759l-2.03-1.48c-0.855-0.615-1.331-1.63-1.259-2.681L42.734,155.423z"/>
		<path clip-path="url(#SVGID_4_)" fill="#EC6952" d="M121.387,156.449l0.467,4.061c0.176,1.492,1.528,2.559,3.019,2.383
			c0.15-0.018,0.298-0.047,0.442-0.089l8.029-2.406c0.971-0.292,1.522-1.317,1.23-2.289c-0.161-0.532-0.553-0.963-1.068-1.172
			C130.258,155.678,125.629,154.601,121.387,156.449"/>
		<path clip-path="url(#SVGID_4_)" fill="#FFD200" d="M227.921,156.449l-0.467,4.061c-0.17,1.486-1.513,2.554-3.001,2.384
			c-0.152-0.017-0.303-0.048-0.45-0.09l-8.039-2.406c-0.971-0.296-1.518-1.322-1.223-2.293c0.162-0.531,0.556-0.96,1.071-1.168
			C219.05,155.678,223.698,154.601,227.921,156.449"/>
		<path clip-path="url(#SVGID_4_)" fill="#FFD200" d="M302.371,156.449l0.467,4.061c0.171,1.486,1.514,2.554,3,2.384
			c0.152-0.017,0.305-0.048,0.451-0.09l8.028-2.406c0.972-0.292,1.523-1.317,1.23-2.289c-0.16-0.532-0.553-0.963-1.068-1.172
			C311.242,155.678,306.613,154.601,302.371,156.449"/>
		<path clip-path="url(#SVGID_4_)" fill="#FFD200" d="M302.655,36.506c2.153-4.004,7.104-5.565,11.165-3.522
			c5.511,2.624,9.92,7.105,12.454,12.657c5.318,12.13,14.109,33.302,0,35.769c-14.107,2.467-40.193-7.968-40.193-7.968l1.694-5.542
			c0,0,23.578,6.882,25.618-0.599C315.16,60.866,296.211,48.585,302.655,36.506"/>
		<g opacity="0.44" clip-path="url(#SVGID_4_)" enable-background="new    ">
			<g>
				<defs>
					<rect id="SVGID_23_" x="286.08" y="32.087" width="47.821" height="49.7"/>
				</defs>
				<clipPath id="SVGID_24_">
					<use xlink:href="#SVGID_23_"  overflow="visible"/>
				</clipPath>
				<path clip-path="url(#SVGID_24_)" fill="#FFFFFF" d="M302.655,36.506c2.153-4.004,7.104-5.565,11.165-3.522
					c5.511,2.624,9.92,7.105,12.454,12.657c5.318,12.13,14.109,33.302,0,35.769c-14.107,2.467-40.193-7.968-40.193-7.968
					l1.694-5.542c0,0,23.578,6.882,25.618-0.599C315.16,60.866,296.211,48.585,302.655,36.506"/>
			</g>
		</g>
		<path clip-path="url(#SVGID_4_)" fill="#F4A28C" d="M287.521,68.732c0,0-3.461-3.766-5.309-2.223
			c-1.847,1.543-1.329,2.771-1.329,2.771s-3.37,1.644-1.015,3.705c2.354,2.06,6.212,0.456,6.212,0.456L287.521,68.732z"/>
		<path clip-path="url(#SVGID_4_)" fill="#24285B" d="M258.908,87.256l-37.614,66.989l7.968,3.046c0,0,29.039-41.747,44.365-47.856
			c8.444-3.361,17.631,0.598,24.187,4.83c5.532,3.595,8.339,10.178,7.106,16.656l-4.64,26.391l8.587-1.848l9.236-19.071
			c5.46-11.109,2.98-24.484-6.1-32.897c-3.779-3.483-7.769-6.73-11.947-9.723C300.057,93.773,270.865,90.057,258.908,87.256"/>
	</g>
</g>
</svg>
