<?xml version="1.0" encoding="utf-8"?>
<!-- Generator: Adobe Illustrator 16.0.0, SVG Export Plug-In . SVG Version: 6.00 Build 0)  -->
<!DOCTYPE svg PUBLIC "-//W3C//DTD SVG 1.1//EN" "http://www.w3.org/Graphics/SVG/1.1/DTD/svg11.dtd">
<svg version="1.1" id="Layer_1" xmlns="http://www.w3.org/2000/svg" xmlns:xlink="http://www.w3.org/1999/xlink" x="0px" y="0px"
	 width="298.919px" height="248.858px" viewBox="0 0 298.919 248.858" enable-background="new 0 0 298.919 248.858"
	 xml:space="preserve">
<g>
	<defs>
		<rect id="SVGID_1_" width="298.919" height="248.858"/>
	</defs>
	<clipPath id="SVGID_2_">
		<use xlink:href="#SVGID_1_"  overflow="visible"/>
	</clipPath>
	<g clip-path="url(#SVGID_2_)">
		<defs>
			<rect id="SVGID_3_" width="298.919" height="248.858"/>
		</defs>
		<clipPath id="SVGID_4_">
			<use xlink:href="#SVGID_3_"  overflow="visible"/>
		</clipPath>
		<g opacity="0.45" clip-path="url(#SVGID_4_)" enable-background="new    ">
			<g>
				<defs>
					<rect id="SVGID_5_" y="26.756" width="298.919" height="152.991"/>
				</defs>
				<clipPath id="SVGID_6_">
					<use xlink:href="#SVGID_5_"  overflow="visible"/>
				</clipPath>
				
					<path clip-path="url(#SVGID_6_)" fill="none" stroke="#C9C9C9" stroke-width="3.045" stroke-linecap="round" stroke-linejoin="round" stroke-miterlimit="4.06" stroke-dasharray="3.045,12.18" d="
					M227.837,178.224c0,0,81.2,0,68.137-55.765C276.09,37.779,140.192,78.673,74.115,107.449
					C4.385,137.828-26.796,56.008,33.749,28.278"/>
			</g>
		</g>
		<g opacity="0.45" clip-path="url(#SVGID_4_)" enable-background="new    ">
			<g>
				<defs>
					<rect id="SVGID_7_" x="33.952" y="211.384" width="260.651" height="37.474"/>
				</defs>
				<clipPath id="SVGID_8_">
					<use xlink:href="#SVGID_7_"  overflow="visible"/>
				</clipPath>
				<path clip-path="url(#SVGID_8_)" fill="#E6E6E6" d="M164.277,211.384c71.979,0,130.326,8.389,130.326,18.736
					c0,10.349-58.348,18.737-130.326,18.737c-71.977,0-130.326-8.389-130.326-18.737C33.952,219.773,92.301,211.384,164.277,211.384
					"/>
			</g>
		</g>
	</g>
	<rect x="196.403" y="214.896" clip-path="url(#SVGID_2_)" fill="#E6E6E6" width="62.869" height="16.555"/>
	<g clip-path="url(#SVGID_2_)">
		<defs>
			<rect id="SVGID_9_" width="298.919" height="248.858"/>
		</defs>
		<clipPath id="SVGID_10_">
			<use xlink:href="#SVGID_9_"  overflow="visible"/>
		</clipPath>
		<g opacity="0.43" clip-path="url(#SVGID_10_)" enable-background="new    ">
			<g>
				<defs>
					<rect id="SVGID_11_" x="182.66" y="198.707" width="62.869" height="16.555"/>
				</defs>
				<clipPath id="SVGID_12_">
					<use xlink:href="#SVGID_11_"  overflow="visible"/>
				</clipPath>
				<rect x="182.659" y="198.707" clip-path="url(#SVGID_12_)" fill="#E6E6E6" width="62.869" height="16.556"/>
			</g>
		</g>
	</g>
	<rect x="89.625" y="8.212" clip-path="url(#SVGID_2_)" fill="#C9C9C9" width="124.469" height="223.239"/>
	<rect x="99.927" y="33.658" clip-path="url(#SVGID_2_)" fill="#FFFFFF" width="103.032" height="157.112"/>
	<g clip-path="url(#SVGID_2_)">
		<defs>
			<rect id="SVGID_13_" width="298.919" height="248.858"/>
		</defs>
		<clipPath id="SVGID_14_">
			<use xlink:href="#SVGID_13_"  overflow="visible"/>
		</clipPath>
		<g opacity="0.56" clip-path="url(#SVGID_14_)" enable-background="new    ">
			<g>
				<defs>
					<rect id="SVGID_15_" x="140.06" y="198.707" width="24.36" height="24.36"/>
				</defs>
				<clipPath id="SVGID_16_">
					<use xlink:href="#SVGID_15_"  overflow="visible"/>
				</clipPath>
				<path clip-path="url(#SVGID_16_)" fill="#FFFFFF" d="M152.24,198.708c6.727,0,12.18,5.452,12.18,12.18
					c0,6.726-5.453,12.179-12.18,12.179c-6.727,0-12.18-5.453-12.18-12.179C140.06,204.16,145.513,198.708,152.24,198.708"/>
			</g>
		</g>
		<g opacity="0.12" clip-path="url(#SVGID_14_)" enable-background="new    ">
			<g>
				<defs>
					<rect id="SVGID_17_" x="141.329" y="16.941" width="34.896" height="5.085"/>
				</defs>
				<clipPath id="SVGID_18_">
					<use xlink:href="#SVGID_17_"  overflow="visible"/>
				</clipPath>
				<rect x="141.329" y="16.941" clip-path="url(#SVGID_18_)" width="34.896" height="5.085"/>
			</g>
		</g>
		<path clip-path="url(#SVGID_14_)" fill="#FFFFFF" d="M128.692,14.352c3.139,0,5.684,2.545,5.684,5.684s-2.545,5.684-5.684,5.684
			c-3.139,0-5.684-2.545-5.684-5.684S125.553,14.352,128.692,14.352"/>
		<rect x="110.666" y="63.184" clip-path="url(#SVGID_14_)" fill="#E6E6E6" width="82.611" height="93.796"/>
		<g opacity="0.12" clip-path="url(#SVGID_14_)" enable-background="new    ">
			<g>
				<defs>
					<rect id="SVGID_19_" x="110.666" y="43.554" width="12.342" height="12.342"/>
				</defs>
				<clipPath id="SVGID_20_">
					<use xlink:href="#SVGID_19_"  overflow="visible"/>
				</clipPath>
				<path clip-path="url(#SVGID_20_)" d="M116.837,43.554c3.408,0,6.171,2.763,6.171,6.171c0,3.409-2.763,6.171-6.171,6.171
					c-3.409,0-6.171-2.762-6.171-6.171C110.666,46.317,113.428,43.554,116.837,43.554"/>
			</g>
		</g>
		<g opacity="0.12" clip-path="url(#SVGID_14_)" enable-background="new    ">
			<g>
				<defs>
					<rect id="SVGID_21_" x="154.656" y="144.708" width="38.621" height="12.262"/>
				</defs>
				<clipPath id="SVGID_22_">
					<use xlink:href="#SVGID_21_"  overflow="visible"/>
				</clipPath>
				<polygon clip-path="url(#SVGID_22_)" points="158.838,144.709 193.276,144.709 193.276,156.97 154.655,156.97 				"/>
			</g>
		</g>
		<rect x="127.738" y="44.975" clip-path="url(#SVGID_14_)" fill="#E6E6E6" width="17.965" height="3.177"/>
		<g opacity="0.56" clip-path="url(#SVGID_14_)" enable-background="new    ">
			<g>
				<defs>
					<rect id="SVGID_23_" x="127.738" y="51.298" width="17.966" height="3.177"/>
				</defs>
				<clipPath id="SVGID_24_">
					<use xlink:href="#SVGID_23_"  overflow="visible"/>
				</clipPath>
				<rect x="127.738" y="51.299" clip-path="url(#SVGID_24_)" fill="#E6E6E6" width="17.965" height="3.177"/>
			</g>
		</g>
		<g opacity="0.58" clip-path="url(#SVGID_14_)" enable-background="new    ">
			<g>
				<defs>
					<rect id="SVGID_25_" x="41.666" y="204.268" width="17.001" height="13.978"/>
				</defs>
				<clipPath id="SVGID_26_">
					<use xlink:href="#SVGID_25_"  overflow="visible"/>
				</clipPath>
				<path clip-path="url(#SVGID_26_)" fill="#EC6952" d="M54.647,217.373c0,0-10.657-2.912-12.981-12.84
					c0,0,16.523-3.34,17.001,13.712L54.647,217.373z"/>
			</g>
		</g>
		<g opacity="0.73" clip-path="url(#SVGID_14_)" enable-background="new    ">
			<g>
				<defs>
					<rect id="SVGID_27_" x="52.365" y="193.52" width="11.112" height="22.817"/>
				</defs>
				<clipPath id="SVGID_28_">
					<use xlink:href="#SVGID_27_"  overflow="visible"/>
				</clipPath>
				<path clip-path="url(#SVGID_28_)" fill="#EC6952" d="M55.958,216.318c0,0-7.45-11.784-0.893-22.798
					c0,0,12.565,7.979,6.983,22.817L55.958,216.318z"/>
			</g>
		</g>
		<path clip-path="url(#SVGID_14_)" fill="#EC6952" d="M57.875,216.328c0,0,3.938-12.444,15.844-14.8c0,0,2.233,8.12-7.704,14.829
			L57.875,216.328z"/>
		<polygon clip-path="url(#SVGID_14_)" fill="#24285B" points="50.141,216.043 52.303,230.831 65.924,230.893 67.934,216.114 		"/>
		<g opacity="0.12" clip-path="url(#SVGID_14_)">
			<g>
				<defs>
					<rect id="SVGID_29_" x="117.367" y="163.517" width="16.713" height="14.728"/>
				</defs>
				<clipPath id="SVGID_30_">
					<use xlink:href="#SVGID_29_"  overflow="visible"/>
				</clipPath>
				<path clip-path="url(#SVGID_30_)" d="M129.625,163.517c-0.895-0.004-1.765,0.296-2.466,0.853
					c-0.593,0.475-1.083,1.065-1.442,1.735c-0.358-0.67-0.848-1.261-1.441-1.735c-0.701-0.557-1.571-0.856-2.466-0.853
					c-2.5,0.046-4.489,2.108-4.443,4.608c0.001,0.064,0.003,0.128,0.007,0.192c0,2.964,2.376,4.994,5.979,8.059l2.029,1.736
					c0.096,0.085,0.218,0.132,0.346,0.132c0.127-0.003,0.248-0.05,0.345-0.132l2.03-1.736c3.593-3.045,5.968-5.075,5.968-8.059
					c0.152-2.495-1.748-4.643-4.244-4.793C129.761,163.521,129.693,163.518,129.625,163.517"/>
			</g>
		</g>
		<rect x="140.253" y="165.364" clip-path="url(#SVGID_14_)" fill="#C9C9C9" width="46.223" height="4.232"/>
		<path clip-path="url(#SVGID_14_)" fill="#EC6952" d="M167.374,156.97c0.416,0,17.315-31.952,17.315-31.952l-6.232-2.538
			l-24.573,34.511L167.374,156.97z"/>
		<g opacity="0.34" clip-path="url(#SVGID_14_)" enable-background="new    ">
			<g>
				<defs>
					<rect id="SVGID_31_" x="140.253" y="172.155" width="46.223" height="4.232"/>
				</defs>
				<clipPath id="SVGID_32_">
					<use xlink:href="#SVGID_31_"  overflow="visible"/>
				</clipPath>
				<rect x="140.253" y="172.154" clip-path="url(#SVGID_32_)" fill="#C9C9C9" width="46.223" height="4.232"/>
			</g>
		</g>
		<path clip-path="url(#SVGID_14_)" fill="#F4A28C" d="M139.299,83.961c0,0,2.152,6.303,2.121,10.86
			c-0.011,1.845-1.515,3.331-3.359,3.32h-0.031c-2.294,0-5.379-0.782-6.942-4.06l-3.36-5.177c-1.146-2.265-0.739-5.006,1.015-6.841
			C131.788,78.582,138.182,80.053,139.299,83.961"/>
		<polygon clip-path="url(#SVGID_14_)" fill="#F4A28C" points="129.088,90.193 125.718,108.26 137.066,113.021 135.218,97.268 		"/>
		<path clip-path="url(#SVGID_14_)" fill="#F4A28C" d="M140.446,88l2.416,2.03c0.45,0.379,0.509,1.051,0.131,1.502
			c-0.102,0.121-0.231,0.218-0.375,0.284l-2.365,1.147L140.446,88z"/>
		<g opacity="0.31" clip-path="url(#SVGID_14_)" enable-background="new    ">
			<g>
				<defs>
					<rect id="SVGID_33_" x="131.45" y="95.4" width="4.357" height="6.821"/>
				</defs>
				<clipPath id="SVGID_34_">
					<use xlink:href="#SVGID_33_"  overflow="visible"/>
				</clipPath>
				<path clip-path="url(#SVGID_34_)" fill="#CE8172" d="M135.27,97.714c-1.416-0.422-2.689-1.222-3.685-2.314
					c0,0-1.309,4.598,4.223,6.82L135.27,97.714z"/>
			</g>
		</g>
		<path clip-path="url(#SVGID_14_)" fill="#24285B" d="M129.413,93.776c0,0,3.664,5.633,6.983,5.705
			c3.319,0.07,7.897-0.63,6.09-5.827c-1.127-3.237-4.608-1.106-8.79,0.873c0,0-3.045-3.624-3.38-6.334c0,0,2.68-1.217,1.726-3.643
			c0,0,7.257,1.959,7.734-1.908c0.477-3.867-0.284-5.826-3.593-6.344c-3.309-0.518-11.5,2.385-12.667,6.679
			C122.349,87.27,129.413,93.776,129.413,93.776"/>
		<path clip-path="url(#SVGID_14_)" fill="#F4A28C" d="M129.758,92.72c0.028-1.112-0.583-2.142-1.573-2.649
			c-0.699-0.363-1.548-0.262-2.142,0.254c-1.908,1.532,0.69,5.43,3.705,4.009L129.758,92.72z"/>
		<path clip-path="url(#SVGID_14_)" fill="#E59383" d="M184.689,125.018c0,0,4.618-9.592-1.015-11.998
			c-5.633-2.406-3.948,9.734-3.948,9.734L184.689,125.018z"/>
		<path clip-path="url(#SVGID_14_)" fill="#EC6952" d="M110.666,107.621c0,0,23.172-1.908,38.174,8.181
			c15.002,10.089,9.267,41.167,9.267,41.167h-47.44V107.621z"/>
		<g opacity="0.12" clip-path="url(#SVGID_14_)" enable-background="new    ">
			<g>
				<defs>
					<rect id="SVGID_35_" x="119.752" y="110.696" width="64.938" height="46.274"/>
				</defs>
				<clipPath id="SVGID_36_">
					<use xlink:href="#SVGID_35_"  overflow="visible"/>
				</clipPath>
				<path clip-path="url(#SVGID_36_)" d="M120.389,110.696c0,0,10.993,4.426,11.683,16.829c0.69,12.403,3.045,25.09,14.453,25.09
					c11.409,0,36.683-27.901,36.683-27.901l1.481,0.304l-17.315,31.952h-31.08C136.294,156.97,115.934,157.254,120.389,110.696"/>
			</g>
		</g>
		<polygon clip-path="url(#SVGID_14_)" fill="#EC6952" points="143.409,150.88 172.794,124.713 178.609,131.068 158.26,156.97 
			136.294,156.97 		"/>
		<g opacity="0.46" clip-path="url(#SVGID_14_)" enable-background="new    ">
			<g>
				<defs>
					<rect id="SVGID_37_" x="136.294" y="124.713" width="42.316" height="32.257"/>
				</defs>
				<clipPath id="SVGID_38_">
					<use xlink:href="#SVGID_37_"  overflow="visible"/>
				</clipPath>
				<polygon clip-path="url(#SVGID_38_)" fill="#FFFFFF" points="143.409,150.88 172.794,124.713 178.609,131.068 158.26,156.97 
					136.294,156.97 				"/>
			</g>
		</g>
		<path clip-path="url(#SVGID_14_)" fill="#F4A28C" d="M173.697,125.698c0,0,2.385-5.379,4.912-5.867
			c2.527-0.487,9.328,3.461-0.751,10.424L173.697,125.698z"/>
		<path clip-path="url(#SVGID_14_)" fill="#FFFFFF" d="M122.125,107.752c0,0,1.238-4.567,7.633-3.542
			c6.394,1.025,10.373,1.472,10.495,7.277L122.125,107.752z"/>
		<path clip-path="url(#SVGID_14_)" fill="#FFD200" d="M181.035,114.837l-1.867,0.081v-1.086l1.857-0.081
			c1.121-0.051,1.989-1,1.939-2.122c-0.052-1.121-1-1.989-2.121-1.938l-1.858,0.081v-1.086l1.858-0.081
			c1.726-0.139,3.237,1.149,3.377,2.875c0.138,1.727-1.149,3.239-2.875,3.378c-0.077,0.005-0.153,0.009-0.229,0.009L181.035,114.837
			z"/>
		<g opacity="0.46" clip-path="url(#SVGID_14_)" enable-background="new    ">
			<g>
				<defs>
					<rect id="SVGID_39_" x="178.985" y="108.595" width="5.245" height="6.324"/>
				</defs>
				<clipPath id="SVGID_40_">
					<use xlink:href="#SVGID_39_"  overflow="visible"/>
				</clipPath>
				<path clip-path="url(#SVGID_40_)" fill="#FFFFFF" d="M181.035,114.837l-1.867,0.081v-1.086l1.857-0.081
					c1.121-0.051,1.989-1,1.939-2.122c-0.052-1.121-1-1.989-2.121-1.938l-1.858,0.081v-1.086l1.858-0.081
					c1.726-0.139,3.237,1.149,3.377,2.875c0.138,1.727-1.149,3.239-2.875,3.378c-0.077,0.005-0.153,0.009-0.229,0.009
					L181.035,114.837z"/>
			</g>
		</g>
		<polygon clip-path="url(#SVGID_14_)" fill="#FFD200" points="179.492,116.197 172.956,116.481 170.571,106.484 180.649,106.047 		
			"/>
		<polygon clip-path="url(#SVGID_14_)" fill="#FFD200" points="168.673,116.481 184.69,116.481 181.899,119.832 171.738,119.832 		
			"/>
		<g opacity="0.31" clip-path="url(#SVGID_14_)" enable-background="new    ">
			<g>
				<defs>
					<rect id="SVGID_41_" x="168.673" y="116.482" width="16.018" height="3.349"/>
				</defs>
				<clipPath id="SVGID_42_">
					<use xlink:href="#SVGID_41_"  overflow="visible"/>
				</clipPath>
				<polygon clip-path="url(#SVGID_42_)" fill="#CE8172" points="168.673,116.481 184.69,116.481 181.899,119.832 171.738,119.832 
									"/>
			</g>
		</g>
		<g opacity="0.54" clip-path="url(#SVGID_14_)" enable-background="new    ">
			<g>
				<defs>
					<rect id="SVGID_43_" x="146.526" y="88.162" width="34.216" height="21.38"/>
				</defs>
				<clipPath id="SVGID_44_">
					<use xlink:href="#SVGID_43_"  overflow="visible"/>
				</clipPath>
				<path clip-path="url(#SVGID_44_)" fill="#FFFFFF" d="M179.554,106.098c0,0,3.299-5.907-1.097-7.542
					c-4.395-1.634-7.104,3.157-8.83-3.156c-1.725-6.313-4.973-8.293-11.114-6.73c-6.141,1.563-0.477,9.44-7.358,10.15
					c-6.882,0.711-5.501,10.922,0.283,10.719c5.786-0.203,10.15-11.064,12.466-7.308c2.313,3.755,7.561,4.222,7.561,4.222
					L179.554,106.098z"/>
			</g>
		</g>
		<path clip-path="url(#SVGID_14_)" fill="#EC6952" d="M110.666,107.621c0,0,12.809-1.634,14.038,13.195
			c1.228,14.829-3.543,31.628,11.591,36.124h-25.629V107.621z"/>
		<g opacity="0.46" clip-path="url(#SVGID_14_)" enable-background="new    ">
			<g>
				<defs>
					<rect id="SVGID_45_" x="110.666" y="107.567" width="25.628" height="49.373"/>
				</defs>
				<clipPath id="SVGID_46_">
					<use xlink:href="#SVGID_45_"  overflow="visible"/>
				</clipPath>
				<path clip-path="url(#SVGID_46_)" fill="#FFFFFF" d="M110.666,107.621c0,0,12.809-1.634,14.038,13.195
					c1.228,14.829-3.543,31.628,11.591,36.124h-25.629V107.621z"/>
			</g>
		</g>
		<polygon clip-path="url(#SVGID_14_)" fill="#FFD200" points="24.137,23.771 10.455,15.793 65.671,9.643 40.418,46.985 
			31.425,27.761 		"/>
		<polygon clip-path="url(#SVGID_14_)" fill="#FFD200" points="24.137,23.771 27.953,37.718 31.425,27.761 65.671,9.643 		"/>
		<g opacity="0.46" clip-path="url(#SVGID_14_)" enable-background="new    ">
			<g>
				<defs>
					<rect id="SVGID_47_" x="24.137" y="9.643" width="41.534" height="28.075"/>
				</defs>
				<clipPath id="SVGID_48_">
					<use xlink:href="#SVGID_47_"  overflow="visible"/>
				</clipPath>
				<polygon clip-path="url(#SVGID_48_)" fill="#FFFFFF" points="24.137,23.771 27.953,37.718 31.425,27.761 65.671,9.643 				"/>
			</g>
		</g>
		<polygon clip-path="url(#SVGID_14_)" fill="#24285B" points="27.953,37.718 34.053,33.384 31.424,27.76 		"/>
		<rect x="189.084" clip-path="url(#SVGID_14_)" fill="#24285B" width="74.096" height="44.062"/>
		<g opacity="0.12" clip-path="url(#SVGID_14_)" enable-background="new    ">
			<g>
				<defs>
					<rect id="SVGID_49_" x="189.085" y="44.051" width="25.019" height="8.831"/>
				</defs>
				<clipPath id="SVGID_50_">
					<use xlink:href="#SVGID_49_"  overflow="visible"/>
				</clipPath>
				<rect x="189.084" y="44.051" clip-path="url(#SVGID_50_)" width="25.021" height="8.831"/>
			</g>
		</g>
		<path clip-path="url(#SVGID_14_)" fill="#EC6952" d="M216.235,13.611c-1.181-0.006-2.329,0.388-3.258,1.116
			c-0.778,0.628-1.424,1.405-1.897,2.284c-0.472-0.882-1.117-1.659-1.898-2.284c-0.925-0.727-2.07-1.12-3.248-1.116
			c-3.329,0-5.837,2.72-5.837,6.323c0,3.898,3.127,6.568,7.868,10.607c0.801,0.69,1.714,1.462,2.668,2.294
			c0.124,0.11,0.282,0.172,0.447,0.172c0.169,0,0.33-0.061,0.456-0.172c0.944-0.832,1.857-1.604,2.659-2.294
			c4.74-4.06,7.877-6.709,7.877-10.607C222.124,16.332,219.555,13.611,216.235,13.611"/>
		<path clip-path="url(#SVGID_14_)" fill="#FFFFFF" d="M231.045,26.339c0.138,1.078,1.099,1.856,2.182,1.766
			c1.584,0,2.273-1.188,2.273-4.354c-0.729,0.882-1.83,1.371-2.974,1.319c-2.295,0.132-4.261-1.622-4.392-3.916
			c-0.013-0.197-0.01-0.394,0.008-0.591c-0.166-2.416,1.658-4.508,4.073-4.674c0.226-0.016,0.451-0.014,0.677,0.006
			c3.827,0,5.003,2.588,5.003,7.043c0,4.792-1.065,7.38-4.791,7.38c-2.304,0.215-4.348-1.479-4.563-3.784
			c-0.006-0.065-0.011-0.13-0.014-0.195H231.045z M235.247,20.584c0.143-1.174-0.693-2.242-1.869-2.384
			c-0.128-0.015-0.256-0.019-0.385-0.012c-1.29,0.107-2.25,1.24-2.143,2.53c0.096,1.178,1.054,2.098,2.234,2.15
			c1.118,0.082,2.092-0.758,2.173-1.876C235.269,20.855,235.265,20.72,235.247,20.584"/>
		<path clip-path="url(#SVGID_14_)" fill="#FFFFFF" d="M243.123,26.339c0.138,1.078,1.101,1.856,2.184,1.766
			c1.583,0,2.282-1.188,2.282-4.354c-0.729,0.881-1.831,1.369-2.974,1.319c-2.295,0.132-4.261-1.622-4.393-3.916
			c-0.012-0.197-0.009-0.394,0.009-0.591c-0.167-2.416,1.658-4.508,4.074-4.674c0.224-0.016,0.45-0.014,0.676,0.006
			c3.826,0,5.003,2.588,5.003,7.043c0,4.792-1.065,7.38-4.791,7.38c-2.304,0.215-4.349-1.479-4.563-3.784
			c-0.007-0.065-0.011-0.13-0.014-0.195H243.123z M247.335,20.584c-0.012-1.25-1.035-2.253-2.285-2.241
			c-1.25,0.012-2.254,1.036-2.24,2.286c0.012,1.25,1.035,2.253,2.285,2.241c0.026,0,0.053-0.001,0.078-0.002
			c1.118,0.082,2.093-0.758,2.175-1.876C247.356,20.855,247.354,20.72,247.335,20.584"/>
	</g>
</g>
</svg>
