<?xml version="1.0" encoding="utf-8"?>
<!-- Generator: Adobe Illustrator 16.0.0, SVG Export Plug-In . SVG Version: 6.00 Build 0)  -->
<!DOCTYPE svg PUBLIC "-//W3C//DTD SVG 1.1//EN" "http://www.w3.org/Graphics/SVG/1.1/DTD/svg11.dtd">
<svg version="1.1" id="Layer_1" xmlns="http://www.w3.org/2000/svg" xmlns:xlink="http://www.w3.org/1999/xlink" x="0px" y="0px"
	 width="310.854px" height="242.524px" viewBox="0 0 310.854 242.524" enable-background="new 0 0 310.854 242.524"
	 xml:space="preserve">
<g>
	<defs>
		<rect id="SVGID_1_" width="310.854" height="242.524"/>
	</defs>
	<clipPath id="SVGID_2_">
		<use xlink:href="#SVGID_1_"  overflow="visible"/>
	</clipPath>
	<g clip-path="url(#SVGID_2_)">
		<defs>
			<rect id="SVGID_3_" width="310.854" height="242.524"/>
		</defs>
		<clipPath id="SVGID_4_">
			<use xlink:href="#SVGID_3_"  overflow="visible"/>
		</clipPath>
		<path clip-path="url(#SVGID_4_)" fill="#F4A28C" d="M250.146,168.602c0,0,19.609,31.262,40.895,36.306l3.167-5.369
			c0,0-21.64-18.026-29.182-43.767L250.146,168.602z"/>
		<path clip-path="url(#SVGID_4_)" fill="#EC6952" d="M291.021,204.908c0,0,3.734,11.724,6.628,10.658
			c2.893-1.066-1.491-10.698-1.491-10.698s5.307-4.202-1.97-5.329L291.021,204.908z"/>
		<rect y="15.306" clip-path="url(#SVGID_4_)" fill="#E6E6E6" width="248.706" height="177.382"/>
		<g opacity="0.08" clip-path="url(#SVGID_4_)" enable-background="new    ">
			<g>
				<defs>
					<rect id="SVGID_5_" x="146.595" y="55.906" width="96.447" height="136.813"/>
				</defs>
				<clipPath id="SVGID_6_">
					<use xlink:href="#SVGID_5_"  overflow="visible"/>
				</clipPath>
				<path clip-path="url(#SVGID_6_)" d="M205.284,55.906c0,0-10.76,3.045-7.947,13.104c2.812,10.058,18.27,34.205,18.27,34.205
					s-3.675,19.559-9.136,21.902c-5.46,2.346-50.04-9.824-50.04-9.824s-4.181-3.502-8.12-0.934
					c-3.938,2.567-0.638,8.871,5.207,12.038c5.329,2.872,12.008,23.883,39.647,26.552c5.339,0.471,9.842,4.171,11.337,9.318
					l8.637,30.45h29.903l-4.72-22.117l2.994-70.035l-8.313-18.006L205.284,55.906z"/>
			</g>
		</g>
		<path clip-path="url(#SVGID_4_)" fill="#F4A28C" d="M215.14,98.231c0,0-3.126,27.862-27.405,24.512
			c-24.279-3.349-24.969-9.642-30.095-14.21c-5.126-4.567-10.769-0.142-7.104,1.188c5.369,1.928,2.578,6.303-0.64,5.075
			s-1.451,7.104,6.455,6.161c4.304-0.507,27.06,33.779,66.046,9.846L215.14,98.231z"/>
		<g opacity="0.45" clip-path="url(#SVGID_4_)" enable-background="new    ">
			<g>
				<defs>
					<rect id="SVGID_7_" x="171.616" y="219.321" width="139.237" height="23.203"/>
				</defs>
				<clipPath id="SVGID_8_">
					<use xlink:href="#SVGID_7_"  overflow="visible"/>
				</clipPath>
				<path clip-path="url(#SVGID_8_)" fill="#E6E6E6" d="M241.235,219.321c38.449,0,69.619,5.193,69.619,11.602
					c0,6.407-31.17,11.602-69.619,11.602s-69.619-5.194-69.619-11.602C171.616,224.514,202.786,219.321,241.235,219.321"/>
			</g>
		</g>
		<g opacity="0.08" clip-path="url(#SVGID_4_)" enable-background="new    ">
			<g>
				<defs>
					<rect id="SVGID_9_" x="214.49" y="15.306" width="33.962" height="26.745"/>
				</defs>
				<clipPath id="SVGID_10_">
					<use xlink:href="#SVGID_9_"  overflow="visible"/>
				</clipPath>
				<rect x="214.49" y="15.306" clip-path="url(#SVGID_10_)" width="33.962" height="26.745"/>
			</g>
		</g>
		<rect x="214.49" clip-path="url(#SVGID_4_)" fill="#F2F2F2" width="57.032" height="34.774"/>
		<path clip-path="url(#SVGID_4_)" fill="#FFD200" d="M212.531,71.314c0,0-7.339,15.499,3.855,17.935
			c11.196,2.436,11.998-8.973,11.998-8.973L212.531,71.314z"/>
		<g opacity="0.08" clip-path="url(#SVGID_4_)" enable-background="new    ">
			<g>
				<defs>
					<rect id="SVGID_11_" x="210.169" y="71.314" width="18.216" height="17.935"/>
				</defs>
				<clipPath id="SVGID_12_">
					<use xlink:href="#SVGID_11_"  overflow="visible"/>
				</clipPath>
				<path clip-path="url(#SVGID_12_)" d="M228.386,80.276l-15.854-8.962c0,0-7.339,15.499,3.856,17.935"/>
			</g>
		</g>
		<path clip-path="url(#SVGID_4_)" fill="#F4A28C" d="M208.318,62.524c0,0-0.213,6.618,1.137,10.942
			c0.551,1.754,2.421,2.729,4.175,2.178l0.018-0.006c2.172-0.711,4.893-2.304,5.44-5.837l1.654-5.886
			c0.43-2.488-0.758-4.975-2.964-6.202C213.901,55.236,208.248,58.474,208.318,62.524"/>
		<polygon clip-path="url(#SVGID_4_)" fill="#F4A28C" points="219.839,65.488 230.091,85.138 218.875,89.522 216.063,73.994 		"/>
		<path clip-path="url(#SVGID_4_)" fill="#F4A28C" d="M215.637,67.782c0,0-0.091-2.558,1.827-2.466
			c1.918,0.091,2.081,3.775-0.497,4.262L215.637,67.782z"/>
		<path clip-path="url(#SVGID_4_)" fill="#F4A28C" d="M208.4,66.696l-1.706,2.649c-0.314,0.504-0.16,1.168,0.345,1.482
			c0.127,0.079,0.269,0.131,0.417,0.152l2.558,0.335L208.4,66.696z"/>
		<g opacity="0.31" clip-path="url(#SVGID_4_)" enable-background="new    ">
			<g>
				<defs>
					<rect id="SVGID_13_" x="216.144" y="71.162" width="3.562" height="7.714"/>
				</defs>
				<clipPath id="SVGID_14_">
					<use xlink:href="#SVGID_13_"  overflow="visible"/>
				</clipPath>
				<path clip-path="url(#SVGID_14_)" fill="#CE8172" d="M216.145,74.43c1.226-0.812,2.208-1.941,2.842-3.268
					c0,0,2.578,3.999-2.03,7.714L216.145,74.43z"/>
			</g>
		</g>
		<path clip-path="url(#SVGID_4_)" fill="#F4A28C" d="M237.073,166.978c0,0,7.521,36.134,25.729,48.253l4.832-3.939
			c0,0-14.026-24.359-12.18-51.176L237.073,166.978z"/>
		<path clip-path="url(#SVGID_4_)" fill="#24285B" d="M16.92,25.73c2.5,0,4.527,2.027,4.527,4.527s-2.027,4.527-4.527,4.527
			s-4.527-2.027-4.527-4.527S14.42,25.73,16.92,25.73"/>
		<path clip-path="url(#SVGID_4_)" fill="#EC6952" d="M30.389,25.73c2.5,0,4.527,2.027,4.527,4.527s-2.027,4.527-4.527,4.527
			s-4.527-2.027-4.527-4.527S27.889,25.73,30.389,25.73"/>
		<path clip-path="url(#SVGID_4_)" fill="#FFD200" d="M43.077,25.73c2.5,0,4.527,2.027,4.527,4.527s-2.027,4.527-4.527,4.527
			s-4.527-2.027-4.527-4.527S40.577,25.73,43.077,25.73"/>
		<g opacity="0.58" clip-path="url(#SVGID_4_)" enable-background="new    ">
			<g>
				<defs>
					<rect id="SVGID_15_" x="190.201" y="205.397" width="17.255" height="14.127"/>
				</defs>
				<clipPath id="SVGID_16_">
					<use xlink:href="#SVGID_15_"  overflow="visible"/>
				</clipPath>
				<path clip-path="url(#SVGID_16_)" fill="#EC6952" d="M203.396,218.651c0,0-10.841-2.913-13.195-12.972
					c0,0,16.758-3.462,17.255,13.845L203.396,218.651z"/>
			</g>
		</g>
		<g opacity="0.73" clip-path="url(#SVGID_4_)" enable-background="new    ">
			<g>
				<defs>
					<rect id="SVGID_17_" x="201.01" y="194.443" width="11.296" height="23.133"/>
				</defs>
				<clipPath id="SVGID_18_">
					<use xlink:href="#SVGID_17_"  overflow="visible"/>
				</clipPath>
				<path clip-path="url(#SVGID_18_)" fill="#EC6952" d="M204.716,217.576c0,0-7.613-11.927-1.017-23.132
					c0,0,12.789,8.038,7.188,23.132H204.716z"/>
			</g>
		</g>
		<path clip-path="url(#SVGID_4_)" fill="#EC6952" d="M206.664,217.576c0,0,3.938-12.647,16.007-15.094
			c0,0,2.304,8.191-7.755,15.094H206.664z"/>
		<polygon clip-path="url(#SVGID_4_)" fill="#24285B" points="198.809,217.322 201.071,232.324 214.886,232.324 216.865,217.322 		
			"/>
		<path clip-path="url(#SVGID_4_)" fill="#EC6952" d="M236.86,83.565c0,0,13.033,4.212,17.985,16.067
			c4.953,11.856,6.831,45.777,6.831,45.777l-28.704,6.272l-12.413-12.018c-9.887-9.588-12.818-24.288-7.369-36.936l5.685-13.195
			C218.875,89.533,224.944,85.828,236.86,83.565"/>
		<path clip-path="url(#SVGID_4_)" fill="#FFFFFF" d="M222.428,83.656c0,0-8.853,2.466-5.126,9.531
			c3.725,7.064,19.559-9.622,19.559-9.622L222.428,83.656z"/>
		<path clip-path="url(#SVGID_4_)" fill="#FFD200" d="M205.934,59.165c0,0,1.949,5.694,11.165,4.334c0,0,0.78,24.045,11.488,23.243
			c10.71-0.802,11.165-7.105,8.02-13.56c-3.147-6.455-9.713-9.581-9.592-15.174c0.122-5.593-4.061-9.034-9.136-9.825
			C212.805,47.391,202.574,49.044,205.934,59.165"/>
		<g opacity="0.08" clip-path="url(#SVGID_4_)" enable-background="new    ">
			<g>
				<defs>
					<rect id="SVGID_19_" x="226.823" y="103.215" width="38.001" height="48.426"/>
				</defs>
				<clipPath id="SVGID_20_">
					<use xlink:href="#SVGID_19_"  overflow="visible"/>
				</clipPath>
				<path clip-path="url(#SVGID_20_)" d="M228.527,103.215c0,0-6.719,13.246,6.525,21.314c13.246,8.069,20.159,16.342-2.08,27.111
					l23.447-5.075l8.404-15.591v-12.261L228.527,103.215z"/>
			</g>
		</g>
		<path clip-path="url(#SVGID_4_)" fill="#24285B" d="M261.678,145.409c0,0,5.755,4.061,7.673,14.707s10.515,18.077,10.515,18.077
			s-12.626,13.326-36.001,17.528c-6.659-13.76-10.368-28.761-10.892-44.041L261.678,145.409z"/>
		<path clip-path="url(#SVGID_4_)" fill="#F4A28C" d="M228.467,100.455c0.832-6.76,8.12-10.779,14.423-8.283
			c8.452,3.362,16.235,8.209,22.979,14.312c15.693,14.21,11.633,34.246-15.224,54.881l-4.162-5.725c0,0,23.224-27.893,7.105-35.597
			C241.225,114.116,227.229,110.412,228.467,100.455"/>
		
			<rect x="246.422" y="152.227" transform="matrix(-0.8091 0.5876 -0.5876 -0.8091 542.6332 138.2953)" clip-path="url(#SVGID_4_)" fill="#EC6952" width="4.871" height="10.089"/>
		
			<rect x="219.257" y="145.004" transform="matrix(-0.9537 0.3007 -0.3007 -0.9537 501.4226 247.76)" clip-path="url(#SVGID_4_)" fill="#FFD200" width="24.777" height="34.925"/>
		
			<rect x="246.422" y="152.227" transform="matrix(-0.8091 0.5876 -0.5876 -0.8091 542.6332 138.2953)" clip-path="url(#SVGID_4_)" fill="#EC6952" width="4.871" height="10.089"/>
		<g opacity="0.08" clip-path="url(#SVGID_4_)" enable-background="new    ">
			<g>
				<defs>
					<rect id="SVGID_21_" x="223.523" y="162.705" width="25.182" height="20.127"/>
				</defs>
				<clipPath id="SVGID_22_">
					<use xlink:href="#SVGID_21_"  overflow="visible"/>
				</clipPath>
				<path clip-path="url(#SVGID_22_)" d="M237.073,162.705c0,0,3.299,12.899-13.55,15.225l1.553,4.902l23.63-7.46l-3.34-10.566
					L237.073,162.705z"/>
			</g>
		</g>
		<path clip-path="url(#SVGID_4_)" fill="#EC6952" d="M262.804,215.231c0,0-0.568,12.302,2.518,12.302s2.314-10.557,2.314-10.557
			s6.435-2.101,0-5.684L262.804,215.231z"/>
		<path clip-path="url(#SVGID_4_)" fill="#F4A28C" d="M244.879,155.934c0,0-7.693,1.32-7.998,5.156
			c-0.305,3.837,4.953,8.272,12.271,0.74L244.879,155.934z"/>
		<path clip-path="url(#SVGID_4_)" fill="#FFFFFF" d="M72.319,158.837c-27.423-0.005-49.65-22.239-49.646-49.662
			c0.005-27.423,22.239-49.65,49.663-49.646c27.422,0.005,49.65,22.239,49.645,49.662c-0.002,11.321-3.872,22.302-10.97,31.123
			l-14.21-11.46c4.513-5.563,6.962-12.517,6.933-19.681c0-17.338-14.056-31.394-31.394-31.394
			c-17.339,0-31.395,14.056-31.395,31.394c0,17.339,14.056,31.393,31.395,31.393L72.319,158.837z"/>
		<path clip-path="url(#SVGID_4_)" fill="#EC6952" d="M121.983,109.173h-18.27c-0.045-17.318-14.076-31.345-31.394-31.384v-18.27
			C99.728,59.558,121.938,81.765,121.983,109.173"/>
		<path clip-path="url(#SVGID_4_)" fill="#24285B" d="M72.299,158.837v-18.271c8.457,0.032,16.562-3.38,22.452-9.448
			c0.182-0.183,0.355-0.365,0.527-0.559c5.421-5.8,8.43-13.447,8.415-21.386h18.27c0.017,12.561-4.744,24.659-13.317,33.84
			c-0.274,0.304-0.558,0.598-0.832,0.884C98.492,153.487,85.674,158.881,72.299,158.837"/>
		<path clip-path="url(#SVGID_4_)" fill="#FFD200" d="M72.248,158.837v-18.271c8.457,0.032,16.562-3.38,22.452-9.448l0.527-0.549
			l13.378,12.444l-0.842,0.884C98.441,153.487,85.623,158.881,72.248,158.837"/>
		<g opacity="0.79" clip-path="url(#SVGID_4_)" enable-background="new    ">
			<g>
				<defs>
					<rect id="SVGID_23_" x="137.461" y="60.798" width="9.815" height="8.151"/>
				</defs>
				<clipPath id="SVGID_24_">
					<use xlink:href="#SVGID_23_"  overflow="visible"/>
				</clipPath>
				<rect x="137.461" y="60.798" clip-path="url(#SVGID_24_)" fill="#A5A5A5" width="9.815" height="8.15"/>
			</g>
		</g>
		<g opacity="0.45" clip-path="url(#SVGID_4_)" enable-background="new    ">
			<g>
				<defs>
					<rect id="SVGID_25_" x="137.461" y="73.993" width="9.815" height="8.151"/>
				</defs>
				<clipPath id="SVGID_26_">
					<use xlink:href="#SVGID_25_"  overflow="visible"/>
				</clipPath>
				<rect x="137.461" y="73.994" clip-path="url(#SVGID_26_)" fill="#A5A5A5" width="9.815" height="8.15"/>
			</g>
		</g>
		<g opacity="0.34" clip-path="url(#SVGID_4_)" enable-background="new    ">
			<g>
				<defs>
					<rect id="SVGID_27_" x="137.461" y="87.188" width="9.815" height="8.151"/>
				</defs>
				<clipPath id="SVGID_28_">
					<use xlink:href="#SVGID_27_"  overflow="visible"/>
				</clipPath>
				<rect x="137.461" y="87.188" clip-path="url(#SVGID_28_)" fill="#A5A5A5" width="9.815" height="8.15"/>
			</g>
		</g>
		<g opacity="0.79" clip-path="url(#SVGID_4_)" enable-background="new    ">
			<g>
				<defs>
					<rect id="SVGID_29_" x="156.249" y="60.798" width="29.303" height="8.151"/>
				</defs>
				<clipPath id="SVGID_30_">
					<use xlink:href="#SVGID_29_"  overflow="visible"/>
				</clipPath>
				<rect x="156.249" y="60.798" clip-path="url(#SVGID_30_)" fill="#A5A5A5" width="29.304" height="8.15"/>
			</g>
		</g>
		<g opacity="0.45" clip-path="url(#SVGID_4_)" enable-background="new    ">
			<g>
				<defs>
					<rect id="SVGID_31_" x="156.249" y="73.993" width="29.303" height="8.151"/>
				</defs>
				<clipPath id="SVGID_32_">
					<use xlink:href="#SVGID_31_"  overflow="visible"/>
				</clipPath>
				<rect x="156.249" y="73.994" clip-path="url(#SVGID_32_)" fill="#A5A5A5" width="29.304" height="8.15"/>
			</g>
		</g>
		<g opacity="0.34" clip-path="url(#SVGID_4_)" enable-background="new    ">
			<g>
				<defs>
					<rect id="SVGID_33_" x="156.249" y="87.188" width="29.303" height="8.151"/>
				</defs>
				<clipPath id="SVGID_34_">
					<use xlink:href="#SVGID_33_"  overflow="visible"/>
				</clipPath>
				<rect x="156.249" y="87.188" clip-path="url(#SVGID_34_)" fill="#A5A5A5" width="29.304" height="8.15"/>
			</g>
		</g>
		<g opacity="0.34" clip-path="url(#SVGID_4_)" enable-background="new    ">
			<g>
				<defs>
					<rect id="SVGID_35_" x="57.601" y="170.571" width="29.303" height="8.15"/>
				</defs>
				<clipPath id="SVGID_36_">
					<use xlink:href="#SVGID_35_"  overflow="visible"/>
				</clipPath>
				<rect x="57.601" y="170.571" clip-path="url(#SVGID_36_)" fill="#A5A5A5" width="29.303" height="8.15"/>
			</g>
		</g>
		<path clip-path="url(#SVGID_4_)" fill="#A5A5A5" d="M70.938,121.039h-0.091c-1.051-0.033-2.01-0.604-2.538-1.512l-5.937-10.292
			c-0.903-1.42-0.484-3.301,0.936-4.204c1.419-0.902,3.301-0.483,4.203,0.937c0.046,0.072,0.089,0.146,0.128,0.222l3.532,6.09
			l9.785-14.606c0.934-1.402,2.826-1.781,4.228-0.848c1.401,0.934,1.78,2.826,0.847,4.228l-12.485,18.666
			C72.959,120.575,71.976,121.072,70.938,121.039"/>
		<g opacity="0.79" clip-path="url(#SVGID_4_)" enable-background="new    ">
			<g>
				<defs>
					<rect id="SVGID_37_" x="228.152" y="16.524" width="6.688" height="9.815"/>
				</defs>
				<clipPath id="SVGID_38_">
					<use xlink:href="#SVGID_37_"  overflow="visible"/>
				</clipPath>
				<rect x="228.151" y="16.524" clip-path="url(#SVGID_38_)" fill="#A5A5A5" width="6.688" height="9.815"/>
			</g>
		</g>
		<g opacity="0.31" clip-path="url(#SVGID_4_)" enable-background="new    ">
			<g>
				<defs>
					<rect id="SVGID_39_" x="240.9" y="10.566" width="6.688" height="15.773"/>
				</defs>
				<clipPath id="SVGID_40_">
					<use xlink:href="#SVGID_39_"  overflow="visible"/>
				</clipPath>
				<rect x="240.9" y="10.566" clip-path="url(#SVGID_40_)" fill="#A5A5A5" width="6.688" height="15.773"/>
			</g>
		</g>
		<g opacity="0.19" clip-path="url(#SVGID_4_)" enable-background="new    ">
			<g>
				<defs>
					<rect id="SVGID_41_" x="252.552" y="20.503" width="6.689" height="5.826"/>
				</defs>
				<clipPath id="SVGID_42_">
					<use xlink:href="#SVGID_41_"  overflow="visible"/>
				</clipPath>
				<rect x="252.553" y="20.503" clip-path="url(#SVGID_42_)" fill="#A5A5A5" width="6.688" height="5.826"/>
			</g>
		</g>
	</g>
</g>
</svg>
