<?xml version="1.0" encoding="utf-8"?>
<!-- Generator: Adobe Illustrator 16.0.0, SVG Export Plug-In . SVG Version: 6.00 Build 0)  -->
<!DOCTYPE svg PUBLIC "-//W3C//DTD SVG 1.1//EN" "http://www.w3.org/Graphics/SVG/1.1/DTD/svg11.dtd">
<svg version="1.1" id="Layer_1" xmlns="http://www.w3.org/2000/svg" xmlns:xlink="http://www.w3.org/1999/xlink" x="0px" y="0px"
	 width="341.803px" height="245.376px" viewBox="0 0 341.803 245.376" enable-background="new 0 0 341.803 245.376"
	 xml:space="preserve">
<g>
	<defs>
		<rect id="SVGID_1_" width="341.803" height="245.376"/>
	</defs>
	<clipPath id="SVGID_2_">
		<use xlink:href="#SVGID_1_"  overflow="visible"/>
	</clipPath>
	<g clip-path="url(#SVGID_2_)">
		<defs>
			<rect id="SVGID_3_" width="341.803" height="245.376"/>
		</defs>
		<clipPath id="SVGID_4_">
			<use xlink:href="#SVGID_3_"  overflow="visible"/>
		</clipPath>
		<g opacity="0.3" clip-path="url(#SVGID_4_)" enable-background="new    ">
			<g>
				<defs>
					<rect id="SVGID_5_" y="1.418" width="341.803" height="220.095"/>
				</defs>
				<clipPath id="SVGID_6_">
					<use xlink:href="#SVGID_5_"  overflow="visible"/>
				</clipPath>
				<path clip-path="url(#SVGID_6_)" fill="#E6E6E6" d="M270.886,16.433c35.759,12.251,69.822,45.837,70.857,89.198
					c1.035,43.362-10.811,87.533-75.962,104.656c-61.195,16.088-206.522,21.956-245.205-31.991
					c-36.54-50.811-24.919-133.3,38.905-159.681C104.213,0.122,201.044-7.471,270.886,16.433"/>
			</g>
		</g>
		<g opacity="0.49" clip-path="url(#SVGID_4_)" enable-background="new    ">
			<g>
				<defs>
					<rect id="SVGID_7_" x="254.464" y="31.469" width="46.709" height="31.852"/>
				</defs>
				<clipPath id="SVGID_8_">
					<use xlink:href="#SVGID_7_"  overflow="visible"/>
				</clipPath>
				<path clip-path="url(#SVGID_8_)" fill="#E6E6E6" d="M301.173,56.586c0-3.716-3.013-6.729-6.729-6.729
					c-0.365,0.002-0.729,0.036-1.087,0.101c-1.578-2.943-4.647-4.78-7.987-4.78h-0.335c0.219-0.853,0.331-1.729,0.335-2.609
					c0.183-5.945-4.489-10.912-10.434-11.095c-5.945-0.182-10.911,4.489-11.095,10.434c-0.007,0.22-0.007,0.441,0,0.661
					c0.005,0.879,0.114,1.755,0.324,2.609h-0.324c-5.009-0.168-9.205,3.757-9.373,8.765c-0.167,5.009,3.758,9.205,8.767,9.372
					c0.202,0.007,0.404,0.007,0.606,0h31.465v-0.06C298.66,62.821,301.171,59.967,301.173,56.586"/>
			</g>
		</g>
		<g opacity="0.45" clip-path="url(#SVGID_4_)" enable-background="new    ">
			<g>
				<defs>
					<rect id="SVGID_9_" x="33.325" y="230.923" width="288.219" height="14.453"/>
				</defs>
				<clipPath id="SVGID_10_">
					<use xlink:href="#SVGID_9_"  overflow="visible"/>
				</clipPath>
				<path clip-path="url(#SVGID_10_)" fill="#E6E6E6" d="M177.435,230.923c79.59,0,144.109,3.234,144.109,7.227
					c0,3.991-64.52,7.227-144.109,7.227c-79.589,0-144.11-3.235-144.11-7.227C33.325,234.157,97.846,230.923,177.435,230.923"/>
			</g>
		</g>
		<path clip-path="url(#SVGID_4_)" fill="#FFD200" d="M254.768,73.283c-0.102,0.417,9.084,22.574,18.382,21.833
			c9.297-0.741,13.956-16.991,28.501-10.262c14.545,6.73,29.293,1.299,29.293,1.299l-6.923,14.393
			c-5.711,0.419-11.451,0.164-17.103-0.761c-9.135-1.523-12.443-10.059-18.503-4.608c-6.06,5.45-12.708,12.017-21.427,9.916
			C258.27,102.992,254.768,73.283,254.768,73.283"/>
		<path clip-path="url(#SVGID_4_)" fill="#FFD200" d="M272.216,18.818c0,0,3.247,10.962,8.901,8.415
			c5.653-2.548,8.271-7.674,11.713-4.457l2.202-6.729c0,0-6.516-2.75-9.327,0.477c-2.812,3.228-4.689,7.927-6.588,7.156
			C277.22,22.908,272.216,18.818,272.216,18.818"/>
		<path clip-path="url(#SVGID_4_)" fill="#FFD200" d="M212.381,36.347l-0.324-0.284c-0.092,1.888-1.27,4.587-6.091,7.196
			c-8.981,4.892-9.327,13.388-9.327,13.388l7.774,0.934c0,0-4.212-7.106,1.959-10.607c4.994-2.812,6.831-6.628,6.09-10.627H212.381z
			"/>
		<g opacity="0.08" clip-path="url(#SVGID_4_)" enable-background="new    ">
			<g>
				<defs>
					<rect id="SVGID_11_" x="254.767" y="73.283" width="76.177" height="32.211"/>
				</defs>
				<clipPath id="SVGID_12_">
					<use xlink:href="#SVGID_11_"  overflow="visible"/>
				</clipPath>
				<path clip-path="url(#SVGID_12_)" d="M254.768,73.283c-0.102,0.417,9.084,22.574,18.382,21.833
					c9.297-0.741,13.956-16.991,28.501-10.262c14.545,6.73,29.293,1.299,29.293,1.299l-6.923,14.393
					c-5.711,0.419-11.451,0.164-17.103-0.761c-9.135-1.523-12.443-10.059-18.503-4.608c-6.06,5.45-12.708,12.017-21.427,9.916
					C258.27,102.992,254.768,73.283,254.768,73.283"/>
			</g>
		</g>
		<g opacity="0.08" clip-path="url(#SVGID_4_)" enable-background="new    ">
			<g>
				<defs>
					<rect id="SVGID_13_" x="272.215" y="14.954" width="22.818" height="12.662"/>
				</defs>
				<clipPath id="SVGID_14_">
					<use xlink:href="#SVGID_13_"  overflow="visible"/>
				</clipPath>
				<path clip-path="url(#SVGID_14_)" d="M272.216,18.818c0,0,3.247,10.962,8.901,8.415c5.653-2.548,8.271-7.674,11.713-4.457
					l2.202-6.729c0,0-6.516-2.75-9.327,0.477c-2.812,3.228-4.689,7.927-6.588,7.156C277.22,22.908,272.216,18.818,272.216,18.818"/>
			</g>
		</g>
		<g opacity="0.08" clip-path="url(#SVGID_4_)" enable-background="new    ">
			<g>
				<defs>
					<rect id="SVGID_15_" x="196.638" y="36.063" width="15.982" height="21.518"/>
				</defs>
				<clipPath id="SVGID_16_">
					<use xlink:href="#SVGID_15_"  overflow="visible"/>
				</clipPath>
				<path clip-path="url(#SVGID_16_)" d="M212.381,36.347l-0.324-0.284c-0.092,1.888-1.27,4.587-6.091,7.196
					c-8.981,4.892-9.327,13.388-9.327,13.388l7.774,0.934c0,0-4.212-7.106,1.959-10.607c4.994-2.812,6.831-6.628,6.09-10.627
					H212.381z"/>
			</g>
		</g>
		<polygon clip-path="url(#SVGID_4_)" fill="#FFD200" points="258.087,83.463 211.427,35.921 235.117,0 273.85,18.736 		"/>
		
			<path clip-path="url(#SVGID_4_)" fill="none" stroke="#FFFFFF" stroke-width="1.015" stroke-linecap="round" stroke-miterlimit="10.15" d="
			M273.068,19.396c0,0-34.155-3.136-60.626,16.687"/>
		
			<line clip-path="url(#SVGID_4_)" fill="none" stroke="#FFFFFF" stroke-width="1.015" stroke-linecap="round" stroke-miterlimit="10.15" x1="235.452" y1="1.198" x2="257.762" y2="82.266"/>
		
			<polyline clip-path="url(#SVGID_4_)" fill="none" stroke="#24285B" stroke-width="1.015" stroke-linecap="round" stroke-miterlimit="10.15" points="
			238.396,11.906 224.074,35.859 246.841,44.172 		"/>
		
			<path clip-path="url(#SVGID_4_)" fill="none" stroke="#24285B" stroke-width="1.015" stroke-linecap="round" stroke-miterlimit="10.15" d="
			M224.074,35.86c0,0-111.914,59.093-173.9,46.974"/>
		<path clip-path="url(#SVGID_4_)" fill="#EC6952" d="M118.504,115.71l-17.712,3.867c-13.209,2.862-26.796-2.851-33.992-14.291
			L54.254,85.3l-6.942,2.913l9.256,23.031c7.979,19.88,26.752,33.338,48.142,34.51l24.36,1.33L118.504,115.71z"/>
		<g opacity="0.46" clip-path="url(#SVGID_4_)" enable-background="new    ">
			<g>
				<defs>
					<rect id="SVGID_17_" x="47.312" y="85.3" width="81.758" height="61.783"/>
				</defs>
				<clipPath id="SVGID_18_">
					<use xlink:href="#SVGID_17_"  overflow="visible"/>
				</clipPath>
				<path clip-path="url(#SVGID_18_)" fill="#FFFFFF" d="M118.504,115.71l-17.712,3.867c-13.209,2.862-26.796-2.851-33.992-14.291
					L54.254,85.3l-6.942,2.913l9.256,23.031c7.979,19.88,26.752,33.338,48.142,34.51l24.36,1.33L118.504,115.71z"/>
			</g>
		</g>
		<path clip-path="url(#SVGID_4_)" fill="#EC6952" d="M145.259,216.337c0,0,2.365,3.146,0.781,6.09
			c-1.583,2.943,0.66,5.471,3.046,3.431c2.385-2.041,3.369-10.647,3.369-10.647l-5.268-3.126L145.259,216.337z"/>
		<path clip-path="url(#SVGID_4_)" fill="#EC6952" d="M193.675,229.856c0,0,3.553,1.665,3.521,5.075
			c-0.029,3.409,3.138,4.527,4.265,1.613c1.126-2.913-1.979-10.981-1.979-10.981l-6.09-0.306L193.675,229.856z"/>
		<path clip-path="url(#SVGID_4_)" fill="#24285B" d="M118.473,179.178l21.985,23.68c11.351,12.242,26.007,20.933,42.193,25.021
			l10.587,2.679l1.197-5.825l-16.067-9.39c-6.143-3.585-11.358-8.563-15.225-14.534l-13.499-20.909L118.473,179.178z"/>
		<g opacity="0.08" clip-path="url(#SVGID_4_)" enable-background="new    ">
			<g>
				<defs>
					<rect id="SVGID_19_" x="118.473" y="179.178" width="75.962" height="51.379"/>
				</defs>
				<clipPath id="SVGID_20_">
					<use xlink:href="#SVGID_19_"  overflow="visible"/>
				</clipPath>
				<path clip-path="url(#SVGID_20_)" d="M118.473,179.178l21.985,23.68c11.351,12.242,26.007,20.933,42.193,25.021l10.587,2.679
					l1.197-5.825l-16.067-9.39c-6.143-3.585-11.358-8.563-15.225-14.534l-13.499-20.909L118.473,179.178z"/>
			</g>
		</g>
		<path clip-path="url(#SVGID_4_)" fill="#F4A28C" d="M120.453,96.232c1.283,2.021,2.287,4.206,2.984,6.496
			c0.27,1.157-0.449,2.315-1.607,2.585c-0.005,0.001-0.011,0.002-0.017,0.003c-1.798,0.536-3.743-0.037-4.964-1.461l-2.872-2.741
			c-1.063-1.247-1.222-3.03-0.396-4.445C114.932,94.009,119.143,93.959,120.453,96.232"/>
		<polygon clip-path="url(#SVGID_4_)" fill="#F4A28C" points="115.834,101.398 114.484,115.425 122.279,115.618 120.127,105.326 		
			"/>
		<path clip-path="url(#SVGID_4_)" fill="#24285B" d="M119.59,96.892c-1.153,0.658-2.38,1.179-3.654,1.553
			c1.244,0.7,1.954,2.072,1.807,3.492c-0.114,1.392-1.2,2.508-2.589,2.659l-2.486-4.933c-0.775-1.413-0.709-3.137,0.172-4.486
			c0.37-0.58,0.78-1.133,1.229-1.655c1.116-1.299,3.674-1.431,4.445-3.045c0.23-0.511,0.831-0.739,1.342-0.508
			c0.172,0.077,0.318,0.2,0.424,0.356c1.015,1.38,1.949,3.867,0.355,5.725C120.335,96.384,119.982,96.668,119.59,96.892"/>
		<path clip-path="url(#SVGID_4_)" fill="#F4A28C" d="M118.128,101.611c0,0-0.792-1.451-1.837-0.771
			c-1.046,0.68,0.081,2.801,1.685,2.223L118.128,101.611z"/>
		<path clip-path="url(#SVGID_4_)" fill="#F4A28C" d="M121.792,98.607l1.827,0.914c0.339,0.173,0.473,0.589,0.299,0.929
			c-0.045,0.088-0.109,0.166-0.188,0.228l-1.319,1.015L121.792,98.607z"/>
		<g opacity="0.31" clip-path="url(#SVGID_4_)" enable-background="new    ">
			<g>
				<defs>
					<rect id="SVGID_21_" x="117.205" y="104.88" width="3.552" height="4.313"/>
				</defs>
				<clipPath id="SVGID_22_">
					<use xlink:href="#SVGID_21_"  overflow="visible"/>
				</clipPath>
				<path clip-path="url(#SVGID_22_)" fill="#CE8172" d="M120.026,105.671c-0.998,0.02-1.979-0.256-2.822-0.792
					c0,0,0.153,2.609,3.552,4.314L120.026,105.671z"/>
			</g>
		</g>
		<path clip-path="url(#SVGID_4_)" fill="#EC6952" d="M114.19,113.761l7.775,0.406c0,0,40.671-2.913,41.514,21.316
			c0.842,24.228-2.954,39.311-2.954,39.311l-28.542,7.277C131.983,182.07,66.586,138.304,114.19,113.761"/>
		<g opacity="0.08" clip-path="url(#SVGID_4_)" enable-background="new    ">
			<g>
				<defs>
					<rect id="SVGID_23_" x="112.333" y="131.625" width="54.515" height="50.436"/>
				</defs>
				<clipPath id="SVGID_24_">
					<use xlink:href="#SVGID_23_"  overflow="visible"/>
				</clipPath>
				<path clip-path="url(#SVGID_24_)" d="M127.954,131.625c0,0-6.324,9.551,8.729,16.159c15.052,6.607,12.87,17.255,2.416,15.732
					c-10.455-1.522-24.543-10.231-26.766,1.897c0,0,10.302,10.698,19.65,16.646l28.542-7.277l0.355-1.604l5.969-22.239l-10.8-15.722
					L127.954,131.625z"/>
			</g>
		</g>
		<path clip-path="url(#SVGID_4_)" fill="#EC6952" d="M127.821,124.591c2.592-6.946,10.23-10.58,17.255-8.211
			c9.653,3.167,23.731,10.678,27.405,27.963c5.734,27.029-4.06,41.128-52.78,15.226l2.599-5.521c0,0,34.124,11.388,34.296-0.051
			C156.81,144.303,122.117,140.76,127.821,124.591"/>
		<g opacity="0.46" clip-path="url(#SVGID_4_)" enable-background="new    ">
			<g>
				<defs>
					<rect id="SVGID_25_" x="119.701" y="115.656" width="54.246" height="57.607"/>
				</defs>
				<clipPath id="SVGID_26_">
					<use xlink:href="#SVGID_25_"  overflow="visible"/>
				</clipPath>
				<path clip-path="url(#SVGID_26_)" fill="#FFFFFF" d="M127.821,124.591c2.592-6.946,10.23-10.58,17.255-8.211
					c9.653,3.167,23.731,10.678,27.405,27.963c5.734,27.029-4.06,41.128-52.78,15.226l2.599-5.521c0,0,34.124,11.388,34.296-0.051
					C156.81,144.303,122.117,140.76,127.821,124.591"/>
			</g>
		</g>
		<path clip-path="url(#SVGID_4_)" fill="#24285B" d="M160.525,174.783c0,0-51.583-4.062-51.979,9.013
			c-0.395,13.073,36.896,33.871,36.896,33.871l4.446-5.655l-22.067-23.882C127.821,188.13,169.487,207.608,160.525,174.783"/>
		<path clip-path="url(#SVGID_4_)" fill="#F4A28C" d="M47.312,88.213c0,0-3.116-6.8,0.568-9.317
			c3.685-2.518,6.375,6.404,6.375,6.404L47.312,88.213z"/>
		
			<path clip-path="url(#SVGID_4_)" fill="none" stroke="#24285B" stroke-width="1.015" stroke-linecap="round" stroke-miterlimit="10.15" d="
			M48.489,84.479c0,0-1.553,39.057,13.997,66.259c15.549,27.202,54.485,1.319,54.485,1.319l-13.053,25.375"/>
		<path clip-path="url(#SVGID_4_)" fill="#F4A28C" d="M122.371,154.016c0,0-3.847-5.734-7.318-5.726
			c-3.472,0.012-2.974,7.319,4.719,11.246L122.371,154.016z"/>
		<path clip-path="url(#SVGID_4_)" fill="#E6E6E6" d="M88.176,50.375c0-3.56-2.886-6.445-6.445-6.445
			c-0.341,0-0.68,0.03-1.015,0.091c-1.516-2.822-4.461-4.581-7.664-4.578h-0.314c0.208-0.816,0.313-1.654,0.314-2.497
			c0-5.695-4.617-10.312-10.312-10.312S52.427,31.25,52.427,36.945c0.006,0.842,0.112,1.68,0.315,2.497h-0.315
			c-4.798,0-8.688,3.89-8.688,8.689c0,4.798,3.89,8.688,8.688,8.688h30.176v-0.061C85.798,56.326,88.179,53.597,88.176,50.375"/>
		<g opacity="0.49" clip-path="url(#SVGID_4_)" enable-background="new    ">
			<g>
				<defs>
					<rect id="SVGID_27_" x="214.061" y="110.529" width="42.555" height="28.724"/>
				</defs>
				<clipPath id="SVGID_28_">
					<use xlink:href="#SVGID_27_"  overflow="visible"/>
				</clipPath>
				<path clip-path="url(#SVGID_28_)" fill="#E6E6E6" d="M256.615,133.117c0-3.393-2.75-6.142-6.142-6.142
					c-0.339,0.004-0.68,0.034-1.015,0.092c-1.438-2.687-4.239-4.361-7.288-4.354h-0.213c0.191-0.777,0.29-1.575,0.295-2.375
					c-0.004-5.42-4.401-9.812-9.821-9.808c-5.416,0.003-9.806,4.393-9.81,9.808c0.003,0.801,0.105,1.599,0.306,2.375h-0.306
					c-4.565-0.159-8.396,3.412-8.557,7.979c-0.159,4.565,3.412,8.396,7.978,8.557c0.193,0.007,0.387,0.007,0.579,0h28.705
					C254.378,138.82,256.64,136.198,256.615,133.117"/>
			</g>
		</g>
		<path clip-path="url(#SVGID_4_)" fill="#E6E6E6" d="M274.144,238.667c0,0,5.674-8.12-2.791-10.414s2.03-13.195-5.836-14.688
			c-7.866-1.491-6.577,10.15-6.577,10.15s-5.44-4.69-9.187-0.751c-3.745,3.938,1.492,8.262,1.492,8.262s-7.581,2.619-2.852,7.399
			L274.144,238.667z"/>
		<path clip-path="url(#SVGID_4_)" fill="#C9C9C9" d="M262.756,239.753c0,0,3.613-6.161,8.922-5.399
			c5.309,0.761,4.79,5.399,4.79,5.399H262.756z"/>
		<polygon clip-path="url(#SVGID_4_)" fill="#E6E6E6" points="69.063,239.113 63.298,224.406 69.642,229.887 69.063,219.067 
			76.939,229.592 76.939,218.204 84.633,239.113 		"/>
	</g>
</g>
</svg>
