<?xml version="1.0" encoding="utf-8"?>
<!-- Generator: Adobe Illustrator 16.0.0, SVG Export Plug-In . SVG Version: 6.00 Build 0)  -->
<!DOCTYPE svg PUBLIC "-//W3C//DTD SVG 1.1//EN" "http://www.w3.org/Graphics/SVG/1.1/DTD/svg11.dtd">
<svg version="1.1" id="Layer_1" xmlns="http://www.w3.org/2000/svg" xmlns:xlink="http://www.w3.org/1999/xlink" x="0px" y="0px"
	 width="323.206px" height="226.162px" viewBox="0 0 323.206 226.162" enable-background="new 0 0 323.206 226.162"
	 xml:space="preserve">
<g>
	<defs>
		<rect id="SVGID_1_" width="323.206" height="226.162"/>
	</defs>
	<clipPath id="SVGID_2_">
		<use xlink:href="#SVGID_1_"  overflow="visible"/>
	</clipPath>
	<polygon clip-path="url(#SVGID_2_)" fill="#EC6952" points="278.231,45.939 289.174,56.525 233.917,114.807 185.999,50.993 
		115.314,119.994 49.542,91.888 0,145.378 11.724,156.238 53.612,111.011 118.836,138.882 184.142,75.14 232.496,139.521 
		300.653,67.65 312.366,78.977 323.206,34.063 	"/>
	<g clip-path="url(#SVGID_2_)">
		<defs>
			<rect id="SVGID_3_" width="323.206" height="226.162"/>
		</defs>
		<clipPath id="SVGID_4_">
			<use xlink:href="#SVGID_3_"  overflow="visible"/>
		</clipPath>
		<g opacity="0.45" clip-path="url(#SVGID_4_)" enable-background="new    ">
			<g>
				<defs>
					<rect id="SVGID_5_" x="12.525" y="196.788" width="288.321" height="29.374"/>
				</defs>
				<clipPath id="SVGID_6_">
					<use xlink:href="#SVGID_5_"  overflow="visible"/>
				</clipPath>
				<path clip-path="url(#SVGID_6_)" fill="#E6E6E6" d="M156.686,196.788c79.617,0,144.16,6.575,144.16,14.688
					c0,8.11-64.543,14.687-144.16,14.687c-79.618,0-144.161-6.576-144.161-14.687C12.524,203.363,77.067,196.788,156.686,196.788"/>
			</g>
		</g>
	</g>
	<rect x="203.102" y="192.354" clip-path="url(#SVGID_2_)" fill="#E6E6E6" width="58.516" height="15.406"/>
	<g clip-path="url(#SVGID_2_)">
		<defs>
			<rect id="SVGID_7_" width="323.206" height="226.162"/>
		</defs>
		<clipPath id="SVGID_8_">
			<use xlink:href="#SVGID_7_"  overflow="visible"/>
		</clipPath>
		<g opacity="0.43" clip-path="url(#SVGID_8_)" enable-background="new    ">
			<g>
				<defs>
					<rect id="SVGID_9_" x="190.312" y="177.29" width="58.516" height="15.407"/>
				</defs>
				<clipPath id="SVGID_10_">
					<use xlink:href="#SVGID_9_"  overflow="visible"/>
				</clipPath>
				<rect x="190.312" y="177.29" clip-path="url(#SVGID_10_)" fill="#E6E6E6" width="58.516" height="15.407"/>
			</g>
		</g>
	</g>
	<rect x="103.722" clip-path="url(#SVGID_2_)" fill="#C9C9C9" width="115.842" height="207.76"/>
	<rect x="113.305" y="23.68" clip-path="url(#SVGID_2_)" fill="#FFFFFF" width="95.887" height="146.21"/>
	<g clip-path="url(#SVGID_2_)">
		<defs>
			<rect id="SVGID_11_" width="323.206" height="226.162"/>
		</defs>
		<clipPath id="SVGID_12_">
			<use xlink:href="#SVGID_11_"  overflow="visible"/>
		</clipPath>
		<g opacity="0.56" clip-path="url(#SVGID_12_)" enable-background="new    ">
			<g>
				<defs>
					<rect id="SVGID_13_" x="150.656" y="177.279" width="22.676" height="22.676"/>
				</defs>
				<clipPath id="SVGID_14_">
					<use xlink:href="#SVGID_13_"  overflow="visible"/>
				</clipPath>
				<path clip-path="url(#SVGID_14_)" fill="#FFFFFF" d="M161.994,177.279c6.262,0,11.337,5.076,11.337,11.338
					c0,6.263-5.075,11.338-11.337,11.338c-6.262,0-11.338-5.075-11.338-11.338C150.656,182.355,155.732,177.279,161.994,177.279"/>
			</g>
		</g>
		<g opacity="0.12" clip-path="url(#SVGID_12_)" enable-background="new    ">
			<g>
				<defs>
					<rect id="SVGID_15_" x="151.844" y="8.12" width="32.48" height="4.74"/>
				</defs>
				<clipPath id="SVGID_16_">
					<use xlink:href="#SVGID_15_"  overflow="visible"/>
				</clipPath>
				<rect x="151.844" y="8.12" clip-path="url(#SVGID_16_)" width="32.48" height="4.74"/>
			</g>
		</g>
		<path clip-path="url(#SVGID_12_)" fill="#FFFFFF" d="M140.08,5.714c2.92,0,5.288,2.367,5.288,5.288
			c0,2.92-2.368,5.288-5.288,5.288s-5.288-2.368-5.288-5.288C134.792,8.082,137.16,5.714,140.08,5.714"/>
		<g opacity="0.08" clip-path="url(#SVGID_12_)" enable-background="new    ">
			<g>
				<defs>
					<rect id="SVGID_17_" x="114.167" y="156.239" width="30.755" height="51.825"/>
				</defs>
				<clipPath id="SVGID_18_">
					<use xlink:href="#SVGID_17_"  overflow="visible"/>
				</clipPath>
				<polygon clip-path="url(#SVGID_18_)" points="126.266,156.238 143.196,156.238 144.922,207.76 114.167,208.064 				"/>
			</g>
		</g>
		<path clip-path="url(#SVGID_12_)" fill="#FFD200" d="M162.105,49.552c15.214,0,27.547,12.333,27.547,27.547
			c0,15.214-12.333,27.547-27.547,27.547s-27.547-12.333-27.547-27.547C134.559,61.885,146.892,49.552,162.105,49.552"/>
		<g opacity="0.08" clip-path="url(#SVGID_12_)" enable-background="new    ">
			<g>
				<defs>
					<rect id="SVGID_19_" x="134.559" y="49.552" width="55.094" height="55.094"/>
				</defs>
				<clipPath id="SVGID_20_">
					<use xlink:href="#SVGID_19_"  overflow="visible"/>
				</clipPath>
				<path clip-path="url(#SVGID_20_)" d="M162.105,49.552c15.214,0,27.547,12.333,27.547,27.547
					c0,15.214-12.333,27.547-27.547,27.547s-27.547-12.333-27.547-27.547C134.559,61.885,146.892,49.552,162.105,49.552"/>
			</g>
		</g>
		<path clip-path="url(#SVGID_12_)" fill="#FFD200" d="M62.229,178.721v12.048c0,5.461,15.225,9.866,34.013,9.836
			c18.787-0.029,33.992-4.486,33.982-9.946V178.6L62.229,178.721z"/>
		<path clip-path="url(#SVGID_12_)" fill="#FFD200" d="M162.105,40.915c15.214,0,27.547,12.333,27.547,27.547
			c0,15.214-12.333,27.547-27.547,27.547s-27.547-12.333-27.547-27.547C134.559,53.248,146.892,40.915,162.105,40.915"/>
		<path clip-path="url(#SVGID_12_)" fill="#FFFFFF" d="M163.567,55.216c0.71,0,0.934,0.254,0.934,1.015v1.523
			c2.556,0.266,4.752,1.927,5.704,4.313c0.376,0.741,0.224,1.147-0.619,1.523l-1.522,0.68c-0.71,0.345-1.015,0.182-1.451-0.558
			c-0.656-1.586-2.271-2.558-3.979-2.396c-2.64,0-3.847,0.782-3.847,2.548c0.145,1.097,1.038,1.943,2.142,2.03
			c0.737,0.158,1.483,0.274,2.233,0.345c1.409,0.064,2.801,0.334,4.131,0.802c0.666,0.223,1.286,0.567,1.827,1.015
			c1.111,1.167,1.704,2.733,1.645,4.344c0,3.38-2.264,5.684-6.263,6.273v1.613c0,0.711-0.224,0.965-0.934,0.965h-1.705
			c-0.711,0-0.965-0.254-0.965-0.965v-1.583c-2.841-0.204-5.287-2.086-6.211-4.78c-0.241-0.507-0.025-1.112,0.481-1.353
			c0.076-0.036,0.157-0.062,0.239-0.079l1.523-0.558c0.771-0.274,1.117-0.092,1.451,0.68c0.648,1.717,2.366,2.786,4.192,2.608
			c2.862,0,4.283-0.893,4.283-2.73c0.053-0.869-0.496-1.662-1.329-1.918c-0.979-0.348-2.007-0.546-3.045-0.589
			c-1.425-0.088-2.828-0.393-4.162-0.903c-0.653-0.231-1.261-0.574-1.796-1.015c-1.124-1.112-1.731-2.643-1.675-4.223
			c0-3.349,2.111-5.582,6.09-6.089v-1.523c0-0.711,0.254-1.015,0.964-1.015H163.567z"/>
		<path clip-path="url(#SVGID_12_)" fill="#FFD200" d="M62.28,193.245v12.049c0,5.472,15.225,9.865,34.013,9.835
			c18.787-0.029,33.992-4.486,33.982-9.946v-12.049L62.28,193.245z"/>
		<g opacity="0.08" clip-path="url(#SVGID_12_)" enable-background="new    ">
			<g>
				<defs>
					<rect id="SVGID_21_" x="62.28" y="193.134" width="67.995" height="21.995"/>
				</defs>
				<clipPath id="SVGID_22_">
					<use xlink:href="#SVGID_21_"  overflow="visible"/>
				</clipPath>
				<path clip-path="url(#SVGID_22_)" d="M62.28,193.245v12.049c0,5.472,15.225,9.865,34.013,9.835
					c18.787-0.029,33.992-4.486,33.982-9.946v-12.049L62.28,193.245z"/>
			</g>
		</g>
		<path clip-path="url(#SVGID_12_)" fill="#FFD200" d="M96.618,182.979c18.605-0.032,33.696,4.331,33.705,9.746
			c0.009,5.415-15.065,9.831-33.671,9.863c-18.605,0.034-33.695-4.331-33.704-9.746C62.938,187.428,78.013,183.012,96.618,182.979"
			/>
		<g opacity="0.08" clip-path="url(#SVGID_12_)" enable-background="new    ">
			<g>
				<defs>
					<rect id="SVGID_23_" x="62.229" y="178.6" width="67.995" height="22.005"/>
				</defs>
				<clipPath id="SVGID_24_">
					<use xlink:href="#SVGID_23_"  overflow="visible"/>
				</clipPath>
				<path clip-path="url(#SVGID_24_)" d="M62.229,178.721v12.048c0,5.461,15.225,9.866,34.013,9.836
					c18.787-0.029,33.992-4.486,33.982-9.946V178.6L62.229,178.721z"/>
			</g>
		</g>
		<path clip-path="url(#SVGID_12_)" fill="#FFD200" d="M64.706,164.308v12.06c0,5.461,15.225,9.865,34.013,9.835
			c18.787-0.031,33.992-4.487,33.982-9.957v-12.049L64.706,164.308z"/>
		<path clip-path="url(#SVGID_12_)" fill="#FFD200" d="M62.229,149.783v12.068c0,5.461,15.225,9.867,34.013,9.835
			c18.787-0.03,33.992-4.485,33.982-9.946l0.01-12.068L62.229,149.783z"/>
		<path clip-path="url(#SVGID_12_)" fill="#FFD200" d="M96.583,168.587c18.605-0.032,33.695,4.331,33.705,9.746
			c0.009,5.415-15.065,9.831-33.671,9.863c-18.605,0.034-33.695-4.331-33.705-9.746C62.903,173.035,77.978,168.619,96.583,168.587"
			/>
		<g opacity="0.08" clip-path="url(#SVGID_12_)" enable-background="new    ">
			<g>
				<defs>
					<rect id="SVGID_25_" x="64.706" y="164.196" width="67.995" height="22.006"/>
				</defs>
				<clipPath id="SVGID_26_">
					<use xlink:href="#SVGID_25_"  overflow="visible"/>
				</clipPath>
				<path clip-path="url(#SVGID_26_)" d="M64.706,164.308v12.06c0,5.461,15.225,9.865,34.013,9.835
					c18.787-0.031,33.992-4.487,33.982-9.957v-12.049L64.706,164.308z"/>
			</g>
		</g>
		<path clip-path="url(#SVGID_12_)" fill="#FFD200" d="M99.004,154.302c18.605-0.033,33.695,4.331,33.705,9.746
			c0.009,5.415-15.066,9.831-33.671,9.863s-33.696-4.331-33.705-9.746C65.324,158.75,80.399,154.334,99.004,154.302"/>
		<g opacity="0.08" clip-path="url(#SVGID_12_)" enable-background="new    ">
			<g>
				<defs>
					<rect id="SVGID_27_" x="62.229" y="149.672" width="68.005" height="22.016"/>
				</defs>
				<clipPath id="SVGID_28_">
					<use xlink:href="#SVGID_27_"  overflow="visible"/>
				</clipPath>
				<path clip-path="url(#SVGID_28_)" d="M62.229,149.783v12.068c0,5.461,15.225,9.867,34.013,9.835
					c18.787-0.03,33.992-4.485,33.982-9.946l0.01-12.068L62.229,149.783z"/>
			</g>
		</g>
		<g opacity="0.08" clip-path="url(#SVGID_12_)" enable-background="new    ">
			<g>
				<defs>
					<rect id="SVGID_29_" x="38.306" y="166.906" width="50.486" height="50.486"/>
				</defs>
				<clipPath id="SVGID_30_">
					<use xlink:href="#SVGID_29_"  overflow="visible"/>
				</clipPath>
				<path clip-path="url(#SVGID_30_)" d="M63.549,166.906c13.941,0,25.243,11.302,25.243,25.243
					c0,13.942-11.302,25.243-25.243,25.243s-25.243-11.301-25.243-25.243C38.306,178.208,49.608,166.906,63.549,166.906"/>
			</g>
		</g>
		<g opacity="0.08" clip-path="url(#SVGID_12_)" enable-background="new    ">
			<g>
				<defs>
					<rect id="SVGID_31_" x="74.545" y="166.927" width="28.434" height="48.153"/>
				</defs>
				<clipPath id="SVGID_32_">
					<use xlink:href="#SVGID_31_"  overflow="visible"/>
				</clipPath>
				<path clip-path="url(#SVGID_32_)" d="M80.337,166.927c0,0,26.39,8.12,22.187,48.08c0,0-17.254,0.579-25.375-1.522
					C69.801,211.587,80.337,166.927,80.337,166.927"/>
			</g>
		</g>
		<path clip-path="url(#SVGID_12_)" fill="#FFD200" d="M96.218,139.914c18.785-0.033,34.021,4.33,34.03,9.745
			c0.009,5.415-15.211,9.831-33.996,9.864c-18.784,0.033-34.02-4.33-34.03-9.745C62.213,144.363,77.433,139.946,96.218,139.914"/>
		<path clip-path="url(#SVGID_12_)" fill="#FFD200" d="M63.549,166.906c13.941,0,25.243,11.302,25.243,25.243
			c0,13.942-11.302,25.243-25.243,25.243s-25.243-11.301-25.243-25.243C38.306,178.208,49.608,166.906,63.549,166.906"/>
		<g opacity="0.08" clip-path="url(#SVGID_12_)" enable-background="new    ">
			<g>
				<defs>
					<rect id="SVGID_33_" x="38.306" y="166.906" width="50.486" height="50.486"/>
				</defs>
				<clipPath id="SVGID_34_">
					<use xlink:href="#SVGID_33_"  overflow="visible"/>
				</clipPath>
				<path clip-path="url(#SVGID_34_)" d="M63.549,166.906c13.941,0,25.243,11.302,25.243,25.243
					c0,13.942-11.302,25.243-25.243,25.243s-25.243-11.301-25.243-25.243C38.306,178.208,49.608,166.906,63.549,166.906"/>
			</g>
		</g>
		<g opacity="0.08" clip-path="url(#SVGID_12_)">
			<g>
				<defs>
					<rect id="SVGID_35_" x="37.078" y="159.304" width="50.486" height="50.486"/>
				</defs>
				<clipPath id="SVGID_36_">
					<use xlink:href="#SVGID_35_"  overflow="visible"/>
				</clipPath>
				<path clip-path="url(#SVGID_36_)" d="M62.321,159.304c13.941,0,25.243,11.302,25.243,25.243
					c0,13.942-11.302,25.243-25.243,25.243s-25.243-11.301-25.243-25.243C37.078,170.605,48.38,159.304,62.321,159.304"/>
			</g>
		</g>
		<path clip-path="url(#SVGID_12_)" fill="#FFD200" d="M62.321,159.304c13.941,0,25.243,11.302,25.243,25.243
			c0,13.942-11.302,25.243-25.243,25.243s-25.243-11.301-25.243-25.243C37.078,170.605,48.38,159.304,62.321,159.304"/>
		<path clip-path="url(#SVGID_12_)" fill="#24285B" d="M142.303,116.674h41.726c3.471,0,6.283,2.813,6.283,6.283v14.383
			c0,3.47-2.813,6.282-6.283,6.282h-41.726c-3.47,0-6.283-2.813-6.283-6.282v-14.383
			C136.02,119.487,138.833,116.674,142.303,116.674"/>
		<g opacity="0.58" clip-path="url(#SVGID_12_)" enable-background="new    ">
			<g>
				<defs>
					<rect id="SVGID_37_" x="267.909" y="185.745" width="13.764" height="11.327"/>
				</defs>
				<clipPath id="SVGID_38_">
					<use xlink:href="#SVGID_37_"  overflow="visible"/>
				</clipPath>
				<path clip-path="url(#SVGID_38_)" fill="#EC6952" d="M278.425,196.361c0,0-8.638-2.354-10.516-10.403
					c0,0,13.388-2.7,13.764,11.114L278.425,196.361z"/>
			</g>
		</g>
		<g opacity="0.73" clip-path="url(#SVGID_12_)" enable-background="new    ">
			<g>
				<defs>
					<rect id="SVGID_39_" x="276.596" y="177.006" width="8.992" height="18.493"/>
				</defs>
				<clipPath id="SVGID_40_">
					<use xlink:href="#SVGID_39_"  overflow="visible"/>
				</clipPath>
				<path clip-path="url(#SVGID_40_)" fill="#EC6952" d="M279.511,195.479c0,0-6.039-9.551-0.73-18.473
					c0,0,10.149,6.465,5.663,18.494L279.511,195.479z"/>
			</g>
		</g>
		<path clip-path="url(#SVGID_12_)" fill="#EC6952" d="M281.063,195.488c0,0,3.188-10.089,12.83-11.997
			c0,0,1.816,6.547-6.242,12.019L281.063,195.488z"/>
		<polygon clip-path="url(#SVGID_12_)" fill="#24285B" points="274.801,195.255 276.547,207.242 287.58,207.293 289.204,195.317 		
			"/>
		<path clip-path="url(#SVGID_12_)" fill="#FFFFFF" d="M63.366,171.291c0.711,0,0.924,0.244,0.924,0.954v1.523
			c2.556,0.269,4.755,1.928,5.714,4.313c0.376,0.752,0.214,1.147-0.619,1.523l-1.522,0.68c-0.711,0.345-1.016,0.193-1.462-0.558
			c-0.651-1.584-2.264-2.555-3.969-2.386c-2.639,0-3.846,0.771-3.846,2.547c0.145,1.098,1.038,1.944,2.141,2.03
			c0.735,0.169,1.482,0.284,2.233,0.346c1.409,0.067,2.801,0.342,4.131,0.812c0.667,0.224,1.286,0.568,1.827,1.015
			c1.112,1.172,1.705,2.741,1.645,4.354c0,3.38-2.264,5.674-6.273,6.263v1.654c0,0.721-0.213,0.965-0.924,0.965h-1.705
			c-0.721,0-1.015-0.244-1.015-0.965v-1.583c-2.848-0.188-5.301-2.076-6.212-4.78c-0.236-0.509-0.016-1.112,0.493-1.349
			c0.069-0.032,0.143-0.057,0.218-0.073l1.522-0.557c0.782-0.285,1.116-0.093,1.462,0.679c0.647,1.717,2.365,2.786,4.192,2.608
			c2.852,0,4.283-0.903,4.283-2.73c0.049-0.874-0.504-1.669-1.34-1.928c-0.981-0.344-2.006-0.542-3.044-0.588
			c-1.427-0.082-2.831-0.388-4.162-0.904c-0.658-0.222-1.267-0.566-1.797-1.016c-1.127-1.105-1.738-2.634-1.685-4.212
			c0-3.359,2.111-5.593,6.09-6.09v-1.522c0-0.711,0.244-0.954,1.015-0.954L63.366,171.291z"/>
		<g opacity="0.16" clip-path="url(#SVGID_12_)" enable-background="new    ">
			<g>
				<defs>
					<rect id="SVGID_41_" x="157.64" y="120.815" width="25.466" height="7.603"/>
				</defs>
				<clipPath id="SVGID_42_">
					<use xlink:href="#SVGID_41_"  overflow="visible"/>
				</clipPath>
				<rect x="157.64" y="120.815" clip-path="url(#SVGID_42_)" fill="#FFFFFF" width="25.467" height="7.603"/>
			</g>
		</g>
	</g>
</g>
</svg>
