<?xml version="1.0" encoding="utf-8"?>
<!-- Generator: Adobe Illustrator 16.0.0, SVG Export Plug-In . SVG Version: 6.00 Build 0)  -->
<!DOCTYPE svg PUBLIC "-//W3C//DTD SVG 1.1//EN" "http://www.w3.org/Graphics/SVG/1.1/DTD/svg11.dtd">
<svg version="1.1" id="Layer_1" xmlns="http://www.w3.org/2000/svg" xmlns:xlink="http://www.w3.org/1999/xlink" x="0px" y="0px"
	 width="304.51px" height="204.644px" viewBox="0 0 304.51 204.644" enable-background="new 0 0 304.51 204.644"
	 xml:space="preserve">
<g>
	<defs>
		<rect id="SVGID_1_" width="304.51" height="204.644"/>
	</defs>
	<clipPath id="SVGID_2_">
		<use xlink:href="#SVGID_1_"  overflow="visible"/>
	</clipPath>
	<g clip-path="url(#SVGID_2_)">
		<defs>
			<rect id="SVGID_3_" width="304.51" height="204.644"/>
		</defs>
		<clipPath id="SVGID_4_">
			<use xlink:href="#SVGID_3_"  overflow="visible"/>
		</clipPath>
		<path clip-path="url(#SVGID_4_)" fill="#FFD200" d="M223.99,66.178c0,0,40.601-12.474,46.202,14.474
			c5.604,26.948-5.825,56.992-5.825,56.992H198.25L223.99,66.178z"/>
		<path clip-path="url(#SVGID_4_)" fill="#53ACED" d="M170.023,53.592c0,0-21.508-1.015-25.741,20.361
			c-4.232,21.376,2.984,51.095,2.984,51.095l-32.429,8.72l1.634,3.866h46.264l14.21-33.292L170.023,53.592z"/>
		<g opacity="0.46" clip-path="url(#SVGID_4_)" enable-background="new    ">
			<g>
				<defs>
					<rect id="SVGID_5_" x="114.837" y="53.584" width="62.108" height="84.049"/>
				</defs>
				<clipPath id="SVGID_6_">
					<use xlink:href="#SVGID_5_"  overflow="visible"/>
				</clipPath>
				<path clip-path="url(#SVGID_6_)" fill="#FFFFFF" d="M170.023,53.592c0,0-21.508-1.015-25.741,20.361
					c-4.232,21.376,2.984,51.095,2.984,51.095l-32.429,8.72l1.634,3.866h46.264l14.21-33.292L170.023,53.592z"/>
			</g>
		</g>
		<path clip-path="url(#SVGID_4_)" fill="#F4A28C" d="M184.314,25.192c0,0-0.314,6.841,1.015,11.328
			c0.546,1.82,2.464,2.853,4.285,2.306c0.003-0.001,0.006-0.001,0.009-0.002c2.253-0.701,5.074-2.304,5.704-5.948l1.797-6.09
			c0.477-2.565-0.714-5.152-2.975-6.456C190.201,17.742,184.293,21.021,184.314,25.192"/>
		<polygon clip-path="url(#SVGID_4_)" fill="#F4A28C" points="196.656,29.912 199.204,52.201 186.811,52.719 189.937,36.296 		"/>
		<path clip-path="url(#SVGID_4_)" fill="#24285B" d="M186.029,25.405c2.115,0.001,4.226-0.248,6.282-0.741
			c-1.173,1.951-1.072,4.413,0.254,6.262c1.266,1.829,3.646,2.508,5.685,1.625l-0.467-8.791c-0.051-2.57-1.503-4.907-3.786-6.089
			c-0.986-0.502-2.003-0.939-3.045-1.309c-2.568-0.914-6.212,0.933-8.546-0.681c-0.748-0.514-1.773-0.325-2.287,0.423
			c-0.156,0.227-0.253,0.49-0.281,0.765c-0.294,2.69,0.355,6.871,4.06,8.181C184.582,25.294,185.303,25.415,186.029,25.405"/>
		<path clip-path="url(#SVGID_4_)" fill="#F4A28C" d="M191.825,30.754c0,0,0-2.639,1.929-2.517c1.928,0.121,2.091,3.928-0.579,4.394
			L191.825,30.754z"/>
		<path clip-path="url(#SVGID_4_)" fill="#F4A28C" d="M184.345,29.516l-1.798,2.71c-0.337,0.503-0.201,1.184,0.302,1.521
			c0.135,0.091,0.289,0.15,0.449,0.174l2.641,0.386L184.345,29.516z"/>
		<g opacity="0.31" clip-path="url(#SVGID_4_)" enable-background="new    ">
			<g>
				<defs>
					<rect id="SVGID_7_" x="189.044" y="35.494" width="5.542" height="6.963"/>
				</defs>
				<clipPath id="SVGID_8_">
					<use xlink:href="#SVGID_7_"  overflow="visible"/>
				</clipPath>
				<path clip-path="url(#SVGID_8_)" fill="#CE8172" d="M190.11,36.824c1.59,0.004,3.146-0.458,4.476-1.33
					c0,0-0.183,4.142-5.542,6.963L190.11,36.824z"/>
			</g>
		</g>
		<path clip-path="url(#SVGID_4_)" fill="#53ACED" d="M170.023,53.592c0,0,48.241-9.247,64.727,0
			c16.483,9.247-18.098,95.268-18.098,95.268l-50.813-1.604C165.84,147.256,121.384,62.433,170.023,53.592"/>
		<rect x="245.813" clip-path="url(#SVGID_4_)" fill="#FFD200" width="58.696" height="40.356"/>
		<path clip-path="url(#SVGID_4_)" fill="#FFFFFF" d="M267.271,28.095c-0.308,0.001-0.604-0.103-0.844-0.294l-8.8-6.953
			c-0.586-0.461-0.687-1.31-0.225-1.896c0.064-0.084,0.141-0.16,0.225-0.226l8.8-7.105c0.586-0.47,1.443-0.378,1.913,0.208
			c0.472,0.586,0.378,1.443-0.208,1.914l-7.469,6.009l7.46,5.897c0.601,0.449,0.725,1.301,0.277,1.903
			c-0.016,0.019-0.029,0.038-0.044,0.056C268.09,27.932,267.688,28.113,267.271,28.095"/>
		<path clip-path="url(#SVGID_4_)" fill="#FFFFFF" d="M283.206,28.095c-0.417,0.004-0.813-0.188-1.066-0.518
			c-0.464-0.588-0.365-1.442,0.223-1.908l7.46-5.897l-7.47-6.009c-0.585-0.471-0.679-1.328-0.208-1.913
			c0.471-0.586,1.328-0.679,1.914-0.208l8.799,7.105c0.586,0.461,0.688,1.309,0.227,1.895c-0.066,0.084-0.143,0.16-0.227,0.226
			l-8.799,6.953C283.813,28.008,283.513,28.105,283.206,28.095"/>
		<path clip-path="url(#SVGID_4_)" fill="#FFFFFF" d="M271.543,28.095c-0.192-0.001-0.383-0.043-0.559-0.122
			c-0.679-0.313-0.978-1.115-0.67-1.796l6.405-14.038c0.311-0.684,1.118-0.986,1.802-0.675c0.683,0.311,0.986,1.118,0.674,1.802
			l-6.415,14.037C272.562,27.788,272.075,28.098,271.543,28.095"/>
		<rect x="21.752" y="143.612" clip-path="url(#SVGID_4_)" fill="#C9C9C9" width="257.606" height="61.032"/>
		<rect x="21.752" y="137.593" clip-path="url(#SVGID_4_)" fill="#E6E6E6" width="257.606" height="11.013"/>
		<rect y="7.115" clip-path="url(#SVGID_4_)" fill="#24285B" width="101.886" height="80.479"/>
		<rect x="29.78" y="51.826" clip-path="url(#SVGID_4_)" fill="#53ACED" width="32.723" height="3.664"/>
		<rect x="39.169" y="41.625" clip-path="url(#SVGID_4_)" fill="#FFD200" width="29.262" height="3.664"/>
		<rect x="51.633" y="69.984" clip-path="url(#SVGID_4_)" fill="#FFD200" width="15.266" height="3.665"/>
		<rect x="39.169" y="60.677" clip-path="url(#SVGID_4_)" fill="#53ACED" width="38.996" height="3.664"/>
		<rect x="17.641" y="60.677" clip-path="url(#SVGID_4_)" fill="#FFFFFF" width="14.667" height="3.664"/>
		<rect x="32.247" y="70.299" clip-path="url(#SVGID_4_)" fill="#FFFFFF" width="14.667" height="3.664"/>
		<rect x="8.252" y="51.826" clip-path="url(#SVGID_4_)" fill="#FFFFFF" width="14.667" height="3.664"/>
		<path clip-path="url(#SVGID_4_)" fill="#FFFFFF" d="M6.668,11.561c0.953,0,1.726,0.772,1.726,1.726
			c0,0.953-0.773,1.725-1.726,1.725s-1.726-0.772-1.726-1.725C4.942,12.333,5.715,11.561,6.668,11.561"/>
		<path clip-path="url(#SVGID_4_)" fill="#53ACED" d="M11.804,11.561c0.953,0,1.726,0.772,1.726,1.726
			c0,0.953-0.773,1.725-1.726,1.725s-1.725-0.772-1.725-1.725C10.079,12.333,10.851,11.561,11.804,11.561"/>
		<path clip-path="url(#SVGID_4_)" fill="#FFD200" d="M16.646,11.561c0.953,0,1.726,0.772,1.726,1.726
			c0,0.953-0.773,1.725-1.726,1.725s-1.726-0.772-1.726-1.725C14.92,12.333,15.693,11.561,16.646,11.561"/>
		<rect x="8.252" y="23.974" clip-path="url(#SVGID_4_)" fill="#FFFFFF" width="14.667" height="3.664"/>
		<rect x="17.641" y="33.129" clip-path="url(#SVGID_4_)" fill="#FFFFFF" width="14.667" height="3.664"/>
		<rect x="39.169" y="33.129" clip-path="url(#SVGID_4_)" fill="#FFD200" width="29.262" height="3.664"/>
		<rect x="17.641" y="41.625" clip-path="url(#SVGID_4_)" fill="#FFFFFF" width="14.667" height="3.664"/>
		<rect x="28.785" y="23.974" clip-path="url(#SVGID_4_)" fill="#53ACED" width="30.217" height="3.664"/>
		<rect x="65.315" y="23.974" clip-path="url(#SVGID_4_)" fill="#53ACED" width="21.447" height="3.664"/>
		<path clip-path="url(#SVGID_4_)" fill="#F4A28C" d="M184.111,131.493c0,0-22.157-6.414-19.498,6.091h19.498V131.493z"/>
		<rect x="136.213" y="134.153" clip-path="url(#SVGID_4_)" fill="#E6E6E6" width="41.91" height="3.44"/>
		<rect x="72.278" y="50.029" clip-path="url(#SVGID_4_)" fill="#E6E6E6" width="88.164" height="66.747"/>
		<g opacity="0.08" clip-path="url(#SVGID_4_)" enable-background="new    ">
			<g>
				<defs>
					<rect id="SVGID_9_" x="156.787" y="57.977" width="78.196" height="80.266"/>
				</defs>
				<clipPath id="SVGID_10_">
					<use xlink:href="#SVGID_9_"  overflow="visible"/>
				</clipPath>
				<path clip-path="url(#SVGID_10_)" d="M213.344,57.977c0,0-17.308,12.617-9.44,35.84c11.723,34.601-47.117,32.875-47.117,32.875
					l4.791,11.551l67.529-5.796l5.877-23.346L213.344,57.977z"/>
			</g>
		</g>
		<polygon clip-path="url(#SVGID_4_)" fill="#C9C9C9" points="108.27,91.665 98.79,137.593 145.693,137.593 145.693,131.493 
			122.247,129.991 120.247,91.665 		"/>
		<path clip-path="url(#SVGID_4_)" fill="#53ACED" d="M212.674,60.717c0.823-6.676,6.904-11.419,13.58-10.595
			c0.479,0.059,0.952,0.147,1.421,0.262c9.398,2.334,21.203,9.724,22.97,31.871c2.994,37.555-7.654,55.338-7.654,55.338h-58.879
			v-7.471l40.874-4.993C224.985,125.129,209.485,86.61,212.674,60.717"/>
		<g opacity="0.46" clip-path="url(#SVGID_4_)" enable-background="new    ">
			<g>
				<defs>
					<rect id="SVGID_11_" x="184.111" y="50.029" width="67.063" height="87.564"/>
				</defs>
				<clipPath id="SVGID_12_">
					<use xlink:href="#SVGID_11_"  overflow="visible"/>
				</clipPath>
				<path clip-path="url(#SVGID_12_)" fill="#FFFFFF" d="M212.674,60.717c0.823-6.676,6.904-11.419,13.58-10.595
					c0.479,0.059,0.952,0.147,1.421,0.262c9.398,2.334,21.203,9.724,22.97,31.871c2.994,37.555-7.654,55.338-7.654,55.338h-58.879
					v-7.471l40.874-4.993C224.985,125.129,209.485,86.61,212.674,60.717"/>
			</g>
		</g>
		<g opacity="0.58" clip-path="url(#SVGID_4_)" enable-background="new    ">
			<g>
				<defs>
					<rect id="SVGID_13_" x="34.094" y="117.512" width="13.256" height="10.905"/>
				</defs>
				<clipPath id="SVGID_14_">
					<use xlink:href="#SVGID_13_"  overflow="visible"/>
				</clipPath>
				<path clip-path="url(#SVGID_14_)" fill="#53ACED" d="M44.244,127.738c0,0-8.313-2.273-10.15-10.02
					c0,0,12.891-2.607,13.256,10.699L44.244,127.738z"/>
			</g>
		</g>
		<g opacity="0.73" clip-path="url(#SVGID_4_)" enable-background="new    ">
			<g>
				<defs>
					<rect id="SVGID_15_" x="42.463" y="109.123" width="8.671" height="17.803"/>
				</defs>
				<clipPath id="SVGID_16_">
					<use xlink:href="#SVGID_15_"  overflow="visible"/>
				</clipPath>
				<path clip-path="url(#SVGID_16_)" fill="#53ACED" d="M45.269,126.906c0,0-5.816-9.188-0.701-17.783
					c0,0,9.805,6.232,5.451,17.803L45.269,126.906z"/>
			</g>
		</g>
		<path clip-path="url(#SVGID_4_)" fill="#53ACED" d="M46.761,126.916c0,0,3.045-9.703,12.362-11.541c0,0,1.736,6.293-6.018,11.571
			L46.761,126.916z"/>
		<polygon clip-path="url(#SVGID_4_)" fill="#24285B" points="40.732,126.692 42.417,138.233 53.034,138.284 54.607,126.753 		"/>
	</g>
</g>
</svg>
