<?xml version="1.0" encoding="utf-8"?>
<!-- Generator: Adobe Illustrator 16.0.0, SVG Export Plug-In . SVG Version: 6.00 Build 0)  -->
<!DOCTYPE svg PUBLIC "-//W3C//DTD SVG 1.1//EN" "http://www.w3.org/Graphics/SVG/1.1/DTD/svg11.dtd">
<svg version="1.1" id="Layer_1" xmlns="http://www.w3.org/2000/svg" xmlns:xlink="http://www.w3.org/1999/xlink" x="0px" y="0px"
	 width="346.115px" height="245.153px" viewBox="0 0 346.115 245.153" enable-background="new 0 0 346.115 245.153"
	 xml:space="preserve">
<g>
	<defs>
		<rect id="SVGID_1_" width="346.115" height="245.153"/>
	</defs>
	<clipPath id="SVGID_2_">
		<use xlink:href="#SVGID_1_"  overflow="visible"/>
	</clipPath>
	<g clip-path="url(#SVGID_2_)">
		<defs>
			<rect id="SVGID_3_" width="346.115" height="245.153"/>
		</defs>
		<clipPath id="SVGID_4_">
			<use xlink:href="#SVGID_3_"  overflow="visible"/>
		</clipPath>
		<g opacity="0.45" clip-path="url(#SVGID_4_)" enable-background="new    ">
			<g>
				<defs>
					<rect id="SVGID_5_" y="217.992" width="346.115" height="27.161"/>
				</defs>
				<clipPath id="SVGID_6_">
					<use xlink:href="#SVGID_5_"  overflow="visible"/>
				</clipPath>
				<path clip-path="url(#SVGID_6_)" fill="#E6E6E6" d="M173.058,217.992c95.576,0,173.058,6.08,173.058,13.58
					c0,7.501-77.481,13.581-173.058,13.581C77.48,245.153,0,239.073,0,231.572C0,224.072,77.48,217.992,173.058,217.992"/>
			</g>
		</g>
		<path clip-path="url(#SVGID_4_)" fill="#53ACED" d="M76.835,216.398c0,0,0.061,3.999,3.177,5.379
			c3.116,1.381,2.883,4.812-0.284,4.64c-3.167-0.173-9.358-6.466-9.358-6.466l2.344-5.786L76.835,216.398z"/>
		<path clip-path="url(#SVGID_4_)" fill="#24285B" d="M64.595,174.397c0,0,18.625,0.822,16.595,13.459
			c-2.03,12.637-10.251,26.309-10.251,26.309l7.166,2.994c0,0,14.21-16.321,15.6-36.458
			C95.096,160.563,66.543,165.059,64.595,174.397"/>
		<g opacity="0.08" clip-path="url(#SVGID_4_)" enable-background="new    ">
			<g>
				<defs>
					<rect id="SVGID_7_" x="64.595" y="166.485" width="29.159" height="50.674"/>
				</defs>
				<clipPath id="SVGID_8_">
					<use xlink:href="#SVGID_7_"  overflow="visible"/>
				</clipPath>
				<path clip-path="url(#SVGID_8_)" d="M64.595,174.397c0,0,18.625,0.822,16.595,13.459c-2.03,12.637-10.251,26.309-10.251,26.309
					l7.166,2.994c0,0,14.21-16.321,15.6-36.458C95.096,160.563,66.543,165.059,64.595,174.397"/>
			</g>
		</g>
		<path clip-path="url(#SVGID_4_)" fill="#53ACED" d="M51.714,97.968c-6.76-5.228-16.93-2.548-19.762,5.521
			c-0.87,2.512-0.895,5.238-0.071,7.765c3.218,10.323,8.292,24.36,27.232,29.435s34.855,8.871,36.378,2.223
			c1.522-6.648-2.71-15.104-18.27-20.3C66.148,118.857,60.311,104.606,51.714,97.968"/>
		<g opacity="0.08" clip-path="url(#SVGID_4_)" enable-background="new    ">
			<g>
				<defs>
					<rect id="SVGID_9_" x="31.281" y="95.277" width="64.501" height="51.192"/>
				</defs>
				<clipPath id="SVGID_10_">
					<use xlink:href="#SVGID_9_"  overflow="visible"/>
				</clipPath>
				<path clip-path="url(#SVGID_10_)" d="M51.714,97.968c-6.76-5.228-16.93-2.548-19.762,5.521c-0.87,2.512-0.895,5.238-0.071,7.765
					c3.218,10.323,8.292,24.36,27.232,29.435s34.855,8.871,36.378,2.223c1.522-6.648-2.71-15.104-18.27-20.3
					C66.148,118.857,60.311,104.606,51.714,97.968"/>
			</g>
		</g>
		<path clip-path="url(#SVGID_4_)" fill="#53ACED" d="M91.807,217.271c0,0,0,3.999,3.177,5.379c3.177,1.381,2.883,4.812-0.295,4.639
			c-3.176-0.173-9.348-6.466-9.348-6.466l2.294-5.795L91.807,217.271z"/>
		<path clip-path="url(#SVGID_4_)" fill="#F4A28C" d="M287.641,149.174l-31.688-23.416c0,0-9.958-7.105-11.572-1.015
			c-1.613,6.09,9.846,7.104,9.846,7.104s19.388,31.01,29.11,27.313C293.061,155.467,287.641,149.174,287.641,149.174"/>
		<g opacity="0.08" clip-path="url(#SVGID_4_)" enable-background="new    ">
			<g>
				<defs>
					<rect id="SVGID_11_" x="244.226" y="122.277" width="44.922" height="37.19"/>
				</defs>
				<clipPath id="SVGID_12_">
					<use xlink:href="#SVGID_11_"  overflow="visible"/>
				</clipPath>
				<path clip-path="url(#SVGID_12_)" d="M287.641,149.174l-31.688-23.416c0,0-9.958-7.105-11.572-1.015
					c-1.613,6.09,9.846,7.104,9.846,7.104s19.388,31.01,29.11,27.313C293.061,155.467,287.641,149.174,287.641,149.174"/>
			</g>
		</g>
		<polygon clip-path="url(#SVGID_4_)" fill="#F4A28C" points="257.617,186.516 285.854,217.26 289.753,215.577 268.447,177.726 		
			"/>
		<path clip-path="url(#SVGID_4_)" fill="#53ACED" d="M285.337,216.479c0,0,0,3.826-2.538,5.563
			c-2.537,1.735-0.223,5.399,3.37,2.029c1.108-1.027,2.127-2.147,3.045-3.349c0.888-1.08,2.042-1.906,3.351-2.396
			c0.498-0.229,0.801-0.743,0.76-1.289c0.113-2.132-4.872-3.045-4.872-3.045L285.337,216.479z"/>
		<path clip-path="url(#SVGID_4_)" fill="#24285B" d="M275.907,159.091c0,0-39.433-0.295-33.719,23.05
			c3.147,13.595,12.237,25.055,24.756,31.212l14.21-26.056l-7.814-22.665L275.907,159.091z"/>
		<g opacity="0.08" clip-path="url(#SVGID_4_)" enable-background="new    ">
			<g>
				<defs>
					<rect id="SVGID_13_" x="241.623" y="159.09" width="39.532" height="54.263"/>
				</defs>
				<clipPath id="SVGID_14_">
					<use xlink:href="#SVGID_13_"  overflow="visible"/>
				</clipPath>
				<path clip-path="url(#SVGID_14_)" d="M275.907,159.091c0,0-39.433-0.295-33.719,23.05c3.147,13.595,12.237,25.055,24.756,31.212
					l14.21-26.056l-7.814-22.665L275.907,159.091z"/>
			</g>
		</g>
		<rect x="293.913" y="180.031" clip-path="url(#SVGID_4_)" fill="#C9C9C9" width="4.202" height="36.245"/>
		<path clip-path="url(#SVGID_4_)" fill="#E6E6E6" d="M309.94,92.172c0,0,3.867-20.726,22.473-11.348
			c13.713,6.912,0.313,62.037-7.674,90.549c-2.82,10.024-11.968,16.947-22.381,16.94h-26.237c-8.029,0-9.46-11.439-1.686-13.419
			l0.457-0.111c4.527-1.015,9.835-1.867,14.666-2.507c8.43-1.086,14.939-7.938,15.591-16.413L309.94,92.172z"/>
		<path clip-path="url(#SVGID_4_)" fill="#F4A28C" d="M291.295,72.491c-0.02,2.322,0.271,4.636,0.862,6.881
			c0.375,1.099,1.569,1.685,2.667,1.311c0.001-0.001,0.002-0.001,0.003-0.001c1.753-0.488,3.06-1.957,3.339-3.755l0.965-3.726
			c0.236-1.572-0.545-3.122-1.948-3.867C294.705,67.833,291.193,69.953,291.295,72.491"/>
		<polygon clip-path="url(#SVGID_4_)" fill="#F4A28C" points="299.749,75.404 300.928,89.025 293.375,89.147 295.497,79.433 		"/>
		<path clip-path="url(#SVGID_4_)" fill="#F4A28C" d="M291.406,75.12l-1.015,1.695c-0.193,0.316-0.093,0.728,0.222,0.921
			c0.084,0.051,0.179,0.083,0.275,0.094l1.614,0.172L291.406,75.12z"/>
		<g opacity="0.31" clip-path="url(#SVGID_4_)" enable-background="new    ">
			<g>
				<defs>
					<rect id="SVGID_15_" x="294.827" y="78.5" width="3.074" height="3.989"/>
				</defs>
				<clipPath id="SVGID_16_">
					<use xlink:href="#SVGID_15_"  overflow="visible"/>
				</clipPath>
				<path clip-path="url(#SVGID_16_)" fill="#CE8172" d="M295.436,79.708c0.907-0.173,1.749-0.591,2.438-1.208
					c0,0,0.538,2.944-3.045,3.989L295.436,79.708z"/>
			</g>
		</g>
		<polygon clip-path="url(#SVGID_4_)" fill="#F4A28C" points="250.989,180.031 250.989,221.767 255.009,223.158 264.916,180.873 		
			"/>
		<path clip-path="url(#SVGID_4_)" fill="#53ACED" d="M251.142,220.843c0,0-2.629,2.791-5.634,2.386
			c-3.004-0.406-3.826,3.826,1.076,3.806c1.523-0.001,3.045-0.129,4.547-0.386c1.374-0.191,2.774-0.021,4.061,0.498
			c0.522,0.169,1.096-0.001,1.441-0.427c1.512-1.502-1.553-5.531-1.553-5.531L251.142,220.843z"/>
		<path clip-path="url(#SVGID_4_)" fill="#F4A28C" d="M299.465,75.445c0,0-0.101-1.604,1.117-1.573
			c1.218,0.03,1.36,2.344-0.263,2.689L299.465,75.445z"/>
		<path clip-path="url(#SVGID_4_)" fill="#24285B" d="M292.147,72.268c1.327,0.216,2.683,0.216,4.01,0c0,0,0.852,4.628,4.526,5.796
			c0,0,3.482-6.922-0.792-9.602c-3.573-2.243-6.242-4.233-9.185-1.563c-1.279,1.161-1.373,3.138-0.212,4.416
			C290.933,71.797,291.511,72.13,292.147,72.268"/>
		<path clip-path="url(#SVGID_4_)" fill="#24285B" d="M302.277,62.3c2.292,0,4.15,1.859,4.15,4.151c0,2.293-1.858,4.152-4.15,4.152
			c-2.293,0-4.15-1.859-4.15-4.152C298.127,64.159,299.984,62.3,302.277,62.3"/>
		<path clip-path="url(#SVGID_4_)" fill="#F4A28C" d="M296.085,74.663c0,0,0.184-1.857,1.665-1.563s1.462,2.456-0.405,3.309
			L296.085,74.663z"/>
		<path clip-path="url(#SVGID_4_)" fill="#53ACED" d="M292.848,91.309l7.379-2.121c0,0,19.701,2.121,19.498,17.925
			c-0.151,11.713-13.823,55.49-13.823,55.49h-29.993v-15.418c0.065-7.298-1.646-14.502-4.984-20.99
			C266.286,117.405,263.86,102.109,292.848,91.309"/>
		<path clip-path="url(#SVGID_4_)" fill="#53ACED" d="M287.265,110.097c1.208-13.885,20.858-15.61,24.654-2.202
			c2.031,7.105,3.046,17.356,0.711,31.78c-5.593,34.773-72.583,12.18-72.583,12.18v-8.242c0,0,39.585,7.45,49.096-2.699
			C294.736,134.964,286.291,121.333,287.265,110.097"/>
		<path clip-path="url(#SVGID_4_)" fill="#24285B" d="M275.907,155.396l29.993,7.207c0,0,1.451,12.941-8.981,13.956
			c-10.436,1.015-42.407-2.537-29.975,36.794H242.22c0,0-15.032-42.265,21.71-50.75c4.457-1.016,11.927-1.868,11.999-6.445
			L275.907,155.396z"/>
		<path clip-path="url(#SVGID_4_)" fill="#53ACED" d="M141.735,78.875c-12.26,7.413-20.044,20.425-20.777,34.733
			c-1.279,23.041,0.812,47.756,30.013,44.985C180.173,155.823,141.735,78.875,141.735,78.875"/>
		<g opacity="0.08" clip-path="url(#SVGID_4_)" enable-background="new    ">
			<g>
				<defs>
					<rect id="SVGID_17_" x="120.682" y="78.876" width="41.241" height="79.931"/>
				</defs>
				<clipPath id="SVGID_18_">
					<use xlink:href="#SVGID_17_"  overflow="visible"/>
				</clipPath>
				<path clip-path="url(#SVGID_18_)" d="M141.735,78.875c-12.26,7.413-20.044,20.425-20.777,34.733
					c-1.279,23.041,0.812,47.756,30.013,44.985C180.173,155.823,141.735,78.875,141.735,78.875"/>
			</g>
		</g>
		<path clip-path="url(#SVGID_4_)" fill="#F4A28C" d="M159.446,54.779c-0.362,2.694-0.362,5.425,0,8.12
			c0.279,1.322,1.577,2.168,2.898,1.889c0.002,0,0.003-0.001,0.005-0.001c2.097-0.314,3.817-1.827,4.395-3.867l1.644-4.192
			c0.509-1.782-0.162-3.69-1.674-4.761C164.065,49.856,159.69,51.825,159.446,54.779"/>
		<polygon clip-path="url(#SVGID_4_)" fill="#F4A28C" points="168.135,57.459 169.941,73.303 161.142,73.679 163.354,61.996 		"/>
		<path clip-path="url(#SVGID_4_)" fill="#F4A28C" d="M159.203,57.845l-1.431,1.807c-0.269,0.338-0.214,0.829,0.124,1.098
			c0.092,0.073,0.198,0.124,0.312,0.15l1.837,0.426L159.203,57.845z"/>
		<g opacity="0.31" clip-path="url(#SVGID_4_)" enable-background="new    ">
			<g>
				<defs>
					<rect id="SVGID_19_" x="162.106" y="62.96" width="3.572" height="5.644"/>
				</defs>
				<clipPath id="SVGID_20_">
					<use xlink:href="#SVGID_19_"  overflow="visible"/>
				</clipPath>
				<path clip-path="url(#SVGID_20_)" fill="#CE8172" d="M162.766,64.534c1.105-0.225,2.119-0.772,2.913-1.573
					c0,0-0.254,2.912-3.573,5.643L162.766,64.534z"/>
			</g>
		</g>
		<path clip-path="url(#SVGID_4_)" fill="#53ACED" d="M151.367,75.069c0,0,37.748-8.455,51.268-0.873
			c13.521,7.582-13.013,79.018-13.013,79.018l-41.686-1.319C147.936,151.895,111.467,82.327,151.367,75.069"/>
		<path clip-path="url(#SVGID_4_)" fill="#53ACED" d="M159.802,220.295c0,0-1.949,3.502-5.349,3.238
			c-3.401-0.264-4.811,2.872-1.939,4.222c2.873,1.352,11.297-1.269,11.297-1.269l0.721-6.191H159.802z"/>
		<path clip-path="url(#SVGID_4_)" fill="#53ACED" d="M190.332,219.524c0,0,1.381,3.756,4.791,4.01
			c3.411,0.253,4.314,3.582,1.27,4.476s-11.014-2.984-11.014-2.984l0.233-6.222L190.332,219.524z"/>
		<g opacity="0.08" clip-path="url(#SVGID_4_)" enable-background="new    ">
			<g>
				<defs>
					<rect id="SVGID_21_" x="141.735" y="80.824" width="62.667" height="71.071"/>
				</defs>
				<clipPath id="SVGID_22_">
					<use xlink:href="#SVGID_21_"  overflow="visible"/>
				</clipPath>
				<path clip-path="url(#SVGID_22_)" d="M184.141,80.824c0,0-11.956,7.684-5.866,25.365c6.091,17.681,7.054,30.307-7.268,25.883
					c-14.322-4.427-13.276-24.188-13.276-24.188l-14.606,2.263l-1.39,28.035l6.201,13.713l36.205-2.274l14.759-3.766l5.502-18.492
					l-10.019-31.333L184.141,80.824z"/>
			</g>
		</g>
		<path clip-path="url(#SVGID_4_)" fill="#24285B" d="M147.937,151.895l10.667,68.4h6.963c0,0-6.455-51.44,4.822-57.652
			c11.276-6.212,13.489,57.652,13.489,57.652l7.399-0.588l-0.09-70.523L147.937,151.895z"/>
		<path clip-path="url(#SVGID_4_)" fill="#53ACED" d="M191.47,71.953c0,0,23.486-3.958,23.486,32.998
			c0,36.957-5.642,69.841-59.884,36.884l4.121-6.293c0,0,29.231,12.851,35.474,1.563C200.909,125.819,170.276,78.216,191.47,71.953"
			/>
		<g opacity="0.46" clip-path="url(#SVGID_4_)" enable-background="new    ">
			<g>
				<defs>
					<rect id="SVGID_23_" x="155.072" y="71.83" width="59.885" height="83.573"/>
				</defs>
				<clipPath id="SVGID_24_">
					<use xlink:href="#SVGID_23_"  overflow="visible"/>
				</clipPath>
				<path clip-path="url(#SVGID_24_)" fill="#FFFFFF" d="M191.47,71.953c0,0,23.486-3.958,23.486,32.998
					c0,36.957-5.642,69.841-59.884,36.884l4.121-6.293c0,0,29.231,12.851,35.474,1.563
					C200.909,125.819,170.276,78.216,191.47,71.953"/>
			</g>
		</g>
		
			<rect x="132.121" y="106.857" transform="matrix(-0.9698 0.244 -0.244 -0.9698 310.2555 205.9732)" clip-path="url(#SVGID_4_)" fill="#FFD200" width="20.503" height="30.684"/>
		<path clip-path="url(#SVGID_4_)" fill="#F4A28C" d="M159.264,135.542c0,0-9.785-7.754-11.327-1.826
			c-1.543,5.927,8.617,5.958,8.617,5.958L159.264,135.542z"/>
		<path clip-path="url(#SVGID_4_)" fill="#24285B" d="M207.12,0c13.292,0,24.066,8.966,24.066,20.026s-10.774,20.026-24.066,20.026
			c-13.291,0-24.064-8.966-24.064-20.026S193.829,0,207.12,0"/>
		<polygon clip-path="url(#SVGID_4_)" fill="#24285B" points="190.332,29.171 181.767,43.746 195.874,33.282 		"/>
		<path clip-path="url(#SVGID_4_)" fill="#FFFFFF" d="M197.641,17.052c1.644,0,2.975,1.332,2.975,2.974S199.284,23,197.641,23
			c-1.643,0-2.974-1.332-2.974-2.974S195.998,17.052,197.641,17.052"/>
		<path clip-path="url(#SVGID_4_)" fill="#FFFFFF" d="M207.171,17.052c1.644,0,2.976,1.332,2.976,2.974S208.814,23,207.171,23
			c-1.642,0-2.974-1.332-2.974-2.974S205.529,17.052,207.171,17.052"/>
		<path clip-path="url(#SVGID_4_)" fill="#FFFFFF" d="M216.601,17.052c1.644,0,2.975,1.332,2.975,2.974S218.244,23,216.601,23
			c-1.643,0-2.974-1.332-2.974-2.974S214.958,17.052,216.601,17.052"/>
		<path clip-path="url(#SVGID_4_)" fill="#24285B" d="M160.391,55.013c0.359,0.12,0.725,0.218,1.096,0.294
			c0.528,0.114,1.042,0.285,1.533,0.508l0.395,0.173c0.573,0.249,0.941,0.817,0.934,1.441c0,1.553,0.487,4.405,4.243,4.73
			c0,0,3.816-5.725,0.761-10.15c-1.819-2.447-4.647-3.939-7.693-4.06C157.568,47.806,156.502,53.704,160.391,55.013"/>
		<rect x="50.121" y="180.02" clip-path="url(#SVGID_4_)" fill="#C9C9C9" width="4.202" height="36.246"/>
		<path clip-path="url(#SVGID_4_)" fill="#E6E6E6" d="M38.296,92.172c0,0-3.867-20.726-22.421-11.348
			c-13.713,6.912-0.315,62.037,7.673,90.549c2.821,10.024,11.967,16.947,22.381,16.94h26.238c8.028,0,9.46-11.439,1.685-13.419
			l-0.457-0.111c-4.527-1.015-9.835-1.867-14.667-2.507c-8.417-1.1-14.911-7.949-15.56-16.413L38.296,92.172z"/>
		<polygon clip-path="url(#SVGID_4_)" fill="#C9C9C9" points="54.323,216.276 69.365,228.141 35.87,228.141 50.111,216.276 		"/>
		<path clip-path="url(#SVGID_4_)" fill="#F4A28C" d="M51.877,65.041c0.538,2.616,0.726,5.292,0.558,7.958
			c-0.193,1.31-1.409,2.217-2.72,2.03c-2.087-0.162-3.888-1.527-4.608-3.492l-1.918-3.989c-0.618-1.724-0.077-3.651,1.35-4.801
			C46.995,60.544,51.4,62.118,51.877,65.041"/>
		<polygon clip-path="url(#SVGID_4_)" fill="#F4A28C" points="43.534,68.309 42.915,84.021 51.592,83.747 48.567,72.43 		"/>
		<path clip-path="url(#SVGID_4_)" fill="#24285B" d="M50.72,65.386c-1.453,0.228-2.928,0.289-4.395,0.183
			c1.026,1.217,1.23,2.929,0.518,4.354c-0.67,1.409-2.245,2.145-3.756,1.756l-0.639-6.09c-0.255-1.779,0.49-3.555,1.939-4.619
			c0.617-0.467,1.265-0.895,1.938-1.278c1.675-0.924,4.405,0,5.836-1.431c0.473-0.439,1.211-0.413,1.65,0.06
			c0.126,0.135,0.219,0.299,0.269,0.478c0.497,1.837,0.507,4.8-1.888,6.089C51.731,65.135,51.234,65.303,50.72,65.386"/>
		<path clip-path="url(#SVGID_4_)" fill="#F4A28C" d="M47.34,69.72c0,0-0.254-1.827-1.614-1.522
			c-1.36,0.304-1.015,2.953,0.893,2.973L47.34,69.72z"/>
		<path clip-path="url(#SVGID_4_)" fill="#F4A28C" d="M52.344,68.035l1.543,1.675c0.289,0.313,0.269,0.801-0.044,1.09
			c-0.084,0.077-0.183,0.134-0.291,0.169l-1.776,0.558L52.344,68.035z"/>
		<g opacity="0.31" clip-path="url(#SVGID_4_)" enable-background="new    ">
			<g>
				<defs>
					<rect id="SVGID_25_" x="46.325" y="73.547" width="3.938" height="5.288"/>
				</defs>
				<clipPath id="SVGID_26_">
					<use xlink:href="#SVGID_25_"  overflow="visible"/>
				</clipPath>
				<path clip-path="url(#SVGID_26_)" fill="#CE8172" d="M49.37,74.876c-1.125-0.13-2.185-0.593-3.045-1.33
					c0,0,0.467,2.842,3.939,5.288L49.37,74.876z"/>
			</g>
		</g>
		<path clip-path="url(#SVGID_4_)" fill="#53ACED" d="M42.915,84.021l8.678-0.274c0,0,19.051,4.06,23.72,28.248
			c4.67,24.187-8.688,45.817-8.688,45.817l-27.405,0.242C39.219,158.055,2.882,88.111,42.915,84.021"/>
		<path clip-path="url(#SVGID_4_)" fill="#24285B" d="M39.22,158.055c0,0,0.365,15.713,11.002,17.063
			c10.638,1.35,34.998-6.831,38.043,6.436c3.045,13.266-3.045,34.357-3.045,34.357l7.419,2.03c0,0,16.667-31.892,6.852-47.016
			c-9.815-15.123-32.835-13.194-32.835-13.194L39.22,158.055z"/>
		<g opacity="0.08" clip-path="url(#SVGID_4_)" enable-background="new    ">
			<g>
				<defs>
					<rect id="SVGID_27_" x="34.171" y="101.459" width="40.403" height="56.596"/>
				</defs>
				<clipPath id="SVGID_28_">
					<use xlink:href="#SVGID_27_"  overflow="visible"/>
				</clipPath>
				<path clip-path="url(#SVGID_28_)" d="M36.175,101.459c0,0-6.963,19.458,5.075,30.024c12.038,10.566,18.95,11.835,12.84,26.572
					l12.535-0.243c0,0,6.587-11.977,7.917-20.463C75.872,128.864,36.175,101.459,36.175,101.459"/>
			</g>
		</g>
		<path clip-path="url(#SVGID_4_)" fill="#53ACED" d="M56.617,91.888c-6.76-5.227-16.93-2.547-19.762,5.521
			c-0.87,2.512-0.895,5.239-0.071,7.766c3.218,10.322,8.292,24.359,27.243,29.434c18.95,5.075,34.844,8.871,36.367,2.233
			c1.523-6.639-2.71-15.104-18.27-20.301C71.061,112.777,65.213,98.526,56.617,91.888"/>
		<g opacity="0.46" clip-path="url(#SVGID_4_)" enable-background="new    ">
			<g>
				<defs>
					<rect id="SVGID_29_" x="36.183" y="89.197" width="64.501" height="51.195"/>
				</defs>
				<clipPath id="SVGID_30_">
					<use xlink:href="#SVGID_29_"  overflow="visible"/>
				</clipPath>
				<path clip-path="url(#SVGID_30_)" fill="#FFFFFF" d="M56.617,91.888c-6.76-5.227-16.93-2.547-19.762,5.521
					c-0.87,2.512-0.895,5.239-0.071,7.766c3.218,10.322,8.292,24.359,27.243,29.434c18.95,5.075,34.844,8.871,36.367,2.233
					c1.523-6.639-2.71-15.104-18.27-20.301C71.061,112.777,65.213,98.526,56.617,91.888"/>
			</g>
		</g>
		<path clip-path="url(#SVGID_4_)" fill="#F4A28C" d="M78.937,115.081c0,0,5.248-3.877,9.308,0S84.265,124.53,78.937,115.081"/>
		<g opacity="0.08" clip-path="url(#SVGID_4_)" enable-background="new    ">
			<g>
				<defs>
					<rect id="SVGID_31_" x="275.897" y="102.332" width="35.251" height="60.271"/>
				</defs>
				<clipPath id="SVGID_32_">
					<use xlink:href="#SVGID_31_"  overflow="visible"/>
				</clipPath>
				<path clip-path="url(#SVGID_32_)" d="M290.767,102.332c0,0-14.626,5.288-9.611,23.05c5.014,17.763-5.258,20.473-5.258,20.473
					l13.245,12.952l16.758,3.796l5.247-17.672L290.767,102.332z"/>
			</g>
		</g>
		<rect x="97.643" y="160.309" clip-path="url(#SVGID_4_)" fill="#A5A5A5" width="6.821" height="68.269"/>
		<rect x="238.779" y="160.309" clip-path="url(#SVGID_4_)" fill="#A5A5A5" width="6.82" height="68.269"/>
		<rect x="90.762" y="149.611" clip-path="url(#SVGID_4_)" fill="#E6E6E6" width="161.141" height="17.976"/>
		<path clip-path="url(#SVGID_4_)" fill="#F4A28C" d="M164.43,60.088c-0.266-0.34-0.332-0.796-0.172-1.198
			c0.274-0.659,0.812-1.522,1.694-1.39c0.884,0.131,1.077,1.583,0.457,2.547c-0.392,0.547-1.153,0.672-1.699,0.28
			c-0.108-0.077-0.203-0.172-0.28-0.28V60.088z"/>
		<path clip-path="url(#SVGID_4_)" fill="#F4A28C" d="M287.265,110.097c1.208-13.885,20.858-15.61,24.654-2.202
			c2.031,7.105,3.046,17.356,0.711,31.78c-5.593,34.773-72.583,12.18-72.583,12.18v-8.242c0,0,39.585,7.45,49.096-2.699
			C294.736,134.964,286.291,121.333,287.265,110.097"/>
		<polygon clip-path="url(#SVGID_4_)" fill="#FFD200" points="204.441,149.611 195.763,117.263 199.975,116.36 208.156,144.667 
			231.837,146.698 231.837,149.611 		"/>
		<path clip-path="url(#SVGID_4_)" fill="#F4A28C" d="M240.047,143.653c0,0-8.688-4.223-11.418-0.843
			c-2.729,3.38,0.427,8.455,11.418,9.085V143.653z"/>
		
			<rect x="238.774" y="142.191" transform="matrix(-0.9951 -0.0992 0.0992 -0.9951 465.6346 318.5793)" clip-path="url(#SVGID_4_)" fill="#53ACED" width="3.928" height="11.044"/>
		<polygon clip-path="url(#SVGID_4_)" fill="#C9C9C9" points="293.913,216.276 278.871,228.141 312.366,228.141 298.125,216.276 		
			"/>
		<path clip-path="url(#SVGID_4_)" fill="#53ACED" d="M289.143,92.781c-0.488-2.258,0.689-4.547,2.813-5.46
			c3.745-1.858,12.626-4.061,13.946,3.187C305.901,90.538,297.648,95.877,289.143,92.781"/>
		<g opacity="0.46" clip-path="url(#SVGID_4_)" enable-background="new    ">
			<g>
				<defs>
					<rect id="SVGID_33_" x="289.033" y="85.49" width="16.868" height="8.256"/>
				</defs>
				<clipPath id="SVGID_34_">
					<use xlink:href="#SVGID_33_"  overflow="visible"/>
				</clipPath>
				<path clip-path="url(#SVGID_34_)" fill="#FFFFFF" d="M289.143,92.781c-0.488-2.258,0.689-4.547,2.813-5.46
					c3.745-1.858,12.626-4.061,13.946,3.187C305.901,90.538,297.648,95.877,289.143,92.781"/>
			</g>
		</g>
	</g>
</g>
</svg>
