<?xml version="1.0" encoding="utf-8"?>
<!-- Generator: Adobe Illustrator 16.0.0, SVG Export Plug-In . SVG Version: 6.00 Build 0)  -->
<!DOCTYPE svg PUBLIC "-//W3C//DTD SVG 1.1//EN" "http://www.w3.org/Graphics/SVG/1.1/DTD/svg11.dtd">
<svg version="1.1" id="Layer_1" xmlns="http://www.w3.org/2000/svg" xmlns:xlink="http://www.w3.org/1999/xlink" x="0px" y="0px"
	 width="296.354px" height="233.095px" viewBox="0 0 296.354 233.095" enable-background="new 0 0 296.354 233.095"
	 xml:space="preserve">
<g>
	<defs>
		<rect id="SVGID_1_" width="296.354" height="233.095"/>
	</defs>
	<clipPath id="SVGID_2_">
		<use xlink:href="#SVGID_1_"  overflow="visible"/>
	</clipPath>
	<g clip-path="url(#SVGID_2_)">
		<defs>
			<rect id="SVGID_3_" width="296.354" height="233.095"/>
		</defs>
		<clipPath id="SVGID_4_">
			<use xlink:href="#SVGID_3_"  overflow="visible"/>
		</clipPath>
		<path clip-path="url(#SVGID_4_)" fill="#EC6952" d="M119.563,101.632c0,0-20.889,6.303-26.928,23.142
			c-6.039,16.84-0.589,48.212,23.649,67.274c24.238,19.063,62.819,3.959,62.819,3.959s26.501-35.799,15.347-61.601
			C183.295,108.605,164.853,82.57,119.563,101.632"/>
		<path clip-path="url(#SVGID_4_)" fill="#F4A28C" d="M79.593,173.647c0,0-11.043,43.645,5.542,43.645s44.903-0.629,44.903-0.629
			l-21.315-37.972L79.593,173.647z"/>
		<path clip-path="url(#SVGID_4_)" fill="#F4A28C" d="M121.522,101.704c0,0-11.784,12.708,0,20.462
			c11.784,7.755,26.044-3.451,22.634-11.337c-3.41-7.887-13.682-13.287-13.682-13.287L121.522,101.704z"/>
		<g opacity="0.09" clip-path="url(#SVGID_4_)" enable-background="new    ">
			<g>
				<defs>
					<rect id="SVGID_5_" x="116.285" y="97.542" width="28.385" height="27.239"/>
				</defs>
				<clipPath id="SVGID_6_">
					<use xlink:href="#SVGID_5_"  overflow="visible"/>
				</clipPath>
				<path clip-path="url(#SVGID_6_)" d="M121.522,101.704c0,0-11.784,12.708,0,20.462c11.784,7.755,26.044-3.451,22.634-11.337
					c-3.41-7.887-13.682-13.287-13.682-13.287L121.522,101.704z"/>
			</g>
		</g>
		<path clip-path="url(#SVGID_4_)" fill="#EC6952" d="M91.316,127.363c-5.44,11.389-13.855,31.465-13.378,46l30.785,5.339
			c0,0,17.174-40.479,0.416-55.094c-4.786-4.132-12.016-3.602-16.148,1.185C92.32,125.571,91.756,126.435,91.316,127.363"/>
		<g opacity="0.54" clip-path="url(#SVGID_4_)" enable-background="new    ">
			<g>
				<defs>
					<rect id="SVGID_7_" x="77.919" y="120.826" width="38.562" height="57.876"/>
				</defs>
				<clipPath id="SVGID_8_">
					<use xlink:href="#SVGID_7_"  overflow="visible"/>
				</clipPath>
				<path clip-path="url(#SVGID_8_)" fill="#FFFFFF" d="M91.316,127.363c-5.44,11.389-13.855,31.465-13.378,46l30.785,5.339
					c0,0,17.174-40.479,0.416-55.094c-4.786-4.132-12.016-3.602-16.148,1.185C92.32,125.571,91.756,126.435,91.316,127.363"/>
			</g>
		</g>
		<path clip-path="url(#SVGID_4_)" fill="#EC6952" d="M176.759,105.145c11.297,7.968,25.953,23.345,31.119,51.014l-28.136,10.464
			c0,0-24.015-24.41-22.329-52.17c0.44-6.791,6.304-11.939,13.095-11.498C172.752,103.101,174.914,103.857,176.759,105.145"/>
		<g opacity="0.54" clip-path="url(#SVGID_4_)" enable-background="new    ">
			<g>
				<defs>
					<rect id="SVGID_9_" x="157.328" y="102.928" width="50.551" height="63.694"/>
				</defs>
				<clipPath id="SVGID_10_">
					<use xlink:href="#SVGID_9_"  overflow="visible"/>
				</clipPath>
				<path clip-path="url(#SVGID_10_)" fill="#FFFFFF" d="M176.759,105.145c11.297,7.968,25.953,23.345,31.119,51.014l-28.136,10.464
					c0,0-24.015-24.41-22.329-52.17c0.44-6.791,6.304-11.939,13.095-11.498C172.752,103.101,174.914,103.857,176.759,105.145"/>
			</g>
		</g>
		<g opacity="0.58" clip-path="url(#SVGID_4_)" enable-background="new    ">
			<g>
				<defs>
					<rect id="SVGID_11_" x="27.3" y="186.88" width="19.762" height="16.262"/>
				</defs>
				<clipPath id="SVGID_12_">
					<use xlink:href="#SVGID_11_"  overflow="visible"/>
				</clipPath>
				<path clip-path="url(#SVGID_12_)" fill="#EC6952" d="M42.403,202.127c0,0-12.403-3.38-15.103-14.94
					c0,0,19.214-3.878,19.762,15.956L42.403,202.127z"/>
			</g>
		</g>
		<g opacity="0.73" clip-path="url(#SVGID_4_)" enable-background="new    ">
			<g>
				<defs>
					<rect id="SVGID_13_" x="39.754" y="174.398" width="12.941" height="26.532"/>
				</defs>
				<clipPath id="SVGID_14_">
					<use xlink:href="#SVGID_13_"  overflow="visible"/>
				</clipPath>
				<path clip-path="url(#SVGID_14_)" fill="#EC6952" d="M43.925,200.9c0,0-8.668-13.703-1.015-26.502c0,0,14.616,9.277,8.12,26.532
					L43.925,200.9z"/>
			</g>
		</g>
		<path clip-path="url(#SVGID_4_)" fill="#EC6952" d="M46.159,200.91c0,0,4.578-14.464,18.412-17.255c0,0,2.598,9.389-8.963,17.255
			H46.159z"/>
		<polygon clip-path="url(#SVGID_4_)" fill="#24285B" points="37.155,200.584 39.673,217.789 55.507,217.85 57.841,200.666 		"/>
		<path clip-path="url(#SVGID_4_)" fill="#F4A28C" d="M112.55,86.205c0,0,2.781,19.843,13.327,19.224
			c10.546-0.619,4.06-22.624,4.06-22.624s-1.421-11.165-7.684-11.165S107.881,72.492,112.55,86.205"/>
		<path clip-path="url(#SVGID_4_)" fill="#24285B" d="M111.362,88.732l2.142,2.03c0,0,10.819-5.745,10.819-14.515
			c0,0,2.03,7.592,6.517,10.414c0,0,4.486-15.306-3.878-17.011c0,0-2.669-4.344-5.369-4.649
			c-2.192-0.253-13.662,3.319-14.464,13.195C106.88,82.167,108.436,86.038,111.362,88.732"/>
		<path clip-path="url(#SVGID_4_)" fill="#F4A28C" d="M113.504,90.762c0,0-5.603-0.345-4.679,2.284
			c0.923,2.629,0.923,6.445,6.587,3.38L113.504,90.762z"/>
		<g opacity="0.09" clip-path="url(#SVGID_4_)" enable-background="new    ">
			<g>
				<defs>
					<rect id="SVGID_15_" x="121.897" y="111.163" width="43.667" height="58.567"/>
				</defs>
				<clipPath id="SVGID_16_">
					<use xlink:href="#SVGID_15_"  overflow="visible"/>
				</clipPath>
				<path clip-path="url(#SVGID_16_)" d="M123.816,111.163c0,0-5.207,4.547,1.533,8.039c6.739,3.492,4.882,36.724,14.646,45.32
					c9.765,8.597,25.569,3.958,25.569,3.958l-18.932-35.799l-3.745-17.894l-9.612-1.868L123.816,111.163z"/>
			</g>
		</g>
		<path clip-path="url(#SVGID_4_)" fill="#F4A28C" d="M130.464,86.265c0,0,4.902-2.74,5.207,0c0.304,2.741,1.959,6.212-4.466,5.908
			L130.464,86.265z"/>
		<path clip-path="url(#SVGID_4_)" fill="#F4A28C" d="M137.65,107.59c0,0-12.088-4.953-14.88,0
			c-2.791,4.954,13.317,8.678,13.317,8.678L137.65,107.59z"/>
		<path clip-path="url(#SVGID_4_)" fill="#F4A28C" d="M137.65,107.59c0,0-12.088-4.953-14.88,0
			c-2.791,4.954,13.317,8.678,13.317,8.678L137.65,107.59z"/>
		<path clip-path="url(#SVGID_4_)" fill="#F4A28C" d="M206.468,156.666c0,0,13.032,34.581-2.313,42.701
			c-15.348,8.12-58.941-36.479-68.066-83.128l1.563-8.678c0,0,15.367,16.93,21.172,27.171s23.781,24.035,23.781,24.035
			L206.468,156.666z"/>
		<polygon clip-path="url(#SVGID_4_)" fill="#FFD200" points="114.346,217.302 103.506,163.06 189.771,163.06 182.869,218.682 		"/>
		<path clip-path="url(#SVGID_4_)" fill="#FFFFFF" d="M146.623,183.706c3.274,0,5.928,2.653,5.928,5.928
			c0,3.273-2.653,5.927-5.928,5.927c-3.273,0-5.927-2.653-5.927-5.927C140.696,186.359,143.35,183.706,146.623,183.706"/>
		<rect x="22.692" y="216.064" clip-path="url(#SVGID_4_)" fill="#E6E6E6" width="239.733" height="17.031"/>
		<rect x="230.513" y="191.917" clip-path="url(#SVGID_4_)" fill="#C1C1C1" width="18.442" height="24.229"/>
		<path clip-path="url(#SVGID_4_)" fill="none" stroke="#C1C1C1" stroke-width="2.03" stroke-miterlimit="10.15" d="
			M234.258,197.997h-6.476c-3.851,0-6.973,3.122-6.973,6.973c-0.006,3.846,3.107,6.967,6.953,6.974h0.02h6.507"/>
		<path clip-path="url(#SVGID_4_)" fill="#E6E6E6" d="M241.404,199.63c2.981,0,5.399,2.418,5.399,5.4s-2.418,5.399-5.399,5.399
			s-5.4-2.417-5.4-5.399S238.423,199.63,241.404,199.63"/>
		<g opacity="0.38" clip-path="url(#SVGID_4_)" enable-background="new    ">
			<g>
				<defs>
					<rect id="SVGID_17_" x="231.721" y="130.5" width="64.633" height="61.416"/>
				</defs>
				<clipPath id="SVGID_18_">
					<use xlink:href="#SVGID_17_"  overflow="visible"/>
				</clipPath>
				<path clip-path="url(#SVGID_18_)" fill="#E6E6E6" d="M232.665,191.917c0,0-4.761-13.053,7.104-15.225s14.393-6.506,7.105-15.499
					c-7.288-8.993-5.075-15.499,2.143-16.737c7.216-1.238,17.802,11.814,23.069-4.061c5.269-15.875,15.814-10.211,19.844,0
					c4.029,10.21,11.165,26.329-10.546,27.567s-11.165,16.677-18.899,19.65c-4.392,1.713-8.891,3.134-13.468,4.253L232.665,191.917z
					"/>
			</g>
		</g>
		<g opacity="0.38" clip-path="url(#SVGID_4_)" enable-background="new    ">
			<g>
				<defs>
					<rect id="SVGID_19_" y="13.265" width="74.345" height="60.847"/>
				</defs>
				<clipPath id="SVGID_20_">
					<use xlink:href="#SVGID_19_"  overflow="visible"/>
				</clipPath>
				<path clip-path="url(#SVGID_20_)" fill="#E6E6E6" d="M6.962,39.068c-3.991,0.631-6.938,4.059-6.962,8.1
					c-0.029,4.557,3.643,8.274,8.2,8.302c0.394-0.005,0.788-0.035,1.178-0.091v0.091c0.001,2.761,0.961,5.435,2.715,7.567
					c4.182,5.082,11.691,5.811,16.773,1.629c0.899,4.237,4.026,7.653,8.168,8.921c6.293,1.927,12.956-1.613,14.883-7.906
					c6.039-0.001,11.119-4.527,11.814-10.525c0.769,0.229,1.566,0.346,2.368,0.345c4.558-0.004,8.249-3.702,8.245-8.259
					c-0.003-4.557-3.701-8.249-8.258-8.245h-0.233c2.101-4.158,1.583-9.159-1.327-12.797c-4.104-5.131-11.59-5.964-16.72-1.86
					c-0.442-6.308-5.738-11.171-12.061-11.073c-6.575,0.101-11.823,5.514-11.721,12.088c0,0.437,0.071,0.863,0.071,1.289
					c-1.659-0.847-3.495-1.289-5.359-1.289c-6.581,0-11.916,5.336-11.916,11.917c0.005,0.598,0.056,1.195,0.152,1.786L6.962,39.068z
					"/>
			</g>
		</g>
		<g opacity="0.38" clip-path="url(#SVGID_4_)" enable-background="new    ">
			<g>
				<defs>
					<rect id="SVGID_21_" x="52.135" y="67.316" width="24.915" height="19.352"/>
				</defs>
				<clipPath id="SVGID_22_">
					<use xlink:href="#SVGID_21_"  overflow="visible"/>
				</clipPath>
				<path clip-path="url(#SVGID_22_)" fill="#E6E6E6" d="M53.937,77.739c-1.326,0.499-2.065,1.915-1.716,3.288
					c0.378,1.489,1.892,2.389,3.381,2.01c0.128-0.029,0.253-0.07,0.375-0.121c0.217,0.857,0.708,1.62,1.398,2.173
					c1.75,1.402,4.305,1.12,5.707-0.631c0.627,1.226,1.834,2.051,3.205,2.189c2.231,0.226,4.222-1.399,4.448-3.63
					c1.96-0.494,3.258-2.355,3.045-4.364c0.269,0.022,0.54-0.003,0.802-0.071c0.19-0.023,0.377-0.064,0.559-0.125
					c1.462-0.488,2.252-2.069,1.764-3.531c-0.488-1.462-2.069-2.252-3.531-1.765h-0.081c0.142-0.597,0.142-1.219,0-1.817
					c-0.209-0.869-0.7-1.646-1.396-2.208c-1.743-1.41-4.299-1.139-5.709,0.605c-0.724-1.644-2.441-2.617-4.223-2.393
					c-2.225,0.28-3.801,2.31-3.522,4.535c0.03,0.141,0.071,0.28,0.122,0.416c-0.582-0.133-1.185-0.137-1.768-0.01
					c-2.191,0.477-3.581,2.64-3.104,4.831c0.046,0.197,0.107,0.391,0.183,0.578L53.937,77.739z"/>
			</g>
		</g>
		<g opacity="0.38" clip-path="url(#SVGID_4_)" enable-background="new    ">
			<g>
				<defs>
					<rect id="SVGID_23_" x="79.133" y="74.742" width="15.863" height="12.845"/>
				</defs>
				<clipPath id="SVGID_24_">
					<use xlink:href="#SVGID_23_"  overflow="visible"/>
				</clipPath>
				<path clip-path="url(#SVGID_24_)" fill="#E6E6E6" d="M80.225,81.759c-0.789,0.336-1.23,1.185-1.053,2.024
					c0.205,0.971,1.158,1.592,2.129,1.386l0.244-0.081c0.133,0.587,0.466,1.109,0.942,1.478c1.134,0.879,2.767,0.672,3.646-0.463
					c0.399,0.847,1.225,1.412,2.159,1.478c1.427,0.099,2.663-0.975,2.763-2.402c1.297-0.278,2.174-1.492,2.03-2.811
					c0.176,0.011,0.352-0.004,0.523-0.044c0.967-0.225,1.567-1.191,1.341-2.158c-0.225-0.966-1.192-1.566-2.158-1.341
					c0.091-0.383,0.091-0.783,0-1.167c-0.134-0.559-0.45-1.057-0.899-1.417c-1.116-0.893-2.745-0.713-3.638,0.402
					c-0.382-1.379-1.808-2.188-3.187-1.806c-1.379,0.381-2.188,1.808-1.807,3.187c0.021,0.089,0.048,0.178,0.081,0.264
					c-0.393-0.097-0.804-0.097-1.198,0c-0.006,0.001-0.014,0.003-0.021,0.005c-1.385,0.326-2.244,1.715-1.917,3.101
					c0.03,0.132,0.111,0.253,0.111,0.375L80.225,81.759z"/>
			</g>
		</g>
		<g opacity="0.38" clip-path="url(#SVGID_4_)" enable-background="new    ">
			<g>
				<defs>
					<rect id="SVGID_25_" x="188.508" width="91.602" height="146.387"/>
				</defs>
				<clipPath id="SVGID_26_">
					<use xlink:href="#SVGID_25_"  overflow="visible"/>
				</clipPath>
				<path clip-path="url(#SVGID_26_)" fill="#E6E6E6" d="M280.11,36.817c0,5.339-0.831,10.124-2.491,14.355
					c-1.66,4.233-4.15,8.106-7.471,11.621c-3.32,3.516-7.471,6.755-12.451,9.717c-4.98,2.963-10.791,5.811-17.432,8.545
					l-4.004,18.164h-12.207l-4.004-24.609c5.729-2.279,10.416-4.964,14.063-8.057c3.646-3.091,6.526-6.412,8.643-9.961
					c2.115-3.548,3.565-7.275,4.346-11.182c0.781-3.906,1.172-7.844,1.172-11.816c0-3.189-0.293-6.104-0.879-8.74
					c-0.586-2.637-1.514-4.915-2.782-6.836c-1.271-1.92-2.898-3.402-4.884-4.444c-1.986-1.04-4.346-1.562-7.08-1.562
					c-2.994,0-5.502,0.684-7.52,2.051c-2.018,1.367-3.646,3.19-4.883,5.468c-1.237,2.28-2.133,4.949-2.686,8.008
					c-0.554,3.061-0.83,6.284-0.83,9.668c-4.102,0-7.878-0.293-11.327-0.879c-3.452-0.586-6.431-1.448-8.937-2.588
					c-2.507-1.138-4.46-2.587-5.859-4.345c-1.4-1.758-2.1-3.809-2.1-6.153c0-3.254,0.846-6.298,2.539-9.13
					c1.692-2.832,4.28-5.289,7.764-7.373c3.482-2.083,7.894-3.727,13.232-4.932C217.381,0.603,223.729,0,231.086,0
					c7.031,0,13.541,0.83,19.531,2.49c5.989,1.661,11.165,4.07,15.527,7.227c4.361,3.159,7.779,7.016,10.254,11.572
					C278.872,25.847,280.11,31.023,280.11,36.817 M213.508,130.469c0-3.06,0.423-5.615,1.271-7.666
					c0.845-2.051,2.001-3.694,3.466-4.932c1.465-1.235,3.206-2.114,5.225-2.636c2.019-0.521,4.166-0.782,6.445-0.782
					c2.213,0,4.313,0.261,6.299,0.782c1.985,0.522,3.727,1.401,5.225,2.636c1.497,1.237,2.686,2.881,3.564,4.932
					s1.319,4.606,1.319,7.666c0,2.995-0.44,5.503-1.319,7.52c-0.879,2.019-2.067,3.647-3.564,4.883
					c-1.498,1.237-3.239,2.132-5.225,2.686c-1.986,0.553-4.086,0.83-6.299,0.83c-2.279,0-4.427-0.277-6.445-0.83
					c-2.019-0.554-3.76-1.448-5.225-2.686c-1.465-1.235-2.621-2.864-3.466-4.883C213.931,135.972,213.508,133.464,213.508,130.469"
					/>
			</g>
		</g>
	</g>
</g>
</svg>
