<?xml version="1.0" encoding="utf-8"?>
<!-- Generator: Adobe Illustrator 16.0.0, SVG Export Plug-In . SVG Version: 6.00 Build 0)  -->
<!DOCTYPE svg PUBLIC "-//W3C//DTD SVG 1.1//EN" "http://www.w3.org/Graphics/SVG/1.1/DTD/svg11.dtd">
<svg version="1.1" id="Layer_1" xmlns="http://www.w3.org/2000/svg" xmlns:xlink="http://www.w3.org/1999/xlink" x="0px" y="0px"
	 width="286.987px" height="207.618px" viewBox="0 0 286.987 207.618" enable-background="new 0 0 286.987 207.618"
	 xml:space="preserve">
<g>
	<defs>
		<rect id="SVGID_1_" width="286.987" height="207.618"/>
	</defs>
	<clipPath id="SVGID_2_">
		<use xlink:href="#SVGID_1_"  overflow="visible"/>
	</clipPath>
	<rect x="92.25" clip-path="url(#SVGID_2_)" fill="#E6E6E6" width="194.737" height="158.939"/>
	<g clip-path="url(#SVGID_2_)">
		<defs>
			<rect id="SVGID_3_" width="286.987" height="207.618"/>
		</defs>
		<clipPath id="SVGID_4_">
			<use xlink:href="#SVGID_3_"  overflow="visible"/>
		</clipPath>
		<g opacity="0.35" clip-path="url(#SVGID_4_)" enable-background="new    ">
			<g>
				<defs>
					<rect id="SVGID_5_" x="123.522" y="90.731" width="66.097" height="41.493"/>
				</defs>
				<clipPath id="SVGID_6_">
					<use xlink:href="#SVGID_5_"  overflow="visible"/>
				</clipPath>
				<rect x="123.522" y="90.73" clip-path="url(#SVGID_6_)" fill="#FFFFFF" width="66.097" height="41.495"/>
			</g>
		</g>
		<g opacity="0.08" clip-path="url(#SVGID_4_)" enable-background="new    ">
			<g>
				<defs>
					<rect id="SVGID_7_" x="92.25" y="71.385" width="75.486" height="87.553"/>
				</defs>
				<clipPath id="SVGID_8_">
					<use xlink:href="#SVGID_7_"  overflow="visible"/>
				</clipPath>
				<polygon clip-path="url(#SVGID_8_)" points="145.151,71.385 167.735,72.968 151.911,158.938 92.25,158.938 92.25,117.648 				
					"/>
			</g>
		</g>
		<g opacity="0.35" clip-path="url(#SVGID_4_)" enable-background="new    ">
			<g>
				<defs>
					<rect id="SVGID_9_" x="113.027" y="22.634" width="76.582" height="56.505"/>
				</defs>
				<clipPath id="SVGID_10_">
					<use xlink:href="#SVGID_9_"  overflow="visible"/>
				</clipPath>
				<rect x="113.027" y="22.634" clip-path="url(#SVGID_10_)" fill="#FFFFFF" width="76.583" height="56.505"/>
			</g>
		</g>
	</g>
	
		<polyline clip-path="url(#SVGID_2_)" fill="none" stroke="#C1C1C1" stroke-width="2.03" stroke-linecap="round" stroke-linejoin="round" stroke-miterlimit="4.06" points="
		123.521,66.685 131.733,51.217 144.837,58.9 155.972,42.366 167.745,48.831 176.656,34.753 	"/>
	<g clip-path="url(#SVGID_2_)">
		<defs>
			<rect id="SVGID_11_" width="286.987" height="207.618"/>
		</defs>
		<clipPath id="SVGID_12_">
			<use xlink:href="#SVGID_11_"  overflow="visible"/>
		</clipPath>
		<path clip-path="url(#SVGID_12_)" fill="#24285B" d="M176.251,32.703c1.491,0,2.7,1.208,2.7,2.7c0,1.491-1.209,2.7-2.7,2.7
			s-2.699-1.209-2.699-2.7C173.552,33.911,174.76,32.703,176.251,32.703"/>
		<path clip-path="url(#SVGID_12_)" fill="#EC6952" d="M155.81,39.859c1.489,0,2.698,1.208,2.698,2.7c0,1.491-1.209,2.7-2.698,2.7
			c-1.491,0-2.7-1.209-2.7-2.7C153.109,41.067,154.318,39.859,155.81,39.859"/>
		<polygon clip-path="url(#SVGID_12_)" fill="#FFD200" points="67.575,125.941 84.13,62.646 151.911,66.685 136.869,132.224 		"/>
		<polygon clip-path="url(#SVGID_12_)" fill="#F4A28C" points="49.437,46.203 45.083,71.385 60.237,75.821 57.476,54.78 		"/>
		<g opacity="0.31" clip-path="url(#SVGID_12_)" enable-background="new    ">
			<g>
				<defs>
					<rect id="SVGID_13_" x="53.203" y="56.261" width="5.806" height="10.424"/>
				</defs>
				<clipPath id="SVGID_14_">
					<use xlink:href="#SVGID_13_"  overflow="visible"/>
				</clipPath>
				<path clip-path="url(#SVGID_14_)" fill="#CE8172" d="M58.278,59.367c-1.96-0.514-3.726-1.594-5.075-3.106
					c0,0,0.152,5.207,5.805,10.424L58.278,59.367z"/>
			</g>
		</g>
		<path clip-path="url(#SVGID_12_)" fill="#F4A28C" d="M65.372,45.33c0,0,0.142,8.688-1.715,14.322
			c-0.759,2.288-3.228,3.528-5.516,2.769c-0.009-0.003-0.018-0.006-0.026-0.008c-2.822-1.016-6.364-3.117-7.004-7.765l-2.03-7.755
			c0,0-1.116-4.902,4.06-8.12C58.318,35.556,65.555,40.032,65.372,45.33"/>
		<path clip-path="url(#SVGID_12_)" fill="#F4A28C" d="M55.638,52.14c0,0,0.173-3.339-2.345-3.258
			c-2.517,0.081-2.811,4.903,0.569,5.592L55.638,52.14z"/>
		<path clip-path="url(#SVGID_12_)" fill="#F4A28C" d="M65.18,50.8l2.182,3.512c0.404,0.659,0.198,1.522-0.462,1.926
			c-0.168,0.104-0.357,0.17-0.553,0.195l-3.359,0.386L65.18,50.8z"/>
		<g opacity="0.08" clip-path="url(#SVGID_12_)" enable-background="new    ">
			<g>
				<defs>
					<rect id="SVGID_15_" x="79.41" y="62.646" width="33.657" height="67.416"/>
				</defs>
				<clipPath id="SVGID_16_">
					<use xlink:href="#SVGID_15_"  overflow="visible"/>
				</clipPath>
				<path clip-path="url(#SVGID_16_)" d="M84.13,62.646l15.743,0.944c0,0-6.151,49.521,13.194,66.473l-26.552-2.812l-7.105-22.433
					l1.442-29.506L84.13,62.646z"/>
			</g>
		</g>
		<path clip-path="url(#SVGID_12_)" fill="#EC6952" d="M6.807,184.436c0,0-17.895-70.207,4.344-93.989
			C33.39,66.665,56.247,67.842,73.432,79.19c17.184,11.348,32.937,27.182,8.597,105.245H6.807z"/>
		<path clip-path="url(#SVGID_12_)" fill="#F4A28C" d="M73.868,82.316c0,0,6.922-9.419,10.262-6.496
			c3.339,2.923-2.924,5.674-1.817,10.271C83.419,90.69,71.96,87.797,73.868,82.316"/>
		<path clip-path="url(#SVGID_12_)" fill="#24285B" d="M46.767,49.887c0,0-2.03,6.861,2.781,8.698
			c4.811,1.838,8.303-4.628,9.612-10.15c0,0,7.948-0.223,8.12-5.247c0.173-5.025-1.695-9.064-8.78-8.384
			C51.417,35.484,46.381,36.763,46.767,49.887"/>
		<path clip-path="url(#SVGID_12_)" fill="#EC6952" d="M58.491,89.614c1.087-6.798,7.478-11.427,14.276-10.34
			c0.617,0.098,1.226,0.243,1.822,0.433c8.556,2.558,15.124,12.982,18.138,23.629c6.202,21.955-0.893,49.401,16.047,46.051
			c16.941-3.351,8.587-53.693,8.587-53.693l10.028-0.477c0,0,18.849,73.029-21.954,77.322
			C69.483,176.325,52.319,124.297,58.491,89.614"/>
		<g opacity="0.44" clip-path="url(#SVGID_12_)" enable-background="new    ">
			<g>
				<defs>
					<rect id="SVGID_17_" x="57.256" y="79.116" width="74.479" height="93.619"/>
				</defs>
				<clipPath id="SVGID_18_">
					<use xlink:href="#SVGID_17_"  overflow="visible"/>
				</clipPath>
				<path clip-path="url(#SVGID_18_)" fill="#FFFFFF" d="M58.491,89.614c1.087-6.798,7.478-11.427,14.276-10.34
					c0.617,0.098,1.226,0.243,1.822,0.433c8.556,2.558,15.124,12.982,18.138,23.629c6.202,21.955-0.893,49.401,16.047,46.051
					c16.941-3.351,8.587-53.693,8.587-53.693l10.028-0.477c0,0,18.849,73.029-21.954,77.322
					C69.483,176.325,52.319,124.297,58.491,89.614"/>
			</g>
		</g>
		
			<rect x="125.347" y="75.808" transform="matrix(-0.9099 0.4147 -0.4147 -0.9099 277.329 111.9587)" clip-path="url(#SVGID_12_)" fill="#24285B" width="2.324" height="20.564"/>
		<g opacity="0.08" clip-path="url(#SVGID_12_)" enable-background="new    ">
			<g>
				<defs>
					<rect id="SVGID_19_" x="0.145" y="71.425" width="49.78" height="113.02"/>
				</defs>
				<clipPath id="SVGID_20_">
					<use xlink:href="#SVGID_19_"  overflow="visible"/>
				</clipPath>
				<path clip-path="url(#SVGID_20_)" d="M45.083,71.425c0,0-19.812,19.782-16.311,45.675c3.502,25.892,21.153,67.346,21.153,67.346
					H6.807c0,0-12.688-46.914-3.045-80.835C3.731,103.602,9.841,79.444,45.083,71.425"/>
			</g>
		</g>
		<path clip-path="url(#SVGID_12_)" fill="#F4A28C" d="M119.198,95.613c0,0,0.73-13.753,8.84-13.276s-0.649,12.88-0.649,12.88
			L119.198,95.613z"/>
		<polygon clip-path="url(#SVGID_12_)" fill="#24285B" points="6.807,184.436 13.496,207.618 90.342,207.618 81.988,184.436 		"/>
		<path clip-path="url(#SVGID_12_)" fill="#24285B" d="M232.573,26.075c-13.886,0-25.143,11.256-25.143,25.142
			c0,13.885,11.257,25.141,25.143,25.141s25.142-11.256,25.142-25.141h-25.142V26.075z"/>
		<path clip-path="url(#SVGID_12_)" fill="#EC6952" d="M237.425,19.782v25.142h25.142C262.566,31.039,251.311,19.782,237.425,19.782
			"/>
		<rect x="223.387" y="148.322" clip-path="url(#SVGID_12_)" fill="#FFD200" width="29.191" height="25.05"/>
		<g opacity="0.53" clip-path="url(#SVGID_12_)" enable-background="new    ">
			<g>
				<defs>
					<rect id="SVGID_21_" x="234.482" y="142.77" width="7.003" height="10.354"/>
				</defs>
				<clipPath id="SVGID_22_">
					<use xlink:href="#SVGID_21_"  overflow="visible"/>
				</clipPath>
				<rect x="234.481" y="142.771" clip-path="url(#SVGID_22_)" fill="#FFFFFF" width="7.004" height="10.353"/>
			</g>
		</g>
		<rect x="211.654" y="90.73" clip-path="url(#SVGID_12_)" fill="#C1C1C1" width="49.155" height="41.495"/>
		<rect x="220.728" y="100.272" clip-path="url(#SVGID_12_)" fill="#24285B" width="6.051" height="6.049"/>
		<rect x="220.728" y="115.233" clip-path="url(#SVGID_12_)" fill="#EC6952" width="6.051" height="6.049"/>
		<g opacity="0.08" clip-path="url(#SVGID_12_)" enable-background="new    ">
			<g>
				<defs>
					<rect id="SVGID_23_" x="233.213" y="100.272" width="18.534" height="6.049"/>
				</defs>
				<clipPath id="SVGID_24_">
					<use xlink:href="#SVGID_23_"  overflow="visible"/>
				</clipPath>
				<path clip-path="url(#SVGID_24_)" d="M236.237,100.272h12.484c1.671,0,3.025,1.354,3.025,3.024s-1.354,3.025-3.025,3.025
					h-12.484c-1.67,0-3.024-1.354-3.024-3.025S234.567,100.272,236.237,100.272"/>
			</g>
		</g>
		<g opacity="0.08" clip-path="url(#SVGID_12_)" enable-background="new    ">
			<g>
				<defs>
					<rect id="SVGID_25_" x="233.213" y="115.232" width="18.534" height="6.05"/>
				</defs>
				<clipPath id="SVGID_26_">
					<use xlink:href="#SVGID_25_"  overflow="visible"/>
				</clipPath>
				<path clip-path="url(#SVGID_26_)" d="M236.237,115.233h12.484c1.671,0,3.025,1.354,3.025,3.023c0,1.671-1.354,3.025-3.025,3.025
					h-12.484c-1.67,0-3.024-1.354-3.024-3.025C233.213,116.587,234.567,115.233,236.237,115.233"/>
			</g>
		</g>
		<path clip-path="url(#SVGID_12_)" fill="#C1C1C1" d="M125.826,28.999c2.679,0,4.852,2.172,4.852,4.852
			c0,2.679-2.173,4.851-4.852,4.851c-2.68,0-4.852-2.172-4.852-4.851C120.974,31.171,123.146,28.999,125.826,28.999"/>
	</g>
</g>
</svg>
