<?xml version="1.0" encoding="utf-8"?>
<!-- Generator: Adobe Illustrator 16.0.0, SVG Export Plug-In . SVG Version: 6.00 Build 0)  -->
<!DOCTYPE svg PUBLIC "-//W3C//DTD SVG 1.1//EN" "http://www.w3.org/Graphics/SVG/1.1/DTD/svg11.dtd">
<svg version="1.1" id="Layer_1" xmlns="http://www.w3.org/2000/svg" xmlns:xlink="http://www.w3.org/1999/xlink" x="0px" y="0px"
	 width="243.438px" height="223.992px" viewBox="0 0 243.438 223.992" enable-background="new 0 0 243.438 223.992"
	 xml:space="preserve">
<g>
	<defs>
		<rect id="SVGID_1_" width="243.438" height="223.992"/>
	</defs>
	<clipPath id="SVGID_2_">
		<use xlink:href="#SVGID_1_"  overflow="visible"/>
	</clipPath>
	<g clip-path="url(#SVGID_2_)">
		<defs>
			<rect id="SVGID_3_" width="243.438" height="223.992"/>
		</defs>
		<clipPath id="SVGID_4_">
			<use xlink:href="#SVGID_3_"  overflow="visible"/>
		</clipPath>
		<g opacity="0.3" clip-path="url(#SVGID_4_)" enable-background="new    ">
			<g>
				<defs>
					<rect id="SVGID_5_" y="5.938" width="243.438" height="212.115"/>
				</defs>
				<clipPath id="SVGID_6_">
					<use xlink:href="#SVGID_5_"  overflow="visible"/>
				</clipPath>
				<path clip-path="url(#SVGID_6_)" fill="#E6E6E6" d="M121.719,5.938c67.224,0,121.719,47.483,121.719,106.057
					c0,58.574-54.495,106.058-121.719,106.058C54.495,218.053,0,170.569,0,111.995C0,53.421,54.495,5.938,121.719,5.938"/>
			</g>
		</g>
	</g>
	<rect x="168.368" y="199.965" clip-path="url(#SVGID_2_)" fill="#E6E6E6" width="60.829" height="16.018"/>
	<g clip-path="url(#SVGID_2_)">
		<defs>
			<rect id="SVGID_7_" width="243.438" height="223.992"/>
		</defs>
		<clipPath id="SVGID_8_">
			<use xlink:href="#SVGID_7_"  overflow="visible"/>
		</clipPath>
		<g opacity="0.43" clip-path="url(#SVGID_8_)" enable-background="new    ">
			<g>
				<defs>
					<rect id="SVGID_9_" x="155.072" y="184.304" width="60.829" height="16.017"/>
				</defs>
				<clipPath id="SVGID_10_">
					<use xlink:href="#SVGID_9_"  overflow="visible"/>
				</clipPath>
				<rect x="155.071" y="184.304" clip-path="url(#SVGID_10_)" fill="#E6E6E6" width="60.829" height="16.018"/>
			</g>
		</g>
	</g>
	<rect x="70.329" clip-path="url(#SVGID_2_)" fill="#C9C9C9" width="120.43" height="215.981"/>
	<rect x="80.296" y="24.624" clip-path="url(#SVGID_2_)" fill="#FFFFFF" width="99.683" height="151.996"/>
	<g clip-path="url(#SVGID_2_)">
		<defs>
			<rect id="SVGID_11_" width="243.438" height="223.992"/>
		</defs>
		<clipPath id="SVGID_12_">
			<use xlink:href="#SVGID_11_"  overflow="visible"/>
		</clipPath>
		<g opacity="0.56" clip-path="url(#SVGID_12_)" enable-background="new    ">
			<g>
				<defs>
					<rect id="SVGID_13_" x="119.12" y="184.304" width="23.569" height="23.568"/>
				</defs>
				<clipPath id="SVGID_14_">
					<use xlink:href="#SVGID_13_"  overflow="visible"/>
				</clipPath>
				<path clip-path="url(#SVGID_14_)" fill="#FFFFFF" d="M130.904,184.304c6.509,0,11.784,5.276,11.784,11.784
					s-5.275,11.784-11.784,11.784c-6.508,0-11.784-5.276-11.784-11.784S124.396,184.304,130.904,184.304"/>
			</g>
		</g>
		<g opacity="0.12" clip-path="url(#SVGID_12_)" enable-background="new    ">
			<g>
				<defs>
					<rect id="SVGID_15_" x="120.359" y="8.445" width="33.769" height="4.923"/>
				</defs>
				<clipPath id="SVGID_16_">
					<use xlink:href="#SVGID_15_"  overflow="visible"/>
				</clipPath>
				<rect x="120.359" y="8.445" clip-path="url(#SVGID_16_)" width="33.769" height="4.923"/>
			</g>
		</g>
		<path clip-path="url(#SVGID_12_)" fill="#FFFFFF" d="M108.128,5.938c3.038,0,5.501,2.463,5.501,5.501
			c0,3.039-2.463,5.501-5.501,5.501s-5.501-2.462-5.501-5.501C102.627,8.401,105.09,5.938,108.128,5.938"/>
		<path clip-path="url(#SVGID_12_)" fill="#24285B" d="M98.404,50.324h67.984c2.814,0,5.096,2.281,5.096,5.095v5.248
			c0,2.814-2.281,5.095-5.096,5.095H98.404c-2.814,0-5.095-2.281-5.095-5.095v-5.248C93.309,52.605,95.59,50.324,98.404,50.324"/>
		<path clip-path="url(#SVGID_12_)" fill="#EC6952" d="M160.948,58.657c0,0-3.431,0-3.918,7.836c-0.487,7.836,0,133.98,0,144.75
			c0,10.769-15.936,12.748-15.936,12.748H93.299V66.493c0-8.333,6.374-7.836,6.374-7.836H160.948z"/>
		<g opacity="0.5" clip-path="url(#SVGID_12_)">
			<g>
				<defs>
					<rect id="SVGID_17_" x="101.003" y="70.167" width="47.288" height="139.857"/>
				</defs>
				<clipPath id="SVGID_18_">
					<use xlink:href="#SVGID_17_"  overflow="visible"/>
				</clipPath>
				<g opacity="0.1" clip-path="url(#SVGID_18_)" enable-background="new    ">
					<g>
						<defs>
							<rect id="SVGID_19_" x="101.003" y="70.167" width="18.412" height="4.659"/>
						</defs>
						<clipPath id="SVGID_20_">
							<use xlink:href="#SVGID_19_"  overflow="visible"/>
						</clipPath>
						<rect x="101.002" y="70.167" clip-path="url(#SVGID_20_)" width="18.412" height="4.659"/>
					</g>
				</g>
				<g opacity="0.1" clip-path="url(#SVGID_18_)" enable-background="new    ">
					<g>
						<defs>
							<rect id="SVGID_21_" x="133.96" y="70.167" width="14.331" height="4.659"/>
						</defs>
						<clipPath id="SVGID_22_">
							<use xlink:href="#SVGID_21_"  overflow="visible"/>
						</clipPath>
						<rect x="133.96" y="70.167" clip-path="url(#SVGID_22_)" width="14.331" height="4.659"/>
					</g>
				</g>
				<g opacity="0.1" clip-path="url(#SVGID_18_)" enable-background="new    ">
					<g>
						<defs>
							<rect id="SVGID_23_" x="101.003" y="82.489" width="24.258" height="4.659"/>
						</defs>
						<clipPath id="SVGID_24_">
							<use xlink:href="#SVGID_23_"  overflow="visible"/>
						</clipPath>
						<rect x="101.002" y="82.489" clip-path="url(#SVGID_24_)" width="24.258" height="4.659"/>
					</g>
				</g>
				<g opacity="0.1" clip-path="url(#SVGID_18_)" enable-background="new    ">
					<g>
						<defs>
							<rect id="SVGID_25_" x="133.96" y="82.489" width="14.331" height="4.659"/>
						</defs>
						<clipPath id="SVGID_26_">
							<use xlink:href="#SVGID_25_"  overflow="visible"/>
						</clipPath>
						<rect x="133.96" y="82.489" clip-path="url(#SVGID_26_)" width="14.331" height="4.659"/>
					</g>
				</g>
				<g opacity="0.1" clip-path="url(#SVGID_18_)" enable-background="new    ">
					<g>
						<defs>
							<rect id="SVGID_27_" x="101.003" y="94.801" width="20.249" height="4.659"/>
						</defs>
						<clipPath id="SVGID_28_">
							<use xlink:href="#SVGID_27_"  overflow="visible"/>
						</clipPath>
						<rect x="101.002" y="94.801" clip-path="url(#SVGID_28_)" width="20.25" height="4.659"/>
					</g>
				</g>
				<g opacity="0.1" clip-path="url(#SVGID_18_)" enable-background="new    ">
					<g>
						<defs>
							<rect id="SVGID_29_" x="133.96" y="94.801" width="14.331" height="4.659"/>
						</defs>
						<clipPath id="SVGID_30_">
							<use xlink:href="#SVGID_29_"  overflow="visible"/>
						</clipPath>
						<rect x="133.96" y="94.801" clip-path="url(#SVGID_30_)" width="14.331" height="4.659"/>
					</g>
				</g>
				<g opacity="0.1" clip-path="url(#SVGID_18_)" enable-background="new    ">
					<g>
						<defs>
							<rect id="SVGID_31_" x="101.003" y="107.113" width="24.258" height="4.659"/>
						</defs>
						<clipPath id="SVGID_32_">
							<use xlink:href="#SVGID_31_"  overflow="visible"/>
						</clipPath>
						<rect x="101.002" y="107.113" clip-path="url(#SVGID_32_)" width="24.258" height="4.659"/>
					</g>
				</g>
				<g opacity="0.1" clip-path="url(#SVGID_18_)" enable-background="new    ">
					<g>
						<defs>
							<rect id="SVGID_33_" x="133.96" y="107.113" width="14.331" height="4.659"/>
						</defs>
						<clipPath id="SVGID_34_">
							<use xlink:href="#SVGID_33_"  overflow="visible"/>
						</clipPath>
						<rect x="133.96" y="107.113" clip-path="url(#SVGID_34_)" width="14.331" height="4.659"/>
					</g>
				</g>
				<g opacity="0.1" clip-path="url(#SVGID_18_)" enable-background="new    ">
					<g>
						<defs>
							<rect id="SVGID_35_" x="101.003" y="119.425" width="16.209" height="4.659"/>
						</defs>
						<clipPath id="SVGID_36_">
							<use xlink:href="#SVGID_35_"  overflow="visible"/>
						</clipPath>
						<rect x="101.002" y="119.425" clip-path="url(#SVGID_36_)" width="16.209" height="4.659"/>
					</g>
				</g>
				<g opacity="0.1" clip-path="url(#SVGID_18_)" enable-background="new    ">
					<g>
						<defs>
							<rect id="SVGID_37_" x="133.96" y="119.425" width="14.331" height="4.659"/>
						</defs>
						<clipPath id="SVGID_38_">
							<use xlink:href="#SVGID_37_"  overflow="visible"/>
						</clipPath>
						<rect x="133.96" y="119.425" clip-path="url(#SVGID_38_)" width="14.331" height="4.659"/>
					</g>
				</g>
				<g opacity="0.1" clip-path="url(#SVGID_18_)" enable-background="new    ">
					<g>
						<defs>
							<rect id="SVGID_39_" x="101.003" y="131.747" width="26.308" height="4.659"/>
						</defs>
						<clipPath id="SVGID_40_">
							<use xlink:href="#SVGID_39_"  overflow="visible"/>
						</clipPath>
						<rect x="101.002" y="131.747" clip-path="url(#SVGID_40_)" width="26.309" height="4.659"/>
					</g>
				</g>
				<g opacity="0.1" clip-path="url(#SVGID_18_)" enable-background="new    ">
					<g>
						<defs>
							<rect id="SVGID_41_" x="133.96" y="131.747" width="14.331" height="4.659"/>
						</defs>
						<clipPath id="SVGID_42_">
							<use xlink:href="#SVGID_41_"  overflow="visible"/>
						</clipPath>
						<rect x="133.96" y="131.747" clip-path="url(#SVGID_42_)" width="14.331" height="4.659"/>
					</g>
				</g>
				<g opacity="0.1" clip-path="url(#SVGID_18_)" enable-background="new    ">
					<g>
						<defs>
							<rect id="SVGID_43_" x="101.003" y="144.06" width="20.249" height="4.658"/>
						</defs>
						<clipPath id="SVGID_44_">
							<use xlink:href="#SVGID_43_"  overflow="visible"/>
						</clipPath>
						<rect x="101.002" y="144.06" clip-path="url(#SVGID_44_)" width="20.25" height="4.658"/>
					</g>
				</g>
				<g opacity="0.1" clip-path="url(#SVGID_18_)" enable-background="new    ">
					<g>
						<defs>
							<rect id="SVGID_45_" x="133.96" y="144.06" width="14.331" height="4.658"/>
						</defs>
						<clipPath id="SVGID_46_">
							<use xlink:href="#SVGID_45_"  overflow="visible"/>
						</clipPath>
						<rect x="133.96" y="144.06" clip-path="url(#SVGID_46_)" width="14.331" height="4.658"/>
					</g>
				</g>
				<g opacity="0.1" clip-path="url(#SVGID_18_)" enable-background="new    ">
					<g>
						<defs>
							<rect id="SVGID_47_" x="101.003" y="156.371" width="12.129" height="4.659"/>
						</defs>
						<clipPath id="SVGID_48_">
							<use xlink:href="#SVGID_47_"  overflow="visible"/>
						</clipPath>
						<rect x="101.002" y="156.371" clip-path="url(#SVGID_48_)" width="12.129" height="4.658"/>
					</g>
				</g>
				<g opacity="0.1" clip-path="url(#SVGID_18_)" enable-background="new    ">
					<g>
						<defs>
							<rect id="SVGID_49_" x="133.96" y="156.371" width="14.331" height="4.659"/>
						</defs>
						<clipPath id="SVGID_50_">
							<use xlink:href="#SVGID_49_"  overflow="visible"/>
						</clipPath>
						<rect x="133.96" y="156.371" clip-path="url(#SVGID_50_)" width="14.331" height="4.658"/>
					</g>
				</g>
				<g opacity="0.1" clip-path="url(#SVGID_18_)" enable-background="new    ">
					<g>
						<defs>
							<rect id="SVGID_51_" x="101.003" y="168.683" width="21.162" height="4.659"/>
						</defs>
						<clipPath id="SVGID_52_">
							<use xlink:href="#SVGID_51_"  overflow="visible"/>
						</clipPath>
						<rect x="101.002" y="168.684" clip-path="url(#SVGID_52_)" width="21.163" height="4.658"/>
					</g>
				</g>
				<g opacity="0.1" clip-path="url(#SVGID_18_)" enable-background="new    ">
					<g>
						<defs>
							<rect id="SVGID_53_" x="133.96" y="168.683" width="14.331" height="4.659"/>
						</defs>
						<clipPath id="SVGID_54_">
							<use xlink:href="#SVGID_53_"  overflow="visible"/>
						</clipPath>
						<rect x="133.96" y="168.684" clip-path="url(#SVGID_54_)" width="14.331" height="4.658"/>
					</g>
				</g>
				<g opacity="0.1" clip-path="url(#SVGID_18_)" enable-background="new    ">
					<g>
						<defs>
							<rect id="SVGID_55_" x="101.003" y="168.419" width="16.209" height="4.659"/>
						</defs>
						<clipPath id="SVGID_56_">
							<use xlink:href="#SVGID_55_"  overflow="visible"/>
						</clipPath>
						<rect x="101.002" y="168.419" clip-path="url(#SVGID_56_)" width="16.209" height="4.659"/>
					</g>
				</g>
				<g opacity="0.1" clip-path="url(#SVGID_18_)" enable-background="new    ">
					<g>
						<defs>
							<rect id="SVGID_57_" x="101.003" y="180.731" width="26.308" height="4.658"/>
						</defs>
						<clipPath id="SVGID_58_">
							<use xlink:href="#SVGID_57_"  overflow="visible"/>
						</clipPath>
						<rect x="101.002" y="180.73" clip-path="url(#SVGID_58_)" width="26.309" height="4.659"/>
					</g>
				</g>
				<g opacity="0.1" clip-path="url(#SVGID_18_)" enable-background="new    ">
					<g>
						<defs>
							<rect id="SVGID_59_" x="133.96" y="180.731" width="14.331" height="4.658"/>
						</defs>
						<clipPath id="SVGID_60_">
							<use xlink:href="#SVGID_59_"  overflow="visible"/>
						</clipPath>
						<rect x="133.96" y="180.73" clip-path="url(#SVGID_60_)" width="14.331" height="4.659"/>
					</g>
				</g>
				<g opacity="0.1" clip-path="url(#SVGID_18_)" enable-background="new    ">
					<g>
						<defs>
							<rect id="SVGID_61_" x="101.003" y="193.053" width="20.249" height="4.659"/>
						</defs>
						<clipPath id="SVGID_62_">
							<use xlink:href="#SVGID_61_"  overflow="visible"/>
						</clipPath>
						<rect x="101.002" y="193.053" clip-path="url(#SVGID_62_)" width="20.25" height="4.659"/>
					</g>
				</g>
				<g opacity="0.1" clip-path="url(#SVGID_18_)" enable-background="new    ">
					<g>
						<defs>
							<rect id="SVGID_63_" x="133.96" y="193.053" width="14.331" height="4.659"/>
						</defs>
						<clipPath id="SVGID_64_">
							<use xlink:href="#SVGID_63_"  overflow="visible"/>
						</clipPath>
						<rect x="133.96" y="193.053" clip-path="url(#SVGID_64_)" width="14.331" height="4.659"/>
					</g>
				</g>
				<g opacity="0.1" clip-path="url(#SVGID_18_)" enable-background="new    ">
					<g>
						<defs>
							<rect id="SVGID_65_" x="101.003" y="205.365" width="12.129" height="4.659"/>
						</defs>
						<clipPath id="SVGID_66_">
							<use xlink:href="#SVGID_65_"  overflow="visible"/>
						</clipPath>
						<rect x="101.002" y="205.365" clip-path="url(#SVGID_66_)" width="12.129" height="4.658"/>
					</g>
				</g>
				<g opacity="0.1" clip-path="url(#SVGID_18_)" enable-background="new    ">
					<g>
						<defs>
							<rect id="SVGID_67_" x="133.96" y="205.365" width="14.331" height="4.659"/>
						</defs>
						<clipPath id="SVGID_68_">
							<use xlink:href="#SVGID_67_"  overflow="visible"/>
						</clipPath>
						<rect x="133.96" y="205.365" clip-path="url(#SVGID_68_)" width="14.331" height="4.658"/>
					</g>
				</g>
			</g>
		</g>
		<path clip-path="url(#SVGID_12_)" fill="#EC6952" d="M110.554,98.354H47.36c-4.535,0-8.211,3.676-8.211,8.211V223.99h50.486
			c0,0,13.195,0.487,16.91-14.464c3.715-14.95,4.06-109.945,4.06-109.945"/>
		<g opacity="0.44" clip-path="url(#SVGID_12_)" enable-background="new    ">
			<g>
				<defs>
					<rect id="SVGID_69_" x="39.148" y="98.353" width="71.457" height="125.639"/>
				</defs>
				<clipPath id="SVGID_70_">
					<use xlink:href="#SVGID_69_"  overflow="visible"/>
				</clipPath>
				<path clip-path="url(#SVGID_70_)" fill="#FFFFFF" d="M110.554,98.354H47.36c-4.535,0-8.211,3.676-8.211,8.211V223.99h50.486
					c0,0,13.195,0.487,16.91-14.464c3.715-14.95,4.06-109.945,4.06-109.945"/>
			</g>
		</g>
		<path clip-path="url(#SVGID_12_)" fill="#EC6952" d="M77.353,212.104H14.25c0.075,4.883,2.671,9.38,6.862,11.886h63.833
			C84.945,223.99,78.581,221.413,77.353,212.104"/>
		<path clip-path="url(#SVGID_12_)" fill="#EC6952" d="M142.566,223.99c0,0-7.104-0.741-10.779-4.415
			c-3.674-3.675-4.658-7.349-4.658-19.844v-85.939c0-8.526-6.913-15.438-15.438-15.438h-1.137c-5.476,0-9.916,4.44-9.916,9.917v0.01
			v90.589c0,23.527-10.292,25.121-11.033,25.121H142.566z"/>
		<g opacity="0.1" clip-path="url(#SVGID_12_)" enable-background="new    ">
			<g>
				<defs>
					<rect id="SVGID_71_" x="14.25" y="212.104" width="70.695" height="11.886"/>
				</defs>
				<clipPath id="SVGID_72_">
					<use xlink:href="#SVGID_71_"  overflow="visible"/>
				</clipPath>
				<path clip-path="url(#SVGID_72_)" d="M77.353,212.104H14.25c0.075,4.883,2.671,9.38,6.862,11.886h63.833
					C84.945,223.99,78.581,221.413,77.353,212.104"/>
			</g>
		</g>
		<g opacity="0.1" clip-path="url(#SVGID_12_)" enable-background="new    ">
			<g>
				<defs>
					<rect id="SVGID_73_" x="89.604" y="98.353" width="52.963" height="125.637"/>
				</defs>
				<clipPath id="SVGID_74_">
					<use xlink:href="#SVGID_73_"  overflow="visible"/>
				</clipPath>
				<path clip-path="url(#SVGID_74_)" d="M142.566,223.99c0,0-7.104-0.741-10.779-4.415c-3.674-3.675-4.658-7.349-4.658-19.844
					v-85.939c0-8.526-6.913-15.438-15.438-15.438h-1.137c-5.476,0-9.916,4.44-9.916,9.917v0.01v90.589
					c0,23.527-10.292,25.121-11.033,25.121H142.566z"/>
			</g>
		</g>
		<g opacity="0.1" clip-path="url(#SVGID_12_)" enable-background="new    ">
			<g>
				<defs>
					<rect id="SVGID_75_" x="45.675" y="113.913" width="18.412" height="4.659"/>
				</defs>
				<clipPath id="SVGID_76_">
					<use xlink:href="#SVGID_75_"  overflow="visible"/>
				</clipPath>
				<rect x="45.675" y="113.913" clip-path="url(#SVGID_76_)" width="18.412" height="4.659"/>
			</g>
		</g>
		<g opacity="0.1" clip-path="url(#SVGID_12_)" enable-background="new    ">
			<g>
				<defs>
					<rect id="SVGID_77_" x="78.642" y="113.913" width="14.332" height="4.659"/>
				</defs>
				<clipPath id="SVGID_78_">
					<use xlink:href="#SVGID_77_"  overflow="visible"/>
				</clipPath>
				<rect x="78.642" y="113.913" clip-path="url(#SVGID_78_)" width="14.332" height="4.659"/>
			</g>
		</g>
		<g opacity="0.1" clip-path="url(#SVGID_12_)" enable-background="new    ">
			<g>
				<defs>
					<rect id="SVGID_79_" x="45.675" y="126.226" width="24.259" height="4.659"/>
				</defs>
				<clipPath id="SVGID_80_">
					<use xlink:href="#SVGID_79_"  overflow="visible"/>
				</clipPath>
				<rect x="45.675" y="126.227" clip-path="url(#SVGID_80_)" width="24.259" height="4.657"/>
			</g>
		</g>
		<g opacity="0.1" clip-path="url(#SVGID_12_)" enable-background="new    ">
			<g>
				<defs>
					<rect id="SVGID_81_" x="78.642" y="126.226" width="14.332" height="4.659"/>
				</defs>
				<clipPath id="SVGID_82_">
					<use xlink:href="#SVGID_81_"  overflow="visible"/>
				</clipPath>
				<rect x="78.642" y="126.227" clip-path="url(#SVGID_82_)" width="14.332" height="4.657"/>
			</g>
		</g>
		<g opacity="0.1" clip-path="url(#SVGID_12_)" enable-background="new    ">
			<g>
				<defs>
					<rect id="SVGID_83_" x="45.675" y="138.548" width="20.25" height="4.658"/>
				</defs>
				<clipPath id="SVGID_84_">
					<use xlink:href="#SVGID_83_"  overflow="visible"/>
				</clipPath>
				<rect x="45.675" y="138.548" clip-path="url(#SVGID_84_)" width="20.25" height="4.658"/>
			</g>
		</g>
		<g opacity="0.1" clip-path="url(#SVGID_12_)" enable-background="new    ">
			<g>
				<defs>
					<rect id="SVGID_85_" x="78.642" y="138.548" width="14.332" height="4.658"/>
				</defs>
				<clipPath id="SVGID_86_">
					<use xlink:href="#SVGID_85_"  overflow="visible"/>
				</clipPath>
				<rect x="78.642" y="138.548" clip-path="url(#SVGID_86_)" width="14.332" height="4.658"/>
			</g>
		</g>
		<g opacity="0.1" clip-path="url(#SVGID_12_)" enable-background="new    ">
			<g>
				<defs>
					<rect id="SVGID_87_" x="45.675" y="150.859" width="24.259" height="4.659"/>
				</defs>
				<clipPath id="SVGID_88_">
					<use xlink:href="#SVGID_87_"  overflow="visible"/>
				</clipPath>
				<rect x="45.675" y="150.859" clip-path="url(#SVGID_88_)" width="24.259" height="4.659"/>
			</g>
		</g>
		<g opacity="0.1" clip-path="url(#SVGID_12_)" enable-background="new    ">
			<g>
				<defs>
					<rect id="SVGID_89_" x="78.642" y="150.859" width="14.332" height="4.659"/>
				</defs>
				<clipPath id="SVGID_90_">
					<use xlink:href="#SVGID_89_"  overflow="visible"/>
				</clipPath>
				<rect x="78.642" y="150.859" clip-path="url(#SVGID_90_)" width="14.332" height="4.659"/>
			</g>
		</g>
		<g opacity="0.1" clip-path="url(#SVGID_12_)" enable-background="new    ">
			<g>
				<defs>
					<rect id="SVGID_91_" x="45.675" y="163.172" width="16.21" height="4.658"/>
				</defs>
				<clipPath id="SVGID_92_">
					<use xlink:href="#SVGID_91_"  overflow="visible"/>
				</clipPath>
				<rect x="45.675" y="163.172" clip-path="url(#SVGID_92_)" width="16.209" height="4.658"/>
			</g>
		</g>
		<g opacity="0.1" clip-path="url(#SVGID_12_)" enable-background="new    ">
			<g>
				<defs>
					<rect id="SVGID_93_" x="78.642" y="163.172" width="14.332" height="4.658"/>
				</defs>
				<clipPath id="SVGID_94_">
					<use xlink:href="#SVGID_93_"  overflow="visible"/>
				</clipPath>
				<rect x="78.642" y="163.172" clip-path="url(#SVGID_94_)" width="14.332" height="4.658"/>
			</g>
		</g>
		<g opacity="0.1" clip-path="url(#SVGID_12_)" enable-background="new    ">
			<g>
				<defs>
					<rect id="SVGID_95_" x="45.675" y="176.204" width="20.25" height="4.659"/>
				</defs>
				<clipPath id="SVGID_96_">
					<use xlink:href="#SVGID_95_"  overflow="visible"/>
				</clipPath>
				<rect x="45.675" y="176.204" clip-path="url(#SVGID_96_)" width="20.25" height="4.659"/>
			</g>
		</g>
		<g opacity="0.1" clip-path="url(#SVGID_12_)" enable-background="new    ">
			<g>
				<defs>
					<rect id="SVGID_97_" x="78.642" y="176.204" width="14.332" height="4.659"/>
				</defs>
				<clipPath id="SVGID_98_">
					<use xlink:href="#SVGID_97_"  overflow="visible"/>
				</clipPath>
				<rect x="78.642" y="176.204" clip-path="url(#SVGID_98_)" width="14.332" height="4.659"/>
			</g>
		</g>
		<g opacity="0.1" clip-path="url(#SVGID_12_)" enable-background="new    ">
			<g>
				<defs>
					<rect id="SVGID_99_" x="45.675" y="188.516" width="12.129" height="4.659"/>
				</defs>
				<clipPath id="SVGID_100_">
					<use xlink:href="#SVGID_99_"  overflow="visible"/>
				</clipPath>
				<rect x="45.675" y="188.517" clip-path="url(#SVGID_100_)" width="12.129" height="4.658"/>
			</g>
		</g>
		<g opacity="0.1" clip-path="url(#SVGID_12_)" enable-background="new    ">
			<g>
				<defs>
					<rect id="SVGID_101_" x="78.642" y="188.516" width="14.332" height="4.659"/>
				</defs>
				<clipPath id="SVGID_102_">
					<use xlink:href="#SVGID_101_"  overflow="visible"/>
				</clipPath>
				<rect x="78.642" y="188.517" clip-path="url(#SVGID_102_)" width="14.332" height="4.658"/>
			</g>
		</g>
		<g opacity="0.1" clip-path="url(#SVGID_12_)" enable-background="new    ">
			<g>
				<defs>
					<rect id="SVGID_103_" x="45.675" y="200.828" width="21.163" height="4.659"/>
				</defs>
				<clipPath id="SVGID_104_">
					<use xlink:href="#SVGID_103_"  overflow="visible"/>
				</clipPath>
				<rect x="45.675" y="200.828" clip-path="url(#SVGID_104_)" width="21.163" height="4.658"/>
			</g>
		</g>
		<g opacity="0.1" clip-path="url(#SVGID_12_)" enable-background="new    ">
			<g>
				<defs>
					<rect id="SVGID_105_" x="78.642" y="200.828" width="14.332" height="4.659"/>
				</defs>
				<clipPath id="SVGID_106_">
					<use xlink:href="#SVGID_105_"  overflow="visible"/>
				</clipPath>
				<rect x="78.642" y="200.828" clip-path="url(#SVGID_106_)" width="14.332" height="4.658"/>
			</g>
		</g>
		<g opacity="0.05" clip-path="url(#SVGID_12_)" enable-background="new    ">
			<g>
				<defs>
					<rect id="SVGID_107_" x="70.339" y="24.025" width="17.438" height="33.383"/>
				</defs>
				<clipPath id="SVGID_108_">
					<use xlink:href="#SVGID_107_"  overflow="visible"/>
				</clipPath>
				<rect x="70.339" y="24.025" clip-path="url(#SVGID_108_)" width="17.438" height="33.383"/>
			</g>
		</g>
		<rect x="41.239" y="20.351" clip-path="url(#SVGID_12_)" fill="#E6E6E6" width="43.666" height="33.383"/>
		<g opacity="0.08" clip-path="url(#SVGID_12_)">
			<g>
				<defs>
					<rect id="SVGID_109_" x="164.091" y="15.428" width="26.709" height="39.893"/>
				</defs>
				<clipPath id="SVGID_110_">
					<use xlink:href="#SVGID_109_"  overflow="visible"/>
				</clipPath>
				<path clip-path="url(#SVGID_110_)" d="M190.8,16.687c-1.189-0.451-2.421-0.791-3.675-1.015
					c-10.882-1.704-21.086,5.736-22.79,16.619c-1.705,10.882,5.736,21.085,16.618,22.79c3.309,0.519,6.695,0.195,9.847-0.94V16.687z
					"/>
			</g>
		</g>
		<path clip-path="url(#SVGID_12_)" fill="#FFD200" d="M187.399,12.312c11.016,0,19.944,8.93,19.944,19.945
			c0,11.015-8.929,19.945-19.944,19.945s-19.944-8.93-19.944-19.945C167.455,21.242,176.384,12.312,187.399,12.312"/>
		<path clip-path="url(#SVGID_12_)" fill="#FFFFFF" d="M188.039,22.279c0.568,0,0.741,0.193,0.741,0.761v1.198
			c2.017,0.217,3.749,1.528,4.506,3.41c0.295,0.589,0.173,0.903-0.487,1.198l-1.207,0.548c-0.559,0.264-0.833,0.142-1.147-0.447
			c-0.508-1.257-1.787-2.027-3.137-1.887c-2.091,0-3.045,0.609-3.045,2.03c0.1,0.882,0.81,1.572,1.695,1.644
			c0.582,0.128,1.172,0.219,1.767,0.274c1.11,0.051,2.208,0.263,3.258,0.629c0.528,0.173,1.02,0.442,1.451,0.792
			c0.896,0.918,1.383,2.159,1.351,3.441c0,2.669-1.797,4.486-4.954,4.953v1.279c0,0.558-0.172,0.761-0.74,0.761h-1.411
			c-0.559,0-0.761-0.203-0.761-0.761v-1.289c-2.247-0.152-4.182-1.642-4.903-3.776c-0.192-0.538,0-0.904,0.568-1.127l1.198-0.436
			c0.609-0.223,0.883-0.071,1.157,0.538c0.519,1.346,1.874,2.177,3.309,2.03c2.253,0,3.38-0.711,3.38-2.162
			c0.046-0.679-0.371-1.304-1.015-1.522c-0.781-0.273-1.6-0.427-2.426-0.457c-1.126-0.071-2.236-0.314-3.289-0.721
			c-1.775-0.561-2.918-2.287-2.74-4.141c0-2.649,1.664-4.415,4.801-4.831v-1.168c0-0.568,0.203-0.761,0.762-0.761H188.039z"/>
		<g opacity="0.05" clip-path="url(#SVGID_12_)" enable-background="new    ">
			<g>
				<defs>
					<rect id="SVGID_111_" x="161.527" y="98.374" width="29.231" height="59.52"/>
				</defs>
				<clipPath id="SVGID_112_">
					<use xlink:href="#SVGID_111_"  overflow="visible"/>
				</clipPath>
				<rect x="161.527" y="98.374" clip-path="url(#SVGID_112_)" width="29.23" height="59.521"/>
			</g>
		</g>
		<rect x="168.409" y="93.299" clip-path="url(#SVGID_12_)" fill="#E6E6E6" width="51.531" height="59.52"/>
		<g opacity="0.44" clip-path="url(#SVGID_12_)" enable-background="new    ">
			<g>
				<defs>
					<rect id="SVGID_113_" x="175.047" y="100.992" width="38.255" height="13.581"/>
				</defs>
				<clipPath id="SVGID_114_">
					<use xlink:href="#SVGID_113_"  overflow="visible"/>
				</clipPath>
				<rect x="175.047" y="100.993" clip-path="url(#SVGID_114_)" fill="#FFFFFF" width="38.255" height="13.581"/>
			</g>
		</g>
		<rect x="175.047" y="119.395" clip-path="url(#SVGID_12_)" fill="#C9C9C9" width="17.896" height="11.835"/>
		<rect x="195.408" y="119.395" clip-path="url(#SVGID_12_)" fill="#C9C9C9" width="17.894" height="11.835"/>
		<rect x="175.047" y="134.315" clip-path="url(#SVGID_12_)" fill="#C9C9C9" width="17.896" height="11.834"/>
		<rect x="195.408" y="134.315" clip-path="url(#SVGID_12_)" fill="#C9C9C9" width="17.894" height="11.834"/>
		<rect x="49.654" y="35.698" clip-path="url(#SVGID_12_)" fill="#FFD200" width="5.735" height="10.048"/>
		<rect x="60.21" y="33.18" clip-path="url(#SVGID_12_)" fill="#EC6952" width="5.734" height="12.566"/>
		<rect x="70.766" y="28.339" clip-path="url(#SVGID_12_)" fill="#24285B" width="5.735" height="17.407"/>
		<g opacity="0.58" clip-path="url(#SVGID_12_)" enable-background="new    ">
			<g>
				<defs>
					<rect id="SVGID_115_" x="178.417" y="201.904" width="13.002" height="10.688"/>
				</defs>
				<clipPath id="SVGID_116_">
					<use xlink:href="#SVGID_115_"  overflow="visible"/>
				</clipPath>
				<path clip-path="url(#SVGID_116_)" fill="#EC6952" d="M188.354,211.922c0,0-8.12-2.223-9.937-9.814
					c0,0,12.637-2.559,13.002,10.484L188.354,211.922z"/>
			</g>
		</g>
		<g opacity="0.73" clip-path="url(#SVGID_12_)" enable-background="new    ">
			<g>
				<defs>
					<rect id="SVGID_117_" x="186.603" y="193.683" width="8.499" height="17.447"/>
				</defs>
				<clipPath id="SVGID_118_">
					<use xlink:href="#SVGID_117_"  overflow="visible"/>
				</clipPath>
				<path clip-path="url(#SVGID_118_)" fill="#EC6952" d="M189.349,211.12c0,0-5.694-9.014-0.681-17.437
					c0,0,9.612,6.089,5.339,17.446L189.349,211.12z"/>
			</g>
		</g>
		<path clip-path="url(#SVGID_12_)" fill="#EC6952" d="M190.82,211.12c0,0,3.045-9.511,12.119-11.316c0,0,1.705,6.181-5.897,11.347
			L190.82,211.12z"/>
		<polygon clip-path="url(#SVGID_12_)" fill="#24285B" points="184.902,210.907 186.557,222.224 196.971,222.265 198.504,210.969 		
			"/>
	</g>
</g>
</svg>
