<?xml version="1.0" encoding="utf-8"?>
<!-- Generator: Adobe Illustrator 16.0.0, SVG Export Plug-In . SVG Version: 6.00 Build 0)  -->
<!DOCTYPE svg PUBLIC "-//W3C//DTD SVG 1.1//EN" "http://www.w3.org/Graphics/SVG/1.1/DTD/svg11.dtd">
<svg version="1.1" id="Layer_1" xmlns="http://www.w3.org/2000/svg" xmlns:xlink="http://www.w3.org/1999/xlink" x="0px" y="0px"
	 width="328.373px" height="238.18px" viewBox="0 0 328.373 238.18" enable-background="new 0 0 328.373 238.18"
	 xml:space="preserve">
<g>
	<defs>
		<rect id="SVGID_1_" width="328.373" height="238.18"/>
	</defs>
	<clipPath id="SVGID_2_">
		<use xlink:href="#SVGID_1_"  overflow="visible"/>
	</clipPath>
	<g clip-path="url(#SVGID_2_)">
		<defs>
			<rect id="SVGID_3_" width="328.373" height="238.18"/>
		</defs>
		<clipPath id="SVGID_4_">
			<use xlink:href="#SVGID_3_"  overflow="visible"/>
		</clipPath>
		<g opacity="0.45" clip-path="url(#SVGID_4_)" enable-background="new    ">
			<g>
				<defs>
					<rect id="SVGID_5_" y="189.278" width="328.373" height="48.902"/>
				</defs>
				<clipPath id="SVGID_6_">
					<use xlink:href="#SVGID_5_"  overflow="visible"/>
				</clipPath>
				<path clip-path="url(#SVGID_6_)" fill="#E6E6E6" d="M164.187,189.278c90.678,0,164.188,10.946,164.188,24.45
					s-73.51,24.451-164.188,24.451S0,227.232,0,213.728S73.509,189.278,164.187,189.278"/>
			</g>
		</g>
	</g>
	
		<rect x="9.593" y="47.35" transform="matrix(-1 0.008 -0.008 -1 46.6225 261.674)" clip-path="url(#SVGID_2_)" fill="#FFD200" width="26.39" height="167.16"/>
	<polygon clip-path="url(#SVGID_2_)" fill="#F4A28C" points="8.932,47.452 21.812,8.75 35.322,47.239 	"/>
	<polygon clip-path="url(#SVGID_2_)" fill="#24285B" points="15.956,26.339 27.954,26.249 21.812,8.75 	"/>
	<g clip-path="url(#SVGID_2_)">
		<defs>
			<rect id="SVGID_7_" width="328.373" height="238.18"/>
		</defs>
		<clipPath id="SVGID_8_">
			<use xlink:href="#SVGID_7_"  overflow="visible"/>
		</clipPath>
		<g opacity="0.08" clip-path="url(#SVGID_8_)" enable-background="new    ">
			<g>
				<defs>
					<rect id="SVGID_9_" x="8.995" y="47.348" width="14.993" height="167.265"/>
				</defs>
				<clipPath id="SVGID_10_">
					<use xlink:href="#SVGID_9_"  overflow="visible"/>
				</clipPath>
				
					<rect x="9.665" y="47.401" transform="matrix(-1 0.008 -0.008 -1 34.0266 261.8267)" clip-path="url(#SVGID_10_)" width="13.652" height="167.161"/>
			</g>
		</g>
	</g>
	<rect x="249.487" y="196.708" clip-path="url(#SVGID_2_)" fill="#E6E6E6" width="49.228" height="12.962"/>
	<g clip-path="url(#SVGID_2_)">
		<defs>
			<rect id="SVGID_11_" width="328.373" height="238.18"/>
		</defs>
		<clipPath id="SVGID_12_">
			<use xlink:href="#SVGID_11_"  overflow="visible"/>
		</clipPath>
		<g opacity="0.43" clip-path="url(#SVGID_12_)" enable-background="new    ">
			<g>
				<defs>
					<rect id="SVGID_13_" x="238.728" y="184.03" width="49.229" height="12.962"/>
				</defs>
				<clipPath id="SVGID_14_">
					<use xlink:href="#SVGID_13_"  overflow="visible"/>
				</clipPath>
				<rect x="238.728" y="184.03" clip-path="url(#SVGID_14_)" fill="#E6E6E6" width="49.229" height="12.961"/>
			</g>
		</g>
		<g opacity="0.08" clip-path="url(#SVGID_12_)" enable-background="new    ">
			<g>
				<defs>
					<rect id="SVGID_15_" x="9.673" y="126.094" width="26.39" height="23.409"/>
				</defs>
				<clipPath id="SVGID_16_">
					<use xlink:href="#SVGID_15_"  overflow="visible"/>
				</clipPath>
				<path clip-path="url(#SVGID_16_)" d="M9.673,132.641v16.727c0,0,14.342,1.604,26.39-6.211v-15.033l-10.363-2.03L9.673,132.641z"
					/>
			</g>
		</g>
	</g>
	<rect x="105.652" y="18.94" clip-path="url(#SVGID_2_)" fill="#C9C9C9" width="163.081" height="190.82"/>
	<g clip-path="url(#SVGID_2_)">
		<defs>
			<rect id="SVGID_17_" width="328.373" height="238.18"/>
		</defs>
		<clipPath id="SVGID_18_">
			<use xlink:href="#SVGID_17_"  overflow="visible"/>
		</clipPath>
		<g opacity="0.08" clip-path="url(#SVGID_18_)" enable-background="new    ">
			<g>
				<defs>
					<rect id="SVGID_19_" x="131.828" y="44.66" width="126.956" height="152.768"/>
				</defs>
				<clipPath id="SVGID_20_">
					<use xlink:href="#SVGID_19_"  overflow="visible"/>
				</clipPath>
				<rect x="131.828" y="44.66" clip-path="url(#SVGID_20_)" width="126.956" height="152.768"/>
			</g>
		</g>
	</g>
	<rect x="123.708" y="35.86" clip-path="url(#SVGID_2_)" fill="#FFFFFF" width="126.956" height="152.768"/>
	<g clip-path="url(#SVGID_2_)">
		<defs>
			<rect id="SVGID_21_" width="328.373" height="238.18"/>
		</defs>
		<clipPath id="SVGID_22_">
			<use xlink:href="#SVGID_21_"  overflow="visible"/>
		</clipPath>
		<g opacity="0.08" clip-path="url(#SVGID_22_)" enable-background="new    ">
			<g>
				<defs>
					<rect id="SVGID_23_" x="107.976" y="60.9" width="60.672" height="148.768"/>
				</defs>
				<clipPath id="SVGID_24_">
					<use xlink:href="#SVGID_23_"  overflow="visible"/>
				</clipPath>
				<path clip-path="url(#SVGID_24_)" d="M110.554,60.9c0,0,24.573,2.365,30.663,34.337l19.732-26.39c0,0,11.479-1.39,6.404,9.135
					c-3.329,6.922-4.141,26.857-12.89,40.347c-17.35,26.712-28.973,56.73-34.135,88.163l-0.426,2.638l-11.926,0.539l3.299-97.511
					L110.554,60.9z"/>
			</g>
		</g>
	</g>
	<rect x="145.672" clip-path="url(#SVGID_2_)" fill="#F2F2F2" width="10.719" height="44.66"/>
	<rect x="218.174" clip-path="url(#SVGID_2_)" fill="#F2F2F2" width="10.718" height="44.66"/>
	<rect x="208.501" y="59.205" clip-path="url(#SVGID_2_)" fill="#FFD200" width="27.07" height="27.07"/>
	<rect x="208.501" y="98.709" clip-path="url(#SVGID_2_)" fill="#FFD200" width="27.07" height="27.07"/>
	<rect x="208.501" y="138.223" clip-path="url(#SVGID_2_)" fill="#FFD200" width="27.07" height="27.07"/>
	<g clip-path="url(#SVGID_2_)">
		<defs>
			<rect id="SVGID_25_" width="328.373" height="238.18"/>
		</defs>
		<clipPath id="SVGID_26_">
			<use xlink:href="#SVGID_25_"  overflow="visible"/>
		</clipPath>
		<path clip-path="url(#SVGID_26_)" fill="#EC6952" d="M61.945,73.029C54.729,88.64,33.16,119.09,12.321,122.602v10.942
			c0,0,37.332-1.939,70.188-34.754c13.672-13.682,13.438-23.132,8.516-29.506C83.22,59.206,67.285,61.468,61.945,73.029"/>
		<g opacity="0.08" clip-path="url(#SVGID_26_)" enable-background="new    ">
			<g>
				<defs>
					<rect id="SVGID_27_" x="12.322" y="62.886" width="81.778" height="70.658"/>
				</defs>
				<clipPath id="SVGID_28_">
					<use xlink:href="#SVGID_27_"  overflow="visible"/>
				</clipPath>
				<path clip-path="url(#SVGID_28_)" d="M61.945,73.029C54.729,88.64,33.16,119.09,12.321,122.602v10.942
					c0,0,37.332-1.939,70.188-34.754c13.672-13.682,13.438-23.132,8.516-29.506C83.22,59.206,67.285,61.468,61.945,73.029"/>
			</g>
		</g>
		<rect x="146.586" y="66.99" clip-path="url(#SVGID_26_)" fill="#A5A5A5" width="48.72" height="11.5"/>
		<g opacity="0.44" clip-path="url(#SVGID_26_)" enable-background="new    ">
			<g>
				<defs>
					<rect id="SVGID_29_" x="146.586" y="106.494" width="48.72" height="11.5"/>
				</defs>
				<clipPath id="SVGID_30_">
					<use xlink:href="#SVGID_29_"  overflow="visible"/>
				</clipPath>
				<rect x="146.586" y="106.494" clip-path="url(#SVGID_30_)" fill="#A5A5A5" width="48.72" height="11.5"/>
			</g>
		</g>
		<g opacity="0.13" clip-path="url(#SVGID_26_)" enable-background="new    ">
			<g>
				<defs>
					<rect id="SVGID_31_" x="146.586" y="145.998" width="48.72" height="11.5"/>
				</defs>
				<clipPath id="SVGID_32_">
					<use xlink:href="#SVGID_31_"  overflow="visible"/>
				</clipPath>
				<rect x="146.586" y="145.999" clip-path="url(#SVGID_32_)" fill="#A5A5A5" width="48.72" height="11.5"/>
			</g>
		</g>
		<polyline clip-path="url(#SVGID_26_)" fill="none" stroke="#FFFFFF" stroke-width="3.045" stroke-miterlimit="10.15" points="
			214.591,72.735 220.001,79.678 229.136,66.99 		"/>
		<polyline clip-path="url(#SVGID_26_)" fill="none" stroke="#FFFFFF" stroke-width="3.045" stroke-miterlimit="10.15" points="
			214.591,111.65 220.001,118.592 229.136,105.905 		"/>
		<polyline clip-path="url(#SVGID_26_)" fill="none" stroke="#FFFFFF" stroke-width="3.045" stroke-miterlimit="10.15" points="
			214.591,150.566 220.001,157.507 229.136,144.821 		"/>
		<polygon clip-path="url(#SVGID_26_)" fill="#F4A28C" points="79.23,47.533 83.119,59.185 73.892,65.052 70.573,44.853 		"/>
		<path clip-path="url(#SVGID_26_)" fill="#F4A28C" d="M73.425,32.896c2.859-2.809,7.454-2.769,10.263,0.09
			c0.714,0.726,1.267,1.595,1.623,2.549c2.03,5.359,3.948,13.306-2.375,14.667c-9.683,2.029-12.759-10.374-12.759-10.374
			C70.554,37.25,71.684,34.837,73.425,32.896"/>
		<path clip-path="url(#SVGID_26_)" fill="#F4A28C" d="M73.395,40.732c0,0-2.101-1.756-3.045,0.741s2.751,3.695,3.857,2.436
			C75.313,42.65,73.395,40.732,73.395,40.732"/>
		<path clip-path="url(#SVGID_26_)" fill="#EC6952" d="M63.123,70.766c2.821-6.247,8.218-10.959,14.789-12.911
			c12.535-3.766,35.606,0.355,42.629,12.078c9.633,16.048-4.465,66.991-4.465,66.991l-42.062,3.308
			C74.014,140.232,50.801,98.445,63.123,70.766"/>
		<polygon clip-path="url(#SVGID_26_)" fill="#24285B" points="116.086,136.964 110.544,209.364 101.785,209.364 93.969,153.113 
			74.603,140.233 		"/>
		<polygon clip-path="url(#SVGID_26_)" fill="#24285B" points="74.603,140.233 62.524,209.365 71.913,209.365 92.192,151.935 		"/>
		<g opacity="0.08" clip-path="url(#SVGID_26_)" enable-background="new    ">
			<g>
				<defs>
					<rect id="SVGID_33_" x="59.595" y="56.759" width="59.14" height="83.474"/>
				</defs>
				<clipPath id="SVGID_34_">
					<use xlink:href="#SVGID_33_"  overflow="visible"/>
				</clipPath>
				<path clip-path="url(#SVGID_34_)" d="M81.555,56.759c0,0-19.722,63.448,37.179,67.65l-2.649,12.556l-42.072,3.269
					c0,0-16.442-28.663-14.209-56.028c0,0,0.355-16.19,11.743-23.345C74.553,58.797,77.965,57.399,81.555,56.759"/>
			</g>
		</g>
		<path clip-path="url(#SVGID_26_)" fill="#EC6952" d="M64.727,209.222l-5.664,4.161c-0.555,0.409-0.673,1.191-0.264,1.745
			c0.236,0.32,0.609,0.509,1.005,0.509h9.48c0.686-0.006,1.238-0.563,1.238-1.248v-5.167H64.727z"/>
		<path clip-path="url(#SVGID_26_)" fill="#EC6952" d="M109.447,209.222l5.329,4.161c0.549,0.427,0.649,1.218,0.223,1.767
			c-0.24,0.31-0.612,0.491-1.005,0.487h-6.739c-1.991,0-3.604-1.613-3.604-3.603v-2.813H109.447z"/>
		<path clip-path="url(#SVGID_26_)" fill="#EC6952" d="M98.729,57.52c-4.285,6.875-4.285,15.588,0,22.462
			c4.587,7.755,17.915,22.868,27.05,32.826c3.573,3.94,9.665,4.238,13.606,0.665c0.792-0.719,1.459-1.565,1.974-2.503l19.63-34.591
			l-6.659-4.273l-17.985,26.39C136.345,98.496,124.033,58.028,98.729,57.52"/>
		<g opacity="0.2" clip-path="url(#SVGID_26_)" enable-background="new    ">
			<g>
				<defs>
					<rect id="SVGID_35_" x="95.516" y="57.52" width="65.473" height="58.449"/>
				</defs>
				<clipPath id="SVGID_36_">
					<use xlink:href="#SVGID_35_"  overflow="visible"/>
				</clipPath>
				<path clip-path="url(#SVGID_36_)" fill="#FFFFFF" d="M98.729,57.52c-4.285,6.875-4.285,15.588,0,22.462
					c4.587,7.755,17.915,22.868,27.05,32.826c3.573,3.94,9.665,4.238,13.606,0.665c0.792-0.719,1.459-1.565,1.974-2.503
					l19.63-34.591l-6.659-4.273l-17.985,26.39C136.345,98.496,124.033,58.028,98.729,57.52"/>
			</g>
		</g>
		<path clip-path="url(#SVGID_26_)" fill="#F4A28C" d="M158.665,74.907c0,0,11.164-4.06,6.597-10.394
			c-4.567-6.333-10.932,7.613-10.932,7.613L158.665,74.907z"/>
		<path clip-path="url(#SVGID_26_)" fill="#24285B" d="M71.304,48.182l-3.38-8.323c-0.706-1.748-0.655-3.711,0.142-5.42
			c1.37-2.984,3.989-7.582,7.988-10.15c6.273-4.121,12.414-4.141,11.723,1.33c-0.69,5.471,1.949-0.285,4.06,3.633
			c2.112,3.918,0.842,5.187-2.253,5.553c-3.096,0.365-9.135,0.253-11.307,4.242C76.105,43.036,78.744,47.938,71.304,48.182"/>
		<path clip-path="url(#SVGID_26_)" fill="#F4A28C" d="M12.322,122.603c0,0-5.816-2.479-8.019,2.933
			c-2.202,5.41,8.019,8.008,8.019,8.008V122.603z"/>
		
			<rect x="9.94" y="185.638" transform="matrix(-1 0.008 -0.008 -1 48.1984 401.0844)" clip-path="url(#SVGID_26_)" fill="#24285B" width="26.705" height="30.003"/>
	</g>
</g>
</svg>
