<?xml version="1.0" encoding="utf-8"?>
<!-- Generator: Adobe Illustrator 16.0.0, SVG Export Plug-In . SVG Version: 6.00 Build 0)  -->
<!DOCTYPE svg PUBLIC "-//W3C//DTD SVG 1.1//EN" "http://www.w3.org/Graphics/SVG/1.1/DTD/svg11.dtd">
<svg version="1.1" id="Layer_1" xmlns="http://www.w3.org/2000/svg" xmlns:xlink="http://www.w3.org/1999/xlink" x="0px" y="0px"
	 width="317.059px" height="232.666px" viewBox="0 0 317.059 232.666" enable-background="new 0 0 317.059 232.666"
	 xml:space="preserve">
<g>
	<defs>
		<rect id="SVGID_1_" width="317.059" height="232.666"/>
	</defs>
	<clipPath id="SVGID_2_">
		<use xlink:href="#SVGID_1_"  overflow="visible"/>
	</clipPath>
	<g clip-path="url(#SVGID_2_)">
		<defs>
			<rect id="SVGID_3_" width="317.059" height="232.666"/>
		</defs>
		<clipPath id="SVGID_4_">
			<use xlink:href="#SVGID_3_"  overflow="visible"/>
		</clipPath>
		<g opacity="0.35" clip-path="url(#SVGID_4_)" enable-background="new    ">
			<g>
				<defs>
					<rect id="SVGID_5_" x="145.798" y="110.618" width="43.646" height="11.115"/>
				</defs>
				<clipPath id="SVGID_6_">
					<use xlink:href="#SVGID_5_"  overflow="visible"/>
				</clipPath>
				<rect x="145.798" y="110.618" clip-path="url(#SVGID_6_)" fill="#FFFFFF" width="43.646" height="11.114"/>
			</g>
		</g>
	</g>
	<rect x="45.627" y="10.412" clip-path="url(#SVGID_2_)" fill="#E6E6E6" width="156.312" height="139.46"/>
	<g clip-path="url(#SVGID_2_)">
		<defs>
			<rect id="SVGID_7_" width="317.059" height="232.666"/>
		</defs>
		<clipPath id="SVGID_8_">
			<use xlink:href="#SVGID_7_"  overflow="visible"/>
		</clipPath>
		<g opacity="0.08" clip-path="url(#SVGID_8_)" enable-background="new    ">
			<g>
				<defs>
					<rect id="SVGID_9_" x="163.925" y="87.491" width="38.012" height="29.394"/>
				</defs>
				<clipPath id="SVGID_10_">
					<use xlink:href="#SVGID_9_"  overflow="visible"/>
				</clipPath>
				<path clip-path="url(#SVGID_10_)" d="M166.788,87.491c0,0-8.303,11.063,3.37,15.793c11.672,4.73,31.779,13.601,31.779,13.601
					v-13.712l-21.315-8.871L166.788,87.491z"/>
			</g>
		</g>
		<g opacity="0.08" clip-path="url(#SVGID_8_)" enable-background="new    ">
			<g>
				<defs>
					<rect id="SVGID_11_" x="76.338" y="94.307" width="7.683" height="35.576"/>
				</defs>
				<clipPath id="SVGID_12_">
					<use xlink:href="#SVGID_11_"  overflow="visible"/>
				</clipPath>
				<rect x="76.338" y="94.307" clip-path="url(#SVGID_12_)" width="7.684" height="35.576"/>
			</g>
		</g>
	</g>
	<rect y="94.306" clip-path="url(#SVGID_2_)" fill="#F2F2F2" width="76.846" height="46.853"/>
	<g clip-path="url(#SVGID_2_)">
		<defs>
			<rect id="SVGID_13_" width="317.059" height="232.666"/>
		</defs>
		<clipPath id="SVGID_14_">
			<use xlink:href="#SVGID_13_"  overflow="visible"/>
		</clipPath>
		<path clip-path="url(#SVGID_14_)" fill="#EC6952" d="M239.878,43.906c0,0-23.345,7.643-15.783,51.379l-43.492-5.166l-1.787,7.795
			l62.088,14.139l12.099-8.302L239.878,43.906z"/>
		<g opacity="0.2" clip-path="url(#SVGID_14_)" enable-background="new    ">
			<g>
				<defs>
					<rect id="SVGID_15_" x="178.816" y="43.906" width="74.186" height="68.148"/>
				</defs>
				<clipPath id="SVGID_16_">
					<use xlink:href="#SVGID_15_"  overflow="visible"/>
				</clipPath>
				<path clip-path="url(#SVGID_16_)" fill="#FFFFFF" d="M239.878,43.906c0,0-23.345,7.643-15.783,51.379l-43.492-5.166
					l-1.787,7.795l62.088,14.139l12.099-8.302L239.878,43.906z"/>
			</g>
		</g>
		<path clip-path="url(#SVGID_14_)" fill="#F4A28C" d="M245.725,11.366c0,0-0.681,7.805,0.629,12.992
			c0.542,2.106,2.688,3.375,4.795,2.833l0.007-0.001c2.607-0.701,5.918-2.396,6.79-6.537l2.344-6.841
			c0.678-2.896-0.542-5.904-3.044-7.511C252.779,3.134,245.896,6.595,245.725,11.366"/>
		<g opacity="0.45" clip-path="url(#SVGID_14_)" enable-background="new    ">
			<g>
				<defs>
					<rect id="SVGID_17_" x="201.937" y="210.864" width="115.122" height="21.802"/>
				</defs>
				<clipPath id="SVGID_18_">
					<use xlink:href="#SVGID_17_"  overflow="visible"/>
				</clipPath>
				<path clip-path="url(#SVGID_18_)" fill="#E6E6E6" d="M259.498,210.863c31.789,0,57.562,4.881,57.562,10.901
					s-25.772,10.901-57.562,10.901c-31.79,0-57.561-4.881-57.561-10.901S227.708,210.863,259.498,210.863"/>
			</g>
		</g>
		<path clip-path="url(#SVGID_14_)" fill="#EC6952" d="M266.156,205.748c0,0,1.208,4.062-1.491,6.425
			c-2.7,2.365-1.382,5.766,1.765,4.578s7.37-9.47,7.37-9.47l-3.269-4.061L266.156,205.748z"/>
		<polygon clip-path="url(#SVGID_14_)" fill="#F4A28C" points="259.122,15.618 268.044,35.289 256.434,43.906 254.108,25.403 		"/>
		<path clip-path="url(#SVGID_14_)" fill="#EC6952" d="M259.528,34.903c1.97-0.467,3.929-1.015,5.856-1.634
			c8.668-2.771,35.312-9.531,42.924,9.074c9.136,22.33-18.269,90.335-18.269,90.335l-46.691-4.061l-11.165-58.87
			C232.184,69.749,222.562,43.765,259.528,34.903"/>
		<g opacity="0.08" clip-path="url(#SVGID_14_)" enable-background="new    ">
			<g>
				<defs>
					<rect id="SVGID_19_" x="237.026" y="57.842" width="66.208" height="74.807"/>
				</defs>
				<clipPath id="SVGID_20_">
					<use xlink:href="#SVGID_19_"  overflow="visible"/>
				</clipPath>
				<path clip-path="url(#SVGID_20_)" d="M283.432,57.842c0,0-7.104,22.858,0,37.413h-46.406l6.323,33.333l46.69,4.059l9.968-28.206
					l3.228-23.254L283.432,57.842z"/>
			</g>
		</g>
		<polygon clip-path="url(#SVGID_14_)" fill="#FFD200" points="211.479,66.399 211.479,109.1 248.75,113.84 248.75,71.819 		"/>
		<path clip-path="url(#SVGID_14_)" fill="#EC6952" d="M309.842,48.454c3.37,10.262,6.09,26.897,2.456,51.136
			c-0.475,3.206-3.334,5.508-6.565,5.288l-52.233-3.664v-9.135l41.615-3.045c0,0-13.195-21.731-11.825-37.555
			C284.558,36.751,305.224,34.406,309.842,48.454"/>
		<g opacity="0.2" clip-path="url(#SVGID_14_)" enable-background="new    ">
			<g>
				<defs>
					<rect id="SVGID_21_" x="253.499" y="39.082" width="60.527" height="65.81"/>
				</defs>
				<clipPath id="SVGID_22_">
					<use xlink:href="#SVGID_21_"  overflow="visible"/>
				</clipPath>
				<path clip-path="url(#SVGID_22_)" fill="#FFFFFF" d="M309.842,48.454c3.37,10.262,6.09,26.897,2.456,51.136
					c-0.475,3.206-3.334,5.508-6.565,5.288l-52.233-3.664v-9.135l41.615-3.045c0,0-13.195-21.731-11.825-37.555
					C284.558,36.751,305.224,34.406,309.842,48.454"/>
			</g>
		</g>
		<path clip-path="url(#SVGID_14_)" fill="#24285B" d="M243.349,128.618l-12.718,15.642c-8.12,9.999-8.738,24.134-1.521,34.804
			l11.164,16.545l7.105-4.061l-5.837-16.908c-2.544-7.379,0.208-15.543,6.7-19.875l7.257-4.831c0,0,23.345-2.03,34.51-17.254
			L243.349,128.618z"/>
		<path clip-path="url(#SVGID_14_)" fill="#24285B" d="M255.529,135.724l-3.775,23.345c-1.514,9.319-0.386,18.877,3.258,27.588
			l8.373,20.006l9.705-3.604l-5.401-22.097c-1.124-4.604-0.622-9.456,1.421-13.733l1.117-2.334
			c3.842-7.804,8.83-14.988,14.799-21.315c2.831-2.961,4.596-6.783,5.015-10.86L255.529,135.724z"/>
		<path clip-path="url(#SVGID_14_)" fill="#24285B" d="M247.663,11.69c2.418,0.093,4.84-0.09,7.218-0.548
			c-1.408,2.159-1.408,4.945,0,7.105c1.356,2.153,4.051,3.043,6.425,2.121l-0.132-10.058c0.054-2.935-1.506-5.663-4.062-7.105
			c-1.084-0.619-2.206-1.168-3.359-1.645c-2.893-1.157-7.105,0.772-9.734-1.187c-0.835-0.622-2.019-0.449-2.642,0.388
			c-0.186,0.25-0.307,0.542-0.353,0.85c-0.456,3.045,0.092,7.876,4.233,9.551C246.023,11.473,246.838,11.651,247.663,11.69"/>
		<path clip-path="url(#SVGID_14_)" fill="#F4A28C" d="M254.037,18.064c0,0,0.062-3.045,2.324-2.781
			c2.264,0.264,2.213,4.588-0.873,4.994L254.037,18.064z"/>
		<g opacity="0.08" clip-path="url(#SVGID_14_)" enable-background="new    ">
			<g>
				<defs>
					<rect id="SVGID_23_" x="211.438" y="92.724" width="37.271" height="21.116"/>
				</defs>
				<clipPath id="SVGID_24_">
					<use xlink:href="#SVGID_23_"  overflow="visible"/>
				</clipPath>
				<path clip-path="url(#SVGID_24_)" d="M242.761,92.972c0,0-9.521-2.538-10.403,8.627c-0.356,4.415-11.074,5.015-20.92,0.822
					v6.679l37.271,4.74V97.915L242.761,92.972z"/>
			</g>
		</g>
		<path clip-path="url(#SVGID_14_)" fill="#F4A28C" d="M253.499,93.601c-3.304-1.504-6.757-2.654-10.302-3.431
			c-1.302-0.269-2.574,0.568-2.844,1.869c-0.032,0.16-0.049,0.323-0.049,0.486v2.873c0.004,1.328,1.084,2.402,2.411,2.399
			c0.042,0,0.085-0.002,0.126-0.004c3.755-0.3,7.503,0.653,10.657,2.71V93.601z"/>
		<path clip-path="url(#SVGID_14_)" fill="#EC6952" d="M241.796,194.756c0,0,1.208,4.061-1.491,6.425
			c-2.699,2.365-1.381,5.766,1.766,4.577c3.146-1.188,7.37-9.47,7.37-9.47l-3.27-4.06L241.796,194.756z"/>
		<path clip-path="url(#SVGID_14_)" fill="#F4A28C" d="M245.541,16.298l-2.172,3.045c-0.408,0.549-0.294,1.325,0.255,1.733
			c0.155,0.115,0.336,0.193,0.527,0.226l2.994,0.568L245.541,16.298z"/>
		<g opacity="0.31" clip-path="url(#SVGID_14_)" enable-background="new    ">
			<g>
				<defs>
					<rect id="SVGID_25_" x="254.179" y="22.257" width="4.243" height="8.972"/>
				</defs>
				<clipPath id="SVGID_26_">
					<use xlink:href="#SVGID_25_"  overflow="visible"/>
				</clipPath>
				<path clip-path="url(#SVGID_26_)" fill="#CE8172" d="M254.179,25.931c1.497-0.882,2.729-2.151,3.563-3.674
					c0,0,2.781,4.882-2.903,8.972L254.179,25.931z"/>
			</g>
		</g>
		<g opacity="0.08" clip-path="url(#SVGID_14_)" enable-background="new    ">
			<g>
				<defs>
					<rect id="SVGID_27_" x="215.873" y="71.992" width="15.185" height="14.25"/>
				</defs>
				<clipPath id="SVGID_28_">
					<use xlink:href="#SVGID_27_"  overflow="visible"/>
				</clipPath>
				<polygon clip-path="url(#SVGID_28_)" points="215.873,71.991 215.873,84.212 231.059,86.242 231.059,74.124 				"/>
			</g>
		</g>
		<g opacity="0.08" clip-path="url(#SVGID_14_)" enable-background="new    ">
			<g>
				<defs>
					<rect id="SVGID_29_" x="204.455" y="93.225" width="7.022" height="12.119"/>
				</defs>
				<clipPath id="SVGID_30_">
					<use xlink:href="#SVGID_29_"  overflow="visible"/>
				</clipPath>
				<polygon clip-path="url(#SVGID_30_)" points="206.778,93.225 204.455,103.751 211.479,105.344 211.479,93.784 				"/>
			</g>
		</g>
		<path clip-path="url(#SVGID_14_)" fill="#F4A28C" d="M180.602,90.119c0,0-6.465-4.506-12.596-6.09
			c-0.985-0.243-1.981,0.359-2.224,1.344c-0.008,0.029-0.014,0.058-0.02,0.087c-0.166,0.829,0.252,1.666,1.016,2.031l4.231,2.029
			c0.783,0.372,1.163,1.271,0.883,2.091l-0.599,1.705c-0.52,1.493,0.27,3.125,1.763,3.644c0.156,0.055,0.317,0.096,0.481,0.122
			l5.277,0.883L180.602,90.119z"/>
		<g opacity="0.08" clip-path="url(#SVGID_14_)" enable-background="new    ">
			<g>
				<defs>
					<rect id="SVGID_31_" x="73.997" y="42.049" width="60.271" height="60.271"/>
				</defs>
				<clipPath id="SVGID_32_">
					<use xlink:href="#SVGID_31_"  overflow="visible"/>
				</clipPath>
				<path clip-path="url(#SVGID_32_)" d="M104.132,42.049c16.643,0,30.135,13.492,30.135,30.135
					c0,16.644-13.492,30.136-30.135,30.136c-16.644,0-30.136-13.492-30.136-30.136C73.996,55.541,87.488,42.049,104.132,42.049"/>
			</g>
		</g>
		<path clip-path="url(#SVGID_14_)" fill="#FFFFFF" d="M95.657,35.126c16.644,0,30.136,13.492,30.136,30.136
			c0,16.643-13.492,30.135-30.136,30.135c-16.643,0-30.135-13.492-30.135-30.135C65.521,48.619,79.014,35.126,95.657,35.126"/>
		<path clip-path="url(#SVGID_14_)" fill="#24285B" d="M98.55,35.259l-2.893,30.003l30.054-2.223
			C125.71,63.039,124.828,38.964,98.55,35.259"/>
		<path clip-path="url(#SVGID_14_)" fill="#24285B" d="M55.889,16.197c1.917,0,3.471,1.554,3.471,3.471
			c0,1.918-1.554,3.472-3.471,3.472s-3.471-1.554-3.471-3.472C52.418,17.751,53.972,16.197,55.889,16.197"/>
		<path clip-path="url(#SVGID_14_)" fill="#EC6952" d="M66.212,16.197c1.917,0,3.471,1.554,3.471,3.471
			c0,1.918-1.554,3.472-3.471,3.472s-3.472-1.554-3.472-3.472C62.74,17.751,64.295,16.197,66.212,16.197"/>
		<path clip-path="url(#SVGID_14_)" fill="#FFD200" d="M75.925,16.197c1.917,0,3.471,1.554,3.471,3.471
			c0,1.918-1.554,3.472-3.471,3.472s-3.471-1.554-3.471-3.472C72.454,17.751,74.008,16.197,75.925,16.197"/>
		<g opacity="0.08" clip-path="url(#SVGID_14_)" enable-background="new    ">
			<g>
				<defs>
					<rect id="SVGID_33_" x="163.307" y="35.431" width="26.137" height="6.598"/>
				</defs>
				<clipPath id="SVGID_34_">
					<use xlink:href="#SVGID_33_"  overflow="visible"/>
				</clipPath>
				<rect x="163.306" y="35.431" clip-path="url(#SVGID_34_)" width="26.137" height="6.598"/>
			</g>
		</g>
		<g opacity="0.08" clip-path="url(#SVGID_14_)" enable-background="new    ">
			<g>
				<defs>
					<rect id="SVGID_35_" x="163.307" y="48.169" width="26.137" height="6.598"/>
				</defs>
				<clipPath id="SVGID_36_">
					<use xlink:href="#SVGID_35_"  overflow="visible"/>
				</clipPath>
				<rect x="163.306" y="48.17" clip-path="url(#SVGID_36_)" width="26.137" height="6.598"/>
			</g>
		</g>
		<g opacity="0.08" clip-path="url(#SVGID_14_)" enable-background="new    ">
			<g>
				<defs>
					<rect id="SVGID_37_" x="163.307" y="61.963" width="26.137" height="6.598"/>
				</defs>
				<clipPath id="SVGID_38_">
					<use xlink:href="#SVGID_37_"  overflow="visible"/>
				</clipPath>
				<rect x="163.306" y="61.963" clip-path="url(#SVGID_38_)" width="26.137" height="6.597"/>
			</g>
		</g>
		<rect x="147.32" y="35.431" clip-path="url(#SVGID_14_)" fill="#24285B" width="8.627" height="6.598"/>
		<rect x="147.32" y="48.17" clip-path="url(#SVGID_14_)" fill="#FFD200" width="8.627" height="6.598"/>
		<rect x="147.32" y="61.963" clip-path="url(#SVGID_14_)" fill="#EC6952" width="8.627" height="6.597"/>
		<g opacity="0.08" clip-path="url(#SVGID_14_)" enable-background="new    ">
			<g>
				<defs>
					<rect id="SVGID_39_" x="239.878" y="32.802" width="27.04" height="11.62"/>
				</defs>
				<clipPath id="SVGID_40_">
					<use xlink:href="#SVGID_39_"  overflow="visible"/>
				</clipPath>
				<path clip-path="url(#SVGID_40_)" d="M239.878,43.906c0,0,21.914,4.151,27.039-11.104l-11.479,3.208
					C249.786,37.603,244.5,40.285,239.878,43.906"/>
			</g>
		</g>
		<rect x="196.242" y="3.854" clip-path="url(#SVGID_14_)" fill="#24285B" width="17.509" height="13.114"/>
		<g opacity="0.8" clip-path="url(#SVGID_14_)" enable-background="new    ">
			<g>
				<defs>
					<rect id="SVGID_41_" x="152.111" y="3.855" width="44.193" height="13.113"/>
				</defs>
				<clipPath id="SVGID_42_">
					<use xlink:href="#SVGID_41_"  overflow="visible"/>
				</clipPath>
				<rect x="152.111" y="3.854" clip-path="url(#SVGID_42_)" fill="#FFFFFF" width="44.193" height="13.114"/>
			</g>
		</g>
		<path clip-path="url(#SVGID_14_)" fill="#FFD200" d="M95.657,65.262l21.173,21.447c0,0,10.515-8.059,8.881-23.67L95.657,65.262z"
			/>
		
			<polyline clip-path="url(#SVGID_14_)" fill="none" stroke="#A5A5A5" stroke-width="2.03" stroke-linecap="round" stroke-linejoin="round" stroke-miterlimit="4.06" points="
			15.357,123.376 22.736,115.997 34.602,121.001 41.493,122.727 52.1,113.46 62.798,108.618 		"/>
		<g opacity="0.21" clip-path="url(#SVGID_14_)" enable-background="new    ">
			<g>
				<defs>
					<rect id="SVGID_43_" x="8.973" y="99.93" width="15.397" height="4.06"/>
				</defs>
				<clipPath id="SVGID_44_">
					<use xlink:href="#SVGID_43_"  overflow="visible"/>
				</clipPath>
				<rect x="8.972" y="99.93" clip-path="url(#SVGID_44_)" fill="#A5A5A5" width="15.397" height="4.06"/>
			</g>
		</g>
		<path clip-path="url(#SVGID_14_)" fill="#FFFFFF" d="M15.185,119.723c1.799,0,3.258,1.458,3.258,3.258s-1.459,3.258-3.258,3.258
			c-1.799,0-3.258-1.458-3.258-3.258S13.385,119.723,15.185,119.723"/>
		<path clip-path="url(#SVGID_14_)" fill="#FFD200" d="M41.676,118.616c1.799,0,3.258,1.459,3.258,3.258
			c0,1.801-1.459,3.26-3.258,3.26c-1.8,0-3.258-1.459-3.258-3.26C38.418,120.075,39.876,118.616,41.676,118.616"/>
		<path clip-path="url(#SVGID_14_)" fill="#24285B" d="M63.083,105.34c1.799,0,3.258,1.458,3.258,3.258
			c0,1.8-1.459,3.258-3.258,3.258c-1.799,0-3.258-1.458-3.258-3.258C59.824,106.798,61.283,105.34,63.083,105.34"/>
		<path clip-path="url(#SVGID_14_)" fill="#EC6952" d="M95.657,65.262l12.414,27.466c3.309-1.371,6.294-3.421,8.759-6.019
			L95.657,65.262z"/>
		<g opacity="0.08" clip-path="url(#SVGID_14_)" enable-background="new    ">
			<g>
				<defs>
					<rect id="SVGID_45_" x="150.511" y="125.255" width="49.603" height="52.871"/>
				</defs>
				<clipPath id="SVGID_46_">
					<use xlink:href="#SVGID_45_"  overflow="visible"/>
				</clipPath>
				<rect x="150.511" y="125.255" clip-path="url(#SVGID_46_)" width="49.603" height="52.871"/>
			</g>
		</g>
		<rect x="121.999" y="125.255" clip-path="url(#SVGID_14_)" fill="#FFD200" width="66.929" height="42.65"/>
		<rect x="135.204" y="150.203" clip-path="url(#SVGID_14_)" fill="#24285B" width="9.074" height="9.074"/>
		<rect x="150.511" y="140.449" clip-path="url(#SVGID_14_)" fill="#24285B" width="9.074" height="18.828"/>
		<rect x="166.649" y="133.893" clip-path="url(#SVGID_14_)" fill="#24285B" width="9.073" height="25.386"/>
		<path clip-path="url(#SVGID_14_)" fill="#C9C9C9" d="M85.374,177.832c-11.206,0.003-20.292-9.078-20.296-20.283
			c-0.004-11.206,9.077-20.293,20.283-20.297c11.205-0.003,20.293,9.078,20.296,20.283v0.007
			C105.646,168.74,96.573,177.816,85.374,177.832 M85.374,142.728c-8.185,0-14.821,6.636-14.821,14.821s6.636,14.82,14.821,14.82
			c8.186,0,14.821-6.636,14.821-14.82v-0.041C100.166,149.342,93.541,142.734,85.374,142.728"/>
		<path clip-path="url(#SVGID_14_)" fill="#24285B" d="M85.374,177.832c-4.953-0.001-9.733-1.818-13.437-5.105l3.622-4.093
			c2.707,2.399,6.198,3.727,9.815,3.729V177.832z"/>
		<path clip-path="url(#SVGID_14_)" fill="#EC6952" d="M105.657,157.542h-5.455c-0.03-8.167-6.655-14.772-14.821-14.781v-5.502
			C96.574,137.277,105.642,146.35,105.657,157.542"/>
		<path clip-path="url(#SVGID_14_)" fill="#FFD200" d="M85.374,177.832v-5.47c8.185-0.003,14.82-6.635,14.828-14.82h5.462
			C105.649,168.741,96.574,177.816,85.374,177.832"/>
		<path clip-path="url(#SVGID_14_)" fill="#A5A5A5" d="M85.818,150.984c0.363,0,0.47,0.121,0.47,0.483v0.739
			c1.289,0.138,2.398,0.975,2.883,2.177c0.188,0.377,0.107,0.579-0.316,0.767l-0.766,0.349c-0.363,0.168-0.531,0.095-0.732-0.282
			c-0.331-0.804-1.151-1.294-2.016-1.209c-1.344,0-1.942,0.396-1.942,1.283c0,0.585,0.531,0.94,1.082,1.055
			c0.372,0.079,0.749,0.136,1.129,0.168c0.71,0.035,1.412,0.173,2.082,0.41c0.335,0.108,0.647,0.276,0.92,0.498
			c0.573,0.595,0.876,1.397,0.84,2.223c0,1.707-1.142,2.862-3.164,3.164v0.821c0,0.361-0.107,0.482-0.47,0.482h-0.86
			c-0.363,0-0.484-0.121-0.484-0.482v-0.808c-1.437-0.095-2.676-1.047-3.137-2.412c-0.121-0.255-0.012-0.559,0.243-0.68
			c0.038-0.017,0.078-0.03,0.119-0.039l0.766-0.282c0.39-0.141,0.564-0.047,0.739,0.343c0.307,0.883,1.18,1.439,2.11,1.344
			c1.444,0,2.163-0.457,2.163-1.344c0.027-0.44-0.25-0.842-0.672-0.974c-0.5-0.174-1.023-0.272-1.551-0.296
			c-0.719-0.044-1.426-0.198-2.097-0.457c-1.16-0.365-1.9-1.499-1.767-2.707c0-1.687,1.062-2.814,3.071-3.084v-0.767
			c0-0.362,0.121-0.483,0.483-0.483H85.818z"/>
	</g>
</g>
</svg>
