<?xml version="1.0" encoding="utf-8"?>
<!-- Generator: Adobe Illustrator 16.0.0, SVG Export Plug-In . SVG Version: 6.00 Build 0)  -->
<!DOCTYPE svg PUBLIC "-//W3C//DTD SVG 1.1//EN" "http://www.w3.org/Graphics/SVG/1.1/DTD/svg11.dtd">
<svg version="1.1" id="Layer_1" xmlns="http://www.w3.org/2000/svg" xmlns:xlink="http://www.w3.org/1999/xlink" x="0px" y="0px"
	 width="308.469px" height="239.17px" viewBox="0 0 308.469 239.17" enable-background="new 0 0 308.469 239.17"
	 xml:space="preserve">
<g>
	<defs>
		<rect id="SVGID_1_" width="308.469" height="239.17"/>
	</defs>
	<clipPath id="SVGID_2_">
		<use xlink:href="#SVGID_1_"  overflow="visible"/>
	</clipPath>
	<g clip-path="url(#SVGID_2_)">
		<defs>
			<rect id="SVGID_3_" width="308.469" height="239.17"/>
		</defs>
		<clipPath id="SVGID_4_">
			<use xlink:href="#SVGID_3_"  overflow="visible"/>
		</clipPath>
		<g opacity="0.45" clip-path="url(#SVGID_4_)" enable-background="new    ">
			<g>
				<defs>
					<rect id="SVGID_5_" x="36.977" y="216.698" width="210.755" height="22.472"/>
				</defs>
				<clipPath id="SVGID_6_">
					<use xlink:href="#SVGID_5_"  overflow="visible"/>
				</clipPath>
				<path clip-path="url(#SVGID_6_)" fill="#E6E6E6" d="M142.354,216.697c58.198,0,105.378,5.03,105.378,11.236
					c0,6.205-47.18,11.237-105.378,11.237s-105.377-5.032-105.377-11.237C36.977,221.728,84.155,216.697,142.354,216.697"/>
			</g>
		</g>
		<path clip-path="url(#SVGID_4_)" fill="#FFD200" d="M275.461,33.572c9.563,0,17.315,7.752,17.315,17.315
			c0,9.564-7.753,17.316-17.315,17.316c-9.563,0-17.315-7.752-17.315-17.316C258.146,41.324,265.897,33.572,275.461,33.572"/>
		<g opacity="0.15" clip-path="url(#SVGID_4_)" enable-background="new    ">
			<g>
				<defs>
					<rect id="SVGID_7_" x="242.453" y="17.88" width="66.016" height="66.015"/>
				</defs>
				<clipPath id="SVGID_8_">
					<use xlink:href="#SVGID_7_"  overflow="visible"/>
				</clipPath>
				<path clip-path="url(#SVGID_8_)" fill="#FFD200" d="M275.461,17.879c18.229,0,33.008,14.778,33.008,33.008
					s-14.779,33.008-33.008,33.008c-18.229,0-33.008-14.778-33.008-33.008S257.231,17.879,275.461,17.879"/>
			</g>
		</g>
		<g opacity="0.37" clip-path="url(#SVGID_4_)" enable-background="new    ">
			<g>
				<defs>
					<rect id="SVGID_9_" x="13.246" y="52.286" width="71.252" height="48.565"/>
				</defs>
				<clipPath id="SVGID_10_">
					<use xlink:href="#SVGID_9_"  overflow="visible"/>
				</clipPath>
				<path clip-path="url(#SVGID_10_)" fill="#E6E6E6" d="M84.499,90.564c0-5.679-4.604-10.282-10.282-10.282
					c-0.554,0.001-1.108,0.048-1.655,0.142c-2.408-4.488-7.086-7.291-12.18-7.298h-0.507c0.334-1.3,0.504-2.636,0.507-3.979
					c0.226-9.083-6.955-16.631-16.039-16.856c-9.084-0.226-16.631,6.955-16.857,16.039c-0.007,0.273-0.007,0.545,0,0.817
					c0.003,1.343,0.174,2.679,0.508,3.979h-0.508c-7.654-0.207-14.028,5.831-14.235,13.485c-0.207,7.655,5.831,14.028,13.485,14.235
					c0.25,0.007,0.5,0.007,0.75,0h48.101v-0.102C80.689,100.063,84.499,95.711,84.499,90.564"/>
			</g>
		</g>
		<path clip-path="url(#SVGID_4_)" fill="#EFEFEF" d="M138.598,21.97c49.683,0,89.958,40.276,89.958,89.959
			c0,49.684-40.275,89.96-89.958,89.96s-89.959-40.276-89.959-89.96C48.639,62.246,88.915,21.97,138.598,21.97"/>
		<path clip-path="url(#SVGID_4_)" fill="#CECECE" d="M72.116,53.039c0,0,0.792,12.982,9.693,9.135
			c8.902-3.847,20.91-8.12,19.61,6.161c-1.299,14.281,5.837,16.24,15.895,12.657c10.059-3.583,5.187-4.547,5.836-17.518
			c0.65-12.972-16.24-13.622-13.621-22.706c2.619-9.084,22.868,1.746,15.814-17.783C125.343,22.935,89.848,25.868,72.116,53.039"/>
		<path clip-path="url(#SVGID_4_)" fill="#CECECE" d="M147.003,86.849c-1.889,0.003-3.754,0.411-5.471,1.197
			c-3.553,1.696-7.836,5.786-5.4,15.55c3.888,15.621,10.373,4.009,18.808,5.918c8.435,1.908,27.578,3.867,18.168,21.051
			c-9.408,17.183,1.3,20.766,10.385,16.545c9.084-4.224,2.913-21.082,12.321-13.622c9.409,7.461-1.4,30.978,21.519,21.974
			c0,0,26.39-39.939,0-87.076c0,0-11.957-22.878-21.366-14.768c-9.409,8.109,3.543,8.566,4.842,17.874
			c1.299,9.307-4.191,20.675-11.692,10.221c-7.501-10.455-4.974-9.531-16.981-10.83c-9.581-1.015-16.24,0.112-16.433,8.252
			c-0.087,4.234-3.51,7.639-7.744,7.704L147.003,86.849z"/>
		<path clip-path="url(#SVGID_4_)" fill="#CECECE" d="M144.628,36.17c0,0-9.338-2.588-9.217,8.759
			c0.122,11.348,6.293,10.699,13.104,7.785c6.811-2.913,1.015,6.486,13.956,3.898c12.941-2.588,13.946-5.643,11.023-10.15
			C170.57,41.956,165.699,24.822,144.628,36.17"/>
		<path clip-path="url(#SVGID_4_)" fill="#CECECE" d="M48.639,111.929c0,0,10.972-17.945,22.959-5.815
			c11.988,12.128-11.601,10.149,0.518,21.863c12.119,11.713,20.503-15.459,27.355-5.156c6.851,10.301,20.178,17.336,4.516,26.389
			c-15.661,9.055-6.293,21.691,0.924,19.022c7.216-2.67,20.026,15.59,0,26.886C104.911,195.169,46.132,173.724,48.639,111.929"/>
		<path clip-path="url(#SVGID_4_)" fill="#CECECE" d="M142.688,132.514c0,0-12.322,0-12.362,11.684
			c-0.041,11.682,23.02,0.629,17.661,13.286c-5.36,12.656,7.236,16.066,14.21,10.8c6.972-5.27-5.075-21.144-3.897-32.349
			C159.477,124.729,144.059,127.327,142.688,132.514"/>
		<path clip-path="url(#SVGID_4_)" fill="#CECECE" d="M138.598,201.889c0,0-7.958-8.395,9.389-10.333
			c17.346-1.938,17.722-11.032,23.345-14.931c5.623-3.896,17.61,9.856,17.61,9.856S166.714,206.385,138.598,201.889"/>
		<g opacity="0.08" clip-path="url(#SVGID_4_)" enable-background="new    ">
			<g>
				<defs>
					<rect id="SVGID_11_" x="80.445" y="155.301" width="14.549" height="35.261"/>
				</defs>
				<clipPath id="SVGID_12_">
					<use xlink:href="#SVGID_11_"  overflow="visible"/>
				</clipPath>
				<path clip-path="url(#SVGID_12_)" d="M81.799,155.301h13.195v35.262c0,0-10.15-6.03-13.195-8.912
					C78.754,178.768,81.799,155.301,81.799,155.301"/>
			</g>
		</g>
		<g opacity="0.08" clip-path="url(#SVGID_4_)" enable-background="new    ">
			<g>
				<defs>
					<rect id="SVGID_13_" x="158.797" y="78.343" width="21.863" height="6.76"/>
				</defs>
				<clipPath id="SVGID_14_">
					<use xlink:href="#SVGID_13_"  overflow="visible"/>
				</clipPath>
				<path clip-path="url(#SVGID_14_)" d="M169.729,78.343c6.037,0,10.932,1.513,10.932,3.38c0,1.867-4.895,3.38-10.932,3.38
					s-10.932-1.513-10.932-3.38C158.797,79.856,163.691,78.343,169.729,78.343"/>
			</g>
		</g>
		<path clip-path="url(#SVGID_4_)" fill="#EC6952" d="M192.089,38.423c-0.057-12.333-10.1-22.284-22.433-22.228
			c-12.332,0.056-22.284,10.098-22.227,22.431c0.017,4.029,1.126,7.978,3.207,11.429l19.122,31.292l19.001-31.14
			C190.952,46.668,192.105,42.585,192.089,38.423 M169.759,50.289c-6.037,0-10.932-4.894-10.932-10.932
			c0-6.037,4.895-10.931,10.932-10.931s10.932,4.894,10.932,10.931C180.69,45.395,175.796,50.289,169.759,50.289"/>
		<g opacity="0.08" clip-path="url(#SVGID_4_)" enable-background="new    ">
			<g>
				<defs>
					<rect id="SVGID_15_" x="85.524" y="45.934" width="18.859" height="5.562"/>
				</defs>
				<clipPath id="SVGID_16_">
					<use xlink:href="#SVGID_15_"  overflow="visible"/>
				</clipPath>
				<path clip-path="url(#SVGID_16_)" d="M94.953,45.934c5.208,0,9.43,1.245,9.43,2.781c0,1.536-4.222,2.781-9.43,2.781
					s-9.429-1.245-9.429-2.781C85.524,47.179,89.745,45.934,94.953,45.934"/>
			</g>
		</g>
		<path clip-path="url(#SVGID_4_)" fill="#EC6952" d="M111.599,16.641C111.597,7.449,104.142-0.002,94.949,0
			C85.755,0.002,78.305,7.458,78.307,16.65c0.001,3.051,0.84,6.043,2.426,8.649l14.21,23.344l14.159-23.263
			C110.733,22.758,111.598,19.729,111.599,16.641 M94.953,25.472c-4.484,0-8.12-3.635-8.12-8.12c0-4.484,3.636-8.12,8.12-8.12
			c4.485,0,8.12,3.636,8.12,8.12C103.073,21.836,99.438,25.472,94.953,25.472"/>
		<g opacity="0.08" clip-path="url(#SVGID_4_)" enable-background="new    ">
			<g>
				<defs>
					<rect id="SVGID_17_" x="138.294" y="140.694" width="13.723" height="3.756"/>
				</defs>
				<clipPath id="SVGID_18_">
					<use xlink:href="#SVGID_17_"  overflow="visible"/>
				</clipPath>
				<path clip-path="url(#SVGID_18_)" d="M145.155,140.695c3.789,0,6.861,0.841,6.861,1.878c0,1.036-3.072,1.877-6.861,1.877
					c-3.79,0-6.861-0.841-6.861-1.877C138.294,141.536,141.365,140.695,145.155,140.695"/>
			</g>
		</g>
		<g opacity="0.08" clip-path="url(#SVGID_4_)" enable-background="new    ">
			<g>
				<defs>
					<rect id="SVGID_19_" x="182.634" y="134.574" width="22.883" height="46.12"/>
				</defs>
				<clipPath id="SVGID_20_">
					<use xlink:href="#SVGID_19_"  overflow="visible"/>
				</clipPath>
				<path clip-path="url(#SVGID_20_)" d="M205.518,134.573c0,0-16.24,3.392-11.652,19.285c0,0-15.368,9.074-10.15,20.85
					c0,0,2.183,7.022,13.002,5.855c0,0,4.578-4.06,5.359-4.913C202.858,174.799,205.518,134.573,205.518,134.573"/>
			</g>
		</g>
		<path clip-path="url(#SVGID_4_)" fill="#EC6952" d="M157.203,119.451c0.004-6.654-5.387-12.051-12.041-12.055
			c-6.654-0.004-12.051,5.387-12.055,12.04c-0.001,2.219,0.61,4.396,1.766,6.287l10.292,16.85l10.231-16.769
			C156.582,123.896,157.207,121.695,157.203,119.451 M145.155,125.865c-3.251,0-5.887-2.636-5.887-5.888
			c0-3.251,2.636-5.886,5.887-5.886s5.887,2.635,5.887,5.886C151.042,123.229,148.406,125.865,145.155,125.865"/>
		<path clip-path="url(#SVGID_4_)" fill="#F7F7F7" d="M250.522,166.343c0.006-5.135-4.152-9.302-9.287-9.307h-0.021
			c-0.5,0.002-0.999,0.047-1.491,0.132c-2.191-4.085-6.459-6.626-11.095-6.607h-0.457c0.299-1.183,0.452-2.396,0.457-3.613
			c-0.214-8.227-7.057-14.721-15.283-14.506c-7.925,0.207-14.3,6.582-14.507,14.506c0.007,1.218,0.16,2.431,0.456,3.613h-0.456
			c-6.928,0-12.545,5.616-12.545,12.546c0,6.928,5.617,12.545,12.545,12.545h43.595v-0.051
			C247.071,174.984,250.532,171.023,250.522,166.343"/>
		<rect y="146.186" clip-path="url(#SVGID_4_)" fill="#24285B" width="81.799" height="46.821"/>
		<path clip-path="url(#SVGID_4_)" fill="#FFD200" d="M32.409,163.501c-0.009-5.431-4.42-9.828-9.851-9.817
			c-5.432,0.009-9.828,4.419-9.82,9.851c0.003,1.777,0.488,3.52,1.401,5.042l8.445,13.794l8.354-13.691
			C31.902,167.124,32.412,165.33,32.409,163.501 M22.584,168.719c-2.657,0-4.811-2.153-4.811-4.812c0-2.657,2.154-4.811,4.811-4.811
			c2.657,0,4.811,2.153,4.811,4.811C27.395,166.565,25.241,168.719,22.584,168.719"/>
		<rect x="41.189" y="159.106" clip-path="url(#SVGID_4_)" fill="#FFFFFF" width="29.729" height="6.739"/>
		<g opacity="0.19" clip-path="url(#SVGID_4_)" enable-background="new    ">
			<g>
				<defs>
					<rect id="SVGID_21_" x="41.188" y="171.338" width="29.729" height="6.739"/>
				</defs>
				<clipPath id="SVGID_22_">
					<use xlink:href="#SVGID_21_"  overflow="visible"/>
				</clipPath>
				<rect x="41.189" y="171.337" clip-path="url(#SVGID_22_)" fill="#FFFFFF" width="29.729" height="6.739"/>
			</g>
		</g>
	</g>
</g>
</svg>
