<?xml version="1.0" encoding="utf-8"?>
<!-- Generator: Adobe Illustrator 16.0.0, SVG Export Plug-In . SVG Version: 6.00 Build 0)  -->
<!DOCTYPE svg PUBLIC "-//W3C//DTD SVG 1.1//EN" "http://www.w3.org/Graphics/SVG/1.1/DTD/svg11.dtd">
<svg version="1.1" id="Layer_1" xmlns="http://www.w3.org/2000/svg" xmlns:xlink="http://www.w3.org/1999/xlink" x="0px" y="0px"
	 width="150.091px" height="262.06px" viewBox="0 0 150.091 262.06" enable-background="new 0 0 150.091 262.06"
	 xml:space="preserve">
<g>
	<defs>
		<rect id="SVGID_1_" width="150.091" height="262.06"/>
	</defs>
	<clipPath id="SVGID_2_">
		<use xlink:href="#SVGID_1_"  overflow="visible"/>
	</clipPath>
	<g clip-path="url(#SVGID_2_)">
		<defs>
			<path id="SVGID_3_" d="M28.715,4.827c-7.561,0-13.69,6.128-13.69,13.688v223.811c0,7.561,6.129,13.688,13.69,13.688h92.663
				c7.559,0,13.688-6.128,13.688-13.688V18.515c0-7.56-6.13-13.688-13.688-13.688H28.715z"/>
		</defs>
		<clipPath id="SVGID_4_">
			<use xlink:href="#SVGID_3_"  overflow="visible"/>
		</clipPath>
		
			<linearGradient id="SVGID_5_" gradientUnits="userSpaceOnUse" x1="0" y1="262.0601" x2="1" y2="262.0601" gradientTransform="matrix(0 365.1481 365.1481 0 -95615.7422 -53.1899)">
			<stop  offset="0" style="stop-color:#ABDAF6"/>
			<stop  offset="0.5183" style="stop-color:#289DD8"/>
			<stop  offset="1" style="stop-color:#1988CA"/>
		</linearGradient>
		<rect x="15.025" y="4.827" clip-path="url(#SVGID_4_)" fill="url(#SVGID_5_)" width="120.042" height="251.187"/>
	</g>
	<g clip-path="url(#SVGID_2_)">
		<defs>
			<path id="SVGID_6_" d="M28.715,4.827c-7.561,0-13.69,6.128-13.69,13.688v223.811c0,7.561,6.129,13.688,13.69,13.688h92.663
				c7.559,0,13.688-6.128,13.688-13.688V18.515c0-7.56-6.13-13.688-13.688-13.688H28.715z"/>
		</defs>
		<clipPath id="SVGID_7_">
			<use xlink:href="#SVGID_6_"  overflow="visible"/>
		</clipPath>
		
			<linearGradient id="SVGID_8_" gradientUnits="userSpaceOnUse" x1="0" y1="262.0601" x2="1" y2="262.0601" gradientTransform="matrix(0 365.1481 365.1481 0 -95615.7422 -53.1899)">
			<stop  offset="0" style="stop-color:#EB6851"/>
			<stop  offset="1" style="stop-color:#EC8C4F"/>
		</linearGradient>
		<rect x="15.025" y="4.827" clip-path="url(#SVGID_7_)" fill="url(#SVGID_8_)" width="120.042" height="251.187"/>
	</g>
	<g clip-path="url(#SVGID_2_)">
		<defs>
			<rect id="SVGID_9_" width="150.091" height="262.06"/>
		</defs>
		<clipPath id="SVGID_10_">
			<use xlink:href="#SVGID_9_"  overflow="visible"/>
		</clipPath>
		<path clip-path="url(#SVGID_10_)" fill="#202030" d="M121.467,6.063c6.829,0,12.386,5.556,12.386,12.385v225.166
			c0,6.829-5.557,12.385-12.386,12.385H28.624c-6.829,0-12.385-5.556-12.385-12.385V18.447c0-6.829,5.556-12.385,12.385-12.385
			H121.467 M121.467,0H28.624C18.436,0,10.176,8.259,10.176,18.447v225.166c0,10.188,8.26,18.447,18.448,18.447h92.843
			c10.188,0,18.447-8.259,18.447-18.447V18.447C139.914,8.259,131.655,0,121.467,0"/>
		<path clip-path="url(#SVGID_10_)" fill="#202030" d="M9.199,45.483h1.895V35H9.199V45.483z M9.199,73.016h1.895V53.44H9.199
			V73.016z M138.998,91.708h1.895V61.112h-1.895V91.708z M9.199,97.896h1.895V78.32H9.199V97.896z"/>
		<path clip-path="url(#SVGID_10_)" fill="#202030" d="M35.042,2.873v3.158h5.368c1.072,0,1.941,0.893,1.941,1.994
			c0,0,2.044,7.333,5.5,7.333h54.39c3.456,0,5.5-7.333,5.5-7.333c0-1.101,0.869-1.994,1.942-1.994h5.368V2.873H35.042z"/>
		<g opacity="0.23" clip-path="url(#SVGID_10_)">
			<g>
				<defs>
					<rect id="SVGID_11_" x="47.26" y="8.288" width="4.547" height="4.547"/>
				</defs>
				<clipPath id="SVGID_12_">
					<use xlink:href="#SVGID_11_"  overflow="visible"/>
				</clipPath>
				<path clip-path="url(#SVGID_12_)" fill="#3B4A7B" d="M51.807,10.561c0,1.256-1.018,2.273-2.273,2.273
					c-1.256,0-2.273-1.017-2.273-2.273c0-1.255,1.017-2.273,2.273-2.273C50.789,8.288,51.807,9.306,51.807,10.561"/>
			</g>
		</g>
		<path clip-path="url(#SVGID_10_)" fill="#252638" d="M50.639,10.561c0,0.61-0.495,1.105-1.105,1.105
			c-0.61,0-1.105-0.495-1.105-1.105s0.495-1.105,1.105-1.105C50.144,9.456,50.639,9.951,50.639,10.561"/>
		<path clip-path="url(#SVGID_10_)" fill="#252638" d="M91.762,10.561c0,1.263-1.023,2.287-2.287,2.287
			c-1.263,0-2.285-1.024-2.285-2.287c0-1.263,1.022-2.286,2.285-2.286C90.738,8.275,91.762,9.298,91.762,10.561"/>
		<path clip-path="url(#SVGID_10_)" fill="#252638" d="M102.831,10.561c0,1.517-1.229,2.747-2.747,2.747
			c-1.518,0-2.747-1.23-2.747-2.747s1.229-2.747,2.747-2.747C101.603,7.814,102.831,9.044,102.831,10.561"/>
		<g opacity="0.23" clip-path="url(#SVGID_10_)">
			<g>
				<defs>
					<rect id="SVGID_13_" x="58.5" y="7.909" width="5.305" height="5.304"/>
				</defs>
				<clipPath id="SVGID_14_">
					<use xlink:href="#SVGID_13_"  overflow="visible"/>
				</clipPath>
				<path clip-path="url(#SVGID_14_)" fill="#3B4A7B" d="M63.805,10.561c0,1.465-1.187,2.652-2.652,2.652
					c-1.465,0-2.653-1.187-2.653-2.652s1.188-2.652,2.653-2.652C62.618,7.909,63.805,9.096,63.805,10.561"/>
			</g>
		</g>
		<path clip-path="url(#SVGID_10_)" fill="#252638" d="M62.726,10.561c0,0.869-0.704,1.573-1.573,1.573
			c-0.868,0-1.573-0.704-1.573-1.573s0.705-1.573,1.573-1.573C62.021,8.988,62.726,9.692,62.726,10.561"/>
		<path clip-path="url(#SVGID_10_)" fill="#252638" d="M82.465,11.667H68.131c-0.541,0-0.979-0.438-0.979-0.979
			s0.438-0.979,0.979-0.979h14.334c0.541,0,0.979,0.438,0.979,0.979S83.006,11.667,82.465,11.667"/>
		<path clip-path="url(#SVGID_10_)" fill="#252638" d="M82.465,7.814H68.131c-0.541,0-0.979-0.438-0.979-0.979
			c0-0.54,0.438-0.979,0.979-0.979h14.334c0.541,0,0.979,0.439,0.979,0.979C83.444,7.376,83.006,7.814,82.465,7.814"/>
	</g>
	<g clip-path="url(#SVGID_2_)">
		<text transform="matrix(1 0 0 1 49.2627 108.5718)" fill="#FFFFFF" font-family="'NotoSerif-Bold'" font-size="16">PlexBI</text>
	</g>
	<g clip-path="url(#SVGID_2_)">
		<path fill="#F7DCDA" d="M44.669,125.657c0,0.129,0.012,0.231,0.035,0.308s0.056,0.135,0.099,0.176
			c0.042,0.041,0.091,0.068,0.147,0.081c0.056,0.014,0.116,0.02,0.18,0.02h0.378v0.479h-3.107v-0.479h0.378
			c0.067,0,0.129-0.006,0.185-0.02c0.056-0.013,0.104-0.04,0.145-0.081s0.073-0.1,0.097-0.176s0.035-0.179,0.035-0.308v-4.812
			h-0.721c-0.135,0-0.248,0.015-0.338,0.044s-0.165,0.071-0.222,0.125c-0.057,0.054-0.1,0.121-0.127,0.2
			c-0.028,0.079-0.048,0.168-0.06,0.268l-0.062,0.558h-0.606l0.048-1.745h5.607l0.044,1.745h-0.602l-0.066-0.558
			c-0.012-0.1-0.032-0.189-0.059-0.268c-0.028-0.079-0.07-0.146-0.128-0.2c-0.057-0.054-0.131-0.096-0.222-0.125
			s-0.204-0.044-0.338-0.044h-0.721V125.657z"/>
		<path fill="#F7DCDA" d="M50.879,126.72l-0.198-0.637h-0.044c-0.091,0.155-0.189,0.281-0.294,0.375
			c-0.105,0.096-0.218,0.169-0.338,0.22c-0.12,0.051-0.247,0.086-0.38,0.104c-0.134,0.018-0.271,0.026-0.411,0.026
			c-0.469,0-0.828-0.145-1.079-0.435c-0.25-0.29-0.375-0.738-0.375-1.345v-2.017c0-0.132-0.012-0.239-0.035-0.321
			s-0.06-0.146-0.11-0.193s-0.114-0.079-0.191-0.097s-0.17-0.026-0.279-0.026h-0.018v-0.479h2v2.883
			c0,0.193,0.011,0.368,0.033,0.523c0.021,0.155,0.059,0.288,0.112,0.398c0.053,0.109,0.123,0.195,0.211,0.255s0.198,0.09,0.33,0.09
			c0.144,0,0.267-0.031,0.371-0.095c0.104-0.063,0.189-0.153,0.255-0.272c0.066-0.118,0.114-0.262,0.146-0.431
			c0.03-0.168,0.046-0.358,0.046-0.569v-1.727c0-0.132-0.018-0.236-0.053-0.312s-0.082-0.134-0.141-0.173
			c-0.059-0.04-0.127-0.064-0.207-0.075c-0.079-0.01-0.163-0.015-0.25-0.015h-0.026v-0.479h2.043v3.779
			c0,0.132,0.015,0.235,0.046,0.31c0.03,0.075,0.072,0.131,0.125,0.169s0.116,0.063,0.189,0.073s0.154,0.015,0.242,0.015h0.075
			v0.479H50.879z"/>
		<path fill="#F7DCDA" d="M56.082,126.72h-3.006v-0.479h0.026c0.103,0,0.196-0.007,0.281-0.022s0.158-0.044,0.22-0.09
			s0.109-0.111,0.143-0.196c0.033-0.085,0.05-0.198,0.05-0.338v-2.61c0-0.132-0.015-0.238-0.046-0.318
			c-0.03-0.081-0.074-0.143-0.132-0.187c-0.057-0.044-0.125-0.073-0.204-0.085c-0.079-0.014-0.168-0.02-0.268-0.02H53.12v-0.479
			h1.819l0.18,0.703h0.044c0.059-0.135,0.123-0.253,0.193-0.354c0.07-0.102,0.154-0.186,0.253-0.253
			c0.098-0.067,0.213-0.118,0.347-0.151s0.292-0.051,0.477-0.051c0.354,0,0.615,0.063,0.782,0.187
			c0.167,0.125,0.25,0.306,0.25,0.543c0,0.275-0.1,0.489-0.299,0.642s-0.48,0.229-0.844,0.229c0-0.123-0.007-0.231-0.02-0.325
			c-0.014-0.094-0.037-0.171-0.07-0.233c-0.034-0.062-0.079-0.108-0.137-0.141c-0.057-0.032-0.128-0.048-0.213-0.048
			c-0.105,0-0.196,0.026-0.272,0.079s-0.141,0.121-0.193,0.204c-0.053,0.084-0.096,0.178-0.13,0.284s-0.06,0.212-0.079,0.319
			s-0.031,0.208-0.037,0.305s-0.009,0.18-0.009,0.25v1.556c0,0.132,0.016,0.238,0.048,0.318c0.032,0.081,0.076,0.142,0.132,0.183
			s0.122,0.068,0.2,0.081c0.078,0.014,0.161,0.02,0.249,0.02h0.29V126.72z"/>
		<path fill="#F7DCDA" d="M61.373,126.72v-2.962c0-0.193-0.013-0.365-0.037-0.517c-0.025-0.15-0.066-0.277-0.123-0.38
			c-0.058-0.103-0.132-0.181-0.225-0.235c-0.092-0.054-0.204-0.081-0.336-0.081c-0.149,0-0.274,0.038-0.374,0.114
			s-0.18,0.178-0.24,0.306c-0.06,0.127-0.103,0.275-0.129,0.443c-0.026,0.169-0.04,0.345-0.04,0.53v1.718
			c0,0.126,0.016,0.227,0.046,0.303c0.031,0.076,0.074,0.136,0.13,0.178s0.124,0.07,0.204,0.083c0.081,0.014,0.171,0.02,0.271,0.02
			h0.026v0.479h-2.764v-0.479H57.8c0.103,0,0.196-0.006,0.281-0.02c0.085-0.013,0.159-0.042,0.222-0.085
			c0.063-0.044,0.112-0.107,0.147-0.189s0.053-0.19,0.053-0.325v-2.663c0-0.126-0.015-0.227-0.046-0.303
			c-0.03-0.076-0.074-0.135-0.132-0.178c-0.057-0.042-0.125-0.07-0.204-0.083c-0.079-0.014-0.168-0.02-0.268-0.02h-0.026v-0.479
			h1.89l0.119,0.642h0.044c0.091-0.17,0.187-0.305,0.288-0.404c0.101-0.1,0.208-0.176,0.323-0.229s0.235-0.086,0.363-0.101
			c0.127-0.015,0.261-0.022,0.402-0.022c0.231,0,0.439,0.034,0.624,0.101s0.34,0.171,0.468,0.312
			c0.127,0.141,0.225,0.32,0.292,0.538c0.067,0.219,0.101,0.48,0.101,0.785v2.087c0,0.141,0.012,0.253,0.038,0.336
			c0.024,0.084,0.062,0.147,0.112,0.191s0.113,0.073,0.189,0.088s0.166,0.022,0.268,0.022h0.026v0.479H61.373z"/>
		<path fill="#F7DCDA" d="M71.155,121.895v0.479c-0.091,0-0.171,0.01-0.239,0.031c-0.069,0.021-0.131,0.057-0.187,0.107
			c-0.056,0.052-0.107,0.119-0.154,0.202c-0.047,0.084-0.094,0.188-0.141,0.314c-0.105,0.299-0.215,0.604-0.33,0.914
			s-0.229,0.622-0.345,0.934c-0.116,0.313-0.231,0.623-0.347,0.932c-0.116,0.31-0.228,0.613-0.336,0.912
			c-0.105,0.29-0.205,0.545-0.299,0.765s-0.193,0.41-0.296,0.571c-0.104,0.161-0.219,0.294-0.345,0.4s-0.272,0.189-0.439,0.252
			s-0.361,0.108-0.583,0.134s-0.479,0.04-0.775,0.04h-0.154v-0.523c0.313,0,0.58-0.038,0.8-0.114s0.406-0.185,0.558-0.325
			s0.277-0.309,0.376-0.505c0.098-0.196,0.184-0.413,0.257-0.65l-1.622-3.959c-0.035-0.085-0.075-0.152-0.119-0.202
			s-0.091-0.088-0.141-0.114s-0.104-0.043-0.163-0.05s-0.122-0.011-0.189-0.011v-0.532h2.566v0.479
			c-0.176,0-0.314,0.023-0.415,0.068c-0.102,0.046-0.152,0.134-0.152,0.266c0,0.05,0.01,0.109,0.031,0.178s0.04,0.125,0.057,0.169
			c0.053,0.126,0.108,0.263,0.165,0.411c0.058,0.148,0.113,0.296,0.167,0.443c0.054,0.148,0.106,0.291,0.156,0.429
			s0.094,0.259,0.132,0.365c0.044,0.114,0.081,0.217,0.11,0.31c0.029,0.092,0.053,0.176,0.073,0.25
			c0.019,0.075,0.034,0.144,0.046,0.207s0.021,0.125,0.026,0.187c0.006-0.062,0.018-0.13,0.035-0.204
			c0.018-0.075,0.037-0.146,0.057-0.216c0.021-0.068,0.041-0.13,0.062-0.185c0.021-0.054,0.035-0.093,0.044-0.116l0.593-1.762
			c0.012-0.029,0.022-0.064,0.033-0.103c0.01-0.04,0.02-0.08,0.028-0.121s0.016-0.081,0.02-0.119
			c0.005-0.038,0.007-0.07,0.007-0.097c0-0.138-0.057-0.232-0.171-0.284c-0.114-0.051-0.275-0.077-0.483-0.077v-0.479H71.155z"/>
		<path fill="#F7DCDA" d="M76.249,124.29c0,0.847-0.199,1.478-0.596,1.894c-0.397,0.416-0.981,0.624-1.751,0.624
			c-0.36,0-0.684-0.052-0.971-0.156c-0.287-0.104-0.531-0.26-0.731-0.468c-0.201-0.208-0.355-0.47-0.462-0.787
			s-0.16-0.686-0.16-1.107c0-0.847,0.198-1.477,0.596-1.89c0.396-0.413,0.982-0.62,1.755-0.62c0.36,0,0.683,0.051,0.969,0.154
			c0.285,0.103,0.528,0.258,0.729,0.466c0.2,0.208,0.354,0.47,0.461,0.785C76.195,123.5,76.249,123.868,76.249,124.29z
			 M72.975,124.29c0,0.319,0.017,0.601,0.051,0.844c0.033,0.243,0.088,0.447,0.162,0.611c0.075,0.164,0.172,0.288,0.292,0.371
			c0.12,0.084,0.267,0.125,0.439,0.125s0.319-0.042,0.437-0.125c0.119-0.083,0.216-0.207,0.29-0.371
			c0.075-0.164,0.128-0.368,0.161-0.611s0.048-0.524,0.048-0.844c0-0.322-0.017-0.604-0.051-0.846
			c-0.034-0.241-0.088-0.443-0.162-0.604c-0.075-0.161-0.172-0.282-0.292-0.363c-0.12-0.08-0.267-0.121-0.439-0.121
			s-0.319,0.041-0.439,0.121c-0.12,0.081-0.217,0.202-0.29,0.363s-0.126,0.363-0.158,0.604
			C72.991,123.686,72.975,123.968,72.975,124.29z"/>
		<path fill="#F7DCDA" d="M80.656,126.72l-0.198-0.637h-0.044c-0.091,0.155-0.189,0.281-0.295,0.375
			c-0.105,0.096-0.218,0.169-0.338,0.22c-0.12,0.051-0.247,0.086-0.38,0.104c-0.134,0.018-0.271,0.026-0.411,0.026
			c-0.469,0-0.828-0.145-1.079-0.435c-0.25-0.29-0.376-0.738-0.376-1.345v-2.017c0-0.132-0.012-0.239-0.035-0.321
			s-0.06-0.146-0.109-0.193s-0.113-0.079-0.191-0.097c-0.077-0.018-0.171-0.026-0.279-0.026h-0.018v-0.479h2v2.883
			c0,0.193,0.011,0.368,0.033,0.523c0.021,0.155,0.059,0.288,0.111,0.398c0.053,0.109,0.123,0.195,0.211,0.255s0.198,0.09,0.33,0.09
			c0.144,0,0.268-0.031,0.371-0.095c0.104-0.063,0.189-0.153,0.255-0.272c0.066-0.118,0.114-0.262,0.146-0.431
			c0.03-0.168,0.046-0.358,0.046-0.569v-1.727c0-0.132-0.018-0.236-0.053-0.312s-0.082-0.134-0.141-0.173
			c-0.059-0.04-0.128-0.064-0.206-0.075c-0.08-0.01-0.163-0.015-0.251-0.015h-0.026v-0.479h2.043v3.779
			c0,0.132,0.016,0.235,0.047,0.31c0.03,0.075,0.072,0.131,0.125,0.169s0.115,0.063,0.189,0.073c0.072,0.01,0.153,0.015,0.241,0.015
			h0.075v0.479H80.656z"/>
		<path fill="#F7DCDA" d="M85.859,126.72h-3.006v-0.479h0.027c0.102,0,0.195-0.007,0.281-0.022c0.084-0.015,0.158-0.044,0.219-0.09
			c0.063-0.045,0.109-0.111,0.144-0.196c0.033-0.085,0.05-0.198,0.05-0.338v-2.61c0-0.132-0.015-0.238-0.046-0.318
			c-0.03-0.081-0.074-0.143-0.132-0.187c-0.057-0.044-0.125-0.073-0.204-0.085c-0.079-0.014-0.169-0.02-0.269-0.02h-0.025v-0.479
			h1.818l0.181,0.703h0.044c0.059-0.135,0.123-0.253,0.193-0.354c0.07-0.102,0.154-0.186,0.253-0.253
			c0.098-0.067,0.214-0.118,0.347-0.151c0.134-0.034,0.293-0.051,0.477-0.051c0.354,0,0.615,0.063,0.783,0.187
			c0.166,0.125,0.25,0.306,0.25,0.543c0,0.275-0.1,0.489-0.299,0.642s-0.48,0.229-0.844,0.229c0-0.123-0.007-0.231-0.02-0.325
			c-0.014-0.094-0.037-0.171-0.07-0.233c-0.034-0.062-0.079-0.108-0.137-0.141c-0.057-0.032-0.128-0.048-0.213-0.048
			c-0.105,0-0.196,0.026-0.272,0.079s-0.141,0.121-0.193,0.204c-0.053,0.084-0.096,0.178-0.13,0.284
			c-0.033,0.105-0.06,0.212-0.079,0.319c-0.019,0.107-0.031,0.208-0.037,0.305s-0.009,0.18-0.009,0.25v1.556
			c0,0.132,0.016,0.238,0.049,0.318c0.031,0.081,0.075,0.142,0.131,0.183s0.123,0.068,0.2,0.081c0.078,0.014,0.161,0.02,0.249,0.02
			h0.289V126.72z"/>
		<path fill="#F7DCDA" d="M94.648,125.613c0,0.138,0.021,0.248,0.062,0.33s0.096,0.145,0.165,0.189
			c0.068,0.044,0.147,0.073,0.237,0.088c0.089,0.015,0.184,0.022,0.283,0.022h0.035v0.479h-1.744l-0.251-0.703h-0.083
			c-0.068,0.123-0.145,0.233-0.231,0.33c-0.086,0.097-0.186,0.18-0.299,0.249c-0.112,0.069-0.239,0.122-0.38,0.158
			c-0.141,0.036-0.299,0.055-0.475,0.055c-0.293,0-0.554-0.049-0.782-0.147c-0.229-0.098-0.421-0.249-0.578-0.452
			c-0.156-0.204-0.275-0.462-0.355-0.776c-0.081-0.313-0.121-0.686-0.121-1.116c0-0.434,0.04-0.809,0.121-1.127
			c0.08-0.317,0.198-0.58,0.354-0.786c0.155-0.207,0.346-0.36,0.571-0.462c0.226-0.101,0.483-0.151,0.773-0.151
			c0.17,0,0.323,0.019,0.459,0.055c0.137,0.037,0.26,0.087,0.369,0.149c0.11,0.063,0.207,0.139,0.293,0.227
			c0.084,0.088,0.158,0.185,0.219,0.29h0.063c-0.013-0.167-0.024-0.324-0.035-0.47c-0.004-0.062-0.007-0.125-0.012-0.189
			c-0.004-0.064-0.009-0.125-0.013-0.183c-0.005-0.057-0.008-0.107-0.009-0.151c-0.002-0.044-0.002-0.079-0.002-0.105v-0.497
			c0-0.123-0.021-0.222-0.06-0.296c-0.04-0.075-0.093-0.131-0.158-0.169c-0.066-0.038-0.144-0.063-0.231-0.075
			s-0.182-0.018-0.281-0.018h-0.07v-0.475h2.167V125.613z M92.354,126.136c0.179,0,0.327-0.038,0.446-0.112
			c0.118-0.075,0.214-0.188,0.285-0.341c0.072-0.152,0.122-0.343,0.151-0.573s0.045-0.5,0.045-0.811
			c0-0.296-0.016-0.559-0.045-0.789s-0.079-0.423-0.151-0.58c-0.071-0.157-0.167-0.275-0.285-0.356
			c-0.119-0.08-0.268-0.121-0.446-0.121c-0.149,0-0.277,0.041-0.385,0.121c-0.106,0.081-0.193,0.2-0.259,0.358
			c-0.066,0.158-0.114,0.353-0.146,0.582c-0.03,0.23-0.046,0.495-0.046,0.793c0,0.612,0.063,1.07,0.191,1.374
			C91.838,125.984,92.053,126.136,92.354,126.136z"/>
		<path fill="#F7DCDA" d="M98.16,122.33c-0.114,0-0.21,0.024-0.288,0.073c-0.077,0.048-0.14,0.116-0.187,0.202
			s-0.08,0.188-0.099,0.308c-0.02,0.118-0.028,0.248-0.028,0.389c-0.404,0-0.709-0.045-0.912-0.136
			c-0.204-0.091-0.306-0.246-0.306-0.466c0-0.164,0.049-0.305,0.147-0.422c0.098-0.117,0.231-0.212,0.399-0.286
			c0.169-0.073,0.365-0.126,0.589-0.16c0.225-0.034,0.464-0.051,0.719-0.051c0.316,0,0.593,0.027,0.828,0.081
			c0.236,0.055,0.433,0.142,0.589,0.262c0.157,0.12,0.274,0.278,0.354,0.473c0.078,0.195,0.118,0.433,0.118,0.714v2.294
			c0,0.123,0.01,0.226,0.028,0.308c0.02,0.082,0.049,0.147,0.09,0.195c0.041,0.049,0.098,0.083,0.168,0.104s0.154,0.031,0.254,0.031
			h0.035v0.479h-1.674l-0.189-0.62h-0.078c-0.101,0.12-0.193,0.225-0.281,0.314c-0.088,0.09-0.183,0.164-0.281,0.222
			c-0.101,0.059-0.212,0.102-0.337,0.129c-0.124,0.028-0.271,0.042-0.441,0.042c-0.199,0-0.385-0.029-0.556-0.088
			c-0.172-0.059-0.321-0.148-0.448-0.271c-0.128-0.121-0.229-0.273-0.302-0.457c-0.073-0.183-0.109-0.399-0.109-0.648
			c0-0.489,0.168-0.851,0.503-1.085c0.336-0.234,0.84-0.362,1.515-0.382l0.738-0.026v-0.497c0-0.149-0.007-0.287-0.018-0.413
			c-0.013-0.126-0.037-0.234-0.075-0.325s-0.095-0.161-0.169-0.211C98.382,122.355,98.283,122.33,98.16,122.33z M97.36,125.38
			c0,0.258,0.041,0.451,0.123,0.58s0.211,0.193,0.387,0.193c0.129,0,0.245-0.027,0.35-0.082c0.104-0.054,0.193-0.131,0.268-0.23
			c0.075-0.1,0.132-0.22,0.172-0.362c0.039-0.142,0.06-0.301,0.06-0.477v-0.677l-0.404,0.026c-0.18,0.009-0.33,0.038-0.453,0.085
			c-0.123,0.049-0.222,0.115-0.295,0.2s-0.126,0.189-0.158,0.312S97.36,125.216,97.36,125.38z"/>
		<path fill="#F7DCDA" d="M103.768,126.083c0.116,0,0.229-0.008,0.336-0.024c0.106-0.016,0.207-0.036,0.301-0.06v0.584
			c-0.047,0.023-0.11,0.048-0.191,0.075c-0.08,0.026-0.174,0.051-0.281,0.072c-0.106,0.022-0.228,0.041-0.362,0.055
			s-0.281,0.022-0.439,0.022c-0.202,0-0.386-0.024-0.55-0.072c-0.164-0.049-0.303-0.129-0.417-0.242
			c-0.114-0.112-0.202-0.259-0.264-0.439c-0.062-0.18-0.093-0.402-0.093-0.666v-2.878h-0.676v-0.461
			c0.193,0,0.365-0.038,0.518-0.114s0.274-0.164,0.365-0.264c0.185-0.193,0.322-0.491,0.413-0.892h0.747v1.116h1.151v0.615h-1.151
			v2.786c0,0.272,0.046,0.472,0.139,0.598C103.404,126.02,103.557,126.083,103.768,126.083z"/>
		<path fill="#F7DCDA" d="M107.186,122.33c-0.114,0-0.21,0.024-0.288,0.073c-0.077,0.048-0.14,0.116-0.187,0.202
			s-0.08,0.188-0.099,0.308c-0.02,0.118-0.028,0.248-0.028,0.389c-0.404,0-0.709-0.045-0.912-0.136
			c-0.204-0.091-0.306-0.246-0.306-0.466c0-0.164,0.049-0.305,0.147-0.422c0.098-0.117,0.231-0.212,0.399-0.286
			c0.169-0.073,0.365-0.126,0.589-0.16c0.225-0.034,0.464-0.051,0.719-0.051c0.316,0,0.593,0.027,0.828,0.081
			c0.236,0.055,0.433,0.142,0.589,0.262c0.157,0.12,0.274,0.278,0.354,0.473c0.078,0.195,0.118,0.433,0.118,0.714v2.294
			c0,0.123,0.01,0.226,0.028,0.308c0.02,0.082,0.049,0.147,0.09,0.195c0.041,0.049,0.098,0.083,0.168,0.104s0.154,0.031,0.254,0.031
			h0.035v0.479h-1.674l-0.189-0.62h-0.078c-0.101,0.12-0.193,0.225-0.281,0.314c-0.088,0.09-0.183,0.164-0.281,0.222
			c-0.101,0.059-0.212,0.102-0.337,0.129c-0.124,0.028-0.271,0.042-0.441,0.042c-0.199,0-0.385-0.029-0.556-0.088
			c-0.172-0.059-0.321-0.148-0.448-0.271c-0.128-0.121-0.229-0.273-0.302-0.457c-0.073-0.183-0.109-0.399-0.109-0.648
			c0-0.489,0.168-0.851,0.503-1.085c0.336-0.234,0.84-0.362,1.515-0.382l0.738-0.026v-0.497c0-0.149-0.007-0.287-0.018-0.413
			c-0.013-0.126-0.037-0.234-0.075-0.325s-0.095-0.161-0.169-0.211C107.407,122.355,107.309,122.33,107.186,122.33z M106.386,125.38
			c0,0.258,0.041,0.451,0.123,0.58s0.211,0.193,0.387,0.193c0.129,0,0.245-0.027,0.35-0.082c0.104-0.054,0.193-0.131,0.268-0.23
			c0.075-0.1,0.132-0.22,0.172-0.362c0.039-0.142,0.06-0.301,0.06-0.477v-0.677l-0.404,0.026c-0.18,0.009-0.33,0.038-0.453,0.085
			c-0.123,0.049-0.222,0.115-0.295,0.2s-0.126,0.189-0.158,0.312S106.386,125.216,106.386,125.38z"/>
	</g>
	<g clip-path="url(#SVGID_2_)">
		<path fill="#F7DCDA" d="M47.523,137.042c0.067,0,0.138-0.007,0.213-0.021c0.074-0.013,0.143-0.04,0.206-0.081
			s0.116-0.1,0.158-0.176s0.064-0.179,0.064-0.308v-2.733c0-0.12-0.021-0.216-0.064-0.288c-0.042-0.071-0.096-0.127-0.16-0.167
			c-0.064-0.039-0.134-0.064-0.209-0.076c-0.074-0.012-0.144-0.018-0.208-0.018h-0.105v-0.479h2.114v3.762
			c0,0.129,0.021,0.231,0.063,0.308s0.095,0.135,0.158,0.176s0.133,0.068,0.209,0.081c0.076,0.014,0.146,0.021,0.211,0.021h0.105
			v0.479h-2.861v-0.479H47.523z M48.037,131.236c0-0.114,0.02-0.212,0.06-0.294c0.039-0.082,0.093-0.148,0.162-0.2
			s0.149-0.089,0.242-0.114c0.092-0.025,0.192-0.038,0.301-0.038c0.103,0,0.201,0.013,0.294,0.038s0.176,0.063,0.246,0.114
			s0.126,0.118,0.169,0.2c0.042,0.082,0.063,0.18,0.063,0.294c0,0.111-0.021,0.208-0.063,0.29c-0.043,0.082-0.099,0.149-0.169,0.202
			s-0.152,0.093-0.246,0.118c-0.094,0.027-0.192,0.04-0.294,0.04c-0.108,0-0.209-0.013-0.301-0.04
			c-0.093-0.025-0.173-0.065-0.242-0.118s-0.123-0.12-0.162-0.202C48.057,131.444,48.037,131.347,48.037,131.236z"/>
		<path fill="#F7DCDA" d="M54.203,137.52v-2.962c0-0.193-0.013-0.365-0.037-0.517c-0.025-0.15-0.066-0.277-0.123-0.38
			c-0.058-0.103-0.132-0.181-0.225-0.235c-0.092-0.054-0.204-0.081-0.336-0.081c-0.149,0-0.274,0.038-0.374,0.114
			s-0.18,0.178-0.24,0.306c-0.06,0.127-0.103,0.275-0.129,0.443c-0.026,0.169-0.04,0.345-0.04,0.53v1.718
			c0,0.126,0.016,0.228,0.046,0.304c0.031,0.076,0.074,0.135,0.13,0.178c0.056,0.042,0.124,0.07,0.204,0.083
			c0.081,0.014,0.171,0.021,0.271,0.021h0.026v0.479h-2.764v-0.479h0.018c0.103,0,0.196-0.007,0.281-0.021
			c0.085-0.013,0.159-0.042,0.222-0.085c0.063-0.045,0.112-0.107,0.147-0.189s0.053-0.19,0.053-0.325v-2.663
			c0-0.126-0.015-0.227-0.046-0.303c-0.03-0.076-0.074-0.136-0.132-0.179c-0.057-0.042-0.125-0.07-0.204-0.083
			c-0.079-0.014-0.168-0.02-0.268-0.02h-0.026v-0.479h1.89l0.119,0.642h0.044c0.091-0.17,0.187-0.305,0.288-0.404
			c0.101-0.1,0.208-0.176,0.323-0.229s0.235-0.086,0.363-0.102c0.127-0.014,0.261-0.021,0.402-0.021
			c0.231,0,0.439,0.034,0.624,0.102s0.34,0.171,0.468,0.312c0.127,0.141,0.225,0.32,0.292,0.538c0.067,0.219,0.101,0.48,0.101,0.785
			v2.087c0,0.141,0.012,0.253,0.038,0.336c0.024,0.084,0.062,0.147,0.112,0.191s0.113,0.073,0.189,0.088s0.166,0.022,0.268,0.022
			h0.026v0.479H54.203z"/>
		<path fill="#F7DCDA" d="M59.261,136.883c0.117,0,0.229-0.009,0.336-0.024c0.106-0.017,0.207-0.036,0.301-0.06v0.584
			c-0.047,0.024-0.111,0.049-0.191,0.075s-0.174,0.051-0.281,0.072c-0.107,0.022-0.228,0.04-0.362,0.056
			c-0.135,0.014-0.281,0.021-0.439,0.021c-0.202,0-0.385-0.024-0.549-0.072c-0.164-0.049-0.303-0.129-0.417-0.242
			c-0.114-0.112-0.202-0.259-0.264-0.439c-0.062-0.18-0.092-0.402-0.092-0.666v-2.878h-0.677v-0.462
			c0.193,0,0.366-0.037,0.519-0.113s0.274-0.164,0.365-0.264c0.185-0.193,0.322-0.491,0.413-0.893h0.747v1.116h1.151v0.615h-1.151
			v2.786c0,0.272,0.046,0.472,0.139,0.598C58.898,136.82,59.05,136.883,59.261,136.883z"/>
		<path fill="#F7DCDA" d="M65.171,135.09c0,0.847-0.199,1.478-0.595,1.894c-0.397,0.416-0.981,0.624-1.751,0.624
			c-0.36,0-0.684-0.052-0.971-0.156c-0.287-0.104-0.531-0.26-0.731-0.468c-0.201-0.208-0.355-0.47-0.462-0.786
			s-0.16-0.686-0.16-1.107c0-0.847,0.198-1.477,0.596-1.891c0.396-0.412,0.982-0.619,1.755-0.619c0.36,0,0.683,0.052,0.969,0.154
			c0.285,0.103,0.528,0.258,0.729,0.465c0.2,0.209,0.354,0.47,0.461,0.785C65.118,134.299,65.171,134.668,65.171,135.09z
			 M61.897,135.09c0,0.319,0.017,0.601,0.051,0.844c0.033,0.243,0.088,0.446,0.162,0.61c0.075,0.164,0.172,0.288,0.292,0.371
			c0.12,0.084,0.267,0.126,0.439,0.126s0.319-0.042,0.437-0.126c0.119-0.083,0.216-0.207,0.29-0.371
			c0.075-0.164,0.128-0.367,0.161-0.61s0.048-0.524,0.048-0.844c0-0.322-0.017-0.604-0.051-0.847
			c-0.034-0.241-0.088-0.442-0.162-0.604c-0.075-0.16-0.172-0.281-0.292-0.362c-0.12-0.08-0.267-0.12-0.439-0.12
			s-0.319,0.04-0.439,0.12c-0.12,0.081-0.217,0.202-0.29,0.362c-0.073,0.162-0.126,0.363-0.158,0.604
			C61.914,134.486,61.897,134.768,61.897,135.09z"/>
		<path fill="#F7DCDA" d="M68.19,137.042c0.067,0,0.138-0.007,0.213-0.021c0.074-0.013,0.143-0.04,0.206-0.081
			s0.116-0.1,0.158-0.176s0.064-0.179,0.064-0.308v-2.733c0-0.12-0.021-0.216-0.064-0.288c-0.042-0.071-0.096-0.127-0.16-0.167
			c-0.064-0.039-0.134-0.064-0.209-0.076c-0.074-0.012-0.144-0.018-0.208-0.018h-0.105v-0.479h2.114v3.762
			c0,0.129,0.021,0.231,0.063,0.308s0.095,0.135,0.158,0.176s0.133,0.068,0.209,0.081c0.076,0.014,0.146,0.021,0.211,0.021h0.105
			v0.479h-2.861v-0.479H68.19z M68.705,131.236c0-0.114,0.02-0.212,0.06-0.294c0.039-0.082,0.093-0.148,0.162-0.2
			s0.149-0.089,0.242-0.114c0.092-0.025,0.192-0.038,0.301-0.038c0.103,0,0.201,0.013,0.294,0.038s0.176,0.063,0.246,0.114
			s0.126,0.118,0.169,0.2c0.042,0.082,0.063,0.18,0.063,0.294c0,0.111-0.021,0.208-0.063,0.29c-0.043,0.082-0.099,0.149-0.169,0.202
			s-0.152,0.093-0.246,0.118c-0.094,0.027-0.192,0.04-0.294,0.04c-0.108,0-0.209-0.013-0.301-0.04
			c-0.093-0.025-0.173-0.065-0.242-0.118s-0.123-0.12-0.162-0.202C68.724,131.444,68.705,131.347,68.705,131.236z"/>
		<path fill="#F7DCDA" d="M74.87,137.52v-2.962c0-0.193-0.013-0.365-0.037-0.517c-0.025-0.15-0.066-0.277-0.123-0.38
			c-0.058-0.103-0.132-0.181-0.225-0.235c-0.092-0.054-0.204-0.081-0.336-0.081c-0.149,0-0.274,0.038-0.374,0.114
			s-0.18,0.178-0.24,0.306c-0.06,0.127-0.103,0.275-0.129,0.443c-0.026,0.169-0.04,0.345-0.04,0.53v1.718
			c0,0.126,0.016,0.228,0.046,0.304c0.031,0.076,0.074,0.135,0.13,0.178c0.056,0.042,0.124,0.07,0.204,0.083
			c0.081,0.014,0.171,0.021,0.271,0.021h0.026v0.479H71.28v-0.479h0.018c0.103,0,0.196-0.007,0.281-0.021
			c0.085-0.013,0.159-0.042,0.222-0.085c0.063-0.045,0.112-0.107,0.147-0.189S72,136.556,72,136.421v-2.663
			c0-0.126-0.015-0.227-0.046-0.303c-0.03-0.076-0.074-0.136-0.132-0.179c-0.057-0.042-0.125-0.07-0.204-0.083
			c-0.079-0.014-0.168-0.02-0.268-0.02h-0.026v-0.479h1.89l0.119,0.642h0.044c0.091-0.17,0.187-0.305,0.288-0.404
			c0.101-0.1,0.208-0.176,0.323-0.229s0.235-0.086,0.363-0.102c0.127-0.014,0.261-0.021,0.402-0.021c0.231,0,0.44,0.034,0.624,0.102
			c0.186,0.067,0.341,0.171,0.469,0.312c0.127,0.141,0.225,0.32,0.292,0.538c0.067,0.219,0.101,0.48,0.101,0.785v2.087
			c0,0.141,0.013,0.253,0.038,0.336c0.024,0.084,0.062,0.147,0.112,0.191c0.049,0.044,0.112,0.073,0.188,0.088
			s0.165,0.022,0.269,0.022h0.025v0.479H74.87z"/>
		<path fill="#F7DCDA" d="M79.181,137.608c-0.324,0-0.603-0.026-0.832-0.079c-0.23-0.053-0.418-0.126-0.563-0.22
			c-0.146-0.094-0.251-0.205-0.316-0.334c-0.066-0.129-0.1-0.268-0.1-0.418c0-0.146,0.029-0.264,0.086-0.354
			c0.058-0.089,0.129-0.158,0.216-0.209c0.086-0.049,0.178-0.082,0.274-0.099c0.097-0.016,0.185-0.024,0.264-0.024
			c0,0.188,0.023,0.356,0.07,0.506s0.112,0.276,0.197,0.38c0.085,0.104,0.188,0.185,0.306,0.239
			c0.119,0.057,0.251,0.084,0.397,0.084c0.155,0,0.29-0.016,0.402-0.049c0.113-0.031,0.205-0.076,0.277-0.134
			c0.071-0.057,0.125-0.123,0.16-0.197c0.035-0.075,0.053-0.153,0.053-0.235c0-0.1-0.019-0.188-0.055-0.266
			c-0.037-0.078-0.098-0.151-0.183-0.22c-0.085-0.069-0.198-0.137-0.341-0.202c-0.142-0.066-0.318-0.136-0.529-0.209
			c-0.243-0.085-0.458-0.175-0.644-0.271c-0.187-0.095-0.343-0.203-0.471-0.325c-0.127-0.121-0.224-0.261-0.29-0.417
			c-0.065-0.157-0.099-0.337-0.099-0.538c0-0.24,0.046-0.45,0.139-0.629c0.092-0.179,0.223-0.327,0.394-0.446
			c0.169-0.118,0.373-0.207,0.61-0.266s0.501-0.088,0.791-0.088c0.284,0,0.525,0.024,0.726,0.072
			c0.198,0.049,0.361,0.112,0.487,0.191s0.218,0.169,0.276,0.269s0.088,0.2,0.088,0.303c0,0.202-0.07,0.355-0.213,0.461
			c-0.142,0.105-0.377,0.158-0.705,0.158c0-0.299-0.066-0.53-0.2-0.696c-0.133-0.165-0.33-0.248-0.591-0.248
			c-0.097,0-0.189,0.012-0.279,0.035c-0.089,0.023-0.167,0.059-0.232,0.105c-0.066,0.047-0.119,0.104-0.158,0.174
			c-0.04,0.068-0.06,0.15-0.06,0.243c0,0.098,0.019,0.184,0.055,0.26c0.037,0.076,0.102,0.148,0.193,0.218
			c0.093,0.068,0.218,0.138,0.376,0.208s0.36,0.148,0.606,0.233c0.199,0.07,0.383,0.15,0.552,0.239
			c0.168,0.09,0.313,0.192,0.435,0.308c0.122,0.116,0.216,0.248,0.284,0.396c0.066,0.148,0.101,0.317,0.101,0.508
			c0,0.249-0.043,0.472-0.13,0.668c-0.086,0.196-0.213,0.362-0.38,0.496c-0.167,0.136-0.372,0.238-0.615,0.311
			C79.769,137.572,79.491,137.608,79.181,137.608z"/>
		<path fill="#F7DCDA" d="M81.752,137.042c0.066,0,0.138-0.007,0.213-0.021c0.074-0.013,0.144-0.04,0.206-0.081
			c0.063-0.041,0.116-0.1,0.158-0.176c0.043-0.076,0.063-0.179,0.063-0.308v-2.733c0-0.12-0.021-0.216-0.063-0.288
			c-0.042-0.071-0.096-0.127-0.16-0.167c-0.064-0.039-0.134-0.064-0.209-0.076c-0.074-0.012-0.145-0.018-0.208-0.018h-0.105v-0.479
			h2.113v3.762c0,0.129,0.021,0.231,0.063,0.308c0.043,0.076,0.096,0.135,0.158,0.176c0.063,0.041,0.133,0.068,0.209,0.081
			c0.076,0.014,0.146,0.021,0.211,0.021h0.105v0.479h-2.86v-0.479H81.752z M82.266,131.236c0-0.114,0.02-0.212,0.06-0.294
			c0.039-0.082,0.094-0.148,0.162-0.2c0.069-0.051,0.149-0.089,0.242-0.114c0.092-0.025,0.192-0.038,0.301-0.038
			c0.103,0,0.2,0.013,0.294,0.038s0.176,0.063,0.246,0.114s0.127,0.118,0.17,0.2c0.042,0.082,0.063,0.18,0.063,0.294
			c0,0.111-0.021,0.208-0.063,0.29c-0.043,0.082-0.1,0.149-0.17,0.202s-0.152,0.093-0.246,0.118c-0.094,0.027-0.191,0.04-0.294,0.04
			c-0.108,0-0.209-0.013-0.301-0.04c-0.093-0.025-0.173-0.065-0.242-0.118c-0.068-0.053-0.123-0.12-0.162-0.202
			C82.285,131.444,82.266,131.347,82.266,131.236z"/>
		<path fill="#F7DCDA" d="M89.657,132.866c0,0.068-0.01,0.133-0.03,0.196c-0.021,0.063-0.055,0.118-0.104,0.165
			c-0.048,0.047-0.114,0.084-0.197,0.111c-0.084,0.028-0.187,0.042-0.31,0.042c0-0.062-0.01-0.115-0.029-0.163
			c-0.019-0.046-0.045-0.086-0.076-0.118c-0.033-0.032-0.069-0.057-0.11-0.072c-0.041-0.017-0.083-0.024-0.128-0.024
			c-0.05,0-0.103,0.011-0.16,0.031c-0.057,0.021-0.102,0.042-0.134,0.065c0.062,0.067,0.118,0.145,0.171,0.23
			c0.053,0.087,0.1,0.18,0.139,0.279c0.04,0.1,0.071,0.203,0.095,0.31c0.023,0.107,0.035,0.217,0.035,0.328
			c0,0.226-0.036,0.434-0.107,0.626c-0.072,0.191-0.183,0.358-0.332,0.499s-0.339,0.25-0.567,0.329s-0.499,0.118-0.813,0.118
			c-0.032,0-0.073,0-0.123-0.002c-0.05-0.001-0.1-0.003-0.149-0.004c-0.05-0.002-0.098-0.005-0.143-0.009
			c-0.046-0.005-0.08-0.008-0.104-0.011c-0.038,0.021-0.077,0.046-0.116,0.076c-0.04,0.031-0.075,0.065-0.105,0.104
			c-0.031,0.038-0.056,0.081-0.075,0.127c-0.019,0.048-0.028,0.098-0.028,0.15c0,0.1,0.039,0.173,0.116,0.219
			c0.078,0.048,0.18,0.07,0.306,0.07h1.09c0.299,0,0.557,0.032,0.773,0.095c0.217,0.063,0.396,0.153,0.538,0.271
			c0.143,0.117,0.247,0.262,0.314,0.433c0.067,0.172,0.101,0.364,0.101,0.578c0,0.278-0.053,0.526-0.158,0.745
			c-0.105,0.218-0.266,0.402-0.48,0.554c-0.216,0.15-0.486,0.267-0.813,0.347c-0.326,0.081-0.713,0.121-1.157,0.121
			c-0.71,0-1.237-0.106-1.585-0.318c-0.347-0.213-0.521-0.524-0.521-0.934c0-0.323,0.104-0.569,0.313-0.741
			c0.207-0.171,0.51-0.272,0.904-0.306c-0.082-0.031-0.162-0.071-0.241-0.118s-0.149-0.104-0.211-0.169
			c-0.062-0.066-0.111-0.142-0.149-0.227s-0.057-0.18-0.057-0.285c0-0.1,0.02-0.192,0.059-0.277c0.04-0.085,0.095-0.166,0.165-0.244
			c0.07-0.077,0.154-0.15,0.253-0.22c0.098-0.068,0.205-0.137,0.322-0.204c-0.131-0.047-0.254-0.112-0.366-0.195
			c-0.113-0.084-0.21-0.184-0.29-0.301c-0.081-0.117-0.145-0.251-0.191-0.4s-0.07-0.314-0.07-0.496c0-0.527,0.153-0.938,0.459-1.229
			c0.307-0.292,0.78-0.438,1.422-0.438c0.214,0,0.412,0.027,0.596,0.081c0.183,0.055,0.342,0.12,0.477,0.196
			c0.05-0.053,0.104-0.109,0.165-0.17c0.06-0.06,0.128-0.114,0.204-0.164s0.161-0.091,0.255-0.123s0.198-0.049,0.312-0.049
			c0.108,0,0.203,0.014,0.284,0.042c0.08,0.027,0.147,0.065,0.202,0.112c0.054,0.047,0.095,0.101,0.123,0.162
			C89.644,132.73,89.657,132.795,89.657,132.866z M85.742,138.413c0,0.248,0.09,0.433,0.271,0.551
			c0.18,0.119,0.442,0.178,0.789,0.178c0.527,0,0.91-0.076,1.15-0.229s0.361-0.376,0.361-0.672c0-0.19-0.061-0.324-0.181-0.4
			s-0.302-0.113-0.545-0.113h-1.046c-0.091,0-0.184,0.008-0.277,0.023c-0.094,0.017-0.179,0.049-0.257,0.1
			c-0.077,0.049-0.142,0.119-0.19,0.208C85.767,138.148,85.742,138.265,85.742,138.413z M86.345,134.247
			c0,0.158,0.011,0.301,0.032,0.428c0.022,0.128,0.058,0.237,0.108,0.328c0.049,0.091,0.113,0.161,0.193,0.211
			c0.078,0.05,0.177,0.074,0.294,0.074c0.12,0,0.22-0.024,0.299-0.072c0.079-0.049,0.142-0.119,0.188-0.211
			c0.047-0.093,0.08-0.204,0.1-0.334c0.019-0.131,0.028-0.276,0.028-0.438c0-0.167-0.011-0.318-0.03-0.455
			c-0.021-0.136-0.056-0.252-0.104-0.35c-0.049-0.096-0.112-0.172-0.191-0.226c-0.079-0.055-0.179-0.081-0.299-0.081
			c-0.117,0-0.215,0.027-0.295,0.083c-0.078,0.056-0.143,0.134-0.19,0.233c-0.049,0.1-0.083,0.218-0.104,0.355
			S86.345,134.083,86.345,134.247z"/>
		<path fill="#F7DCDA" d="M93.472,137.52v-2.962c0-0.193-0.013-0.365-0.037-0.517c-0.025-0.15-0.066-0.277-0.123-0.38
			c-0.058-0.103-0.132-0.181-0.225-0.235c-0.092-0.054-0.204-0.081-0.336-0.081c-0.149,0-0.274,0.038-0.374,0.114
			s-0.179,0.178-0.239,0.306c-0.06,0.127-0.103,0.275-0.13,0.443c-0.025,0.169-0.039,0.345-0.039,0.53v1.718
			c0,0.126,0.016,0.228,0.046,0.304c0.031,0.076,0.074,0.135,0.13,0.178c0.056,0.042,0.124,0.07,0.204,0.083
			c0.081,0.014,0.171,0.021,0.271,0.021h0.026v0.479h-2.765v-0.479h0.018c0.103,0,0.196-0.007,0.281-0.021
			c0.085-0.013,0.159-0.042,0.223-0.085c0.063-0.045,0.111-0.107,0.146-0.189s0.053-0.19,0.053-0.325v-4.716
			c0-0.119-0.021-0.216-0.063-0.287c-0.042-0.071-0.096-0.128-0.16-0.167c-0.064-0.04-0.134-0.065-0.209-0.077
			c-0.074-0.012-0.145-0.018-0.208-0.018h-0.105v-0.475h2.113v1.48c0,0.118-0.004,0.244-0.011,0.379
			c-0.008,0.135-0.016,0.259-0.024,0.373c-0.012,0.135-0.023,0.267-0.035,0.396h0.079c0.091-0.17,0.187-0.304,0.288-0.399
			c0.101-0.098,0.209-0.17,0.322-0.218c0.115-0.049,0.235-0.079,0.363-0.093c0.127-0.013,0.262-0.02,0.402-0.02
			c0.23,0,0.439,0.034,0.623,0.102c0.186,0.067,0.341,0.171,0.469,0.312c0.127,0.141,0.225,0.32,0.292,0.538
			c0.067,0.219,0.101,0.48,0.101,0.785v2.087c0,0.141,0.013,0.253,0.038,0.336c0.024,0.084,0.062,0.147,0.112,0.191
			c0.049,0.044,0.112,0.073,0.188,0.088s0.165,0.022,0.269,0.022h0.025v0.479H93.472z"/>
		<path fill="#F7DCDA" d="M98.531,136.883c0.116,0,0.229-0.009,0.336-0.024c0.106-0.017,0.207-0.036,0.301-0.06v0.584
			c-0.047,0.024-0.11,0.049-0.191,0.075c-0.08,0.026-0.174,0.051-0.281,0.072c-0.106,0.022-0.228,0.04-0.362,0.056
			c-0.135,0.014-0.281,0.021-0.439,0.021c-0.202,0-0.386-0.024-0.55-0.072c-0.164-0.049-0.303-0.129-0.417-0.242
			c-0.114-0.112-0.202-0.259-0.264-0.439c-0.062-0.18-0.093-0.402-0.093-0.666v-2.878h-0.676v-0.462
			c0.193,0,0.365-0.037,0.518-0.113s0.274-0.164,0.365-0.264c0.185-0.193,0.322-0.491,0.413-0.893h0.747v1.116h1.151v0.615h-1.151
			v2.786c0,0.272,0.046,0.472,0.139,0.598C98.168,136.82,98.32,136.883,98.531,136.883z"/>
		<path fill="#F7DCDA" d="M101.426,137.608c-0.324,0-0.603-0.026-0.832-0.079c-0.23-0.053-0.418-0.126-0.563-0.22
			c-0.146-0.094-0.251-0.205-0.316-0.334c-0.066-0.129-0.1-0.268-0.1-0.418c0-0.146,0.029-0.264,0.086-0.354
			c0.058-0.089,0.129-0.158,0.216-0.209c0.086-0.049,0.178-0.082,0.274-0.099c0.097-0.016,0.185-0.024,0.264-0.024
			c0,0.188,0.023,0.356,0.07,0.506s0.112,0.276,0.197,0.38c0.085,0.104,0.188,0.185,0.306,0.239
			c0.119,0.057,0.251,0.084,0.397,0.084c0.155,0,0.29-0.016,0.402-0.049c0.113-0.031,0.205-0.076,0.277-0.134
			c0.071-0.057,0.125-0.123,0.16-0.197c0.035-0.075,0.053-0.153,0.053-0.235c0-0.1-0.019-0.188-0.055-0.266
			c-0.037-0.078-0.098-0.151-0.183-0.22c-0.085-0.069-0.198-0.137-0.341-0.202c-0.142-0.066-0.318-0.136-0.529-0.209
			c-0.243-0.085-0.458-0.175-0.644-0.271c-0.187-0.095-0.343-0.203-0.471-0.325c-0.127-0.121-0.224-0.261-0.29-0.417
			c-0.065-0.157-0.099-0.337-0.099-0.538c0-0.24,0.046-0.45,0.139-0.629c0.092-0.179,0.223-0.327,0.394-0.446
			c0.169-0.118,0.373-0.207,0.61-0.266s0.501-0.088,0.791-0.088c0.284,0,0.525,0.024,0.726,0.072
			c0.198,0.049,0.361,0.112,0.487,0.191s0.218,0.169,0.276,0.269s0.088,0.2,0.088,0.303c0,0.202-0.07,0.355-0.213,0.461
			c-0.142,0.105-0.377,0.158-0.705,0.158c0-0.299-0.066-0.53-0.2-0.696c-0.133-0.165-0.33-0.248-0.591-0.248
			c-0.097,0-0.189,0.012-0.279,0.035c-0.089,0.023-0.167,0.059-0.232,0.105c-0.066,0.047-0.119,0.104-0.158,0.174
			c-0.04,0.068-0.06,0.15-0.06,0.243c0,0.098,0.019,0.184,0.055,0.26c0.037,0.076,0.102,0.148,0.193,0.218
			c0.093,0.068,0.218,0.138,0.376,0.208s0.36,0.148,0.606,0.233c0.199,0.07,0.383,0.15,0.552,0.239
			c0.168,0.09,0.313,0.192,0.435,0.308c0.122,0.116,0.216,0.248,0.284,0.396c0.066,0.148,0.101,0.317,0.101,0.508
			c0,0.249-0.043,0.472-0.13,0.668c-0.086,0.196-0.213,0.362-0.38,0.496c-0.167,0.136-0.372,0.238-0.615,0.311
			C102.014,137.572,101.736,137.608,101.426,137.608z"/>
	</g>
</g>
</svg>
