<?xml version="1.0" encoding="utf-8"?>
<!-- Generator: Adobe Illustrator 16.0.0, SVG Export Plug-In . SVG Version: 6.00 Build 0)  -->
<!DOCTYPE svg PUBLIC "-//W3C//DTD SVG 1.1//EN" "http://www.w3.org/Graphics/SVG/1.1/DTD/svg11.dtd">
<svg version="1.1" id="Layer_1" xmlns="http://www.w3.org/2000/svg" xmlns:xlink="http://www.w3.org/1999/xlink" x="0px" y="0px"
	 width="133.25px" height="42.875px" viewBox="0 0 133.25 42.875" enable-background="new 0 0 133.25 42.875" xml:space="preserve">
<g>
	<defs>
		<rect id="SVGID_1_" x="-8.993" y="-10.25" width="150.618" height="63.75"/>
	</defs>
	<clipPath id="SVGID_2_">
		<use xlink:href="#SVGID_1_"  overflow="visible"/>
	</clipPath>
	<g clip-path="url(#SVGID_2_)">
		<defs>
			<rect id="SVGID_3_" x="-8.993" y="-10.25" width="150.618" height="63.75"/>
		</defs>
		<clipPath id="SVGID_4_">
			<use xlink:href="#SVGID_3_"  overflow="visible"/>
		</clipPath>
		<g opacity="0" clip-path="url(#SVGID_4_)">
			<g>
				<defs>
					<rect id="SVGID_5_" x="-8.993" y="-10.25" width="150.618" height="63.75"/>
				</defs>
				<clipPath id="SVGID_6_">
					<use xlink:href="#SVGID_5_"  overflow="visible"/>
				</clipPath>
				<rect x="-8.993" y="-10.25" clip-path="url(#SVGID_6_)" fill="#FFFFFF" width="150.618" height="63.75"/>
			</g>
		</g>
		<path clip-path="url(#SVGID_4_)" fill="#000102" d="M127.05,42.874H5.584c-2.673,0-4.859-2.39-4.859-5.311V5.688
			c0-2.922,2.186-5.313,4.859-5.313H127.05c2.671,0,4.857,2.391,4.857,5.313v31.876C131.907,40.484,129.721,42.874,127.05,42.874"/>
		<path clip-path="url(#SVGID_4_)" fill="#A6A6A6" d="M127.05,1.225c2.252,0,4.081,2.003,4.081,4.463v31.876
			c0,2.462-1.829,4.462-4.081,4.462H5.584c-2.25,0-4.083-2-4.083-4.462V5.688c0-2.46,1.832-4.463,4.083-4.463H127.05 M127.05,0.375
			H5.584c-2.673,0-4.859,2.391-4.859,5.313v31.876c0,2.921,2.186,5.311,4.859,5.311H127.05c2.671,0,4.857-2.39,4.857-5.311V5.688
			C131.907,2.766,129.721,0.375,127.05,0.375"/>
		<path clip-path="url(#SVGID_4_)" fill="#FFFFFF" d="M46.802,11.259c0,0.89-0.242,1.599-0.725,2.128
			c-0.549,0.629-1.263,0.944-2.142,0.944c-0.841,0-1.556-0.319-2.146-0.957c-0.588-0.638-0.882-1.429-0.882-2.373
			c0-0.944,0.293-1.735,0.882-2.374c0.589-0.638,1.305-0.956,2.146-0.956c0.417,0,0.819,0.089,1.197,0.266
			c0.379,0.178,0.685,0.416,0.914,0.711l-0.514,0.563c-0.385-0.504-0.916-0.758-1.596-0.758c-0.613,0-1.144,0.237-1.591,0.708
			c-0.449,0.473-0.672,1.084-0.672,1.839c0,0.753,0.223,1.367,0.672,1.839c0.447,0.473,0.978,0.707,1.591,0.707
			c0.653,0,1.194-0.236,1.63-0.712c0.282-0.309,0.444-0.738,0.488-1.292h-2.118v-0.766h2.827
			C46.79,10.945,46.802,11.104,46.802,11.259"/>
		<path clip-path="url(#SVGID_4_)" fill="none" stroke="#FFFFFF" stroke-width="0.2" stroke-miterlimit="10" d="M46.802,11.259
			c0,0.89-0.242,1.599-0.725,2.128c-0.549,0.629-1.263,0.944-2.142,0.944c-0.841,0-1.556-0.319-2.146-0.957
			c-0.588-0.638-0.882-1.429-0.882-2.373c0-0.944,0.293-1.735,0.882-2.374c0.589-0.638,1.305-0.956,2.146-0.956
			c0.417,0,0.819,0.089,1.197,0.266c0.379,0.178,0.685,0.416,0.914,0.711l-0.514,0.563c-0.385-0.504-0.916-0.758-1.596-0.758
			c-0.613,0-1.144,0.237-1.591,0.708c-0.449,0.473-0.672,1.084-0.672,1.839c0,0.753,0.223,1.367,0.672,1.839
			c0.447,0.473,0.978,0.707,1.591,0.707c0.653,0,1.194-0.236,1.63-0.712c0.282-0.309,0.444-0.738,0.488-1.292h-2.118v-0.766h2.827
			C46.79,10.945,46.802,11.104,46.802,11.259z"/>
		<polygon clip-path="url(#SVGID_4_)" fill="#FFFFFF" points="51.281,8.596 48.626,8.596 48.626,10.617 51.02,10.617 51.02,11.384 
			48.626,11.384 48.626,13.404 51.281,13.404 51.281,14.188 47.877,14.188 47.877,7.813 51.281,7.813 		"/>
		<polygon clip-path="url(#SVGID_4_)" fill="none" stroke="#FFFFFF" stroke-width="0.2" stroke-miterlimit="10" points="
			51.281,8.596 48.626,8.596 48.626,10.617 51.02,10.617 51.02,11.384 48.626,11.384 48.626,13.404 51.281,13.404 51.281,14.188 
			47.877,14.188 47.877,7.813 51.281,7.813 		"/>
		<polygon clip-path="url(#SVGID_4_)" fill="#FFFFFF" points="54.44,14.188 53.69,14.188 53.69,8.595 52.062,8.595 52.062,7.813 
			56.069,7.813 56.069,8.595 54.44,8.595 		"/>
		<polygon clip-path="url(#SVGID_4_)" fill="none" stroke="#FFFFFF" stroke-width="0.2" stroke-miterlimit="10" points="
			54.44,14.188 53.69,14.188 53.69,8.595 52.062,8.595 52.062,7.813 56.069,7.813 56.069,8.595 54.44,8.595 		"/>
		<rect x="58.968" y="7.813" clip-path="url(#SVGID_4_)" fill="#FFFFFF" width="0.749" height="6.375"/>
		
			<rect x="58.968" y="7.813" clip-path="url(#SVGID_4_)" fill="none" stroke="#FFFFFF" stroke-width="0.2" stroke-miterlimit="10" width="0.749" height="6.375"/>
		<polygon clip-path="url(#SVGID_4_)" fill="#FFFFFF" points="63.04,14.188 62.29,14.188 62.29,8.595 60.663,8.595 60.663,7.813 
			64.669,7.813 64.669,8.595 63.04,8.595 		"/>
		<polygon clip-path="url(#SVGID_4_)" fill="none" stroke="#FFFFFF" stroke-width="0.2" stroke-miterlimit="10" points="
			63.04,14.188 62.29,14.188 62.29,8.595 60.663,8.595 60.663,7.813 64.669,7.813 64.669,8.595 63.04,8.595 		"/>
		<path clip-path="url(#SVGID_4_)" fill="#FFFFFF" d="M72.253,13.364c-0.574,0.645-1.285,0.967-2.141,0.967
			c-0.851,0-1.562-0.322-2.134-0.967c-0.574-0.645-0.859-1.432-0.859-2.363c0-0.933,0.285-1.72,0.859-2.364
			c0.572-0.643,1.283-0.966,2.134-0.966c0.85,0,1.562,0.323,2.138,0.97c0.573,0.646,0.862,1.434,0.862,2.359
			C73.112,11.932,72.824,12.719,72.253,13.364 M68.53,12.831c0.433,0.477,0.96,0.716,1.582,0.716c0.627,0,1.155-0.239,1.587-0.716
			c0.431-0.479,0.646-1.088,0.646-1.83c0-0.741-0.216-1.353-0.646-1.83c-0.432-0.478-0.96-0.718-1.587-0.718
			c-0.622,0-1.149,0.241-1.582,0.718C68.1,9.648,67.884,10.259,67.884,11C67.884,11.742,68.1,12.352,68.53,12.831"/>
		<path clip-path="url(#SVGID_4_)" fill="none" stroke="#FFFFFF" stroke-width="0.2" stroke-miterlimit="10" d="M72.253,13.364
			c-0.574,0.645-1.285,0.967-2.141,0.967c-0.851,0-1.562-0.322-2.134-0.967c-0.574-0.645-0.859-1.432-0.859-2.363
			c0-0.933,0.285-1.72,0.859-2.364c0.572-0.643,1.283-0.966,2.134-0.966c0.85,0,1.562,0.323,2.138,0.97
			c0.573,0.646,0.862,1.434,0.862,2.359C73.112,11.932,72.824,12.719,72.253,13.364z M68.53,12.831
			c0.433,0.477,0.96,0.716,1.582,0.716c0.627,0,1.155-0.239,1.587-0.716c0.431-0.479,0.646-1.088,0.646-1.83
			c0-0.741-0.216-1.353-0.646-1.83c-0.432-0.478-0.96-0.718-1.587-0.718c-0.622,0-1.149,0.241-1.582,0.718
			C68.1,9.648,67.884,10.259,67.884,11C67.884,11.742,68.1,12.352,68.53,12.831z"/>
		<polygon clip-path="url(#SVGID_4_)" fill="#FFFFFF" points="74.162,14.188 74.162,7.813 75.075,7.813 77.908,12.771 77.94,12.771 
			77.908,11.543 77.908,7.813 78.659,7.813 78.659,14.188 77.877,14.188 74.912,8.988 74.879,8.988 74.912,10.217 74.912,14.188 		
			"/>
		<polygon clip-path="url(#SVGID_4_)" fill="none" stroke="#FFFFFF" stroke-width="0.2" stroke-miterlimit="10" points="
			74.162,14.188 74.162,7.813 75.075,7.813 77.908,12.771 77.94,12.771 77.908,11.543 77.908,7.813 78.659,7.813 78.659,14.188 
			77.877,14.188 74.912,8.988 74.879,8.988 74.912,10.217 74.912,14.188 		"/>
		<path clip-path="url(#SVGID_4_)" fill="#FFFFFF" d="M66.935,23.484c-2.286,0-4.149,1.902-4.149,4.521
			c0,2.604,1.863,4.52,4.149,4.52c2.284,0,4.147-1.916,4.147-4.52C71.082,25.387,69.219,23.484,66.935,23.484 M66.935,30.744
			c-1.253,0-2.334-1.13-2.334-2.739c0-1.627,1.081-2.738,2.334-2.738s2.331,1.111,2.331,2.738
			C69.266,29.614,68.188,30.744,66.935,30.744 M57.883,23.484c-2.284,0-4.148,1.902-4.148,4.521c0,2.604,1.864,4.52,4.148,4.52
			c2.287,0,4.149-1.916,4.149-4.52C62.032,25.387,60.17,23.484,57.883,23.484 M57.883,30.744c-1.252,0-2.332-1.13-2.332-2.739
			c0-1.627,1.08-2.738,2.332-2.738c1.251,0,2.333,1.111,2.333,2.738C60.217,29.614,59.135,30.744,57.883,30.744 M47.118,24.873
			v1.918h4.196c-0.125,1.076-0.454,1.867-0.956,2.412c-0.61,0.667-1.564,1.405-3.24,1.405c-2.582,0-4.603-2.279-4.603-5.101
			c0-2.826,2.021-5.103,4.603-5.103c1.395,0,2.412,0.6,3.162,1.369l1.238-1.352c-1.05-1.093-2.442-1.934-4.4-1.934
			c-3.537,0-6.512,3.15-6.512,7.02c0,3.866,2.975,7.017,6.512,7.017c1.91,0,3.35-0.686,4.479-1.97
			c1.158-1.266,1.518-3.045,1.518-4.484c0-0.442-0.031-0.854-0.094-1.197H47.118z M91.146,26.361
			c-0.345-1.009-1.393-2.877-3.538-2.877c-2.129,0-3.898,1.835-3.898,4.521c0,2.535,1.755,4.52,4.103,4.52
			c1.894,0,2.989-1.267,3.444-2.002l-1.41-1.028c-0.469,0.753-1.11,1.25-2.034,1.25s-1.582-0.464-2.004-1.37l5.524-2.499
			L91.146,26.361z M85.51,27.867c-0.046-1.746,1.237-2.637,2.161-2.637c0.72,0,1.329,0.397,1.535,0.96L85.51,27.867z M81.018,32.25
			h1.815V18.968h-1.815V32.25z M78.042,24.499h-0.063c-0.406-0.532-1.188-1.015-2.176-1.015c-2.065,0-3.959,1.987-3.959,4.54
			c0,2.53,1.894,4.5,3.959,4.5c0.987,0,1.77-0.479,2.176-1.026h0.063v0.649c0,1.729-0.846,2.654-2.207,2.654
			c-1.111,0-1.801-0.873-2.081-1.61l-1.583,0.721c0.455,1.197,1.66,2.668,3.664,2.668c2.13,0,3.929-1.369,3.929-4.707V23.76h-1.722
			V24.499z M75.96,30.744c-1.252,0-2.3-1.146-2.3-2.72c0-1.595,1.048-2.758,2.3-2.758c1.236,0,2.208,1.163,2.208,2.758
			C78.168,29.598,77.196,30.744,75.96,30.744 M99.652,18.968h-4.345V32.25h1.812v-5.033h2.533c2.01,0,3.984-1.589,3.984-4.125
			C103.637,20.559,101.662,18.968,99.652,18.968 M99.698,25.37h-2.579v-4.555h2.579c1.356,0,2.126,1.226,2.126,2.276
			C101.824,24.122,101.055,25.37,99.698,25.37 M110.903,23.463c-1.311,0-2.671,0.631-3.233,2.034l1.608,0.732
			c0.345-0.732,0.985-0.975,1.657-0.975c0.938,0,1.892,0.615,1.907,1.71v0.138c-0.329-0.206-1.032-0.514-1.892-0.514
			c-1.736,0-3.501,1.042-3.501,2.991c0,1.776,1.423,2.922,3.016,2.922c1.219,0,1.893-0.598,2.313-1.301h0.063v1.025h1.75v-5.091
			C114.593,24.776,112.982,23.463,110.903,23.463 M110.684,30.74c-0.591,0-1.42-0.323-1.42-1.126c0-1.026,1.032-1.419,1.923-1.419
			c0.796,0,1.172,0.188,1.656,0.444C112.7,29.87,111.732,30.74,110.684,30.74 M120.969,23.753l-2.08,5.76h-0.061l-2.155-5.76h-1.955
			l3.235,8.049l-1.844,4.478h1.89l4.986-12.526H120.969z M104.638,32.25h1.813V18.968h-1.813V32.25z"/>
	</g>
	<g clip-path="url(#SVGID_2_)">
		<defs>
			<path id="SVGID_7_" d="M10.864,8.384c-0.281,0.328-0.448,0.836-0.448,1.493v23.497c0,0.659,0.167,1.168,0.448,1.493l0.072,0.076
				l12.039-13.162v-0.156V21.47L10.937,8.307L10.864,8.384z"/>
		</defs>
		<clipPath id="SVGID_8_">
			<use xlink:href="#SVGID_7_"  overflow="visible"/>
		</clipPath>
		
			<linearGradient id="SVGID_9_" gradientUnits="userSpaceOnUse" x1="-18.3145" y1="52.4893" x2="-17.2519" y2="52.4893" gradientTransform="matrix(-16.7824 16.7824 -16.7824 -16.7824 599.0767 1201.0513)">
			<stop  offset="0" style="stop-color:#4699D0"/>
			<stop  offset="0.0066" style="stop-color:#459AD1"/>
			<stop  offset="0.2601" style="stop-color:#1ABAEB"/>
			<stop  offset="0.5122" style="stop-color:#4EC3ED"/>
			<stop  offset="0.7604" style="stop-color:#6AC8E7"/>
			<stop  offset="1" style="stop-color:#72CAE5"/>
		</linearGradient>
		<polygon clip-path="url(#SVGID_8_)" fill="url(#SVGID_9_)" points="16.696,1.439 -1.766,21.626 16.696,41.813 35.157,21.626 		"/>
	</g>
	<g clip-path="url(#SVGID_2_)">
		<defs>
			<path id="SVGID_10_" d="M22.976,21.47v0.156v0.156l4.011,4.388l0.093-0.056l4.754-2.953c1.359-0.843,1.359-2.226,0-3.067
				l-4.754-2.955l-0.09-0.056L22.976,21.47z"/>
		</defs>
		<clipPath id="SVGID_11_">
			<use xlink:href="#SVGID_10_"  overflow="visible"/>
		</clipPath>
		
			<linearGradient id="SVGID_12_" gradientUnits="userSpaceOnUse" x1="-18.3213" y1="52.9258" x2="-17.3483" y2="52.9258" gradientTransform="matrix(-24.1969 0 0 -24.1969 -409.7188 1302.2858)">
			<stop  offset="0" style="stop-color:#FFE103"/>
			<stop  offset="0.4087" style="stop-color:#FDBD00"/>
			<stop  offset="0.7754" style="stop-color:#F8A500"/>
			<stop  offset="1" style="stop-color:#F69B00"/>
		</linearGradient>
		<rect x="22.976" y="17.083" clip-path="url(#SVGID_11_)" fill="url(#SVGID_12_)" width="10.217" height="9.087"/>
	</g>
	<g clip-path="url(#SVGID_2_)">
		<defs>
			<path id="SVGID_13_" d="M10.864,34.867c0.447,0.518,1.186,0.585,2.021,0.067l14.195-8.82l-4.104-4.488L10.864,34.867z"/>
		</defs>
		<clipPath id="SVGID_14_">
			<use xlink:href="#SVGID_13_"  overflow="visible"/>
		</clipPath>
		
			<linearGradient id="SVGID_15_" gradientUnits="userSpaceOnUse" x1="-18.2124" y1="52.7539" x2="-17.1503" y2="52.7539" gradientTransform="matrix(-22.7583 22.7583 -22.7583 -22.7583 810.5112 1638.1665)">
			<stop  offset="0" style="stop-color:#E93A3D"/>
			<stop  offset="1" style="stop-color:#C41463"/>
		</linearGradient>
		<polygon clip-path="url(#SVGID_14_)" fill="url(#SVGID_15_)" points="18.972,12.762 4.543,28.539 18.972,44.315 33.401,28.539 		
			"/>
	</g>
	<g clip-path="url(#SVGID_2_)">
		<defs>
			<path id="SVGID_16_" d="M10.864,8.384l12.111,13.242l4.104-4.487L12.885,8.32c-0.392-0.245-0.761-0.358-1.09-0.358
				C11.421,7.962,11.103,8.109,10.864,8.384"/>
		</defs>
		<clipPath id="SVGID_17_">
			<use xlink:href="#SVGID_16_"  overflow="visible"/>
		</clipPath>
		
			<linearGradient id="SVGID_18_" gradientUnits="userSpaceOnUse" x1="-17.7549" y1="52.4844" x2="-16.6924" y2="52.4844" gradientTransform="matrix(10.1625 10.1625 -10.1625 10.1625 719.5697 -351.3588)">
			<stop  offset="0" style="stop-color:#33A071"/>
			<stop  offset="0.0685" style="stop-color:#30A772"/>
			<stop  offset="0.4762" style="stop-color:#54B867"/>
			<stop  offset="0.8009" style="stop-color:#6BBE66"/>
			<stop  offset="1" style="stop-color:#72C066"/>
		</linearGradient>
		<polygon clip-path="url(#SVGID_17_)" fill="url(#SVGID_18_)" points="4.615,14.794 18.972,30.492 33.329,14.794 18.972,-0.904 		
			"/>
	</g>
	<g clip-path="url(#SVGID_2_)">
		<defs>
			<rect id="SVGID_19_" x="-8.993" y="-10.25" width="150.618" height="63.75"/>
		</defs>
		<clipPath id="SVGID_20_">
			<use xlink:href="#SVGID_19_"  overflow="visible"/>
		</clipPath>
		<g opacity="0.2" clip-path="url(#SVGID_20_)" enable-background="new    ">
			<g>
				<defs>
					<rect id="SVGID_21_" x="10.865" y="26.016" width="16.215" height="9.274"/>
				</defs>
				<clipPath id="SVGID_22_">
					<use xlink:href="#SVGID_21_"  overflow="visible"/>
				</clipPath>
				<path clip-path="url(#SVGID_22_)" fill="#000102" d="M26.989,26.016l-14.105,8.764c-0.789,0.487-1.495,0.457-1.947,0.011
					l-0.072,0.077l0.072,0.079v-0.003c0.452,0.447,1.158,0.479,1.947-0.009l14.196-8.82L26.989,26.016z"/>
			</g>
		</g>
		<g opacity="0.12" clip-path="url(#SVGID_20_)" enable-background="new    ">
			<g>
				<defs>
					<rect id="SVGID_23_" x="10.416" y="33.221" width="0.521" height="1.646"/>
				</defs>
				<clipPath id="SVGID_24_">
					<use xlink:href="#SVGID_23_"  overflow="visible"/>
				</clipPath>
				<path clip-path="url(#SVGID_24_)" fill="#000102" d="M10.865,34.713c-0.283-0.325-0.449-0.835-0.449-1.492v0.155
					c0,0.657,0.167,1.166,0.449,1.491l0.072-0.077L10.865,34.713z"/>
			</g>
		</g>
		<g opacity="0.12" clip-path="url(#SVGID_20_)" enable-background="new    ">
			<g>
				<defs>
					<rect id="SVGID_25_" x="26.989" y="21.626" width="5.863" height="4.488"/>
				</defs>
				<clipPath id="SVGID_26_">
					<use xlink:href="#SVGID_25_"  overflow="visible"/>
				</clipPath>
				<path clip-path="url(#SVGID_26_)" fill="#000102" d="M31.833,23.006l-4.844,3.01l0.089,0.099l4.755-2.954
					c0.679-0.422,1.02-0.977,1.02-1.534C32.795,22.129,32.45,22.622,31.833,23.006"/>
			</g>
		</g>
		<g opacity="0.25" clip-path="url(#SVGID_20_)" enable-background="new    ">
			<g>
				<defs>
					<rect id="SVGID_27_" x="10.416" y="7.962" width="22.437" height="13.664"/>
				</defs>
				<clipPath id="SVGID_28_">
					<use xlink:href="#SVGID_27_"  overflow="visible"/>
				</clipPath>
				<path clip-path="url(#SVGID_28_)" fill="#FFFFFF" d="M12.884,8.475l18.95,11.771c0.617,0.383,0.962,0.876,1.02,1.38
					c0-0.555-0.34-1.112-1.02-1.535L12.884,8.32c-1.357-0.844-2.468-0.144-2.468,1.557v0.155
					C10.416,8.333,11.527,7.631,12.884,8.475"/>
			</g>
		</g>
	</g>
</g>
</svg>
