<?xml version="1.0" encoding="utf-8"?>
<!-- Generator: Adobe Illustrator 16.0.0, SVG Export Plug-In . SVG Version: 6.00 Build 0)  -->
<!DOCTYPE svg PUBLIC "-//W3C//DTD SVG 1.1//EN" "http://www.w3.org/Graphics/SVG/1.1/DTD/svg11.dtd">
<svg version="1.1" id="Layer_1" xmlns="http://www.w3.org/2000/svg" xmlns:xlink="http://www.w3.org/1999/xlink" x="0px" y="0px"
	 width="512px" height="472.697px" viewBox="0 0 512 472.697" enable-background="new 0 0 512 472.697" xml:space="preserve">
<g>
	<defs>
		<rect id="SVGID_1_" width="512" height="472.697"/>
	</defs>
	<clipPath id="SVGID_2_">
		<use xlink:href="#SVGID_1_"  overflow="visible"/>
	</clipPath>
	<path clip-path="url(#SVGID_2_)" fill="#D2911A" d="M131.187,0C98.975,0,72.764,25.972,72.764,57.775L70.64,357.327l31.867,0.228
		l2.125-299.663c0-14.351,11.913-26.025,26.556-26.025h320.266V0H131.187z"/>
	<path clip-path="url(#SVGID_2_)" fill="#D2911A" d="M451.452,0c-33.386,0-60.548,27.161-60.548,60.548v336.199
		c0,24.304-19.779,44.083-44.084,44.083c-24.304,0-44.082-19.779-44.082-44.083v-38.771c0-8.802-7.133-15.935-15.935-15.935H15.934
		C7.133,342.041,0,349.173,0,357.975v38.771c0,41.879,34.071,75.95,75.95,75.95V440.83c-24.309,0-44.083-19.779-44.083-44.083
		v-22.839h239.004v22.838c0,41.879,34.071,75.95,75.949,75.95c41.88,0,75.951-34.071,75.951-75.95V147.651h73.295
		c8.801,0,15.934-7.133,15.934-15.934v-71.17C512,27.161,484.839,0,451.452,0 M480.133,115.784h-57.36V60.547
		c0-15.817,12.868-28.68,28.68-28.68c15.811,0,28.68,12.864,28.68,28.68L480.133,115.784L480.133,115.784z"/>
	<rect x="72.763" y="440.829" clip-path="url(#SVGID_2_)" fill="#D2911A" width="270.333" height="31.866"/>
	<path clip-path="url(#SVGID_2_)" fill="#D2911A" d="M236.88,88.697h-82.324c-8.801,0-15.934,7.133-15.934,15.934
		c0,8.801,7.133,15.934,15.934,15.934h82.324c8.801,0,15.934-7.133,15.934-15.934C252.814,95.83,245.68,88.697,236.88,88.697"/>
	<path clip-path="url(#SVGID_2_)" fill="#D2911A" d="M332.481,152.431H154.557c-8.802,0-15.934,7.133-15.934,15.934
		c0,8.801,7.132,15.934,15.934,15.934h177.925c8.801,0,15.934-7.133,15.934-15.934C348.415,159.564,341.282,152.431,332.481,152.431
		"/>
	<path clip-path="url(#SVGID_2_)" fill="#D2911A" d="M332.481,216.165H154.557c-8.802,0-15.934,7.133-15.934,15.934
		c0,8.801,7.132,15.934,15.934,15.934h177.925c8.801,0,15.934-7.128,15.934-15.934C348.415,223.298,341.282,216.165,332.481,216.165
		"/>
	<path clip-path="url(#SVGID_2_)" fill="#D2911A" d="M332.481,279.9H154.557c-8.802,0-15.934,7.133-15.934,15.935
		c0,8.8,7.132,15.934,15.934,15.934h177.925c8.801,0,15.934-7.134,15.934-15.934C348.415,287.033,341.282,279.9,332.481,279.9"/>
</g>
</svg>
