<?xml version="1.0" encoding="utf-8"?>
<!-- Generator: Adobe Illustrator 16.0.0, SVG Export Plug-In . SVG Version: 6.00 Build 0)  -->
<!DOCTYPE svg PUBLIC "-//W3C//DTD SVG 1.1//EN" "http://www.w3.org/Graphics/SVG/1.1/DTD/svg11.dtd">
<svg version="1.1" id="Layer_1" xmlns="http://www.w3.org/2000/svg" xmlns:xlink="http://www.w3.org/1999/xlink" x="0px" y="0px"
	 width="511.999px" height="485.896px" viewBox="0 0 511.999 485.896" enable-background="new 0 0 511.999 485.896"
	 xml:space="preserve">
<g>
	<defs>
		<rect id="SVGID_1_" width="511.999" height="485.896"/>
	</defs>
	<clipPath id="SVGID_2_">
		<use xlink:href="#SVGID_1_"  overflow="visible"/>
	</clipPath>
	<path clip-path="url(#SVGID_2_)" fill="#A52A40" d="M494.202,0H17.798C7.967,0,0,7.968,0,17.799v62.888
		c0,9.831,7.967,17.798,17.798,17.798h476.403c9.831,0,17.798-7.968,17.798-17.798V17.799C512,7.968,504.032,0,494.202,0
		 M476.403,62.888H35.597V35.597h440.807L476.403,62.888L476.403,62.888z"/>
	<path clip-path="url(#SVGID_2_)" fill="#A52A40" d="M445.553,80.686V369.02H65.854V80.686H30.257v306.132
		c0,9.831,7.968,17.798,17.798,17.798H463.35c9.831,0,17.799-7.968,17.799-17.798V80.686H445.553z"/>
	<path clip-path="url(#SVGID_2_)" fill="#A52A40" d="M307.912,237.904h-57.548v-57.547c0-9.831-7.968-17.799-17.798-17.799
		c-25.036,0-48.465,9.647-65.979,27.166c-17.52,17.514-27.166,40.949-27.166,65.979c0,51.361,41.785,93.146,93.145,93.146
		c25.036,0,48.471-9.647,65.979-27.166c17.521-17.515,27.166-40.947,27.166-65.979C325.71,245.873,317.743,237.904,307.912,237.904
		 M273.371,296.508c-10.786,10.792-25.28,16.736-40.806,16.736c-31.729,0-57.548-25.813-57.548-57.548
		c0-15.521,5.945-30.014,16.742-40.806c6.514-6.52,14.381-11.266,23.007-14.007v54.813c0,9.832,7.968,17.798,17.798,17.798h54.819
		C284.643,282.122,279.897,289.989,273.371,296.508"/>
	<path clip-path="url(#SVGID_2_)" fill="#A52A40" d="M344.82,143.449c-17.515-17.52-40.942-27.166-65.979-27.166
		c-9.831,0-17.798,7.968-17.798,17.798v75.346c0,9.831,7.968,17.798,17.798,17.798h75.94c9.831,0,17.797-7.974,17.797-17.798
		C372.578,185.139,362.464,161.087,344.82,143.449 M296.64,191.629v-37.015c8.626,2.735,16.493,7.487,23.014,14.001
		c6.562,6.574,11.462,14.512,14.345,23.013L296.64,191.629L296.64,191.629z"/>
	<path clip-path="url(#SVGID_2_)" fill="#A52A40" d="M269.402,375.451c-6.277-7.569-17.502-8.614-25.066-2.326l-97.892,81.279
		c-7.563,6.277-8.608,17.502-2.325,25.061c3.524,4.241,8.596,6.431,13.705,6.431c4.005,0,8.038-1.34,11.361-4.105l97.891-81.278
		C274.641,394.234,275.685,383.009,269.402,375.451"/>
	<path clip-path="url(#SVGID_2_)" fill="#A52A40" d="M364.962,454.405l-97.885-81.278c-7.559-6.284-18.783-5.239-25.066,2.325
		c-6.277,7.564-5.239,18.783,2.326,25.061l97.891,81.278c3.322,2.76,7.352,4.105,11.355,4.105c5.107,0,10.181-2.189,13.705-6.431
		C373.564,471.9,372.526,460.681,364.962,454.405"/>
</g>
</svg>
