<?xml version="1.0" encoding="utf-8"?>
<!-- Generator: Adobe Illustrator 16.0.0, SVG Export Plug-In . SVG Version: 6.00 Build 0)  -->
<!DOCTYPE svg PUBLIC "-//W3C//DTD SVG 1.1//EN" "http://www.w3.org/Graphics/SVG/1.1/DTD/svg11.dtd">
<svg version="1.1" id="Layer_1" xmlns="http://www.w3.org/2000/svg" xmlns:xlink="http://www.w3.org/1999/xlink" x="0px" y="0px"
	 width="511.999px" height="326.237px" viewBox="0 0 511.999 326.237" enable-background="new 0 0 511.999 326.237"
	 xml:space="preserve">
<g>
	<defs>
		<rect id="SVGID_1_" width="511.999" height="326.237"/>
	</defs>
	<clipPath id="SVGID_2_">
		<use xlink:href="#SVGID_1_"  overflow="visible"/>
	</clipPath>
	<path clip-path="url(#SVGID_2_)" fill="#3E84B0" d="M510.793,20.933c-2.612-6.676-9.05-11.064-16.213-11.064H372.096v34.83h78.019
		l-47.688,44.117H286.183v34.83h123.064c4.383,0,8.609-1.654,11.825-4.632l85.332-78.947
		C511.663,35.201,513.405,27.603,510.793,20.933"/>
	<path clip-path="url(#SVGID_2_)" fill="#3E84B0" d="M211.88,44.698V9.868H102.747c-4.383,0-8.609,1.654-11.825,4.632L5.59,93.448
		c-5.259,4.865-7.001,12.463-4.389,19.133c2.612,6.676,9.044,11.064,16.213,11.064h116.679v-34.83H61.886l47.682-44.117H211.88z"/>
	<path clip-path="url(#SVGID_2_)" fill="#3E84B0" d="M130.611,156.159H17.415C7.796,156.159,0,163.955,0,173.573
		s7.796,17.415,17.415,17.415h113.196c9.619,0,17.415-7.796,17.415-17.415S140.23,156.159,130.611,156.159"/>
	<path clip-path="url(#SVGID_2_)" fill="#3E84B0" d="M508.256,95.445c-5.962-7.558-16.904-8.847-24.462-2.885l-80.59,63.599h-115.28
		c-9.619,0-17.415,7.795-17.415,17.415s7.796,17.415,17.415,17.415h121.323c3.918,0,7.715-1.324,10.791-3.744l85.332-67.343
		C512.923,113.945,514.212,102.997,508.256,95.445"/>
	<path clip-path="url(#SVGID_2_)" fill="#3E84B0" d="M130.611,224.07H17.415C7.796,224.07,0,231.866,0,241.485
		S7.796,258.9,17.415,258.9h113.196c9.619,0,17.415-7.796,17.415-17.415S140.23,224.07,130.611,224.07"/>
	<path clip-path="url(#SVGID_2_)" fill="#3E84B0" d="M508.703,169.771c-5.619-7.802-16.492-9.567-24.313-3.941l-80.769,58.24
		H289.085c-9.619,0-17.415,7.796-17.415,17.415s7.796,17.415,17.415,17.415h120.162c3.657,0,7.221-1.149,10.182-3.286l85.332-61.531
		C512.563,188.458,514.322,177.573,508.703,169.771"/>
	<path clip-path="url(#SVGID_2_)" fill="#3E84B0" d="M509.156,243.569c-5.259-8.051-16.057-10.327-24.104-5.057l-80.988,52.895
		H17.415C7.796,291.407,0,299.203,0,308.822s7.796,17.415,17.415,17.415h391.832c3.384,0,6.687-0.98,9.52-2.833l85.332-55.732
		C512.151,262.412,514.415,251.626,509.156,243.569"/>
	<path clip-path="url(#SVGID_2_)" fill="#3E84B0" d="M394.108,11.041C391.49,4.377,385.058,0,377.901,0H225.813
		c-4.4,0-8.639,1.666-11.859,4.667l-91.719,85.332c-3.541,3.291-5.554,7.912-5.554,12.748v200.271h34.829V110.333l81.154-75.505
		h100.953l-59.297,55.17c-3.535,3.291-5.55,7.912-5.55,12.748v200.271h34.83V110.333l86.168-80.172
		C395.002,25.292,396.726,17.705,394.108,11.041"/>
</g>
</svg>
