<?xml version="1.0" encoding="utf-8"?>
<!-- Generator: Adobe Illustrator 16.0.0, SVG Export Plug-In . SVG Version: 6.00 Build 0)  -->
<!DOCTYPE svg PUBLIC "-//W3C//DTD SVG 1.1//EN" "http://www.w3.org/Graphics/SVG/1.1/DTD/svg11.dtd">
<svg version="1.1" id="Layer_1" xmlns="http://www.w3.org/2000/svg" xmlns:xlink="http://www.w3.org/1999/xlink" x="0px" y="0px"
	 width="512.001px" height="464.856px" viewBox="0 0 512.001 464.856" enable-background="new 0 0 512.001 464.856"
	 xml:space="preserve">
<g>
	<defs>
		<rect id="SVGID_1_" width="512" height="464.856"/>
	</defs>
	<clipPath id="SVGID_2_">
		<use xlink:href="#SVGID_1_"  overflow="visible"/>
	</clipPath>
	<path clip-path="url(#SVGID_2_)" fill="#52A05A" d="M455.018,262.08l-64.69-112.926c-2.938-5.115-8.383-8.272-14.275-8.272H135.95
		c-5.898,0-11.342,3.157-14.275,8.272L56.99,262.08c-3.744,6.533-2.565,14.778,2.856,20.008l184.737,178.159
		c3.19,3.074,7.307,4.609,11.419,4.609c4.117,0,8.228-1.535,11.419-4.609l184.741-178.159
		C457.583,276.858,458.762,268.613,455.018,262.08 M256.001,425.563L91.903,267.309l53.579-93.536h221.032l53.59,93.536
		L256.001,425.563z"/>
	<rect x="71.264" y="253.807" clip-path="url(#SVGID_2_)" fill="#52A05A" width="369.473" height="32.891"/>
	
		<rect x="179.529" y="145.447" transform="matrix(-0.9245 0.3813 -0.3813 -0.9245 492.6395 508.1919)" clip-path="url(#SVGID_2_)" fill="#52A05A" width="32.894" height="314.904"/>
	
		<rect x="159.614" y="287.541" transform="matrix(-0.3838 0.9234 -0.9234 -0.3838 718.0309 128.8282)" clip-path="url(#SVGID_2_)" fill="#52A05A" width="312.836" height="32.89"/>
	<path clip-path="url(#SVGID_2_)" fill="#52A05A" d="M269.601,150.278c-3.06-4.501-8.156-7.198-13.601-7.198
		c-5.442,0-10.536,2.692-13.6,7.198l-75.649,111.28l27.202,18.49L256,188.776l62.043,91.272l27.206-18.49L269.601,150.278z"/>
	<path clip-path="url(#SVGID_2_)" fill="#52A05A" d="M256.001,0c-9.083,0-16.445,7.362-16.445,16.445v84.968
		c0,9.083,7.362,16.445,16.445,16.445c9.083,0,16.444-7.362,16.444-16.445V16.445C272.445,7.362,265.084,0,256.001,0"/>
	<path clip-path="url(#SVGID_2_)" fill="#52A05A" d="M507.182,63.473c-6.425-6.425-16.829-6.425-23.254,0l-60.301,60.3
		c-6.425,6.419-6.425,16.835,0,23.254c3.213,3.212,7.417,4.818,11.627,4.818c4.211,0,8.421-1.601,11.628-4.818l60.3-60.3
		C513.607,80.308,513.607,69.893,507.182,63.473"/>
	<path clip-path="url(#SVGID_2_)" fill="#52A05A" d="M88.373,123.773l-60.3-60.3c-6.419-6.425-16.835-6.425-23.254,0
		c-6.425,6.419-6.425,16.835,0,23.254l60.3,60.3c3.207,3.212,7.417,4.818,11.627,4.818s8.42-1.601,11.627-4.818
		C94.798,140.608,94.798,130.192,88.373,123.773"/>
</g>
</svg>
