<?xml version="1.0" encoding="utf-8"?>
<!-- Generator: Adobe Illustrator 16.0.0, SVG Export Plug-In . SVG Version: 6.00 Build 0)  -->
<!DOCTYPE svg PUBLIC "-//W3C//DTD SVG 1.1//EN" "http://www.w3.org/Graphics/SVG/1.1/DTD/svg11.dtd">
<svg version="1.1" id="Layer_1" xmlns="http://www.w3.org/2000/svg" xmlns:xlink="http://www.w3.org/1999/xlink" x="0px" y="0px"
	 width="352.956px" height="232.922px" viewBox="0 0 352.956 232.922" enable-background="new 0 0 352.956 232.922"
	 xml:space="preserve">
<g>
	<defs>
		<rect id="SVGID_1_" width="352.956" height="232.922"/>
	</defs>
	<clipPath id="SVGID_2_">
		<use xlink:href="#SVGID_1_"  overflow="visible"/>
	</clipPath>
	<g clip-path="url(#SVGID_2_)">
		<defs>
			<rect id="SVGID_3_" width="352.956" height="232.922"/>
		</defs>
		<clipPath id="SVGID_4_">
			<use xlink:href="#SVGID_3_"  overflow="visible"/>
		</clipPath>
		<path clip-path="url(#SVGID_4_)" fill="#F4A28C" d="M148.769,70.989c0,0,3.857-9.693,6.506-9.287
			c2.649,0.406,0.548,4.151,0.548,4.151s6.588-2.791,8.689-0.822c2.101,1.969-10.739,9.439-10.739,9.439L148.769,70.989z"/>
		<polygon clip-path="url(#SVGID_4_)" fill="#53ACED" points="128.133,93.664 147.683,69.314 156.117,75.1 141.095,116.045 
			121.912,116.126 		"/>
		<g opacity="0.09" clip-path="url(#SVGID_4_)" enable-background="new    ">
			<g>
				<defs>
					<rect id="SVGID_5_" x="121.912" y="69.314" width="34.205" height="46.812"/>
				</defs>
				<clipPath id="SVGID_6_">
					<use xlink:href="#SVGID_5_"  overflow="visible"/>
				</clipPath>
				<polygon clip-path="url(#SVGID_6_)" points="128.133,93.664 147.683,69.314 156.117,75.1 141.095,116.045 121.912,116.126 				
					"/>
			</g>
		</g>
		<polygon clip-path="url(#SVGID_4_)" fill="#24285B" points="252.156,84.742 266.326,116.045 239.357,116.045 		"/>
		<g opacity="0.44" clip-path="url(#SVGID_4_)" enable-background="new    ">
			<g>
				<defs>
					<rect id="SVGID_7_" x="239.357" y="84.742" width="26.969" height="31.303"/>
				</defs>
				<clipPath id="SVGID_8_">
					<use xlink:href="#SVGID_7_"  overflow="visible"/>
				</clipPath>
				<polygon clip-path="url(#SVGID_8_)" fill="#FFFFFF" points="252.156,84.742 266.326,116.045 239.357,116.045 				"/>
			</g>
		</g>
		<path clip-path="url(#SVGID_4_)" fill="#24285B" d="M154.635,108.239l17.732-39.179c0.869-1.922,2.783-3.156,4.893-3.156h77.455
			c2.572,0.001,4.657,2.087,4.656,4.66c0,0.601-0.115,1.197-0.343,1.754l-16.727,40.904c-0.696,1.709-2.358,2.826-4.203,2.823
			h-78.429c-3.049,0.004-5.525-2.465-5.529-5.515C154.14,109.74,154.309,108.959,154.635,108.239"/>
		<path clip-path="url(#SVGID_4_)" fill="#FFFFFF" d="M165.049,106.006l14.84-32.794c0.544-1.19,1.736-1.95,3.045-1.939h63.995
			c1.076,0.02,1.934,0.908,1.912,1.984c-0.004,0.243-0.054,0.481-0.146,0.706l-14.209,34.662c-0.516,1.227-1.714,2.027-3.045,2.03
			h-63.388c-1.821-0.003-3.296-1.482-3.293-3.304C164.761,106.887,164.86,106.429,165.049,106.006"/>
		<polygon clip-path="url(#SVGID_4_)" fill="#E6E6E6" points="227.645,75.1 215.931,103.409 230.902,103.409 240.981,75.1 		"/>
		<g opacity="0.51" clip-path="url(#SVGID_4_)" enable-background="new    ">
			<g>
				<defs>
					<rect id="SVGID_9_" x="182.335" y="75.1" width="41.604" height="6.303"/>
				</defs>
				<clipPath id="SVGID_10_">
					<use xlink:href="#SVGID_9_"  overflow="visible"/>
				</clipPath>
				<polygon clip-path="url(#SVGID_10_)" fill="#E6E6E6" points="185.258,75.1 182.334,81.402 221.625,81.402 223.939,75.1 				"/>
			</g>
		</g>
		<g opacity="0.66" clip-path="url(#SVGID_4_)" enable-background="new    ">
			<g>
				<defs>
					<rect id="SVGID_11_" x="156.594" width="64.859" height="45.411"/>
				</defs>
				<clipPath id="SVGID_12_">
					<use xlink:href="#SVGID_11_"  overflow="visible"/>
				</clipPath>
				<rect x="156.594" clip-path="url(#SVGID_12_)" fill="#E6E6E6" width="64.858" height="45.411"/>
			</g>
		</g>
		<g opacity="0.31" clip-path="url(#SVGID_4_)" enable-background="new    ">
			<g>
				<defs>
					<rect id="SVGID_13_" x="256.896" y="22.827" width="50.161" height="35.119"/>
				</defs>
				<clipPath id="SVGID_14_">
					<use xlink:href="#SVGID_13_"  overflow="visible"/>
				</clipPath>
				<rect x="256.897" y="22.827" clip-path="url(#SVGID_14_)" fill="#E6E6E6" width="50.16" height="35.119"/>
			</g>
		</g>
		<g opacity="0.3" clip-path="url(#SVGID_4_)" enable-background="new    ">
			<g>
				<defs>
					<rect id="SVGID_15_" y="204.461" width="352.956" height="28.461"/>
				</defs>
				<clipPath id="SVGID_16_">
					<use xlink:href="#SVGID_15_"  overflow="visible"/>
				</clipPath>
				<path clip-path="url(#SVGID_16_)" fill="#E6E6E6" d="M176.479,204.462c97.466,0,176.478,6.371,176.478,14.229
					c0,7.86-79.012,14.231-176.478,14.231C79.012,232.922,0,226.551,0,218.69C0,210.833,79.012,204.462,176.479,204.462"/>
			</g>
		</g>
		<rect x="53.917" y="116.045" clip-path="url(#SVGID_4_)" fill="#E6E6E6" width="237.459" height="102.14"/>
		<rect x="68.573" y="130.742" clip-path="url(#SVGID_4_)" fill="#C1C1C1" width="161.375" height="87.441"/>
		<polygon clip-path="url(#SVGID_4_)" fill="#24285B" points="112.167,170.601 107.711,214.276 116.795,214.276 128.134,168.155 
			119.485,164.744 		"/>
		<rect x="86.559" y="172.062" clip-path="url(#SVGID_4_)" fill="#FFD200" width="10.089" height="35.141"/>
		<g opacity="0.15" clip-path="url(#SVGID_4_)" enable-background="new    ">
			<g>
				<defs>
					<rect id="SVGID_17_" x="86.559" y="172.063" width="10.089" height="35.14"/>
				</defs>
				<clipPath id="SVGID_18_">
					<use xlink:href="#SVGID_17_"  overflow="visible"/>
				</clipPath>
				<rect x="86.559" y="172.062" clip-path="url(#SVGID_18_)" width="10.089" height="35.141"/>
			</g>
		</g>
		<path clip-path="url(#SVGID_4_)" fill="#24285B" d="M77.16,145.683c0,0,0.477,11.978,7.196,16.615
			c4.406,3.046,26.654,4.721,41.432,5.512c6.919,0.373,12.226,6.284,11.852,13.202c-0.015,0.293-0.041,0.585-0.077,0.876
			l-4.06,32.389h9.277l8.739-38.712c2.249-9.973-3.308-20.055-12.942-23.477l-20.726-7.359L77.16,145.683z"/>
		<polygon clip-path="url(#SVGID_4_)" fill="#F4A28C" points="116.735,47.715 114.725,60.443 103.317,61.448 109.965,41.036 		"/>
		<path clip-path="url(#SVGID_4_)" fill="#F4A28C" d="M114.269,33.871c3.089-1.182,6.551,0.365,7.732,3.454
			c0.298,0.778,0.43,1.61,0.388,2.443c-0.193,4.77-1.38,11.358-6.608,10.343c-7.998-1.604-6.242-12.018-6.242-12.018
			C110.661,36.247,112.308,34.776,114.269,33.871"/>
		<path clip-path="url(#SVGID_4_)" fill="#53ACED" d="M69.213,104.981c-2.923-17.052,4.385-34.51,19.041-43.645
			c6.445-4.194,14.114-6.096,21.772-5.4c27.019,2.497,36.946,33.394,22.787,56.941c-3.665,6.228-6.888,12.707-9.643,19.387
			l-5.278,12.505l-41.737,0.71L69.213,104.981z"/>
		<path clip-path="url(#SVGID_4_)" fill="#53ACED" d="M108.625,214.276l-0.812,3.867c-0.364,1.733,0.746,3.435,2.479,3.799
			c0.216,0.045,0.437,0.067,0.658,0.067h7.957c1.065-0.013,1.917-0.887,1.904-1.952c-0.009-0.648-0.343-1.25-0.889-1.6l-6.597-4.182
			H108.625z"/>
		<path clip-path="url(#SVGID_4_)" fill="#53ACED" d="M135.269,214.276l-0.812,3.867c-0.37,1.727,0.729,3.427,2.456,3.796
			c0.224,0.048,0.452,0.071,0.68,0.07h7.947c1.065-0.013,1.918-0.887,1.904-1.952c-0.008-0.648-0.342-1.25-0.888-1.6
			c-1.807-1.146-4.06-2.558-6.608-4.182H135.269z"/>
		<path clip-path="url(#SVGID_4_)" fill="#53ACED" d="M107.772,72.928c0.67-7.347,7.168-12.76,14.515-12.09
			c2.738,0.25,5.333,1.338,7.429,3.117c4.014,3.396,7.266,7.602,9.541,12.343c7.806,16.351,20.25,27.09,62.229,26.106v10.251
			c0,0-61.021,12.931-82.976-11.713C109.143,90.437,107.073,80.671,107.772,72.928"/>
		<g opacity="0.44" clip-path="url(#SVGID_4_)" enable-background="new    ">
			<g>
				<defs>
					<rect id="SVGID_19_" x="107.648" y="60.782" width="93.84" height="55.263"/>
				</defs>
				<clipPath id="SVGID_20_">
					<use xlink:href="#SVGID_19_"  overflow="visible"/>
				</clipPath>
				<path clip-path="url(#SVGID_20_)" fill="#FFFFFF" d="M107.772,72.928c0.67-7.347,7.168-12.76,14.515-12.09
					c2.738,0.25,5.333,1.338,7.429,3.117c4.014,3.396,7.266,7.602,9.541,12.343c7.806,16.351,20.25,27.09,62.229,26.106v10.251
					c0,0-61.021,12.931-82.976-11.713C109.143,90.437,107.073,80.671,107.772,72.928"/>
			</g>
		</g>
		<g opacity="0.58" clip-path="url(#SVGID_4_)" enable-background="new    ">
			<g>
				<defs>
					<rect id="SVGID_21_" x="300.034" y="195.188" width="14.677" height="12.075"/>
				</defs>
				<clipPath id="SVGID_22_">
					<use xlink:href="#SVGID_21_"  overflow="visible"/>
				</clipPath>
				<path clip-path="url(#SVGID_22_)" fill="#53ACED" d="M311.25,206.502c0,0-9.217-2.519-11.216-11.084
					c0,0,14.271-2.894,14.677,11.845L311.25,206.502z"/>
			</g>
		</g>
		<g opacity="0.73" clip-path="url(#SVGID_4_)" enable-background="new    ">
			<g>
				<defs>
					<rect id="SVGID_23_" x="309.273" y="185.897" width="9.6" height="19.721"/>
				</defs>
				<clipPath id="SVGID_24_">
					<use xlink:href="#SVGID_23_"  overflow="visible"/>
				</clipPath>
				<path clip-path="url(#SVGID_24_)" fill="#53ACED" d="M312.376,205.588c0,0-6.435-10.149-0.771-19.69
					c0,0,10.86,6.901,6.028,19.721L312.376,205.588z"/>
			</g>
		</g>
		
			<rect x="209.319" y="92.835" transform="matrix(-0.866 0.5001 -0.5001 -0.866 444.8276 90.4468)" clip-path="url(#SVGID_4_)" fill="#FFD200" width="1.95" height="23.995"/>
		<path clip-path="url(#SVGID_4_)" fill="#53ACED" d="M314.041,205.599c0,0,3.4-10.749,13.682-12.779c0,0,1.92,6.972-6.658,12.81
			L314.041,205.599z"/>
		<polygon clip-path="url(#SVGID_4_)" fill="#24285B" points="307.352,205.354 309.22,218.134 320.983,218.185 322.719,205.426 		
			"/>
		<path clip-path="url(#SVGID_4_)" fill="#F4A28C" d="M201.487,105.194c0,0,8.414-5.613,12.811-1.705
			c4.394,3.908-12.811,9.135-12.811,9.135V105.194z"/>
		<g opacity="0.09" clip-path="url(#SVGID_4_)" enable-background="new    ">
			<g>
				<defs>
					<rect id="SVGID_25_" x="70.055" y="46.406" width="42.092" height="99.074"/>
				</defs>
				<clipPath id="SVGID_26_">
					<use xlink:href="#SVGID_25_"  overflow="visible"/>
				</clipPath>
				<path clip-path="url(#SVGID_26_)" d="M112.147,46.406l-2.121,9.49c0,0-23.223,13.784-24.512,35.078
					c0,0-3.644,38.378,18.402,53.796l-24.442,0.71l-9.419-59.073c0,0,7.308-28.603,35.17-30.653l2.913-8.942L112.147,46.406z"/>
			</g>
		</g>
		<path clip-path="url(#SVGID_4_)" fill="#24285B" d="M106.646,41.239c0,0-1.279,4.273,2.03,5.968
			c3.309,1.695,7.572-6.09,7.572-6.09s7.45-1.279,10.536-5.176c1.684-2.142-0.599-5.075-3.198-4.233
			c-1.67,0.485-3.472,0.044-4.73-1.157C114.177,26.765,103.438,29.485,106.646,41.239"/>
		<path clip-path="url(#SVGID_4_)" fill="#F4A28C" d="M116.745,41.26c0,0-0.223-2.862-2.791-1.736
			c-2.568,1.127-0.741,4.781,1.015,4.679C116.724,44.102,116.745,41.26,116.745,41.26"/>
		<path clip-path="url(#SVGID_4_)" fill="#FFD200" d="M67.335,162.085c0,0,48.882-8.811,54.252-0.273
			c5.369,8.536,0.609,21.963-19.955,18.27C81.068,176.387,55.845,187.471,67.335,162.085"/>
		<path clip-path="url(#SVGID_4_)" fill="#FFD200" d="M66.401,144.81c-13.2-2.391-21.963-15.028-19.573-28.228
			c0.166-0.915,0.384-1.819,0.653-2.709c4.172-13.804,12.251-28.501,27.69-27.405C100.505,88.274,115.862,153.985,66.401,144.81"/>
		<g opacity="0.09" clip-path="url(#SVGID_4_)" enable-background="new    ">
			<g>
				<defs>
					<rect id="SVGID_27_" x="46.558" y="86.427" width="26.105" height="58.302"/>
				</defs>
				<clipPath id="SVGID_28_">
					<use xlink:href="#SVGID_27_"  overflow="visible"/>
				</clipPath>
				<path clip-path="url(#SVGID_28_)" d="M72.664,86.427c0,0-28.836,33.576-2.608,53.744l-5.4,4.558c0,0-23.528-7.43-16.93-31.688
					C47.726,113.04,55.318,86.864,72.664,86.427"/>
			</g>
		</g>
		<path clip-path="url(#SVGID_4_)" fill="#FFD200" d="M79.586,175.382c-0.874-0.002-1.731-0.244-2.477-0.7
			c-20.574-12.485-9.865-54.242-8.586-58.962c0.695-2.548,3.324-4.049,5.871-3.355c2.548,0.696,4.05,3.325,3.355,5.872
			c-2.761,10.15-7.907,40.854,4.314,48.274c2.259,1.366,2.982,4.306,1.616,6.563C82.812,174.508,81.26,175.383,79.586,175.382"/>
		<g opacity="0.44" clip-path="url(#SVGID_4_)" enable-background="new    ">
			<g>
				<defs>
					<rect id="SVGID_29_" x="64.603" y="112.196" width="19.767" height="63.186"/>
				</defs>
				<clipPath id="SVGID_30_">
					<use xlink:href="#SVGID_29_"  overflow="visible"/>
				</clipPath>
				<path clip-path="url(#SVGID_30_)" fill="#FFFFFF" d="M79.586,175.382c-0.874-0.002-1.731-0.244-2.477-0.7
					c-20.574-12.485-9.865-54.242-8.586-58.962c0.695-2.548,3.324-4.049,5.871-3.355c2.548,0.696,4.05,3.325,3.355,5.872
					c-2.761,10.15-7.907,40.854,4.314,48.274c2.259,1.366,2.982,4.306,1.616,6.563C82.812,174.508,81.26,175.383,79.586,175.382"/>
			</g>
		</g>
		<polygon clip-path="url(#SVGID_4_)" fill="#FFD200" points="86.559,207.202 68.573,222.985 116.217,222.985 96.648,207.202 		"/>
		<path clip-path="url(#SVGID_4_)" fill="#E6E6E6" d="M173.707,6.77c4.176,0,7.563,3.385,7.563,7.562
			c0,4.176-3.387,7.562-7.563,7.562s-7.562-3.386-7.562-7.562C166.145,10.155,169.531,6.77,173.707,6.77"/>
		<g opacity="0.45" clip-path="url(#SVGID_4_)" enable-background="new    ">
			<g>
				<defs>
					<rect id="SVGID_31_" x="190.546" y="7.907" width="21.315" height="29.607"/>
				</defs>
				<clipPath id="SVGID_32_">
					<use xlink:href="#SVGID_31_"  overflow="visible"/>
				</clipPath>
				<rect x="190.546" y="7.907" clip-path="url(#SVGID_32_)" fill="#C1C1C1" width="21.314" height="29.607"/>
			</g>
		</g>
		<rect x="167.444" y="27.587" clip-path="url(#SVGID_4_)" fill="#C1C1C1" width="14.646" height="9.927"/>
		<g opacity="0.09" clip-path="url(#SVGID_4_)" enable-background="new    ">
			<g>
				<defs>
					<rect id="SVGID_33_" x="182.081" y="190.606" width="47.867" height="27.577"/>
				</defs>
				<clipPath id="SVGID_34_">
					<use xlink:href="#SVGID_33_"  overflow="visible"/>
				</clipPath>
				<rect x="182.081" y="190.605" clip-path="url(#SVGID_34_)" width="47.867" height="27.578"/>
			</g>
		</g>
	</g>
</g>
</svg>
