<?xml version="1.0" encoding="utf-8"?>
<!-- Generator: Adobe Illustrator 16.0.0, SVG Export Plug-In . SVG Version: 6.00 Build 0)  -->
<!DOCTYPE svg PUBLIC "-//W3C//DTD SVG 1.1//EN" "http://www.w3.org/Graphics/SVG/1.1/DTD/svg11.dtd">
<svg version="1.1" id="Layer_1" xmlns="http://www.w3.org/2000/svg" xmlns:xlink="http://www.w3.org/1999/xlink" x="0px" y="0px"
	 width="394.532px" height="320.311px" viewBox="0 0 394.532 320.311" enable-background="new 0 0 394.532 320.311"
	 xml:space="preserve">
<g>
	<defs>
		<rect id="SVGID_1_" width="394.532" height="320.311"/>
	</defs>
	<clipPath id="SVGID_2_">
		<use xlink:href="#SVGID_1_"  overflow="visible"/>
	</clipPath>
	<linearGradient id="SVGID_3_" gradientUnits="userSpaceOnUse" x1="4.882813e-004" y1="160.1558" x2="394.5322" y2="160.1558">
		<stop  offset="0" style="stop-color:#F4FDF2"/>
		<stop  offset="1" style="stop-color:#C6F2BA"/>
	</linearGradient>
	<path clip-path="url(#SVGID_2_)" fill="url(#SVGID_3_)" d="M394.468,52.961c-0.423-6.206-3.019-12.116-6.565-17.225
		c-14.688-21.15-42.819-27.386-68.375-30.533C224.749-6.471,127.653,1.634,35.921,28.171c-10.385,3.004-21.108,6.512-29.772,12.715
		c-1.327,2.262-2.48,4.227-3.806,6.489c-7.846,74.566,3.1,153.708,46.804,214.456c8.486,11.796,18.188,22.845,29.763,31.63
		c17.321,13.147,38.32,20.804,59.683,24.857c9.838,1.866,20.054,2.996,29.811,0.746c9.942-2.293,18.747-7.935,27.167-13.697
		c74.241-50.827,136.251-119.391,179.389-198.349c6.729-12.317,13.038-24.958,17.106-38.39
		C393.606,63.543,394.83,58.262,394.468,52.961"/>
</g>
</svg>
