<?xml version="1.0" encoding="utf-8"?>
<!-- Generator: Adobe Illustrator 16.0.0, SVG Export Plug-In . SVG Version: 6.00 Build 0)  -->
<!DOCTYPE svg PUBLIC "-//W3C//DTD SVG 1.1//EN" "http://www.w3.org/Graphics/SVG/1.1/DTD/svg11.dtd">
<svg version="1.1" id="Layer_1" xmlns="http://www.w3.org/2000/svg" xmlns:xlink="http://www.w3.org/1999/xlink" x="0px" y="0px"
	 width="740.331px" height="591.871px" viewBox="0 0 740.331 591.871" enable-background="new 0 0 740.331 591.871"
	 xml:space="preserve">
<g>
	<defs>
		<rect id="SVGID_1_" x="12" width="728.331" height="581.871"/>
	</defs>
	<clipPath id="SVGID_2_">
		<use xlink:href="#SVGID_1_"  overflow="visible"/>
	</clipPath>
	<linearGradient id="SVGID_3_" gradientUnits="userSpaceOnUse" x1="168.5469" y1="500.957" x2="666.5559" y2="83.0778">
		<stop  offset="0" style="stop-color:#FFFFFF"/>
		<stop  offset="1" style="stop-color:#E5F1CB"/>
	</linearGradient>
	<path clip-path="url(#SVGID_2_)" fill="url(#SVGID_3_)" d="M65.316,377.932c72.262,44.145,135.784,102.301,211.27,140.677
		c32.035,16.285,66.569,28.969,102.45,30.994c42.237,2.384,84.155-10.152,122.288-28.468
		c44.409-21.329,85.465-51.178,114.797-90.759c50.113-67.62,61.351-155.729,67.498-239.671c2.542-34.708,3.96-71.836-13.772-101.78
		c-10.429-17.611-26.675-31.085-43.981-42.01c-55.95-35.319-126.577-46.519-190.708-30.24
		c-47.638,12.091-90.408,38.165-131.445,65.212c-40.687,26.818-80.868,55.274-113.622,91.354
		c-23.448,25.831-42.705,55.153-60.869,84.938c-24.646,40.415-43.234,74.105-64.158,116.567"/>
</g>
</svg>
