<?xml version="1.0" encoding="utf-8"?>
<!-- Generator: Adobe Illustrator 16.0.0, SVG Export Plug-In . SVG Version: 6.00 Build 0)  -->
<!DOCTYPE svg PUBLIC "-//W3C//DTD SVG 1.1//EN" "http://www.w3.org/Graphics/SVG/1.1/DTD/svg11.dtd">
<svg version="1.1" id="Layer_1" xmlns="http://www.w3.org/2000/svg" xmlns:xlink="http://www.w3.org/1999/xlink" x="0px" y="0px"
	 width="21.889px" height="21.928px" viewBox="0 0 21.889 21.928" enable-background="new 0 0 21.889 21.928" xml:space="preserve">
<g>
	<defs>
		<rect id="SVGID_1_" width="21.889" height="21.928"/>
	</defs>
	<clipPath id="SVGID_2_">
		<use xlink:href="#SVGID_1_"  overflow="visible"/>
	</clipPath>
	
		<path clip-path="url(#SVGID_2_)" fill="none" stroke="#000000" stroke-width="2" stroke-linecap="round" stroke-linejoin="round" d="
		M20.889,15.92v3c0.005,1.104-0.889,2.004-1.992,2.008c-0.063,0.001-0.125-0.002-0.188-0.008c-3.077-0.334-6.033-1.387-8.63-3.07
		c-2.416-1.535-4.465-3.583-6-6c-1.69-2.609-2.742-5.579-3.07-8.67C0.909,2.08,1.72,1.107,2.82,1.008C2.879,1.003,2.938,1,2.998,1h3
		c1.004-0.01,1.86,0.726,2,1.72c0.127,0.96,0.362,1.903,0.7,2.81c0.275,0.731,0.099,1.555-0.45,2.11l-1.27,1.27
		c1.424,2.504,3.497,4.576,6,6l1.27-1.27c0.555-0.549,1.379-0.726,2.11-0.449c0.907,0.337,1.85,0.573,2.81,0.699
		C20.173,14.032,20.913,14.905,20.889,15.92z"/>
</g>
</svg>
