<?xml version="1.0" encoding="utf-8"?>
<!-- Generator: Adobe Illustrator 16.0.0, SVG Export Plug-In . SVG Version: 6.00 Build 0)  -->
<!DOCTYPE svg PUBLIC "-//W3C//DTD SVG 1.1//EN" "http://www.w3.org/Graphics/SVG/1.1/DTD/svg11.dtd">
<svg version="1.1" id="Layer_1" xmlns="http://www.w3.org/2000/svg" xmlns:xlink="http://www.w3.org/1999/xlink" x="0px" y="0px"
	 width="294.404px" height="228.825px" viewBox="0 0 294.404 228.825" enable-background="new 0 0 294.404 228.825"
	 xml:space="preserve">
<g>
	<defs>
		<rect id="SVGID_1_" width="294.404" height="228.825"/>
	</defs>
	<clipPath id="SVGID_2_">
		<use xlink:href="#SVGID_1_"  overflow="visible"/>
	</clipPath>
	<g clip-path="url(#SVGID_2_)">
		<defs>
			<path id="SVGID_3_" d="M0,214.076c0,8.146,65.359,14.749,145.983,14.749c80.625,0,145.982-6.603,145.982-14.749
				c0-8.145-65.357-14.749-145.982-14.749C65.359,199.327,0,205.932,0,214.076"/>
		</defs>
		<clipPath id="SVGID_4_">
			<use xlink:href="#SVGID_3_"  overflow="visible"/>
		</clipPath>
		<defs>
			<filter id="Adobe_OpacityMaskFilter" filterUnits="userSpaceOnUse" x="0" y="199.327" width="291.965" height="29.498">
				<feColorMatrix  type="matrix" values="1 0 0 0 0  0 1 0 0 0  0 0 1 0 0  0 0 0 1 0"/>
			</filter>
		</defs>
		<mask maskUnits="userSpaceOnUse" x="0" y="199.327" width="291.965" height="29.498" id="SVGID_5_">
			<g filter="url(#Adobe_OpacityMaskFilter)">
				
					<linearGradient id="SVGID_6_" gradientUnits="userSpaceOnUse" x1="0" y1="228.8252" x2="1" y2="228.8252" gradientTransform="matrix(0 113.6152 113.6152 0 -25852.0098 125.8252)">
					<stop  offset="0" style="stop-color:#FFFFFF"/>
					<stop  offset="0.01" style="stop-color:#FFFFFF"/>
					<stop  offset="0.08" style="stop-color:#B0B0B0"/>
					<stop  offset="0.21" style="stop-color:#525252"/>
					<stop  offset="1" style="stop-color:#000000"/>
				</linearGradient>
				<rect y="199.327" clip-path="url(#SVGID_4_)" fill="url(#SVGID_6_)" width="291.965" height="29.498"/>
			</g>
		</mask>
		
			<linearGradient id="SVGID_7_" gradientUnits="userSpaceOnUse" x1="0" y1="228.8252" x2="1" y2="228.8252" gradientTransform="matrix(0 113.6152 113.6152 0 -25852.0098 125.8252)">
			<stop  offset="0" style="stop-color:#000000"/>
			<stop  offset="0.01" style="stop-color:#000000"/>
			<stop  offset="0.08" style="stop-color:#000000"/>
			<stop  offset="0.21" style="stop-color:#000000"/>
			<stop  offset="1" style="stop-color:#000000"/>
		</linearGradient>
		<rect y="199.327" clip-path="url(#SVGID_4_)" mask="url(#SVGID_5_)" fill="url(#SVGID_7_)" width="291.965" height="29.498"/>
	</g>
	<g clip-path="url(#SVGID_2_)">
		<defs>
			<rect id="SVGID_8_" width="294.404" height="228.825"/>
		</defs>
		<clipPath id="SVGID_9_">
			<use xlink:href="#SVGID_8_"  overflow="visible"/>
		</clipPath>
		<path clip-path="url(#SVGID_9_)" fill="#FFFFFF" d="M205.4,34.805c0.605,0.502,1.332,0.839,2.105,0.979
			c0.714,0.03,1.426-0.097,2.086-0.372l10.087-3.359c1.575,1.235,1.939,3.473,0.833,5.142c-0.984,1.097-2.272,1.878-3.702,2.242
			l-6.924,2.488c-3.236,1.521-6.988,1.496-10.205-0.068c-2.065-0.686-4.329-1.538-5.317-3.477c-0.989-1.939-0.275-4.515-0.567-6.787
			c-0.197-1.479-0.853-2.938-0.813-4.388c0-1.273,1.037-3.192,2.565-2.938c1.313,0.225,2.185,2.507,2.879,3.467
			C200.371,30.438,202.723,32.825,205.4,34.805"/>
		<path clip-path="url(#SVGID_9_)" fill="#FDB9A9" d="M220.992,31.504c0.113-0.269,0.276-0.514,0.479-0.725
			c0.211-0.211,0.527-0.276,0.804-0.166c0.272,0.166,0.421,0.476,0.383,0.793c-0.016,0.106,0.01,0.214,0.067,0.304
			c0.1,0.049,0.215,0.049,0.314,0c1.154-0.216,2.311-0.392,3.476-0.51c0.095-0.009,0.19-0.009,0.285,0
			c0.403,0.123,0.63,0.551,0.507,0.954c-0.003,0.009-0.004,0.017-0.007,0.026c-0.127,0.384-0.316,0.744-0.559,1.067
			c-0.599,0.98-0.813,2.253-1.764,2.88c-0.59,0.345-1.278,0.486-1.959,0.401c-0.666,0-1.321-0.156-1.959-0.127
			c-0.439,0.097-0.9,0.049-1.312-0.137c-0.305-0.231-0.474-0.598-0.45-0.98c0.069-0.601,0.285-1.176,0.627-1.675
			C220.258,32.924,220.6,32.219,220.992,31.504"/>
		<path clip-path="url(#SVGID_9_)" fill="#FDB9A9" d="M192.797,107.483c3.867-0.872,3.113,4.613,4.133,6.64
			c0.636,1.04,1.438,1.967,2.38,2.742c0.952,0.782,1.574,1.894,1.743,3.114c0.018,0.228-0.029,0.455-0.139,0.656
			c-0.188,0.245-0.46,0.412-0.764,0.47c-2.208,0.637-4.579,0.402-6.62-0.656c-0.95-0.46-1.741-1.192-2.271-2.105
			c-0.418-0.986-0.618-2.053-0.588-3.124C190.632,112.938,189.573,108.208,192.797,107.483"/>
		<path clip-path="url(#SVGID_9_)" fill="#1D92DD" d="M196.215,118.745c0,0,11.008,0.471,6.346,3.918
			c-4.661,3.447-11.616-0.843-12.291-1.636c-0.676-0.793-0.127-2.135-0.127-2.135L196.215,118.745z"/>
		<path clip-path="url(#SVGID_9_)" fill="#FFFFFF" d="M190.75,120.283c0.979,1.194,6.149,2.801,8.432,2.645
			c2.282-0.157,4.339-1.234,4.113-2.713c-0.226-1.479-4.261-4.897-5.024-4.897s-1.361,1.764-2.938,2.126
			c-1.388,0.228-2.794-0.276-3.723-1.332c-0.275-0.408-0.813-0.547-1.253-0.323C189.749,117.261,189.896,118.938,190.75,120.283"/>
		<path clip-path="url(#SVGID_9_)" fill="#FDB9A9" d="M179.536,109.647c3.917-0.892,3.113,4.583,4.133,6.62
			c0.634,1.044,1.441,1.972,2.389,2.742c0.949,0.784,1.568,1.896,1.734,3.114c0.023,0.228-0.025,0.457-0.138,0.656
			c-0.186,0.246-0.46,0.41-0.765,0.461c-2.207,0.645-4.579,0.413-6.62-0.646c-0.95-0.46-1.741-1.193-2.271-2.105
			c-0.419-0.986-0.616-2.054-0.577-3.125C177.333,115.054,176.313,110.333,179.536,109.647"/>
		<path clip-path="url(#SVGID_9_)" fill="#1D92DD" d="M182.964,120.881c0,0,10.998,0.46,6.336,3.917
			c-4.661,3.457-11.614-0.842-12.29-1.626c-0.676-0.783-0.128-2.146-0.128-2.146L182.964,120.881z"/>
		<path clip-path="url(#SVGID_9_)" fill="#FFFFFF" d="M177.489,122.379c0.979,1.205,6.149,2.801,8.433,2.645
			c2.281-0.157,4.338-1.234,4.113-2.713c-0.227-1.479-4.262-4.896-5.016-4.896s-1.371,1.763-2.938,2.125
			c-1.388,0.228-2.794-0.275-3.722-1.332c-0.275-0.403-0.807-0.541-1.243-0.323C176.503,119.354,176.641,121.03,177.489,122.379"/>
		<path clip-path="url(#SVGID_9_)" fill="#473F47" d="M189.506,59.759l-5.172,54.384l-7.442-0.921
			c-2.938-13.27-2.224-52.973-2.224-52.973L189.506,59.759z"/>
		<path clip-path="url(#SVGID_9_)" fill="#473F47" d="M184.335,58.29l5.171,54.384l7.463-0.921
			c4.26-34.415,0.754-55.823,0.754-55.823L184.335,58.29z"/>
		<path clip-path="url(#SVGID_9_)" fill="#FFFFFF" d="M197.066,38.615c0.088-0.979,0.353-1.959,0.461-2.997
			c0.243-2.052,0.205-4.128-0.118-6.17c-0.356-2.174-1.016-4.287-1.959-6.278c-0.862-1.733-2.419-2.468-4.162-3.32
			c-1.462-0.794-3.048-1.333-4.691-1.596c-1.159-0.107-2.328-0.041-3.468,0.196c-3.505,0.666-8.137,2.478-10.537,5.249
			c-1.802,2.077-1.959,5.054-2.065,7.835c-0.079,3.8,0,7.597,0.233,11.39c0,0.558,0.07,1.107,0.109,1.655
			c0.196,4.209,0.822,8.386,1.87,12.467c0.372,1.264,0.764,2.527,1.959,3.203c2.752,1.596,6.953,0.724,9.921,0.303
			c3.917-0.558,7.98-1.136,11.468-3.045c0.733-0.313,1.326-0.885,1.665-1.606c0.17-0.895,0.053-1.821-0.333-2.645
			c-1.185-3.917-0.265-7.972-0.265-11.938c0-0.715-0.088-1.45-0.088-2.174C197.051,38.968,197.051,38.791,197.066,38.615"/>
		<g opacity="0.1" clip-path="url(#SVGID_9_)" enable-background="new    ">
			<g>
				<defs>
					<rect id="SVGID_10_" x="171.525" y="36.356" width="26.917" height="23.892"/>
				</defs>
				<clipPath id="SVGID_11_">
					<use xlink:href="#SVGID_10_"  overflow="visible"/>
				</clipPath>
				<path clip-path="url(#SVGID_11_)" fill="#020202" d="M186.059,56.879c0.029-0.42-0.076-0.839-0.305-1.195
					c-0.439-0.548-1.293-0.43-1.959-0.254l-4.436,1.096c-1.664,0.412-4.24,2.057-4.671,3.722c-1.704-1.195-2.146-3.202-2.458-5.259
					c-0.314-2.057-0.333-6.062-0.705-8.109c2.148,1.547,4.708,2.426,7.354,2.527c2.518,0.058,5.682,0,6.591-2.752
					c1.049-3.173,1.421-6.503,2.115-9.794c0.019-0.157,0.091-0.303,0.206-0.411c0.116-0.077,0.255-0.109,0.393-0.089l9.567,0.108
					c0.149-0.013,0.297,0.014,0.432,0.079c0.283,0.166,0.283,0.568,0.234,0.881c-0.358,2.162-1.443,4.138-3.075,5.602
					c-0.743,0.492-1.263,1.261-1.438,2.135c-0.177,1.195-0.127,2.468-0.255,3.672c-0.207,2.552-0.765,5.063-1.655,7.463
					C190.631,59.758,186.313,62.422,186.059,56.879"/>
			</g>
		</g>
		<polygon clip-path="url(#SVGID_9_)" fill="#1D92DD" points="188.664,59.631 202.902,59.631 204.666,37.499 190.427,37.499 		"/>
		<path clip-path="url(#SVGID_9_)" fill="#FDB9A9" d="M189.486,12.789c-0.009-1.041-0.07-2.081-0.188-3.114
			c-0.107-0.98-0.244-1.822-0.42-2.713c-0.019-0.54-0.274-1.045-0.696-1.381c-1.396-0.852-3.006-1.292-4.641-1.273
			c-1.251-0.08-2.479,0.363-3.389,1.224c-0.578,0.703-0.922,1.57-0.98,2.478c-0.254,2.281,0.343,4.553,0.676,6.855
			c0.258,1.76,0.351,3.541,0.275,5.318c0.861,0.556,1.846,0.892,2.869,0.98c0.479-0.008,0.956-0.09,1.41-0.246
			c0.39-0.007,0.698-0.328,0.691-0.717c-0.002-0.09-0.02-0.179-0.055-0.262c-0.01-0.186-0.01-0.372,0-0.558
			c-0.078-1.041-0.06-2.087,0.058-3.124c0-0.087,0.032-0.171,0.088-0.235c0.071-0.02,0.146-0.02,0.217,0h0.294
			c0.518,0.049,1.039,0.049,1.557,0c0.62-0.067,1.193-0.356,1.616-0.813C189.385,14.515,189.606,13.645,189.486,12.789"/>
		<path clip-path="url(#SVGID_9_)" fill="#473F47" d="M187.381,6.12c0.371,0.068,0.686,0.196,0.979,0
			c0.331-0.286,0.621-0.616,0.862-0.979c0.577-0.775,0.86-1.729,0.804-2.694c-0.01-0.434-0.138-0.858-0.374-1.224
			c-0.262-0.32-0.598-0.572-0.978-0.734c-0.75-0.363-1.579-0.528-2.409-0.48c-1.21,0.157-2.339,0.696-3.224,1.537
			c-0.185,0.198-0.413,0.352-0.666,0.451c-0.231,0.049-0.473,0.049-0.705,0c-1.535-0.133-3.063,0.338-4.26,1.312
			c-0.613,0.663-1.268,1.288-1.959,1.871c-0.763,0.519-1.39,0.724-1.762,1.38c-0.306,0.642-0.223,1.4,0.214,1.959
			c0.459,0.518,1.081,0.864,1.764,0.979c-0.313,0.812,0.091,1.723,0.9,2.038h0.08c0.278,0.039,0.546,0.128,0.793,0.264
			c0.166,0.128,0.245,0.333,0.411,0.47c0.4,0.324,0.921,0.441,1.087,0.979c0.047,0.239,0.07,0.482,0.068,0.725
			c0.025,0.363,0.171,0.708,0.411,0.979c0.156,0.167,0.432,0.598,0.666,0.637c0.234,0.039,0.432-0.225,0.51-0.46
			c0.281-1.032,0.207-2.131-0.217-3.114c-0.294-0.481-0.469-1.025-0.509-1.587c0.06-0.548,0.813-0.979,1.175-0.666
			c0.362,0.314,0.433,1.127,0.872,0.98c-0.562-1.623,0.151-3.412,1.676-4.202c0.814-0.249,1.663-0.368,2.517-0.353
			c0.407-0.08,0.819-0.126,1.234-0.137L187.381,6.12z"/>
		<path clip-path="url(#SVGID_9_)" fill="#DE9F93" d="M185.735,15.991c-1.205-0.229-2.385-0.584-3.517-1.058
			c-0.207,1.971,0.995,3.818,2.879,4.427c-0.069-1.041-0.047-2.087,0.069-3.124c-0.002-0.087,0.029-0.171,0.089-0.235
			c0.068-0.03,0.146-0.03,0.214,0h0.266V15.991z"/>
		<path clip-path="url(#SVGID_9_)" fill="#FFFFFF" d="M168.107,36.734l-1.694,7.423c-0.633,1.816-0.025,3.833,1.507,4.995
			c0.962,1.282,2.175,2.355,3.565,3.154c0.968,0.428,1.995,0.705,3.046,0.822c2.77,0.422,5.574,0.577,8.374,0.46
			c0.222,0.008,0.442-0.036,0.646-0.127c0.202-0.123,0.369-0.3,0.48-0.509c0.986-1.478,1.833-3.045,2.525-4.681
			c-2.246-1.515-4.714-2.671-7.314-3.428c-0.525-0.099-1.012-0.34-1.41-0.695c-0.267-0.328-0.443-0.72-0.51-1.137
			c-1.098-4.749,1.45-10.038-0.598-14.465c-1.155-2.517-3.634-5.229-5.455-1.851C169.615,29.771,168.88,33.355,168.107,36.734"/>
		<path clip-path="url(#SVGID_9_)" fill="#FDB9A9" d="M188.497,48.33c0.307-0.235,0.635-0.441,0.979-0.617
			c0.342-0.186,0.755-0.186,1.097,0c0.157,0.108,0.275,0.284,0.451,0.343c0.122,0.029,0.249,0.029,0.372,0l2.262-0.226
			c0.362-0.089,0.746-0.006,1.038,0.226c0.294,0.343,0.118,0.862-0.077,1.253c-0.591,1.181-1.243,2.329-1.96,3.438
			c-0.135,0.223-0.3,0.428-0.488,0.607c-0.263,0.197-0.563,0.333-0.882,0.402c-1.167,0.27-2.386,0.22-3.525-0.147
			c-1.133-0.371-2.188-0.945-3.115-1.695c-0.14-0.091-0.26-0.211-0.352-0.352c-0.091-0.166-0.146-0.35-0.157-0.539
			c-0.108-0.871,0.167-2.291,1.302-2.223C186.482,49.004,187.563,48.838,188.497,48.33"/>
		<rect x="235.741" y="78.347" clip-path="url(#SVGID_9_)" fill="#1D92DD" width="48.058" height="135.729"/>
		<rect x="159.577" y="122.957" clip-path="url(#SVGID_9_)" fill="#1D92DD" width="48.057" height="91.119"/>
		<rect x="87.329" y="154.354" clip-path="url(#SVGID_9_)" fill="#1D92DD" width="48.057" height="59.722"/>
	</g>
	<g clip-path="url(#SVGID_2_)">
		<defs>
			<rect id="SVGID_12_" x="235.741" y="78.347" width="48.058" height="135.729"/>
		</defs>
		<clipPath id="SVGID_13_">
			<use xlink:href="#SVGID_12_"  overflow="visible"/>
		</clipPath>
		<defs>
			<filter id="Adobe_OpacityMaskFilter_1_" filterUnits="userSpaceOnUse" x="233.264" y="77.47" width="53.013" height="137.483">
				<feColorMatrix  type="matrix" values="1 0 0 0 0  0 1 0 0 0  0 0 1 0 0  0 0 0 1 0"/>
			</filter>
		</defs>
		<mask maskUnits="userSpaceOnUse" x="233.264" y="77.47" width="53.013" height="137.483" id="SVGID_14_">
			<g filter="url(#Adobe_OpacityMaskFilter_1_)">
				
					<linearGradient id="SVGID_15_" gradientUnits="userSpaceOnUse" x1="0" y1="228.8262" x2="1" y2="228.8262" gradientTransform="matrix(7.071 387.2866 387.2866 -7.071 -88364.4375 1584.5922)">
					<stop  offset="0" style="stop-color:#FFFFFF"/>
					<stop  offset="0.01" style="stop-color:#FFFFFF"/>
					<stop  offset="0.08" style="stop-color:#B0B0B0"/>
					<stop  offset="0.21" style="stop-color:#525252"/>
					<stop  offset="1" style="stop-color:#000000"/>
				</linearGradient>
				<polygon clip-path="url(#SVGID_13_)" fill="url(#SVGID_15_)" points="283.783,77.47 286.276,214.031 235.757,214.953 
					233.264,78.393 				"/>
			</g>
		</mask>
		
			<linearGradient id="SVGID_16_" gradientUnits="userSpaceOnUse" x1="0" y1="228.8262" x2="1" y2="228.8262" gradientTransform="matrix(7.071 387.2866 387.2866 -7.071 -88364.4375 1584.5924)">
			<stop  offset="0" style="stop-color:#000000"/>
			<stop  offset="0.01" style="stop-color:#000000"/>
			<stop  offset="0.08" style="stop-color:#000000"/>
			<stop  offset="0.21" style="stop-color:#000000"/>
			<stop  offset="1" style="stop-color:#000000"/>
		</linearGradient>
		<polygon clip-path="url(#SVGID_13_)" mask="url(#SVGID_14_)" fill="url(#SVGID_16_)" points="283.783,77.47 286.276,214.031 
			235.757,214.953 233.264,78.393 		"/>
	</g>
	<g clip-path="url(#SVGID_2_)">
		<defs>
			<rect id="SVGID_17_" x="159.576" y="122.957" width="48.057" height="91.119"/>
		</defs>
		<clipPath id="SVGID_18_">
			<use xlink:href="#SVGID_17_"  overflow="visible"/>
		</clipPath>
		<defs>
			<filter id="Adobe_OpacityMaskFilter_2_" filterUnits="userSpaceOnUse" x="157.914" y="122.081" width="51.381" height="92.871">
				<feColorMatrix  type="matrix" values="1 0 0 0 0  0 1 0 0 0  0 0 1 0 0  0 0 0 1 0"/>
			</filter>
		</defs>
		<mask maskUnits="userSpaceOnUse" x="157.914" y="122.081" width="51.381" height="92.871" id="SVGID_19_">
			<g filter="url(#Adobe_OpacityMaskFilter_2_)">
				
					<linearGradient id="SVGID_20_" gradientUnits="userSpaceOnUse" x1="0" y1="228.8252" x2="1" y2="228.8252" gradientTransform="matrix(6.689 366.7103 366.7103 -6.689 -83732.3047 1511.6863)">
					<stop  offset="0" style="stop-color:#FFFFFF"/>
					<stop  offset="0.01" style="stop-color:#FFFFFF"/>
					<stop  offset="0.08" style="stop-color:#B0B0B0"/>
					<stop  offset="0.21" style="stop-color:#525252"/>
					<stop  offset="1" style="stop-color:#000000"/>
				</linearGradient>
				<polygon clip-path="url(#SVGID_18_)" fill="url(#SVGID_20_)" points="207.617,122.081 209.295,214.046 159.592,214.952 
					157.914,122.987 				"/>
			</g>
		</mask>
		
			<linearGradient id="SVGID_21_" gradientUnits="userSpaceOnUse" x1="0" y1="228.8252" x2="1" y2="228.8252" gradientTransform="matrix(6.689 366.7103 366.7103 -6.689 -83732.3047 1511.6862)">
			<stop  offset="0" style="stop-color:#000000"/>
			<stop  offset="0.01" style="stop-color:#000000"/>
			<stop  offset="0.08" style="stop-color:#000000"/>
			<stop  offset="0.21" style="stop-color:#000000"/>
			<stop  offset="1" style="stop-color:#000000"/>
		</linearGradient>
		<polygon clip-path="url(#SVGID_18_)" mask="url(#SVGID_19_)" fill="url(#SVGID_21_)" points="207.617,122.081 209.295,214.046 
			159.592,214.952 157.914,122.987 		"/>
	</g>
	<g clip-path="url(#SVGID_2_)">
		<defs>
			<rect id="SVGID_22_" x="87.329" y="154.355" width="48.057" height="59.721"/>
		</defs>
		<clipPath id="SVGID_23_">
			<use xlink:href="#SVGID_22_"  overflow="visible"/>
		</clipPath>
		<defs>
			<filter id="Adobe_OpacityMaskFilter_3_" filterUnits="userSpaceOnUse" x="86.24" y="153.479" width="50.234" height="61.473">
				<feColorMatrix  type="matrix" values="1 0 0 0 0  0 1 0 0 0  0 0 1 0 0  0 0 0 1 0"/>
			</filter>
		</defs>
		<mask maskUnits="userSpaceOnUse" x="86.24" y="153.479" width="50.234" height="61.473" id="SVGID_24_">
			<g filter="url(#Adobe_OpacityMaskFilter_3_)">
				
					<linearGradient id="SVGID_25_" gradientUnits="userSpaceOnUse" x1="0" y1="228.8252" x2="1" y2="228.8252" gradientTransform="matrix(6.6205 363.0573 363.0573 -6.6205 -82968.8984 1499.7572)">
					<stop  offset="0" style="stop-color:#FFFFFF"/>
					<stop  offset="0.01" style="stop-color:#FFFFFF"/>
					<stop  offset="0.08" style="stop-color:#B0B0B0"/>
					<stop  offset="0.21" style="stop-color:#525252"/>
					<stop  offset="1" style="stop-color:#000000"/>
				</linearGradient>
				<polygon clip-path="url(#SVGID_23_)" fill="url(#SVGID_25_)" points="135.37,153.479 136.475,214.057 87.345,214.952 
					86.24,154.375 				"/>
			</g>
		</mask>
		
			<linearGradient id="SVGID_26_" gradientUnits="userSpaceOnUse" x1="0" y1="228.8232" x2="1" y2="228.8232" gradientTransform="matrix(6.6205 363.0573 363.0573 -6.6205 -82968.9063 1499.7573)">
			<stop  offset="0" style="stop-color:#000000"/>
			<stop  offset="0.01" style="stop-color:#000000"/>
			<stop  offset="0.08" style="stop-color:#000000"/>
			<stop  offset="0.21" style="stop-color:#000000"/>
			<stop  offset="1" style="stop-color:#000000"/>
		</linearGradient>
		<polygon clip-path="url(#SVGID_23_)" mask="url(#SVGID_24_)" fill="url(#SVGID_26_)" points="135.37,153.479 136.475,214.057 
			87.345,214.952 86.24,154.375 		"/>
	</g>
	<g clip-path="url(#SVGID_2_)">
		<defs>
			<rect id="SVGID_27_" width="294.404" height="228.825"/>
		</defs>
		<clipPath id="SVGID_28_">
			<use xlink:href="#SVGID_27_"  overflow="visible"/>
		</clipPath>
		<path clip-path="url(#SVGID_28_)" fill="#1D92DD" d="M47.714,114.563c2.36-2.781,5.621-1.342,8.217,0.216
			c1.4,0.832,2.487,2.351,3.721,3.447c1.456,1.3,3.008,2.488,4.643,3.555c0.344,0.236,0.707,0.442,1.086,0.617
			c0.748,0.294,1.532,0.481,2.331,0.559l5.348,0.744c1.688,0.316,3.411,0.398,5.122,0.245c0.959-0.245,1.95-0.334,2.938-0.265
			c1.42,0.255,1.753,1.371,1.89,2.614c0.137,1.244,0.264,1.499-0.823,1.959c-1.48,0.376-2.991,0.615-4.515,0.715
			c-1.41,0.255-2.82,0.539-4.211,0.901c-1.308,0.4-2.653,0.666-4.015,0.793c-3.036,0.147-5.877-1.352-8.54-2.801l-10.107-5.504
			C48.135,120.891,45.177,117.57,47.714,114.563"/>
	</g>
	<g clip-path="url(#SVGID_2_)">
		<defs>
			<path id="SVGID_29_" d="M47.714,114.564c-2.536,3.006,0.422,6.328,3.086,7.796l10.107,5.503c2.663,1.449,5.503,2.948,8.54,2.801
				c1.361-0.127,2.706-0.393,4.015-0.793c1.39-0.363,2.8-0.646,4.211-0.902c1.523-0.099,3.035-0.338,4.515-0.714
				c1.086-0.46,0.959-0.715,0.823-1.959c-0.138-1.244-0.471-2.359-1.89-2.613c-0.988-0.07-1.98,0.019-2.939,0.264
				c-1.71,0.153-3.434,0.071-5.122-0.245l-5.348-0.744c-0.799-0.077-1.583-0.265-2.33-0.559c-0.379-0.174-0.743-0.38-1.087-0.617
				c-1.635-1.067-3.187-2.255-4.643-3.554c-1.234-1.098-2.32-2.616-3.721-3.448c-1.526-0.916-3.282-1.791-4.951-1.791
				C49.812,112.988,48.686,113.418,47.714,114.564"/>
		</defs>
		<clipPath id="SVGID_30_">
			<use xlink:href="#SVGID_29_"  overflow="visible"/>
		</clipPath>
		<defs>
			<filter id="Adobe_OpacityMaskFilter_4_" filterUnits="userSpaceOnUse" x="37.305" y="96.159" width="53.843" height="51.482">
				<feColorMatrix  type="matrix" values="1 0 0 0 0  0 1 0 0 0  0 0 1 0 0  0 0 0 1 0"/>
			</filter>
		</defs>
		<mask maskUnits="userSpaceOnUse" x="37.305" y="96.159" width="53.843" height="51.482" id="SVGID_31_">
			<g filter="url(#Adobe_OpacityMaskFilter_4_)">
				
					<linearGradient id="SVGID_32_" gradientUnits="userSpaceOnUse" x1="0" y1="228.8242" x2="1" y2="228.8242" gradientTransform="matrix(56.7733 34.16 34.16 -56.7733 -7788.9072 13091.1133)">
					<stop  offset="0" style="stop-color:#FFFFFF"/>
					<stop  offset="0.01" style="stop-color:#FFFFFF"/>
					<stop  offset="0.08" style="stop-color:#B0B0B0"/>
					<stop  offset="0.21" style="stop-color:#525252"/>
					<stop  offset="1" style="stop-color:#000000"/>
				</linearGradient>
				<polygon clip-path="url(#SVGID_30_)" fill="url(#SVGID_32_)" points="55.304,96.159 91.147,117.726 73.148,147.641 
					37.305,126.074 				"/>
			</g>
		</mask>
		
			<linearGradient id="SVGID_33_" gradientUnits="userSpaceOnUse" x1="0" y1="228.8242" x2="1" y2="228.8242" gradientTransform="matrix(56.7733 34.16 34.16 -56.7733 -7788.9072 13091.1133)">
			<stop  offset="0" style="stop-color:#000000"/>
			<stop  offset="0.01" style="stop-color:#000000"/>
			<stop  offset="0.08" style="stop-color:#000000"/>
			<stop  offset="0.21" style="stop-color:#000000"/>
			<stop  offset="1" style="stop-color:#000000"/>
		</linearGradient>
		<polygon clip-path="url(#SVGID_30_)" mask="url(#SVGID_31_)" fill="url(#SVGID_33_)" points="55.304,96.159 91.147,117.726 
			73.148,147.641 37.305,126.074 		"/>
	</g>
	<g clip-path="url(#SVGID_2_)">
		<defs>
			<rect id="SVGID_34_" width="294.404" height="228.825"/>
		</defs>
		<clipPath id="SVGID_35_">
			<use xlink:href="#SVGID_34_"  overflow="visible"/>
		</clipPath>
		<path clip-path="url(#SVGID_35_)" fill="#FCBDBA" d="M82.609,123.643c-0.343,0.195-0.882,0.215-1.175,0.509
			c-0.294,0.294-0.294,1.058-0.353,1.459c-0.068,0.291-0.03,0.597,0.108,0.862c0.098,0.121,0.217,0.225,0.352,0.304
			c0.724,0.584,1.556,1.021,2.449,1.283c1.224,0.188,2.476-0.062,3.535-0.705c1.675-0.852,2.977-2.292,3.653-4.045
			c0.147-0.441,0.186-1.048-0.235-1.264c-0.286-0.088-0.596-0.06-0.862,0.078c-1.542,0.558-3.169,0.843-4.808,0.843
			c0.168-0.391,0.192-0.828,0.068-1.234C84.234,122.026,83.559,123.035,82.609,123.643"/>
		<path clip-path="url(#SVGID_35_)" fill="#1D92DD" d="M93.568,118.148v17.628c0,1.077-0.519,1.959-1.156,1.959h-15.67
			c-0.636,0-1.145-0.872-1.145-1.959v-17.628c0-1.077,0.509-1.959,1.145-1.959h15.67C93.049,116.199,93.568,117.071,93.568,118.148"
			/>
	</g>
	<g clip-path="url(#SVGID_2_)">
		<defs>
			<path id="SVGID_36_" d="M76.742,116.189c-0.636,0-1.146,0.882-1.146,1.959v17.628c0,1.087,0.51,1.959,1.146,1.959h15.67
				c0.637,0,1.156-0.882,1.156-1.959v-17.628c0-1.077-0.519-1.949-1.156-1.959H76.742z"/>
		</defs>
		<clipPath id="SVGID_37_">
			<use xlink:href="#SVGID_36_"  overflow="visible"/>
		</clipPath>
		<defs>
			<filter id="Adobe_OpacityMaskFilter_5_" filterUnits="userSpaceOnUse" x="74.588" y="115.349" width="19.987" height="23.228">
				<feColorMatrix  type="matrix" values="1 0 0 0 0  0 1 0 0 0  0 0 1 0 0  0 0 0 1 0"/>
			</filter>
		</defs>
		<mask maskUnits="userSpaceOnUse" x="74.588" y="115.349" width="19.987" height="23.228" id="SVGID_38_">
			<g filter="url(#Adobe_OpacityMaskFilter_5_)">
				
					<linearGradient id="SVGID_39_" gradientUnits="userSpaceOnUse" x1="0" y1="228.8252" x2="1" y2="228.8252" gradientTransform="matrix(1.6453 -35.1001 -35.1001 -1.6453 8115.2954 526.2857)">
					<stop  offset="0" style="stop-color:#FFFFFF"/>
					<stop  offset="0.01" style="stop-color:#FFFFFF"/>
					<stop  offset="0.08" style="stop-color:#B0B0B0"/>
					<stop  offset="0.21" style="stop-color:#525252"/>
					<stop  offset="1" style="stop-color:#000000"/>
				</linearGradient>
				<polygon clip-path="url(#SVGID_37_)" fill="url(#SVGID_39_)" points="74.588,137.688 75.635,115.349 94.576,116.236 
					93.529,138.576 				"/>
			</g>
		</mask>
		
			<linearGradient id="SVGID_40_" gradientUnits="userSpaceOnUse" x1="0" y1="228.8252" x2="1" y2="228.8252" gradientTransform="matrix(1.6453 -35.1001 -35.1001 -1.6453 8115.2954 526.2857)">
			<stop  offset="0" style="stop-color:#000000"/>
			<stop  offset="0.01" style="stop-color:#000000"/>
			<stop  offset="0.08" style="stop-color:#000000"/>
			<stop  offset="0.21" style="stop-color:#000000"/>
			<stop  offset="1" style="stop-color:#000000"/>
		</linearGradient>
		<polygon clip-path="url(#SVGID_37_)" mask="url(#SVGID_38_)" fill="url(#SVGID_40_)" points="74.588,137.688 75.635,115.349 
			94.576,116.236 93.529,138.576 		"/>
	</g>
	<g clip-path="url(#SVGID_2_)">
		<defs>
			<rect id="SVGID_41_" width="294.404" height="228.825"/>
		</defs>
		<clipPath id="SVGID_42_">
			<use xlink:href="#SVGID_41_"  overflow="visible"/>
		</clipPath>
		<path clip-path="url(#SVGID_42_)" fill="#473F47" d="M30.997,162.592c0,0,14.964,17.628,17.628,21.095
			c2.664,3.467,2.684,23.984,2.684,23.984h6.327c0,0,0.205-20.341-1.959-27.245c-2.164-6.905-13.799-28.862-13.799-28.862
			L30.997,162.592z"/>
		<path clip-path="url(#SVGID_42_)" fill="#473F47" d="M23.759,154.981c0,0,1.958,20.303,2.723,25.601
			c0.763,5.299-13.046,23.427-13.046,23.427l5.377,2.879c0,0,9.97-11.469,13.623-17.834c3.653-6.366,10.685-34.816,10.685-34.816
			C33.484,149.693,23.759,154.981,23.759,154.981"/>
		<path clip-path="url(#SVGID_42_)" fill="#1D92DD" d="M56.117,124.622c-1.724,3.81-4.358,6.973-6.033,10.772
			c-2.36,5.377-5.759,10.077-6.346,16.101c-0.137,1.371-0.196,2.939-1.244,3.839c-0.534,0.41-1.153,0.694-1.812,0.833
			c-2.536,0.717-5.117,1.26-7.727,1.625c-1.615,0.302-3.268,0.345-4.897,0.128c-1.661-0.242-3.157-1.134-4.162-2.478
			c-0.965-1.6-1.2-3.534-0.646-5.318c0.832-3.114,2.801-5.367,5.102-7.512c2.938-2.771,4.25-8.129,5.543-11.82
			c0.911-2.605,1.763-5.23,2.635-7.835c1.057-3.184,2.781-4.976,5.044-7.473c1.37-1.778,3.107-3.241,5.092-4.289
			c4.008-1.742,8.67,0.095,10.411,4.104c0.441,1.013,0.664,2.107,0.656,3.212c-0.052,1.185-0.262,2.357-0.627,3.486
			C56.841,122.895,56.51,123.772,56.117,124.622"/>
		<path clip-path="url(#SVGID_42_)" fill="#FCBDBA" d="M57.204,93.224c-1.851-1.841-5.2-0.979-7.345-0.284
			c-0.619,0.157-1.213,0.401-1.763,0.724c-0.749,0.52-1.358,1.216-1.772,2.028c-0.509,0.856-0.842,1.805-0.98,2.791
			c-0.157,1.322-0.01,2.661,0.431,3.917c0.488,0.836,0.892,1.719,1.204,2.635c0.559,2.507,1.127,5.014,1.675,7.531
			c0.032,0.224,0.127,0.435,0.275,0.607c0.149,0.11,0.325,0.177,0.509,0.197c1.288,0.261,2.604,0.364,3.917,0.303
			c0.226,0.012,0.452-0.032,0.656-0.128c0.421-0.295,0.655-0.79,0.617-1.302c0.069-0.754-0.058-1.508,0-2.262
			c0.01-0.628,0.267-1.226,0.715-1.665c0.59-0.322,1.234-0.531,1.9-0.617c0.654-0.177,1.239-0.549,1.675-1.068
			c1.165-1.518,0.284-3.859,1.253-5.533c0.217-0.269,0.359-0.589,0.412-0.931c0-0.45-0.412-0.783-0.734-1.106
			C58.223,97.415,58.732,94.771,57.204,93.224"/>
		<path clip-path="url(#SVGID_42_)" fill="#FC682D" d="M50.397,102.371c-0.274-0.336-0.48-0.722-0.607-1.136
			c-0.142-0.436-0.524-0.749-0.979-0.803c-0.384,0.043-0.706,0.308-0.823,0.676c-0.195,0.589-0.109,1.236,0.235,1.753
			c0.341,0.509,0.754,0.968,1.224,1.361l-0.588,1.479c-0.058,0.18-0.148,0.349-0.264,0.499c-0.166,0.16-0.372,0.272-0.597,0.323
			c-0.931,0.15-1.871-0.199-2.478-0.92c-0.578-0.72-1.025-1.535-1.322-2.409l-0.98-2.537c-0.499-1.224,0.275-1.694,0.226-2.84
			c-0.051-0.186-0.134-0.361-0.245-0.519c-0.538-1.117-0.538-2.418,0-3.535c0.178-0.44,0.469-0.825,0.842-1.117
			c0.28-0.184,0.587-0.323,0.911-0.411c1.508-0.49,3.085-0.744,4.603-1.176c1.581-0.546,3.189-1.01,4.819-1.39
			c1.65-0.362,3.378-0.059,4.808,0.842c0.482,0.287,0.793,0.792,0.833,1.352c-0.088,0.477-0.333,0.911-0.696,1.234
			c-1.393,1.547-3.191,2.673-5.191,3.251c-0.979,0.284-2.565,0.274-3.143,1.313C50.33,98.854,50.583,101.029,50.397,102.371"/>
		<path clip-path="url(#SVGID_42_)" fill="#1D92DD" d="M50.025,114.75c3.183-1.782,5.729,0.705,7.62,3.065
			c0.979,1.272,1.507,3.085,2.281,4.544c0.911,1.724,1.949,3.377,3.105,4.945c0.237,0.349,0.502,0.676,0.793,0.979
			c0.586,0.538,1.245,0.99,1.959,1.342l4.74,2.566c1.474,0.885,3.062,1.563,4.721,2.018c0.976,0.106,1.928,0.371,2.82,0.783
			c1.244,0.734,1.166,1.89,0.852,3.104c-0.313,1.214-0.265,1.498-1.439,1.518c-1.518-0.18-3.018-0.484-4.486-0.91
			c-1.391-0.255-2.82-0.471-4.251-0.627c-1.366-0.086-2.721-0.306-4.044-0.656c-2.938-0.979-5.024-3.33-7.022-5.621l-7.531-8.697
			C48.205,120.812,46.598,116.669,50.025,114.75"/>
		<path clip-path="url(#SVGID_42_)" fill="#FCBDBA" d="M79.534,135.473c-0.392,0.059-0.911-0.117-1.283,0.059
			c-0.372,0.177-0.647,0.892-0.842,1.253c-0.166,0.245-0.236,0.541-0.196,0.834c0.048,0.147,0.121,0.287,0.215,0.411
			c0.478,0.798,1.106,1.498,1.851,2.057c1.079,0.607,2.339,0.812,3.555,0.577c1.869-0.203,3.595-1.098,4.838-2.507
			c0.294-0.362,0.539-0.921,0.225-1.264c-0.234-0.187-0.534-0.272-0.832-0.234c-1.642-0.016-3.27-0.317-4.809-0.892
			c0.294-0.305,0.471-0.704,0.5-1.126C81.62,134.513,80.631,135.219,79.534,135.473"/>
		<path clip-path="url(#SVGID_42_)" fill="#1D92DD" d="M13.456,204.233c1.381,0,4.711,1.264,5.387,2.518
			c0.196,0.465,0.295,0.964,0.294,1.469c0.138,1.475,0.595,2.901,1.341,4.182c0.549,0.979,1.244,2.214,0.588,3.036
			c-0.656,0.822-1.959,0.509-2.938,0.068c-3.442-1.618-6.543-3.879-9.138-6.659c-0.085-0.057-0.159-0.13-0.215-0.216
			c-0.282-0.427-0.188-0.998,0.215-1.313C10.107,206.016,11.625,204.224,13.456,204.233"/>
		<path clip-path="url(#SVGID_42_)" fill="#1D92DD" d="M51.563,207.279c1.205-0.695,4.74-1.214,5.945-0.46
			c0.401,0.303,0.735,0.687,0.979,1.126c0.86,1.194,1.961,2.195,3.232,2.938c0.979,0.549,2.184,1.293,2.027,2.341
			c-0.157,1.049-1.459,1.421-2.507,1.509c-3.803,0.311-7.63-0.115-11.272-1.254c-0.112-0.011-0.221-0.04-0.323-0.088
			c-0.457-0.224-0.646-0.774-0.423-1.231c0.001-0.001,0.001-0.002,0.001-0.003C49.526,210.501,49.947,208.19,51.563,207.279"/>
		<path clip-path="url(#SVGID_42_)" fill="#473F47" d="M78.515,63.382c0.999-1.409,2.479-2.402,4.162-2.791
			c2.142-0.601,4.439-0.263,6.317,0.93c0.234,0.213,0.536,0.334,0.852,0.343c0.199-0.051,0.384-0.148,0.539-0.284
			c1.492-1.057,3.326-1.519,5.141-1.293c2.184,0.265,3.105,1.743,4.505,3.281c0.275-0.518,0.774-0.88,1.352-0.979
			c0.57-0.098,1.153-0.098,1.723,0c0.888,0.054,1.75,0.316,2.517,0.764c1.195,0.832,1.606,2.38,2.429,3.594
			c0.058,0.118,0.166,0.205,0.294,0.235c0.118-0.011,0.226-0.068,0.304-0.156c0.226-0.321,0.475-0.625,0.744-0.912
			c0.773-0.534,1.817-0.443,2.488,0.216c0.628,0.658,1.114,1.438,1.429,2.292c0.318,0.854,0.88,1.597,1.616,2.135
			c0.567,0.303,1.184,0.499,1.822,0.578c1.848,0.244,3.556,1.115,4.838,2.467c0.587,0.685,0.91,1.557,0.911,2.459
			c-0.016,0.91-0.511,1.744-1.303,2.193c-1.861,0.98-4.133-0.979-6.15-0.421c-2.018,0.558-5.181-0.048-7.287-0.813
			c-1.704-0.626-3.515-1.449-5.259-0.979c-0.536,0.235-1.103,0.391-1.684,0.46c-0.433-0.027-0.856-0.14-1.244-0.333
			c-1.197-0.447-2.317-1.078-3.32-1.87c-1.9-1.606-2.938-4.172-5.181-5.318c-1.298-0.667-2.817-0.753-4.181-0.235
			c-0.569,0.225-1.088,0.548-1.666,0.754c-0.673,0.234-1.382,0.353-2.095,0.352c-1.774,0.155-3.526-0.479-4.789-1.733
			C77.183,66.986,77.584,64.783,78.515,63.382"/>
		<path clip-path="url(#SVGID_42_)" fill="#473F47" d="M76.047,68.798c-0.772,1.16-0.585,2.71,0.441,3.653
			c0.476,0.311,1.014,0.518,1.577,0.607l3.339,0.793l-1.244-3.388c-0.298-0.607-0.378-1.299-0.225-1.959
			c0.316-0.692,0.984-1.158,1.743-1.214c0.744-0.039,1.49-0.039,2.233,0c0.208,0.019,0.412-0.07,0.539-0.235
			c0.108-0.236-0.117-0.5-0.333-0.656C81.453,64.508,77.585,66.213,76.047,68.798"/>
		<path clip-path="url(#SVGID_42_)" fill="#FCBDBA" d="M108.679,145.442c0.206,1.156,0.087,2.346-0.343,3.438
			c-0.695,1.518-2.213,2.458-3.369,3.662c-0.255,0.209-0.402,0.522-0.401,0.853c0.091,0.302,0.352,0.521,0.666,0.558
			c0.307,0.021,0.615-0.03,0.901-0.146c1.35-0.544,2.73-1.012,4.132-1.4c0.706-0.147,1.538-0.284,1.861-0.921
			c0.177-0.537,0.146-1.121-0.088-1.636c-0.599-1.995-0.909-4.066-0.921-6.15c0.037-0.517-0.026-1.035-0.186-1.527
			c-0.33-0.705-1.17-1.009-1.875-0.678c-0.002,0-0.003,0.001-0.005,0.002c-0.205,0.095-0.384,0.239-0.519,0.421
			C107.886,142.809,108.562,144.474,108.679,145.442"/>
		<path clip-path="url(#SVGID_42_)" fill="#FCBDBA" d="M133.084,147.705c0.434,1.091,0.556,2.281,0.353,3.438
			c-0.373,1.635-1.675,2.849-2.566,4.27c-0.206,0.259-0.285,0.597-0.216,0.92c0.146,0.281,0.45,0.441,0.764,0.401
			c0.305-0.042,0.596-0.152,0.853-0.323c1.21-0.802,2.466-1.534,3.76-2.193c0.666-0.294,1.459-0.598,1.645-1.293
			c0.06-0.56-0.09-1.121-0.421-1.576c-0.99-1.847-1.713-3.826-2.145-5.877c-0.069-0.513-0.235-1.008-0.489-1.459
			c-0.466-0.613-1.338-0.74-1.959-0.284c-0.179,0.139-0.323,0.316-0.421,0.52C131.772,145.296,132.771,146.784,133.084,147.705"/>
		<path clip-path="url(#SVGID_42_)" fill="#473F47" d="M124.633,91.646c0,0-7.6,20.048-14.034,27.011
			c0.549,1.693,0.92,3.439,1.107,5.21c0.264,2.938-0.519,5.671-0.314,8.53l0.705,9.588c0,0.441,0,0.979-0.333,1.205
			c-0.235,0.12-0.502,0.164-0.764,0.127l-3.428-0.127c-1.107-5.626-2.533-11.185-4.27-16.648c-0.785-2.186-1.369-4.438-1.743-6.729
			c-0.626-5.034,2.37-10.323,4.221-14.896c1.126-2.762,2.096-6.729,4.016-9.069c1.606-1.959,4.534-1.9,7.042-2.233
			c1.887-0.245,3.719-0.811,5.415-1.675C122.95,91.458,123.84,91.347,124.633,91.646"/>
		<path clip-path="url(#SVGID_42_)" fill="#473F47" d="M129.04,90.501c0,0,0.254,21.438-3.193,30.262
			c1.125,1.382,2.109,2.871,2.938,4.446c0.61,1.313,1.105,2.676,1.479,4.074l5.014,16.767c-1.588,0.466-3.246,0.642-4.896,0.52
			l-9.49-13.604c-1.674-2.108-2.943-4.51-3.742-7.081c-1.234-5.103-0.666-24.915-0.313-25.992c0.774-2.409,3.526-3.418,5.739-4.652
			c1.665-0.92,3.162-2.115,4.427-3.535C127.571,91.03,128.139,90.432,129.04,90.501"/>
		<path clip-path="url(#SVGID_42_)" fill="#FCBDBA" d="M96.006,104.819c-0.66,2.736-2.083,5.229-4.104,7.189
			c-0.668,0.489-1.222,1.117-1.625,1.841c0.636,0,1.479,0.255,1.459,0.891c-0.021,0.19-0.088,0.371-0.196,0.529
			c-0.356,0.58-0.843,1.07-1.42,1.43c-0.306,0.15-0.574,0.368-0.783,0.637c-0.264,0.587-0.006,1.276,0.577,1.548
			c0.58,0.225,1.223,0.225,1.802,0c2.008-0.639,3.51-2.32,3.918-4.388c0.107-0.597,0.127-1.205,0.235-1.801
			c0.275-1.111,0.706-2.176,1.283-3.164c1.52-3.006,2.809-6.123,3.858-9.323c0.432-0.894,0.471-1.927,0.108-2.85
			c-0.842-1.499-3.653-2.233-4.015-0.108C96.672,99.795,96.683,102.322,96.006,104.819"/>
		<path clip-path="url(#SVGID_42_)" fill="#FCBDBA" d="M82.952,99.766c-1.393,2.44-3.447,4.436-5.925,5.759
			c-0.775,0.285-1.479,0.733-2.067,1.312c0.597,0.196,1.342,0.656,1.146,1.263c-0.07,0.177-0.184,0.333-0.333,0.451
			c-0.509,0.451-1.111,0.785-1.763,0.979c-0.353,0.049-0.689,0.184-0.979,0.392c-0.416,0.485-0.364,1.215,0.117,1.636
			c0.484,0.394,1.102,0.584,1.724,0.528c2.109-0.049,4.023-1.242,4.995-3.114c0.264-0.539,0.45-1.117,0.725-1.655
			c0.575-0.987,1.283-1.89,2.105-2.684c2.299-2.452,4.414-5.071,6.327-7.834c0.657-0.744,0.979-1.725,0.891-2.713
			c-0.382-1.675-2.88-3.164-3.819-1.224C84.998,95.124,84.303,97.553,82.952,99.766"/>
		<path clip-path="url(#SVGID_42_)" fill="#1D92DD" d="M90.502,83.41c-1.636,4.145-4.049,7.937-7.11,11.175
			c-0.128,0.146-0.274,0.343-0.206,0.529c0.062,0.112,0.163,0.199,0.284,0.244c1.766,0.95,3.65,1.665,5.602,2.126
			c0.228,0.068,0.469,0.088,0.705,0.058c0.409-0.147,0.744-0.449,0.931-0.842c1.651-2.546,3.182-5.158,4.593-7.835
			c1.343-2.251,2.181-4.768,2.458-7.374c0.107-1.336-0.215-2.671-0.921-3.81c-0.832-1.224-3.496-2.615-4.593-0.979
			c-0.397,0.932-0.632,1.926-0.695,2.937C91.282,80.917,90.932,82.177,90.502,83.41"/>
	</g>
	<g clip-path="url(#SVGID_2_)">
		<defs>
			<path id="SVGID_43_" d="M92.245,76.702c-0.396,0.932-0.631,1.926-0.694,2.937c-0.269,1.278-0.619,2.538-1.049,3.771
				c-1.635,4.145-4.048,7.937-7.11,11.175c-0.128,0.146-0.273,0.343-0.205,0.529c0.061,0.112,0.163,0.2,0.284,0.245
				c1.766,0.949,3.649,1.665,5.601,2.125c0.229,0.068,0.469,0.088,0.706,0.058c0.408-0.147,0.744-0.449,0.93-0.842
				c1.652-2.546,3.183-5.157,4.593-7.835c1.343-2.252,2.182-4.767,2.459-7.375c0.107-1.335-0.215-2.67-0.921-3.809
				c-0.561-0.825-1.952-1.725-3.136-1.725C93.129,75.956,92.604,76.168,92.245,76.702"/>
		</defs>
		<clipPath id="SVGID_44_">
			<use xlink:href="#SVGID_43_"  overflow="visible"/>
		</clipPath>
		<defs>
			<filter id="Adobe_OpacityMaskFilter_6_" filterUnits="userSpaceOnUse" x="72.383" y="68.631" width="36.22" height="36.266">
				<feColorMatrix  type="matrix" values="1 0 0 0 0  0 1 0 0 0  0 0 1 0 0  0 0 0 1 0"/>
			</filter>
		</defs>
		<mask maskUnits="userSpaceOnUse" x="72.383" y="68.631" width="36.22" height="36.266" id="SVGID_45_">
			<g filter="url(#Adobe_OpacityMaskFilter_6_)">
				
					<linearGradient id="SVGID_46_" gradientUnits="userSpaceOnUse" x1="0" y1="228.8008" x2="1" y2="228.8008" gradientTransform="matrix(-19.5479 21.9474 21.9474 19.5479 -4913.7085 -4405.3315)">
					<stop  offset="0" style="stop-color:#FFFFFF"/>
					<stop  offset="0.01" style="stop-color:#FFFFFF"/>
					<stop  offset="0.08" style="stop-color:#B0B0B0"/>
					<stop  offset="0.21" style="stop-color:#525252"/>
					<stop  offset="1" style="stop-color:#000000"/>
				</linearGradient>
				<polygon clip-path="url(#SVGID_44_)" fill="url(#SVGID_46_)" points="108.603,85.519 91.343,104.897 72.383,88.01 
					89.643,68.631 				"/>
			</g>
		</mask>
		
			<linearGradient id="SVGID_47_" gradientUnits="userSpaceOnUse" x1="0" y1="228.8008" x2="1" y2="228.8008" gradientTransform="matrix(-19.5479 21.9474 21.9474 19.5479 -4913.7085 -4405.3315)">
			<stop  offset="0" style="stop-color:#000000"/>
			<stop  offset="0.01" style="stop-color:#000000"/>
			<stop  offset="0.08" style="stop-color:#000000"/>
			<stop  offset="0.21" style="stop-color:#000000"/>
			<stop  offset="1" style="stop-color:#000000"/>
		</linearGradient>
		<polygon clip-path="url(#SVGID_44_)" mask="url(#SVGID_45_)" fill="url(#SVGID_47_)" points="108.603,85.519 91.343,104.897 
			72.383,88.01 89.643,68.631 		"/>
	</g>
	<g clip-path="url(#SVGID_2_)">
		<defs>
			<rect id="SVGID_48_" width="294.404" height="228.825"/>
		</defs>
		<clipPath id="SVGID_49_">
			<use xlink:href="#SVGID_48_"  overflow="visible"/>
		</clipPath>
		<path clip-path="url(#SVGID_49_)" fill="#1D92DD" d="M129.04,90.501c-0.029,0.346-0.137,0.681-0.313,0.979
			c-0.614,1.321-1.324,2.594-2.125,3.81c-2.149,3.056-5.31,5.252-8.923,6.199c-1.436,0.381-2.921,0.55-4.407,0.5
			c-0.542,0.009-1.079-0.098-1.577-0.314c-0.705-0.432-1.273-1.057-1.635-1.801c-2.184-3.634-4.319-7.473-7.287-10.411
			c-1.004-1.015-2.129-1.903-3.349-2.645c-1.753-1.067-3.731-1.792-5.239-3.172c-1.772-1.674-2.725-4.04-2.605-6.474
			c0.127-2.645,1.508-5.876,4.201-6.63c3.157-0.816,6.484-0.687,9.568,0.372c3.398,1.214,6.604,2.909,9.52,5.034
			c1.194,0.803,2.37,1.615,3.486,2.516c2.599,2.257,4.998,4.734,7.169,7.405l2.811,3.271
			C128.724,89.496,128.974,89.978,129.04,90.501"/>
	</g>
	<g clip-path="url(#SVGID_2_)">
		<defs>
			<path id="SVGID_50_" d="M103.293,87.376c-0.196,0.686-0.392,1.382-0.519,2.087c2.967,2.937,5.102,6.777,7.286,10.41
				c0.363,0.744,0.93,1.37,1.635,1.802c0.498,0.216,1.035,0.322,1.577,0.314c1.486,0.049,2.971-0.119,4.408-0.5
				c-0.127-0.195-0.271-0.379-0.432-0.549c-2.429-2.448-4.491-5.235-6.12-8.275c-0.863-1.753-2.106-3.369-3.016-5.112
				c-0.933-1.751-1.772-3.549-2.518-5.387C104.037,83.107,103.733,85.8,103.293,87.376"/>
		</defs>
		<clipPath id="SVGID_51_">
			<use xlink:href="#SVGID_50_"  overflow="visible"/>
		</clipPath>
		<defs>
			<filter id="Adobe_OpacityMaskFilter_7_" filterUnits="userSpaceOnUse" x="101.709" y="81.368" width="17.035" height="21.469">
				<feColorMatrix  type="matrix" values="1 0 0 0 0  0 1 0 0 0  0 0 1 0 0  0 0 0 1 0"/>
			</filter>
		</defs>
		<mask maskUnits="userSpaceOnUse" x="101.709" y="81.368" width="17.035" height="21.469" id="SVGID_52_">
			<g filter="url(#Adobe_OpacityMaskFilter_7_)">
				
					<linearGradient id="SVGID_53_" gradientUnits="userSpaceOnUse" x1="0" y1="228.8252" x2="1" y2="228.8252" gradientTransform="matrix(43.3855 2.3309 2.3309 -43.3855 -457.6438 10017.957)">
					<stop  offset="0" style="stop-color:#FFFFFF"/>
					<stop  offset="0.01" style="stop-color:#FFFFFF"/>
					<stop  offset="0.08" style="stop-color:#B0B0B0"/>
					<stop  offset="0.21" style="stop-color:#525252"/>
					<stop  offset="1" style="stop-color:#000000"/>
				</linearGradient>
				<polygon clip-path="url(#SVGID_51_)" fill="url(#SVGID_53_)" points="102.817,81.368 118.745,82.224 117.637,102.837 
					101.709,101.981 				"/>
			</g>
		</mask>
		
			<linearGradient id="SVGID_54_" gradientUnits="userSpaceOnUse" x1="0" y1="228.8262" x2="1" y2="228.8262" gradientTransform="matrix(43.3855 2.3309 2.3309 -43.3855 -457.6439 10017.958)">
			<stop  offset="0" style="stop-color:#000000"/>
			<stop  offset="0.01" style="stop-color:#000000"/>
			<stop  offset="0.08" style="stop-color:#000000"/>
			<stop  offset="0.21" style="stop-color:#000000"/>
			<stop  offset="1" style="stop-color:#000000"/>
		</linearGradient>
		<polygon clip-path="url(#SVGID_51_)" mask="url(#SVGID_52_)" fill="url(#SVGID_54_)" points="102.817,81.368 118.745,82.224 
			117.637,102.837 101.709,101.981 		"/>
	</g>
	<g clip-path="url(#SVGID_2_)">
		<defs>
			<rect id="SVGID_55_" width="294.404" height="228.825"/>
		</defs>
		<clipPath id="SVGID_56_">
			<use xlink:href="#SVGID_55_"  overflow="visible"/>
		</clipPath>
		<path clip-path="url(#SVGID_56_)" fill="#1D92DD" d="M95.761,96.935c-0.079,0.202-0.079,0.425,0,0.627
			c0.112,0.174,0.288,0.297,0.49,0.343c1.864,0.655,3.833,0.961,5.807,0.901c0.203,0.019,0.406-0.029,0.578-0.137
			c0.181-0.149,0.303-0.358,0.343-0.588c0.979-3.007,1.87-6.013,2.772-9.03c0.649-1.825,1.006-3.742,1.057-5.68
			c-0.099-1.644-0.428-3.266-0.979-4.818c-1.488-4.721-6.356-3.781-6.856,0.773C98.268,85.447,97.838,91.108,95.761,96.935"/>
		<path clip-path="url(#SVGID_56_)" fill="#473F47" d="M112.283,151.622c0.127-0.407-0.101-0.841-0.509-0.968
			c-0.333-0.104-0.694,0.028-0.882,0.322c-0.677,0.537-1.401,1.012-2.164,1.42c-0.769,0.408-1.661,0.521-2.507,0.313
			c-0.442-0.232-0.943-0.327-1.44-0.274c-0.227,0.098-0.433,0.237-0.607,0.411c-0.639,0.562-1.363,1.018-2.145,1.352
			c-0.338,0.104-0.645,0.294-0.891,0.549c-0.075,0.076-0.12,0.177-0.127,0.283c0,0.265,0.333,0.383,0.587,0.422
			c2.782,0.392,5.534-0.646,8.178-1.577c0.295-0.118,0.604-0.194,0.921-0.226c0.469,0,1.067,0.079,1.371-0.381
			C112.275,152.746,112.349,152.181,112.283,151.622"/>
		<path clip-path="url(#SVGID_56_)" fill="#473F47" d="M138.04,152.935c0.01-0.343-0.161-0.666-0.45-0.852
			c-0.353-0.147-0.735,0.127-0.98,0.382c-0.606,0.613-1.261,1.177-1.958,1.685c-0.717,0.498-1.591,0.718-2.459,0.617
			c-0.466-0.175-0.974-0.206-1.459-0.089c-0.215,0.119-0.402,0.283-0.548,0.48c-0.565,0.634-1.226,1.176-1.959,1.606
			c-0.324,0.146-0.607,0.372-0.823,0.655c-0.062,0.089-0.093,0.195-0.088,0.304c0,0.255,0.372,0.333,0.637,0.333
			c2.801,0.049,5.406-1.322,7.913-2.575c0.279-0.154,0.58-0.267,0.891-0.333c0.461-0.088,1.068-0.059,1.313-0.549
			C138.197,154.051,138.187,153.479,138.04,152.935"/>
		<path clip-path="url(#SVGID_56_)" fill="#FCBDBA" d="M82.687,74.674c0.568,0.441,1.146,0.881,1.694,1.352
			c0.762,0.745,1.58,1.429,2.449,2.046c0.879,0.627,1.991,0.832,3.036,0.559c1.054-0.334,1.662-1.437,1.381-2.507
			c0.567-0.236,1.175,0.254,1.527,0.763c0.353,0.51,0.696,1.117,1.293,1.274c0.852,0.225,1.597-0.637,1.959-1.46
			c0.979-2.584,0.311-5.503-1.694-7.403c-2.116-1.959-4.036-4.691-6.738-5.749c-0.942-0.337-1.94-0.486-2.938-0.441
			c-0.913-0.013-1.814,0.199-2.625,0.617c-0.543,0.336-1.037,0.744-1.469,1.214c-1.959,1.901-3.536,3.516-1.783,6.033
			C79.884,72.4,81.202,73.649,82.687,74.674"/>
		<path clip-path="url(#SVGID_56_)" fill="#473F47" d="M82.511,68.7c0.343-0.245,0.676-0.597,1.097-0.587
			c0.421,0.009,0.793,0.441,1.204,0.646c0.843,0.421,1.822-0.127,2.752-0.265c1.158-0.135,2.294,0.391,2.939,1.362
			c-0.218-0.284-0.354-0.623-0.392-0.98c0-0.372,0.323-0.754,0.685-0.695c0.17,0.049,0.32,0.147,0.431,0.284
			c0.476,0.557,0.631,1.319,0.411,2.018c1.068,0.593,2.383,0.513,3.37-0.206c0.579-0.339,0.828-1.048,0.587-1.675
			c-0.568-2.056-2.703-3.173-4.133-4.75c-0.454-0.598-0.984-1.134-1.576-1.596c-0.478-0.284-1.001-0.48-1.548-0.578
			c-1.77-0.476-3.639-0.435-5.386,0.118c-1.646,0.597-4.251,2.722-4.545,4.564C78.104,68.436,80.846,69.895,82.511,68.7"/>
		<rect x="246.347" y="78.347" clip-path="url(#SVGID_56_)" fill="#1D92DD" width="48.059" height="135.729"/>
		<rect x="170.173" y="122.957" clip-path="url(#SVGID_56_)" fill="#1D92DD" width="48.058" height="91.119"/>
		<rect x="97.926" y="154.354" clip-path="url(#SVGID_56_)" fill="#1D92DD" width="48.057" height="59.722"/>
	</g>
</g>
</svg>
