<?xml version="1.0" encoding="utf-8"?>
<!-- Generator: Adobe Illustrator 16.0.0, SVG Export Plug-In . SVG Version: 6.00 Build 0)  -->
<!DOCTYPE svg PUBLIC "-//W3C//DTD SVG 1.1//EN" "http://www.w3.org/Graphics/SVG/1.1/DTD/svg11.dtd">
<svg version="1.1" id="Layer_1" xmlns="http://www.w3.org/2000/svg" xmlns:xlink="http://www.w3.org/1999/xlink" x="0px" y="0px"
	 width="310.616px" height="235.223px" viewBox="0 0 310.616 235.223" enable-background="new 0 0 310.616 235.223"
	 xml:space="preserve">
<g>
	<defs>
		<rect id="SVGID_1_" width="310.616" height="235.223"/>
	</defs>
	<clipPath id="SVGID_2_">
		<use xlink:href="#SVGID_1_"  overflow="visible"/>
	</clipPath>
	<g clip-path="url(#SVGID_2_)">
		<defs>
			<path id="SVGID_3_" d="M0,219.532c0,8.61,68.633,15.601,153.633,15.691h3.35c85.001-0.091,153.633-7.081,153.633-15.691
				c0-8.666-69.533-15.69-155.308-15.69C69.534,203.841,0,210.866,0,219.532"/>
		</defs>
		<clipPath id="SVGID_4_">
			<use xlink:href="#SVGID_3_"  overflow="visible"/>
		</clipPath>
		<defs>
			<filter id="Adobe_OpacityMaskFilter" filterUnits="userSpaceOnUse" x="-3.643" y="167.789" width="317.9" height="103.487">
				<feColorMatrix  type="matrix" values="1 0 0 0 0  0 1 0 0 0  0 0 1 0 0  0 0 0 1 0"/>
			</filter>
		</defs>
		<mask maskUnits="userSpaceOnUse" x="-3.643" y="167.789" width="317.9" height="103.487" id="SVGID_5_">
			<g filter="url(#Adobe_OpacityMaskFilter)">
				
					<linearGradient id="SVGID_6_" gradientUnits="userSpaceOnUse" x1="0" y1="235.2231" x2="1" y2="235.2231" gradientTransform="matrix(15.4829 131.573 131.573 -15.4829 -30804.0176 3774.3376)">
					<stop  offset="0" style="stop-color:#FFFFFF"/>
					<stop  offset="0.01" style="stop-color:#FFFFFF"/>
					<stop  offset="0.08" style="stop-color:#B0B0B0"/>
					<stop  offset="0.21" style="stop-color:#525252"/>
					<stop  offset="1" style="stop-color:#000000"/>
				</linearGradient>
				<polygon clip-path="url(#SVGID_4_)" fill="url(#SVGID_6_)" points="306.372,167.789 314.258,234.794 4.242,271.276 
					-3.643,204.27 				"/>
			</g>
		</mask>
		
			<linearGradient id="SVGID_7_" gradientUnits="userSpaceOnUse" x1="0" y1="235.2231" x2="1" y2="235.2231" gradientTransform="matrix(15.4829 131.573 131.573 -15.4829 -30804.0176 3774.3376)">
			<stop  offset="0" style="stop-color:#000000"/>
			<stop  offset="0.01" style="stop-color:#000000"/>
			<stop  offset="0.08" style="stop-color:#000000"/>
			<stop  offset="0.21" style="stop-color:#000000"/>
			<stop  offset="1" style="stop-color:#000000"/>
		</linearGradient>
		<polygon clip-path="url(#SVGID_4_)" mask="url(#SVGID_5_)" fill="url(#SVGID_7_)" points="306.372,167.789 314.258,234.794 
			4.242,271.276 -3.643,204.27 		"/>
	</g>
	<g clip-path="url(#SVGID_2_)">
		<defs>
			<rect id="SVGID_8_" width="310.616" height="235.223"/>
		</defs>
		<clipPath id="SVGID_9_">
			<use xlink:href="#SVGID_8_"  overflow="visible"/>
		</clipPath>
		<polygon clip-path="url(#SVGID_9_)" fill="#1D92DD" points="197.62,163.633 138.772,163.633 128.072,118.06 186.919,118.06 		"/>
	</g>
	<g clip-path="url(#SVGID_2_)">
		<defs>
			<polygon id="SVGID_10_" points="128.072,118.059 138.773,163.633 194.14,163.633 183.44,118.059 			"/>
		</defs>
		<clipPath id="SVGID_11_">
			<use xlink:href="#SVGID_10_"  overflow="visible"/>
		</clipPath>
		<defs>
			<filter id="Adobe_OpacityMaskFilter_1_" filterUnits="userSpaceOnUse" x="124.766" y="113.267" width="72.679" height="55.158">
				<feColorMatrix  type="matrix" values="1 0 0 0 0  0 1 0 0 0  0 0 1 0 0  0 0 0 1 0"/>
			</filter>
		</defs>
		<mask maskUnits="userSpaceOnUse" x="124.766" y="113.267" width="72.679" height="55.158" id="SVGID_12_">
			<g filter="url(#Adobe_OpacityMaskFilter_1_)">
				
					<linearGradient id="SVGID_13_" gradientUnits="userSpaceOnUse" x1="0" y1="235.2241" x2="1" y2="235.2241" gradientTransform="matrix(5.418 74.299 74.299 -5.418 -17317.082 1396.6517)">
					<stop  offset="0" style="stop-color:#FFFFFF"/>
					<stop  offset="0.01" style="stop-color:#FFFFFF"/>
					<stop  offset="0.08" style="stop-color:#B0B0B0"/>
					<stop  offset="0.21" style="stop-color:#525252"/>
					<stop  offset="1" style="stop-color:#000000"/>
				</linearGradient>
				<polygon clip-path="url(#SVGID_11_)" fill="url(#SVGID_13_)" points="193.791,113.267 197.445,163.392 128.421,168.425 
					124.766,118.3 				"/>
			</g>
		</mask>
		
			<linearGradient id="SVGID_14_" gradientUnits="userSpaceOnUse" x1="0" y1="235.2241" x2="1" y2="235.2241" gradientTransform="matrix(5.418 74.299 74.299 -5.418 -17317.082 1396.6517)">
			<stop  offset="0" style="stop-color:#000000"/>
			<stop  offset="0.01" style="stop-color:#000000"/>
			<stop  offset="0.08" style="stop-color:#000000"/>
			<stop  offset="0.21" style="stop-color:#000000"/>
			<stop  offset="1" style="stop-color:#000000"/>
		</linearGradient>
		<polygon clip-path="url(#SVGID_11_)" mask="url(#SVGID_12_)" fill="url(#SVGID_14_)" points="193.791,113.267 197.445,163.392 
			128.421,168.425 124.766,118.3 		"/>
	</g>
	<g clip-path="url(#SVGID_2_)">
		<defs>
			<rect id="SVGID_15_" width="310.616" height="235.223"/>
		</defs>
		<clipPath id="SVGID_16_">
			<use xlink:href="#SVGID_15_"  overflow="visible"/>
		</clipPath>
		<rect x="65.714" y="161.976" clip-path="url(#SVGID_16_)" fill="#1D92DD" width="209.863" height="55.909"/>
	</g>
	<g clip-path="url(#SVGID_2_)">
		<defs>
			<rect id="SVGID_17_" x="65.714" y="161.976" width="209.863" height="55.909"/>
		</defs>
		<clipPath id="SVGID_18_">
			<use xlink:href="#SVGID_17_"  overflow="visible"/>
		</clipPath>
		<defs>
			<filter id="Adobe_OpacityMaskFilter_2_" filterUnits="userSpaceOnUse" x="38.078" y="58.239" width="265.135" height="263.383">
				<feColorMatrix  type="matrix" values="1 0 0 0 0  0 1 0 0 0  0 0 1 0 0  0 0 0 1 0"/>
			</filter>
		</defs>
		<mask maskUnits="userSpaceOnUse" x="38.078" y="58.239" width="265.135" height="263.383" id="SVGID_19_">
			<g filter="url(#Adobe_OpacityMaskFilter_2_)">
				
					<linearGradient id="SVGID_20_" gradientUnits="userSpaceOnUse" x1="0" y1="235.2212" x2="1" y2="235.2212" gradientTransform="matrix(403.5024 -346.7389 -346.7389 -403.5024 81588.8047 95225.8359)">
					<stop  offset="0" style="stop-color:#FFFFFF"/>
					<stop  offset="0.01" style="stop-color:#FFFFFF"/>
					<stop  offset="0.08" style="stop-color:#B0B0B0"/>
					<stop  offset="0.21" style="stop-color:#525252"/>
					<stop  offset="1" style="stop-color:#000000"/>
				</linearGradient>
				<polygon clip-path="url(#SVGID_18_)" fill="url(#SVGID_20_)" points="38.078,185.725 186.434,58.239 303.213,194.136 
					154.857,321.623 				"/>
			</g>
		</mask>
		
			<linearGradient id="SVGID_21_" gradientUnits="userSpaceOnUse" x1="0" y1="235.2212" x2="1" y2="235.2212" gradientTransform="matrix(403.5024 -346.7389 -346.7389 -403.5024 81588.8047 95225.8359)">
			<stop  offset="0" style="stop-color:#000000"/>
			<stop  offset="0.01" style="stop-color:#000000"/>
			<stop  offset="0.08" style="stop-color:#000000"/>
			<stop  offset="0.21" style="stop-color:#000000"/>
			<stop  offset="1" style="stop-color:#000000"/>
		</linearGradient>
		<polygon clip-path="url(#SVGID_18_)" mask="url(#SVGID_19_)" fill="url(#SVGID_21_)" points="38.078,185.725 186.434,58.239 
			303.213,194.136 154.857,321.623 		"/>
	</g>
	<g clip-path="url(#SVGID_2_)">
		<defs>
			<rect id="SVGID_22_" width="310.616" height="235.223"/>
		</defs>
		<clipPath id="SVGID_23_">
			<use xlink:href="#SVGID_22_"  overflow="visible"/>
		</clipPath>
		<path clip-path="url(#SVGID_23_)" fill="#1D92DD" d="M69.662,0h171.302c10.11,0,18.306,8.196,18.306,18.306v95.794
			c0,10.11-8.195,18.307-18.306,18.307H69.662c-10.11,0-18.306-8.197-18.306-18.307V18.307C51.356,8.196,59.552,0,69.662,0"/>
	</g>
	<g clip-path="url(#SVGID_2_)">
		<defs>
			<path id="SVGID_24_" d="M51.345,106.14v7.949c0,10.11,8.196,18.307,18.307,18.307h171.312
				c10.105-0.012,18.295-8.201,18.305-18.307v-7.949H51.345z"/>
		</defs>
		<clipPath id="SVGID_25_">
			<use xlink:href="#SVGID_24_"  overflow="visible"/>
		</clipPath>
		<defs>
			<filter id="Adobe_OpacityMaskFilter_3_" filterUnits="userSpaceOnUse" x="41.532" y="28.43" width="227.55" height="181.677">
				<feColorMatrix  type="matrix" values="1 0 0 0 0  0 1 0 0 0  0 0 1 0 0  0 0 0 1 0"/>
			</filter>
		</defs>
		<mask maskUnits="userSpaceOnUse" x="41.532" y="28.43" width="227.55" height="181.677" id="SVGID_26_">
			<g filter="url(#Adobe_OpacityMaskFilter_3_)">
				
					<linearGradient id="SVGID_27_" gradientUnits="userSpaceOnUse" x1="0" y1="235.2036" x2="1" y2="235.2036" gradientTransform="matrix(61.275 136.4283 136.4283 -61.275 -31968.2266 14453.1484)">
					<stop  offset="0" style="stop-color:#FFFFFF"/>
					<stop  offset="0.01" style="stop-color:#FFFFFF"/>
					<stop  offset="0.08" style="stop-color:#B0B0B0"/>
					<stop  offset="0.21" style="stop-color:#525252"/>
					<stop  offset="1" style="stop-color:#000000"/>
				</linearGradient>
				<polygon clip-path="url(#SVGID_25_)" fill="url(#SVGID_27_)" points="224.366,28.43 269.082,127.989 86.248,210.107 
					41.532,110.547 				"/>
			</g>
		</mask>
		
			<linearGradient id="SVGID_28_" gradientUnits="userSpaceOnUse" x1="0" y1="235.2036" x2="1" y2="235.2036" gradientTransform="matrix(61.275 136.4283 136.4283 -61.275 -31968.2285 14453.1504)">
			<stop  offset="0" style="stop-color:#000000"/>
			<stop  offset="0.01" style="stop-color:#000000"/>
			<stop  offset="0.08" style="stop-color:#000000"/>
			<stop  offset="0.21" style="stop-color:#000000"/>
			<stop  offset="1" style="stop-color:#000000"/>
		</linearGradient>
		<polygon clip-path="url(#SVGID_25_)" mask="url(#SVGID_26_)" fill="url(#SVGID_28_)" points="224.366,28.43 269.082,127.989 
			86.248,210.107 41.532,110.547 		"/>
	</g>
	<g clip-path="url(#SVGID_2_)">
		<defs>
			<rect id="SVGID_29_" width="310.616" height="235.223"/>
		</defs>
		<clipPath id="SVGID_30_">
			<use xlink:href="#SVGID_29_"  overflow="visible"/>
		</clipPath>
		<g opacity="0.1" clip-path="url(#SVGID_30_)" enable-background="new    ">
			<g>
				<defs>
					<rect id="SVGID_31_" x="185.638" y="89.761" width="49.263" height="51.533"/>
				</defs>
				<clipPath id="SVGID_32_">
					<use xlink:href="#SVGID_31_"  overflow="visible"/>
				</clipPath>
				<path clip-path="url(#SVGID_32_)" fill="#020202" d="M234.899,89.761v51.534h-44.604c-2.573,0-4.658-2.086-4.658-4.659V94.419
					c0-2.573,2.085-4.658,4.658-4.658H234.899z"/>
			</g>
		</g>
		<path clip-path="url(#SVGID_30_)" fill="#473F47" d="M119.456,133.575h33.247c1.197,0,2.168,0.97,2.168,2.167
			c0,1.196-0.971,2.167-2.168,2.167h-33.247c-1.197,0-2.167-0.971-2.167-2.167C117.289,134.544,118.259,133.575,119.456,133.575"/>
		<polygon clip-path="url(#SVGID_30_)" fill="#FCBDBA" points="124.832,121.978 123.842,128.509 126.582,128.824 129.573,121.916 		
			"/>
		<path clip-path="url(#SVGID_30_)" fill="#1D92DD" d="M127.405,127.864c-0.133-0.105-0.249-0.232-0.344-0.375
			c-0.283,0.178-0.631,0.22-0.948,0.114l-1.375-0.228c-0.242-0.03-0.478-0.098-0.699-0.198h-0.093l-0.292,0.562
			c-0.499,1.006-0.793,2.101-0.865,3.221c2.603,0.616,5.278,0.872,7.95,0.76c0.436,0.06,0.869-0.12,1.136-0.469
			c0.104-0.236,0.104-0.504,0-0.74c-0.255-0.533-0.713-0.942-1.271-1.135c-0.709-0.292-1.428-0.542-2.084-0.875
			C128.122,128.34,127.747,128.126,127.405,127.864"/>
		<polygon clip-path="url(#SVGID_30_)" fill="#FCBDBA" points="143.211,123.967 142.357,130.522 145.107,130.772 147.952,123.812 		
			"/>
		<g opacity="0.1" clip-path="url(#SVGID_30_)" enable-background="new    ">
			<g>
				<defs>
					<rect id="SVGID_33_" x="144.139" y="22.641" width="92.5" height="67.631"/>
				</defs>
				<clipPath id="SVGID_34_">
					<use xlink:href="#SVGID_33_"  overflow="visible"/>
				</clipPath>
				<path clip-path="url(#SVGID_34_)" fill="#020202" d="M236.64,32.665v20.224c0,5.535-4.486,10.023-10.022,10.023h-58.692
					l-23.786,27.36v-67.63h82.479C232.153,22.642,236.64,27.128,236.64,32.665"/>
			</g>
		</g>
		<path clip-path="url(#SVGID_30_)" fill="#FFFFFF" d="M157.829,14.035h66.37c5.535,0,10.024,4.487,10.024,10.023v20.224
			c0,5.535-4.489,10.023-10.024,10.023h-66.37c-5.536,0-10.023-4.488-10.023-10.023V24.058
			C147.806,18.522,152.293,14.035,157.829,14.035"/>
		<g opacity="0.1" clip-path="url(#SVGID_30_)" enable-background="new    ">
			<g>
				<defs>
					<rect id="SVGID_35_" x="146.21" y="36.207" width="23.659" height="21.311"/>
				</defs>
				<clipPath id="SVGID_36_">
					<use xlink:href="#SVGID_35_"  overflow="visible"/>
				</clipPath>
				<path clip-path="url(#SVGID_36_)" fill="#020202" d="M159.454,49.314c-0.337,0.03-0.676-0.02-0.989-0.146
					c-0.508-0.354-0.855-0.893-0.969-1.5c-1.636-5.054-5.022-9.972-10.107-11.461c-1.323,5.386-1.229,11.013-1.125,16.566
					c0,1.479,0.167,3.178,1.354,4.053c0.774,0.478,1.675,0.71,2.584,0.667c5.767,0.219,11.495-1.002,16.671-3.553
					c1.554-0.771,4.751-3.782,1.771-4.762c-0.896-0.302-2.876,0.157-3.835,0.157L159.454,49.314z"/>
			</g>
		</g>
		<polygon clip-path="url(#SVGID_30_)" fill="#473F47" points="124.592,76.508 128.676,99.211 124.592,123.633 131.208,124.144 
			140.846,96.638 137.585,74.841 		"/>
		<polygon clip-path="url(#SVGID_30_)" fill="#473F47" points="147.431,74.841 154.777,105.067 148.838,125.875 142.951,125.572 
			143.774,107.818 133.407,79.112 		"/>
		<path clip-path="url(#SVGID_30_)" fill="#FCBDBA" d="M167.654,49.773c0.884-0.516,1.829-0.919,2.813-1.198
			c0.313-0.14,0.676-0.117,0.969,0.063c0.154,0.143,0.252,0.334,0.281,0.542c0.152,0.667,0.098,1.365-0.156,2
			c1.11,0.615,2.275,1.125,3.479,1.522c0.51,0.086,0.958,0.381,1.24,0.812c0.153,0.456,0.014,0.96-0.354,1.271
			c-0.364,0.302-0.803,0.5-1.271,0.573c-3.021,0.709-7.938,0-8.658-3.615c-0.155-0.792,0.136-0.927,0.761-1.375
			C167.093,50.148,167.394,49.96,167.654,49.773"/>
		<path clip-path="url(#SVGID_30_)" fill="#FCBDBA" d="M144.951,21.881c0.687,1.378,1.127,2.866,1.302,4.396
			c0.164,1.555-0.505,3.081-1.76,4.012c-0.376,0.174-0.727,0.398-1.042,0.667c-1.105,1.135,0.156,3.188-0.48,4.657
			c-0.508,1.002-1.695,1.454-2.74,1.042c-1.022-0.447-1.788-1.331-2.084-2.407c-0.281-1.067-0.407-2.168-0.375-3.271l-0.114-6.564
			c-0.147-1.461,0.083-2.935,0.666-4.282c0.811-1.399,2.335-2.228,3.949-2.147C143.93,18.193,144.399,20.589,144.951,21.881"/>
		<path clip-path="url(#SVGID_30_)" fill="#FFFFFF" d="M167.853,54.659c0,0-12.586,11.242-13.493,11.242
			c-0.906,0-6.502-7.064-6.502-7.064l-0.427,16.046c-1.554,0.917-3.173,1.717-4.845,2.396c-2.878,1.314-6.017,1.955-9.179,1.876
			c-6.116-0.553-8.815-2.605-8.815-2.605l3.772-37.686c0,0,7.127-5.126,9.565-4.345c1.743,0.312,3.528,0.312,5.272,0
			c3.522-0.469,7.116,4.345,7.116,4.345l4.679,15.368l10.971-3.897C167.429,51.248,168.179,52.967,167.853,54.659"/>
		<path clip-path="url(#SVGID_30_)" fill="#FC682D" d="M146.337,14.806c0.081-0.828-0.113-1.659-0.552-2.365
			c-0.844-1.177-2.574-1.282-3.991-0.969c-0.974,0.267-1.917,0.637-2.813,1.104c-0.659,0.272-1.377,0.365-2.084,0.271
			c-1.871-0.033-3.684,0.645-5.074,1.897c-1.917,1.812-2.365,4.49-2.563,7.001c-0.209,2.845,1.042,5.209,2.928,7.377
			c1.594,1.886,4.501,3.74,6.574,1.354c0.925-1.212,1.346-2.735,1.178-4.251c-1.019-0.104-1.857-0.846-2.084-1.844
			c-0.146-0.624,0.071-1.276,0.562-1.688c0.621-0.374,1.428-0.174,1.802,0.447l0.001,0.001c0.059,0.094,0.105,0.196,0.135,0.302
			c0.301-0.604,0.522-1.245,0.657-1.907c0.239-0.635,1.042-1.187,1.562-0.76c0.303,0.239,0.48,0.771,0.866,0.688
			c0.127-0.048,0.239-0.131,0.322-0.24c0.759-0.73,1.399-1.573,1.897-2.501c0.466-1.094,0.71-2.27,0.719-3.459
			C146.339,15.115,146.325,14.96,146.337,14.806"/>
		<path clip-path="url(#SVGID_30_)" fill="#FC682D" d="M121.602,13.41c-2.713-0.322-5.341,1.073-6.595,3.501
			c-1.448,2.97-0.406,6.481-0.167,9.784c0.449,2.361-0.797,4.718-3.001,5.678c-2.334,1.407-5.022,2.355-6.887,4.345
			c-1.468,1.636-2.335,3.723-2.458,5.918c-0.117,0.915,0.043,1.844,0.458,2.667c0.407,0.609,0.94,1.125,1.563,1.511
			c3.488,2.521,7.844,3.532,12.086,2.803c4.275-0.811,7.697-4.018,8.783-8.231c0.917-4.397-1.313-8.763-2.157-13.181
			c-0.312-1.045-0.188-2.172,0.344-3.126c0.698-0.937,1.99-1.156,3.001-1.75C132.042,20.11,125.614,13.952,121.602,13.41"/>
		<path clip-path="url(#SVGID_30_)" fill="#1D92DD" d="M129.301,17.661h0.094c1.145,0,2.073,0.929,2.073,2.074v0.093
			c0,1.146-0.928,2.074-2.073,2.074h-0.094c-1.145,0-2.073-0.928-2.073-2.074v-0.093C127.229,18.59,128.156,17.661,129.301,17.661"
			/>
		<path clip-path="url(#SVGID_30_)" fill="#1D92DD" d="M145.899,129.801c-0.13-0.108-0.246-0.234-0.344-0.375
			c-0.279,0.188-0.626,0.24-0.948,0.146l-1.375-0.208c-0.244-0.027-0.483-0.09-0.708-0.188h-0.094l-0.281,0.573
			c-0.471,1.021-0.74,2.119-0.792,3.24c2.614,0.555,5.291,0.758,7.959,0.605c0.439,0.054,0.872-0.14,1.126-0.5
			c0.104-0.235,0.104-0.505,0-0.74c-0.261-0.53-0.729-0.93-1.292-1.105c-0.719-0.28-1.448-0.51-2.147-0.844
			C146.609,130.256,146.238,130.054,145.899,129.801"/>
		<path clip-path="url(#SVGID_30_)" fill="#1D92DD" d="M146.482,137.909h-4.219l-3.366,9.105h-17.389l3.365-9.105h-4.22
			l-29.6,79.977h4.219l2.928-7.907h17.358l-2.927,7.907h4.219l2.928-7.907h0.125v-0.333l26.329-71.121v79.361h4.22v-79.977H146.482z
			 M137.751,150.12l-4.386,11.856h-17.4l4.386-11.856H137.751z M110.422,176.991l4.386-11.848h17.421l-4.407,11.848H110.422z
			 M126.676,180.117l-4.387,11.846h-17.4l4.418-11.909L126.676,180.117z M99.346,206.935l4.387-11.856h17.4l-4.387,11.856H99.346z"
			/>
		<path clip-path="url(#SVGID_30_)" fill="#FFFFFF" d="M190.295,84.218h63.442c2.573,0,4.658,2.085,4.658,4.658v42.208
			c0,2.572-2.085,4.657-4.658,4.657h-63.442c-2.572,0-4.657-2.085-4.657-4.657V88.876C185.638,86.303,187.723,84.218,190.295,84.218
			"/>
		<polygon clip-path="url(#SVGID_30_)" fill="#1D92DD" points="247.267,128.625 196.766,128.625 196.766,91.345 197.672,91.345 
			197.672,127.708 247.267,127.708 		"/>
		<polygon clip-path="url(#SVGID_30_)" fill="#1D92DD" points="197.359,115.226 196.881,114.444 209.612,106.62 228.337,109.505 
			244.881,99.961 245.34,100.753 228.513,110.464 228.356,110.434 209.811,107.579 		"/>
		<path clip-path="url(#SVGID_30_)" fill="#1D92DD" d="M210.279,105.182c1.104,0,2,0.896,2,2c0,1.105-0.896,2.001-2,2.001
			s-2.001-0.896-2.001-2.001C208.278,106.078,209.175,105.182,210.279,105.182"/>
		<path clip-path="url(#SVGID_30_)" fill="#1D92DD" d="M228.419,107.984c1.104,0,2,0.896,2,2c0,1.105-0.896,2.001-2,2.001
			s-2.001-0.896-2.001-2.001C226.418,108.88,227.314,107.984,228.419,107.984"/>
		<path clip-path="url(#SVGID_30_)" fill="#1D92DD" d="M244.767,98.659c1.104,0,2,0.896,2,2c0,1.105-0.896,2.001-2,2.001
			s-2.001-0.896-2.001-2.001C242.766,99.555,243.662,98.659,244.767,98.659"/>
		<g opacity="0.28" clip-path="url(#SVGID_30_)" enable-background="new    ">
			<g>
				<defs>
					<rect id="SVGID_37_" x="208.279" y="105.182" width="4.001" height="4.001"/>
				</defs>
				<clipPath id="SVGID_38_">
					<use xlink:href="#SVGID_37_"  overflow="visible"/>
				</clipPath>
				<path clip-path="url(#SVGID_38_)" fill="#020202" d="M210.279,105.182c1.104,0,2,0.896,2,2c0,1.105-0.896,2.001-2,2.001
					s-2.001-0.896-2.001-2.001C208.278,106.078,209.175,105.182,210.279,105.182"/>
			</g>
		</g>
		<g opacity="0.28" clip-path="url(#SVGID_30_)" enable-background="new    ">
			<g>
				<defs>
					<rect id="SVGID_39_" x="226.419" y="107.984" width="4" height="4.001"/>
				</defs>
				<clipPath id="SVGID_40_">
					<use xlink:href="#SVGID_39_"  overflow="visible"/>
				</clipPath>
				<path clip-path="url(#SVGID_40_)" fill="#020202" d="M228.419,107.984c1.104,0,2,0.896,2,2c0,1.105-0.896,2.001-2,2.001
					s-2.001-0.896-2.001-2.001C226.418,108.88,227.314,107.984,228.419,107.984"/>
			</g>
		</g>
		<g opacity="0.28" clip-path="url(#SVGID_30_)" enable-background="new    ">
			<g>
				<defs>
					<rect id="SVGID_41_" x="242.766" y="98.659" width="4.001" height="4.001"/>
				</defs>
				<clipPath id="SVGID_42_">
					<use xlink:href="#SVGID_41_"  overflow="visible"/>
				</clipPath>
				<path clip-path="url(#SVGID_42_)" fill="#020202" d="M244.767,98.659c1.104,0,2,0.896,2,2c0,1.105-0.896,2.001-2,2.001
					s-2.001-0.896-2.001-2.001C242.766,99.555,243.662,98.659,244.767,98.659"/>
			</g>
		</g>
		<path clip-path="url(#SVGID_30_)" fill="#473F47" d="M251.831,148.662c0,0-14.473,27.35-17.182,35.944
			c-2.709,8.598-2.459,33.925-2.459,33.925h7.877c0,0,0-25.557,3.345-29.86s21.984-26.268,21.984-26.268L251.831,148.662z"/>
		<path clip-path="url(#SVGID_30_)" fill="#473F47" d="M250.227,151.984c0,0,8.772,35.427,13.315,43.354
			c4.543,7.929,16.962,22.214,16.962,22.214l6.689-3.585c0,0-17.201-22.567-16.242-29.172c0.958-6.607,3.396-31.883,3.396-31.883
			S262.229,146.337,250.227,151.984"/>
		<path clip-path="url(#SVGID_30_)" fill="#1D92DD" d="M279.973,101.077c0,0,6.991,3.574,4.388,12.169
			c-2.605,8.596-10.848,27.956-9.95,33.687c0.895,5.729-0.063,5.918-0.063,5.918s-18.39,6.626-24.12-0.897
			c0,0,10.939-38.707,13.264-43.541C265.813,103.577,272.451,98.222,279.973,101.077"/>
	</g>
	<g clip-path="url(#SVGID_2_)">
		<defs>
			<path id="SVGID_43_" d="M272.315,114.601c-4.003,2.854-7.93,5.813-11.889,8.72c-1.942,1.108-3.302,3.014-3.72,5.21
				c-1.771,5.856-3.344,11.784-4.897,17.712c3.772-1.698,6.085-5.512,7.806-9.271c0.258-0.664,0.633-1.279,1.103-1.814
				c0.461-0.396,0.987-0.715,1.554-0.937c3.168-1.396,6.709-2.366,9.073-4.908c0.835-0.959,1.562-2.007,2.168-3.126
				c1.202-1.868,2.155-3.885,2.834-6.001c0.47-1.625,0.929-4.344-0.083-5.897c-0.445-0.683-0.932-0.939-1.438-0.939
				C274.016,113.35,273.154,113.999,272.315,114.601"/>
		</defs>
		<clipPath id="SVGID_44_">
			<use xlink:href="#SVGID_43_"  overflow="visible"/>
		</clipPath>
		<defs>
			<filter id="Adobe_OpacityMaskFilter_4_" filterUnits="userSpaceOnUse" x="235.888" y="101.023" width="57.31" height="57.547">
				<feColorMatrix  type="matrix" values="1 0 0 0 0  0 1 0 0 0  0 0 1 0 0  0 0 0 1 0"/>
			</filter>
		</defs>
		<mask maskUnits="userSpaceOnUse" x="235.888" y="101.023" width="57.31" height="57.547" id="SVGID_45_">
			<g filter="url(#Adobe_OpacityMaskFilter_4_)">
				
					<linearGradient id="SVGID_46_" gradientUnits="userSpaceOnUse" x1="0" y1="235.2173" x2="1" y2="235.2173" gradientTransform="matrix(64.2132 82.9468 -82.9468 64.2132 19749.2051 -15007.5879)">
					<stop  offset="0" style="stop-color:#FFFFFF"/>
					<stop  offset="0.01" style="stop-color:#FFFFFF"/>
					<stop  offset="0.08" style="stop-color:#B0B0B0"/>
					<stop  offset="0.21" style="stop-color:#525252"/>
					<stop  offset="1" style="stop-color:#000000"/>
				</linearGradient>
				<polygon clip-path="url(#SVGID_44_)" fill="url(#SVGID_46_)" points="235.888,125.675 261.353,158.57 293.197,133.917 
					267.732,101.023 				"/>
			</g>
		</mask>
		
			<linearGradient id="SVGID_47_" gradientUnits="userSpaceOnUse" x1="0" y1="235.2173" x2="1" y2="235.2173" gradientTransform="matrix(64.2132 82.9468 -82.9468 64.2132 19749.2051 -15007.5879)">
			<stop  offset="0" style="stop-color:#000000"/>
			<stop  offset="0.01" style="stop-color:#000000"/>
			<stop  offset="0.08" style="stop-color:#000000"/>
			<stop  offset="0.21" style="stop-color:#000000"/>
			<stop  offset="1" style="stop-color:#000000"/>
		</linearGradient>
		<polygon clip-path="url(#SVGID_44_)" mask="url(#SVGID_45_)" fill="url(#SVGID_47_)" points="235.888,125.675 261.353,158.57 
			293.197,133.917 267.732,101.023 		"/>
	</g>
	<g clip-path="url(#SVGID_2_)">
		<defs>
			<rect id="SVGID_48_" width="310.616" height="235.223"/>
		</defs>
		<clipPath id="SVGID_49_">
			<use xlink:href="#SVGID_48_"  overflow="visible"/>
		</clipPath>
		<path clip-path="url(#SVGID_49_)" fill="#FCBDBA" d="M266.97,85.969c-0.396,0.406-0.906,0.823-0.906,1.386
			c0.066,0.423,0.242,0.822,0.511,1.156c1.208,2.084,0.104,5.001,1.563,6.887c0.544,0.646,1.271,1.111,2.084,1.334
			c0.827,0.112,1.628,0.369,2.365,0.76c0.559,0.551,0.877,1.3,0.886,2.084c0.083,0.938-0.084,1.876,0,2.814
			c-0.043,0.639,0.249,1.254,0.771,1.625c0.259,0.114,0.54,0.167,0.823,0.156c1.624,0.074,3.251-0.052,4.845-0.375
			c0.229-0.03,0.447-0.116,0.636-0.25c0.185-0.216,0.304-0.479,0.344-0.761c0.688-3.125,1.396-6.251,2.084-9.377
			c0.403-1.124,0.909-2.208,1.512-3.24c0.547-1.56,0.732-3.224,0.542-4.866c-0.179-1.229-0.597-2.412-1.23-3.48
			c-0.52-1.008-1.278-1.873-2.209-2.521c-0.686-0.405-1.427-0.71-2.198-0.907c-2.668-0.823-6.835-1.927-9.148,0.365
			C268.345,80.676,268.97,83.979,266.97,85.969"/>
		<path clip-path="url(#SVGID_49_)" fill="#473F47" d="M266.688,89.47c0.573-0.354,2.428,0.385,3.126,0.375
			c2.198-0.063,3.99,1.042,5.751-0.313c1.438-1.041,2.011-2.907,2.511-4.615c0.011-0.093,0.011-0.188,0-0.281
			c-0.021-0.12-0.066-0.234-0.135-0.334c-0.813-1.188-2.47-1.313-3.865-1.657c-2.491-0.719-4.729-2.124-6.461-4.052
			c-0.459-0.395-0.768-0.936-0.875-1.532c0.053-0.699,0.441-1.328,1.042-1.688c1.781-1.126,3.935-1.5,5.991-1.042
			c2.026,0.468,4.026,1.045,5.991,1.729c1.896,0.532,3.855,0.855,5.74,1.459c0.403,0.116,0.787,0.291,1.136,0.521
			c0.461,0.365,0.82,0.842,1.042,1.386c0.678,1.387,0.678,3.009,0,4.397c-0.136,0.201-0.238,0.422-0.302,0.656
			c-0.01,0.237,0.021,0.473,0.094,0.698c0.469,2.084-0.562,4.168-1.562,5.97l-2.606,4.856c-0.264,0.586-0.655,1.105-1.145,1.521
			c-0.512,0.415-1.234,0.44-1.772,0.063c-0.542-0.47-0.573-1.407-1.209-1.72c-0.435-0.143-0.912-0.085-1.302,0.157
			c-1.146,0.552-2.084,1.427-3.21,2.083c-1.945,1.084-4.237,1.365-6.387,0.782c-0.632-0.156-1.222-0.448-1.729-0.855
			c-1.115-0.958-1.042-2.24-0.813-3.542C265.97,93.19,265.511,90.199,266.688,89.47"/>
		<path clip-path="url(#SVGID_49_)" fill="#1D92DD" d="M278.348,114.569c0,0-7.521,19.349-37.384,23.047l-1.042-4.167
			c0,0,19.943-7.889,24.245-15.89c1.237-2.249,2.306-4.585,3.199-6.991c1.354-3.751,5.698-5.772,9.179-3.824
			C278.607,107.901,279.89,110.193,278.348,114.569"/>
		<path clip-path="url(#SVGID_49_)" fill="#FCBDBA" d="M234.868,132.583c0.034,0.528,0.256,1.027,0.625,1.406
			c-1.914,0.715-3.938,1.088-5.979,1.105c-0.373-0.043-0.747,0.061-1.042,0.292c-0.396,0.427-0.083,1.125,0.28,1.572
			c1.553,1.752,3.697,2.864,6.022,3.127c1.515,0.294,3.085,0.038,4.428-0.72c0.929-0.695,1.71-1.565,2.304-2.563
			c0.12-0.153,0.213-0.325,0.271-0.512c0.045-0.365-0.044-0.734-0.25-1.042c-0.24-0.446-0.573-1.333-1.042-1.552
			s-1.115,0-1.595-0.084C237.515,133.303,236.285,132.428,234.868,132.583"/>
		<path clip-path="url(#SVGID_49_)" fill="#1D92DD" d="M292.736,218.062c0.523,0.376,0.645,1.105,0.269,1.63
			c-0.075,0.103-0.164,0.192-0.269,0.267c-3.233,3.485-7.106,6.313-11.409,8.336c-1.188,0.552-2.822,0.948-3.636-0.084
			c-0.813-1.031,0.052-2.593,0.739-3.782c0.929-1.594,1.498-3.372,1.667-5.209c0.001-0.63,0.125-1.252,0.366-1.834
			c0.843-1.552,4.989-3.126,6.71-3.126C289.454,214.24,291.341,216.479,292.736,218.062"/>
		<path clip-path="url(#SVGID_49_)" fill="#1D92DD" d="M242.672,224.137c0.279,0.567,0.044,1.256-0.523,1.533
			c-0.126,0.063-0.264,0.101-0.403,0.112c-4.535,1.417-9.3,1.949-14.035,1.564c-1.312-0.115-2.928-0.584-3.125-1.888
			c-0.198-1.302,1.333-2.229,2.522-2.905c1.586-0.928,2.957-2.182,4.021-3.68c0.31-0.548,0.728-1.026,1.23-1.406
			c1.5-0.937,5.896-0.28,7.396,0.585C241.735,219.189,242.256,222.064,242.672,224.137"/>
		<path clip-path="url(#SVGID_49_)" fill="#FBB9AD" d="M46.979,214.687c-0.044,1.328,0.201,2.651,0.719,3.876
			c0.654,1.142,1.638,2.057,2.824,2.626c2.54,1.322,5.492,1.613,8.241,0.812c0.373-0.074,0.709-0.277,0.948-0.573
			c0.143-0.249,0.201-0.537,0.167-0.821c-0.209-1.518-0.978-2.899-2.157-3.876c-1.174-0.957-2.178-2.105-2.969-3.397
			c-1.261-2.563-0.323-9.377-5.127-8.252C45.615,205.988,46.866,211.853,46.979,214.687"/>
		<path clip-path="url(#SVGID_49_)" fill="#1D92DD" d="M46.313,219.283c0,0-0.688,1.687,0.156,2.667
			c0.844,0.979,9.482,6.345,15.296,2.021s-7.898-4.875-7.898-4.875L46.313,219.283z"/>
		<path clip-path="url(#SVGID_49_)" fill="#FFFFFF" d="M46.646,215.384c0.543-0.273,1.207-0.104,1.552,0.396
			c1.153,1.314,2.902,1.94,4.626,1.657c1.897-0.449,2.647-2.637,3.585-2.647c0.937-0.01,5.959,4.273,6.251,6.106
			c0.292,1.834-2.282,3.188-5.116,3.365s-9.273-1.792-10.492-3.281C46.01,219.293,45.858,217.204,46.646,215.384"/>
		<path clip-path="url(#SVGID_49_)" fill="#FBB9AD" d="M30.507,217.301c-0.056,1.33,0.19,2.655,0.719,3.877
			c0.654,1.139,1.639,2.051,2.824,2.614c2.536,1.324,5.485,1.615,8.231,0.814c0.377-0.072,0.717-0.275,0.958-0.574
			c0.138-0.248,0.196-0.531,0.167-0.812c-0.211-1.517-0.98-2.898-2.157-3.876c-1.166-0.962-2.169-2.105-2.969-3.388
			c-1.261-2.552-0.323-9.377-5.127-8.252C29.142,208.623,30.393,214.499,30.507,217.301"/>
		<path clip-path="url(#SVGID_49_)" fill="#1D92DD" d="M29.84,221.917c0,0-0.688,1.679,0.156,2.657
			c0.844,0.979,9.461,6.346,15.275,2.031c5.814-4.313-7.877-4.875-7.877-4.875L29.84,221.917z"/>
		<path clip-path="url(#SVGID_49_)" fill="#FFFFFF" d="M30.174,218.011c0.546-0.269,1.207-0.096,1.552,0.405
			c1.147,1.323,2.901,1.95,4.626,1.657c1.886-0.459,2.647-2.636,3.574-2.647c0.928-0.01,5.96,4.263,6.251,6.097
			c0.292,1.834-2.281,3.188-5.115,3.365s-9.263-1.781-10.482-3.272C29.531,221.928,29.379,219.832,30.174,218.011"/>
		<path clip-path="url(#SVGID_49_)" fill="#473F47" d="M27.058,146.389c0,0-0.885,49.355,2.761,65.817l9.284,1.147l2.532-67.454
			L27.058,146.389z"/>
		<path clip-path="url(#SVGID_49_)" fill="#473F47" d="M52.7,141.054c0,0,7.387,26.569,2.084,69.318L45.5,211.52l-5.844-68.152
			L52.7,141.054z"/>
		<path clip-path="url(#SVGID_49_)" fill="#FFFFFF" d="M66.588,119.789c-0.104,1.792-0.677,3.335-2.229,3.855
			c-0.133,0.044-0.269,0.08-0.407,0.105c-2.844,0.571-6.585-1.596-9.179-3.491c-1.088-0.782-2.131-1.623-3.126-2.521V98.639
			l13.899,14.191C66.268,115.078,66.62,117.429,66.588,119.789"/>
		<path clip-path="url(#SVGID_49_)" fill="#FFFFFF" d="M54.878,120.174c0,0.896,0.115,1.792,0.115,2.688
			c0,4.918-1.136,10.002,0.322,14.837c0.48,1.027,0.626,2.178,0.417,3.292c-0.427,0.896-1.169,1.6-2.083,1.98
			c-4.345,2.376-9.377,3.126-14.254,3.793c-3.688,0.52-8.919,1.614-12.326-0.375c-1.448-0.845-1.938-2.417-2.406-3.99
			c-1.304-5.085-2.072-10.291-2.293-15.536c0-0.688-0.104-1.365-0.135-2.084c-0.285-4.709-0.382-9.425-0.292-14.149
			c0.062-3.428,0.333-7.126,2.574-9.71c2.969-3.439,8.72-5.721,13.096-6.523c1.415-0.292,2.865-0.373,4.304-0.24
			c2.036,0.323,4.003,0.993,5.814,1.98c2.167,1.042,4.094,1.98,5.209,4.116c1.17,2.478,1.987,5.108,2.428,7.814
			c0.409,2.536,0.466,5.117,0.166,7.669c-0.125,1.25-0.448,2.49-0.573,3.729C54.913,119.699,54.884,119.937,54.878,120.174"/>
		<g opacity="0.1" clip-path="url(#SVGID_49_)" enable-background="new    ">
			<g>
				<defs>
					<rect id="SVGID_50_" x="20.822" y="101.156" width="33.308" height="46.992"/>
				</defs>
				<clipPath id="SVGID_51_">
					<use xlink:href="#SVGID_50_"  overflow="visible"/>
				</clipPath>
				<path clip-path="url(#SVGID_51_)" fill="#020202" d="M34.779,148.067c-1.427,0.416-4.72-0.896-5.814-1.042
					c-0.656-0.114-1.25-0.447-1.907-0.594c-3.26-0.813-3.646-9.981-3.959-12.451c-0.844-6.512-2.146-13.264-2.24-19.797
					c-0.146-2.521,0.146-5.049,0.865-7.47c0.741-2.448,2.531-4.441,4.887-5.439c4.167-1.5,5.407,11.68,5.98,14.41
					c0.573,2.73,0.646,7.565,2.449,9.751c1.802,2.189,5.407,2.596,7.762,1.49c2.587-1.298,4.162-4.005,4.011-6.896
					c-0.142-0.981-0.222-1.969-0.24-2.959c0.003-1.015,0.592-1.937,1.511-2.365c0.867-0.217,1.782,0.073,2.365,0.75
					c0.556,0.682,0.954,1.479,1.167,2.334c0.539,1.785,0.889,3.622,1.042,5.479c0.417,4.407-0.25,8.93,0.803,13.233
					c0.47,1.337,0.696,2.749,0.667,4.167c-0.494,2.419-2.617,4.159-5.085,4.168c-2.438-0.093-4.676-1.374-5.991-3.428
					c-0.208-0.363-0.488-0.679-0.823-0.929c-0.374-0.187-0.792-0.27-1.209-0.238c-1.99,0-4.845,0.458-5.491,2.688
					c-0.458,1.594,0.646,3.125-0.219,4.772C35.183,147.883,34.994,148.013,34.779,148.067"/>
			</g>
		</g>
		<path clip-path="url(#SVGID_49_)" fill="#FBB9AD" d="M46.053,88.125c-0.346,0.691-0.937,1.229-1.656,1.511
			c-0.879,0.198-1.715,0.551-2.47,1.042c-0.612,0.663-1.001,1.501-1.115,2.396l-0.593,2.772l-0.313,1.396
			c-0.041,0.252-0.125,0.496-0.25,0.719c-0.356,0.397-0.874,0.612-1.407,0.583c-1.098,0.046-2.185-0.233-3.126-0.802
			c-0.164-0.072-0.3-0.197-0.385-0.354c-0.082-0.194-0.104-0.409-0.062-0.615l0.343-3.99c0.191-1.092,0.019-2.215-0.489-3.199
			c-1.148-2.088-2.001-4.325-2.532-6.647c-0.709-2.461,0.71-5.031,3.171-5.74c0.238-0.068,0.48-0.118,0.725-0.148
			c1.95-0.598,4.03-0.62,5.992-0.062c0.729,0.25,0.948,0.75,1.292,1.407c0.51,1.042,1.042,2.084,1.427,3.126
			c0.386,1.042,0.906,2.417,1.292,3.667C46.295,86.118,46.351,87.159,46.053,88.125"/>
		<path clip-path="url(#SVGID_49_)" fill="#FBB9AD" d="M75.549,108.224c0.125-0.208,0.365-0.417,0.563-0.292
			c0.081,0.081,0.138,0.182,0.166,0.292c0.233,0.407,0.667,0.658,1.136,0.656c0.448,0,0.917-0.073,1.376-0.073
			c1.214,0.039,2.341,0.644,3.042,1.636c0.689,0.99,1.072,2.16,1.104,3.365c0.123,1.084-0.176,2.173-0.833,3.043
			c-1.042,1.219-2.928,1.25-4.543,1.199h-1.479c-0.726,0.094-1.4-0.396-1.532-1.116c-0.604-1.468-1.698-2.938-0.948-4.418
			C74.351,111.037,74.653,109.266,75.549,108.224"/>
		<path clip-path="url(#SVGID_49_)" fill="#1D92DD" d="M46.47,123.75v-11.044c0-0.885,0.541-1.679,1.365-2.001l27.35-10.888
			c1.417-0.563,4.303,1.125,4.303,2.646l-1.344,25.558c0.002,0.874-0.526,1.66-1.334,1.991l-26.048,12.003
			c-1.427,0.583-4.334-1.105-4.334-2.637L46.47,123.75z"/>
	</g>
	<g clip-path="url(#SVGID_2_)">
		<defs>
			<path id="SVGID_52_" d="M75.185,99.815l-27.361,10.888c-0.831,0.311-1.375,1.114-1.354,2.001v11.045l-0.032,15.628
				c0,1.531,2.907,3.22,4.324,2.637L76.81,130.01c0.806-0.333,1.333-1.118,1.333-1.99l1.344-25.558c0-1.317-2.16-2.758-3.66-2.757
				C75.594,99.705,75.376,99.74,75.185,99.815"/>
		</defs>
		<clipPath id="SVGID_53_">
			<use xlink:href="#SVGID_52_"  overflow="visible"/>
		</clipPath>
		<defs>
			<filter id="Adobe_OpacityMaskFilter_5_" filterUnits="userSpaceOnUse" x="25.121" y="83.279" width="75.683" height="75.743">
				<feColorMatrix  type="matrix" values="1 0 0 0 0  0 1 0 0 0  0 0 1 0 0  0 0 0 1 0"/>
			</filter>
		</defs>
		<mask maskUnits="userSpaceOnUse" x="25.121" y="83.279" width="75.683" height="75.743" id="SVGID_54_">
			<g filter="url(#Adobe_OpacityMaskFilter_5_)">
				
					<linearGradient id="SVGID_55_" gradientUnits="userSpaceOnUse" x1="0" y1="235.2212" x2="1" y2="235.2212" gradientTransform="matrix(72.4131 80.8422 80.8422 -72.4131 -18975.0742 17129.4629)">
					<stop  offset="0" style="stop-color:#FFFFFF"/>
					<stop  offset="0.01" style="stop-color:#FFFFFF"/>
					<stop  offset="0.13" style="stop-color:#B0B0B0"/>
					<stop  offset="0.25" style="stop-color:#525252"/>
					<stop  offset="1" style="stop-color:#000000"/>
				</linearGradient>
				<polygon clip-path="url(#SVGID_53_)" fill="url(#SVGID_55_)" points="64.775,83.279 100.804,123.502 61.15,159.022 
					25.121,118.798 				"/>
			</g>
		</mask>
		
			<linearGradient id="SVGID_56_" gradientUnits="userSpaceOnUse" x1="0" y1="235.2212" x2="1" y2="235.2212" gradientTransform="matrix(72.4131 80.8422 80.8422 -72.4131 -18975.0762 17129.4648)">
			<stop  offset="0" style="stop-color:#000000"/>
			<stop  offset="0.01" style="stop-color:#000000"/>
			<stop  offset="0.13" style="stop-color:#000000"/>
			<stop  offset="0.25" style="stop-color:#000000"/>
			<stop  offset="1" style="stop-color:#000000"/>
		</linearGradient>
		<polygon clip-path="url(#SVGID_53_)" mask="url(#SVGID_54_)" fill="url(#SVGID_56_)" points="64.775,83.279 100.804,123.502 
			61.15,159.022 25.121,118.798 		"/>
	</g>
	<g clip-path="url(#SVGID_2_)">
		<defs>
			<rect id="SVGID_57_" width="310.616" height="235.223"/>
		</defs>
		<clipPath id="SVGID_58_">
			<use xlink:href="#SVGID_57_"  overflow="visible"/>
		</clipPath>
		<path clip-path="url(#SVGID_58_)" fill="#1D92DD" d="M47.834,124.395v-11.044c-0.002-0.888,0.54-1.685,1.365-2.011l27.35-10.878
			c1.106-0.443,2.362,0.095,2.805,1.2c0.102,0.254,0.154,0.526,0.154,0.801v26.236c-0.001,0.871-0.528,1.657-1.333,1.989
			l-27.351,11.356c-1.1,0.456-2.362-0.064-2.818-1.166c-0.002-0.004-0.004-0.007-0.005-0.011c-0.111-0.26-0.168-0.54-0.167-0.824
			V124.395z"/>
	</g>
	<g clip-path="url(#SVGID_2_)">
		<defs>
			<path id="SVGID_59_" d="M78.988,101.118l-12.4,21.879l-18.754-9.647v25.183l31.633-9.835v-26.236
				c0-1.208-0.265-1.363-0.401-1.363C79.019,101.099,78.988,101.118,78.988,101.118"/>
		</defs>
		<clipPath id="SVGID_60_">
			<use xlink:href="#SVGID_59_"  overflow="visible"/>
		</clipPath>
		<defs>
			<filter id="Adobe_OpacityMaskFilter_6_" filterUnits="userSpaceOnUse" x="42.311" y="96.432" width="42.68" height="46.769">
				<feColorMatrix  type="matrix" values="1 0 0 0 0  0 1 0 0 0  0 0 1 0 0  0 0 0 1 0"/>
			</filter>
		</defs>
		<mask maskUnits="userSpaceOnUse" x="42.311" y="96.432" width="42.68" height="46.769" id="SVGID_61_">
			<g filter="url(#Adobe_OpacityMaskFilter_6_)">
				
					<linearGradient id="SVGID_62_" gradientUnits="userSpaceOnUse" x1="0" y1="235.2231" x2="1" y2="235.2231" gradientTransform="matrix(11.0964 73.5279 73.5279 -11.0964 -17236.1602 2701.5696)">
					<stop  offset="0" style="stop-color:#FFFFFF"/>
					<stop  offset="0.01" style="stop-color:#FFFFFF"/>
					<stop  offset="0.13" style="stop-color:#B0B0B0"/>
					<stop  offset="0.25" style="stop-color:#525252"/>
					<stop  offset="1" style="stop-color:#000000"/>
				</linearGradient>
				<polygon clip-path="url(#SVGID_60_)" fill="url(#SVGID_62_)" points="78.763,96.432 84.991,137.7 48.539,143.201 
					42.311,101.933 				"/>
			</g>
		</mask>
		
			<linearGradient id="SVGID_63_" gradientUnits="userSpaceOnUse" x1="0" y1="235.2231" x2="1" y2="235.2231" gradientTransform="matrix(11.0964 73.5279 73.5279 -11.0964 -17236.1602 2701.5696)">
			<stop  offset="0" style="stop-color:#000000"/>
			<stop  offset="0.01" style="stop-color:#000000"/>
			<stop  offset="0.13" style="stop-color:#000000"/>
			<stop  offset="0.25" style="stop-color:#000000"/>
			<stop  offset="1" style="stop-color:#000000"/>
		</linearGradient>
		<polygon clip-path="url(#SVGID_60_)" mask="url(#SVGID_61_)" fill="url(#SVGID_63_)" points="78.763,96.432 84.991,137.7 
			48.539,143.201 42.311,101.933 		"/>
	</g>
	<g clip-path="url(#SVGID_2_)">
		<defs>
			<rect id="SVGID_64_" width="310.616" height="235.223"/>
		</defs>
		<clipPath id="SVGID_65_">
			<use xlink:href="#SVGID_64_"  overflow="visible"/>
		</clipPath>
		<path clip-path="url(#SVGID_65_)" fill="#473F47" d="M41.333,78.228c-0.386,0.584-0.99,0.99-1.677,1.125
			c-1.855,0.396-2.98-0.5-3.918,1.657c-0.302,0.738-0.396,1.546-0.271,2.334c0,0.166,0.583,2.01,0.729,1.917
			c-0.479,0.343-0.854-0.594-1.375-0.865s-1.292,0.521-1.167,1.198c0.218,0.665,0.606,1.261,1.125,1.73
			c0.833,1.034,1.292,2.319,1.303,3.647c0,0.301-0.115,0.708-0.427,0.718c-0.313,0.011-0.657-0.427-0.896-0.593
			c-0.382-0.256-0.782-0.483-1.198-0.678c-1.272-0.604-3.189-0.792-4.251-1.646c-0.548-0.456-0.917-1.09-1.042-1.792
			c0-0.167,0-1.959,0.312-1.865c-1.312-0.391-2.06-1.771-1.669-3.084c0.004-0.014,0.008-0.028,0.012-0.042
			c0.14-0.441,0.396-0.837,0.74-1.146c-1.302-1.813-0.698-4.501,0.865-6.095c1.678-1.499,3.8-2.407,6.043-2.584
			c2.436-0.384,4.928-0.221,7.293,0.479c0.821,0.227,1.58,0.637,2.219,1.198c0.635,0.574,0.95,1.422,0.845,2.272
			c-0.282,0.115-0.604,0.053-0.824-0.156c0.288,0.782-0.113,1.649-0.896,1.938c-0.575,0.208-1.219,0.053-1.635-0.396
			C41.552,77.756,41.47,78.006,41.333,78.228"/>
		<path clip-path="url(#SVGID_65_)" fill="#DC9F95" d="M42.521,90.22l-0.313,0.094c-0.093,0.01-0.181,0.05-0.25,0.114
			c-0.02,0.072-0.02,0.148,0,0.219c-0.612,0.663-1.001,1.501-1.115,2.397l-0.593,2.771c-1.003-1.771-1.761-3.671-2.251-5.647
			C39.5,90.342,41.016,90.359,42.521,90.22"/>
		<path clip-path="url(#SVGID_65_)" fill="#FBB9AD" d="M44.104,123.853c0.356-0.438,0.908-0.669,1.469-0.614
			c0.314,0.158,0.614,0.343,0.896,0.552c0.266,0.119,0.553,0.182,0.844,0.188c1.178,0.085,2.361-0.082,3.47-0.489
			c0.559-0.273,1.17-0.426,1.792-0.448c0.752,0.146,1.403,0.615,1.781,1.281c1.133,1.625,1.203,3.764,0.178,5.46
			c-0.466,0.675-1.079,1.232-1.792,1.635c-1.583,0.83-3.341,1.265-5.127,1.272c-1.771,0.083-3.573,0-5.334,0.083
			c-0.417,0.075-0.848,0.018-1.23-0.167c-0.427-0.398-0.647-0.972-0.593-1.553c-0.063-1.345-0.292-2.479,0.489-3.614
			C41.929,126.182,42.983,124.986,44.104,123.853"/>
		<path clip-path="url(#SVGID_65_)" fill="#FFFFFF" d="M24.537,100.931c0,0-19.578,25.6-13.389,34.644s32.3-1.491,32.3-1.491
			l-2.543-7.491c0,0-18.337,2.324-18.473,0.272c-0.135-2.053,11.628-13.806,11.628-13.806S36.164,95.856,24.537,100.931"/>
	</g>
</g>
</svg>
