<?xml version="1.0" encoding="utf-8"?>
<!-- Generator: Adobe Illustrator 16.0.0, SVG Export Plug-In . SVG Version: 6.00 Build 0)  -->
<!DOCTYPE svg PUBLIC "-//W3C//DTD SVG 1.1//EN" "http://www.w3.org/Graphics/SVG/1.1/DTD/svg11.dtd">
<svg version="1.1" id="Layer_1" xmlns="http://www.w3.org/2000/svg" xmlns:xlink="http://www.w3.org/1999/xlink" x="0px" y="0px"
	 width="334.753px" height="265.446px" viewBox="0 0 334.753 265.446" enable-background="new 0 0 334.753 265.446"
	 xml:space="preserve">
<g>
	<defs>
		<rect id="SVGID_1_" width="334.753" height="265.446"/>
	</defs>
	<clipPath id="SVGID_2_">
		<use xlink:href="#SVGID_1_"  overflow="visible"/>
	</clipPath>
	<g clip-path="url(#SVGID_2_)">
		<defs>
			<rect id="SVGID_3_" width="334.753" height="265.446"/>
		</defs>
		<clipPath id="SVGID_4_">
			<use xlink:href="#SVGID_3_"  overflow="visible"/>
		</clipPath>
		<path clip-path="url(#SVGID_4_)" fill="none" stroke="#FFFFFF" stroke-width="1.164" stroke-miterlimit="24.243" d="M255.44,20.8
			c0,0,76.076,33.795,78.694,80.852c2.619,47.056-139.399,38.57-170.455,58.862c-31.055,20.292-165.655,51.13-163.061,15.783
			c2.594-35.347,34.572-47.541,34.572-47.541"/>
		<g opacity="0.18" clip-path="url(#SVGID_4_)" enable-background="new    ">
			<g>
				<defs>
					<rect id="SVGID_5_" x="55.495" y="42.014" width="263.149" height="161.695"/>
				</defs>
				<clipPath id="SVGID_6_">
					<use xlink:href="#SVGID_5_"  overflow="visible"/>
				</clipPath>
				<path clip-path="url(#SVGID_6_)" fill="#1D92DD" d="M56.233,172.758l46.426-123.884c1.555-4.128,5.505-6.861,9.916-6.861
					h195.498c5.842,0.014,10.57,4.753,10.57,10.595c-0.004,1.077-0.167,2.147-0.485,3.175l-44.923,140.613
					c-1.508,4.683-6.056,7.702-10.958,7.272L65.228,186.941c-5.831-0.477-10.172-5.588-9.698-11.419
					C55.644,174.573,55.88,173.645,56.233,172.758"/>
			</g>
		</g>
		<path clip-path="url(#SVGID_4_)" fill="#FFFFFF" d="M312.922,43.395L267.926,184.08c-1.532,4.677-6.078,7.687-10.981,7.273
			l-59.009-4.995l-137.92-11.781c-5.807-0.448-10.151-5.52-9.703-11.326c0.002-0.023,0.004-0.046,0.006-0.068
			c0.098-0.995,0.326-1.974,0.679-2.91l11.03-29.092L81.98,77.845l15.467-41.214c1.555-4.128,5.504-6.861,9.915-6.861h195.5
			c5.837,0,10.569,4.732,10.569,10.57C313.417,41.378,313.245,42.408,312.922,43.395"/>
		<g opacity="0.18" clip-path="url(#SVGID_4_)" enable-background="new    ">
			<g>
				<defs>
					<rect id="SVGID_7_" x="119.242" y="126.211" width="74.451" height="40.68"/>
				</defs>
				<clipPath id="SVGID_8_">
					<use xlink:href="#SVGID_7_"  overflow="visible"/>
				</clipPath>
				<polygon clip-path="url(#SVGID_8_)" fill="#1D92DD" points="119.242,165.8 133.667,126.211 193.693,126.211 178.033,166.891 
									"/>
			</g>
		</g>
		<path clip-path="url(#SVGID_4_)" fill="#1D92DD" d="M312.922,43.395L267.926,184.08c-1.532,4.677-6.078,7.687-10.981,7.273
			l-59.009-4.995l54.427-147.739l0.413-1.14l60.462,0.631c-0.01,0.178-0.01,0.356,0,0.534
			C313.497,40.23,313.389,41.856,312.922,43.395"/>
		<g opacity="0.18" clip-path="url(#SVGID_4_)" enable-background="new    ">
			<g>
				<defs>
					<rect id="SVGID_9_" x="63.87" y="50.059" width="58.157" height="56.515"/>
				</defs>
				<clipPath id="SVGID_10_">
					<use xlink:href="#SVGID_9_"  overflow="visible"/>
				</clipPath>
				<path clip-path="url(#SVGID_10_)" fill="#1D92DD" d="M121.835,54.547l-14.861,49.287c-0.451,1.632-1.943,2.756-3.637,2.739
					l-39.468-1.139l19.977-53.335l34.668-2.037c1.859-0.078,3.43,1.365,3.509,3.225C122.042,53.715,121.979,54.143,121.835,54.547"
					/>
			</g>
		</g>
		<path clip-path="url(#SVGID_4_)" fill="#FFFFFF" d="M31.384,91.712l15.37-43.517c0.482-1.428,1.77-2.43,3.273-2.545l64.778-3.831
			c1.887-0.059,3.465,1.423,3.523,3.31c0.013,0.408-0.047,0.813-0.177,1.2L103.29,95.64c-0.457,1.632-1.943,2.761-3.637,2.763
			L34.342,96.44c-1.885-0.109-3.325-1.726-3.215-3.61C31.149,92.445,31.236,92.067,31.384,91.712"/>
		<polygon clip-path="url(#SVGID_4_)" fill="#1D92DD" points="313.334,38.11 313.334,38.668 313.334,39.274 252.362,38.644 
			97.447,37.068 97.447,35.904 252.774,37.48 313.237,38.11 		"/>
		<polygon clip-path="url(#SVGID_4_)" fill="#1D92DD" points="52.597,87.154 44.305,87.154 48.669,75.881 56.936,75.881 		"/>
		<polygon clip-path="url(#SVGID_4_)" fill="#1D92DD" points="62.803,87.154 54.511,87.154 63.385,64.221 71.676,64.221 		"/>
		<polygon clip-path="url(#SVGID_4_)" fill="#1D92DD" points="73.034,87.154 64.743,87.154 70.149,73.19 78.416,73.19 		"/>
		<polygon clip-path="url(#SVGID_4_)" fill="#1D92DD" points="83.24,87.154 74.948,87.154 86.634,56.947 94.925,56.947 		"/>
	</g>
	<g clip-path="url(#SVGID_2_)">
		<defs>
			<polygon id="SVGID_11_" points="63.385,64.22 54.512,87.155 62.803,87.155 71.676,64.22 			"/>
		</defs>
		<clipPath id="SVGID_12_">
			<use xlink:href="#SVGID_11_"  overflow="visible"/>
		</clipPath>
		<defs>
			<filter id="Adobe_OpacityMaskFilter" filterUnits="userSpaceOnUse" x="51.254" y="57.272" width="23.68" height="36.83">
				<feColorMatrix  type="matrix" values="1 0 0 0 0  0 1 0 0 0  0 0 1 0 0  0 0 0 1 0"/>
			</filter>
		</defs>
		<mask maskUnits="userSpaceOnUse" x="51.254" y="57.272" width="23.68" height="36.83" id="SVGID_13_">
			<g filter="url(#Adobe_OpacityMaskFilter)">
				
					<linearGradient id="SVGID_14_" gradientUnits="userSpaceOnUse" x1="0" y1="265.4458" x2="1" y2="265.4458" gradientTransform="matrix(24.6487 162.8884 199.5802 -86.0533 -52920.1133 22882.3184)">
					<stop  offset="0" style="stop-color:#FFFFFF"/>
					<stop  offset="0.01" style="stop-color:#FFFFFF"/>
					<stop  offset="0.08" style="stop-color:#B0B0B0"/>
					<stop  offset="0.21" style="stop-color:#525252"/>
					<stop  offset="1" style="stop-color:#000000"/>
				</linearGradient>
				<polygon clip-path="url(#SVGID_12_)" fill="url(#SVGID_14_)" points="70.625,57.272 74.934,85.75 55.563,94.102 51.254,65.625 
									"/>
			</g>
		</mask>
		
			<linearGradient id="SVGID_15_" gradientUnits="userSpaceOnUse" x1="0" y1="265.4458" x2="1" y2="265.4458" gradientTransform="matrix(24.6487 162.8884 199.5802 -86.0534 -52920.1133 22882.3223)">
			<stop  offset="0" style="stop-color:#000000"/>
			<stop  offset="0.01" style="stop-color:#000000"/>
			<stop  offset="0.08" style="stop-color:#000000"/>
			<stop  offset="0.21" style="stop-color:#000000"/>
			<stop  offset="1" style="stop-color:#000000"/>
		</linearGradient>
		<polygon clip-path="url(#SVGID_12_)" mask="url(#SVGID_13_)" fill="url(#SVGID_15_)" points="70.625,57.272 74.934,85.75 
			55.563,94.102 51.254,65.625 		"/>
	</g>
	<g clip-path="url(#SVGID_2_)">
		<defs>
			<polygon id="SVGID_16_" points="86.634,56.947 74.949,87.155 83.24,87.155 94.926,56.947 			"/>
		</defs>
		<clipPath id="SVGID_17_">
			<use xlink:href="#SVGID_16_"  overflow="visible"/>
		</clipPath>
		<defs>
			<filter id="Adobe_OpacityMaskFilter_1_" filterUnits="userSpaceOnUse" x="70.656" y="48.86" width="28.563" height="46.381">
				<feColorMatrix  type="matrix" values="1 0 0 0 0  0 1 0 0 0  0 0 1 0 0  0 0 0 1 0"/>
			</filter>
		</defs>
		<mask maskUnits="userSpaceOnUse" x="70.656" y="48.86" width="28.563" height="46.381" id="SVGID_18_">
			<g filter="url(#Adobe_OpacityMaskFilter_1_)">
				
					<linearGradient id="SVGID_19_" gradientUnits="userSpaceOnUse" x1="0" y1="265.4448" x2="1" y2="265.4448" gradientTransform="matrix(24.6579 162.8646 199.556 -86.0533 -52892.6758 22873.2539)">
					<stop  offset="0" style="stop-color:#FFFFFF"/>
					<stop  offset="0.01" style="stop-color:#FFFFFF"/>
					<stop  offset="0.08" style="stop-color:#B0B0B0"/>
					<stop  offset="0.21" style="stop-color:#525252"/>
					<stop  offset="1" style="stop-color:#000000"/>
				</linearGradient>
				<polygon clip-path="url(#SVGID_17_)" fill="url(#SVGID_19_)" points="93.702,48.86 99.219,85.304 76.173,95.241 70.656,58.798 
									"/>
			</g>
		</mask>
		
			<linearGradient id="SVGID_20_" gradientUnits="userSpaceOnUse" x1="0" y1="265.4458" x2="1" y2="265.4458" gradientTransform="matrix(24.6579 162.8646 199.556 -86.0533 -52892.6797 22873.2559)">
			<stop  offset="0" style="stop-color:#000000"/>
			<stop  offset="0.01" style="stop-color:#000000"/>
			<stop  offset="0.08" style="stop-color:#000000"/>
			<stop  offset="0.21" style="stop-color:#000000"/>
			<stop  offset="1" style="stop-color:#000000"/>
		</linearGradient>
		<polygon clip-path="url(#SVGID_17_)" mask="url(#SVGID_18_)" fill="url(#SVGID_20_)" points="93.702,48.86 99.219,85.303 
			76.173,95.241 70.656,58.798 		"/>
	</g>
	<g clip-path="url(#SVGID_2_)">
		<defs>
			<rect id="SVGID_21_" width="334.753" height="265.446"/>
		</defs>
		<clipPath id="SVGID_22_">
			<use xlink:href="#SVGID_21_"  overflow="visible"/>
		</clipPath>
		<polygon clip-path="url(#SVGID_22_)" fill="#1D92DD" points="93.471,87.154 85.18,87.154 100.114,48.51 108.405,48.51 		"/>
		<path clip-path="url(#SVGID_22_)" fill="#FFFFFF" d="M284.896,73.772c2.041-7.562-2.435-15.347-9.997-17.388
			c-7.562-2.041-15.347,2.435-17.388,9.997s2.435,15.347,9.997,17.388c7.191,1.941,14.659-2.013,17.097-9.052l0.146-0.46
			L284.896,73.772z"/>
		<path clip-path="url(#SVGID_22_)" fill="#FFFFFF" d="M253.89,163.789c1.599-7.709-3.354-15.254-11.063-16.854
			c-6.899-1.429-13.808,2.394-16.259,8.998v0.46c0,0.146,0,0.316-0.17,0.461c-2.105,7.573,2.326,15.417,9.898,17.523
			c6.754,1.878,13.87-1.443,16.77-7.825c0.146-0.461,0.267-0.922,0.412-1.382C253.623,164.709,253.72,164.249,253.89,163.789"/>
		<path clip-path="url(#SVGID_22_)" fill="#FFFFFF" d="M268.387,113.968c-0.004-7.86-6.379-14.228-14.238-14.223
			c-7.854,0.004-14.219,6.369-14.224,14.223v0.994c0.005,7.859,6.38,14.227,14.239,14.223c7.854-0.005,14.219-6.37,14.223-14.223
			V113.968z"/>
		<path clip-path="url(#SVGID_22_)" fill="#1D92DD" d="M270.738,69.869L270.738,69.869l3.346-10.74
			c-0.944-0.29-1.922-0.462-2.908-0.509c-5.076-0.19-9.651,3.036-11.177,7.879c-0.291,0.945-0.462,1.922-0.51,2.91
			c-0.03,0.984,0.061,1.97,0.268,2.933c0.428,1.925,1.365,3.701,2.715,5.14c2.708,2.98,6.818,4.26,10.739,3.345
			c0.949-0.222,1.869-0.556,2.74-0.994c0.875-0.463,1.689-1.033,2.424-1.697c1.432-1.325,2.5-2.994,3.104-4.849L270.738,69.869z"/>
		<path clip-path="url(#SVGID_22_)" fill="#1D92DD" d="M254.35,114.428L254.35,114.428v-11.249c-1.967,0.015-3.896,0.541-5.6,1.527
			c-0.89,0.48-1.706,1.084-2.424,1.794c-4.392,4.358-4.418,11.449-0.061,15.84c1.414,1.424,3.186,2.443,5.127,2.949
			c1.902,0.533,3.915,0.533,5.818,0c0.949-0.245,1.86-0.612,2.715-1.091L254.35,114.428z"/>
		<path clip-path="url(#SVGID_22_)" fill="#1D92DD" d="M239.974,160.782l3.491-10.691c-1.881-0.6-3.884-0.708-5.818-0.314
			c-4.984,1.059-8.636,5.335-8.897,10.424c-0.052,0.977,0.028,1.956,0.243,2.91c0.198,0.96,0.524,1.89,0.969,2.764
			c1.322,2.647,3.642,4.663,6.45,5.599l3.49-10.715L239.974,160.782z"/>
		<path clip-path="url(#SVGID_22_)" fill="#FDB9A9" d="M97.277,117.919c-0.121,0.458-0.384,0.865-0.751,1.164
			c-0.526,0.295-1.118,0.454-1.722,0.46c-0.639,0.046-1.257,0.254-1.794,0.606c-0.147,0.29-0.147,0.632,0,0.921l0.704,3.928
			c0.096,0.308,0.096,0.638,0,0.945c-0.198,0.327-0.523,0.556-0.897,0.631c-1.407,0.557-3.152,1.042-4.268,0
			c-0.535-0.594-0.895-1.324-1.042-2.11c-1.457-4.402-2.193-9.011-2.182-13.649c-0.077-2.837,1.092-5.566,3.201-7.466
			c2.008-1.41,4.485-1.984,6.909-1.6c1.096,0.129,2.057,0.792,2.57,1.769c0.314,0.703,0,1.382,0,2.133
			c-0.014,1.103,0.06,2.206,0.218,3.298c0.103,0.507,0.233,1.009,0.387,1.503c0.188,0.417,0.319,0.857,0.389,1.309
			c-0.039,0.852-0.28,1.683-0.703,2.424c-0.386,0.883-0.686,1.8-0.897,2.74C97.391,117.26,97.35,117.593,97.277,117.919"/>
		<path clip-path="url(#SVGID_22_)" fill="#FDB9A9" d="M100.429,147.012c0,0,4.849,5.187,8.921,5.187
			c4.074,0,22.038-16.97,22.038-16.97c1.95-0.925,3.438-2.607,4.121-4.654c0.17-0.704,0.121-1.431,0.243-2.134
			c0.315-1.419,0.954-2.746,1.866-3.879c0.31-0.313,0.462-0.75,0.413-1.188c-0.146-0.533-0.776-0.703-1.31-0.8
			c-1.682-0.492-3.486-0.345-5.066,0.413c-1.118,0.914-1.895,2.177-2.206,3.588c-0.482-0.696-1.156-1.235-1.94-1.552
			c-0.488,0.283-0.703,0.876-0.509,1.406c0.18,0.513,0.391,1.015,0.63,1.503c0.333,1.876-0.464,3.773-2.036,4.849
			c-0.939,0.728-1.937,1.376-2.982,1.939l-11.007,6.425c-1.115,0.654-2.424,1.333-3.636,0.727c-0.558-0.291-0.946-0.848-1.552-1.114
			c-0.957-0.209-1.953,0.104-2.618,0.823C102.332,143.155,101.187,144.999,100.429,147.012"/>
		<path clip-path="url(#SVGID_22_)" fill="#FDB9A9" d="M56.572,218.821c-0.356,2.965-1.996,5.623-4.485,7.271
			c-4.509,2.11-10.303,2.644-15.152,3.687c-2.933,0.653-5.867,1.309-8.752,2.085c-2.424,0.653-5.018,0.582-6.667,2.715
			c-0.994,1.261-1.648,3.054-3.2,3.419c-1.137,0.177-2.27-0.337-2.885-1.31c-0.586-0.978-0.919-2.087-0.969-3.225
			c-0.073-0.425-0.073-0.86,0-1.285c0.128-0.452,0.36-0.867,0.678-1.212c1.664-1.516,3.681-2.591,5.867-3.127
			c1.88-0.662,3.705-1.472,5.455-2.425c1.435-0.706,2.927-1.29,4.461-1.745l8.849-3.225c2.085-0.751,5.212-1.042,6.012-3.418
			c0.3-1.164,0.455-2.361,0.46-3.564c0.171-2.383,0.902-4.692,2.134-6.74c0.15-0.343,0.393-0.637,0.703-0.848
			c0.365-0.197,0.774-0.297,1.188-0.291c1.13-0.134,2.276-0.001,3.345,0.387c1.404,0.682,2.478,1.895,2.982,3.371
			c0.467,1.472,0.648,3.019,0.534,4.558C57.086,215.551,56.9,217.2,56.572,218.821"/>
		<path clip-path="url(#SVGID_22_)" fill="#1D92DD" d="M16.741,230.021c-0.146,0.631-0.63,1.14-0.8,1.77
			c-0.097,0.512-0.097,1.039,0,1.551l0.461,2.426c0.042,1.003,0.89,1.781,1.893,1.738c0.064-0.003,0.128-0.008,0.192-0.018
			c0.204,0.015,0.392,0.122,0.508,0.291c0.049,0.134,0.049,0.279,0,0.412l-0.678,3.079c-0.279,1.29-0.727,2.537-1.334,3.709
			c-0.19,0.051-0.391,0.051-0.581,0c-1.552,0-2.158-3.928-2.716-5.406c-0.461-1.498-0.585-3.079-0.363-4.63
			c0-0.85,0.145-1.673,0.266-2.425c0.008-0.829,0.165-1.649,0.461-2.425c0.199-0.388,0.606-0.626,1.042-0.605
			C15.577,229.511,16.91,229.318,16.741,230.021"/>
		<path clip-path="url(#SVGID_22_)" fill="#FDB9A9" d="M82.464,219.282c1.713,2.495,2.212,5.629,1.357,8.532
			c-2.06,4.511-6.133,8.703-9.115,12.632c-1.843,2.424-3.637,4.849-5.358,7.272c-1.406,2.062-3.418,3.686-3.297,6.376
			c0,1.601,0.727,3.395-0.218,4.679c-0.755,0.87-1.953,1.213-3.055,0.873c-1.074-0.362-2.04-0.987-2.812-1.817
			c-0.319-0.285-0.589-0.621-0.8-0.994c-0.197-0.434-0.288-0.907-0.266-1.382c0.268-2.233,1.103-4.361,2.424-6.184
			c0.958-1.747,1.769-3.571,2.424-5.454c0.63-1.479,1.392-2.899,2.279-4.242l4.63-8.194c1.116-1.915,3.322-4.17,2.425-6.497
			c-0.525-1.081-1.185-2.091-1.964-3.006c-1.408-1.925-2.354-4.149-2.764-6.497c-0.072-0.368-0.072-0.747,0-1.116
			c0.146-0.385,0.388-0.728,0.703-0.994c0.789-0.833,1.76-1.472,2.837-1.866c1.503-0.404,3.106-0.178,4.436,0.631
			c1.316,0.804,2.461,1.856,3.37,3.103C80.738,216.435,81.663,217.824,82.464,219.282"/>
		<path clip-path="url(#SVGID_22_)" fill="#1D92DD" d="M59.433,253.634c0.291,0.582,0.267,1.285,0.558,1.866
			c0.27,0.445,0.634,0.824,1.067,1.114l1.866,1.528c0.217,0.189,0.463,0.345,0.727,0.461c0.701,0.115,1.419-0.061,1.989-0.485
			c0.161-0.196,0.451-0.225,0.648-0.063c0.073,0.06,0.126,0.142,0.151,0.232l1.479,2.813c0.636,1.149,1.109,2.382,1.407,3.661
			c-0.088,0.184-0.222,0.343-0.389,0.46c-1.211,0.994-4.193-1.601-5.551-2.424c-1.336-0.788-2.485-1.854-3.37-3.128
			c-0.485-0.68-0.946-1.383-1.406-2.061c-0.498-0.619-0.891-1.314-1.164-2.061c-0.1-0.442,0.059-0.903,0.412-1.188
			C58.172,253.997,59.069,253.003,59.433,253.634"/>
		<path clip-path="url(#SVGID_22_)" fill="#1D92DD" d="M106.514,140.878c-0.095,0.318-0.291,0.6-0.558,0.8
			c-1.842,1.769-3.709,3.491-5.527,5.261c-0.586,0.562-1.219,1.072-1.891,1.527c-0.606,0.362-1.261,0.605-1.867,0.97
			c-0.205,0.13-0.4,0.275-0.581,0.437c-1.285,1.18-2.281,2.64-2.909,4.267c-0.461,0.994-0.898,2.036-1.261,3.079
			c-0.971,2.709-1.694,5.5-2.158,8.34c-2.788,16.194,0.849,32.704,2.739,48.947c0.243,1.794,0.412,3.588,0.558,5.382
			c0,0.752,0.145,1.527,0.194,2.304c0.126,0.687,0.015,1.396-0.315,2.011c-0.388,0.455-0.903,0.784-1.479,0.946
			c-8.195,3.321-17.431,5.939-25.746,2.982c-5.383-1.915-9.698-5.939-14.401-9.189c-4.703-3.249-10.57-5.769-16.073-4.169
			c0.064-3.966,1.533-7.781,4.145-10.764c0.893-1.181,1.874-2.29,2.934-3.321l2.181-2.159c7.274-7.103,13.504-13.235,17.407-23.201
			c1.576-4.048,1.891-8.8,4.558-12.34c2.425-3.029,4.291-3.345,4.849-7.418c0.729-5.091,1.889-10.11,3.467-15.006
			c1.455-4.438,3.752-8.553,6.763-12.122c1.294-1.654,2.87-3.065,4.655-4.17c1.802-1.114,3.941-1.552,6.037-1.236
			c2.111,0.354,3.874,1.803,4.63,3.806c1.867,5.503,6.716,7.902,9.358,13.115C106.428,140.219,106.531,140.546,106.514,140.878"/>
		<path clip-path="url(#SVGID_22_)" fill="#473F47" d="M99.459,101.506c-0.396,1.728-1.635,3.141-3.297,3.758
			c-3.758,1.479-8.946,0.872-7.904,6.23c1.012,3.929,0.688,8.083-0.921,11.807c-1.044,1.367-1.772,2.949-2.133,4.63
			c0.024,0.743,0.121,1.483,0.291,2.206c1.12,6.522-3.196,12.737-9.698,13.964c-0.463,0.093-0.933,0.149-1.406,0.17
			c-1.418-0.103-2.84,0.139-4.145,0.702c-1.179,0.99-2.025,2.32-2.425,3.808c-0.505,1.563-1.457,2.945-2.739,3.975
			c-2.594,1.747-6.061,0.679-8.97-0.508c-2.2-0.783-4.268-1.894-6.134-3.297c-1.88-1.434-3.076-3.587-3.297-5.941
			c0.218-1.512,0.194-3.051-0.073-4.557c-0.517-0.847-1.092-1.656-1.721-2.424c-1.12-2.672-0.839-5.725,0.752-8.146
			c0.264-0.42,0.438-0.891,0.509-1.382c-0.038-0.476-0.153-0.942-0.339-1.382c-0.564-3.325,1.121-6.627,4.145-8.121
			c2.982-1.368,6.127-2.346,9.358-2.909c4.839-1.231,8.807-4.686,10.691-9.31c1.867-3.976,3.443-8.315,7.71-10.303
			c6.611-2.538,14.046-1.678,19.904,2.302C99.178,97.799,99.918,99.699,99.459,101.506"/>
	</g>
	<g clip-path="url(#SVGID_2_)">
		<defs>
			<path id="SVGID_23_" d="M87.604,155.206c-0.831,2.704-2.256,5.189-4.169,7.273c-1.964,2.012-3.322,2.521-2.813,6.013
				c0.012,0.096,0.012,0.194,0,0.29c0.315,1.94,1.091,3.782,1.527,5.698c0.558,2.666,0.461,5.43,0.8,8.121
				c0.625,4.937,2.673,9.587,5.892,13.383c0.506-2.678,0.587-5.419,0.242-8.123c-0.662-7.426-0.443-14.904,0.654-22.279
				c0.482-2.847,1.212-5.645,2.183-8.363c0.598-2.801,2.055-5.342,4.169-7.273c0.178-0.166,0.373-0.313,0.582-0.436
				c0.606-0.364,1.261-0.607,1.866-0.97c-1.503-2.4-6.229-6.377-5.866-7.662C90.909,145.581,89.221,150.357,87.604,155.206"/>
		</defs>
		<clipPath id="SVGID_24_">
			<use xlink:href="#SVGID_23_"  overflow="visible"/>
		</clipPath>
		<defs>
			<filter id="Adobe_OpacityMaskFilter_2_" filterUnits="userSpaceOnUse" x="68.509" y="136.999" width="41.631" height="62.865">
				<feColorMatrix  type="matrix" values="1 0 0 0 0  0 1 0 0 0  0 0 1 0 0  0 0 0 1 0"/>
			</filter>
		</defs>
		<mask maskUnits="userSpaceOnUse" x="68.509" y="136.999" width="41.631" height="62.865" id="SVGID_25_">
			<g filter="url(#Adobe_OpacityMaskFilter_2_)">
				
					<linearGradient id="SVGID_26_" gradientUnits="userSpaceOnUse" x1="0" y1="265.4429" x2="1" y2="265.4429" gradientTransform="matrix(105.1678 23.2252 23.2252 -105.1678 -6120.5215 28074.5488)">
					<stop  offset="0" style="stop-color:#FFFFFF"/>
					<stop  offset="0.01" style="stop-color:#FFFFFF"/>
					<stop  offset="0.13" style="stop-color:#B0B0B0"/>
					<stop  offset="0.25" style="stop-color:#525252"/>
					<stop  offset="1" style="stop-color:#000000"/>
				</linearGradient>
				<polygon clip-path="url(#SVGID_24_)" fill="url(#SVGID_26_)" points="80.97,136.999 110.141,143.44 97.68,199.864 
					68.509,193.421 				"/>
			</g>
		</mask>
		
			<linearGradient id="SVGID_27_" gradientUnits="userSpaceOnUse" x1="0" y1="265.4429" x2="1" y2="265.4429" gradientTransform="matrix(105.1678 23.2252 23.2252 -105.1678 -6120.5215 28074.5488)">
			<stop  offset="0" style="stop-color:#000000"/>
			<stop  offset="0.01" style="stop-color:#000000"/>
			<stop  offset="0.13" style="stop-color:#000000"/>
			<stop  offset="0.25" style="stop-color:#000000"/>
			<stop  offset="1" style="stop-color:#000000"/>
		</linearGradient>
		<polygon clip-path="url(#SVGID_24_)" mask="url(#SVGID_25_)" fill="url(#SVGID_27_)" points="80.97,136.999 110.141,143.44 
			97.68,199.864 68.509,193.421 		"/>
	</g>
	<g clip-path="url(#SVGID_2_)">
		<defs>
			<rect id="SVGID_28_" width="334.753" height="265.446"/>
		</defs>
		<clipPath id="SVGID_29_">
			<use xlink:href="#SVGID_28_"  overflow="visible"/>
		</clipPath>
		<g opacity="0.38" clip-path="url(#SVGID_29_)" enable-background="new    ">
			<g>
				<defs>
					<rect id="SVGID_30_" x="39.481" y="198.65" width="53.602" height="23.068"/>
				</defs>
				<clipPath id="SVGID_31_">
					<use xlink:href="#SVGID_30_"  overflow="visible"/>
				</clipPath>
				<path clip-path="url(#SVGID_31_)" fill="#FFFFFF" d="M93.083,219.96c-8.389,2.551-17.377,2.32-25.625-0.655
					c-3.11-1.048-5.985-2.695-8.461-4.849c-0.946-0.872-1.794-1.843-2.764-2.666c-1.478-1.21-3.108-2.222-4.849-3.008
					c-3.758-1.794-7.685-2.933-11.491-4.483l-0.412-0.17c0.899-1.174,1.88-2.283,2.934-3.321l2.206-2.159h0.484
					c2.43,0.332,4.804,0.993,7.055,1.964c3.597,2.062,6.997,4.447,10.158,7.128c3.18,2.138,6.537,3.994,10.037,5.553
					c2.205,1.133,4.542,1.987,6.957,2.545c2.411,0.332,4.852,0.381,7.274,0.145c2.07,0.049,4.118-0.443,5.939-1.429
					C92.744,216.373,92.913,218.142,93.083,219.96"/>
			</g>
		</g>
		<g opacity="0.18" clip-path="url(#SVGID_29_)" enable-background="new    ">
			<g>
				<defs>
					<rect id="SVGID_32_" x="136.406" y="74.863" width="74.476" height="40.681"/>
				</defs>
				<clipPath id="SVGID_33_">
					<use xlink:href="#SVGID_32_"  overflow="visible"/>
				</clipPath>
				<polygon clip-path="url(#SVGID_33_)" fill="#1D92DD" points="136.406,114.477 150.831,74.863 210.882,74.863 195.197,115.543 
									"/>
			</g>
		</g>
		<polygon clip-path="url(#SVGID_29_)" fill="#1D92DD" points="216.748,0 241.599,11.491 237.404,26.134 		"/>
		<polygon clip-path="url(#SVGID_29_)" fill="#1D92DD" points="216.748,0 255.465,0 243.684,7.2 		"/>
		<polygon clip-path="url(#SVGID_29_)" fill="#1D92DD" points="248.168,17.964 241.598,11.491 216.748,0 243.684,7.2 		"/>
	</g>
	<g clip-path="url(#SVGID_2_)">
		<defs>
			<polygon id="SVGID_34_" points="241.598,11.491 248.168,17.964 243.683,7.2 216.748,0 			"/>
		</defs>
		<clipPath id="SVGID_35_">
			<use xlink:href="#SVGID_34_"  overflow="visible"/>
		</clipPath>
		<defs>
			<filter id="Adobe_OpacityMaskFilter_3_" filterUnits="userSpaceOnUse" x="214.389" y="-4.127" width="36.139" height="26.218">
				<feColorMatrix  type="matrix" values="1 0 0 0 0  0 1 0 0 0  0 0 1 0 0  0 0 0 1 0"/>
			</filter>
		</defs>
		<mask maskUnits="userSpaceOnUse" x="214.389" y="-4.127" width="36.139" height="26.218" id="SVGID_36_">
			<g filter="url(#Adobe_OpacityMaskFilter_3_)">
				
					<linearGradient id="SVGID_37_" gradientUnits="userSpaceOnUse" x1="0" y1="265.4458" x2="1" y2="265.4458" gradientTransform="matrix(10.2065 76.3424 76.3424 -10.2065 -20035.5898 2693.6453)">
					<stop  offset="0" style="stop-color:#FFFFFF"/>
					<stop  offset="0.01" style="stop-color:#FFFFFF"/>
					<stop  offset="0.08" style="stop-color:#B0B0B0"/>
					<stop  offset="0.21" style="stop-color:#525252"/>
					<stop  offset="1" style="stop-color:#000000"/>
				</linearGradient>
				<polygon clip-path="url(#SVGID_35_)" fill="url(#SVGID_37_)" points="247.616,-4.127 250.527,17.648 217.3,22.091 
					214.389,0.315 				"/>
			</g>
		</mask>
		
			<linearGradient id="SVGID_38_" gradientUnits="userSpaceOnUse" x1="0" y1="265.4458" x2="1" y2="265.4458" gradientTransform="matrix(10.2065 76.3424 76.3424 -10.2065 -20035.5898 2693.6453)">
			<stop  offset="0" style="stop-color:#000000"/>
			<stop  offset="0.01" style="stop-color:#000000"/>
			<stop  offset="0.08" style="stop-color:#000000"/>
			<stop  offset="0.21" style="stop-color:#000000"/>
			<stop  offset="1" style="stop-color:#000000"/>
		</linearGradient>
		<polygon clip-path="url(#SVGID_35_)" mask="url(#SVGID_36_)" fill="url(#SVGID_38_)" points="247.616,-4.127 250.527,17.648 
			217.3,22.091 214.389,0.315 		"/>
	</g>
	<g clip-path="url(#SVGID_2_)">
		<defs>
			<rect id="SVGID_39_" width="334.753" height="265.446"/>
		</defs>
		<clipPath id="SVGID_40_">
			<use xlink:href="#SVGID_39_"  overflow="visible"/>
		</clipPath>
		<polygon clip-path="url(#SVGID_40_)" fill="#1D92DD" points="248.168,17.964 241.598,11.491 216.748,0 		"/>
	</g>
</g>
</svg>
