<?xml version="1.0" encoding="utf-8"?>
<!-- Generator: Adobe Illustrator 16.0.0, SVG Export Plug-In . SVG Version: 6.00 Build 0)  -->
<!DOCTYPE svg PUBLIC "-//W3C//DTD SVG 1.1//EN" "http://www.w3.org/Graphics/SVG/1.1/DTD/svg11.dtd">
<svg version="1.1" id="Layer_1" xmlns="http://www.w3.org/2000/svg" xmlns:xlink="http://www.w3.org/1999/xlink" x="0px" y="0px"
	 width="350.817px" height="245.625px" viewBox="0 0 350.817 245.625" enable-background="new 0 0 350.817 245.625"
	 xml:space="preserve">
<g>
	<defs>
		<rect id="SVGID_1_" width="350.817" height="245.625"/>
	</defs>
	<clipPath id="SVGID_2_">
		<use xlink:href="#SVGID_1_"  overflow="visible"/>
	</clipPath>
	<g clip-path="url(#SVGID_2_)">
		<defs>
			<path id="SVGID_3_" d="M60.938,220.069c-17.508,2.638-35.092,5.289-51.998,10.52c-3.032,0.945-6.164,2.042-8.332,4.357
				c-0.221,0.233-0.424,0.484-0.608,0.75c2.503,3.553,5.318,6.875,8.411,9.929l0.409-0.04
				c43.958-3.133,87.268-11.799,131.055-16.781c34.04-3.871,68.151-6.871,102.331-8.996c1.03,2.185-0.425,4.867-2.484,6.137
				c-2.058,1.267-4.544,1.557-6.897,2.087c-3.99,0.889-7.773,2.532-11.146,4.838c-1.523,1.053-3.122,2.747-2.502,4.493
				c0.341,0.972,1.28,1.587,2.184,2.082c13.103,7.307,29.185,6.477,43.906,3.575c14.724-2.898,29.236-7.71,44.238-7.773
				c4.348-0.016,8.87-0.938,9.586-5.402c0.614-3.77-4.174-6.442,1.354-10.234c2.905-2.015,6.683-2.179,10.235-2.275
				c5.392-0.16,10.799-0.301,16.195-0.455c1.513-3.542,2.804-7.012,3.941-10.31c-8.899-1.263-17.84-2.167-26.784-2.787
				c-19.069-1.335-38.125-1.943-57.187-1.943C197.914,201.841,129.098,209.796,60.938,220.069"/>
		</defs>
		<clipPath id="SVGID_4_">
			<use xlink:href="#SVGID_3_"  overflow="visible"/>
		</clipPath>
		<defs>
			<filter id="Adobe_OpacityMaskFilter" filterUnits="userSpaceOnUse" x="-7.375" y="144.23" width="365.566" height="160.129">
				<feColorMatrix  type="matrix" values="1 0 0 0 0  0 1 0 0 0  0 0 1 0 0  0 0 0 1 0"/>
			</filter>
		</defs>
		<mask maskUnits="userSpaceOnUse" x="-7.375" y="144.23" width="365.566" height="160.129" id="SVGID_5_">
			<g filter="url(#Adobe_OpacityMaskFilter)">
				
					<linearGradient id="SVGID_6_" gradientUnits="userSpaceOnUse" x1="0" y1="245.623" x2="1" y2="245.623" gradientTransform="matrix(-126.3863 748.2982 -748.2982 -126.3863 184033.25 30925.7637)">
					<stop  offset="0" style="stop-color:#FFFFFF"/>
					<stop  offset="0.01" style="stop-color:#FFFFFF"/>
					<stop  offset="0.08" style="stop-color:#B0B0B0"/>
					<stop  offset="0.21" style="stop-color:#525252"/>
					<stop  offset="1" style="stop-color:#000000"/>
				</linearGradient>
				<polygon clip-path="url(#SVGID_4_)" fill="url(#SVGID_6_)" points="9.73,144.23 -7.375,245.506 341.086,304.359 
					358.191,203.085 				"/>
			</g>
		</mask>
		
			<linearGradient id="SVGID_7_" gradientUnits="userSpaceOnUse" x1="0" y1="245.623" x2="1" y2="245.623" gradientTransform="matrix(-126.3863 748.2982 -748.2982 -126.3863 184033.25 30925.7637)">
			<stop  offset="0" style="stop-color:#000000"/>
			<stop  offset="0.01" style="stop-color:#000000"/>
			<stop  offset="0.08" style="stop-color:#000000"/>
			<stop  offset="0.21" style="stop-color:#000000"/>
			<stop  offset="1" style="stop-color:#000000"/>
		</linearGradient>
		<polygon clip-path="url(#SVGID_4_)" mask="url(#SVGID_5_)" fill="url(#SVGID_7_)" points="9.73,144.23 -7.375,245.506 
			341.086,304.359 358.191,203.085 		"/>
	</g>
	<g clip-path="url(#SVGID_2_)">
		<defs>
			<rect id="SVGID_8_" width="350.817" height="245.625"/>
		</defs>
		<clipPath id="SVGID_9_">
			<use xlink:href="#SVGID_8_"  overflow="visible"/>
		</clipPath>
		<g opacity="0.5" clip-path="url(#SVGID_9_)" enable-background="new    ">
			<g>
				<defs>
					<rect id="SVGID_10_" x="117.197" width="26.977" height="205.017"/>
				</defs>
				<clipPath id="SVGID_11_">
					<use xlink:href="#SVGID_10_"  overflow="visible"/>
				</clipPath>
				<rect x="117.197" clip-path="url(#SVGID_11_)" fill="#1D92DD" width="26.978" height="205.017"/>
			</g>
		</g>
		<g opacity="0.5" clip-path="url(#SVGID_9_)" enable-background="new    ">
			<g>
				<defs>
					<rect id="SVGID_12_" x="177.003" y="63.686" width="26.979" height="139.119"/>
				</defs>
				<clipPath id="SVGID_13_">
					<use xlink:href="#SVGID_12_"  overflow="visible"/>
				</clipPath>
				<rect x="177.003" y="63.685" clip-path="url(#SVGID_13_)" fill="#1D92DD" width="26.979" height="139.119"/>
			</g>
		</g>
		<g opacity="0.5" clip-path="url(#SVGID_9_)" enable-background="new    ">
			<g>
				<defs>
					<rect id="SVGID_14_" x="226.785" y="109.986" width="26.977" height="92.819"/>
				</defs>
				<clipPath id="SVGID_15_">
					<use xlink:href="#SVGID_14_"  overflow="visible"/>
				</clipPath>
				<rect x="226.785" y="109.987" clip-path="url(#SVGID_15_)" fill="#1D92DD" width="26.978" height="92.817"/>
			</g>
		</g>
		<polygon clip-path="url(#SVGID_9_)" fill="#FFFFFF" points="55.126,154.154 134.019,165.853 134.019,230.521 143.025,230.521 
			143.025,234.348 122.27,234.348 122.27,231.886 131.544,231.886 131.544,178.266 56.946,163.845 56.946,216.037 67.331,216.037 
			67.331,217.812 46.426,217.812 46.426,215.764 55.126,215.764 		"/>
	</g>
	<g clip-path="url(#SVGID_2_)">
		<defs>
			<polygon id="SVGID_16_" points="53.893,215.764 45.198,215.764 45.198,217.811 66.102,217.811 66.102,216.038 55.718,216.038 
				55.718,163.845 130.315,178.266 130.315,231.886 121.035,231.886 121.035,234.348 141.798,234.348 141.798,230.521 
				132.79,230.521 132.79,165.853 53.893,154.154 			"/>
		</defs>
		<clipPath id="SVGID_17_">
			<use xlink:href="#SVGID_16_"  overflow="visible"/>
		</clipPath>
		<defs>
			<filter id="Adobe_OpacityMaskFilter_1_" filterUnits="userSpaceOnUse" x="26.941" y="132.162" width="133.113" height="124.178">
				<feColorMatrix  type="matrix" values="1 0 0 0 0  0 1 0 0 0  0 0 1 0 0  0 0 0 1 0"/>
			</filter>
		</defs>
		<mask maskUnits="userSpaceOnUse" x="26.941" y="132.162" width="133.113" height="124.178" id="SVGID_18_">
			<g filter="url(#Adobe_OpacityMaskFilter_1_)">
				
					<linearGradient id="SVGID_19_" gradientUnits="userSpaceOnUse" x1="0" y1="245.6025" x2="1" y2="245.6025" gradientTransform="matrix(40.8076 169.4231 -169.4231 40.8076 41686.6719 -9901.3594)">
					<stop  offset="0" style="stop-color:#FFFFFF"/>
					<stop  offset="0.01" style="stop-color:#FFFFFF"/>
					<stop  offset="0.08" style="stop-color:#B0B0B0"/>
					<stop  offset="0.21" style="stop-color:#525252"/>
					<stop  offset="1" style="stop-color:#000000"/>
				</linearGradient>
				<polygon clip-path="url(#SVGID_17_)" fill="url(#SVGID_19_)" points="26.941,158.552 50.495,256.34 160.055,229.951 
					136.501,132.162 				"/>
			</g>
		</mask>
		
			<linearGradient id="SVGID_20_" gradientUnits="userSpaceOnUse" x1="0" y1="245.6025" x2="1" y2="245.6025" gradientTransform="matrix(40.8076 169.4231 -169.4231 40.8076 41686.6719 -9901.3594)">
			<stop  offset="0" style="stop-color:#000000"/>
			<stop  offset="0.01" style="stop-color:#000000"/>
			<stop  offset="0.08" style="stop-color:#000000"/>
			<stop  offset="0.21" style="stop-color:#000000"/>
			<stop  offset="1" style="stop-color:#000000"/>
		</linearGradient>
		<polygon clip-path="url(#SVGID_17_)" mask="url(#SVGID_18_)" fill="url(#SVGID_20_)" points="26.941,158.552 50.495,256.34 
			160.055,229.951 136.501,132.162 		"/>
	</g>
	<g clip-path="url(#SVGID_2_)">
		<defs>
			<rect id="SVGID_21_" width="350.817" height="245.625"/>
		</defs>
		<clipPath id="SVGID_22_">
			<use xlink:href="#SVGID_21_"  overflow="visible"/>
		</clipPath>
		<polygon clip-path="url(#SVGID_22_)" fill="#1D92DD" points="273.967,155.548 275.286,220.342 284.067,220.342 286.598,168.843 
			292.13,220.342 302.19,222.03 304.498,153.427 		"/>
	</g>
	<g clip-path="url(#SVGID_2_)">
		<defs>
			<polygon id="SVGID_23_" points="273.967,155.548 275.287,220.342 284.067,220.342 286.597,168.843 292.13,220.342 
				302.189,222.031 304.499,153.427 			"/>
		</defs>
		<clipPath id="SVGID_24_">
			<use xlink:href="#SVGID_23_"  overflow="visible"/>
		</clipPath>
		<defs>
			<filter id="Adobe_OpacityMaskFilter_2_" filterUnits="userSpaceOnUse" x="243.831" y="140.015" width="90.804" height="95.429">
				<feColorMatrix  type="matrix" values="1 0 0 0 0  0 1 0 0 0  0 0 1 0 0  0 0 0 1 0"/>
			</filter>
		</defs>
		<mask maskUnits="userSpaceOnUse" x="243.831" y="140.015" width="90.804" height="95.429" id="SVGID_25_">
			<g filter="url(#Adobe_OpacityMaskFilter_2_)">
				
					<linearGradient id="SVGID_26_" gradientUnits="userSpaceOnUse" x1="0" y1="245.6221" x2="1" y2="245.6221" gradientTransform="matrix(-108.2686 64.3731 64.3731 108.2686 -15493.6543 -26422.4785)">
					<stop  offset="0" style="stop-color:#FFFFFF"/>
					<stop  offset="0.01" style="stop-color:#FFFFFF"/>
					<stop  offset="0.08" style="stop-color:#B0B0B0"/>
					<stop  offset="0.21" style="stop-color:#525252"/>
					<stop  offset="1" style="stop-color:#000000"/>
				</linearGradient>
				<polygon clip-path="url(#SVGID_24_)" fill="url(#SVGID_26_)" points="334.635,204.113 281.941,235.443 243.831,171.345 
					296.524,140.015 				"/>
			</g>
		</mask>
		
			<linearGradient id="SVGID_27_" gradientUnits="userSpaceOnUse" x1="0" y1="245.6221" x2="1" y2="245.6221" gradientTransform="matrix(-108.2686 64.3732 64.3732 108.2686 -15493.6563 -26422.4805)">
			<stop  offset="0" style="stop-color:#000000"/>
			<stop  offset="0.01" style="stop-color:#000000"/>
			<stop  offset="0.08" style="stop-color:#000000"/>
			<stop  offset="0.21" style="stop-color:#000000"/>
			<stop  offset="1" style="stop-color:#000000"/>
		</linearGradient>
		<polygon clip-path="url(#SVGID_24_)" mask="url(#SVGID_25_)" fill="url(#SVGID_27_)" points="334.635,204.113 281.941,235.443 
			243.831,171.345 296.524,140.015 		"/>
	</g>
	<g clip-path="url(#SVGID_2_)">
		<defs>
			<polygon id="SVGID_28_" points="296.173,159.279 296.173,219.335 301.69,220.342 304.499,153.427 			"/>
		</defs>
		<clipPath id="SVGID_29_">
			<use xlink:href="#SVGID_28_"  overflow="visible"/>
		</clipPath>
		<defs>
			<filter id="Adobe_OpacityMaskFilter_3_" filterUnits="userSpaceOnUse" x="263.109" y="149.313" width="74.453" height="75.144">
				<feColorMatrix  type="matrix" values="1 0 0 0 0  0 1 0 0 0  0 0 1 0 0  0 0 0 1 0"/>
			</filter>
		</defs>
		<mask maskUnits="userSpaceOnUse" x="263.109" y="149.313" width="74.453" height="75.144" id="SVGID_30_">
			<g filter="url(#Adobe_OpacityMaskFilter_3_)">
				
					<linearGradient id="SVGID_31_" gradientUnits="userSpaceOnUse" x1="0" y1="245.6211" x2="1" y2="245.6211" gradientTransform="matrix(57.8449 49.5821 49.5821 -57.8449 -11902.7969 14373.5332)">
					<stop  offset="0" style="stop-color:#FFFFFF"/>
					<stop  offset="0.01" style="stop-color:#FFFFFF"/>
					<stop  offset="0.08" style="stop-color:#B0B0B0"/>
					<stop  offset="0.21" style="stop-color:#525252"/>
					<stop  offset="1" style="stop-color:#000000"/>
				</linearGradient>
				<polygon clip-path="url(#SVGID_29_)" fill="url(#SVGID_31_)" points="299.699,149.313 337.563,181.768 300.973,224.456 
					263.109,192.001 				"/>
			</g>
		</mask>
		
			<linearGradient id="SVGID_32_" gradientUnits="userSpaceOnUse" x1="0" y1="245.6211" x2="1" y2="245.6211" gradientTransform="matrix(57.8449 49.5821 49.5821 -57.8449 -11902.7969 14373.5332)">
			<stop  offset="0" style="stop-color:#000000"/>
			<stop  offset="0.01" style="stop-color:#000000"/>
			<stop  offset="0.08" style="stop-color:#000000"/>
			<stop  offset="0.21" style="stop-color:#000000"/>
			<stop  offset="1" style="stop-color:#000000"/>
		</linearGradient>
		<polygon clip-path="url(#SVGID_29_)" mask="url(#SVGID_30_)" fill="url(#SVGID_32_)" points="299.699,149.313 337.563,181.768 
			300.973,224.456 263.109,192.001 		"/>
	</g>
	<g clip-path="url(#SVGID_2_)">
		<defs>
			<rect id="SVGID_33_" width="350.817" height="245.625"/>
		</defs>
		<clipPath id="SVGID_34_">
			<use xlink:href="#SVGID_33_"  overflow="visible"/>
		</clipPath>
		<path clip-path="url(#SVGID_34_)" fill="#1D92DD" d="M263.361,101.939v0.273c0.217,4.942,0.568,9.9,1.138,14.82
			c0.245,2.081,0.232,5.203,1.302,7.074c1.576,2.752,8.928-0.397,11.249-1.456c3.446-1.575,6.606-3.696,9.757-5.806
			c0.251-0.137,0.466-0.333,0.626-0.569c0.115-0.237,0.171-0.499,0.165-0.762c0.268-5.2-1.503-10.301-4.936-14.217
			c-2.758,3.534-5.819,6.818-9.15,9.816l-0.443-2.275l-1.331-6.824c-0.397-2.03-0.146-3.412-2.377-2.576
			C267.331,100.2,265.352,101.104,263.361,101.939"/>
	</g>
	<g clip-path="url(#SVGID_2_)">
		<defs>
			<path id="SVGID_35_" d="M266.734,102.178c-1.115,0.006-2.247,0.006-3.367,0.035c0.176,4.043,0.443,8.086,0.835,12.118
				c0.313,3.258-0.102,11.607,4.767,11.004c3.896-0.478,7.238-2.934,10.969-4.129c1.348-0.433,2.775-0.711,3.98-1.433
				c1.696-1.125,2.911-2.839,3.412-4.811c0.484-1.953,0.725-3.958,0.718-5.97c-3.355,1.33-6.092,3.821-8.924,6.062
				c-1.84,1.558-3.902,2.834-6.118,3.787c-2.588,1.018-3.469,0.887-3.354-2.013c0.183-4.715-0.457-9.427-1.895-13.921
				c-0.051-0.215-0.159-0.411-0.312-0.569c-0.176-0.11-0.376-0.168-0.579-0.168C266.822,102.17,266.778,102.173,266.734,102.178"/>
		</defs>
		<clipPath id="SVGID_36_">
			<use xlink:href="#SVGID_35_"  overflow="visible"/>
		</clipPath>
		<defs>
			<filter id="Adobe_OpacityMaskFilter_4_" filterUnits="userSpaceOnUse" x="254.143" y="92.588" width="43.137" height="42.931">
				<feColorMatrix  type="matrix" values="1 0 0 0 0  0 1 0 0 0  0 0 1 0 0  0 0 0 1 0"/>
			</filter>
		</defs>
		<mask maskUnits="userSpaceOnUse" x="254.143" y="92.588" width="43.137" height="42.931" id="SVGID_37_">
			<g filter="url(#Adobe_OpacityMaskFilter_4_)">
				
					<linearGradient id="SVGID_38_" gradientUnits="userSpaceOnUse" x1="0" y1="245.585" x2="1" y2="245.585" gradientTransform="matrix(82.8022 -39.4205 -39.4205 -82.8022 9922.7598 20465.2852)">
					<stop  offset="0" style="stop-color:#FFFFFF"/>
					<stop  offset="0.01" style="stop-color:#FFFFFF"/>
					<stop  offset="0.08" style="stop-color:#B0B0B0"/>
					<stop  offset="0.21" style="stop-color:#525252"/>
					<stop  offset="1" style="stop-color:#000000"/>
				</linearGradient>
				<polygon clip-path="url(#SVGID_36_)" fill="url(#SVGID_38_)" points="254.143,106.562 283.493,92.588 297.279,121.546 
					267.929,135.52 				"/>
			</g>
		</mask>
		
			<linearGradient id="SVGID_39_" gradientUnits="userSpaceOnUse" x1="0" y1="245.5859" x2="1" y2="245.5859" gradientTransform="matrix(82.8022 -39.4205 -39.4205 -82.8022 9922.7588 20465.2832)">
			<stop  offset="0" style="stop-color:#000000"/>
			<stop  offset="0.01" style="stop-color:#000000"/>
			<stop  offset="0.08" style="stop-color:#000000"/>
			<stop  offset="0.21" style="stop-color:#000000"/>
			<stop  offset="1" style="stop-color:#000000"/>
		</linearGradient>
		<polygon clip-path="url(#SVGID_36_)" mask="url(#SVGID_37_)" fill="url(#SVGID_39_)" points="254.143,106.562 283.493,92.588 
			297.279,121.546 267.929,135.52 		"/>
	</g>
	<g clip-path="url(#SVGID_2_)">
		<defs>
			<rect id="SVGID_40_" width="350.817" height="245.625"/>
		</defs>
		<clipPath id="SVGID_41_">
			<use xlink:href="#SVGID_40_"  overflow="visible"/>
		</clipPath>
		<path clip-path="url(#SVGID_41_)" fill="#1D92DD" d="M297.987,98.232c2.337,1.174,4.615,2.465,6.824,3.867
			c4.697,3.008,3.856,4.407,2.986,9.599c-1.831,11.115-2.745,22.361-2.73,33.625c0,2.645,0.177,5.556-0.568,8.126
			c-0.49,1.706-1.615,3.077-1.74,4.851c-7.245,0.995-23.828,4.726-28.797-2.724c-4.748-7.125,3.798-32.448,2.217-43.69
			c-1.581-11.243,12.983-12.511,12.983-12.511L297.987,98.232z"/>
	</g>
	<g clip-path="url(#SVGID_2_)">
		<defs>
			<path id="SVGID_42_" d="M286.597,149.389l1.405,0.779l13.13,8.861l2.15-2.742c1.268-4.567,1.859-9.296,1.757-14.035
				c-0.113-2.507-0.142-3.809-0.132-4.444L286.597,149.389z M304.907,137.808l0.166-0.104c0,0-0.062-0.438-0.11-0.438
				C304.938,137.265,304.914,137.398,304.907,137.808"/>
		</defs>
		<clipPath id="SVGID_43_">
			<use xlink:href="#SVGID_42_"  overflow="visible"/>
		</clipPath>
		<defs>
			<filter id="Adobe_OpacityMaskFilter_5_" filterUnits="userSpaceOnUse" x="278.232" y="130.138" width="35.274" height="36.019">
				<feColorMatrix  type="matrix" values="1 0 0 0 0  0 1 0 0 0  0 0 1 0 0  0 0 0 1 0"/>
			</filter>
		</defs>
		<mask maskUnits="userSpaceOnUse" x="278.232" y="130.138" width="35.274" height="36.019" id="SVGID_44_">
			<g filter="url(#Adobe_OpacityMaskFilter_5_)">
				
					<linearGradient id="SVGID_45_" gradientUnits="userSpaceOnUse" x1="0" y1="245.5879" x2="1" y2="245.5879" gradientTransform="matrix(21.4217 45.6924 45.6924 -21.4217 -10932.0811 5395.1108)">
					<stop  offset="0" style="stop-color:#FFFFFF"/>
					<stop  offset="0.01" style="stop-color:#FFFFFF"/>
					<stop  offset="0.08" style="stop-color:#B0B0B0"/>
					<stop  offset="0.21" style="stop-color:#525252"/>
					<stop  offset="1" style="stop-color:#000000"/>
				</linearGradient>
				<polygon clip-path="url(#SVGID_43_)" fill="url(#SVGID_45_)" points="301.801,130.138 313.507,155.107 289.938,166.156 
					278.232,141.187 				"/>
			</g>
		</mask>
		
			<linearGradient id="SVGID_46_" gradientUnits="userSpaceOnUse" x1="0" y1="245.5859" x2="1" y2="245.5859" gradientTransform="matrix(21.4217 45.6924 45.6924 -21.4217 -10932.0811 5395.1104)">
			<stop  offset="0" style="stop-color:#000000"/>
			<stop  offset="0.01" style="stop-color:#000000"/>
			<stop  offset="0.08" style="stop-color:#000000"/>
			<stop  offset="0.21" style="stop-color:#000000"/>
			<stop  offset="1" style="stop-color:#000000"/>
		</linearGradient>
		<polygon clip-path="url(#SVGID_43_)" mask="url(#SVGID_44_)" fill="url(#SVGID_46_)" points="301.801,130.138 313.507,155.107 
			289.938,166.156 278.232,141.187 		"/>
	</g>
	<g clip-path="url(#SVGID_2_)">
		<defs>
			<rect id="SVGID_47_" width="350.817" height="245.625"/>
		</defs>
		<clipPath id="SVGID_48_">
			<use xlink:href="#SVGID_47_"  overflow="visible"/>
		</clipPath>
		<path clip-path="url(#SVGID_48_)" fill="#FFBBAB" d="M281.467,87.274c-0.122,2.356,0.561,4.684,1.935,6.603
			c0.215,0.468,0.534,0.883,0.932,1.21c0.763,0.535,1.792,0.365,2.713,0.217c0.212-0.057,0.437-0.057,0.649,0
			c0.517,0.193,0.568,0.892,0.568,1.45l-0.143,2.576c-0.056,0.353,0.006,0.715,0.176,1.029c0.177,0.216,0.414,0.371,0.684,0.444
			c1.936,0.639,4.066,0.156,5.539-1.257c0.366-0.33,0.665-0.73,0.875-1.177c0.169-0.428,0.275-0.878,0.318-1.337
			c0.313-2.456,0.058-4.958,0.228-7.432c0.142-2.053,0.568-4.134,0.182-6.159c-0.41-2.231-1.901-4.113-3.979-5.021
			c-2.055-0.83-4.392-0.46-6.524,0.142c-1.025,0.289-2.035,0.633-3.024,1.029c-0.483,0.131-0.901,0.434-1.178,0.853
			c-0.392,0.791,0.034,1.939,0.052,2.787C281.49,84.59,281.467,85.932,281.467,87.274"/>
		<path clip-path="url(#SVGID_48_)" fill="#963637" d="M281.456,77.134c-0.222,0.5-0.567,0.938-0.813,1.422
			c-0.29,0.47-0.387,1.034-0.273,1.575c0.15,0.421,0.425,0.788,0.784,1.052c1.706,1.399,4.056,1.706,6.256,1.569
			c0.624-0.056,1.252-0.056,1.876,0c0.634,0.057,1.224,0.342,1.661,0.802c0.649,0.751,0.609,1.849,0.813,2.815
			c0.006,0.062,0.032,0.12,0.074,0.165c0.035,0.022,0.076,0.035,0.118,0.04c0.7,0.091,1.354-0.739,1.996-0.461
			c0.321,0.182,0.523,0.519,0.529,0.887c0.051,0.43-0.011,0.865-0.181,1.263c-0.086,0.152-0.142,0.321-0.16,0.495
			c0.007,0.12,0.035,0.237,0.086,0.346l0.442,1.223c0.107,0.462,0.384,0.868,0.773,1.138c0.535,0.267,1.138-0.029,1.678-0.331
			c0.354-0.179,0.663-0.435,0.904-0.75c0.163-0.271,0.272-0.57,0.325-0.881c0.687-3.037,0.739-6.182,0.739-9.292
			c0.044-0.728-0.06-1.457-0.303-2.144c-0.597-1.371-2.188-1.991-3.655-2.309c-2.717-0.475-5.475-0.665-8.229-0.569
			c-0.863-0.036-1.727,0.025-2.576,0.182c-0.854,0.161-1.635,0.599-2.218,1.245"/>
		<path clip-path="url(#SVGID_48_)" fill="#963637" d="M285.743,90.163c0.448,0.216,0.796,0.597,0.968,1.063
			c0.021,0.047,0.021,0.102,0,0.148c-0.036,0.036-0.085,0.054-0.137,0.051c-0.946,0.066-1.896,0.066-2.844,0
			c-0.744-0.026-1.476-0.204-2.148-0.523c-0.054-0.023-0.1-0.06-0.132-0.108c-0.014-0.047-0.014-0.096,0-0.142
			c0.041-0.781,0.708-1.381,1.489-1.339c0.014,0,0.028,0.001,0.04,0.002C283.955,89.374,284.903,89.664,285.743,90.163"/>
		<path clip-path="url(#SVGID_48_)" fill="#FFFFFF" d="M295.695,97.049c0,0,2.009,1.411,1.956,2.94
			c-0.051,1.53-10.945,32.255-10.945,32.255s-0.257-29.389,0-30.765c0.373-1.324,0.867-2.611,1.478-3.844
			C288.184,97.635,292.528,100.762,295.695,97.049"/>
		<polygon clip-path="url(#SVGID_48_)" fill="#212741" points="292.13,99.83 292.853,102.207 291.624,103.236 291.038,119.91 
			286.705,132.227 286.598,119.7 290.321,103.157 288.962,100.825 290.754,99.83 		"/>
		<path clip-path="url(#SVGID_48_)" fill="#1D92DD" d="M284.071,143.185c1.286,1.627,2.744,3.108,4.352,4.419
			c0.324,0.269,0.66,0.54,1.001,0.785c0.355,0.323,0.802,0.532,1.279,0.597c0.325-0.015,0.646-0.09,0.943-0.222
			c6.341-2.474,12.573-5.266,18.63-8.353c2.542-1.31,5.334-3.016,5.868-5.818c0.136-0.975,0.115-1.966-0.062-2.934
			c-0.963-7.091-2.819-14.03-5.522-20.655c-0.767-1.876-1.706-5.487-3.724-6.698l-0.234-0.125l-0.284-0.137
			c-2.707-0.978-5.044,1.706-5.789,3.981c-1.047,3.241-0.54,6.767,0.308,10.065c0.847,3.298,2.018,6.523,2.313,9.917
			c0.075,0.465,0.028,0.942-0.137,1.382c-0.255,0.431-0.616,0.79-1.046,1.047L284.071,143.185z"/>
		<path clip-path="url(#SVGID_48_)" fill="#212741" d="M284.071,220.342l-0.478,4.771l-3.001,0.568l-1.348-1.188l-2.276,1.82h-9.046
			c0,0-2.276-3.981,2.688-5.301l4.987-1.348L284.071,220.342z"/>
		<path clip-path="url(#SVGID_48_)" fill="#212741" d="M301.7,220.342l-0.478,4.771l-3.002,0.568l-1.348-1.188l-2.275,1.82h-9.052
			c0,0-2.276-3.981,2.688-5.301l4.987-1.348L301.7,220.342z"/>
	</g>
	<g clip-path="url(#SVGID_2_)">
		<defs>
			<polygon id="SVGID_49_" points="279.716,219.654 284.067,220.342 286.597,168.843 282.565,165.574 			"/>
		</defs>
		<clipPath id="SVGID_50_">
			<use xlink:href="#SVGID_49_"  overflow="visible"/>
		</clipPath>
		<defs>
			<filter id="Adobe_OpacityMaskFilter_6_" filterUnits="userSpaceOnUse" x="267.996" y="164.102" width="30.32" height="57.713">
				<feColorMatrix  type="matrix" values="1 0 0 0 0  0 1 0 0 0  0 0 1 0 0  0 0 0 1 0"/>
			</filter>
		</defs>
		<mask maskUnits="userSpaceOnUse" x="267.996" y="164.102" width="30.32" height="57.713" id="SVGID_51_">
			<g filter="url(#Adobe_OpacityMaskFilter_6_)">
				
					<linearGradient id="SVGID_52_" gradientUnits="userSpaceOnUse" x1="0" y1="245.625" x2="1" y2="245.625" gradientTransform="matrix(-39.892 8.9679 8.9679 39.892 -1906.3958 -9608.4502)">
					<stop  offset="0" style="stop-color:#FFFFFF"/>
					<stop  offset="0.01" style="stop-color:#FFFFFF"/>
					<stop  offset="0.08" style="stop-color:#B0B0B0"/>
					<stop  offset="0.21" style="stop-color:#525252"/>
					<stop  offset="1" style="stop-color:#000000"/>
				</linearGradient>
				<polygon clip-path="url(#SVGID_50_)" fill="url(#SVGID_52_)" points="298.316,217.707 280.047,221.814 267.996,168.209 
					286.266,164.102 				"/>
			</g>
		</mask>
		
			<linearGradient id="SVGID_53_" gradientUnits="userSpaceOnUse" x1="0" y1="245.625" x2="1" y2="245.625" gradientTransform="matrix(-39.892 8.9679 8.9679 39.892 -1906.396 -9608.4502)">
			<stop  offset="0" style="stop-color:#000000"/>
			<stop  offset="0.01" style="stop-color:#000000"/>
			<stop  offset="0.08" style="stop-color:#000000"/>
			<stop  offset="0.21" style="stop-color:#000000"/>
			<stop  offset="1" style="stop-color:#000000"/>
		</linearGradient>
		<polygon clip-path="url(#SVGID_50_)" mask="url(#SVGID_51_)" fill="url(#SVGID_53_)" points="298.316,217.707 280.047,221.814 
			267.996,168.209 286.266,164.102 		"/>
	</g>
	<g clip-path="url(#SVGID_2_)">
		<defs>
			<path id="SVGID_54_" d="M300.523,108.019c0,0,9.604,19.653,9.189,22.61s-20.568,12.585-20.568,12.585l-0.728,4.384
				c0.324,0.268,0.659,0.54,1,0.785c0.357,0.325,0.803,0.532,1.279,0.596c0.327-0.013,0.647-0.088,0.944-0.221
				c6.342-2.473,12.573-5.266,18.629-8.354c2.543-1.309,5.336-3.014,5.869-5.817c0.136-0.975,0.115-1.966-0.063-2.934
				c-0.963-7.092-2.818-14.03-5.521-20.654c-0.768-1.877-1.706-5.488-3.724-6.699l-0.234-0.125l-0.284-0.137
				c-0.036-0.001-0.074-0.001-0.111-0.001C303.664,104.037,301.391,105.626,300.523,108.019"/>
		</defs>
		<clipPath id="SVGID_55_">
			<use xlink:href="#SVGID_54_"  overflow="visible"/>
		</clipPath>
		<defs>
			<filter id="Adobe_OpacityMaskFilter_7_" filterUnits="userSpaceOnUse" x="269.752" y="92.468" width="65.187" height="68.08">
				<feColorMatrix  type="matrix" values="1 0 0 0 0  0 1 0 0 0  0 0 1 0 0  0 0 0 1 0"/>
			</filter>
		</defs>
		<mask maskUnits="userSpaceOnUse" x="269.752" y="92.468" width="65.187" height="68.08" id="SVGID_56_">
			<g filter="url(#Adobe_OpacityMaskFilter_7_)">
				
					<linearGradient id="SVGID_57_" gradientUnits="userSpaceOnUse" x1="0" y1="245.6465" x2="1" y2="245.6465" gradientTransform="matrix(78.7263 42.0018 42.0018 -78.7263 -10048.6836 19447.4668)">
					<stop  offset="0" style="stop-color:#FFFFFF"/>
					<stop  offset="0.01" style="stop-color:#FFFFFF"/>
					<stop  offset="0.08" style="stop-color:#B0B0B0"/>
					<stop  offset="0.21" style="stop-color:#525252"/>
					<stop  offset="1" style="stop-color:#000000"/>
				</linearGradient>
				<polygon clip-path="url(#SVGID_55_)" fill="url(#SVGID_57_)" points="294.589,92.468 334.938,113.995 310.102,160.548 
					269.752,139.021 				"/>
			</g>
		</mask>
		
			<linearGradient id="SVGID_58_" gradientUnits="userSpaceOnUse" x1="0" y1="245.6465" x2="1" y2="245.6465" gradientTransform="matrix(78.7263 42.0018 42.0018 -78.7263 -10048.6846 19447.4688)">
			<stop  offset="0" style="stop-color:#000000"/>
			<stop  offset="0.01" style="stop-color:#000000"/>
			<stop  offset="0.08" style="stop-color:#000000"/>
			<stop  offset="0.21" style="stop-color:#000000"/>
			<stop  offset="1" style="stop-color:#000000"/>
		</linearGradient>
		<polygon clip-path="url(#SVGID_55_)" mask="url(#SVGID_56_)" fill="url(#SVGID_58_)" points="294.589,92.468 334.938,113.995 
			310.102,160.548 269.752,139.021 		"/>
	</g>
	<g clip-path="url(#SVGID_2_)">
		<defs>
			<rect id="SVGID_59_" width="350.817" height="245.625"/>
		</defs>
		<clipPath id="SVGID_60_">
			<use xlink:href="#SVGID_59_"  overflow="visible"/>
		</clipPath>
		<path clip-path="url(#SVGID_60_)" fill="#FFBBAB" d="M279.522,144.834c-0.525,0.132-1.017,0.376-1.438,0.717
			c-0.426,0.353-0.607,0.923-0.461,1.456c0.163,0.305,0.353,0.595,0.567,0.864c0.269,0.46,0.297,1.029,0.535,1.507
			c0.463,0.724,1.183,1.245,2.014,1.461c2.398,0.865,5.328,0.99,7.262-0.671c1.416-1.211,4.237-6.187,1.137-6.938
			c-1.137-0.278-2.786,0.245-3.935,0.403C283.281,143.879,281.38,144.279,279.522,144.834"/>
		<path clip-path="url(#SVGID_60_)" fill="#1D92DD" d="M277.162,86.182c0,0-13.447-2.32-16.229-6.096v14.177
			c0,0,3.178-2.98,16.229-3.179C277.162,91.061,279.744,88.94,277.162,86.182"/>
		<path clip-path="url(#SVGID_60_)" fill="#1D92DD" d="M260.37,79.603c1.444,0,2.615,3.351,2.615,7.484
			c0,4.133-1.171,7.484-2.615,7.484s-2.615-3.351-2.615-7.484C257.755,82.953,258.926,79.603,260.37,79.603"/>
	</g>
	<g clip-path="url(#SVGID_2_)">
		<defs>
			<path id="SVGID_61_" d="M258.089,87.086c0,3.606,1.022,6.528,2.282,6.528c1.258,0,2.28-2.922,2.28-6.528
				c0-3.605-1.022-6.528-2.28-6.528C259.111,80.558,258.089,83.481,258.089,87.086"/>
		</defs>
		<clipPath id="SVGID_62_">
			<use xlink:href="#SVGID_61_"  overflow="visible"/>
		</clipPath>
		<defs>
			<filter id="Adobe_OpacityMaskFilter_8_" filterUnits="userSpaceOnUse" x="257.164" y="80.235" width="6.411" height="13.702">
				<feColorMatrix  type="matrix" values="1 0 0 0 0  0 1 0 0 0  0 0 1 0 0  0 0 0 1 0"/>
			</filter>
		</defs>
		<mask maskUnits="userSpaceOnUse" x="257.164" y="80.235" width="6.411" height="13.702" id="SVGID_63_">
			<g filter="url(#Adobe_OpacityMaskFilter_8_)">
				
					<linearGradient id="SVGID_64_" gradientUnits="userSpaceOnUse" x1="0" y1="245.625" x2="1" y2="245.625" gradientTransform="matrix(40.9896 2.9173 -2.9173 40.9896 967.0849 -9981.6855)">
					<stop  offset="0" style="stop-color:#FFFFFF"/>
					<stop  offset="0.01" style="stop-color:#FFFFFF"/>
					<stop  offset="0.08" style="stop-color:#B0B0B0"/>
					<stop  offset="0.21" style="stop-color:#525252"/>
					<stop  offset="1" style="stop-color:#000000"/>
				</linearGradient>
				<polygon clip-path="url(#SVGID_62_)" fill="url(#SVGID_64_)" points="257.164,93.548 262.628,93.937 263.575,80.624 
					258.112,80.235 				"/>
			</g>
		</mask>
		
			<linearGradient id="SVGID_65_" gradientUnits="userSpaceOnUse" x1="0" y1="245.625" x2="1" y2="245.625" gradientTransform="matrix(40.9896 2.9173 -2.9173 40.9896 967.085 -9981.6865)">
			<stop  offset="0" style="stop-color:#000000"/>
			<stop  offset="0.01" style="stop-color:#000000"/>
			<stop  offset="0.08" style="stop-color:#000000"/>
			<stop  offset="0.21" style="stop-color:#000000"/>
			<stop  offset="1" style="stop-color:#000000"/>
		</linearGradient>
		<polygon clip-path="url(#SVGID_62_)" mask="url(#SVGID_63_)" fill="url(#SVGID_65_)" points="257.164,93.548 262.628,93.937 
			263.575,80.624 258.112,80.235 		"/>
	</g>
	<g clip-path="url(#SVGID_2_)">
		<defs>
			<rect id="SVGID_66_" width="350.817" height="245.625"/>
		</defs>
		<clipPath id="SVGID_67_">
			<use xlink:href="#SVGID_66_"  overflow="visible"/>
		</clipPath>
		<path clip-path="url(#SVGID_67_)" fill="#1D92DD" d="M274.444,90.908c0,0,0.398,7.256-1.706,8.2
			c-2.104,0.945-2.979-0.25-2.78-0.648c0.198-0.398,2.247-5.624,1.318-7.086C270.35,89.913,274.444,90.908,274.444,90.908"/>
		<path clip-path="url(#SVGID_67_)" fill="#FFBBAB" d="M265.646,97.646c0-1.268-0.125-2.593,0.376-3.765
			c0.159-0.403,0.431-0.754,0.779-1.012c0.332-0.203,0.701-0.34,1.086-0.404c1.697-0.364,3.444-0.431,5.163-0.198
			c0.337-0.017,0.639,0.207,0.723,0.534c0.465,1.291,0.437,2.709-0.079,3.981c-0.521,1.261-1.193,2.453-2.008,3.548
			c-0.348,0.59-0.806,1.108-1.348,1.524c-1.137,0.739-3.833,0.961-4.879-0.04c-0.384-0.422-0.491-1.029-0.273-1.558
			C265.447,99.408,265.601,98.532,265.646,97.646"/>
		<path clip-path="url(#SVGID_67_)" fill="#1D92DD" d="M259.978,86.529c-0.169,0.033-0.327,0.107-0.461,0.216
			c-0.131,0.142-0.202,0.329-0.198,0.523c0.01,0.478,0.229,0.928,0.603,1.228c0.373,0.285,0.807,0.48,1.268,0.569
			c0.05,0.011,0.101,0.011,0.148,0c0.051-0.017,0.096-0.049,0.13-0.091c0.281-0.347,0.446-0.772,0.473-1.217
			c0.06-0.296,0.06-0.602,0-0.898C261.638,85.835,260.706,86.33,259.978,86.529"/>
		<path clip-path="url(#SVGID_67_)" fill="#282328" d="M100.393,136.674c0,0,13.864,20.074,15.661,20.177
			c1.797,0.102,31.641,0.967,31.641,0.967l-0.177-6.255c0,0-13.699-6.489-19.59-4.551c-3.947,1.291-4.64,1.019-4.64,1.019
			s-5.05-15.104-6.927-18.112C114.484,126.91,100.393,136.674,100.393,136.674"/>
		<path clip-path="url(#SVGID_67_)" fill="#473F47" d="M114.268,126.244c0,0,0.779,10.981-2.098,14.899
			c-2.878,3.918-28.479,14.371-28.479,14.371s-2.781,10.713-5.488,13.079c-2.706,2.365-13.494,12.51-13.494,12.51l-4.72-4.594
			l14.893-24.801c0,0,0.899-3.315,2.383-4.464c1.484-1.147,19.795-21.126,19.795-21.126L114.268,126.244z"/>
		<path clip-path="url(#SVGID_67_)" fill="#FFBBAB" d="M104.436,83.021l4.464,0.967c1.541,0.335,3.23,0.762,4.128,2.053
			c0.848,1.205,0.751,2.814,0.569,4.276c-0.233,1.956-0.54,3.907-0.921,5.84c-0.506,2.571-1.137,5.118-1.41,7.723
			c-0.643,6.431,1.051,12.84,2.729,19.078c0.569,2.007-2.059,3.458-3.98,4.248c-3.669,1.5-7.665,2.021-11.596,1.514
			c-0.358-0.021-0.705-0.129-1.012-0.313c-0.412-0.377-0.677-0.889-0.745-1.444c-0.796-3.35-1.416-6.756-2.451-10.049
			c-0.492-1.656-1.14-3.263-1.933-4.799c-0.78-1.462-1.058-3.156-1.706-4.703c-0.523-1.257-1.172-2.456-1.633-3.742
			c-0.503-1.262-0.655-2.638-0.437-3.981c0.307-1.461,0.87-2.882,1.308-4.31c0.475-1.556,0.844-3.142,1.103-4.748
			c0.121-1.098,0.393-2.173,0.808-3.196c0.995-2.121,3.275-3.372,5.555-3.918C99.557,82.969,102.144,82.521,104.436,83.021"/>
		<path clip-path="url(#SVGID_67_)" fill="#FFBBAB" d="M76.105,71.613c-1.394-1.359-2.81-2.661-3.753-4.378
			c-1.18-2.115-2.092-4.367-2.719-6.705c-0.27-0.831-0.359-1.709-0.261-2.576c0.205-1.189,1.024-2.218,1.137-3.412
			c0.025-0.13,0.001-0.263-0.068-0.376c-0.116-0.115-0.275-0.175-0.438-0.164l-1.382-0.109c-0.004-1.054-0.38-2.073-1.063-2.877
			c-0.495-0.569-1.286-1.046-1.996-0.785c-0.711,0.262-1.035,1.246-1.609,1.843c-0.575,0.597-1.36,0.796-1.854,1.393
			c-0.569,0.705-0.569,1.706-0.569,2.65c0.114,2.514,1.376,4.14,2.218,6.403c0.897,2.404,1.955,4.745,3.167,7.006
			c2.421,4.536,5.416,8.74,8.911,12.511c1.887,2.031,3.91,3.931,6.056,5.686c2.349,1.917,11.243,9.549,13.899,6.694
			c3.599-3.867-0.08-8.53-3.412-10.464C86.459,80.526,80.996,76.382,76.105,71.613"/>
		<path clip-path="url(#SVGID_67_)" fill="#FFFFFF" d="M96.167,82.986c-1.012,2.422-1.96,4.872-2.843,7.347
			c-0.279,0.791-0.569,1.706-0.125,2.434c0.324,0.487,0.819,0.833,1.387,0.972c2.275,0.734,4.868-0.227,6.676-1.825
			c1.809-1.598,3.014-3.753,4.208-5.846c0.593-1.198,1.403-2.276,2.389-3.179c1.014-0.904,2.436-1.195,3.725-0.762
			c1.222,0.518,1.922,2.207,1.137,3.287c-0.142-1.006-1.513-1.416-2.423-0.967c-0.909,0.45-1.427,1.416-1.848,2.343
			c-0.552,1.217-1.04,2.463-1.461,3.731c-0.346,0.925-0.538,1.901-0.569,2.889c0.04,2.399,1.746,4.43,3.509,6.056
			c0.731,0.575,1.353,1.276,1.837,2.07c0.625,1.222,0.488,2.679,0.421,4.049c-0.296,5.687,0.807,11.333,2.24,16.832
			c0.273,1.029,0.523,2.224-0.108,3.082c-0.516,0.576-1.219,0.951-1.985,1.059c-3.554,0.813-7.29,0.507-10.855,1.257
			c-2.218,0.472-4.357,1.348-6.62,1.558c-0.303,0.061-0.617,0.006-0.881-0.153c-0.243-0.255-0.373-0.598-0.359-0.949
			c-0.568-6.308-0.739-12.767-2.957-18.698c-1.04-2.781-2.536-5.436-2.985-8.371c-0.122-0.634-0.122-1.287,0-1.922
			c0.189-0.622,0.462-1.215,0.813-1.763c1.806-3.248,2.878-6.852,3.139-10.56"/>
		<g opacity="0.1" clip-path="url(#SVGID_67_)" enable-background="new    ">
			<g>
				<defs>
					<rect id="SVGID_68_" x="107.412" y="98.374" width="6.525" height="28.259"/>
				</defs>
				<clipPath id="SVGID_69_">
					<use xlink:href="#SVGID_68_"  overflow="visible"/>
				</clipPath>
				<path clip-path="url(#SVGID_69_)" fill="#020202" d="M110.503,110.095c0.097,1.052,0.108,2.274-0.694,2.963
					c-0.241,0.165-0.464,0.356-0.665,0.568c-0.398,0.507-0.199,1.229-0.193,1.871c0,1.252-0.745,2.354-1.217,3.514
					c-0.472,1.161-0.523,2.736,0.517,3.413c0.671,0.443,1.621,0.38,2.195,0.938c0.893,0.87,0.432,2.786,1.598,3.23
					c0.692,0.171,1.404-0.2,1.661-0.865c0.229-0.65,0.29-1.348,0.176-2.03c-0.572-7.145-1.198-14.29-1.877-21.433
					c0.016-0.779-0.349-1.518-0.978-1.979c-0.603-0.568-1.433-1.706-2.195-1.91c-0.568,1.285,0.501,3.685,0.745,5.01
					C109.985,105.602,110.295,107.838,110.503,110.095"/>
			</g>
		</g>
		<path clip-path="url(#SVGID_67_)" fill="#FFBBAB" d="M85.943,72.324c-0.228,0.637-0.569,1.285-0.444,1.945
			c0.156,0.456,0.406,0.874,0.734,1.228c0.62,0.884,1.071,1.875,1.331,2.923c0.221,0.791,0.415,1.655,1.035,2.195
			c0.761,0.677,1.91,0.62,2.917,0.478c0.773-0.108,1.535-0.245,2.275-0.415c0.272-0.084,0.56-0.103,0.841-0.057
			c0.281,0.085,0.53,0.251,0.717,0.477c1.268,1.36,1.478,3.373,2.274,5.067c0.184,0.597,0.71,1.023,1.331,1.081
			c1.729,0.348,3.526,0.027,5.027-0.899c0.394-0.2,0.707-0.529,0.887-0.932c0.116-0.475,0.069-0.976-0.131-1.422
			c-0.405-1.228-0.903-2.424-1.489-3.577c-0.791-1.552-1.752-3.082-1.929-4.817c-0.159-1.535,0.325-3.076,0.285-4.617
			c-0.091-3.219-2.673-6.113-5.806-6.824c-2.735-0.637-5.351,0.324-7.523,1.962c-0.768,0.569-1.405,0.938-1.655,1.916
			C86.255,69.44,86.443,70.936,85.943,72.324"/>
		<path clip-path="url(#SVGID_67_)" fill="#FC682D" d="M86.318,62.167c0.273-1.528,1.202-2.86,2.542-3.645
			c4.043-2.542,10.958-2.275,14.438,1.206c1.138,1.137,1.922,2.712,3.23,3.713c1.706,1.308,3.981,1.45,6.113,1.546
			c-0.469,0.696-1.063,1.299-1.751,1.781c0.435,0.758,1.13,1.334,1.956,1.62l-1.445,0.939l1.707,1.415
			c-0.682,0.403-1.412,0.716-2.173,0.933c0.239,1.62,0.596,3.221,1.07,4.788c-0.698-0.534-1.527-0.868-2.4-0.966
			c-0.392,1.032-0.548,2.14-0.455,3.241l-2.087-1.058c-0.034,1.017-0.355,2.003-0.927,2.843c0.739-1.085-2.542-2.627-3.179-2.701
			c-0.773-0.085-1.302,0.239-1.911-0.131c-0.785-0.488-1.313-1.791-2.184-2.377c0.473-0.682,1.104-1.245,1.524-1.961
			c0.481-0.699,0.512-1.613,0.08-2.343c-0.495-0.66-1.785-0.569-1.961,0.227c0.062-2.133-1.542-3.941-3.225-5.243
			c-0.523-0.517-1.286-0.707-1.99-0.494c-0.956,0.17-1.904,0.382-2.844,0.636c-0.699,0.194-1.922,0.825-2.661,0.569
			C86.5,66.222,86.175,63.315,86.318,62.167"/>
		<path clip-path="url(#SVGID_67_)" fill="#FFBBAB" d="M154.667,149.195c0.503-0.183,1.051-0.208,1.569-0.072
			c0.451,0.207,0.842,0.522,1.138,0.921c2.968,3.385,5.821,6.865,8.558,10.439c0.483,0.55,0.843,1.195,1.058,1.896
			c0.352,1.512-0.671,2.967-1.632,4.184c-0.569,0.735-1.706,1.496-2.275,0.77c-0.364-0.455-0.125-1.139-0.267-1.706
			c-0.171-0.695-0.865-1.099-1.496-1.435l-13.352-7.012c-1.9-0.995-2.536-4.186-0.569-5.477c0.842-0.568,2.275-0.568,3.219-0.938
			C151.977,150.271,153.278,149.594,154.667,149.195"/>
		<path clip-path="url(#SVGID_67_)" fill="#E0A194" d="M97.276,80.359c0.256-0.052,0.522-0.019,0.756,0.097
			c0.214,0.177,0.355,0.425,0.398,0.699c0.363,1.358,0.586,2.749,0.666,4.152c0.041,0.372,0.01,0.748-0.091,1.109
			c-0.11,0.364-0.404,0.645-0.773,0.739c-0.427,0.074-0.836-0.199-1.269-0.234c-0.481-0.007-0.94,0.202-1.251,0.569
			c-0.302,0.364-0.556,0.765-0.756,1.195c-0.525,0.979-1.126,1.917-1.797,2.803c0.204-1.995,0.71-3.946,1.501-5.789
			c0.169-0.517,0.497-0.967,0.938-1.285c0.347-0.205,0.802-0.273,1.018-0.609c0.347-0.534-0.182-1.182-0.619-1.643
			c-0.438-0.461-1.212-1.137-0.842-1.575C95.382,80.308,96.923,80.393,97.276,80.359"/>
		<path clip-path="url(#SVGID_67_)" fill="#FFBBAB" d="M125.926,67.501c1.011-1.383,1.926-2.833,2.741-4.339
			c2.133-4.174,3.259-9.446,2.212-14.069c-0.159-0.515-0.226-1.054-0.199-1.592c0.034-0.553,0.404-1.028,0.933-1.194
			c0.227-0.016,0.452-0.056,0.671-0.119c0.324-0.16,0.415-0.569,0.642-0.854c0.393-0.43,1.005-0.582,1.553-0.386
			c0.531,0.2,1.013,0.514,1.41,0.921c0.641,0.583,1.25,1.2,1.826,1.848c0.483,0.471,0.838,1.058,1.029,1.706
			c0.222,1.08-0.41,2.133-1.018,3.059c-0.995,0.091-1.251,2.912-1.359,3.583c-0.251,1.49-0.569,2.974-0.927,4.441
			c-0.733,2.942-1.694,5.823-2.872,8.616c-2.331,5.524-5.475,10.668-9.326,15.263c-1.951,2.32-9.258,11.487-12.397,9.178
			c-4.259-3.122-1.519-8.376,1.371-10.913C117.396,78.189,122.001,73.1,125.926,67.501"/>
		<path clip-path="url(#SVGID_67_)" fill="#FFFFFF" d="M88.451,75.212c0.56-0.156,1.129-0.27,1.706-0.341
			c0.072-0.023,0.149-0.023,0.222,0c0.056,0.037,0.099,0.091,0.125,0.154c0.433,0.83,0.564,1.785,0.369,2.701
			c-0.051,0.361-0.201,0.701-0.432,0.984c-0.241,0.282-0.628,0.394-0.984,0.284c-0.272-0.144-0.491-0.371-0.625-0.648
			c-0.593-0.799-0.96-1.741-1.064-2.73c-0.008-0.043-0.008-0.088,0-0.131c0.034-0.054,0.084-0.096,0.142-0.119
			c0.327-0.169,0.686-0.264,1.053-0.279"/>
		<path clip-path="url(#SVGID_67_)" fill="#1D92DD" d="M85.164,77.999l-0.278-0.068C84.994,77.851,85.135,77.874,85.164,77.999"/>
		<path clip-path="url(#SVGID_67_)" fill="#1D92DD" d="M135.604,60.831c0.19,1.707,0.012,3.435-0.523,5.067
			c-3.264,11.203-9.855,21.723-19.63,28.092c-0.564,0.316-1.046,0.758-1.411,1.291c-0.229,0.498-0.351,1.038-0.358,1.587
			c-0.7,9.61,1.604,19.203,1.621,28.842c0.078,0.846-0.122,1.695-0.569,2.417c-0.614,0.818-1.706,1.03-2.735,1.165
			c-0.671,0.097-1.342,0.193-2.019,0.268c-4.857,0.622-9.743,0.988-14.638,1.099c-0.83,0-1.762,0-2.377-0.569
			c-0.614-0.569-0.711-1.512-0.778-2.366c-0.569-6.522-2.748-12.738-4.306-19.056c-0.802-3.084-1.341-6.23-1.609-9.405
			c-0.119-1.706-0.045-3.333-0.904-4.709c-0.264-0.431-0.599-0.816-0.99-1.138c-1.467-1.216-3.355-1.791-4.947-2.843
			c-2.633-1.734-4.271-4.617-5.789-7.392c-2.224-4.021-4.504-8.013-6.67-12.068c-1.604-2.99-0.256-4.662,1.87-6.255
			c0.762-0.568,1.627-1.137,2.491-1.78c1.536,3.156,3.094,6.341,5.294,9.099c2.133,2.655,4.959,4.902,8.258,5.755
			c-0.101,0.03-0.17,0.122-0.171,0.227c0,0.234,0.227,0.393,0.432,0.524c2.445,1.516,4.893,3.057,7.342,4.623
			c0.469,0.338,1.01,0.565,1.58,0.659c0.649,0.046,2.662-1.063,2.781,0.075v0.215c-0.104,0.389-0.182,0.784-0.233,1.183
			c0.079,0.508,0.441,0.926,0.933,1.075c0.491,0.119,1.005,0.108,1.49-0.034c0.534-0.137,1.046-0.352,1.518-0.637
			c0.762-0.489,1.354-1.206,2.07-1.763c1.137-0.915,2.428-0.773,3.821-0.933c1.421-0.148,2.814-0.485,4.146-1.001
			c3.81-1.563,7.063-4.355,9.628-7.534c3.758-4.669,6.283-10.185,9.32-15.354c0.303-0.612,0.745-1.144,1.291-1.553
			c0.973-0.529,2.165-0.444,3.054,0.216C134.838,58.61,135.46,59.664,135.604,60.831"/>
		<path clip-path="url(#SVGID_67_)" fill="#1D92DD" d="M151.516,151.761c0.222,0.904,0.984,1.553,1.706,2.161
			c1.581,1.354,3.133,2.843,3.93,4.776c0.398,0.961,0.597,2.013,1.137,2.9s1.57,1.66,2.166,2.634
			c0.899,1.472,0.876,3.503,2.162,4.662c1.512,1.359,4.14,0.608,5.26-1.086s1.052-3.924,0.569-5.897
			c-1.041-4.071-3.68-7.535-6.472-10.679c-1.706-1.906-3.98-3.981-6.756-3.742C153.353,147.655,151.003,149.747,151.516,151.761"/>
	</g>
	<g clip-path="url(#SVGID_2_)">
		<defs>
			<path id="SVGID_70_" d="M66.972,71.141c2.167,4.055,4.447,8.046,6.671,12.066c1.518,2.776,3.156,5.659,5.788,7.393
				c1.592,1.053,3.481,1.627,4.948,2.844c0.35,0.304,0.67,0.641,0.955,1.006c0.535-0.534-0.262-2.49-0.335-3.241
				c-0.142-1.223-0.142-2.457,0-3.68c0.063-0.293,0.051-0.598-0.034-0.886c-0.087-0.174-0.202-0.331-0.342-0.467
				c-2.371-2.599-4.657-5.277-7.039-7.842c-2.323-2.37-4.204-5.135-5.557-8.166c-0.551-1.319-0.96-2.718-1.774-3.89
				c-0.374-0.551-0.854-1.025-1.41-1.393C66.716,66.478,65.369,68.15,66.972,71.141"/>
		</defs>
		<clipPath id="SVGID_71_">
			<use xlink:href="#SVGID_70_"  overflow="visible"/>
		</clipPath>
		<defs>
			<filter id="Adobe_OpacityMaskFilter_9_" filterUnits="userSpaceOnUse" x="53.642" y="56.753" width="43.954" height="45.828">
				<feColorMatrix  type="matrix" values="1 0 0 0 0  0 1 0 0 0  0 0 1 0 0  0 0 0 1 0"/>
			</filter>
		</defs>
		<mask maskUnits="userSpaceOnUse" x="53.642" y="56.753" width="43.954" height="45.828" id="SVGID_72_">
			<g filter="url(#Adobe_OpacityMaskFilter_9_)">
				
					<linearGradient id="SVGID_73_" gradientUnits="userSpaceOnUse" x1="0" y1="245.6367" x2="1" y2="245.6367" gradientTransform="matrix(-30.3167 61.4826 -61.4826 -30.3167 15190.2197 7501.8799)">
					<stop  offset="0" style="stop-color:#FFFFFF"/>
					<stop  offset="0.01" style="stop-color:#FFFFFF"/>
					<stop  offset="0.08" style="stop-color:#B0B0B0"/>
					<stop  offset="0.21" style="stop-color:#525252"/>
					<stop  offset="1" style="stop-color:#000000"/>
				</linearGradient>
				<polygon clip-path="url(#SVGID_71_)" fill="url(#SVGID_73_)" points="69.378,56.753 53.642,88.667 81.859,102.582 
					97.596,70.667 				"/>
			</g>
		</mask>
		
			<linearGradient id="SVGID_74_" gradientUnits="userSpaceOnUse" x1="0" y1="245.6367" x2="1" y2="245.6367" gradientTransform="matrix(-30.3168 61.4826 -61.4826 -30.3168 15190.2197 7501.8804)">
			<stop  offset="0" style="stop-color:#000000"/>
			<stop  offset="0.01" style="stop-color:#000000"/>
			<stop  offset="0.08" style="stop-color:#000000"/>
			<stop  offset="0.21" style="stop-color:#000000"/>
			<stop  offset="1" style="stop-color:#000000"/>
		</linearGradient>
		<polygon clip-path="url(#SVGID_71_)" mask="url(#SVGID_72_)" fill="url(#SVGID_74_)" points="69.378,56.753 53.642,88.667 
			81.859,102.582 97.596,70.667 		"/>
	</g>
	<g clip-path="url(#SVGID_2_)">
		<defs>
			<path id="SVGID_75_" d="M134.882,61.502c-2.382,2.536-3.19,7.745-4.947,10.867c-3.921,6.968-9.549,12.825-16.355,17.021
				c-1.894,1.16-3.981,2.297-4.953,4.281c-0.853,1.701-0.688,3.73-1.422,5.482c-0.784,1.911-2.525,3.27-4.424,4.129
				c-1.899,0.859-3.912,1.297-5.88,1.916c-0.353,0.08-0.678,0.25-0.944,0.495c-0.54,0.598-0.221,1.597,0.393,2.115
				c0.675,0.441,1.416,0.773,2.195,0.985c3.36,1.324,5.22,4.964,6.073,8.472c0.853,3.508,1.023,7.223,2.433,10.549
				c0.19,0.598,0.573,1.114,1.087,1.473c0.532,0.249,1.123,0.343,1.706,0.272h0.136c0.677-0.074,1.348-0.171,2.019-0.268
				c1.029-0.135,2.121-0.347,2.736-1.165c0.446-0.722,0.646-1.571,0.568-2.417c-0.017-9.639-2.321-19.232-1.62-28.842
				c0.007-0.548,0.128-1.089,0.358-1.587c0.364-0.533,0.847-0.975,1.41-1.291c9.776-6.369,16.367-16.89,19.63-28.092
				c0.536-1.632,0.714-3.36,0.524-5.067C135.337,61.025,135.095,61.25,134.882,61.502"/>
		</defs>
		<clipPath id="SVGID_76_">
			<use xlink:href="#SVGID_75_"  overflow="visible"/>
		</clipPath>
		<defs>
			<filter id="Adobe_OpacityMaskFilter_10_" filterUnits="userSpaceOnUse" x="63.309" y="41.987" width="104.595" height="106.488">
				<feColorMatrix  type="matrix" values="1 0 0 0 0  0 1 0 0 0  0 0 1 0 0  0 0 0 1 0"/>
			</filter>
		</defs>
		<mask maskUnits="userSpaceOnUse" x="63.309" y="41.987" width="104.595" height="106.488" id="SVGID_77_">
			<g filter="url(#Adobe_OpacityMaskFilter_10_)">
				
					<linearGradient id="SVGID_78_" gradientUnits="userSpaceOnUse" x1="0" y1="245.5938" x2="1" y2="245.5938" gradientTransform="matrix(-91.9111 -63.1348 63.1348 -91.9111 -15352.9648 22693.1699)">
					<stop  offset="0" style="stop-color:#FFFFFF"/>
					<stop  offset="0.01" style="stop-color:#FFFFFF"/>
					<stop  offset="0.08" style="stop-color:#B0B0B0"/>
					<stop  offset="0.21" style="stop-color:#525252"/>
					<stop  offset="1" style="stop-color:#000000"/>
				</linearGradient>
				<polygon clip-path="url(#SVGID_76_)" fill="url(#SVGID_78_)" points="167.903,82.887 108.361,41.987 63.309,107.574 
					122.851,148.475 				"/>
			</g>
		</mask>
		
			<linearGradient id="SVGID_79_" gradientUnits="userSpaceOnUse" x1="0" y1="245.5938" x2="1" y2="245.5938" gradientTransform="matrix(-91.9111 -63.1348 63.1348 -91.9111 -15352.9648 22693.1699)">
			<stop  offset="0" style="stop-color:#000000"/>
			<stop  offset="0.01" style="stop-color:#000000"/>
			<stop  offset="0.08" style="stop-color:#000000"/>
			<stop  offset="0.21" style="stop-color:#000000"/>
			<stop  offset="1" style="stop-color:#000000"/>
		</linearGradient>
		<polygon clip-path="url(#SVGID_76_)" mask="url(#SVGID_77_)" fill="url(#SVGID_79_)" points="167.903,82.887 108.361,41.987 
			63.309,107.574 122.851,148.475 		"/>
	</g>
	<g clip-path="url(#SVGID_2_)">
		<defs>
			<rect id="SVGID_80_" width="350.817" height="245.625"/>
		</defs>
		<clipPath id="SVGID_81_">
			<use xlink:href="#SVGID_80_"  overflow="visible"/>
		</clipPath>
		<path clip-path="url(#SVGID_81_)" fill="#FFBBAB" d="M53.535,179.955c-3.054,0.409-6.159,0.216-9.235,0.398
			c-0.531-0.021-1.054,0.126-1.496,0.42c-0.711,0.57-0.569,1.774,0,2.479c0.659,0.649,1.477,1.114,2.371,1.349l4.55,1.614
			c2.462,0.877,4.998,1.763,7.608,1.706c1.433-0.033,3.066-0.523,3.617-1.843c0.182-0.432,0.228-0.915,0.381-1.364
			c0.461-1.337,1.837-2.167,2.417-3.458c0.836-1.836-0.568-4.822-2.753-4.236c-1.137,0.302-2.24,1.456-3.377,1.912
			C56.304,179.438,54.932,179.782,53.535,179.955"/>
		<path clip-path="url(#SVGID_81_)" fill="#1D92DD" d="M47.308,180.131c0.733,0.034,1.547,0.104,2.036,0.648
			c0.699,0.768,0.375,2.071,0.978,2.918c0.29,0.352,0.661,0.629,1.08,0.807c2.851,1.401,6.108,1.738,9.184,0.95
			c0.501-0.131,1.245-0.136,1.303,0.375c0.005,0.144-0.03,0.286-0.103,0.41c-0.735,1.344-2.082,2.243-3.605,2.406
			c-1.502,0.147-3.019,0.002-4.464-0.434c-3.904-1.049-7.737-2.344-11.476-3.878c-0.71-0.202-1.351-0.596-1.854-1.138
			c-0.627-0.745-0.531-1.856,0.214-2.483c0.247-0.209,0.547-0.345,0.867-0.394C43.4,180.032,45.359,179.969,47.308,180.131"/>
	</g>
</g>
</svg>
