<?xml version="1.0" encoding="utf-8"?>
<!-- Generator: Adobe Illustrator 16.0.0, SVG Export Plug-In . SVG Version: 6.00 Build 0)  -->
<!DOCTYPE svg PUBLIC "-//W3C//DTD SVG 1.1//EN" "http://www.w3.org/Graphics/SVG/1.1/DTD/svg11.dtd">
<svg version="1.1" id="Layer_1" xmlns="http://www.w3.org/2000/svg" xmlns:xlink="http://www.w3.org/1999/xlink" x="0px" y="0px"
	 width="324.261px" height="236.302px" viewBox="0 0 324.261 236.302" enable-background="new 0 0 324.261 236.302"
	 xml:space="preserve">
<g>
	<defs>
		<rect id="SVGID_1_" width="324.261" height="236.302"/>
	</defs>
	<clipPath id="SVGID_2_">
		<use xlink:href="#SVGID_1_"  overflow="visible"/>
	</clipPath>
	<g clip-path="url(#SVGID_2_)">
		<defs>
			<rect id="SVGID_3_" width="324.261" height="236.302"/>
		</defs>
		<clipPath id="SVGID_4_">
			<use xlink:href="#SVGID_3_"  overflow="visible"/>
		</clipPath>
		<g opacity="0.3" clip-path="url(#SVGID_4_)" enable-background="new    ">
			<g>
				<defs>
					<rect id="SVGID_5_" y="6.758" width="324.261" height="194.986"/>
				</defs>
				<clipPath id="SVGID_6_">
					<use xlink:href="#SVGID_5_"  overflow="visible"/>
				</clipPath>
				<path clip-path="url(#SVGID_6_)" fill="#E6E6E6" d="M70.258,17.092C34.591,25.618,6.222,46.354,1.187,85.168
					c-4.242,32.693,0.133,90.609,59.794,100.901c116.095,20.036,206.827,29.547,242.585-26.177
					c32.824-51.135,30.327-127.585-34.703-141.602C222.873,8.374,146.688-1.178,70.258,17.092"/>
			</g>
		</g>
		<g opacity="0.45" clip-path="url(#SVGID_4_)" enable-background="new    ">
			<g>
				<defs>
					<rect id="SVGID_7_" x="19.234" y="205.466" width="285.804" height="30.836"/>
				</defs>
				<clipPath id="SVGID_8_">
					<use xlink:href="#SVGID_7_"  overflow="visible"/>
				</clipPath>
				<path clip-path="url(#SVGID_8_)" fill="#E6E6E6" d="M162.136,205.466c78.923,0,142.901,6.903,142.901,15.418
					c0,8.516-63.979,15.418-142.901,15.418c-78.922,0-142.902-6.902-142.902-15.418C19.234,212.369,83.214,205.466,162.136,205.466"
					/>
			</g>
		</g>
		<g opacity="0.58" clip-path="url(#SVGID_4_)" enable-background="new    ">
			<g>
				<defs>
					<rect id="SVGID_9_" x="44.67" y="172.249" width="13.997" height="11.395"/>
				</defs>
				<clipPath id="SVGID_10_">
					<use xlink:href="#SVGID_9_"  overflow="visible"/>
				</clipPath>
				<path clip-path="url(#SVGID_10_)" fill="#EC6952" d="M55.368,182.974c0,0-8.759-2.354-10.698-10.495
					c0,0,13.551-2.802,13.997,11.165L55.368,182.974z"/>
			</g>
		</g>
		<g opacity="0.73" clip-path="url(#SVGID_4_)" enable-background="new    ">
			<g>
				<defs>
					<rect id="SVGID_11_" x="53.443" y="163.384" width="9.141" height="18.707"/>
				</defs>
				<clipPath id="SVGID_12_">
					<use xlink:href="#SVGID_11_"  overflow="visible"/>
				</clipPath>
				<path clip-path="url(#SVGID_12_)" fill="#EC6952" d="M56.434,182.091c0,0-6.151-9.643-0.812-18.707
					c0,0,10.343,6.507,5.816,18.707H56.434z"/>
			</g>
		</g>
		<path clip-path="url(#SVGID_4_)" fill="#EC6952" d="M58.017,182.091c0,0,3.187-10.222,12.941-12.181c0,0,1.858,6.619-6.273,12.181
			H58.017z"/>
		<polygon clip-path="url(#SVGID_4_)" fill="#24285B" points="51.663,181.897 53.49,194.027 64.666,194.027 66.259,181.897 		"/>
		<g opacity="0.58" clip-path="url(#SVGID_4_)" enable-background="new    ">
			<g>
				<defs>
					<rect id="SVGID_13_" x="44.67" y="172.249" width="13.997" height="11.395"/>
				</defs>
				<clipPath id="SVGID_14_">
					<use xlink:href="#SVGID_13_"  overflow="visible"/>
				</clipPath>
				<path clip-path="url(#SVGID_14_)" fill="#EC6952" d="M55.368,182.974c0,0-8.759-2.354-10.698-10.495
					c0,0,13.551-2.802,13.997,11.165L55.368,182.974z"/>
			</g>
		</g>
		<g opacity="0.73" clip-path="url(#SVGID_4_)" enable-background="new    ">
			<g>
				<defs>
					<rect id="SVGID_15_" x="53.443" y="163.384" width="9.141" height="18.707"/>
				</defs>
				<clipPath id="SVGID_16_">
					<use xlink:href="#SVGID_15_"  overflow="visible"/>
				</clipPath>
				<path clip-path="url(#SVGID_16_)" fill="#EC6952" d="M56.434,182.091c0,0-6.151-9.643-0.812-18.707
					c0,0,10.343,6.507,5.816,18.707H56.434z"/>
			</g>
		</g>
		<path clip-path="url(#SVGID_4_)" fill="#EC6952" d="M58.017,182.091c0,0,3.187-10.222,12.941-12.181c0,0,1.858,6.619-6.273,12.181
			H58.017z"/>
		<polygon clip-path="url(#SVGID_4_)" fill="#24285B" points="51.663,181.897 53.49,194.027 64.666,194.027 66.259,181.897 		"/>
		<rect x="36.378" y="205.923" clip-path="url(#SVGID_4_)" fill="#CCCCCC" width="50.384" height="12.078"/>
		<g opacity="0.43" clip-path="url(#SVGID_4_)" enable-background="new    ">
			<g>
				<defs>
					<rect id="SVGID_17_" x="47.38" y="194.108" width="50.385" height="12.078"/>
				</defs>
				<clipPath id="SVGID_18_">
					<use xlink:href="#SVGID_17_"  overflow="visible"/>
				</clipPath>
				<rect x="47.38" y="194.108" clip-path="url(#SVGID_18_)" fill="#E6E6E6" width="50.385" height="12.078"/>
			</g>
		</g>
		<rect x="72.877" clip-path="url(#SVGID_4_)" fill="#E6E6E6" width="182.213" height="218.012"/>
		<g opacity="0.12" clip-path="url(#SVGID_4_)" enable-background="new    ">
			<g>
				<defs>
					<rect id="SVGID_19_" x="155.894" y="8.516" width="34.083" height="4.973"/>
				</defs>
				<clipPath id="SVGID_20_">
					<use xlink:href="#SVGID_19_"  overflow="visible"/>
				</clipPath>
				<rect x="155.894" y="8.515" clip-path="url(#SVGID_20_)" width="34.083" height="4.974"/>
			</g>
		</g>
		<path clip-path="url(#SVGID_4_)" fill="#FFFFFF" d="M143.551,5.988c3.066,0,5.552,2.486,5.552,5.552
			c0,3.067-2.486,5.552-5.552,5.552c-3.066,0-5.552-2.485-5.552-5.552C138,8.474,140.485,5.988,143.551,5.988"/>
		<g opacity="0.08" clip-path="url(#SVGID_4_)" enable-background="new    ">
			<g>
				<defs>
					<rect id="SVGID_21_" x="89.634" y="25.74" width="148.698" height="170.987"/>
				</defs>
				<clipPath id="SVGID_22_">
					<use xlink:href="#SVGID_21_"  overflow="visible"/>
				</clipPath>
				<rect x="89.635" y="25.74" clip-path="url(#SVGID_22_)" width="148.698" height="170.987"/>
			</g>
		</g>
		<g opacity="0.12" clip-path="url(#SVGID_4_)">
			<g>
				<defs>
					<rect id="SVGID_23_" x="104.758" y="92.06" width="120.766" height="89.361"/>
				</defs>
				<clipPath id="SVGID_24_">
					<use xlink:href="#SVGID_23_"  overflow="visible"/>
				</clipPath>
				<rect x="104.758" y="145.459" clip-path="url(#SVGID_24_)" width="20.503" height="35.962"/>
				<rect x="138.182" y="132.305" clip-path="url(#SVGID_24_)" width="20.503" height="49.116"/>
				<rect x="171.606" y="111.234" clip-path="url(#SVGID_24_)" width="20.503" height="70.188"/>
				<rect x="205.02" y="92.06" clip-path="url(#SVGID_24_)" width="20.504" height="89.361"/>
			</g>
		</g>
		<g opacity="0.12" clip-path="url(#SVGID_4_)" enable-background="new    ">
			<g>
				<defs>
					<rect id="SVGID_25_" x="157.457" y="200.878" width="13.053" height="13.054"/>
				</defs>
				<clipPath id="SVGID_26_">
					<use xlink:href="#SVGID_25_"  overflow="visible"/>
				</clipPath>
				<path clip-path="url(#SVGID_26_)" d="M163.983,200.878c3.604,0,6.526,2.922,6.526,6.526s-2.922,6.526-6.526,6.526
					c-3.605,0-6.527-2.922-6.527-6.526S160.378,200.878,163.983,200.878"/>
			</g>
		</g>
		<g opacity="0.08" clip-path="url(#SVGID_4_)" enable-background="new    ">
			<g>
				<defs>
					<rect id="SVGID_27_" x="159.102" y="145.652" width="68.471" height="72.745"/>
				</defs>
				<clipPath id="SVGID_28_">
					<use xlink:href="#SVGID_27_"  overflow="visible"/>
				</clipPath>
				<path clip-path="url(#SVGID_28_)" d="M196.646,145.652c0,0-25.812,5.785-35.951,23.73
					c-10.14,17.945,31.465,48.914,31.465,48.914l28.774,0.101l6.639-30.075l-15.002-21.396L196.646,145.652z"/>
			</g>
		</g>
		<path clip-path="url(#SVGID_4_)" fill="#EC6952" d="M249.283,142.506c0,0,33.719-3.573,32.48,14.271
			c-1.238,17.843-20.179,55.824-20.179,55.824h-41.451c0,0-31.466-48.213-16.14-63.722
			C219.321,133.37,222.771,146.677,249.283,142.506"/>
		<polygon clip-path="url(#SVGID_4_)" fill="#24285B" points="261.616,218.397 236.403,225.197 214.044,213.84 210.643,207.791 
			233.186,207.791 269.056,207.791 		"/>
		<path clip-path="url(#SVGID_4_)" fill="#EC6952" d="M265.544,161.79c-3.155-10.564,2.813-22.105,14.1-13.65
			c7.733,5.796,16.92,24.268,17.386,41.37c1.096,39.302-47.116-2.983-53.104-25.495l5.938-3.503c0,0,9.988,18.858,20.889,22.938
			C278.607,186.414,270.213,177.411,265.544,161.79"/>
		<g opacity="0.46" clip-path="url(#SVGID_4_)" enable-background="new    ">
			<g>
				<defs>
					<rect id="SVGID_29_" x="243.925" y="145.217" width="53.123" height="60.377"/>
				</defs>
				<clipPath id="SVGID_30_">
					<use xlink:href="#SVGID_29_"  overflow="visible"/>
				</clipPath>
				<path clip-path="url(#SVGID_30_)" fill="#FFFFFF" d="M265.544,161.79c-3.155-10.564,2.813-22.105,14.1-13.65
					c7.733,5.796,16.92,24.268,17.386,41.37c1.096,39.302-47.116-2.983-53.104-25.495l5.938-3.503c0,0,9.988,18.858,20.889,22.938
					C278.607,186.414,270.213,177.411,265.544,161.79"/>
			</g>
		</g>
		<path clip-path="url(#SVGID_4_)" fill="#F4A28C" d="M248.096,142.729c-0.233,1.503-0.384,3.018-0.446,4.537
			c-0.071,2.091-0.74,5.187-4.06,5.796c-5.075,0.944-6.435-7.104-6.435-7.104s-3.198-7.532,2.303-8.557
			C244.443,136.486,249.112,135.816,248.096,142.729"/>
		<g opacity="0.08" clip-path="url(#SVGID_4_)" enable-background="new    ">
			<g>
				<defs>
					<rect id="SVGID_31_" x="200.485" y="154.014" width="67.637" height="58.578"/>
				</defs>
				<clipPath id="SVGID_32_">
					<use xlink:href="#SVGID_31_"  overflow="visible"/>
				</clipPath>
				<path clip-path="url(#SVGID_32_)" d="M228.517,154.057c0,0,3.157,6.617-4.811,20.178c-4.558,7.765,9.479,20.717,9.479,20.717
					l34.937,3.502l-6.517,14.138h-41.473c0,0-18.199-29.597-19.599-44.832C199.133,152.523,228.517,154.057,228.517,154.057"/>
			</g>
		</g>
		<path clip-path="url(#SVGID_4_)" fill="#F4A28C" d="M237.51,146.302c0,0-0.295-2.446-2.426-2.335
			C232.952,144.079,233.795,148.596,237.51,146.302"/>
		<path clip-path="url(#SVGID_4_)" fill="#F4A28C" d="M246.868,144.941c0,0-0.741-2.345,1.238-3.126
			S251.212,145.551,246.868,144.941"/>
		<polygon clip-path="url(#SVGID_4_)" fill="#FFD200" points="259.972,205.639 262.895,179.015 218.184,179.015 222.64,206.999 
			222,210.592 260.449,210.896 		"/>
		<path clip-path="url(#SVGID_4_)" fill="#EC6952" d="M241.976,218.397c0,0-8.484,2.964-5.572,6.8
			c2.913,3.837,7.521-2.537,7.521-2.537L241.976,218.397z"/>
		<g opacity="0.08" clip-path="url(#SVGID_4_)" enable-background="new    ">
			<g>
				<defs>
					<rect id="SVGID_33_" x="218.184" y="179.046" width="42.275" height="31.871"/>
				</defs>
				<clipPath id="SVGID_34_">
					<use xlink:href="#SVGID_33_"  overflow="visible"/>
				</clipPath>
				<path clip-path="url(#SVGID_34_)" d="M218.184,179.046l8.912,11.672c5.175,6.83,12.162,12.07,20.168,15.124l13.195,5.074
					l-35.454-0.284h-2.994l0.64-3.593L218.184,179.046z"/>
			</g>
		</g>
		<path clip-path="url(#SVGID_4_)" fill="#24285B" d="M248.208,142.424c0.916,0.375,1.957,0.28,2.791-0.253
			c0.396-0.429,0.613-0.991,0.609-1.573c0.285-2.812-0.304-6.842-2.102-9.136c-1.797-2.294-5.825-2.11-8.384-1.726
			c-1.32,0.146-2.601,0.54-3.774,1.157c-1.342,0.866-2.399,2.104-3.047,3.563c-1.624,3.431-1.857,8.932,2.446,10.15
			c6.242,1.755,9.481-5.076,9.481-5.076c0.396,0.951,0.925,1.839,1.572,2.64C247.923,142.277,248.061,142.362,248.208,142.424"/>
		<path clip-path="url(#SVGID_4_)" fill="#24285B" d="M241.712,216.915c0,0,34.297-17.509,37.22-8.201
			c2.925,9.308-20.716,14.728-35.972,15.286L241.712,216.915z"/>
		<path clip-path="url(#SVGID_4_)" fill="#FFFFFF" d="M240.098,189.53c2.113,0,3.827,1.714,3.827,3.827s-1.714,3.826-3.827,3.826
			c-2.112,0-3.826-1.713-3.826-3.826S237.985,189.53,240.098,189.53"/>
		<path clip-path="url(#SVGID_4_)" fill="#24285B" d="M233.379,218.285c0,0-27.345-27.101-32.957-19.112s15.226,20.3,29.617,25.486
			L233.379,218.285z"/>
		<path clip-path="url(#SVGID_4_)" fill="#EC6952" d="M232.313,220.325c0,0,8.12,7.217,3.411,9.349
			c-4.71,2.132-5.684-5.015-5.684-5.015L232.313,220.325z"/>
		<path clip-path="url(#SVGID_4_)" fill="#EC6952" d="M228.517,154.057c0.633-6.339-3.968-12.001-10.302-12.678
			c-6.181-0.66-14.312-0.254-21.539,4.273c-14.016,8.79-29.526,15.804-25.699,31.729c3.826,15.926,31.647,22.614,31.647,22.614
			l3.706-6.09c0,0-24.523-8.282-20.058-21.234C190.292,161.029,225.878,180.537,228.517,154.057"/>
		<g opacity="0.46" clip-path="url(#SVGID_4_)" enable-background="new    ">
			<g>
				<defs>
					<rect id="SVGID_35_" x="170.387" y="141.13" width="58.188" height="58.865"/>
				</defs>
				<clipPath id="SVGID_36_">
					<use xlink:href="#SVGID_35_"  overflow="visible"/>
				</clipPath>
				<path clip-path="url(#SVGID_36_)" fill="#FFFFFF" d="M228.517,154.057c0.633-6.339-3.968-12.001-10.302-12.678
					c-6.181-0.66-14.312-0.254-21.539,4.273c-14.016,8.79-29.526,15.804-25.699,31.729c3.826,15.926,31.647,22.614,31.647,22.614
					l3.706-6.09c0,0-24.523-8.282-20.058-21.234C190.292,161.029,225.878,180.537,228.517,154.057"/>
			</g>
		</g>
		<path clip-path="url(#SVGID_4_)" fill="#F4A28C" d="M205.72,194.95c0,0,7.734,5.237,4.923,6.679s-7.552-2.396-7.552-2.396
			L205.72,194.95z"/>
		<path clip-path="url(#SVGID_4_)" fill="#24285B" d="M244.889,146.951c-0.417-2.203-2.541-3.651-4.744-3.234
			c-2.203,0.418-3.65,2.542-3.233,4.745c0.35,1.85,1.926,3.216,3.806,3.301l1.767,9.246l1.827-0.345l-1.766-9.247
			C244.268,150.653,245.239,148.804,244.889,146.951 M241.315,149.996c-1.231,0.235-2.424-0.573-2.659-1.807s0.573-2.423,1.807-2.66
			c1.233-0.235,2.424,0.573,2.66,1.807c0,0.001,0.001,0.001,0.001,0.001c0.197,1.218-0.607,2.372-1.818,2.608L241.315,149.996z"/>
		<path clip-path="url(#SVGID_4_)" fill="#F4A28C" d="M248.816,161.151c0,0-2.771-6.801-6.565-6.242
			c-3.798,0.558,2.1,8.911,2.1,8.911L248.816,161.151z"/>
		<g opacity="0.46" clip-path="url(#SVGID_4_)" enable-background="new    ">
			<g>
				<defs>
					<rect id="SVGID_37_" x="123.83" y="100.099" width="29.1" height="4.903"/>
				</defs>
				<clipPath id="SVGID_38_">
					<use xlink:href="#SVGID_37_"  overflow="visible"/>
				</clipPath>
				<rect x="123.83" y="100.099" clip-path="url(#SVGID_38_)" fill="#FFFFFF" width="29.1" height="4.903"/>
			</g>
		</g>
		<g opacity="0.46" clip-path="url(#SVGID_4_)" enable-background="new    ">
			<g>
				<defs>
					<rect id="SVGID_39_" x="123.83" y="113.01" width="29.1" height="4.902"/>
				</defs>
				<clipPath id="SVGID_40_">
					<use xlink:href="#SVGID_39_"  overflow="visible"/>
				</clipPath>
				<rect x="123.83" y="113.01" clip-path="url(#SVGID_40_)" fill="#FFFFFF" width="29.1" height="4.902"/>
			</g>
		</g>
		<rect x="106.179" y="100.099" clip-path="url(#SVGID_4_)" fill="#EC6952" width="8.587" height="4.903"/>
		<rect x="106.179" y="113.01" clip-path="url(#SVGID_4_)" fill="#FFD200" width="8.587" height="4.902"/>
		<path clip-path="url(#SVGID_4_)" fill="#EC6952" d="M189.317,61.559c0.028,14.014-11.31,25.398-25.323,25.427
			c-14.014,0.028-25.397-11.31-25.427-25.324c-0.028-14.014,11.31-25.398,25.323-25.426c12.031-0.025,22.425,8.402,24.889,20.177
			c0.132,0.69,0.244,1.38,0.347,2.03C189.253,59.477,189.316,60.517,189.317,61.559"/>
		<path clip-path="url(#SVGID_4_)" fill="#FFD200" d="M163.983,36.235V61.61l24.808-5.156
			C188.791,56.454,185.328,36.073,163.983,36.235"/>
		<g opacity="0.46" clip-path="url(#SVGID_4_)" enable-background="new    ">
			<g>
				<defs>
					<rect id="SVGID_41_" x="149.956" y="56.403" width="39.365" height="30.421"/>
				</defs>
				<clipPath id="SVGID_42_">
					<use xlink:href="#SVGID_41_"  overflow="visible"/>
				</clipPath>
				<path clip-path="url(#SVGID_42_)" fill="#FFFFFF" d="M189.317,61.559c-0.062,14.014-11.472,25.325-25.484,25.264
					c-4.937-0.021-9.759-1.482-13.877-4.202l14.079-21.062l24.797-5.156c0.132,0.69,0.243,1.381,0.345,2.03
					C189.286,59.471,189.334,60.515,189.317,61.559"/>
			</g>
		</g>
		<g opacity="0.08" clip-path="url(#SVGID_4_)" enable-background="new    ">
			<g>
				<defs>
					<rect id="SVGID_43_" x="72.877" y="37.971" width="54.566" height="47.198"/>
				</defs>
				<clipPath id="SVGID_44_">
					<use xlink:href="#SVGID_43_"  overflow="visible"/>
				</clipPath>
				<rect x="72.877" y="37.971" clip-path="url(#SVGID_44_)" width="54.566" height="47.197"/>
			</g>
		</g>
		<rect x="64.97" y="32.713" clip-path="url(#SVGID_4_)" fill="#24285B" width="57.561" height="47.198"/>
		<path clip-path="url(#SVGID_4_)" fill="#FFFFFF" d="M94.954,40.64c0.853,0,1.116,0.294,1.116,1.147v1.817
			c3.411,0.477,5.37,2.182,6.821,5.146c0.447,0.893,0.264,1.38-0.741,1.817l-1.817,0.822c-0.852,0.406-1.258,0.223-1.746-0.67
			c-0.778-1.892-2.703-3.051-4.739-2.852c-3.157,0-4.599,0.923-4.599,3.045c0.143,1.336,1.218,2.382,2.559,2.486
			c0.879,0.196,1.771,0.332,2.669,0.407c1.684,0.102,3.345,0.443,4.933,1.015c0.793,0.26,1.532,0.662,2.182,1.187
			c1.328,1.398,2.037,3.27,1.969,5.197c0,4.06-2.71,6.78-7.491,7.48v1.929c0,0.853-0.263,1.157-1.116,1.157h-2.03
			c-0.853,0-1.147-0.304-1.147-1.157v-1.888c-3.395-0.231-6.319-2.481-7.41-5.704c-0.291-0.594-0.047-1.312,0.547-1.604
			c0.097-0.047,0.2-0.081,0.306-0.102l1.817-0.67c0.923-0.334,1.33-0.111,1.735,0.812c0.826,2.078,2.494,3.117,5.004,3.117
			c3.411,0,5.075-1.076,5.075-3.259c0.061-1.042-0.596-1.993-1.593-2.303c-1.167-0.431-2.392-0.684-3.634-0.751
			c-1.702-0.108-3.379-0.471-4.973-1.077c-0.785-0.278-1.513-0.694-2.152-1.228c-1.36-1.331-2.097-3.173-2.03-5.075
			c0-3.999,2.527-6.668,7.267-7.298v-1.796c0-0.853,0.295-1.147,1.147-1.147H94.954z"/>
		<g opacity="0.46" clip-path="url(#SVGID_4_)" enable-background="new    ">
			<g>
				<defs>
					<rect id="SVGID_45_" x="199.803" y="39.849" width="25.73" height="4.892"/>
				</defs>
				<clipPath id="SVGID_46_">
					<use xlink:href="#SVGID_45_"  overflow="visible"/>
				</clipPath>
				<rect x="199.803" y="39.849" clip-path="url(#SVGID_46_)" fill="#FFFFFF" width="25.729" height="4.892"/>
			</g>
		</g>
		<g opacity="0.46" clip-path="url(#SVGID_4_)" enable-background="new    ">
			<g>
				<defs>
					<rect id="SVGID_47_" x="199.803" y="50.547" width="25.73" height="4.892"/>
				</defs>
				<clipPath id="SVGID_48_">
					<use xlink:href="#SVGID_47_"  overflow="visible"/>
				</clipPath>
				<rect x="199.803" y="50.547" clip-path="url(#SVGID_48_)" fill="#FFFFFF" width="25.729" height="4.893"/>
			</g>
		</g>
		<g opacity="0.46" clip-path="url(#SVGID_4_)" enable-background="new    ">
			<g>
				<defs>
					<rect id="SVGID_49_" x="199.803" y="61.245" width="25.73" height="4.892"/>
				</defs>
				<clipPath id="SVGID_50_">
					<use xlink:href="#SVGID_49_"  overflow="visible"/>
				</clipPath>
				<rect x="199.803" y="61.245" clip-path="url(#SVGID_50_)" fill="#FFFFFF" width="25.729" height="4.892"/>
			</g>
		</g>
		<g opacity="0.46" clip-path="url(#SVGID_4_)" enable-background="new    ">
			<g>
				<defs>
					<rect id="SVGID_51_" x="210.754" y="71.943" width="14.779" height="4.892"/>
				</defs>
				<clipPath id="SVGID_52_">
					<use xlink:href="#SVGID_51_"  overflow="visible"/>
				</clipPath>
				<rect x="210.754" y="71.943" clip-path="url(#SVGID_52_)" fill="#FFFFFF" width="14.778" height="4.892"/>
			</g>
		</g>
	</g>
</g>
</svg>
