<?xml version="1.0" encoding="utf-8"?>
<!-- Generator: Adobe Illustrator 16.0.0, SVG Export Plug-In . SVG Version: 6.00 Build 0)  -->
<!DOCTYPE svg PUBLIC "-//W3C//DTD SVG 1.1//EN" "http://www.w3.org/Graphics/SVG/1.1/DTD/svg11.dtd">
<svg version="1.1" id="Layer_1" xmlns="http://www.w3.org/2000/svg" xmlns:xlink="http://www.w3.org/1999/xlink" x="0px" y="0px"
	 width="66.309px" height="97.149px" viewBox="0 0 66.309 97.149" enable-background="new 0 0 66.309 97.149" xml:space="preserve">
<g>
	<defs>
		<rect id="SVGID_1_" width="66.309" height="97.149"/>
	</defs>
	<clipPath id="SVGID_2_">
		<use xlink:href="#SVGID_1_"  overflow="visible"/>
	</clipPath>
	<g clip-path="url(#SVGID_2_)">
		<defs>
			<rect id="SVGID_3_" y="0" width="66.308" height="97.149"/>
		</defs>
		<clipPath id="SVGID_4_">
			<use xlink:href="#SVGID_3_"  overflow="visible"/>
		</clipPath>
		<g clip-path="url(#SVGID_4_)">
			<g>
				<defs>
					<rect id="SVGID_5_" y="81.145" width="27.721" height="16.005"/>
				</defs>
				<clipPath id="SVGID_6_">
					<use xlink:href="#SVGID_5_"  overflow="visible"/>
				</clipPath>
				<path clip-path="url(#SVGID_6_)" fill="#BECDD4" d="M23.631,83.507c-5.43-3.136-14.206-3.15-19.602-0.035
					s-5.368,8.181,0.062,11.315c5.43,3.136,14.205,3.151,19.601,0.035C29.088,91.707,29.061,86.642,23.631,83.507"/>
			</g>
		</g>
		<g clip-path="url(#SVGID_4_)">
			<g>
				<defs>
					<rect id="SVGID_7_" x="13.337" y="77.604" width="23.348" height="13.48"/>
				</defs>
				<clipPath id="SVGID_8_">
					<use xlink:href="#SVGID_7_"  overflow="visible"/>
				</clipPath>
				<polygon clip-path="url(#SVGID_8_)" fill="#BECDD4" points="25.012,91.085 36.687,84.345 25.012,77.604 13.337,84.345 				"/>
			</g>
		</g>
		<path clip-path="url(#SVGID_4_)" fill="#FEBFBF" d="M27.031,27.775c0,0-0.056-0.635-0.537-0.441
			c-0.483,0.193-2.682,1.943-2.823,2.214c-0.143,0.272-0.48,1.196-0.921,1.719c-0.441,0.525-8.291,3.951-8.381,4.258
			c-0.091,0.306,1.734,2.627,3.331,1.855c1.598-0.771,5.522-3.92,6.201-4.106c0.68-0.186,1.04-0.317,1.405-0.567
			c0.366-0.25,1.03-1.109,1.03-1.109s1.374-0.45,1.526-0.655c0.153-0.205-0.035-0.463-0.259-0.471
			c-0.223-0.009-1.545,0.417-1.545,0.417l0.668-0.594c0,0,1.302-0.624,1.311-0.874c0.01-0.25-0.297-0.5-0.416-0.503
			c-0.118-0.005,0.23-0.164,0.216-0.494c-0.014-0.33-0.51-0.466-0.51-0.466L27.031,27.775z"/>
		<path clip-path="url(#SVGID_4_)" fill="#FEC7C6" d="M23.805,31.623c0,0,0.697,0.237,0.87-0.613
			c0.173-0.851-0.213-1.471-0.197-1.906c0.016-0.434,0.092-0.681,0.092-0.681s0.457-0.571,0.274-1.193
			c-0.182-0.623-0.538,0.102-0.573,0.18c-0.036,0.077-0.37,0.731-0.408,0.861c-0.037,0.13-0.356,1.163-0.398,1.495
			S22.424,31.507,23.805,31.623"/>
		<polygon clip-path="url(#SVGID_4_)" fill="#C99A6B" points="32.995,39.076 24.781,34.334 24.781,24.908 32.995,29.65 		"/>
		<polygon clip-path="url(#SVGID_4_)" fill="#AE835B" points="32.995,39.076 41.21,34.334 41.21,24.908 32.995,29.65 		"/>
		<polygon clip-path="url(#SVGID_4_)" fill="#E8B687" points="32.995,29.65 41.21,24.908 32.995,20.165 24.781,24.908 		"/>
		<polygon clip-path="url(#SVGID_4_)" fill="#D9AF84" points="29.293,31.237 27.974,30.474 27.974,26.751 29.293,27.513 		"/>
		<polygon clip-path="url(#SVGID_4_)" fill="#EBCBAB" points="29.293,27.513 37.508,22.771 36.188,22.008 27.974,26.75 		"/>
		<polygon clip-path="url(#SVGID_4_)" fill="#D1A986" points="28.683,27.161 36.896,22.418 36.822,22.375 28.608,27.118 		"/>
		<polygon clip-path="url(#SVGID_4_)" fill="#87623F" points="41.21,24.908 32.995,29.65 37.428,27.279 		"/>
		<path clip-path="url(#SVGID_4_)" fill="#FFDC6E" d="M7.623,31.232c0,0-0.82-0.637-2.294-0.006
			c-1.473,0.631-2.121,2.479-2.242,2.922c-0.122,0.444-0.229,6.16-0.229,6.16s0.65,1.694,3.337,1.011
			C8.883,40.636,7.623,31.232,7.623,31.232"/>
		<path clip-path="url(#SVGID_4_)" fill="#5C6467" d="M10.081,83.303c0.037-0.053,1.543-0.856,2.648-0.833
			c1.107,0.022,1.004,1.372,0.806,1.979c-0.198,0.609-2.137,2.189-2.137,2.189l-0.893,0.881c0,0-0.861,0.934-1.294,1.233
			c-0.433,0.302-1.225,0.324-1.813,0.073c-0.588-0.25-0.706-0.377-0.739-0.43c-0.033-0.055-0.409-1.298,0.004-2.479
			C7.075,84.738,10.081,83.303,10.081,83.303"/>
		<path clip-path="url(#SVGID_4_)" fill="#7282B5" d="M6.377,75.222c-0.201,2.349-0.201,5.375-0.18,7.725
			c0.01,2.359,0.148,3.491,0.148,3.491s0.529,0.856,1.799,0.836c0.36-0.01,0.752-0.116,1.122-0.275
			c0.931-0.391,1.766-1.1,1.851-1.269c0.116-0.244-0.053-1.514-0.105-1.863c-0.064-0.359-0.466-3.746,0.116-6.889
			c0.571-3.144,1.767-7.979,1.82-9.523c0.021-0.486-0.053-1.503-0.17-2.667c-0.232-2.54-0.634-5.767-0.634-5.767l-7.101-2.804
			c0,0-0.243,3.64,1.164,6.127c1.387,2.443,1.164,4.94,1.133,5.883C7.298,69.18,6.567,72.871,6.377,75.222"/>
		<g clip-path="url(#SVGID_4_)">
			<g>
				<defs>
					<rect id="SVGID_9_" x="9.265" y="63.042" width="3.686" height="23.956"/>
				</defs>
				<clipPath id="SVGID_10_">
					<use xlink:href="#SVGID_9_"  overflow="visible"/>
				</clipPath>
				<path clip-path="url(#SVGID_10_)" fill="#E8D0C8" d="M9.266,86.999c0.932-0.393,1.767-1.102,1.852-1.271
					c0.116-0.244-0.053-1.513-0.106-1.863c-0.063-0.358-0.466-3.744,0.116-6.888c0.572-3.143,1.767-7.979,1.821-9.522
					c0.02-0.487-0.054-1.503-0.17-2.667c-0.751-0.751-1.651-1.345-2.709-1.746c0,0,1.376,4.539,0.889,7.321
					c-0.476,2.783-1.408,6.879-1.365,9.609c0.053,2.74,0.973,5.164,0,6.571C9.498,86.69,9.381,86.84,9.266,86.999"/>
			</g>
		</g>
		<path clip-path="url(#SVGID_4_)" fill="#5C6467" d="M22.031,89.93c-0.249,0.554-0.542,1.369-2.478,1.857
			c-1.932,0.493-2.542,0.313-2.969,0.49c-0.429,0.175-1.236,0.604-1.482,0.647c-0.248,0.044-1.59,0.286-2.302,0.003
			c-0.553-0.219-0.802-0.563-0.898-0.813c-0.029-0.074-0.044-0.139-0.05-0.189c-0.025-0.229-0.105-1.444,0.062-1.666
			c0.166-0.225,4.005-2.313,4.005-2.313s3.191,0.153,3.877,0.143c0.685-0.011,1.737,0.064,1.943,0.214
			c0.129,0.091,0.31,0.496,0.364,0.922C22.134,89.474,22.123,89.727,22.031,89.93"/>
		<path clip-path="url(#SVGID_4_)" fill="#FEBFBF" d="M16.276,88.241c0,0,1.354-0.003,1.714,0.238
			c0.359,0.241,0.813,1.38-0.236,2.025c-0.786,0.482-2.922,0.401-3.275,0.44c-0.353,0.04-1.017-0.045-1.237-0.277
			c-0.22-0.234,1.379-1.364,1.379-1.364L16.276,88.241z"/>
		<path clip-path="url(#SVGID_4_)" fill="#504F60" d="M22.031,89.93c-0.249,0.554-0.542,1.369-2.478,1.857
			c-1.932,0.493-2.542,0.313-2.969,0.49c-0.429,0.175-1.236,0.604-1.482,0.647c-0.248,0.044-1.59,0.286-2.302,0.003
			c-0.553-0.219-0.802-0.563-0.898-0.813c0.1,0.03,0.196,0.09,0.288,0.188c0.533,0.573,2.256,0.467,2.837,0.274
			c1.56-0.506,1.992-0.453,1.992-0.453s1.366-0.211,2.042-0.426c0.675-0.215,1.777-0.524,2.337-1.099
			c0.564-0.571,0.705-1.374,0.705-1.374C22.134,89.474,22.123,89.727,22.031,89.93"/>
		<path clip-path="url(#SVGID_4_)" fill="#7282B5" d="M8.366,62.259c0.729,1.217,3.09,2.963,3.228,3.842
			c0.147,0.888,1.046,4.93,0.772,8.644c-0.275,3.715-0.551,5.355-0.519,9.154c0.042,3.798-0.052,6.571-0.052,6.571
			s0.761,1.048,2.454,0.825c0.953-0.127,1.651-0.582,2.063-1.059c0.328-0.359,0.498-0.72,0.508-0.953
			c0.022-0.528,0.614-9.924,1.482-14.39c0.868-4.466,2.021-12.931,1.334-16.116c-0.022-0.084-0.043-0.159-0.085-0.232
			C18.376,55.794,7.826,59.57,7.826,59.57S7.636,61.03,8.366,62.259"/>
		<path clip-path="url(#SVGID_4_)" fill="#A0ABCD" d="M15.907,90.513l0.265-0.017c-0.295-5.195,0.277-8.838,1.001-13.452
			c0.455-2.901,0.971-6.191,1.361-10.473c0.266-2.907,0.411-6.802,0.413-6.842l-0.265-0.009c-0.001,0.038-0.147,3.928-0.41,6.827
			c-0.39,4.272-0.906,7.558-1.361,10.457C16.184,81.632,15.611,85.287,15.907,90.513"/>
		<g clip-path="url(#SVGID_4_)">
			<g>
				<defs>
					<rect id="SVGID_11_" x="16.313" y="58.545" width="3.532" height="31.691"/>
				</defs>
				<clipPath id="SVGID_12_">
					<use xlink:href="#SVGID_11_"  overflow="visible"/>
				</clipPath>
				<path clip-path="url(#SVGID_12_)" fill="#E8D0C8" d="M16.313,90.236c0.328-0.359,0.498-0.721,0.508-0.952
					c0.021-0.529,0.614-9.925,1.481-14.392c0.868-4.466,2.022-12.93,1.334-16.115c-0.021-0.084-0.043-0.158-0.085-0.232
					c-0.275,0.169-0.56,0.359-0.846,0.571c0,0,0.687,2.783,0.19,6.485c-0.486,3.704-1.725,11.206-1.884,12.994
					C16.875,80.141,16.513,87.507,16.313,90.236"/>
			</g>
		</g>
		<path clip-path="url(#SVGID_4_)" fill="#FDD249" d="M4.917,52.27c-0.096,1.186-0.275,4.021,0.222,4.824
			c0.507,0.795,1.09,0.995,2.455,2.055c1.354,1.047,4.845,2.338,8.169,2.116c1.672-0.116,2.751-0.688,3.428-1.238
			c0.677-0.55,0.931-1.079,0.931-1.079s-1.005-5.101-0.878-7.567c0.095-1.988,0.688-7.83,0.571-11.342
			c-0.032-0.869-0.095-1.598-0.233-2.085c-0.677-2.477-3.153-3.863-4.561-5.048c-1.407-1.185-4.644-2.021-5.882-2.148
			c-1.228-0.116-3.429,0.138-3.81,0.466c-0.381,0.327-1.714,1.545-1.587,5.143c0.127,3.587,1.154,8.073,1.587,10.591
			C5.763,49.487,5.012,51.084,4.917,52.27"/>
		<g clip-path="url(#SVGID_4_)">
			<g>
				<defs>
					<rect id="SVGID_13_" x="15.085" y="38.958" width="5.037" height="21.068"/>
				</defs>
				<clipPath id="SVGID_14_">
					<use xlink:href="#SVGID_13_"  overflow="visible"/>
				</clipPath>
				<path clip-path="url(#SVGID_14_)" fill="#DEDEDE" d="M17.848,53.254c0.232,2.316,1.217,3.228,1.344,6.771
					c0.677-0.549,0.93-1.079,0.93-1.079s-1.004-5.1-0.878-7.565c0.095-1.989,0.688-7.83,0.572-11.343
					c-0.138-0.275-0.212-0.413-0.212-0.413l-4.519-0.667c0,0,2.593,3.989,2.763,5.26C18.017,45.498,17.593,50.65,17.848,53.254"/>
			</g>
		</g>
		<path clip-path="url(#SVGID_4_)" fill="#FEBFBF" d="M8.861,25.057c0,0,0.633,2.853,0.493,3.779
			c-0.139,0.926-0.28,1.395-0.537,1.685c-0.257,0.289-0.476,0.5-0.476,0.5s0.107,0.927,2.464,1.33
			c2.358,0.404,3.447,0.409,3.743,0.49l0.295,0.081l-0.317-0.378c0,0,0.34-2.608,0.439-2.921c0.1-0.312,0.67-0.063,1.361-0.195
			c0.69-0.133,0.707-0.589,0.751-0.834c0.045-0.244,0.335-2.869,0.36-3.079c0.026-0.21,0.412-0.687,0.412-0.687l-0.395-0.718
			c0,0,0.366-0.391,0.384-0.882c0.018-0.491-0.098-2.587-0.636-3.239c-0.538-0.653-4.142-1.085-5.119-0.787
			C11.105,19.5,8.349,21.542,8.861,25.057"/>
		<path clip-path="url(#SVGID_4_)" fill="#754554" d="M17.165,21.006c0,0-0.11,0.119-0.139,0.417
			c-0.028,0.298,0.278,0.59,0.261,1.028c-0.017,0.439-0.119,1.314-0.119,1.314s-0.386-0.014-0.542,0.402
			c-0.155,0.416-0.284,1.026-0.284,1.026l-0.015,0.421l-0.409,0.125c0,0-0.103-1.022-0.814-0.802
			c-0.71,0.219-1.358,0.617-1.758,1.446c-0.4,0.828-0.51,1.439-0.924,1.705c-0.414,0.266-1.715,0.271-2.236,0.11
			c-0.521-0.159-0.86-0.436-0.86-0.436s-0.772-1.029-1.63-3.522c-0.856-2.491-0.328-3.948,0.006-4.427
			c0.334-0.48,1.332-0.863,1.332-0.863s-0.047-1.093,2.503-1.614c2.55-0.52,5.526,1.663,5.864,2.027
			c0.338,0.364,0.39,1.332,0.39,1.332L17.165,21.006z"/>
		<path clip-path="url(#SVGID_4_)" fill="#725E6D" d="M16.124,22.834c0,0,3.444-0.729,4.255-1.093
			c0.565-0.254,0.645-0.453,0.508-1.279c-0.079-0.47-0.428-1.397-0.92-1.855c-0.443-0.411-1.113-0.687-1.502-0.68
			c-0.749,0.013-4.038,0.397-5.029,0.573C12.443,18.678,16.124,22.834,16.124,22.834"/>
		<path clip-path="url(#SVGID_4_)" fill="#FECB4C" d="M7.409,23.234c0,0,0.713,1.296,3.723,1.23c3.008-0.066,6.456-2.32,6.557-3.044
			c0.102-0.724,0.386-2.511-1.73-3.503c-2.116-0.993-4.199-1.158-5.952-0.496C8.255,18.082,6.435,20,7.409,23.234"/>
	</g>
	<g clip-path="url(#SVGID_2_)">
		<defs>
			<path id="SVGID_15_" d="M14.473,25.854c-0.114,0.936,0.064,1.583,0.434,1.799c0.37,0.216,0.554-0.393,0.554-0.393
				s-0.407-1.147,0.18-1.802c0,0,0.16-0.382-0.092-0.707c-0.052-0.068-0.125-0.1-0.208-0.1
				C15.026,24.651,14.562,25.113,14.473,25.854"/>
		</defs>
		<clipPath id="SVGID_16_">
			<use xlink:href="#SVGID_15_"  overflow="visible"/>
		</clipPath>
		
			<linearGradient id="SVGID_17_" gradientUnits="userSpaceOnUse" x1="0" y1="97.0742" x2="1" y2="97.0742" gradientTransform="matrix(1.2098 0.0448 0.0448 -1.2098 10.0926 143.6775)">
			<stop  offset="0" style="stop-color:#FEB9B8"/>
			<stop  offset="0.1224" style="stop-color:#FEB9B8"/>
			<stop  offset="1" style="stop-color:#FFDEDE"/>
		</linearGradient>
		<polygon clip-path="url(#SVGID_16_)" fill="url(#SVGID_17_)" points="14.361,24.598 15.92,24.656 15.799,27.923 14.24,27.865 		
			"/>
	</g>
	<g clip-path="url(#SVGID_2_)">
		<defs>
			<rect id="SVGID_18_" y="0" width="66.308" height="97.149"/>
		</defs>
		<clipPath id="SVGID_19_">
			<use xlink:href="#SVGID_18_"  overflow="visible"/>
		</clipPath>
		<path clip-path="url(#SVGID_19_)" fill="#FEBFBF" d="M17.938,35.125c0.827,0.352,1.001,0.463,3.06,1.742
			c3.9,2.424,4.824,3.232,5.881,3.56c1.059,0.327,1.502,1.666,1.412,2.649c-0.091,0.983-0.012,1.521-2.29,1.069
			c-2.277-0.453-8.292-3.46-10.077-4.698C13.732,37.931,15.438,34.063,17.938,35.125"/>
		<path clip-path="url(#SVGID_19_)" fill="#FEBFBF" d="M38.095,31.869c0,0,0.416-0.584,0.31-0.652
			c-0.106-0.07-0.357-0.541-0.79,0.007c-0.434,0.55-1.807,1.882-1.876,1.9c-0.07,0.018-0.391-0.4-0.391-0.4s0.813-0.974,0.703-1.552
			c-0.112-0.578-0.934-0.166-1.002-0.025c-0.068,0.141-0.532,1.113-0.774,1.466c-0.242,0.354-0.762,1.009-0.914,1.538
			c-0.153,0.529-0.16,1.459-0.472,1.831c-0.313,0.372-6.833,4.727-6.833,4.727s-0.033,4.819,1.819,3.33
			c1.854-1.49,6.783-6.847,7.045-6.99c0.262-0.143,2.343-0.903,2.5-1.028c0.155-0.125,0.513-1.288,0.513-1.288l0.342-0.933
			c0,0,0.294-0.425,0.274-0.583s-0.005-0.527-0.005-0.527s0.293-0.565-0.009-0.685C38.236,31.886,38.095,31.869,38.095,31.869"/>
		<polygon clip-path="url(#SVGID_19_)" fill="#FA9698" points="38.095,31.869 36.553,33.801 37.649,32.831 38.316,31.926 		"/>
		<polygon clip-path="url(#SVGID_19_)" fill="#FA9698" points="38.544,32.69 37.447,34.152 37.999,33.679 38.539,32.936 		"/>
		<path clip-path="url(#SVGID_19_)" fill="#FFDC6E" d="M23.701,38.448c0,0,0.301,1.363-0.689,2.667
			c-0.99,1.304-1.877,1.917-1.877,1.917s-5.492-2.741-6.054-4.073c-0.476-1.126-1.205-3.241,1.691-4.162
			C18.234,34.332,23.701,38.448,23.701,38.448"/>
		<g clip-path="url(#SVGID_19_)">
			<g>
				<defs>
					<rect id="SVGID_20_" x="44.373" y="61.662" width="21.935" height="12.664"/>
				</defs>
				<clipPath id="SVGID_21_">
					<use xlink:href="#SVGID_20_"  overflow="visible"/>
				</clipPath>
				<path clip-path="url(#SVGID_21_)" fill="#BECDD4" d="M63.071,63.531c-4.296-2.481-11.24-2.493-15.51-0.028
					s-4.248,6.473,0.049,8.954c4.296,2.479,11.239,2.493,15.51,0.028C67.389,70.02,67.368,66.011,63.071,63.531"/>
			</g>
		</g>
		<path clip-path="url(#SVGID_19_)" fill="#9C9EDB" d="M49.297,68.893c2.127-1.472,3.122-1.365,3.122-1.365s2.646,0.179,2.358-1.407
			c-0.231-1.354-0.582-2.19-0.666-2.772c-0.021-0.097-0.021-0.19-0.021-0.275c0.074-3.438,1.545-9.069,1.09-11.756
			c-0.339-2-0.053-4.211,0.296-6.328c0.021-0.053,0.021-0.095,0.032-0.148c0.095-0.593,0.189-1.175,0.285-1.735
			c0.011-0.064,0.011-0.117,0.032-0.17c0.053-0.359,0.105-0.709,0.148-1.047c0.021-0.181,0.042-0.35,0.063-0.519
			c0.042-0.338,0.072-0.666,0.084-0.973c0.031-0.508,0.021-0.984-0.021-1.418c-0.033-0.275-0.075-0.529-0.148-0.773
			c-0.857-2.995-6.455-3.82-6.455-3.82s-0.561,5.598,0.36,10.486c1.429,7.557,1.809,16.666,1.862,19.08
			c0.02,0.994-1.313,1.819-1.926,2.179c-0.868,0.497-2.551,1.619-2.551,1.619S47.17,70.363,49.297,68.893"/>
		<g clip-path="url(#SVGID_19_)">
			<g>
				<defs>
					<rect id="SVGID_22_" x="52.894" y="38.524" width="3.247" height="28.326"/>
				</defs>
				<clipPath id="SVGID_23_">
					<use xlink:href="#SVGID_22_"  overflow="visible"/>
				</clipPath>
				<path clip-path="url(#SVGID_23_)" fill="#E8D0C8" d="M54.376,41.285c0,0-0.392,4.18-0.211,8.021
					c0.169,3.82,0.4,3.523,0.127,6.243c-0.286,2.719-0.806,6.613-0.656,7.492c0.148,0.878,1.005,2.656,0.973,3.809
					c0.117-0.18,0.181-0.423,0.127-0.719c-0.212-1.355-0.55-2.191-0.624-2.784c-0.021-0.095-0.021-0.189-0.021-0.274
					c0.074-3.438,1.545-9.068,1.09-11.757c-0.339-2-0.053-4.21,0.296-6.328c0.021-0.053,0.021-0.095,0.032-0.147
					c0.095-0.593,0.19-1.175,0.285-1.736c0.011-0.063,0.011-0.117,0.032-0.17c0.053-0.359,0.105-0.709,0.148-1.046
					c0.021-0.181,0.042-0.35,0.063-0.52c0.042-0.338,0.072-0.666,0.084-0.973c0.031-0.507,0.021-0.984-0.021-1.418
					c-0.794-0.328-1.842-0.498-3.196-0.444c0,0-0.158,0.793,0.688,1.926C54.239,41.348,54.376,41.285,54.376,41.285"/>
			</g>
		</g>
		<path clip-path="url(#SVGID_19_)" fill="#5C6467" d="M51.04,65.118c-0.499-0.146-0.99,0.56-1.339,0.871
			c0,0-2.685,1.572-2.766,1.781c-0.082,0.209-0.203,0.839-0.113,0.957c0.088,0.119,1.021,1.021,2.365,0.531
			c1.347-0.491,1.831-0.949,2.729-1.17s2.665-0.583,2.894-1.073c0.231-0.489-0.023-2.123-0.023-2.123s-0.282-0.106-0.395,0.093
			c-0.112,0.2-0.635,0.771-1.24,0.966c-0.43,0.14-0.903,0.12-1.346,0.052c0.027-0.124,0.075-0.247-0.017-0.36
			c-0.066-0.082-0.164-0.129-0.251-0.186c-0.121-0.081-0.226-0.187-0.347-0.267C51.143,65.157,51.091,65.134,51.04,65.118"/>
		<path clip-path="url(#SVGID_19_)" fill="#9C9EDB" d="M53.34,39.718c0.527,0.667,1.29,0.952,1.29,0.952s0.54,10.35,1.472,12.614
			c0.93,2.275,1.703,10.634,1.681,10.984c-0.02,0.338-0.072,2.4-1.691,3.989c-1.619,1.587-2.328,1.894-2.308,2.137
			c0.021,0.244,0.741,1.461,2.275,1.207c1.524-0.254,1.947-0.361,2.687-1.144c0.741-0.782,1.525-1.312,1.642-1.927
			c0.104-0.613-0.413-1.818-0.095-2.972c-0.012-0.011,0-0.011,0-0.022c0.01-0.063,0.03-0.137,0.053-0.222
			c0-0.021,0-0.053,0.011-0.074c0.021-0.074,0.031-0.169,0.052-0.264c0.042-0.265,0.084-0.572,0.139-0.932
			c0.338-2.54,0.751-7.248,0.581-8.74c-0.476-4.212-0.952-3.788-0.814-4.984c0.148-1.196,2.094-7.191,1.979-14.069
			c0-0.17-0.042-0.328-0.116-0.455c-0.995-1.968-9.121,0.017-9.121,0.017S52.599,38.777,53.34,39.718"/>
		<path clip-path="url(#SVGID_19_)" fill="#B0B2FF" d="M59.585,66.878c1.941-9.073,0.632-13.482,0.139-15.144
			c-0.065-0.223-0.118-0.399-0.138-0.511c-0.108-0.623,0.74-4.131,1.303-6.452c0.25-1.034,0.467-1.926,0.551-2.362
			c0.283-1.454,0.112-5.84,0.105-6.026l-0.265,0.011c0.002,0.045,0.177,4.541-0.101,5.964c-0.083,0.43-0.298,1.321-0.548,2.35
			c-0.779,3.219-1.416,5.934-1.307,6.561c0.021,0.126,0.072,0.299,0.146,0.542c0.488,1.641,1.784,6.003-0.145,15.01L59.585,66.878z"
			/>
		<g clip-path="url(#SVGID_19_)">
			<g>
				<defs>
					<rect id="SVGID_24_" x="59.455" y="35.797" width="2.841" height="33.952"/>
				</defs>
				<clipPath id="SVGID_25_">
					<use xlink:href="#SVGID_24_"  overflow="visible"/>
				</clipPath>
				<path clip-path="url(#SVGID_25_)" fill="#E8D0C8" d="M59.456,69.749c0.423-0.392,0.771-0.74,0.846-1.121
					c0.116-0.614-0.381-1.82-0.042-2.975c0.01-0.03,0.021-0.063,0.032-0.094c-0.011-0.011,0-0.011,0-0.021
					c0.01-0.063,0.031-0.139,0.053-0.224c0-0.02,0-0.052,0.01-0.072c0.011-0.086,0.032-0.171,0.054-0.265
					c0.042-0.265,0.084-0.573,0.138-0.932c0.338-2.54,0.751-7.248,0.581-8.74c-0.476-4.212-0.952-3.788-0.815-4.985
					c0.149-1.195,2.096-7.189,1.979-14.067c0-0.17-0.042-0.328-0.116-0.455c-0.307,0.074-0.54,0.148-0.54,0.148s0.36,2.507,0,5.745
					c-0.37,3.249-1.852,8.599-1.852,9.265c0,0.655,1.017,2.582,0.984,6.147c-0.042,3.567-1.08,8.604-1.016,9.323
					C59.794,66.935,60.438,68.162,59.456,69.749"/>
			</g>
		</g>
		<path clip-path="url(#SVGID_19_)" fill="#5C6467" d="M56.292,67.715c0.249-0.086,0.55-0.046,0.833,0.013
			c0.328,0.069,0.642,0.196,0.945,0.336c0.302,0.137,0.311,0.255,0.29,0.541c0.391-0.193,1.484-0.737,1.653-1.15
			c0.122-0.3,0.174-1.127,0.174-1.127s0.06,0.122,0.107,0.622s0.163,1.77,0.145,2.105c-0.018,0.336-1.802,1.785-2.298,2.133
			c-1.278,0.896-1.703,1.233-3.49,1.29s-1.686-1.165-1.669-1.455c0.019-0.29,1.783-1.795,2.271-2.161
			c0.286-0.214,0.492-0.588,0.688-0.879C56.036,67.845,56.156,67.761,56.292,67.715"/>
		<path clip-path="url(#SVGID_19_)" fill="#FEBFBF" d="M52.894,11.769c0,0-1.176-0.21-2.644,2.18
			c-1.298,2.116-2.24,3.608-3.729,5.092c-1.488,1.484-1.916,1.716-1.977,2.668c-0.059,0.954,0.243,2.755,2.201,2.025
			c1.958-0.732,4.248-4.698,5.102-6.377C52.702,15.678,60.471,11.716,52.894,11.769"/>
		<path clip-path="url(#SVGID_19_)" fill="#EB66FF" d="M46.61,18.936c0,0,1.529,0.345,2.592,1.077s5.355-8.3,4.774-8.429
			c-0.893-0.199-1.767,0.161-2.554,0.764C50.672,12.926,46.61,18.936,46.61,18.936"/>
	</g>
	<g clip-path="url(#SVGID_2_)">
		<defs>
			<path id="SVGID_26_" d="M58.457,1.703c0,0,0.514,4.456,0.396,7.08c-0.117,2.621-0.404,3.366,0.497,4.212
				c0.901,0.845,3.428,1.242,3.428,1.242s-2.115-3.111-0.318-7.006c1.766-3.829,0.259-6.222-1.127-6.909
				C60.872,0.092,60.482,0,60.154,0C58.745,0,58.457,1.703,58.457,1.703"/>
		</defs>
		<clipPath id="SVGID_27_">
			<use xlink:href="#SVGID_26_"  overflow="visible"/>
		</clipPath>
		
			<linearGradient id="SVGID_28_" gradientUnits="userSpaceOnUse" x1="0" y1="97.1182" x2="1" y2="97.1182" gradientTransform="matrix(-1.1386 -12.4292 -12.4292 1.1386 1268.8652 -98.7815)">
			<stop  offset="0" style="stop-color:#F7413E"/>
			<stop  offset="0.1224" style="stop-color:#F7413E"/>
			<stop  offset="0.9896" style="stop-color:#FF6D67"/>
			<stop  offset="1" style="stop-color:#FF6D67"/>
		</linearGradient>
		<polygon clip-path="url(#SVGID_27_)" fill="url(#SVGID_28_)" points="58.497,14.761 57.156,0.119 64.178,-0.524 65.52,14.118 		
			"/>
	</g>
	<g clip-path="url(#SVGID_2_)">
		<defs>
			<rect id="SVGID_29_" y="0" width="66.308" height="97.149"/>
		</defs>
		<clipPath id="SVGID_30_">
			<use xlink:href="#SVGID_29_"  overflow="visible"/>
		</clipPath>
		<path clip-path="url(#SVGID_30_)" fill="#F370FF" d="M48.948,21.55c-0.021,0.624,0.095,1.016,0.274,1.429v0.009
			c0.042,0.085,0.084,0.18,0.126,0.276c0.149,0.307,0.328,0.667,0.52,1.142c0.529,1.376-0.582,9.747-0.412,10.349
			c0.169,0.593,0.381,1.153,2.973,1.937c2.89,0.889,6.962,0.794,9.017-0.011c0.316-0.126,0.603-0.264,0.846-0.434
			c0,0-0.561-5.893-0.423-8.094c0.085-1.281,0.751-2.931,1.418-4.593c0.031-0.074,0.063-0.158,0.095-0.233
			c0.445-1.111,0.868-2.212,1.111-3.216c1.101-4.561-0.646-5.101-2.031-6.159c-1.186-0.899-2.403-1.376-3.768-1.704
			c-2.054-0.508-4.274-0.867-4.899-0.803c-0.624,0.063-2.412,0.962-3.163,3.671c-0.657,2.349-1.366,4.328-1.599,5.693
			c-0.042,0.212-0.063,0.402-0.073,0.582C48.948,21.444,48.948,21.498,48.948,21.55"/>
		<g clip-path="url(#SVGID_30_)">
			<g>
				<defs>
					<rect id="SVGID_31_" x="48.945" y="19.724" width="6.237" height="3.951"/>
				</defs>
				<clipPath id="SVGID_32_">
					<use xlink:href="#SVGID_31_"  overflow="visible"/>
				</clipPath>
				<path clip-path="url(#SVGID_32_)" fill="#E79BF2" d="M48.948,21.55c-0.021,0.624,0.095,1.016,0.274,1.429v0.009
					c0.042,0.085,0.084,0.18,0.126,0.276c0.53,0.127,1.187,0.296,1.567,0.381c0.73,0.169,2.551-0.434,2.551-0.434l-1.186-0.73
					c0,0,2.011-0.434,2.528-0.858c0.509-0.433,0.35-1.301,0.35-1.301c-1.153-1.27-4.338-0.233-6.127,0.487
					c-0.042,0.212-0.063,0.402-0.073,0.582C48.948,21.444,48.948,21.498,48.948,21.55"/>
			</g>
		</g>
		<g clip-path="url(#SVGID_30_)">
			<g>
				<defs>
					<rect id="SVGID_33_" x="49.223" y="19.656" width="14.063" height="17.668"/>
				</defs>
				<clipPath id="SVGID_34_">
					<use xlink:href="#SVGID_33_"  overflow="visible"/>
				</clipPath>
				<path clip-path="url(#SVGID_34_)" fill="#FFFFFF" d="M49.456,34.755c0.169,0.593,0.381,1.153,2.974,1.937
					c2.889,0.889,6.962,0.798,9.015-0.006c0.317-0.127,0.604-0.265,0.847-0.434c0,0-0.562-5.898-0.423-8.1
					c0.085-1.28,0.751-2.93,1.418-4.592c-0.413-2.18-1.06-3.799-1.979-3.894c-2.794-0.297-0.072,5.675-3.893,5.844
					c-3.531,0.159-3.369-1.196-5.046-1.437c-1.876-0.263-2.766-0.418-3.146-1.085c0.169,0.382,0.391,0.794,0.645,1.418
					C50.396,25.783,49.286,34.152,49.456,34.755"/>
			</g>
		</g>
		<g clip-path="url(#SVGID_30_)">
			<g>
				<defs>
					<rect id="SVGID_35_" x="53.751" y="20.079" width="9.63" height="16.607"/>
				</defs>
				<clipPath id="SVGID_36_">
					<use xlink:href="#SVGID_35_"  overflow="visible"/>
				</clipPath>
				<path clip-path="url(#SVGID_36_)" fill="#E79BF2" d="M53.794,33.91l6.57-3.661c0,0,0.891,0.312,0.995,2.417
					c0.071,1.417-0.073,2.856,0.084,4.02c0.318-0.127,0.604-0.264,0.848-0.433c0,0-0.561-5.899-0.423-8.1
					c0.085-1.344,0.814-3.09,1.513-4.825c-1.683-1.799-3.217-3.248-3.217-3.248s-0.361,2.339-0.814,3.819
					c-0.61,1.994-4.188,1.486-5.598,0.764c1.182,0.888,4.19,1.143,5.337,0.546c-0.249,1.531-0.143,3.389-0.143,3.389L53.794,33.91z"
					/>
			</g>
		</g>
		<path clip-path="url(#SVGID_30_)" fill="#FEBFBF" d="M63.732,15.473c0,0-2.291-0.76-3.213,3.022
			c-1.502,6.154-0.975,9.36-1.012,9.944c-2.493,3.101-6.894,5.606-6.997,5.6c-0.103-0.006-1.305,0.212-1.438,0.411
			c-0.133,0.198-2.051,1.388-2.154,1.64c-0.101,0.252-1.77,1.042-1.77,1.042l-0.195,0.369c0,0-0.338,0.128-0.344,0.431
			c-0.006,0.304,0.328,0.331,0.328,0.331s-0.107,0.491,0.265,0.521c0.373,0.029,1.765-0.531,1.813-0.566
			c0.048-0.036,0.082,0.03,0.082,0.03s-0.514,0.298-0.59,0.507c-0.075,0.208-0.059,0.675,0.433,0.46
			c0.492-0.215,1.754-0.964,2.092-1.214c0.339-0.251,1.448-1.373,1.568-1.467c0.086-0.069,0.442-0.831,1.297-1.314
			c0.33-0.186,0.799-0.413,1.467-0.685c2.4-0.974,6.416-3.502,6.659-4.703c0.521-2.585,3.214-11.039,2.858-13.082
			C64.71,15.751,63.732,15.473,63.732,15.473"/>
		<path clip-path="url(#SVGID_30_)" fill="#FA9698" d="M61.703,30.063c-0.23,0.382-0.676,0.889-2.48,2.188
			c-1.804,1.301-5.27,2.722-5.4,2.818c-0.13,0.096-0.767,0.743-0.767,0.743l-0.467,0.036l-0.683-0.382l0.07,0.229l0.27,0.361
			c0,0-0.023,0.403-0.193,0.652c-0.171,0.248-0.918,1.045-1.077,1.225c-0.156,0.18-1.864,1.176-2.085,1.249
			c-0.118,0.038-0.275,0.024-0.382-0.048c0.053,0.122,0.179,0.192,0.431,0.081c0.492-0.214,1.755-0.964,2.093-1.214
			c0.339-0.251,1.447-1.373,1.567-1.467c0.086-0.069,0.443-0.83,1.297-1.314c0.33-0.186,0.8-0.413,1.468-0.684
			c2.136-0.868,5.55-2.965,6.445-4.262C61.778,30.086,61.743,29.997,61.703,30.063"/>
		<path clip-path="url(#SVGID_30_)" fill="#FA9698" d="M49.098,38.249c0,0-0.054,0.032-0.126,0.079
			c0.097-0.05,0.167-0.078,0.167-0.078l1.081-1.03l0.08-0.173l-1.194,1.055c0,0-1.326,0.572-1.698,0.557
			c-0.372-0.014-0.441-0.033-0.435-0.217c0.008-0.183,0.111-0.268,0.188-0.376c0.075-0.107,0.988-0.231,1.188-0.335
			s1.075-0.669,1.075-0.669s-0.617,0.347-1.147,0.587c-0.532,0.24-1.011,0.247-1.104,0.276c-0.093,0.028-0.213,0.241-0.213,0.241
			l-0.181-0.012c0,0-0.117-0.132-0.085-0.289c0.031-0.158,0.173-0.214,0.173-0.214l1.333-0.453l0.81-0.537l-0.822,0.433
			c0,0-1.065,0.371-1.263,0.422c-0.08,0.037-0.31,0.166-0.314,0.417c-0.006,0.303,0.328,0.331,0.328,0.331s-0.108,0.491,0.264,0.52
			c0.374,0.029,1.767-0.53,1.813-0.565C49.063,38.183,49.098,38.249,49.098,38.249"/>
		<path clip-path="url(#SVGID_30_)" fill="#FA9698" d="M59.091,28.935c0.673-0.417,0.02,0.147,0.612,0.159
			c0.595,0.011,1.607-0.055,1.607-0.055l-0.559-0.165c-1.176-0.227-1.243-0.435-1.243-0.435c-0.137,0.169-0.277,0.335-0.42,0.497
			L59.091,28.935z"/>
		<path clip-path="url(#SVGID_30_)" fill="#FEBFBF" d="M53.679,37.222c0,0-0.126-0.46-0.097-0.742
			c0.031-0.282,0.231-0.593,0.208-1.06c-0.021-0.467-0.223-1.039-0.751-1.21c-0.527-0.171-0.925-0.291-1.282,0.463
			c-0.356,0.753,0.828,1.021,0.879,1.243c0.051,0.224-0.041,0.658,0.064,1.026C52.808,37.311,53.533,37.885,53.679,37.222"/>
		<path clip-path="url(#SVGID_30_)" fill="#FEBFBF" d="M54.667,20.828h-0.01c0,0,0.066,0.354-0.034,0.541
			c-0.103,0.187-1.638,0.519-1.638,0.519l-1.798,0.457c0,0,1.41,0.203,1.683,0.18c0.272-0.022,0.94,0.047,0.748,0.436
			c-0.191,0.388-2.363,0.163-2.971,0.165c-0.606-0.001-0.861-0.261-1.612-0.258c-0.749,0.007-2.601,1.519-3.393,1.147
			c-0.791-0.374-1.563-1.882-0.962-2.937c0.598-1.054,2.036-0.59,2.706-0.588c0.674,0.005,1.332-0.2,1.701-0.319
			c0.369-0.118,0.616-0.571,0.663-0.696c0.048-0.125,0.716-0.691,0.716-0.691c0.227-0.199,1.285-1.084,1.379-1.194
			c0.093-0.11,0.268-0.404,0.337-0.488c0.069-0.085,0.218-0.295,0.395-0.095c0.006,0.007,0.01,0.01,0.013,0.017
			c0.154,0.19,0.042,0.355-0.053,0.686c-0.1,0.343-0.756,0.91-0.756,0.91l-0.661,0.655c0,0,0.083,0.136,0.414,0.233
			c0.022,0.008,0.053,0.011,0.096,0.014h0.002c0.15,0.01,0.414-0.006,0.728-0.035l0.014,0.001c0.866-0.076,2.108-0.234,2.379-0.193
			c0.276,0.044,0.17,0.364,0.141,0.54c-0.009,0.045-0.012,0.08-0.002,0.101c0.005,0.013,0.02,0.02,0.04,0.017
			c0.169-0.028,0.321,0.215,0.34,0.539c0.005,0.083-0.034,0.145-0.092,0.19C55.025,20.807,54.728,20.826,54.667,20.828"/>
		<path clip-path="url(#SVGID_30_)" fill="#FFADB7" d="M55.067,8.465c0,0,0.033,2.974-0.138,4.089
			c-0.171,1.114-0.539,1.774,0.717,2.181c0.719,0.232,3.413-0.508,4.537-1.764c0.1-0.154-0.199-0.349-0.452-1.227
			c-0.255-0.885-0.439-1.286-0.434-3.015C59.306,7,59.219,5.417,59.219,5.417L55.067,8.465z"/>
	</g>
	<g clip-path="url(#SVGID_2_)">
		<defs>
			<path id="SVGID_37_" d="M55.001,11.825c-0.022,0.286-0.043,0.539-0.074,0.73c0,0.032-0.011,0.063-0.021,0.096
				c0.18,0.021,0.455,0,0.856-0.106c1.715-0.434,2.181-0.518,2.698,0c0.521,0.508,0.329,1.079-0.253,1.692
				c0.762-0.307,1.512-0.739,1.979-1.269c0.096-0.148-0.201-0.35-0.455-1.227c-0.254-0.879-0.434-1.281-0.434-3.016V7.9
				L55.001,11.825z"/>
		</defs>
		<clipPath id="SVGID_38_">
			<use xlink:href="#SVGID_37_"  overflow="visible"/>
		</clipPath>
		
			<linearGradient id="SVGID_39_" gradientUnits="userSpaceOnUse" x1="0" y1="97.3291" x2="1" y2="97.3291" gradientTransform="matrix(-2.8603 3.6209 -3.6209 -2.8603 410.0526 289.3949)">
			<stop  offset="0" style="stop-color:#FCA4B5"/>
			<stop  offset="0.1224" style="stop-color:#FCA4B5"/>
			<stop  offset="0.9896" style="stop-color:#FFADB7"/>
			<stop  offset="1" style="stop-color:#FFADB7"/>
		</linearGradient>
		<polygon clip-path="url(#SVGID_38_)" fill="url(#SVGID_39_)" points="56.971,5.286 51.822,11.802 58.215,16.853 63.363,10.335 		
			"/>
	</g>
	<g clip-path="url(#SVGID_2_)">
		<defs>
			<rect id="SVGID_40_" y="0" width="66.308" height="97.149"/>
		</defs>
		<clipPath id="SVGID_41_">
			<use xlink:href="#SVGID_40_"  overflow="visible"/>
		</clipPath>
		<path clip-path="url(#SVGID_41_)" fill="#FEBFBF" d="M56.799,0.238c0,0-2.847,0.598-3.587,2.774
			c-0.741,2.177-0.622,2.273-0.574,3.145c0.048,0.873-0.234,2.095,0.101,3.513c0.335,1.419,0.664,2.622,1.311,2.837
			c0.646,0.215,4.329-0.526,5.668-3.038c1.339-2.51,2.603-4.809,1.578-7.143C60.577,0.692,58.234-0.12,56.799,0.238"/>
		<path clip-path="url(#SVGID_41_)" fill="#FF6D67" d="M61.513,2.476c-0.538-1.424-1.232-1.698-1.232-1.698
			s-0.667-0.727-2.547-0.729c-1.776-0.002-3.361,0.936-4.081,1.721c-1.013,1.104-0.595,1.701-0.595,1.701l0.008-0.016
			c0.036-0.075,0.201-0.361,0.548-0.222c0.48,0.192,0.681,0.568,1.073,0.707c2.764,0.975,3.318,0.235,3.547,1.514
			c0.229,1.288,0.353,1.746,0.929,1.544c0.932-0.325,0.891-0.123,1.343,0.505c-0.171,0.594-0.383,1.242-0.625,1.813
			c0,0,0.024,0.583,1.087-1.76C61.374,6.59,62.408,5.29,61.513,2.476"/>
	</g>
	<g clip-path="url(#SVGID_2_)">
		<defs>
			<path id="SVGID_42_" d="M59.515,7.316c0.24,0.647-0.238,1.316-0.19,1.387c0.048,0.072,0.287,1.172,1.268,0.24
				c0.98-0.933,1.154-1.975,0.239-2.224c-0.117-0.032-0.226-0.046-0.326-0.046C59.82,6.673,59.515,7.316,59.515,7.316"/>
		</defs>
		<clipPath id="SVGID_43_">
			<use xlink:href="#SVGID_42_"  overflow="visible"/>
		</clipPath>
		
			<linearGradient id="SVGID_44_" gradientUnits="userSpaceOnUse" x1="0" y1="97.0225" x2="1" y2="97.0225" gradientTransform="matrix(2.9039 -1.3118 -1.3118 -2.9039 186.519 290.5981)">
			<stop  offset="0" style="stop-color:#FEB9B8"/>
			<stop  offset="0.1224" style="stop-color:#FEB9B8"/>
			<stop  offset="1" style="stop-color:#FFDEDE"/>
		</linearGradient>
		<polygon clip-path="url(#SVGID_43_)" fill="url(#SVGID_44_)" points="58.074,7.216 61.327,5.747 62.947,9.333 59.694,10.802 		"/>
	</g>
	<g clip-path="url(#SVGID_2_)">
		<defs>
			<path id="SVGID_45_" d="M59.847,7.443c0.309,0.382-0.188,0.633-0.137,0.936s0.496,0.354,0.58,0.228s0.957-1.114,0.354-1.434
				c-0.069-0.036-0.14-0.051-0.209-0.051C60.12,7.123,59.847,7.443,59.847,7.443"/>
		</defs>
		<clipPath id="SVGID_46_">
			<use xlink:href="#SVGID_45_"  overflow="visible"/>
		</clipPath>
		
			<linearGradient id="SVGID_47_" gradientUnits="userSpaceOnUse" x1="0" y1="97.333" x2="1" y2="97.333" gradientTransform="matrix(-0.8131 1.0274 1.0274 0.8131 -39.2846 -71.5505)">
			<stop  offset="0" style="stop-color:#FCA4B5"/>
			<stop  offset="0.1224" style="stop-color:#FCA4B5"/>
			<stop  offset="0.9896" style="stop-color:#FFADB7"/>
			<stop  offset="1" style="stop-color:#FFADB7"/>
		</linearGradient>
		<polygon clip-path="url(#SVGID_46_)" fill="url(#SVGID_47_)" points="62.031,7.743 60.636,9.506 58.875,8.113 60.271,6.35 		"/>
	</g>
	<g clip-path="url(#SVGID_2_)">
		<defs>
			<rect id="SVGID_48_" y="0" width="66.308" height="97.149"/>
		</defs>
		<clipPath id="SVGID_49_">
			<use xlink:href="#SVGID_48_"  overflow="visible"/>
		</clipPath>
		<path clip-path="url(#SVGID_49_)" fill="#FF6D67" d="M58.382,6.214c0,0,0.243,1.008,0.134,1.894
			c-0.11,0.885,0.211,1.838,0.211,1.838s-0.177-1.146,0-1.802c0.176-0.656,0.521-1.009,0.47-1.37
			C59.146,6.412,58.382,6.214,58.382,6.214"/>
		<path clip-path="url(#SVGID_49_)" fill="#FA9698" d="M51.534,19.507c0.021,0.008,0.053,0.012,0.096,0.015l-0.419,0.019
			l-0.672-0.267l0.799-0.364c0,0,0.947-0.975,1.036-1.141c0.058-0.113,0.157-0.499,0.216-0.745c0.154,0.189,0.042,0.354-0.053,0.685
			c-0.101,0.343-0.756,0.91-0.756,0.91l-0.661,0.656C51.12,19.275,51.203,19.411,51.534,19.507"/>
		<path clip-path="url(#SVGID_49_)" fill="#FA9698" d="M53.811,20.133c-0.563,0.085-2.216,0.188-2.216,0.188l3.298-0.487
			c-0.01,0.045-0.013,0.08-0.002,0.102C54.647,19.981,54.232,20.071,53.811,20.133"/>
		<path clip-path="url(#SVGID_49_)" fill="#FA9698" d="M55.179,20.682c-0.152,0.125-0.451,0.144-0.513,0.146h-0.009
			c-0.144,0.011-0.803,0.135-1.348,0.188c-0.504,0.047-1.414,0.152-1.551,0.166c0.248-0.04,2.906-0.462,3.18-0.461
			C55.021,20.719,55.103,20.708,55.179,20.682"/>
		<path clip-path="url(#SVGID_49_)" fill="#EB66FF" d="M64.174,15.366c0,0,0.901,0.742,0.901,1.751c0,1.008-1.005,5.634-1.332,6.498
			c-1.593,0.187-4.055-0.543-4.112-1.024c-0.058-0.483,0.59-3.793,1.163-5.276C61.365,15.835,62.425,14.637,64.174,15.366"/>
	</g>
</g>
</svg>
