<?xml version="1.0" encoding="utf-8"?>
<!-- Generator: Adobe Illustrator 16.0.0, SVG Export Plug-In . SVG Version: 6.00 Build 0)  -->
<!DOCTYPE svg PUBLIC "-//W3C//DTD SVG 1.1//EN" "http://www.w3.org/Graphics/SVG/1.1/DTD/svg11.dtd">
<svg version="1.1" id="Layer_1" xmlns="http://www.w3.org/2000/svg" xmlns:xlink="http://www.w3.org/1999/xlink" x="0px" y="0px"
	 width="110.716px" height="103.895px" viewBox="0 0 110.716 103.895" enable-background="new 0 0 110.716 103.895"
	 xml:space="preserve">
<g>
	<defs>
		<rect id="SVGID_1_" width="110.716" height="103.895"/>
	</defs>
	<clipPath id="SVGID_2_">
		<use xlink:href="#SVGID_1_"  overflow="visible"/>
	</clipPath>
	<g clip-path="url(#SVGID_2_)">
		<defs>
			<rect id="SVGID_3_" width="110.716" height="103.895"/>
		</defs>
		<clipPath id="SVGID_4_">
			<use xlink:href="#SVGID_3_"  overflow="visible"/>
		</clipPath>
		<g clip-path="url(#SVGID_4_)">
			<g>
				<defs>
					<rect id="SVGID_5_" y="39.961" width="110.716" height="63.934"/>
				</defs>
				<clipPath id="SVGID_6_">
					<use xlink:href="#SVGID_5_"  overflow="visible"/>
				</clipPath>
				<polygon clip-path="url(#SVGID_6_)" fill="#BFB5BF" points="27.966,39.961 110.716,87.749 82.751,103.895 0,56.107 				"/>
			</g>
		</g>
	</g>
	<polygon clip-path="url(#SVGID_2_)" fill="#0F0E1B" points="16.162,59.947 19.911,57.052 33.216,66.409 65.202,88.259 
		69.367,85.756 80.467,92.803 75.328,78.54 16.321,49.241 	"/>
	<g clip-path="url(#SVGID_2_)">
		<defs>
			<rect id="SVGID_7_" width="110.716" height="103.895"/>
		</defs>
		<clipPath id="SVGID_8_">
			<use xlink:href="#SVGID_7_"  overflow="visible"/>
		</clipPath>
		<path clip-path="url(#SVGID_8_)" fill="#23222D" d="M82.229,92.609c0-3.628-2.563-8.048-5.724-9.872
			c-1.575-0.909-3.002-1.003-4.037-0.418h-0.001c-0.008,0.005-0.016,0.01-0.023,0.014L68.83,84.42v2.8l8.116,11.145l3.39-1.97
			c0.161-0.073,0.312-0.161,0.456-0.265v-0.001C81.686,95.487,82.229,94.278,82.229,92.609"/>
		<path clip-path="url(#SVGID_8_)" fill="#23222D" d="M32.773,64.055c0-3.627-2.563-8.046-5.724-9.872
			c-1.671-0.964-3.174-1.01-4.221-0.304l-3.578,2.072l2.422,3.949c0.633,2.354,2.08,4.727,3.877,6.322l2.132,3.477l3.144-1.833
			c0.203-0.088,0.393-0.198,0.569-0.332C32.253,66.882,32.773,65.688,32.773,64.055"/>
		<path clip-path="url(#SVGID_8_)" fill="#E4DFD9" d="M107.674,69.925v10.109l-4.316-2.492c-1.131-3.664-3.74-6.994-6.778-8.749
			c-4.075-2.353-4.634,0.386-6.926,4.468c-0.184,0.328-0.448,1.14-0.448,1.14l-34.32-19.813c0.007-0.44,0.011-0.904,0.011-1.394
			c0-4.675-3.304-12.903-7.378-15.255c-4.075-2.353-7.379-0.469-7.379,4.206c0,0.494,0.009,0.965,0.025,1.414L29.222,37.24V0.896
			l66.867,38.606l3.942,21.139L107.674,69.925z"/>
		<path clip-path="url(#SVGID_8_)" fill="#2D2C37" d="M102.695,80.792c0,3.627-2.562,5.088-5.723,3.263
			c-3.161-1.824-5.724-6.244-5.724-9.871c0-3.628,2.563-5.089,5.724-3.264S102.695,77.165,102.695,80.792"/>
		<path clip-path="url(#SVGID_8_)" fill="#2D2C37" d="M53.24,52.239c0,3.627-2.563,5.088-5.723,3.263
			c-3.161-1.824-5.723-8.774-5.723-12.402c0-3.627,2.562-5.088,5.723-3.263C50.677,41.662,53.24,48.612,53.24,52.239"/>
		<path clip-path="url(#SVGID_8_)" fill="#504F58" d="M51.493,51.23c0,2.521-1.78,3.535-3.976,2.267
			c-2.196-1.268-3.976-6.869-3.976-9.389s1.78-3.534,3.976-2.267C49.713,43.109,51.493,48.71,51.493,51.23"/>
		<path clip-path="url(#SVGID_8_)" fill="#C2C7D6" d="M51.12,51.015c0,2.283-1.613,3.203-3.603,2.054
			c-1.99-1.149-3.603-6.461-3.603-8.744c0-2.284,1.613-3.204,3.603-2.055C49.507,43.418,51.12,48.73,51.12,51.015"/>
		<path clip-path="url(#SVGID_8_)" fill="#A5ACC2" d="M50.758,50.805c0,2.054-1.451,2.881-3.24,1.848
			c-1.79-1.034-3.241-6.066-3.241-8.12s1.451-2.881,3.241-1.848C49.307,43.719,50.758,48.751,50.758,50.805"/>
		<path clip-path="url(#SVGID_8_)" fill="#CFD9E7" d="M49.506,47.552c0,1.26-0.891,4.297-1.988,3.664
			c-1.099-0.635-1.989-4.7-1.989-5.96c0-1.26,0.89-1.767,1.989-1.133C48.615,44.757,49.506,46.292,49.506,47.552"/>
		<path clip-path="url(#SVGID_8_)" fill="#504F58" d="M100.949,79.784c0,2.52-1.78,3.534-3.977,2.267
			c-2.196-1.269-3.977-4.339-3.977-6.859c0-2.52,1.78-3.535,3.977-2.267C99.169,74.192,100.949,77.263,100.949,79.784"/>
		<path clip-path="url(#SVGID_8_)" fill="#B5BBCD" d="M100.575,79.568c0,2.282-1.613,3.202-3.603,2.054
			c-1.99-1.149-3.604-3.932-3.604-6.214c0-2.283,1.613-3.203,3.604-2.055C98.962,74.501,100.575,77.285,100.575,79.568"/>
		<path clip-path="url(#SVGID_8_)" fill="#CFD9E7" d="M99.735,79.083c0,1.751-1.237,2.456-2.763,1.575
			c-1.526-0.881-2.764-3.015-2.764-4.766s1.237-2.457,2.764-1.575C98.498,75.198,99.735,77.332,99.735,79.083"/>
		<path clip-path="url(#SVGID_8_)" fill="#E1E7EF" d="M98.479,78.357c0,0.956-0.675,1.341-1.507,0.859
			c-0.833-0.479-1.508-1.644-1.508-2.6c0-0.955,0.675-1.34,1.508-0.859C97.805,76.239,98.479,77.403,98.479,78.357"/>
		<path clip-path="url(#SVGID_8_)" fill="#C2C7D6" d="M97.791,77.96c0,0.519-0.366,0.728-0.818,0.467s-0.819-0.895-0.819-1.412
			c0-0.52,0.367-0.729,0.819-0.468C97.425,76.809,97.791,77.441,97.791,77.96"/>
		<polygon clip-path="url(#SVGID_8_)" fill="#6B6164" points="108.839,83.969 84.727,94.542 80.695,93.16 78.175,91.705 
			103.883,76.862 107.836,79.144 108.839,80.621 		"/>
		<polygon clip-path="url(#SVGID_8_)" fill="#F3F1EE" points="95.646,38.032 29.773,0 29.222,0.895 96.089,39.502 		"/>
		<polygon clip-path="url(#SVGID_8_)" fill="#98979D" points="78,52.624 30.244,25.052 30.244,23.667 78,51.238 		"/>
		<polygon clip-path="url(#SVGID_8_)" fill="#CDC6BC" points="78.644,66.906 78.644,33.543 92.412,41.492 92.412,63.699 
			87.884,72.24 		"/>
		<polygon clip-path="url(#SVGID_8_)" fill="#2D2C37" points="96.389,43.788 93.285,41.996 93.285,59.56 97.882,62.215 
			99.182,60.099 		"/>
		<polygon clip-path="url(#SVGID_8_)" fill="#7572A4" points="93.699,59.325 93.699,42.711 96.069,44.079 98.74,59.788 
			97.631,61.596 		"/>
		<polygon clip-path="url(#SVGID_8_)" fill="#9B897F" points="89.205,73.426 78,66.957 78,67.933 89.205,74.402 		"/>
		<polygon clip-path="url(#SVGID_8_)" fill="#9B897F" points="29.222,36.264 25.297,33.998 25.297,34.974 29.222,37.24 		"/>
		<polygon clip-path="url(#SVGID_8_)" fill="#504F58" points="106.438,73.604 104.795,72.655 104.795,70.769 106.438,71.717 		"/>
		<polygon clip-path="url(#SVGID_8_)" fill="#FF9A2E" points="106.299,73.363 104.935,72.575 104.935,71.009 106.299,71.797 		"/>
		<path clip-path="url(#SVGID_8_)" fill="#504F58" d="M32.754,29.869c0,0.583-0.412,0.817-0.92,0.524s-0.92-1.003-0.92-1.586
			s0.412-0.817,0.92-0.524S32.754,29.286,32.754,29.869"/>
		<path clip-path="url(#SVGID_8_)" fill="#FF512E" d="M32.563,29.758c0,0.461-0.326,0.647-0.729,0.415
			c-0.402-0.232-0.728-0.794-0.728-1.256s0.326-0.648,0.728-0.415C32.237,28.734,32.563,29.296,32.563,29.758"/>
		<path clip-path="url(#SVGID_8_)" fill="#F9F1EC" d="M32.355,33.214c0,0.396-0.279,0.556-0.625,0.356
			c-0.345-0.199-0.625-0.682-0.625-1.078s0.28-0.555,0.625-0.356C32.077,32.335,32.355,32.818,32.355,33.214"/>
		<path clip-path="url(#SVGID_8_)" fill="#FF9A2E" d="M32.261,33.16c0,0.336-0.237,0.471-0.53,0.302
			c-0.293-0.169-0.531-0.578-0.531-0.914s0.238-0.471,0.531-0.303C32.024,32.414,32.261,32.824,32.261,33.16"/>
		<path clip-path="url(#SVGID_8_)" fill="#F9F1EC" d="M57.844,50.459c0,0.396-0.279,0.556-0.625,0.356
			c-0.345-0.199-0.625-0.681-0.625-1.077s0.28-3.086,0.625-2.886C57.564,47.052,57.844,50.063,57.844,50.459"/>
		<path clip-path="url(#SVGID_8_)" fill="#FF9A2E" d="M57.749,50.405c0,0.336-0.237,0.471-0.53,0.302
			c-0.293-0.169-0.53-0.578-0.53-0.914s0.237-0.471,0.53-0.302S57.749,50.069,57.749,50.405"/>
		<path clip-path="url(#SVGID_8_)" fill="#F9F1EC" d="M76.578,58.747c0,0.396-0.279,0.556-0.625,0.355
			c-0.345-0.199-0.625-0.682-0.625-1.078c0-0.396,0.28-0.555,0.625-0.355C76.299,57.868,76.578,58.35,76.578,58.747"/>
		<path clip-path="url(#SVGID_8_)" fill="#FF9A2E" d="M76.483,58.692c0,0.336-0.237,0.471-0.53,0.302s-0.53-0.578-0.53-0.914
			s0.237-0.471,0.53-0.302S76.483,58.355,76.483,58.692"/>
		<polygon clip-path="url(#SVGID_8_)" fill="#CDC6BC" points="33.243,4.747 31.105,3.513 31.105,2.563 33.243,3.797 		"/>
		<polygon clip-path="url(#SVGID_8_)" fill="#FF9A2E" points="33.054,4.469 31.295,3.453 31.295,2.751 33.054,3.767 		"/>
		<polygon clip-path="url(#SVGID_8_)" fill="#CDC6BC" points="59.887,20.129 57.749,18.896 57.749,17.945 59.887,19.179 		"/>
		<polygon clip-path="url(#SVGID_8_)" fill="#FF9A2E" points="59.697,19.852 57.938,18.836 57.938,18.134 59.697,19.15 		"/>
		<polygon clip-path="url(#SVGID_8_)" fill="#CDC6BC" points="93.48,39.525 91.343,38.291 91.343,37.341 93.48,38.575 		"/>
		<polygon clip-path="url(#SVGID_8_)" fill="#FF9A2E" points="93.291,39.248 91.532,38.231 91.532,37.53 93.291,38.545 		"/>
		<path clip-path="url(#SVGID_8_)" fill="#CDC6BC" d="M48.008,29.874c-0.336,0-0.696-0.106-1.062-0.316L33.48,21.782
			c-1.379-0.796-2.5-2.93-2.5-4.758V9.34c0-1.007,0.34-1.782,0.935-2.125c0.505-0.292,1.139-0.248,1.787,0.126l13.466,7.774
			c1.379,0.796,2.501,2.932,2.501,4.76v7.683c0,1.007-0.341,1.782-0.937,2.125C48.513,29.811,48.268,29.874,48.008,29.874
			 M47.168,29.174c0.502,0.29,0.981,0.336,1.343,0.126c0.454-0.263,0.716-0.897,0.716-1.742v-7.683c0-1.687-1.023-3.65-2.281-4.376
			L33.48,7.724c-0.5-0.289-0.979-0.336-1.342-0.125c-0.455,0.262-0.716,0.896-0.716,1.741v7.684c0,1.687,1.022,3.649,2.28,4.375
			L47.168,29.174z"/>
		<path clip-path="url(#SVGID_8_)" fill="#CDC6BC" d="M68.962,41.972c-0.336,0-0.696-0.106-1.061-0.317L54.435,33.88
			c-1.38-0.796-2.502-2.931-2.502-4.759v-7.683c0-1.007,0.342-1.782,0.937-2.126c0.506-0.291,1.14-0.247,1.786,0.127l13.466,7.774
			c1.379,0.796,2.501,2.931,2.501,4.759v7.684c0,1.007-0.34,1.782-0.938,2.125C69.466,41.908,69.221,41.972,68.962,41.972
			 M53.596,19.566c-0.184,0-0.354,0.043-0.504,0.13c-0.455,0.263-0.716,0.897-0.716,1.742v7.683c0,1.687,1.023,3.65,2.28,4.376
			l13.466,7.774c0.503,0.29,0.981,0.336,1.343,0.127c0.454-0.263,0.716-0.898,0.716-1.742v-7.684c0-1.687-1.022-3.65-2.279-4.375
			l-13.467-7.775C54.14,19.652,53.855,19.566,53.596,19.566"/>
		<path clip-path="url(#SVGID_8_)" fill="#2D2C37" d="M88.924,57.042l-7.401-6.803c-0.784-0.452-1.419-1.667-1.419-2.712V37.453
			c0-1.045,0.635-1.526,1.419-1.073l7.401,4.273c0.784,0.452,1.419,1.667,1.419,2.712v12.604
			C90.343,57.014,89.708,57.496,88.924,57.042"/>
		<path clip-path="url(#SVGID_8_)" fill="#7572A4" d="M80.517,47.843V37.614c0-0.74,0.45-1.081,1.006-0.76l7.401,4.273
			c0.556,0.32,1.006,1.181,1.006,1.922v12.758c0,0.741-0.45,1.081-1.006,0.761l-7.401-6.804
			C80.967,49.444,80.517,48.584,80.517,47.843"/>
		<path clip-path="url(#SVGID_8_)" fill="#2D2C37" d="M83.804,65.635l-2.281-1.316c-0.783-0.453-1.419-4.197-1.419-5.242v-6.416
			c0-1.045,0.636-1.525,1.419-1.073l2.281,1.318c0.784,0.452,1.419,1.666,1.419,2.711v8.946
			C85.223,65.608,84.588,66.088,83.804,65.635"/>
		<path clip-path="url(#SVGID_8_)" fill="#7572A4" d="M80.517,59.393v-6.569c0-0.741,0.45-1.081,1.006-0.761l2.281,1.317
			c0.556,0.321,1.006,1.182,1.006,1.922v9.1c0,0.741-0.45,1.081-1.006,0.761l-2.281-1.318
			C80.967,63.524,80.517,60.132,80.517,59.393"/>
		<path clip-path="url(#SVGID_8_)" fill="#504F58" d="M95.396,77.515c0.176,0.529,0.33,0.805,0.696,1.233
			c0.13,0.152,0.213,0.364,0.172,0.493s-0.229,0.091-0.401-0.111c-0.378-0.428-0.757-1.099-0.923-1.636
			c-0.083-0.25-0.014-0.423,0.12-0.386C95.194,77.145,95.334,77.328,95.396,77.515"/>
		<path clip-path="url(#SVGID_8_)" fill="#504F58" d="M98.549,77.458c-0.175-0.529-0.33-0.803-0.695-1.232
			c-0.13-0.152-0.214-0.364-0.173-0.493c0.041-0.128,0.229-0.092,0.401,0.111c0.378,0.428,0.757,1.099,0.924,1.637
			c0.082,0.25,0.014,0.423-0.121,0.386S98.611,77.647,98.549,77.458"/>
		<path clip-path="url(#SVGID_8_)" fill="#504F58" d="M97.791,79.769c0.373,0.014,0.534-0.07,0.724-0.38
			c0.067-0.111,0.21-0.124,0.343,0c0.134,0.123,0.194,0.375,0.105,0.521c-0.183,0.328-0.577,0.535-0.962,0.505
			c-0.176-0.007-0.361-0.193-0.396-0.368C97.568,79.872,97.658,79.764,97.791,79.769"/>
		<path clip-path="url(#SVGID_8_)" fill="#504F58" d="M96.154,75.206c-0.373-0.015-0.534,0.07-0.725,0.38
			c-0.067,0.11-0.21,0.124-0.342,0c-0.134-0.123-0.195-0.375-0.105-0.521c0.182-0.328,0.576-0.535,0.961-0.505
			c0.177,0.007,0.361,0.193,0.398,0.368C96.376,75.103,96.287,75.21,96.154,75.206"/>
		<polygon clip-path="url(#SVGID_8_)" fill="#C9C3B9" points="98.793,70.334 98.572,70.334 98.58,63.984 99.929,60.6 
			100.134,60.682 98.793,64.047 		"/>
		
			<rect x="97.293" y="66.852" transform="matrix(0.6681 0.7441 -0.7441 0.6681 84.1809 -54.7975)" clip-path="url(#SVGID_8_)" fill="#C9C3B9" width="12.445" height="0.221"/>
		<polygon clip-path="url(#SVGID_8_)" fill="#6B6164" points="5.219,52.925 1.294,50.659 5.956,47.967 9.881,50.233 		"/>
		<path clip-path="url(#SVGID_8_)" fill="#DED8D1" d="M83.671,83.784v10.108L79.355,91.4c-1.132-3.664-3.74-6.994-6.779-8.749
			c-4.075-2.352-4.634,0.387-6.926,4.469c-0.184,0.327-0.448,1.14-0.448,1.14l-34.32-19.814c0.008-0.439,0.011-0.903,0.011-1.393
			c0-4.676-3.304-10.374-7.378-12.727c-4.075-2.353-7.379-0.469-7.379,4.206c0,0.494,0.009,0.966,0.026,1.414L5.219,53.628V14.753
			l66.867,38.605l3.942,21.14L83.671,83.784z"/>
		<path clip-path="url(#SVGID_8_)" fill="#CDC6BC" d="M8.392,46.852c0,0.462-0.326,0.648-0.729,0.416
			c-0.402-0.233-0.728-0.795-0.728-1.257c0-0.461,0.326-0.647,0.728-0.415C8.066,45.828,8.392,46.391,8.392,46.852"/>
		<polygon clip-path="url(#SVGID_8_)" fill="#CDC6BC" points="53.385,69.713 5.628,42.142 5.628,40.756 6.241,40.054 53.385,68.329 
			53.997,69.011 		"/>
		<polygon clip-path="url(#SVGID_8_)" fill="#B5AA9C" points="81.71,87.75 80.613,87.117 80.613,85.858 80.932,84.868 82.296,87.22 
					"/>
		<path clip-path="url(#SVGID_8_)" fill="#2D2C37" d="M78.693,94.65c0,3.627-2.563,5.088-5.724,3.263s-5.724-6.244-5.724-9.871
			c0-3.628,2.563-5.088,5.724-3.264C76.131,86.603,78.693,91.022,78.693,94.65"/>
		<path clip-path="url(#SVGID_8_)" fill="#393843" d="M78.693,94.65c0,3.627-2.563,5.088-5.724,3.263s-5.724-6.244-5.724-9.871
			c0-3.628,2.563-5.088,5.724-3.264C76.131,86.603,78.693,91.022,78.693,94.65"/>
		<path clip-path="url(#SVGID_8_)" fill="#2D2C37" d="M78.336,94.583c0,3.489-2.465,4.896-5.506,3.139
			c-3.04-1.755-5.505-6.007-5.505-9.496c0-3.488,2.465-4.894,5.505-3.139C75.871,86.842,78.336,91.094,78.336,94.583"/>
		<path clip-path="url(#SVGID_8_)" fill="#393843" d="M29.237,66.097c0,3.627-2.563,5.088-5.723,3.263
			c-3.161-1.825-5.723-6.244-5.723-9.872c0-3.627,2.562-5.088,5.723-3.263C26.674,58.049,29.237,62.469,29.237,66.097"/>
		<path clip-path="url(#SVGID_8_)" fill="#2D2C37" d="M28.663,66.031c0,3.489-2.465,4.896-5.506,3.139
			c-3.041-1.756-5.506-6.007-5.506-9.496s2.465-4.895,5.506-3.14C26.198,58.29,28.663,62.542,28.663,66.031"/>
		<path clip-path="url(#SVGID_8_)" fill="#504F58" d="M27.385,65.167c0,2.521-1.78,3.535-3.977,2.267
			c-2.196-1.267-3.976-4.338-3.976-6.857c0-2.521,1.78-3.535,3.976-2.268C25.605,59.578,27.385,62.648,27.385,65.167"/>
		<path clip-path="url(#SVGID_8_)" fill="#C4C2BB" d="M27.117,64.873c0,2.283-1.613,3.203-3.603,2.054
			c-1.99-1.148-3.603-3.931-3.603-6.215c0-2.283,1.613-3.202,3.603-2.054C25.504,59.806,27.117,62.588,27.117,64.873"/>
		<path clip-path="url(#SVGID_8_)" fill="#B0AC9E" d="M26.756,64.664c0,2.054-1.452,2.881-3.242,1.847
			c-1.789-1.032-3.24-3.535-3.24-5.589s1.451-2.882,3.24-1.848c0.164,0.094,0.325,0.201,0.482,0.319
			c1.398,1.045,2.504,2.946,2.721,4.672C26.742,64.268,26.756,64.467,26.756,64.664"/>
		<path clip-path="url(#SVGID_8_)" fill="#B7B4A9" d="M24.685,65.675c-1.695-0.978-3.068-3.347-3.068-5.291
			c0-0.786,0.224-1.382,0.603-1.749c-1.145-0.088-1.946,0.76-1.946,2.286c0,2.053,1.451,4.557,3.24,5.589
			c1.305,0.753,2.428,0.518,2.942-0.459C25.956,66.169,25.345,66.056,24.685,65.675"/>
		<g clip-path="url(#SVGID_8_)">
			<g>
				<defs>
					<rect id="SVGID_9_" x="22.589" y="60.599" width="3.977" height="5.109"/>
				</defs>
				<clipPath id="SVGID_10_">
					<use xlink:href="#SVGID_9_"  overflow="visible"/>
				</clipPath>
				<path clip-path="url(#SVGID_10_)" fill="#CDC6BC" d="M26.565,64.302c0,1.26-0.89,1.768-1.988,1.134
					c-1.098-0.634-1.988-2.17-1.988-3.43c0-1.261,0.89-1.768,1.988-1.134C25.675,61.506,26.565,63.042,26.565,64.302"/>
			</g>
		</g>
		<path clip-path="url(#SVGID_8_)" fill="#9D9783" d="M26.717,64.065c-0.341,0.494-0.988,0.587-1.73,0.159
			c-1.098-0.635-1.989-2.17-1.989-3.429c0-0.848,0.402-1.354,0.998-1.402C25.394,60.438,26.5,62.339,26.717,64.065"/>
		<polygon clip-path="url(#SVGID_8_)" fill="#9D9783" points="23.515,59.559 22.024,60.423 24.961,65.192 26.432,64.343 
			25.428,61.945 		"/>
		<path clip-path="url(#SVGID_8_)" fill="#B7B4A9" d="M25.503,63.94c0,1.261-0.891,1.768-1.988,1.134
			c-1.099-0.634-1.989-2.169-1.989-3.43c0-1.26,0.89-1.767,1.989-1.134C24.612,61.145,25.503,62.68,25.503,63.94"/>
		<path clip-path="url(#SVGID_8_)" fill="#D5D2C9" d="M25.31,63.909c0,1.205-0.852,1.69-1.901,1.084
			c-1.05-0.605-1.902-2.074-1.902-3.279s0.852-1.689,1.902-1.084C24.458,61.236,25.31,62.704,25.31,63.909"/>
		<path clip-path="url(#SVGID_8_)" fill="#504F58" d="M76.84,93.721c0,2.52-1.78,3.534-3.977,2.267
			c-2.196-1.269-3.977-4.339-3.977-6.859c0-2.52,1.78-3.534,3.977-2.267S76.84,91.201,76.84,93.721"/>
		<path clip-path="url(#SVGID_8_)" fill="#C4C2BB" d="M76.572,93.425c0,2.284-1.612,3.203-3.603,2.054
			c-1.99-1.148-3.603-3.931-3.603-6.214s1.612-3.203,3.603-2.054C74.96,88.36,76.572,91.142,76.572,93.425"/>
		<path clip-path="url(#SVGID_8_)" fill="#B7B4A9" d="M76.122,93.166c0,1.998-1.411,2.802-3.152,1.797s-3.152-3.439-3.152-5.437
			c0-1.998,1.411-2.804,3.152-1.797C74.711,88.733,76.122,91.167,76.122,93.166"/>
		<path clip-path="url(#SVGID_8_)" fill="#D5D2C9" d="M75.732,92.94c0,1.752-1.236,2.457-2.763,1.575
			c-1.526-0.881-2.763-3.014-2.763-4.765s1.236-2.456,2.763-1.576C74.496,89.055,75.732,91.189,75.732,92.94"/>
		<path clip-path="url(#SVGID_8_)" fill="#CAC6BC" d="M74.391,92.506c0,1.047-0.739,1.469-1.651,0.941
			c-0.911-0.526-1.651-1.801-1.651-2.848s0.74-1.469,1.651-0.942C73.651,90.185,74.391,91.46,74.391,92.506"/>
		<path clip-path="url(#SVGID_8_)" fill="#504F58" d="M71.393,91.374c0.176,0.529,0.33,0.804,0.696,1.232
			c0.13,0.153,0.213,0.365,0.172,0.494c-0.04,0.128-0.229,0.091-0.401-0.112c-0.378-0.427-0.756-1.098-0.923-1.636
			c-0.083-0.25-0.014-0.423,0.121-0.386C71.191,91.003,71.331,91.186,71.393,91.374"/>
		<path clip-path="url(#SVGID_8_)" fill="#DDDDDB" d="M73.996,92.404c0,0.922-0.651,1.293-1.455,0.829
			c-0.803-0.464-1.454-1.587-1.454-2.509s0.651-1.293,1.454-0.829C73.345,90.359,73.996,91.482,73.996,92.404"/>
		<path clip-path="url(#SVGID_8_)" fill="#B7B4A9" d="M73.332,92.02c0,0.501-0.354,0.703-0.791,0.451
			c-0.436-0.252-0.79-0.863-0.79-1.363c0-0.501,0.354-0.703,0.79-0.451C72.979,90.909,73.332,91.52,73.332,92.02"/>
		<polygon clip-path="url(#SVGID_8_)" fill="#493F41" points="84.727,97.89 80.555,97.43 78.623,96.315 78.175,91.705 
			80.695,93.159 84.727,94.542 		"/>
		<polygon clip-path="url(#SVGID_8_)" fill="#F3F1EE" points="71.643,51.89 5.771,13.858 5.219,14.753 72.086,53.36 		"/>
		<polygon clip-path="url(#SVGID_8_)" fill="#6B6164" points="53.549,67.885 5.793,40.314 6.241,40.055 53.997,67.626 		"/>
		<polygon clip-path="url(#SVGID_8_)" fill="#554D4E" points="53.549,67.885 53.549,69.271 53.997,69.012 53.997,67.626 		"/>
		<polygon clip-path="url(#SVGID_8_)" fill="#CDC6BC" points="54.641,80.763 54.641,49.931 68.41,57.88 68.41,77.556 63.881,86.098 
					"/>
		<polygon clip-path="url(#SVGID_8_)" fill="#2D2C37" points="72.386,57.647 69.282,55.855 69.282,73.418 73.88,76.073 
			75.179,73.958 		"/>
		<polygon clip-path="url(#SVGID_8_)" fill="#573F3F" points="69.696,73.183 69.696,56.569 72.066,57.937 74.738,73.646 
			73.628,75.454 		"/>
		<polygon clip-path="url(#SVGID_8_)" fill="#493F41" points="5.219,52.925 1.294,50.659 1.294,51.363 5.219,53.627 		"/>
		<polygon clip-path="url(#SVGID_8_)" fill="#504F58" points="82.436,87.461 80.792,86.512 80.792,84.627 82.436,85.576 		"/>
		<polygon clip-path="url(#SVGID_8_)" fill="#FF9A2E" points="82.296,87.221 80.491,85.429 80.932,84.867 82.296,85.656 		"/>
		<polygon clip-path="url(#SVGID_8_)" fill="#E06F2E" points="81.589,87.323 80.491,86.688 80.491,85.429 81.589,86.063 		"/>
		<path clip-path="url(#SVGID_8_)" fill="#504F58" d="M8.751,46.256c0,0.583-0.412,0.818-0.92,0.524
			c-0.508-0.293-0.919-1.003-0.919-1.586s0.411-0.817,0.919-0.524S8.751,45.673,8.751,46.256"/>
		<path clip-path="url(#SVGID_8_)" fill="#D83B2E" d="M8.56,46.146c0,0.461-0.326,0.647-0.729,0.416
			c-0.402-0.233-0.728-0.795-0.728-1.257s0.326-0.647,0.728-0.415C8.233,45.122,8.56,45.685,8.56,46.146"/>
		<path clip-path="url(#SVGID_8_)" fill="#D83B2E" d="M7.264,44.875c0,0-0.331,0.337-0.398,0.506
			c-0.069,0.169,0.776,1.353,0.776,1.353s0.43,0.011,0.695-0.115C8.603,46.492,7.264,44.875,7.264,44.875"/>
		<path clip-path="url(#SVGID_8_)" fill="#B5AA9C" d="M8.421,49.858c0,0.396-0.279,0.556-0.625,0.356
			c-0.345-0.199-0.625-0.682-0.625-1.078s0.28-0.555,0.625-0.356C8.142,48.98,8.421,49.462,8.421,49.858"/>
		<path clip-path="url(#SVGID_8_)" fill="#B5AA9C" d="M33.909,64.575c0,0.396-0.279,0.555-0.625,0.355
			c-0.345-0.199-0.625-0.682-0.625-1.078c0-0.396,0.28-0.555,0.625-0.355C33.63,63.695,33.909,64.178,33.909,64.575"/>
		<path clip-path="url(#SVGID_8_)" fill="#B5AA9C" d="M52.644,75.39c0,0.396-0.279,0.556-0.625,0.356
			c-0.345-0.199-0.625-0.682-0.625-1.077c0-0.396,0.28-0.557,0.625-0.357C52.365,74.512,52.644,74.994,52.644,75.39"/>
		<path clip-path="url(#SVGID_8_)" fill="#FF512E" d="M7.932,46.329c0,0.363-0.257,0.509-0.572,0.327
			c-0.317-0.183-0.574-0.625-0.574-0.988c0-0.363,0.257-0.509,0.574-0.326C7.675,45.523,7.932,45.966,7.932,46.329"/>
		<path clip-path="url(#SVGID_8_)" fill="#9DA1BF" d="M8.489,49.542c0,0.396-0.28,0.556-0.625,0.356
			C7.518,49.7,7.239,49.216,7.239,48.82s0.279-0.555,0.625-0.356C8.209,48.664,8.489,49.146,8.489,49.542"/>
		<path clip-path="url(#SVGID_8_)" fill="#9DA1BF" d="M33.977,64.258c0,0.396-0.279,0.556-0.624,0.355
			c-0.346-0.199-0.625-0.681-0.625-1.077c0-0.396,0.279-0.556,0.625-0.356C33.698,63.379,33.977,63.862,33.977,64.258"/>
		<path clip-path="url(#SVGID_8_)" fill="#9DA1BF" d="M52.712,75.075c0,0.396-0.28,0.556-0.625,0.355
			c-0.346-0.199-0.625-0.681-0.625-1.077s0.279-0.556,0.625-0.356C52.432,74.196,52.712,74.678,52.712,75.075"/>
		<path clip-path="url(#SVGID_8_)" fill="#F9F1EC" d="M8.353,49.602c0,0.396-0.279,0.556-0.625,0.356
			c-0.345-0.199-0.625-0.682-0.625-1.078s0.28-0.555,0.625-0.356C8.074,48.724,8.353,49.206,8.353,49.602"/>
		<path clip-path="url(#SVGID_8_)" fill="#E06F2E" d="M8.258,49.547c0,0.336-0.237,0.471-0.53,0.302
			c-0.292-0.169-0.531-0.578-0.531-0.914s0.239-0.471,0.531-0.303C8.021,48.802,8.258,49.211,8.258,49.547"/>
		<path clip-path="url(#SVGID_8_)" fill="#F9F1EC" d="M33.841,64.318c0,0.396-0.279,0.556-0.625,0.356
			c-0.345-0.199-0.625-0.683-0.625-1.078c0-0.396,0.28-0.556,0.625-0.356C33.562,63.439,33.841,63.922,33.841,64.318"/>
		<path clip-path="url(#SVGID_8_)" fill="#E06F2E" d="M33.746,64.263c0,0.336-0.237,0.471-0.53,0.302s-0.531-0.578-0.531-0.914
			s0.238-0.471,0.531-0.303C33.509,63.517,33.746,63.927,33.746,64.263"/>
		<path clip-path="url(#SVGID_8_)" fill="#F9F1EC" d="M52.575,75.134c0,0.396-0.279,0.555-0.625,0.356
			c-0.345-0.199-0.625-0.683-0.625-1.078c0-0.396,0.28-0.556,0.625-0.356C52.296,74.255,52.575,74.739,52.575,75.134"/>
		<path clip-path="url(#SVGID_8_)" fill="#E06F2E" d="M52.48,75.08c0,0.336-0.237,0.472-0.53,0.303
			c-0.292-0.17-0.53-0.579-0.53-0.915s0.238-0.471,0.53-0.302C52.244,74.334,52.48,74.743,52.48,75.08"/>
		<polygon clip-path="url(#SVGID_8_)" fill="#CDC6BC" points="9.24,18.605 7.103,17.371 7.103,16.421 9.24,17.655 		"/>
		<polygon clip-path="url(#SVGID_8_)" fill="#E06F2E" points="9.052,18.328 7.292,17.312 7.292,16.61 9.052,17.625 		"/>
		<polygon clip-path="url(#SVGID_8_)" fill="#CDC6BC" points="35.884,33.987 33.746,32.753 33.746,31.803 35.884,33.037 		"/>
		<polygon clip-path="url(#SVGID_8_)" fill="#E06F2E" points="35.694,33.71 33.936,32.694 33.936,31.992 35.694,33.008 		"/>
		<polygon clip-path="url(#SVGID_8_)" fill="#CDC6BC" points="69.478,53.383 67.34,52.149 67.34,51.199 69.478,52.433 		"/>
		<polygon clip-path="url(#SVGID_8_)" fill="#E06F2E" points="69.288,53.106 67.529,52.089 67.529,51.388 69.288,52.403 		"/>
		<path clip-path="url(#SVGID_8_)" fill="#2D2C37" d="M64.921,70.901l-7.401-4.273c-0.784-0.453-1.419-1.666-1.419-2.712V53.84
			c0-1.045,0.635-1.525,1.419-1.073l7.401,4.273c0.784,0.452,1.419,1.667,1.419,2.712v10.075
			C66.34,70.874,65.705,71.353,64.921,70.901"/>
		<path clip-path="url(#SVGID_8_)" fill="#573F3F" d="M56.514,64.231V54.002c0-0.741,0.45-1.081,1.006-0.76l7.401,4.272
			c0.556,0.32,1.006,1.181,1.006,1.921v10.229c0,0.741-0.45,1.081-1.006,0.76l-7.401-4.272
			C56.964,65.833,56.514,64.971,56.514,64.231"/>
		<path clip-path="url(#SVGID_8_)" fill="#2D2C37" d="M59.801,79.494l-2.281-1.317c-0.783-0.453-1.419-1.667-1.419-2.712v-6.416
			c0-1.045,0.636-1.524,1.419-1.072l2.281,1.316c0.784,0.453,1.42,1.667,1.42,2.712v6.416
			C61.221,79.465,60.585,79.947,59.801,79.494"/>
		<path clip-path="url(#SVGID_8_)" fill="#573F3F" d="M56.514,75.781v-6.569c0-0.741,0.45-1.081,1.006-0.761l2.281,1.316
			c0.556,0.321,1.006,1.182,1.006,1.922v6.57c0,0.74-0.45,1.081-1.006,0.76l-2.281-1.317C56.964,77.381,56.514,76.521,56.514,75.781
			"/>
		<path clip-path="url(#SVGID_8_)" fill="#504F58" d="M74.546,91.317c-0.175-0.529-0.329-0.804-0.695-1.233
			c-0.13-0.151-0.213-0.363-0.173-0.492c0.041-0.129,0.229-0.092,0.401,0.11c0.378,0.429,0.757,1.1,0.924,1.637
			c0.083,0.25,0.014,0.423-0.121,0.386C74.748,91.688,74.608,91.505,74.546,91.317"/>
		<path clip-path="url(#SVGID_8_)" fill="#504F58" d="M73.788,93.626c0.373,0.016,0.534-0.069,0.724-0.38
			c0.067-0.109,0.211-0.124,0.344,0c0.133,0.123,0.194,0.375,0.104,0.521c-0.183,0.328-0.576,0.535-0.962,0.505
			c-0.176-0.007-0.361-0.194-0.396-0.369C73.566,93.73,73.655,93.622,73.788,93.626"/>
		<path clip-path="url(#SVGID_8_)" fill="#504F58" d="M72.151,89.064c-0.373-0.015-0.534,0.069-0.725,0.38
			c-0.067,0.11-0.21,0.124-0.343,0c-0.133-0.123-0.194-0.374-0.104-0.521c0.182-0.328,0.576-0.535,0.961-0.505
			c0.177,0.007,0.361,0.194,0.398,0.369C72.373,88.96,72.284,89.069,72.151,89.064"/>
		<path clip-path="url(#SVGID_8_)" fill="#B7B4A9" d="M71.985,92.821c-0.378-0.428-0.756-1.1-0.923-1.637
			c-0.028-0.084-0.033-0.153-0.03-0.215c-0.115-0.007-0.173,0.151-0.096,0.383c0.167,0.537,0.545,1.209,0.923,1.637
			c0.173,0.202,0.361,0.239,0.401,0.11c0.009-0.026-0.007-0.066-0.009-0.099C72.175,92.988,72.079,92.93,71.985,92.821"/>
		<path clip-path="url(#SVGID_8_)" fill="#B7B4A9" d="M75.008,91.556c-0.135-0.036-0.272-0.22-0.336-0.407
			c-0.175-0.529-0.329-0.804-0.695-1.233c-0.103-0.12-0.156-0.269-0.163-0.393c-0.065-0.011-0.116,0.009-0.136,0.067
			c-0.04,0.129,0.043,0.341,0.173,0.493c0.366,0.43,0.521,0.704,0.695,1.233c0.063,0.188,0.202,0.371,0.336,0.408
			c0.09,0.023,0.146-0.05,0.151-0.172C75.024,91.553,75.018,91.559,75.008,91.556"/>
		<path clip-path="url(#SVGID_8_)" fill="#B7B4A9" d="M74.124,94.105c-0.176-0.008-0.361-0.193-0.396-0.368
			c-0.009-0.037,0.009-0.058,0.012-0.088c-0.1,0.023-0.169,0.107-0.138,0.256c0.034,0.175,0.22,0.36,0.396,0.368
			c0.386,0.03,0.779-0.177,0.962-0.505c0.002-0.004,0.002-0.008,0.003-0.012C74.757,93.989,74.441,94.129,74.124,94.105"/>
		<path clip-path="url(#SVGID_8_)" fill="#B7B4A9" d="M71.21,89.276c-0.13-0.121-0.188-0.363-0.108-0.51
			c-0.044,0.05-0.09,0.099-0.121,0.157c-0.091,0.146-0.029,0.396,0.104,0.521s0.275,0.11,0.343,0
			c0.039-0.063,0.077-0.111,0.115-0.157C71.471,89.384,71.337,89.394,71.21,89.276"/>
		<path clip-path="url(#SVGID_8_)" fill="#B7B4A9" d="M72.277,88.896c-0.358-0.014-0.521,0.069-0.702,0.35
			c0.141-0.147,0.301-0.192,0.576-0.183c0.105,0.005,0.162-0.076,0.174-0.189C72.307,88.878,72.299,88.896,72.277,88.896"/>
		<polygon clip-path="url(#SVGID_8_)" fill="#C9C3B9" points="74.79,84.192 74.569,84.192 74.577,77.842 75.926,74.458 
			76.132,74.54 74.79,77.905 		"/>
		
			<rect x="73.289" y="80.711" transform="matrix(0.6682 0.744 -0.744 0.6682 86.5193 -32.3389)" clip-path="url(#SVGID_8_)" fill="#C9C3B9" width="12.447" height="0.221"/>
		<polygon clip-path="url(#SVGID_8_)" fill="#E4DFD9" points="107.674,69.925 83.671,83.784 83.671,93.892 107.674,80.035 		"/>
		<polygon clip-path="url(#SVGID_8_)" fill="#EBE7E3" points="102.482,73.442 88.862,81.305 88.862,91.283 102.482,83.419 		"/>
		<polygon clip-path="url(#SVGID_8_)" fill="#554D4E" points="101.793,75.083 89.552,82.15 89.552,84.636 101.793,77.568 		"/>
		<polygon clip-path="url(#SVGID_8_)" fill="#554D4E" points="101.793,79.498 89.552,86.565 89.552,90.226 101.793,83.159 		"/>
		<polygon clip-path="url(#SVGID_8_)" fill="#CDC6BC" points="101.081,77.158 89.552,83.814 89.552,84.635 101.793,77.569 
			101.793,75.083 101.081,75.494 		"/>
		<polygon clip-path="url(#SVGID_8_)" fill="#CDC6BC" points="101.081,79.909 101.081,82.749 89.552,89.405 89.552,90.226 
			101.793,83.159 101.793,79.498 		"/>
		<polygon clip-path="url(#SVGID_8_)" fill="#F3F1EE" points="83.671,83.784 107.674,69.925 100.031,60.64 76.028,74.499 		"/>
		<polygon clip-path="url(#SVGID_8_)" fill="#FAF8F5" points="76.028,74.499 83.729,83.328 88.239,80.884 107.345,69.794 
			100.031,60.64 107.675,69.925 83.672,83.784 		"/>
		<polygon clip-path="url(#SVGID_8_)" fill="#F3F1EE" points="88.862,81.305 102.482,73.441 97.655,67.792 84.034,75.655 		"/>
		<polygon clip-path="url(#SVGID_8_)" fill="#EBE7E3" points="72.086,53.36 96.089,39.501 100.031,60.64 76.028,74.499 		"/>
		<polygon clip-path="url(#SVGID_8_)" fill="#554D4E" points="88.263,66.137 88.35,66.546 76.376,73.459 73.552,57.227 
			85.455,50.354 85.542,50.764 		"/>
		<polygon clip-path="url(#SVGID_8_)" fill="#B08480" points="87.899,66.346 83.548,68.859 76.654,72.839 76.028,69.207 
			74.074,57.86 74.001,57.428 80.655,53.585 85.179,50.974 86.932,60.873 87.288,62.889 		"/>
		<polygon clip-path="url(#SVGID_8_)" fill="#554D4E" points="99.356,60.191 88.795,66.289 88.709,65.879 85.987,50.507 
			85.9,50.097 96.533,43.959 		"/>
		<polygon clip-path="url(#SVGID_8_)" fill="#B08480" points="98.908,59.99 95.303,62.072 90.401,64.902 89.071,65.669 
			88.557,62.759 88.463,62.231 86.658,52.036 86.351,50.298 92.482,46.758 96.255,44.58 97.666,52.775 98.771,59.188 		"/>
		<polygon clip-path="url(#SVGID_8_)" fill="#D6B6B2" points="98.74,59.788 98.456,60.25 96.88,61.162 93.698,59.325 93.698,46.055 
			96.163,44.632 		"/>
		<polygon clip-path="url(#SVGID_8_)" fill="#F3F1EE" points="72.086,53.36 96.089,39.501 95.646,38.031 71.643,51.89 		"/>
		<polygon clip-path="url(#SVGID_8_)" fill="#FCFBFA" points="95.646,38.032 29.773,0 5.771,13.859 71.643,51.89 		"/>
		<polygon clip-path="url(#SVGID_8_)" fill="#554D4E" points="108.839,80.621 84.727,94.542 84.727,97.89 108.839,83.969 		"/>
		<polygon clip-path="url(#SVGID_8_)" fill="#E07427" points="82.296,85.656 81.589,86.063 81.589,87.323 82.296,87.22 		"/>
		<polygon clip-path="url(#SVGID_8_)" fill="#DED8D1" points="88.385,81.062 88.385,91.171 88.863,91.283 88.863,81.305 		"/>
		<polygon clip-path="url(#SVGID_8_)" fill="#493F41" points="53.549,69.271 5.793,41.699 5.793,40.313 53.549,67.885 		"/>
		<polygon clip-path="url(#SVGID_8_)" fill="#B5AA9C" points="102.866,81.786 106.15,79.89 103.146,80.342 102.866,80.794 		"/>
		<path clip-path="url(#SVGID_8_)" fill="#B5AA9C" d="M103.089,73.542l2.534-1.197c0.249-0.144,0.45-0.028,0.45,0.256v5.286
			c0,0.285-0.201,0.634-0.45,0.776l-2.534,1.463c-0.248,0.145-0.45,0.029-0.45-0.256v-5.286
			C102.639,74.299,102.841,73.686,103.089,73.542"/>
		<path clip-path="url(#SVGID_8_)" fill="#393843" d="M106.397,71.974l-0.257-0.151c-0.002-0.001-0.003-0.002-0.005-0.003
			l-0.002-0.001h-0.001c-0.081-0.044-0.191-0.036-0.313,0.035l-2.534,1.463c-0.248,0.144-0.45,0.491-0.45,0.776v5.286
			c0,0.133,0.045,0.228,0.117,0.277v0.001c0.01,0.007,0.021,0.013,0.031,0.018l0.249,0.142l0.08-0.196l2.507-1.448
			c0.249-0.144,0.45-0.491,0.45-0.776v-5.104L106.397,71.974z"/>
		<path clip-path="url(#SVGID_8_)" fill="#5C5B64" d="M103.521,73.453l2.534-1.463c0.249-0.144,0.45-0.029,0.45,0.256v5.286
			c0,0.285-0.201,0.633-0.45,0.776l-2.534,1.463c-0.248,0.144-0.45,0.028-0.45-0.257v-5.285
			C103.07,73.944,103.272,73.596,103.521,73.453"/>
		<path clip-path="url(#SVGID_8_)" fill="#CFCEDF" d="M103.648,73.76l2.279-1.316c0.169-0.098,0.306-0.02,0.306,0.173v4.858
			c0,0.193-0.137,0.428-0.306,0.525l-2.279,1.315c-0.169,0.099-0.306,0.021-0.306-0.172v-4.858
			C103.343,74.093,103.479,73.857,103.648,73.76"/>
		<polygon clip-path="url(#SVGID_8_)" fill="#CFCEDF" points="106.691,72.865 106.163,72.434 103.454,79.349 104.097,79.483 		"/>
		<path clip-path="url(#SVGID_8_)" fill="#F3F1EE" d="M104.277,74.129l2.183-1.261c0.162-0.093,0.293-0.02,0.293,0.165v4.653
			c0,0.186-0.131,0.409-0.293,0.503l-2.183,1.261c-0.162,0.094-0.293,0.02-0.293-0.165v-4.654
			C103.984,74.448,104.115,74.222,104.277,74.129"/>
		<g clip-path="url(#SVGID_8_)">
			<g>
				<defs>
					<rect id="SVGID_11_" x="103.468" y="72.627" width="2.77" height="6.663"/>
				</defs>
				<clipPath id="SVGID_12_">
					<use xlink:href="#SVGID_11_"  overflow="visible"/>
				</clipPath>
				<path clip-path="url(#SVGID_12_)" fill="#EEFAF9" d="M103.761,73.929l2.183-1.262c0.162-0.093,0.293-0.019,0.293,0.165v4.654
					c0,0.185-0.131,0.409-0.293,0.503l-2.183,1.26c-0.161,0.094-0.293,0.021-0.293-0.165v-4.653
					C103.468,74.247,103.6,74.022,103.761,73.929"/>
			</g>
		</g>
		<polygon clip-path="url(#SVGID_8_)" fill="#E07427" points="103.554,81.569 106.837,79.673 106.837,78.681 103.554,80.578 		"/>
		<polygon clip-path="url(#SVGID_8_)" fill="#FF9A2E" points="103.554,80.578 103.146,80.342 106.43,78.447 106.837,78.681 		"/>
		<polygon clip-path="url(#SVGID_8_)" fill="#E06F2E" points="103.554,80.578 103.146,80.342 103.146,81.333 103.554,81.57 		"/>
		<polygon clip-path="url(#SVGID_8_)" fill="#B5AA9C" points="84.414,92.458 87.698,90.563 84.693,91.014 84.414,91.466 		"/>
		<path clip-path="url(#SVGID_8_)" fill="#B5AA9C" d="M84.637,84.214l2.534-1.197c0.249-0.144,0.45-0.028,0.45,0.257v5.286
			c0,0.285-0.201,0.633-0.45,0.775l-2.534,1.463c-0.248,0.145-0.45,0.029-0.45-0.256v-5.286
			C84.187,84.972,84.389,84.359,84.637,84.214"/>
		<path clip-path="url(#SVGID_8_)" fill="#393843" d="M87.945,82.646l-0.257-0.15c-0.002-0.001-0.004-0.003-0.005-0.004
			l-0.002-0.001h-0.001c-0.081-0.043-0.191-0.035-0.313,0.035l-2.534,1.463c-0.248,0.145-0.45,0.491-0.45,0.777v5.285
			c0,0.133,0.045,0.229,0.117,0.278c0.01,0.007,0.021,0.013,0.031,0.019l0.249,0.142l0.08-0.197l2.507-1.448
			c0.249-0.144,0.45-0.49,0.45-0.776v-5.104L87.945,82.646z"/>
		<path clip-path="url(#SVGID_8_)" fill="#5C5B64" d="M85.068,84.125l2.534-1.464c0.249-0.143,0.45-0.028,0.45,0.257v5.285
			c0,0.285-0.201,0.634-0.45,0.776l-2.534,1.463c-0.248,0.145-0.45,0.029-0.45-0.256v-5.286
			C84.618,84.616,84.82,84.269,85.068,84.125"/>
		<path clip-path="url(#SVGID_8_)" fill="#CFCEDF" d="M85.196,84.433l2.279-1.316c0.169-0.098,0.306-0.021,0.306,0.172v4.859
			c0,0.192-0.137,0.428-0.306,0.524l-2.279,1.316c-0.169,0.098-0.306,0.021-0.306-0.172v-4.859
			C84.891,84.765,85.027,84.53,85.196,84.433"/>
		<polygon clip-path="url(#SVGID_8_)" fill="#CFCEDF" points="88.239,83.538 87.711,83.107 85.002,90.022 85.645,90.156 		"/>
		<path clip-path="url(#SVGID_8_)" fill="#F3F1EE" d="M85.825,84.801l2.183-1.26c0.162-0.094,0.294-0.021,0.294,0.164v4.654
			c0,0.185-0.132,0.409-0.294,0.503l-2.183,1.261c-0.162,0.093-0.293,0.019-0.293-0.165v-4.654
			C85.532,85.12,85.663,84.894,85.825,84.801"/>
		<polygon clip-path="url(#SVGID_8_)" fill="#E07427" points="85.101,92.242 88.385,90.346 88.385,89.354 85.101,91.25 		"/>
		<g clip-path="url(#SVGID_8_)">
			<g>
				<defs>
					<rect id="SVGID_13_" x="103.215" y="78.496" width="3.284" height="2.888"/>
				</defs>
				<clipPath id="SVGID_14_">
					<use xlink:href="#SVGID_13_"  overflow="visible"/>
				</clipPath>
				<polygon clip-path="url(#SVGID_14_)" fill="#F5EC73" points="103.215,81.383 106.499,79.488 106.499,78.497 103.215,80.392 				
					"/>
			</g>
		</g>
		<g clip-path="url(#SVGID_8_)">
			<g>
				<defs>
					<rect id="SVGID_15_" x="84.763" y="89.168" width="3.284" height="2.888"/>
				</defs>
				<clipPath id="SVGID_16_">
					<use xlink:href="#SVGID_15_"  overflow="visible"/>
				</clipPath>
				<polygon clip-path="url(#SVGID_16_)" fill="#F5EC73" points="84.763,92.056 88.047,90.16 88.047,89.167 84.763,91.064 				"/>
			</g>
		</g>
		<polygon clip-path="url(#SVGID_8_)" fill="#FF9A2E" points="85.101,91.25 84.693,91.015 87.978,89.119 88.385,89.354 		"/>
		<polygon clip-path="url(#SVGID_8_)" fill="#E06F2E" points="85.101,91.25 84.693,91.015 84.693,92.006 85.101,92.242 		"/>
		<polygon clip-path="url(#SVGID_8_)" fill="#9B897F" points="55.358,80.349 55.358,50.345 54.641,49.932 54.641,80.763 
			63.881,86.098 64.217,85.464 		"/>
		<polygon clip-path="url(#SVGID_8_)" fill="#997A77" points="87.288,62.889 87.899,66.346 76.654,72.839 76.028,69.206 		"/>
		<polygon clip-path="url(#SVGID_8_)" fill="#997A77" points="98.908,59.99 89.071,65.669 88.463,62.231 95.316,58.385 
			98.771,59.188 		"/>
		<polygon clip-path="url(#SVGID_8_)" fill="#F3F1EE" points="55.358,80.349 54.641,80.763 63.881,86.098 64.217,85.464 		"/>
		<polygon clip-path="url(#SVGID_8_)" fill="#493F41" points="63.431,88.58 52.226,82.11 52.226,82.813 63.431,89.282 		"/>
		<polygon clip-path="url(#SVGID_8_)" fill="#554D4E" points="63.431,88.58 65.202,87.557 65.202,88.259 63.431,89.282 		"/>
		<polygon clip-path="url(#SVGID_8_)" fill="#6B6164" points="63.431,88.58 65.202,87.557 53.997,81.087 52.226,82.11 		"/>
		<g clip-path="url(#SVGID_8_)">
			<g>
				<defs>
					<rect id="SVGID_17_" x="85.002" y="83.221" width="2.769" height="6.663"/>
				</defs>
				<clipPath id="SVGID_18_">
					<use xlink:href="#SVGID_17_"  overflow="visible"/>
				</clipPath>
				<path clip-path="url(#SVGID_18_)" fill="#EEFAF9" d="M85.295,84.522l2.183-1.26c0.162-0.094,0.294-0.021,0.294,0.164v4.654
					c0,0.185-0.132,0.409-0.294,0.503l-2.183,1.261c-0.161,0.093-0.293,0.019-0.293-0.165v-4.654
					C85.002,84.84,85.134,84.615,85.295,84.522"/>
			</g>
		</g>
		<g clip-path="url(#SVGID_8_)">
			<g>
				<defs>
					<rect id="SVGID_19_" x="55.358" y="50.345" width="13.051" height="35.119"/>
				</defs>
				<clipPath id="SVGID_20_">
					<use xlink:href="#SVGID_19_"  overflow="visible"/>
				</clipPath>
				<polygon clip-path="url(#SVGID_20_)" fill="#F2F1F0" points="55.358,50.345 55.358,50.974 67.529,58.137 67.529,77.487 
					63.621,85.121 64.217,85.464 68.409,77.556 68.409,57.88 				"/>
			</g>
		</g>
		<polygon clip-path="url(#SVGID_8_)" fill="#DED8D1" points="88.385,81.062 81.959,73.247 88.863,81.305 		"/>
		<polygon clip-path="url(#SVGID_8_)" fill="#F3F1EE" points="101.081,77.158 101.793,77.569 89.552,84.635 89.552,83.814 		"/>
		<polygon clip-path="url(#SVGID_8_)" fill="#F3F1EE" points="101.081,82.749 101.793,83.16 89.552,90.226 89.552,89.405 		"/>
		<polygon clip-path="url(#SVGID_8_)" fill="#CBCADD" points="85.179,50.974 85.634,53.543 83.742,51.804 		"/>
		<path clip-path="url(#SVGID_8_)" fill="#CBCADD" d="M89.93,48.231v7.577c0,0.74-0.45,1.08-1.006,0.759l-1.748-1.605l-0.825-4.665
			L89.93,48.231z"/>
		<polygon clip-path="url(#SVGID_8_)" fill="#D6B6B2" points="85.634,53.543 83.742,51.804 85.179,50.975 		"/>
		<path clip-path="url(#SVGID_8_)" fill="#D6B6B2" d="M86.351,50.297l3.579-2.066v7.577c0,0.74-0.45,1.08-1.006,0.76l-1.748-1.606
			L86.351,50.297z"/>
		<polygon clip-path="url(#SVGID_8_)" fill="#EBE7E3" points="71.385,50.532 7.35,13.508 7.798,13.249 71.541,50.532 		"/>
		<polygon clip-path="url(#SVGID_8_)" fill="#FCFBFA" points="71.541,50.385 7.505,13.361 7.953,13.102 71.989,50.126 		"/>
		<polygon clip-path="url(#SVGID_8_)" fill="#EBE7E3" points="71.541,50.385 71.541,50.532 71.989,50.273 71.989,50.126 		"/>
		<polygon clip-path="url(#SVGID_8_)" fill="#CDC6BC" points="71.541,50.532 7.505,13.508 7.505,13.361 71.541,50.385 		"/>
		<polygon clip-path="url(#SVGID_8_)" fill="#EBE7E3" points="74.332,48.831 10.296,11.807 10.744,11.548 74.487,48.831 		"/>
		<polygon clip-path="url(#SVGID_8_)" fill="#FCFBFA" points="74.487,48.684 10.451,11.66 10.9,11.4 74.936,48.425 		"/>
		<polygon clip-path="url(#SVGID_8_)" fill="#EBE7E3" points="74.487,48.684 74.487,48.831 74.936,48.572 74.936,48.425 		"/>
		<polygon clip-path="url(#SVGID_8_)" fill="#CDC6BC" points="74.487,48.831 10.451,11.807 10.451,11.66 74.487,48.684 		"/>
		<polygon clip-path="url(#SVGID_8_)" fill="#EBE7E3" points="77.279,47.129 13.243,10.105 13.691,9.846 77.435,47.129 		"/>
		<polygon clip-path="url(#SVGID_8_)" fill="#FCFBFA" points="77.435,46.982 13.398,9.958 13.847,9.699 77.883,46.724 		"/>
		<polygon clip-path="url(#SVGID_8_)" fill="#EBE7E3" points="77.435,46.982 77.435,47.129 77.883,46.871 77.883,46.724 		"/>
		<polygon clip-path="url(#SVGID_8_)" fill="#CDC6BC" points="77.435,47.129 13.398,10.105 13.398,9.958 77.435,46.982 		"/>
		<polygon clip-path="url(#SVGID_8_)" fill="#EBE7E3" points="80.226,45.428 16.189,8.404 16.638,8.145 80.381,45.428 		"/>
		<polygon clip-path="url(#SVGID_8_)" fill="#FCFBFA" points="80.381,45.281 16.346,8.257 16.794,7.998 80.83,45.022 		"/>
		<polygon clip-path="url(#SVGID_8_)" fill="#EBE7E3" points="80.381,45.281 80.381,45.428 80.83,45.169 80.83,45.022 		"/>
		<polygon clip-path="url(#SVGID_8_)" fill="#CDC6BC" points="80.381,45.428 16.346,8.404 16.346,8.257 80.381,45.281 		"/>
		<polygon clip-path="url(#SVGID_8_)" fill="#EBE7E3" points="83.173,43.727 19.137,6.703 19.585,6.444 83.328,43.727 		"/>
		<polygon clip-path="url(#SVGID_8_)" fill="#FCFBFA" points="83.328,43.58 19.292,6.556 19.74,6.296 83.776,43.321 		"/>
		<polygon clip-path="url(#SVGID_8_)" fill="#EBE7E3" points="83.328,43.58 83.328,43.727 83.776,43.468 83.776,43.321 		"/>
		<polygon clip-path="url(#SVGID_8_)" fill="#CDC6BC" points="83.328,43.727 19.292,6.703 19.292,6.556 83.328,43.58 		"/>
		<polygon clip-path="url(#SVGID_8_)" fill="#EBE7E3" points="86.119,42.025 22.083,5.001 22.531,4.742 86.275,42.025 		"/>
		<polygon clip-path="url(#SVGID_8_)" fill="#FCFBFA" points="86.275,41.878 22.239,4.854 22.688,4.595 86.724,41.62 		"/>
		<polygon clip-path="url(#SVGID_8_)" fill="#EBE7E3" points="86.275,41.878 86.275,42.025 86.724,41.767 86.724,41.62 		"/>
		<polygon clip-path="url(#SVGID_8_)" fill="#CDC6BC" points="86.275,42.025 22.239,5.001 22.239,4.854 86.275,41.878 		"/>
		<polygon clip-path="url(#SVGID_8_)" fill="#EBE7E3" points="89.066,40.324 25.03,3.3 25.479,3.041 89.222,40.324 		"/>
		<polygon clip-path="url(#SVGID_8_)" fill="#FCFBFA" points="89.222,40.177 25.186,3.153 25.634,2.894 89.67,39.918 		"/>
		<polygon clip-path="url(#SVGID_8_)" fill="#EBE7E3" points="89.222,40.177 89.222,40.324 89.67,40.065 89.67,39.918 		"/>
		<polygon clip-path="url(#SVGID_8_)" fill="#CDC6BC" points="89.222,40.324 25.186,3.3 25.186,3.153 89.222,40.177 		"/>
		<polygon clip-path="url(#SVGID_8_)" fill="#EBE7E3" points="92.013,38.623 27.977,1.599 28.426,1.34 92.169,38.623 		"/>
		<polygon clip-path="url(#SVGID_8_)" fill="#FCFBFA" points="92.169,38.476 28.133,1.452 28.581,1.192 92.617,38.217 		"/>
		<polygon clip-path="url(#SVGID_8_)" fill="#EBE7E3" points="92.169,38.476 92.169,38.623 92.617,38.364 92.617,38.217 		"/>
		<polygon clip-path="url(#SVGID_8_)" fill="#CDC6BC" points="92.169,38.623 28.133,1.599 28.133,1.452 92.169,38.476 		"/>
		<polygon clip-path="url(#SVGID_8_)" fill="#EBE7E3" points="77.627,47.732 76.57,47.128 77.405,46.63 78.227,47.732 		"/>
		<polygon clip-path="url(#SVGID_8_)" fill="#E07427" points="78.227,47.732 79.062,47.235 79.062,46.821 78.227,47.318 		"/>
		<polygon clip-path="url(#SVGID_8_)" fill="#FF9A2E" points="78.227,47.318 77.171,46.714 78.006,46.217 79.062,46.821 		"/>
		<polygon clip-path="url(#SVGID_8_)" fill="#E06F2E" points="78.227,47.318 77.171,46.714 77.171,47.128 78.227,47.732 		"/>
		<polygon clip-path="url(#SVGID_8_)" fill="#EBE7E3" points="81.802,45.248 80.745,44.644 81.58,44.147 82.401,45.248 		"/>
		<polygon clip-path="url(#SVGID_8_)" fill="#E07427" points="82.401,45.248 83.236,44.751 83.236,44.337 82.401,44.834 		"/>
		<polygon clip-path="url(#SVGID_8_)" fill="#FF9A2E" points="82.401,44.834 81.346,44.23 82.181,43.732 83.236,44.337 		"/>
		<polygon clip-path="url(#SVGID_8_)" fill="#E06F2E" points="82.401,44.834 81.346,44.23 81.346,44.644 82.401,45.249 		"/>
		<polygon clip-path="url(#SVGID_8_)" fill="#EBE7E3" points="85.977,42.764 84.92,42.16 85.755,41.663 86.576,42.764 		"/>
		<polygon clip-path="url(#SVGID_8_)" fill="#E07427" points="86.576,42.764 87.411,42.267 87.411,41.853 86.576,42.35 		"/>
		<polygon clip-path="url(#SVGID_8_)" fill="#FF9A2E" points="86.576,42.35 85.52,41.746 86.354,41.249 87.411,41.853 		"/>
		<polygon clip-path="url(#SVGID_8_)" fill="#E06F2E" points="86.576,42.35 85.52,41.746 85.52,42.159 86.576,42.764 		"/>
		<polygon clip-path="url(#SVGID_8_)" fill="#CDC6BC" points="83.947,72.392 89.423,69.23 88.361,67.93 82.886,71.091 		"/>
		<polygon clip-path="url(#SVGID_8_)" fill="#CDC6BC" points="91.594,67.948 97.07,64.786 96.008,63.487 90.532,66.649 		"/>
		<path clip-path="url(#SVGID_8_)" fill="#493F41" d="M86.269,68.331c0.119,0.121,0.295,0.1,0.396-0.047
			c0.098-0.148,0.083-0.365-0.037-0.486c-0.118-0.121-0.295-0.1-0.394,0.048C86.134,67.993,86.15,68.209,86.269,68.331"/>
		<path clip-path="url(#SVGID_8_)" fill="#493F41" d="M86.291,68.297c0.104,0.104,0.258,0.087,0.345-0.042
			c0.086-0.129,0.072-0.318-0.031-0.424c-0.096-0.098-0.233-0.09-0.322,0.014c-0.008,0.009-0.014,0.018-0.021,0.027
			C86.174,68.001,86.188,68.192,86.291,68.297"/>
		<path clip-path="url(#SVGID_8_)" fill="#493F41" d="M86.453,67.763c0,0,0.189,0.015,0.251,0.041s0.035,0.455,0.035,0.455
			s-0.146,0.083-0.265,0.104C86.354,68.384,86.453,67.763,86.453,67.763"/>
		<path clip-path="url(#SVGID_8_)" fill="#5C504E" d="M86.549,68.221c0.081,0.083,0.202,0.067,0.271-0.033
			c0.066-0.102,0.056-0.25-0.025-0.333s-0.202-0.068-0.271,0.033C86.456,67.989,86.468,68.138,86.549,68.221"/>
		<g clip-path="url(#SVGID_8_)">
			<g>
				<defs>
					<rect id="SVGID_21_" x="74" y="53.585" width="13.899" height="15.273"/>
				</defs>
				<clipPath id="SVGID_22_">
					<use xlink:href="#SVGID_21_"  overflow="visible"/>
				</clipPath>
				<polygon clip-path="url(#SVGID_22_)" fill="#383838" points="87.288,62.889 87.899,66.346 83.548,68.859 74.074,57.86 
					74,57.428 80.655,53.585 86.933,60.873 				"/>
			</g>
		</g>
		<g clip-path="url(#SVGID_8_)">
			<g>
				<defs>
					<rect id="SVGID_23_" x="88.557" y="62.76" width="1.845" height="2.91"/>
				</defs>
				<clipPath id="SVGID_24_">
					<use xlink:href="#SVGID_23_"  overflow="visible"/>
				</clipPath>
				<polygon clip-path="url(#SVGID_24_)" fill="#383838" points="90.401,64.902 89.071,65.67 88.557,62.76 				"/>
			</g>
		</g>
		<g clip-path="url(#SVGID_8_)">
			<g>
				<defs>
					<rect id="SVGID_25_" x="86.351" y="46.757" width="12.558" height="15.314"/>
				</defs>
				<clipPath id="SVGID_26_">
					<use xlink:href="#SVGID_25_"  overflow="visible"/>
				</clipPath>
				<polygon clip-path="url(#SVGID_26_)" fill="#383838" points="98.908,59.99 95.303,62.072 86.658,52.036 86.351,50.298 
					92.482,46.758 97.666,52.775 98.771,59.188 				"/>
			</g>
		</g>
		<polygon clip-path="url(#SVGID_8_)" fill="#493F41" points="91.877,91.929 90.349,92.812 90.349,92.132 91.877,91.25 		"/>
		<polygon clip-path="url(#SVGID_8_)" fill="#E06F2E" points="91.741,91.887 90.483,92.613 90.483,92.111 91.741,91.384 		"/>
		<polygon clip-path="url(#SVGID_8_)" fill="#E06F2E" points="102.756,85.357 101.498,86.084 101.498,85.582 102.756,84.855 		"/>
		<polygon clip-path="url(#SVGID_8_)" fill="#493F41" points="83.873,68.212 83.527,68.539 86.436,68.244 86.403,67.833 		"/>
		<path clip-path="url(#SVGID_8_)" fill="#5C504E" d="M86.65,67.004c-0.03,0.003-8.242,4.263-8.242,4.263l-0.088-0.26l8.002-4.327
			L86.65,67.004z"/>
		<path clip-path="url(#SVGID_8_)" fill="#E9E5E1" d="M44.968,59.056c-0.38,0-0.784-0.117-1.191-0.353l-13.465-7.775
			c-1.474-0.85-2.629-3.038-2.629-4.981v-7.683c0-1.101,0.388-1.957,1.064-2.347c0.588-0.34,1.313-0.295,2.043,0.126l13.466,7.774
			c1.475,0.852,2.629,3.04,2.629,4.982v7.683c0,1.101-0.388,1.956-1.065,2.347C45.56,58.981,45.272,59.056,44.968,59.056
			 M44.256,57.876c0.297,0.172,0.729,0.333,1.087,0.126c0.367-0.212,0.587-0.78,0.587-1.52V48.8c0-1.578-0.986-3.481-2.153-4.154
			l-13.465-7.775c-0.296-0.171-0.723-0.333-1.087-0.126c-0.367,0.213-0.587,0.78-0.587,1.52v7.683c0,1.579,0.986,3.481,2.152,4.154
			L44.256,57.876z"/>
		<path clip-path="url(#SVGID_8_)" fill="#D9D3CC" d="M44.959,58.616c-0.38,0.001-0.784-0.117-1.189-0.351L30.303,50.49
			c-1.475-0.851-2.629-3.04-2.629-4.981v-7.684c0-1.1,0.389-1.956,1.066-2.347c0.586-0.339,1.313-0.295,2.041,0.126l13.467,7.775
			c1.474,0.851,2.629,3.039,2.629,4.981v7.685c0,1.101-0.388,1.956-1.064,2.347C45.551,58.542,45.263,58.616,44.959,58.616
			 M29.594,36.208c-0.128,0-0.257,0.028-0.377,0.098c-0.367,0.212-0.588,0.78-0.588,1.519v7.684c0,1.578,0.986,3.48,2.152,4.154
			l13.467,7.774c0.297,0.172,0.727,0.334,1.086,0.126c0.367-0.212,0.588-0.78,0.588-1.519V48.36c0-1.577-0.986-3.48-2.152-4.153
			l-13.467-7.775C30.106,36.317,29.85,36.208,29.594,36.208"/>
		<path clip-path="url(#SVGID_8_)" fill="#E9E5E1" d="M24.015,46.959c-0.381,0-0.785-0.118-1.191-0.352L9.359,38.832
			c-1.475-0.851-2.63-3.039-2.63-4.981v-7.684c0-1.101,0.388-1.956,1.065-2.347c0.589-0.34,1.313-0.295,2.042,0.126l13.466,7.775
			c1.475,0.851,2.629,3.038,2.629,4.981v7.684c0,1.101-0.388,1.956-1.065,2.347C24.605,46.883,24.318,46.959,24.015,46.959
			 M23.302,45.779c0.298,0.172,0.727,0.335,1.086,0.126c0.369-0.212,0.589-0.78,0.589-1.519v-7.684c0-1.578-0.987-3.48-2.153-4.153
			L9.359,24.774c-0.297-0.172-0.727-0.334-1.087-0.127c-0.368,0.213-0.588,0.781-0.588,1.52v7.684c0,1.578,0.986,3.48,2.152,4.154
			L23.302,45.779z"/>
		<path clip-path="url(#SVGID_8_)" fill="#D9D3CC" d="M24.005,46.52c-0.38,0-0.784-0.118-1.189-0.353L9.349,38.392
			c-1.474-0.852-2.629-3.039-2.629-4.981v-7.684c0-1.101,0.389-1.956,1.065-2.347c0.589-0.338,1.315-0.295,2.043,0.126l13.466,7.775
			c1.475,0.851,2.629,3.039,2.629,4.981v7.684c0,1.101-0.387,1.956-1.065,2.347C24.597,46.443,24.309,46.52,24.005,46.52
			 M8.641,24.11c-0.129,0-0.257,0.028-0.378,0.098c-0.367,0.212-0.588,0.78-0.588,1.519v7.684c0,1.577,0.987,3.48,2.153,4.154
			l13.466,7.774c0.296,0.172,0.727,0.334,1.086,0.126c0.368-0.212,0.588-0.78,0.588-1.519v-7.684c0-1.578-0.985-3.48-2.152-4.153
			L9.349,24.334C9.152,24.22,8.896,24.11,8.641,24.11"/>
		<polygon clip-path="url(#SVGID_8_)" fill="#F5B53D" points="52.975,65.868 5.219,38.295 5.219,36.91 52.975,64.482 		"/>
		<path clip-path="url(#SVGID_8_)" fill="#DE4037" d="M12.39,30.11v2.799c0,0.527,0.568,0.858,1.026,0.597l2.44-1.391
			c0.461-0.263,0.463-0.926,0.003-1.192l-2.439-1.408C12.962,29.251,12.39,29.582,12.39,30.11"/>
		<path clip-path="url(#SVGID_8_)" fill="#DE4037" d="M19.621,40.205v-2.799c0-0.527-0.569-0.857-1.026-0.597l-2.44,1.391
			c-0.461,0.263-0.463,0.926-0.003,1.192l2.439,1.408C19.049,41.064,19.621,40.734,19.621,40.205"/>
		<path clip-path="url(#SVGID_8_)" fill="#F5B53D" d="M12.732,37.417l1.936,1.117c0.608,0.352,1.29-0.33,0.937-0.939l-1.936-3.337
			c-0.351-0.608-1.28-0.358-1.28,0.344v2.22C12.39,37.068,12.521,37.294,12.732,37.417"/>
		<path clip-path="url(#SVGID_8_)" fill="#F5B53D" d="M19.277,32.898l-1.935-1.117c-0.608-0.352-1.29,0.331-0.937,0.939l1.935,3.338
			c0.352,0.607,1.281,0.357,1.281-0.345v-2.22C19.622,33.247,19.49,33.021,19.277,32.898"/>
		<path clip-path="url(#SVGID_8_)" fill="#493F41" d="M24.875,38.445c0,1.007-0.629,1.295-1.605,0.732l-1.252-0.723v-3.313
			l1.288,0.744C24.256,36.434,24.875,37.438,24.875,38.445 M23.899,37.891c0-0.492-0.243-0.953-0.614-1.167l-0.313-0.181v1.612
			l0.359,0.207C23.676,38.562,23.899,38.377,23.899,37.891"/>
		<polygon clip-path="url(#SVGID_8_)" fill="#493F41" points="27.586,38.355 27.586,39.187 26.099,38.329 26.099,38.735 
			27.449,39.515 27.449,40.347 26.099,39.567 26.099,39.979 27.622,40.858 27.622,41.69 25.143,40.258 25.143,36.945 		"/>
		<polygon clip-path="url(#SVGID_8_)" fill="#493F41" points="28.941,39.138 28.941,41.539 30.143,42.233 30.143,43.145 
			27.985,41.899 27.985,38.586 		"/>
		<polygon clip-path="url(#SVGID_8_)" fill="#493F41" points="31.347,40.527 31.347,43.84 30.392,43.289 30.392,39.975 		"/>
		<polygon clip-path="url(#SVGID_8_)" fill="#493F41" points="32.554,41.224 33.151,43.743 33.744,41.911 34.719,42.474 
			33.616,45.149 32.627,44.58 31.532,40.634 		"/>
		<polygon clip-path="url(#SVGID_8_)" fill="#493F41" points="37.347,43.991 37.347,44.823 35.862,43.965 35.862,44.371 
			37.212,45.151 37.212,45.983 35.862,45.203 35.862,45.615 37.385,46.494 37.385,47.325 34.906,45.894 34.906,42.581 		"/>
		<path clip-path="url(#SVGID_8_)" fill="#493F41" d="M39.407,48.495l-0.346-1.06l-0.358-0.207v0.86l-0.955-0.552v-3.313
			l1.396,0.806c0.782,0.451,1.231,1.141,1.231,1.897c0,0.483-0.161,0.749-0.457,0.785l0.568,1.406L39.407,48.495z M38.703,46.396
			l0.441,0.254c0.205,0.119,0.325,0.041,0.325-0.213c0-0.247-0.12-0.457-0.325-0.576l-0.441-0.254V46.396z"/>
		<polygon clip-path="url(#SVGID_8_)" fill="#493F41" points="42.477,49.236 42.477,50.266 41.521,49.715 41.521,48.708 
			40.467,45.793 41.417,46.342 41.999,47.953 42.559,47 43.51,47.549 		"/>
		<path clip-path="url(#SVGID_8_)" fill="#493F41" d="M22.795,41.152c-0.076-0.044-0.126-0.046-0.126,0.025
			c0,0.297,1.068,0.729,1.068,1.585c0,0.527-0.403,0.527-0.868,0.258c-0.359-0.207-0.76-0.577-1.034-0.974l0.253-0.442
			c0.213,0.325,0.578,0.701,0.787,0.822c0.101,0.058,0.165,0.059,0.165-0.026c0-0.307-1.069-0.722-1.069-1.552
			c0-0.472,0.347-0.569,0.885-0.259c0.326,0.189,0.664,0.496,0.897,0.799l-0.247,0.451C23.296,41.587,22.976,41.256,22.795,41.152"
			/>
		<polygon clip-path="url(#SVGID_8_)" fill="#493F41" points="25.659,42.242 25.659,42.836 24.595,42.222 24.595,42.512 
			25.562,43.07 25.562,43.664 24.595,43.106 24.595,43.399 25.685,44.029 25.685,44.623 23.912,43.599 23.912,41.234 		"/>
		<path clip-path="url(#SVGID_8_)" fill="#493F41" d="M27.13,45.456l-0.248-0.757l-0.257-0.148v0.614l-0.684-0.395v-2.365
			l0.999,0.577c0.56,0.323,0.882,0.815,0.882,1.355c0,0.345-0.115,0.535-0.328,0.561l0.407,1.004L27.13,45.456z M26.625,43.957
			l0.315,0.182c0.149,0.086,0.233,0.03,0.233-0.152c0-0.176-0.084-0.326-0.233-0.411l-0.315-0.182V43.957z"/>
		<polygon clip-path="url(#SVGID_8_)" fill="#493F41" points="28.629,43.957 29.056,45.755 29.481,44.449 30.179,44.852 
			29.389,46.761 28.682,46.353 27.898,43.535 		"/>
		<polygon clip-path="url(#SVGID_8_)" fill="#493F41" points="30.991,45.32 30.991,47.686 30.308,47.292 30.308,44.925 		"/>
		<path clip-path="url(#SVGID_8_)" fill="#493F41" d="M32.31,46.709c-0.248-0.143-0.427-0.02-0.427,0.293
			c0,0.318,0.179,0.651,0.427,0.794c0.147,0.085,0.333,0.087,0.469,0.001l0.394,0.709c-0.229,0.155-0.58,0.138-0.897-0.046
			c-0.635-0.365-1.095-1.147-1.095-1.853c0-0.694,0.472-0.928,1.12-0.554c0.316,0.182,0.66,0.55,0.872,0.935l-0.394,0.309
			C32.655,47.033,32.469,46.801,32.31,46.709"/>
		<polygon clip-path="url(#SVGID_8_)" fill="#493F41" points="35.055,47.667 35.055,48.261 33.992,47.646 33.992,47.937 
			34.957,48.495 34.957,49.088 33.992,48.531 33.992,48.824 35.081,49.454 35.081,50.047 33.309,49.023 33.309,46.659 		"/>
		<path clip-path="url(#SVGID_8_)" fill="#493F41" d="M97.209,61.994c0.118,0.12,0.295,0.1,0.395-0.048
			c0.099-0.147,0.083-0.364-0.036-0.485s-0.295-0.101-0.395,0.048C97.074,61.655,97.09,61.873,97.209,61.994"/>
		<path clip-path="url(#SVGID_8_)" fill="#493F41" d="M97.231,61.959c0.104,0.105,0.258,0.087,0.344-0.042
			c0.087-0.128,0.073-0.318-0.03-0.423c-0.096-0.098-0.234-0.09-0.323,0.013c-0.007,0.009-0.015,0.019-0.021,0.028
			C97.114,61.665,97.128,61.855,97.231,61.959"/>
		<path clip-path="url(#SVGID_8_)" fill="#493F41" d="M97.393,61.426c0,0,0.189,0.015,0.251,0.041
			c0.062,0.025,0.036,0.454,0.036,0.454s-0.145,0.083-0.266,0.104C97.294,62.046,97.393,61.426,97.393,61.426"/>
		<path clip-path="url(#SVGID_8_)" fill="#5C504E" d="M97.488,61.883c0.082,0.083,0.203,0.068,0.271-0.033
			c0.067-0.101,0.057-0.25-0.024-0.333c-0.082-0.083-0.203-0.067-0.27,0.033C97.396,61.651,97.407,61.8,97.488,61.883"/>
		<polygon clip-path="url(#SVGID_8_)" fill="#493F41" points="94.813,61.875 94.468,62.202 97.376,61.907 97.344,61.497 		"/>
		<path clip-path="url(#SVGID_8_)" fill="#5C504E" d="M97.59,60.667c-0.029,0.003-8.241,4.263-8.241,4.263l-0.088-0.26l8.002-4.327
			L97.59,60.667z"/>
		<polygon clip-path="url(#SVGID_8_)" fill="#FAF8F5" points="97.655,67.792 102.122,73.363 88.932,80.99 81.959,73.247 
			88.862,81.305 102.482,73.441 		"/>
		<path clip-path="url(#SVGID_8_)" fill="#FAF8F5" d="M93.522,94.165l3.886-2.243c0.381-0.221,0.689-0.811,0.689-1.318v-2.217
			c0-0.508-0.309-0.742-0.689-0.521l-3.886,2.243c-0.382,0.22-0.69,0.811-0.69,1.318v2.218
			C92.832,94.151,93.141,94.385,93.522,94.165"/>
		<path clip-path="url(#SVGID_8_)" fill="#EBE7E3" d="M98.31,88.476v2.22c0,0.506-0.314,1.096-0.695,1.315l-3.889,2.239
			c-0.381,0.22-0.687-0.009-0.687-0.514v-2.222c0-0.505,0.306-1.096,0.687-1.314l3.889-2.249
			C97.995,87.732,98.31,87.97,98.31,88.476"/>
		<g clip-path="url(#SVGID_8_)">
			<g>
				<defs>
					<rect id="SVGID_27_" x="93.039" y="87.87" width="5.271" height="3.894"/>
				</defs>
				<clipPath id="SVGID_28_">
					<use xlink:href="#SVGID_27_"  overflow="visible"/>
				</clipPath>
				<path clip-path="url(#SVGID_28_)" fill="#FF8E8C" d="M98.31,88.476v0.247l-5.271,3.04v-0.248c0-0.505,0.306-1.096,0.687-1.314
					l3.889-2.249C97.995,87.732,98.31,87.97,98.31,88.476"/>
			</g>
		</g>
		<path clip-path="url(#SVGID_8_)" fill="#D5D2C9" d="M2.899,50.534c-0.001-0.058-0.017-4.494-0.012-7.149
			c-0.489-0.235-1.004-0.486-1.294-0.641L1.326,42.6L1.4,42.238c0.143-0.407,1.424-1.1,1.851-1.026
			c0.217,0.039,0.367,0.218,0.362,0.434c-0.005,0.244-0.009,0.702-0.011,1.289c0.482,0.229,0.868,0.41,0.877,0.413
			c0.329,0.212,0.702,0.214,0.987,0.03l0.491-0.313l0.385,0.602l-0.49,0.313c-0.524,0.336-1.201,0.332-1.721-0.009
			c-0.011-0.004-0.225-0.103-0.529-0.247c-0.004,2.67,0.011,6.751,0.011,6.806L2.899,50.534z M2.316,42.311
			c0.173,0.086,0.37,0.183,0.573,0.282C2.891,42.368,2.892,42.167,2.894,42C2.713,42.079,2.491,42.199,2.316,42.311"/>
		<path clip-path="url(#SVGID_8_)" fill="#D5D2C9" d="M3.508,50.387c-0.14-0.081-0.366-0.081-0.505-0.001
			c-0.14,0.081-0.139,0.211,0.001,0.292c0.141,0.081,0.366,0.081,0.506,0.001C3.649,50.598,3.649,50.468,3.508,50.387"/>
		<path clip-path="url(#SVGID_8_)" fill="#D5D2C9" d="M5.896,43.225c0.003,0.162,0.119,0.355,0.26,0.434
			c0.14,0.077,0.252,0.009,0.249-0.153c-0.003-0.161-0.119-0.355-0.26-0.433C6.003,42.996,5.893,43.063,5.896,43.225"/>
	</g>
</g>
</svg>
