<?xml version="1.0" encoding="utf-8"?>
<!-- Generator: Adobe Illustrator 16.0.0, SVG Export Plug-In . SVG Version: 6.00 Build 0)  -->
<!DOCTYPE svg PUBLIC "-//W3C//DTD SVG 1.1//EN" "http://www.w3.org/Graphics/SVG/1.1/DTD/svg11.dtd">
<svg version="1.1" id="Layer_1" xmlns="http://www.w3.org/2000/svg" xmlns:xlink="http://www.w3.org/1999/xlink" x="0px" y="0px"
	 width="136.598px" height="115.032px" viewBox="0 0 136.598 115.032" enable-background="new 0 0 136.598 115.032"
	 xml:space="preserve">
<g>
	<defs>
		<rect id="SVGID_1_" width="136.598" height="115.032"/>
	</defs>
	<clipPath id="SVGID_2_">
		<use xlink:href="#SVGID_1_"  overflow="visible"/>
	</clipPath>
	<g clip-path="url(#SVGID_2_)">
		<defs>
			<rect id="SVGID_3_" width="136.598" height="115.032"/>
		</defs>
		<clipPath id="SVGID_4_">
			<use xlink:href="#SVGID_3_"  overflow="visible"/>
		</clipPath>
		<path clip-path="url(#SVGID_4_)" fill="#5E2638" d="M67.662,6.216c0,0-0.003-3.326-3.302-2.328
			c-1.875,0.567-4.258,3.24-2.854,8.391c1.427,5.241-2.837,8.805-2.837,8.805s3.236,0.032,4.54-0.834
			c1.304-0.866,1.1-1.856,1.504-5.155C65.116,11.795,67.662,6.216,67.662,6.216"/>
		<path clip-path="url(#SVGID_4_)" fill="#FEBFBF" d="M73.262,16.149c0,0,1.542-0.87,2.86,2.34
			c1.317,3.21,2.743,10.481,3.387,11.543c0.645,1.061,0.026,2.289-3.5,3.184C72.482,34.112,73.262,16.149,73.262,16.149"/>
		<path clip-path="url(#SVGID_4_)" fill="#FFDC6E" d="M78.075,24.746c0,0-0.419,0.698-1.51,0.704
			c-1.09,0.005-7.979-9.002-6.367-9.599c1.605-0.593,3.414,0.016,4.014,0.27C75.381,16.613,76.634,18.461,78.075,24.746"/>
		<path clip-path="url(#SVGID_4_)" fill="#7282B5" d="M78.224,88.248c-2.721-1.81-3.979-1.647-3.979-1.647s-2.17,0.173-2.854-0.818
			v-0.014c-0.147-0.227-0.229-0.536-0.161-0.911c0.322-2.009,0.845-3.121,0.818-3.872c-0.176-4.354-2.157-11.44-1.636-14.857
			c0.777-5.198-1.755-11.549-1.42-15.515c0.026-0.375,0.08-0.737,0.174-1.071c1.032-3.806,8.079-4.971,8.079-4.971
			s0.831,4.957-0.228,11.16c-1.648,9.593-1.942,23.259-1.956,26.314c0,1.26,1.702,2.276,2.479,2.72
			c1.112,0.616,3.27,1.996,3.27,1.996S80.956,90.069,78.224,88.248"/>
		<g clip-path="url(#SVGID_4_)">
			<g>
				<defs>
					<rect id="SVGID_5_" x="68.962" y="49.968" width="4.082" height="35.802"/>
				</defs>
				<clipPath id="SVGID_6_">
					<use xlink:href="#SVGID_5_"  overflow="visible"/>
				</clipPath>
				<path clip-path="url(#SVGID_6_)" fill="#E8D0C8" d="M71.698,71.555c0.43,3.43,1.112,8.278,0.925,9.392
					c-0.188,1.112-1.272,3.363-1.232,4.823c-0.148-0.229-0.229-0.536-0.161-0.911c0.322-2.01,0.844-3.121,0.818-3.872
					c-0.176-4.355-2.158-11.442-1.636-14.859c0.777-5.197-1.756-11.549-1.42-15.514c0.991-0.429,2.317-0.67,4.033-0.643
					c0,0,0.214,1.005-0.818,2.465l-1.03,1.46c0,0,0.655,4.877,0.521,9.74C71.578,68.486,71.283,68.111,71.698,71.555"/>
			</g>
		</g>
		<path clip-path="url(#SVGID_4_)" fill="#7282B5" d="M73.199,50.305c-0.536,1.527-2.291,2.022-2.291,2.022
			s-0.481,13.412-1.621,16.306c-1.126,2.895-1.943,13.506-1.903,13.935c0.04,0.441,0.148,3.054,2.237,5.023
			c2.077,1.984,2.976,2.346,2.961,2.653c-0.025,0.308-0.91,1.862-2.853,1.581c-1.943-0.282-2.479-0.416-3.43-1.393
			c-0.362-0.362-0.724-0.685-1.045-0.992c-0.536-0.495-0.978-0.938-1.072-1.42c-0.148-0.777,0.482-2.306,0.054-3.766
			c-0.416-1.446-1.488-10.53-1.26-12.956c0.509-5.346,1.125-4.809,0.925-6.323c-0.215-1.515-2.593-9.372-2.593-18.08
			c0-0.161,0.027-0.295,0.08-0.43c0.925-2.692,11.745,0.141,11.745,0.141S73.788,48.657,73.199,50.305"/>
		<g clip-path="url(#SVGID_4_)">
			<g>
				<defs>
					<rect id="SVGID_7_" x="61.308" y="46.467" width="3.946" height="42.974"/>
				</defs>
				<clipPath id="SVGID_8_">
					<use xlink:href="#SVGID_7_"  overflow="visible"/>
				</clipPath>
				<path clip-path="url(#SVGID_8_)" fill="#E8D0C8" d="M65.254,89.44c-0.536-0.495-0.978-0.938-1.072-1.42
					c-0.147-0.777,0.483-2.306,0.054-3.766c-0.416-1.447-1.487-10.531-1.26-12.956c0.509-5.345,1.126-4.809,0.925-6.324
					c-0.214-1.514-2.593-9.371-2.593-18.079c0-0.161,0.027-0.295,0.081-0.43c0.602,0.108,0.937,0.295,0.937,0.295
					s-0.455,3.176,0,7.276c0.469,4.113,2.298,10.764,2.298,11.608c0,0.83-1.071,3.271-1.031,7.785
					c0.054,4.516,1.366,10.892,1.286,11.803C64.825,85.877,64.008,87.43,65.254,89.44"/>
			</g>
		</g>
		<path clip-path="url(#SVGID_4_)" fill="#FDD249" d="M77.674,27.917c0.014,0.63-0.04,1.3-0.146,1.983v0.013
			c-0.015,0.067-0.015,0.148-0.027,0.215c-0.106,0.71-0.268,1.42-0.496,2.103c-0.054,0.188-0.106,0.349-0.146,0.456
			c-0.644,1.755,0.683,11.361,0.481,12.125c-0.201,0.751-0.696,1.528-3.952,2.572c-0.91,0.296-1.942,0.51-3.015,0.643
			c-0.268,0.04-0.536,0.068-0.817,0.094c-0.95,0.094-1.929,0.134-2.854,0.108c-0.174,0-0.335,0-0.509-0.014
			c-0.274-0.011-0.541-0.028-0.803-0.049c-1.131-0.084-2.135-0.25-2.841-0.5c-0.362-0.121-0.657-0.269-0.885-0.429
			c-0.16-0.107-0.281-0.215-0.361-0.335c0,0,0.388-7.181,0.161-9.967c-0.134-1.716-1.126-3.954-2.05-6.164
			c-0.416-0.978-0.804-1.957-1.113-2.88c-0.12-0.375-0.227-0.738-0.321-1.085c-1.487-5.748,0.71-6.472,2.439-7.826
			c1.487-1.178,3.791-2.679,5.506-3.134c2.599-0.684,5.346-0.108,6.136-0.04c0.791,0.066,2.599,0.536,3.604,3.952
			c1.019,3.417,1.849,5.721,1.983,7.409C77.674,27.408,77.674,27.662,77.674,27.917"/>
		<g clip-path="url(#SVGID_4_)">
			<g>
				<defs>
					<rect id="SVGID_9_" x="59.413" y="27.518" width="18.263" height="20.718"/>
				</defs>
				<clipPath id="SVGID_10_">
					<use xlink:href="#SVGID_9_"  overflow="visible"/>
				</clipPath>
				<path clip-path="url(#SVGID_10_)" fill="#FFEECF" d="M77.674,27.917c0.014,0.63-0.04,1.3-0.146,1.983v0.013
					c-0.015,0.067-0.015,0.148-0.027,0.215c-0.174,0.804-0.362,1.581-0.496,2.103c-0.054,0.188-0.106,0.349-0.146,0.456
					c-0.644,1.755,0.683,11.361,0.481,12.125c-0.201,0.751-0.696,1.528-3.952,2.572c-0.91,0.296-1.942,0.51-3.015,0.643
					c-0.268,0.04-0.536,0.068-0.817,0.094c-0.95,0.094-1.929,0.134-2.854,0.108c-0.174,0-0.335,0-0.509-0.014
					c-1.996-0.08-3.711-0.429-4.529-0.978c-0.16-0.107-0.281-0.215-0.361-0.335c0,0,0.388-7.181,0.161-9.967
					c-0.134-1.716-1.126-3.954-2.05-6.164c1.768-2.465,3.376-3.953,3.175-2.92c-0.456,2.411-0.469,5.774,2.666,5.84
					c4.421,0.122,5.521-1.607,7.624-2.371C75.825,30.248,77.125,28.828,77.674,27.917"/>
			</g>
		</g>
		<g clip-path="url(#SVGID_4_)">
			<g>
				<defs>
					<rect id="SVGID_11_" x="58.301" y="26.775" width="13.556" height="20.884"/>
				</defs>
				<clipPath id="SVGID_12_">
					<use xlink:href="#SVGID_11_"  overflow="visible"/>
				</clipPath>
				<path clip-path="url(#SVGID_12_)" fill="#DEDEDE" d="M71.856,31.981c0,0-6.61,3.559-9.061,0
					c-0.05-2.503-0.168-5.203-0.168-5.203c-1.741-0.04-3.161,0.375-4.327,1.112c0.308,0.924,0.697,1.903,1.112,2.88
					c0.924,2.211,1.916,4.448,2.05,6.164c0.227,2.786-0.154,9.962-0.154,9.962c0.228,0.308,0.656,0.563,1.246,0.763
					c-0.255-1.407-0.483-3.028-0.55-4.649c-0.227-4.757,0.717-5.46,0.798-7.912c0.015-0.475,0.018-1.081,0.013-1.746
					C64.006,33.975,66.991,34.858,71.856,31.981"/>
			</g>
		</g>
		<path clip-path="url(#SVGID_4_)" fill="#FEBFBF" d="M61.691,37.557c0,0,1.426-10.48,0.748-13.703
			c-0.68-3.224-2.851-3.268-3.811-2.848c-0.961,0.42-1.442,1.488-1.109,6.35c0.334,4.861,0.899,11.043,1.045,11.9
			C58.709,40.114,61.691,37.557,61.691,37.557"/>
		<path clip-path="url(#SVGID_4_)" fill="#FFADB7" d="M70.393,11.301c0,0-0.042,3.766,0.174,5.177
			c0.216,1.41,0.683,2.247-0.906,2.761c-0.91,0.294-4.322-0.643-5.747-2.234c-0.125-0.195,0.252-0.441,0.573-1.552
			c0.323-1.122,0.557-1.629,0.548-3.818c-0.009-2.189,0.1-4.194,0.1-4.194L70.393,11.301z"/>
	</g>
	<g clip-path="url(#SVGID_2_)">
		<defs>
			<path id="SVGID_13_" d="M65.038,11.629c0,2.197-0.229,2.707-0.55,3.819c-0.322,1.112-0.697,1.367-0.576,1.554
				c0.589,0.67,1.54,1.219,2.505,1.608c-0.737-0.778-0.978-1.501-0.322-2.144c0.657-0.656,1.247-0.548,3.417,0
				c0.51,0.134,0.858,0.161,1.086,0.134c-0.014-0.04-0.026-0.08-0.026-0.12c-0.041-0.241-0.068-0.562-0.095-0.925l-5.438-4.971
				V11.629z"/>
		</defs>
		<clipPath id="SVGID_14_">
			<use xlink:href="#SVGID_13_"  overflow="visible"/>
		</clipPath>
		
			<linearGradient id="SVGID_15_" gradientUnits="userSpaceOnUse" x1="0" y1="115.2109" x2="1" y2="115.2109" gradientTransform="matrix(3.6216 4.5846 4.5846 -3.6216 -461.0554 431.7689)">
			<stop  offset="0" style="stop-color:#FCA4B5"/>
			<stop  offset="0.1224" style="stop-color:#FCA4B5"/>
			<stop  offset="0.9896" style="stop-color:#FFADB7"/>
			<stop  offset="1" style="stop-color:#FFADB7"/>
		</linearGradient>
		<polygon clip-path="url(#SVGID_14_)" fill="url(#SVGID_15_)" points="67.982,7.273 74.502,15.526 66.407,21.921 59.887,13.668 		
			"/>
	</g>
	<g clip-path="url(#SVGID_2_)">
		<defs>
			<rect id="SVGID_16_" width="136.598" height="115.032"/>
		</defs>
		<clipPath id="SVGID_17_">
			<use xlink:href="#SVGID_16_"  overflow="visible"/>
		</clipPath>
		<path clip-path="url(#SVGID_17_)" fill="#FEBFBF" d="M68.2,0.883c0,0,3.604,0.758,4.542,3.513
			c0.938,2.756,0.788,2.877,0.727,3.982c-0.061,1.106,0.295,2.651-0.129,4.447c-0.424,1.796-0.84,3.32-1.658,3.592
			c-0.816,0.274-5.481-0.666-7.176-3.846c-1.696-3.178-3.297-6.088-1.999-9.043C63.415,1.459,66.383,0.429,68.2,0.883"/>
		<path clip-path="url(#SVGID_17_)" fill="#754554" d="M62.232,3.718c0.682-1.803,1.56-2.151,1.56-2.151s0.844-0.92,3.224-0.922
			c2.249-0.003,4.256,1.184,5.168,2.178c1.281,1.399,0.753,2.155,0.753,2.155l-0.011-0.022c-0.046-0.093-0.255-0.456-0.693-0.28
			c-0.608,0.243-0.861,0.719-1.358,0.895c-3.499,1.235-4.203,0.297-4.491,1.916c-0.291,1.63-0.446,2.211-1.178,1.956
			c-1.178-0.412-1.125-0.155-1.698,0.639c0.216,0.752,0.483,1.573,0.79,2.295c0,0-0.03,0.738-1.376-2.227
			C62.406,8.926,61.096,7.281,62.232,3.718"/>
	</g>
	<g clip-path="url(#SVGID_2_)">
		<defs>
			<path id="SVGID_18_" d="M63.094,9.09c-1.158,0.314-0.938,1.635,0.304,2.816c1.241,1.181,1.544-0.212,1.605-0.303
				c0.06-0.091-0.546-0.939-0.243-1.756c0,0-0.385-0.815-1.251-0.815C63.381,9.032,63.243,9.05,63.094,9.09"/>
		</defs>
		<clipPath id="SVGID_19_">
			<use xlink:href="#SVGID_18_"  overflow="visible"/>
		</clipPath>
		
			<linearGradient id="SVGID_20_" gradientUnits="userSpaceOnUse" x1="0" y1="114.9053" x2="1" y2="114.9053" gradientTransform="matrix(-3.6769 -1.661 1.661 -3.6769 -125.7487 434.279)">
			<stop  offset="0" style="stop-color:#FEB9B8"/>
			<stop  offset="0.1224" style="stop-color:#FEB9B8"/>
			<stop  offset="1" style="stop-color:#FFDEDE"/>
		</linearGradient>
		<polygon clip-path="url(#SVGID_19_)" fill="url(#SVGID_20_)" points="66.584,9.72 62.466,7.859 60.415,12.4 64.533,14.26 		"/>
	</g>
	<g clip-path="url(#SVGID_2_)">
		<defs>
			<path id="SVGID_21_" d="M63.332,9.665c-0.764,0.404,0.341,1.655,0.447,1.815c0.107,0.159,0.672,0.095,0.736-0.287
				c0.064-0.384-0.565-0.703-0.175-1.186c0,0-0.345-0.407-0.744-0.407C63.51,9.6,63.421,9.619,63.332,9.665"/>
		</defs>
		<clipPath id="SVGID_22_">
			<use xlink:href="#SVGID_21_"  overflow="visible"/>
		</clipPath>
		
			<linearGradient id="SVGID_23_" gradientUnits="userSpaceOnUse" x1="0" y1="115.2158" x2="1" y2="115.2158" gradientTransform="matrix(1.0295 1.3008 -1.3008 1.0295 213.1156 -108.4192)">
			<stop  offset="0" style="stop-color:#FCA4B5"/>
			<stop  offset="0.1224" style="stop-color:#FCA4B5"/>
			<stop  offset="0.9896" style="stop-color:#FFADB7"/>
			<stop  offset="1" style="stop-color:#FFADB7"/>
		</linearGradient>
		<polygon clip-path="url(#SVGID_22_)" fill="url(#SVGID_23_)" points="61.576,10.385 63.342,12.618 65.571,10.854 63.805,8.622 		
			"/>
	</g>
	<g clip-path="url(#SVGID_2_)">
		<defs>
			<rect id="SVGID_24_" width="136.598" height="115.032"/>
		</defs>
		<clipPath id="SVGID_25_">
			<use xlink:href="#SVGID_24_"  overflow="visible"/>
		</clipPath>
		<path clip-path="url(#SVGID_25_)" fill="#FFDC6E" d="M59.27,20.676c0,0-1.633-0.083-1.989,2.24
			c-0.356,2.324,0.314,7.767,0.314,7.767s1.064-0.203,2.785-0.231c1.36-0.02,2.242,0.231,2.242,0.231s0.336-4.732,0-6.804
			C62.285,21.807,61.51,20.447,59.27,20.676"/>
		<path clip-path="url(#SVGID_25_)" fill="#FECB4C" d="M74.076,4.96l-0.254,0.335c0,0-5.574,1.446-6.083,1.567
			c-0.295,0.08-0.469,0.268-1.045,0.455H66.68c-0.375,0.135-0.937,0.242-1.835,0.323c-1.782,0.147-3.376-0.148-3.376-0.148
			s-0.282-2.224-0.04-3.162c0.509-1.996,2.17-3.483,4.314-4.059c0.388-0.108,0.804-0.188,1.219-0.228
			c2.706-0.281,5.225,0.871,6.082,2.184C73.915,3.541,74.076,4.96,74.076,4.96"/>
		<g clip-path="url(#SVGID_25_)">
			<g>
				<defs>
					<rect id="SVGID_26_" x="61.331" y="0.271" width="5.35" height="7.41"/>
				</defs>
				<clipPath id="SVGID_27_">
					<use xlink:href="#SVGID_26_"  overflow="visible"/>
				</clipPath>
				<path clip-path="url(#SVGID_27_)" fill="#FCF5E8" d="M66.68,7.318c-0.375,0.135-0.938,0.241-1.835,0.322
					c-1.782,0.148-3.377-0.147-3.377-0.147s-0.281-2.225-0.04-3.162c0.509-1.996,2.17-3.484,4.314-4.06c0,0-1.353,0.523-1.46,1.902
					C64.188,3.553,64.175,6.742,66.68,7.318"/>
			</g>
		</g>
		<path clip-path="url(#SVGID_25_)" fill="#725E6D" d="M66.593,7.263c0,0,4.372,2.758,5.901,1.618
			c1.951-1.453,3.323-1.477,4.354-1.171l1.033,0.307c0,0,0.219-0.044,0.191-0.295c-0.028-0.251-3.991-2.764-3.991-2.764
			S71.838,3.287,66.593,7.263"/>
		<path clip-path="url(#SVGID_25_)" fill="#5C6467" d="M69.364,86.938c-0.315-0.108-0.696-0.06-1.056,0.017
			c-0.415,0.087-0.811,0.248-1.197,0.424c-0.381,0.174-0.393,0.324-0.369,0.687c-0.492-0.244-2.036-1.021-2.25-1.544
			c-0.154-0.379-0.11-1.34-0.11-1.34s-0.026,0.155-0.087,0.788c-0.061,0.634-0.207,2.239-0.183,2.665
			c0.022,0.427,2.281,2.262,2.909,2.7c1.618,1.136,2.155,1.562,4.419,1.634c2.263,0.073,2.134-1.476,2.111-1.843
			c-0.021-0.367-2.256-2.272-2.874-2.735c-0.362-0.271-0.624-0.745-0.874-1.113C69.688,87.102,69.536,86.996,69.364,86.938"/>
		<path clip-path="url(#SVGID_25_)" fill="#5C6467" d="M76.042,83.668c0.632-0.184,1.254,0.709,1.695,1.103
			c0,0,3.399,1.992,3.502,2.256s0.256,1.063,0.144,1.212c-0.111,0.15-1.293,1.292-2.997,0.671c-1.702-0.62-2.315-1.199-3.453-1.479
			c-1.14-0.281-3.374-0.74-3.665-1.359c-0.292-0.619,0.03-2.687,0.03-2.687s0.357-0.138,0.499,0.117
			c0.143,0.253,0.806,0.975,1.569,1.222c0.546,0.176,1.145,0.15,1.705,0.064c-0.034-0.156-0.094-0.312,0.021-0.456
			c0.083-0.102,0.207-0.161,0.317-0.234c0.153-0.104,0.284-0.235,0.438-0.337C75.913,83.717,75.979,83.687,76.042,83.668"/>
		<g clip-path="url(#SVGID_25_)">
			<g>
				<defs>
					<rect id="SVGID_28_" y="80.246" width="54.605" height="34.786"/>
				</defs>
				<clipPath id="SVGID_29_">
					<use xlink:href="#SVGID_28_"  overflow="visible"/>
				</clipPath>
				<polygon clip-path="url(#SVGID_29_)" fill="#BECDD4" points="36.825,115.032 0,93.771 23.434,80.246 30.504,89.26 
					54.605,115.032 				"/>
			</g>
		</g>
		<polygon clip-path="url(#SVGID_25_)" fill="#EBE7E3" points="21.038,95.653 21.038,59.173 54.605,78.552 90.81,46.539 
			90.81,18.904 133.339,33.111 133.339,69.591 54.605,115.032 		"/>
		<polygon clip-path="url(#SVGID_25_)" fill="#D9D3CC" points="21.038,95.653 21.038,59.173 54.605,78.552 90.81,46.539 
			90.81,18.904 133.339,33.111 133.339,41.068 54.605,86.509 		"/>
		<polygon clip-path="url(#SVGID_25_)" fill="#E8B687" points="21.038,59.173 30.003,54 41.309,60.528 102.113,25.433 90.81,18.903 
			99.772,13.732 133.339,33.11 120.066,40.771 54.605,78.553 		"/>
		<polygon clip-path="url(#SVGID_25_)" fill="#DED8D1" points="21.038,59.173 54.605,78.553 54.605,115.031 21.038,95.652 		"/>
		<polygon clip-path="url(#SVGID_25_)" fill="#C99A6B" points="136.595,32.192 136.595,36.985 124.372,44.036 124.372,39.243 		"/>
		<polygon clip-path="url(#SVGID_25_)" fill="#AE835B" points="124.372,39.243 124.372,44.036 87.551,22.776 87.551,17.983 		"/>
		<polygon clip-path="url(#SVGID_25_)" fill="#E8B687" points="124.375,39.245 87.55,17.984 99.772,10.93 136.599,32.19 		"/>
		<polygon clip-path="url(#SVGID_25_)" fill="#C99A6B" points="124.375,39.245 124.375,44.038 66.828,77.253 66.828,72.459 		"/>
		<polygon clip-path="url(#SVGID_25_)" fill="#AE835B" points="66.829,72.459 66.829,77.253 41.311,62.52 41.311,57.727 		"/>
		<polygon clip-path="url(#SVGID_25_)" fill="#E8B687" points="66.831,72.461 41.31,57.728 98.857,24.51 124.378,39.243 		"/>
		<polygon clip-path="url(#SVGID_25_)" fill="#C99A6B" points="66.825,72.459 66.825,77.255 54.603,84.306 54.603,79.511 		"/>
		<polygon clip-path="url(#SVGID_25_)" fill="#AE835B" points="54.603,79.511 54.603,84.306 17.781,63.045 17.781,58.251 		"/>
		<polygon clip-path="url(#SVGID_25_)" fill="#E8B687" points="54.605,79.514 17.781,58.252 30.003,51.199 66.829,72.458 		"/>
		<path clip-path="url(#SVGID_25_)" fill="#FEBFBF" d="M77.048,33.851c0.935,1.085,4.296,3.166,4.296,3.166s0.153,0.193,0.357,0.414
			c0.004,0.002,0.004,0.002,0.005,0.005c0.003,0.003,0.006,0.005,0.007,0.011c0.202,0.206,0.448,0.434,0.66,0.534
			c0.432,0.205,1.302,1.303,1.511,1.356c0.206,0.051,0.409-0.174,0.634-0.117c0.045,0.011,0.091,0.003,0.131-0.017
			c0.003-0.004,0.005-0.004,0.005-0.004c0.02-0.012,0.038-0.021,0.054-0.036c0.002-0.002,0.008-0.006,0.013-0.01
			c0.013-0.011,0.024-0.025,0.037-0.038c0.015-0.017,0.029-0.034,0.044-0.054c0.002-0.003,0.002-0.006,0.002-0.006
			c0.011-0.008,0.015-0.017,0.021-0.026c0.059-0.089,0.093-0.17,0.093-0.17l0.146-0.09l0.233-0.148c0,0,0.007,0.01,0.026,0.027
			l0.003,0.003c0.005,0.005,0.012,0.012,0.021,0.016c0.019,0.015,0.039,0.03,0.067,0.042c0.013,0.007,0.025,0.011,0.037,0.015
			c0.014,0.006,0.028,0.01,0.043,0.013c0.024,0.005,0.049,0.01,0.071,0.009c0.024,0.002,0.049,0.001,0.078-0.003
			c0.082-0.014,0.178-0.053,0.287-0.134c0.274-0.201,0.742-0.732,1.022-1.065c0.136-0.159,0.154-0.386,0.045-0.56
			c-0.087-0.135-0.123-0.278-0.192-0.43c0-0.003-0.004-0.008-0.004-0.011c-0.016-0.021-0.024-0.04-0.026-0.054
			c-0.021-0.127-0.301-0.473-0.62-0.829c-0.018-0.021-0.024-0.031-0.024-0.031c-0.268-0.299-0.555-0.598-0.733-0.786
			c-0.028-0.027-0.055-0.055-0.077-0.077c-0.006-0.005-0.01-0.013-0.017-0.018c-0.018-0.017-0.031-0.033-0.042-0.045
			c-0.01-0.01-0.019-0.018-0.024-0.023c-0.004-0.005-0.007-0.008-0.01-0.01c-0.004-0.003-0.004-0.005-0.004-0.005l-0.46,0.074
			c0,0-0.367-0.233-0.646-0.278c-0.227-0.039-0.678,0.33-1.105,0.312l-0.003,0.001c-0.101-0.005-0.2-0.029-0.294-0.087
			c-0.502-0.304-2.468-3.902-3.011-4.179c-0.546-0.276-1.382,0.38-1.382,0.38C76.537,31.947,76.11,32.77,77.048,33.851"/>
		<path clip-path="url(#SVGID_25_)" fill="#C5C9D8" d="M95.471,38.126l-5.661-3.273c-0.188-0.109-0.49-0.109-0.678,0l-14.24,8.279
			l-0.643,0.156v0.318h0.002c-0.007,0.076,0.038,0.154,0.138,0.211l5.788,3.347c0.188,0.108,0.491,0.108,0.677,0l14.745-8.573
			c0.089-0.052,0.136-0.119,0.139-0.187l0.002-0.001v-0.342L95.471,38.126z"/>
		<path clip-path="url(#SVGID_25_)" fill="#DADAE8" d="M74.39,43.49l5.787,3.346c0.188,0.108,0.49,0.108,0.678,0L95.6,38.263
			c0.186-0.108,0.185-0.284-0.002-0.392l-5.788-3.347c-0.188-0.108-0.491-0.108-0.677,0l-14.745,8.573
			C74.201,43.206,74.202,43.382,74.39,43.49"/>
		<path clip-path="url(#SVGID_25_)" fill="#E7E7F0" d="M94.15,37.778v-0.076h-0.062l-0.643-0.37c-0.065-0.038-0.172-0.038-0.236,0
			l-0.644,0.373l-0.056,0.001v0.072v0.005c0.002,0.022,0.018,0.046,0.049,0.063l0.654,0.378c0.065,0.038,0.173,0.038,0.237,0
			l0.651-0.378C94.135,37.828,94.15,37.802,94.15,37.778"/>
		<path clip-path="url(#SVGID_25_)" fill="#E7E7F0" d="M90.02,35.392v-0.076l-0.063,0.001l-0.642-0.371
			c-0.065-0.038-0.172-0.037-0.236,0l-0.644,0.374H88.38v0.073v0.004c0.002,0.023,0.018,0.047,0.049,0.064l0.654,0.378
			c0.065,0.038,0.173,0.038,0.237,0l0.651-0.378C90.004,35.443,90.02,35.417,90.02,35.392"/>
		<path clip-path="url(#SVGID_25_)" fill="#E7E7F0" d="M89,35.985v-0.076h-0.062l-0.643-0.37c-0.065-0.038-0.171-0.038-0.236,0
			l-0.644,0.374H87.36v0.072v0.005h0.001c0.002,0.023,0.017,0.046,0.048,0.064l0.655,0.377c0.065,0.038,0.172,0.038,0.236,0.001
			l0.651-0.378C88.984,36.035,89,36.01,89,35.985"/>
		<path clip-path="url(#SVGID_25_)" fill="#E7E7F0" d="M87.981,36.578v-0.077l-0.063,0.001l-0.641-0.371
			c-0.066-0.038-0.172-0.037-0.237,0l-0.643,0.374h-0.057v0.073v0.005c0.002,0.022,0.019,0.046,0.05,0.063l0.653,0.378
			c0.066,0.038,0.173,0.038,0.238,0l0.651-0.378C87.965,36.628,87.981,36.602,87.981,36.578"/>
		<path clip-path="url(#SVGID_25_)" fill="#E7E7F0" d="M86.962,37.169v-0.076h-0.063l-0.642-0.37c-0.066-0.038-0.172-0.038-0.237,0
			l-0.643,0.374h-0.057v0.072v0.005h0.001c0.002,0.023,0.018,0.046,0.049,0.064l0.654,0.378c0.066,0.037,0.172,0.037,0.237,0
			l0.651-0.378C86.945,37.22,86.962,37.194,86.962,37.169"/>
		<path clip-path="url(#SVGID_25_)" fill="#E7E7F0" d="M93.131,38.37v-0.076h-0.062l-0.643-0.37c-0.065-0.038-0.171-0.038-0.236,0
			l-0.644,0.374h-0.056v0.072v0.005h0.001c0.002,0.023,0.017,0.047,0.048,0.064l0.655,0.378c0.065,0.038,0.172,0.038,0.236,0
			l0.651-0.378C93.115,38.42,93.131,38.395,93.131,38.37"/>
		<path clip-path="url(#SVGID_25_)" fill="#E7E7F0" d="M91.529,38.112v-0.076l-0.063,0.001l-0.642-0.371
			c-0.065-0.038-0.172-0.037-0.236,0l-0.644,0.374H89.89v0.073v0.004c0.002,0.023,0.018,0.047,0.049,0.064l0.654,0.378
			c0.065,0.038,0.173,0.038,0.237,0l0.651-0.378C91.514,38.163,91.529,38.137,91.529,38.112"/>
		<path clip-path="url(#SVGID_25_)" fill="#E7E7F0" d="M90.51,38.705v-0.076h-0.062l-0.643-0.37c-0.065-0.038-0.172-0.038-0.236,0
			l-0.644,0.374H88.87v0.072v0.005h0.001c0.002,0.023,0.017,0.046,0.048,0.064l0.655,0.377c0.064,0.038,0.172,0.038,0.236,0.001
			l0.651-0.378C90.494,38.754,90.51,38.729,90.51,38.705"/>
		<path clip-path="url(#SVGID_25_)" fill="#E7E7F0" d="M89.98,37.808v-0.076h-0.063l-0.642-0.37c-0.065-0.038-0.172-0.037-0.236,0
			l-0.644,0.374H88.34v0.072v0.005h0.001c0.002,0.023,0.018,0.047,0.049,0.064l0.654,0.378c0.065,0.038,0.173,0.038,0.237,0
			l0.65-0.378C89.965,37.858,89.98,37.833,89.98,37.808"/>
		<path clip-path="url(#SVGID_25_)" fill="#E7E7F0" d="M88.94,37.208v-0.076h-0.062l-0.643-0.371c-0.065-0.037-0.172-0.037-0.236,0
			l-0.644,0.374l-0.056,0.001v0.072v0.005h0.001c0.002,0.022,0.017,0.046,0.048,0.063l0.655,0.378c0.065,0.038,0.172,0.038,0.236,0
			l0.651-0.378C88.925,37.258,88.94,37.232,88.94,37.208"/>
		<path clip-path="url(#SVGID_25_)" fill="#E7E7F0" d="M87.922,37.8v-0.076h-0.063l-0.641-0.37c-0.066-0.038-0.172-0.038-0.237,0
			l-0.643,0.374H86.28V37.8v0.005h0.001c0.002,0.023,0.019,0.046,0.05,0.064l0.653,0.378c0.066,0.037,0.173,0.037,0.238,0
			l0.65-0.378C87.905,37.85,87.922,37.825,87.922,37.8"/>
		<path clip-path="url(#SVGID_25_)" fill="#E7E7F0" d="M86.902,38.393v-0.076H86.84l-0.642-0.37c-0.066-0.038-0.172-0.038-0.237,0
			l-0.643,0.373l-0.057,0.001v0.072v0.005h0.001c0.002,0.022,0.018,0.046,0.049,0.063l0.654,0.378c0.065,0.038,0.172,0.038,0.237,0
			l0.651-0.378C86.886,38.443,86.902,38.417,86.902,38.393"/>
		<path clip-path="url(#SVGID_25_)" fill="#E7E7F0" d="M85.883,38.985v-0.076H85.82l-0.642-0.37c-0.065-0.038-0.172-0.038-0.236,0
			l-0.644,0.374h-0.056v0.072v0.005c0.002,0.023,0.018,0.047,0.049,0.064l0.654,0.378c0.065,0.038,0.173,0.038,0.237,0l0.651-0.378
			C85.867,39.035,85.883,39.01,85.883,38.985"/>
		<path clip-path="url(#SVGID_25_)" fill="#E7E7F0" d="M84.863,39.578v-0.076h-0.062l-0.643-0.37c-0.065-0.038-0.172-0.038-0.236,0
			l-0.644,0.374h-0.056v0.072v0.005h0.001c0.002,0.023,0.017,0.046,0.048,0.063l0.655,0.378c0.065,0.038,0.172,0.038,0.236,0.001
			l0.651-0.379C84.848,39.628,84.863,39.602,84.863,39.578"/>
		<path clip-path="url(#SVGID_25_)" fill="#E7E7F0" d="M83.845,40.169v-0.076h-0.063l-0.641-0.37c-0.066-0.038-0.172-0.037-0.237,0
			l-0.643,0.374h-0.057v0.073v0.004c0.002,0.023,0.019,0.047,0.05,0.064l0.653,0.378c0.066,0.038,0.173,0.038,0.238,0l0.651-0.378
			C83.828,40.22,83.845,40.194,83.845,40.169"/>
		<path clip-path="url(#SVGID_25_)" fill="#E7E7F0" d="M82.825,40.762v-0.076h-0.063l-0.642-0.37c-0.066-0.038-0.172-0.038-0.237,0
			l-0.643,0.374h-0.057v0.072v0.005h0.001c0.002,0.023,0.018,0.046,0.049,0.063l0.654,0.378c0.066,0.038,0.172,0.038,0.237,0.001
			l0.651-0.379C82.809,40.813,82.825,40.786,82.825,40.762"/>
		<path clip-path="url(#SVGID_25_)" fill="#E7E7F0" d="M81.806,41.354v-0.076l-0.063,0.001l-0.642-0.371
			c-0.065-0.038-0.172-0.037-0.236,0l-0.644,0.374h-0.057v0.073v0.004h0.001c0.002,0.023,0.018,0.047,0.049,0.064l0.654,0.378
			c0.065,0.038,0.173,0.038,0.237,0l0.651-0.378C81.79,41.405,81.806,41.379,81.806,41.354"/>
		<path clip-path="url(#SVGID_25_)" fill="#E7E7F0" d="M79.146,41.947v0.077l0.063-0.001l0.642,0.371
			c0.065,0.038,0.172,0.037,0.236,0l0.644-0.374h0.056v-0.073v-0.004c-0.002-0.023-0.018-0.047-0.049-0.064l-0.654-0.378
			c-0.065-0.038-0.173-0.038-0.238,0l-0.65,0.378C79.162,41.897,79.146,41.923,79.146,41.947"/>
		<path clip-path="url(#SVGID_25_)" fill="#E7E7F0" d="M79.694,41.393v-0.076h-0.062l-0.643-0.37c-0.065-0.038-0.172-0.038-0.236,0
			L78.11,41.32l-0.056,0.001v0.072v0.005h0.001c0.002,0.022,0.017,0.046,0.048,0.063l0.655,0.378c0.065,0.038,0.172,0.038,0.236,0
			l0.651-0.378C79.679,41.443,79.694,41.417,79.694,41.393"/>
		<path clip-path="url(#SVGID_25_)" fill="#E7E7F0" d="M78.676,41.985v-0.076h-0.063l-0.641-0.37c-0.066-0.038-0.172-0.038-0.237,0
			l-0.643,0.374h-0.057v0.072v0.005c0.002,0.023,0.019,0.047,0.05,0.064l0.653,0.378c0.066,0.038,0.173,0.038,0.238,0l0.651-0.378
			C78.659,42.035,78.676,42.01,78.676,41.985"/>
		<path clip-path="url(#SVGID_25_)" fill="#E7E7F0" d="M76.611,43.184v-0.076H76.55l-0.643-0.37c-0.065-0.038-0.172-0.037-0.236,0
			l-0.644,0.374h-0.056v0.072v0.001v0.004h0.001c0.002,0.023,0.017,0.047,0.048,0.064l0.655,0.378c0.065,0.038,0.172,0.038,0.236,0
			l0.651-0.378C76.596,43.234,76.611,43.209,76.611,43.184"/>
		<path clip-path="url(#SVGID_25_)" fill="#E7E7F0" d="M77.666,43.648l-0.642-0.37c-0.066-0.038-0.171-0.038-0.236,0l-0.092,0.053
			l-0.552,0.32l-0.057,0.001v0.032l-0.035,0.021h-0.056v0.072v0.005h0.001c0.002,0.023,0.019,0.046,0.048,0.063l0.655,0.378
			c0.066,0.038,0.173,0.038,0.237,0.001l0.742-0.431c0.031-0.019,0.049-0.044,0.048-0.069v-0.076H77.666z"/>
		<path clip-path="url(#SVGID_25_)" fill="#E7E7F0" d="M79.768,42.54v-0.076h-0.063l-0.641-0.371c-0.066-0.037-0.172-0.037-0.237,0
			l-0.643,0.374h-0.057v0.073v0.005c0.002,0.022,0.019,0.046,0.05,0.063l0.653,0.378c0.066,0.038,0.173,0.038,0.238,0l0.651-0.378
			C79.751,42.59,79.768,42.563,79.768,42.54"/>
		<path clip-path="url(#SVGID_25_)" fill="#E7E7F0" d="M78.748,43.131v-0.076h-0.063l-0.642-0.37c-0.066-0.038-0.172-0.038-0.237,0
			l-0.643,0.374h-0.057v0.072v0.005h0.001c0.002,0.023,0.018,0.046,0.049,0.064l0.654,0.378c0.066,0.038,0.172,0.038,0.237,0
			L78.7,43.2C78.731,43.182,78.748,43.156,78.748,43.131"/>
		<path clip-path="url(#SVGID_25_)" fill="#E7E7F0" d="M88.961,38.401v-0.076h-0.062l-0.643-0.37c-0.065-0.038-0.172-0.038-0.236,0
			l-0.644,0.374h-0.056v0.072v0.005h0.001c0.002,0.023,0.017,0.046,0.048,0.063l0.655,0.378c0.064,0.038,0.172,0.038,0.236,0
			l0.651-0.378C88.945,38.451,88.961,38.425,88.961,38.401"/>
		<path clip-path="url(#SVGID_25_)" fill="#E7E7F0" d="M87.942,38.993v-0.076h-0.063l-0.641-0.37c-0.066-0.038-0.172-0.037-0.237,0
			l-0.643,0.374h-0.058v0.073v0.004h0.001c0.002,0.023,0.019,0.047,0.05,0.064l0.653,0.378c0.066,0.038,0.173,0.038,0.238,0
			l0.65-0.378C87.926,39.043,87.942,39.018,87.942,38.993"/>
		<path clip-path="url(#SVGID_25_)" fill="#E7E7F0" d="M86.923,39.585V39.51H86.86l-0.642-0.37c-0.066-0.038-0.172-0.038-0.237,0
			l-0.643,0.374h-0.057v0.072v0.005h0.001c0.002,0.023,0.018,0.046,0.049,0.063l0.653,0.378c0.066,0.038,0.173,0.038,0.238,0.001
			l0.651-0.379C86.906,39.636,86.923,39.609,86.923,39.585"/>
		<path clip-path="url(#SVGID_25_)" fill="#E7E7F0" d="M85.903,40.178v-0.077l-0.063,0.001l-0.642-0.371
			c-0.065-0.038-0.172-0.037-0.236,0l-0.644,0.374h-0.057v0.073v0.004h0.001c0.002,0.023,0.018,0.047,0.049,0.064l0.654,0.378
			c0.065,0.038,0.173,0.038,0.237,0l0.651-0.378C85.888,40.229,85.903,40.202,85.903,40.178"/>
		<path clip-path="url(#SVGID_25_)" fill="#E7E7F0" d="M84.884,40.77v-0.076h-0.062l-0.643-0.37c-0.065-0.038-0.172-0.038-0.236,0
			L83.3,40.698h-0.056v0.072v0.005c0.003,0.023,0.018,0.046,0.049,0.064l0.655,0.377c0.064,0.038,0.172,0.038,0.236,0.001
			l0.651-0.378C84.868,40.82,84.884,40.795,84.884,40.77"/>
		<path clip-path="url(#SVGID_25_)" fill="#E7E7F0" d="M83.865,41.363v-0.076h-0.063l-0.641-0.37c-0.066-0.038-0.172-0.038-0.237,0
			l-0.643,0.373l-0.057,0.001v0.072v0.005c0.002,0.022,0.019,0.046,0.05,0.063l0.653,0.378c0.066,0.038,0.173,0.038,0.238,0
			l0.651-0.378C83.849,41.413,83.865,41.387,83.865,41.363"/>
		<path clip-path="url(#SVGID_25_)" fill="#E7E7F0" d="M82.846,41.955v-0.076h-0.063l-0.642-0.37c-0.066-0.038-0.172-0.038-0.237,0
			l-0.643,0.374h-0.057v0.072v0.005h0.001c0.002,0.023,0.018,0.046,0.048,0.064l0.655,0.378c0.065,0.037,0.172,0.037,0.237,0
			l0.651-0.378C82.829,42.004,82.846,41.979,82.846,41.955"/>
		<path clip-path="url(#SVGID_25_)" fill="#E7E7F0" d="M81.826,42.547v-0.076h-0.063l-0.642-0.37c-0.065-0.038-0.172-0.038-0.236,0
			l-0.644,0.374h-0.057v0.072v0.005h0.001c0.002,0.022,0.018,0.046,0.049,0.063l0.654,0.378c0.065,0.038,0.173,0.038,0.237,0
			l0.65-0.378C81.811,42.598,81.826,42.571,81.826,42.547"/>
		<path clip-path="url(#SVGID_25_)" fill="#E7E7F0" d="M80.807,43.139v-0.076h-0.062l-0.643-0.37c-0.065-0.038-0.172-0.038-0.236,0
			l-0.644,0.374h-0.056v0.072v0.005h0.001c0.002,0.023,0.017,0.047,0.048,0.064l0.655,0.378c0.065,0.038,0.172,0.038,0.236,0
			l0.651-0.378C80.791,43.189,80.807,43.164,80.807,43.139"/>
		<path clip-path="url(#SVGID_25_)" fill="#E7E7F0" d="M89.491,39.297V39.22l-0.063,0.001l-0.642-0.371
			c-0.066-0.038-0.172-0.037-0.237,0l-0.643,0.374h-0.057v0.073v0.004c0.002,0.023,0.019,0.047,0.05,0.064l0.653,0.378
			c0.066,0.038,0.173,0.038,0.238,0l0.651-0.378C89.475,39.348,89.491,39.321,89.491,39.297"/>
		<path clip-path="url(#SVGID_25_)" fill="#E7E7F0" d="M88.472,39.889v-0.076h-0.063l-0.642-0.37c-0.066-0.038-0.171-0.038-0.237,0
			l-0.643,0.374h-0.057v0.072v0.005h0.001c0.002,0.023,0.018,0.046,0.049,0.064l0.654,0.378c0.066,0.037,0.172,0.037,0.237,0
			l0.651-0.378C88.455,39.939,88.472,39.914,88.472,39.889"/>
		<path clip-path="url(#SVGID_25_)" fill="#E7E7F0" d="M87.452,40.482v-0.076H87.39l-0.642-0.371c-0.065-0.037-0.172-0.037-0.236,0
			l-0.644,0.374l-0.056,0.001v0.072v0.005c0.002,0.022,0.018,0.046,0.049,0.063l0.654,0.378c0.065,0.038,0.173,0.038,0.237,0
			l0.651-0.378C87.437,40.532,87.452,40.506,87.452,40.482"/>
		<path clip-path="url(#SVGID_25_)" fill="#E7E7F0" d="M86.433,41.074v-0.076h-0.062l-0.643-0.37c-0.065-0.038-0.172-0.038-0.236,0
			l-0.644,0.374h-0.056v0.072v0.005h0.001c0.002,0.023,0.017,0.047,0.048,0.064l0.655,0.378c0.065,0.038,0.172,0.038,0.236,0
			l0.651-0.378C86.417,41.124,86.433,41.099,86.433,41.074"/>
		<path clip-path="url(#SVGID_25_)" fill="#E7E7F0" d="M85.414,41.667v-0.076h-0.063l-0.641-0.37c-0.066-0.038-0.172-0.038-0.237,0
			l-0.643,0.373l-0.057,0.001v0.072v0.005c0.002,0.023,0.019,0.046,0.05,0.063l0.653,0.378c0.066,0.038,0.173,0.038,0.238,0
			l0.651-0.378C85.397,41.717,85.414,41.69,85.414,41.667"/>
		<path clip-path="url(#SVGID_25_)" fill="#E7E7F0" d="M84.395,42.258v-0.076h-0.063l-0.642-0.37c-0.066-0.038-0.172-0.037-0.237,0
			l-0.643,0.374h-0.057v0.072v0.001v0.004h0.001c0.002,0.023,0.018,0.047,0.05,0.064l0.653,0.378c0.066,0.038,0.172,0.038,0.237,0
			l0.651-0.378C84.378,42.309,84.395,42.283,84.395,42.258"/>
		<path clip-path="url(#SVGID_25_)" fill="#E7E7F0" d="M83.375,42.851v-0.076h-0.062l-0.643-0.37c-0.065-0.038-0.172-0.038-0.236,0
			l-0.644,0.374h-0.056v0.072v0.005c0.002,0.023,0.018,0.046,0.049,0.063l0.654,0.378c0.065,0.038,0.173,0.038,0.237,0.001
			l0.651-0.379C83.359,42.901,83.375,42.875,83.375,42.851"/>
		<path clip-path="url(#SVGID_25_)" fill="#E7E7F0" d="M82.355,43.443v-0.076l-0.062,0.001l-0.643-0.371
			c-0.065-0.038-0.171-0.037-0.236,0l-0.644,0.374h-0.056v0.073v0.004h0.001c0.002,0.023,0.017,0.047,0.048,0.064l0.655,0.378
			c0.065,0.038,0.172,0.038,0.236,0l0.651-0.378C82.34,43.494,82.355,43.468,82.355,43.443"/>
		<path clip-path="url(#SVGID_25_)" fill="#E7E7F0" d="M81.337,44.036V43.96h-0.063l-0.641-0.37c-0.066-0.038-0.172-0.038-0.237,0
			l-0.643,0.374h-0.057v0.072v0.005c0.003,0.023,0.019,0.046,0.05,0.064l0.653,0.377c0.066,0.038,0.173,0.038,0.238,0.001
			l0.651-0.378C81.32,44.086,81.337,44.061,81.337,44.036"/>
		<path clip-path="url(#SVGID_25_)" fill="#E7E7F0" d="M92.112,38.962v-0.076H92.05l-0.642-0.37c-0.066-0.038-0.172-0.038-0.237,0
			l-0.643,0.374h-0.057v0.072v0.005c0.003,0.023,0.019,0.046,0.05,0.063l0.653,0.378c0.066,0.038,0.173,0.038,0.238,0l0.651-0.378
			C92.096,39.013,92.112,38.986,92.112,38.962"/>
		<path clip-path="url(#SVGID_25_)" fill="#E7E7F0" d="M91.093,39.554v-0.076H91.03l-0.642-0.37c-0.066-0.038-0.171-0.037-0.237,0
			l-0.643,0.374h-0.057v0.072v0.001v0.004h0.001c0.002,0.023,0.018,0.047,0.05,0.064l0.653,0.378c0.066,0.038,0.172,0.038,0.237,0
			l0.651-0.378C91.076,39.604,91.093,39.579,91.093,39.554"/>
		<path clip-path="url(#SVGID_25_)" fill="#E7E7F0" d="M90.073,40.147v-0.076h-0.062l-0.643-0.37c-0.065-0.038-0.172-0.038-0.236,0
			l-0.644,0.374h-0.056v0.072v0.005c0.003,0.023,0.018,0.046,0.049,0.063l0.655,0.378c0.064,0.038,0.172,0.038,0.236,0.001
			l0.651-0.379C90.058,40.197,90.073,40.171,90.073,40.147"/>
		<path clip-path="url(#SVGID_25_)" fill="#E7E7F0" d="M89.055,40.739v-0.076l-0.063,0.001l-0.641-0.371
			c-0.066-0.038-0.172-0.037-0.237,0l-0.643,0.374h-0.058v0.073v0.004h0.001c0.002,0.023,0.019,0.047,0.05,0.064l0.653,0.378
			c0.066,0.038,0.173,0.038,0.238,0l0.65-0.378C89.038,40.79,89.055,40.764,89.055,40.739"/>
		<path clip-path="url(#SVGID_25_)" fill="#E7E7F0" d="M88.035,41.332v-0.076h-0.063l-0.642-0.37c-0.066-0.038-0.172-0.038-0.237,0
			l-0.643,0.374h-0.057v0.072v0.005h0.001c0.002,0.023,0.018,0.046,0.049,0.064l0.653,0.377c0.066,0.038,0.173,0.038,0.238,0.001
			l0.651-0.378C88.019,41.382,88.035,41.356,88.035,41.332"/>
		<path clip-path="url(#SVGID_25_)" fill="#E7E7F0" d="M87.016,41.924v-0.077l-0.063,0.001l-0.642-0.371
			c-0.065-0.038-0.172-0.037-0.236,0l-0.644,0.374h-0.057v0.073v0.005h0.001c0.002,0.022,0.018,0.046,0.049,0.063l0.654,0.378
			c0.065,0.038,0.173,0.038,0.237,0l0.65-0.378C87,41.975,87.016,41.948,87.016,41.924"/>
		<path clip-path="url(#SVGID_25_)" fill="#E7E7F0" d="M85.996,42.516V42.44h-0.062l-0.643-0.37c-0.065-0.038-0.172-0.038-0.236,0
			l-0.644,0.374h-0.056v0.072v0.005c0.003,0.023,0.018,0.046,0.049,0.064l0.654,0.378c0.065,0.037,0.173,0.037,0.237,0l0.651-0.378
			C85.98,42.566,85.996,42.541,85.996,42.516"/>
		<path clip-path="url(#SVGID_25_)" fill="#E7E7F0" d="M84.978,43.109v-0.076h-0.063l-0.641-0.37c-0.066-0.038-0.172-0.038-0.237,0
			l-0.643,0.373l-0.057,0.001v0.072v0.005c0.002,0.022,0.019,0.046,0.05,0.063l0.653,0.378c0.066,0.038,0.173,0.038,0.238,0
			l0.651-0.378C84.961,43.159,84.978,43.133,84.978,43.109"/>
		<path clip-path="url(#SVGID_25_)" fill="#E7E7F0" d="M83.958,43.701v-0.076h-0.063l-0.642-0.37c-0.066-0.038-0.172-0.038-0.237,0
			l-0.643,0.374h-0.057v0.072v0.005h0.001c0.002,0.023,0.018,0.046,0.049,0.064l0.654,0.378c0.066,0.038,0.172,0.038,0.237,0
			l0.651-0.378C83.941,43.751,83.958,43.726,83.958,43.701"/>
		<path clip-path="url(#SVGID_25_)" fill="#E7E7F0" d="M82.938,44.293v-0.076h-0.063l-0.642-0.37c-0.065-0.038-0.172-0.038-0.236,0
			l-0.644,0.374h-0.057v0.072v0.005h0.001c0.002,0.023,0.018,0.046,0.049,0.063l0.654,0.378c0.065,0.038,0.173,0.038,0.237,0.001
			l0.651-0.379C82.923,44.344,82.938,44.317,82.938,44.293"/>
		<path clip-path="url(#SVGID_25_)" fill="#E7E7F0" d="M81.919,44.885V44.81h-0.062l-0.643-0.37c-0.065-0.038-0.172-0.037-0.236,0
			l-0.644,0.374h-0.056v0.073v0.004h0.001c0.002,0.023,0.017,0.047,0.048,0.064l0.655,0.378c0.064,0.038,0.172,0.038,0.236,0
			l0.651-0.378C81.903,44.937,81.919,44.91,81.919,44.885"/>
		<path clip-path="url(#SVGID_25_)" fill="#E7E7F0" d="M80.9,45.397l-0.064,0.004l-0.64-0.37c-0.066-0.037-0.172-0.037-0.237,0.001
			l-0.792,0.46l-0.064,0.004l0.001,0.069v0.01v0.004h0.001c0.003,0.021,0.018,0.043,0.047,0.059l0.654,0.378
			c0.066,0.038,0.173,0.038,0.238,0l0.808-0.47c0.033-0.019,0.05-0.045,0.049-0.071V45.397z"/>
		<path clip-path="url(#SVGID_25_)" fill="#E7E7F0" d="M85.942,37.759v-0.073h-0.062l-0.643-0.371
			c-0.049-0.029-0.121-0.035-0.182-0.021c-0.021,0.005-0.039,0.012-0.055,0.022l-0.644,0.373l-0.057,0.001v0.032l-4.528,2.632
			l-0.644,0.374h-0.057V40.8v0.005h0.001c0,0.001,0,0.002,0,0.003c0.001,0.005,0.002,0.01,0.004,0.014
			c0,0.001,0.002,0.002,0.003,0.003c0.002,0.005,0.004,0.009,0.007,0.013c0.002,0.003,0.004,0.005,0.006,0.008
			c0.003,0.003,0.006,0.006,0.009,0.009c0.006,0.005,0.012,0.009,0.021,0.013v0.001l0.654,0.378
			c0.018,0.009,0.036,0.017,0.057,0.022c0.02,0.004,0.042,0.007,0.063,0.007c0.043,0,0.086-0.01,0.118-0.029l0.651-0.378
			l5.228-3.039C85.928,37.812,85.943,37.785,85.942,37.759"/>
		<path clip-path="url(#SVGID_25_)" fill="#E7E7F0" d="M93.521,38.779v-0.002v-0.072l-0.042,0.01
			c-0.003-0.001-0.005-0.003-0.008-0.005l-0.176-0.102c-0.066-0.038-0.172-0.038-0.237-0.001l-0.602,0.351l-0.098,0.022v0.078
			c0.002,0.024,0.019,0.047,0.051,0.065l0.176,0.101c0.065,0.038,0.172,0.038,0.236,0.001l0.65-0.378
			C93.505,38.829,93.521,38.804,93.521,38.779L93.521,38.779z"/>
		<path clip-path="url(#SVGID_25_)" fill="#E7E7F0" d="M92.502,39.372V39.37v-0.072l-0.042,0.01
			c-0.002-0.002-0.005-0.004-0.008-0.006L92.276,39.2c-0.066-0.038-0.171-0.038-0.237,0l-0.602,0.35l-0.098,0.023l0.001,0.077
			c0.002,0.024,0.019,0.047,0.05,0.066l0.176,0.101c0.065,0.038,0.172,0.038,0.236,0l0.651-0.378
			C92.485,39.42,92.502,39.396,92.502,39.372L92.502,39.372z"/>
		<path clip-path="url(#SVGID_25_)" fill="#E7E7F0" d="M91.483,39.963v-0.002V39.89l-0.042,0.01
			c-0.003-0.001-0.005-0.003-0.009-0.005l-0.176-0.102c-0.065-0.038-0.172-0.038-0.236,0l-0.603,0.35l-0.097,0.022v0.078
			c0.002,0.024,0.018,0.047,0.05,0.065l0.176,0.101c0.066,0.038,0.172,0.039,0.237,0.001l0.65-0.378
			C91.466,40.014,91.482,39.988,91.483,39.963L91.483,39.963z"/>
		<path clip-path="url(#SVGID_25_)" fill="#E7E7F0" d="M90.464,40.556L90.464,40.556v-0.074l-0.042,0.01
			c-0.002-0.002-0.005-0.004-0.008-0.005l-0.177-0.103c-0.065-0.038-0.171-0.038-0.236,0l-0.603,0.35l-0.097,0.023l0.001,0.077
			c0.002,0.024,0.018,0.047,0.049,0.066l0.176,0.101c0.066,0.038,0.172,0.038,0.237,0l0.651-0.378
			C90.446,40.605,90.464,40.58,90.464,40.556L90.464,40.556z"/>
		<path clip-path="url(#SVGID_25_)" fill="#E7E7F0" d="M89.444,41.149v-0.003v-0.072l-0.042,0.011
			c-0.003-0.002-0.005-0.004-0.008-0.006l-0.176-0.102c-0.066-0.038-0.172-0.038-0.237,0l-0.602,0.35l-0.098,0.022l0.001,0.078
			c0.001,0.024,0.018,0.047,0.05,0.065l0.176,0.101c0.065,0.038,0.172,0.039,0.236,0.001l0.651-0.378
			C89.428,41.198,89.443,41.173,89.444,41.149z"/>
		<path clip-path="url(#SVGID_25_)" fill="#E7E7F0" d="M88.425,41.741v-0.002v-0.072l-0.042,0.01
			c-0.002-0.002-0.004-0.004-0.007-0.005l-0.177-0.102c-0.066-0.038-0.171-0.039-0.237-0.001l-0.602,0.35l-0.098,0.023l0.001,0.077
			c0.002,0.024,0.019,0.047,0.05,0.066l0.176,0.101c0.065,0.038,0.172,0.038,0.236,0l0.651-0.378
			C88.408,41.79,88.425,41.766,88.425,41.741L88.425,41.741z"/>
		<path clip-path="url(#SVGID_25_)" fill="#E7E7F0" d="M87.406,42.333v-0.002v-0.073l-0.042,0.011
			c-0.003-0.002-0.005-0.004-0.008-0.006l-0.177-0.102c-0.065-0.038-0.172-0.038-0.236,0l-0.603,0.35l-0.097,0.022v0.078
			c0.002,0.024,0.018,0.047,0.05,0.065l0.176,0.102c0.066,0.038,0.172,0.038,0.237,0l0.651-0.378
			C87.389,42.382,87.405,42.357,87.406,42.333"/>
		<path clip-path="url(#SVGID_25_)" fill="#E7E7F0" d="M86.387,42.925v-0.002v-0.072l-0.042,0.01
			c-0.002-0.002-0.005-0.004-0.007-0.005l-0.178-0.102c-0.065-0.038-0.171-0.039-0.236-0.001l-0.603,0.35l-0.097,0.023l0.001,0.077
			c0.002,0.025,0.018,0.047,0.049,0.066l0.176,0.101c0.066,0.038,0.172,0.038,0.238,0l0.65-0.378
			C86.37,42.974,86.387,42.95,86.387,42.925L86.387,42.925z"/>
		<path clip-path="url(#SVGID_25_)" fill="#E7E7F0" d="M85.367,43.518v-0.002v-0.072l-0.042,0.01
			c-0.003-0.002-0.005-0.004-0.008-0.006l-0.176-0.102c-0.066-0.038-0.172-0.038-0.237,0l-0.602,0.35l-0.098,0.022l0.001,0.078
			c0.001,0.024,0.018,0.047,0.05,0.066l0.176,0.101c0.065,0.038,0.172,0.038,0.236,0l0.651-0.378
			C85.351,43.567,85.367,43.542,85.367,43.518"/>
		<path clip-path="url(#SVGID_25_)" fill="#E7E7F0" d="M84.348,44.11v-0.002v-0.072l-0.042,0.01
			c-0.002-0.001-0.004-0.003-0.007-0.005l-0.177-0.102c-0.066-0.038-0.171-0.038-0.237-0.001l-0.601,0.351l-0.099,0.022l0.001,0.077
			c0.002,0.025,0.019,0.048,0.05,0.066l0.176,0.101c0.065,0.038,0.172,0.038,0.237,0l0.65-0.377
			C84.331,44.16,84.348,44.135,84.348,44.11L84.348,44.11z"/>
		<path clip-path="url(#SVGID_25_)" fill="#E7E7F0" d="M83.329,44.703v-0.002v-0.072l-0.042,0.01
			c-0.003-0.002-0.005-0.004-0.009-0.006l-0.176-0.102c-0.065-0.038-0.172-0.038-0.236,0l-0.603,0.35l-0.097,0.023l0.001,0.077
			c0.001,0.024,0.017,0.047,0.049,0.066l0.176,0.101c0.066,0.038,0.172,0.038,0.237,0l0.651-0.378
			C83.312,44.752,83.329,44.727,83.329,44.703L83.329,44.703z"/>
		<path clip-path="url(#SVGID_25_)" fill="#E7E7F0" d="M82.31,45.295v-0.003v-0.072l-0.042,0.01
			c-0.002-0.001-0.004-0.003-0.007-0.005l-0.178-0.102c-0.065-0.038-0.171-0.038-0.236,0l-0.603,0.35l-0.097,0.022l0.001,0.078
			c0.002,0.024,0.018,0.047,0.049,0.065l0.176,0.101c0.066,0.038,0.172,0.039,0.238,0.001l0.65-0.378
			C82.293,45.345,82.31,45.319,82.31,45.295"/>
		<path clip-path="url(#SVGID_25_)" fill="#E7E7F0" d="M81.29,45.887v-0.002v-0.072l-0.042,0.01
			c-0.003-0.002-0.005-0.004-0.008-0.005l-0.176-0.103c-0.066-0.038-0.172-0.038-0.237,0l-0.602,0.35l-0.098,0.023l0.001,0.077
			c0.001,0.024,0.018,0.047,0.05,0.066l0.176,0.101c0.065,0.038,0.172,0.038,0.236,0l0.651-0.378
			C81.273,45.937,81.29,45.912,81.29,45.887L81.29,45.887z"/>
		<path clip-path="url(#SVGID_25_)" fill="#E7E7F0" d="M93.117,37.108l-0.046,0.007c-0.001,0-0.002-0.001-0.002-0.001l-0.656-0.379
			c-0.065-0.038-0.172-0.038-0.236,0l-1.208,0.702l-0.067,0.011v0.067v0.001v0.004l0.001-0.001c0.001,0.025,0.017,0.048,0.048,0.066
			l0.655,0.377c0.066,0.039,0.172,0.039,0.237,0l1.227-0.711c0.032-0.02,0.048-0.044,0.048-0.07V37.108z"/>
		<path clip-path="url(#SVGID_25_)" fill="#E7E7F0" d="M92.085,36.509l-0.045,0.011c-0.002-0.001-0.003-0.002-0.005-0.004
			l-0.654-0.377c-0.065-0.038-0.172-0.038-0.236-0.001l-1.698,0.987l-0.087,0.02v0.072c0.001,0.024,0.018,0.049,0.05,0.067
			l0.654,0.378c0.065,0.038,0.172,0.038,0.236,0l1.736-1.008c0.033-0.02,0.049-0.044,0.049-0.07V36.509z"/>
		<path clip-path="url(#SVGID_25_)" fill="#E7E7F0" d="M91.046,35.909l-0.045,0.011c-0.002-0.001-0.003-0.002-0.006-0.003
			l-0.653-0.378c-0.066-0.038-0.172-0.038-0.237,0l-1.698,0.986l-0.087,0.021v0.072c0.001,0.024,0.019,0.048,0.05,0.066l0.654,0.378
			c0.066,0.038,0.172,0.038,0.237,0l1.736-1.008c0.032-0.019,0.049-0.044,0.049-0.069V35.909z"/>
		<path clip-path="url(#SVGID_25_)" fill="#E7E7F0" d="M80.311,44.549l-0.047,0.008l-0.001-0.001l-0.656-0.379
			c-0.065-0.038-0.171-0.037-0.237,0.001l-1.229,0.714l-0.07,0.011v0.069v0.002v0.003h0.001c0.002,0.023,0.018,0.047,0.049,0.064
			l0.654,0.379c0.065,0.037,0.172,0.037,0.237,0l1.251-0.727c0.032-0.019,0.049-0.044,0.049-0.07V44.549z"/>
		<path clip-path="url(#SVGID_25_)" fill="#E7E7F0" d="M79.738,43.663l-0.654-0.377c-0.066-0.038-0.173-0.038-0.238,0l-1.76,1.023
			c-0.066,0.038-0.064,0.099,0.001,0.137l0.654,0.378c0.065,0.038,0.172,0.038,0.236,0l1.761-1.023
			C79.804,43.763,79.804,43.701,79.738,43.663"/>
		<path clip-path="url(#SVGID_25_)" fill="#E7E7F0" d="M77.656,42.579L77.656,42.579v-0.074l-0.042,0.01
			c-0.002-0.001-0.005-0.003-0.008-0.005l-0.177-0.102c-0.065-0.038-0.171-0.038-0.236,0l-0.603,0.35l-0.097,0.022l0.001,0.078
			c0.002,0.024,0.018,0.047,0.049,0.065l0.176,0.101c0.066,0.038,0.172,0.039,0.237,0.001l0.651-0.378
			C77.639,42.629,77.656,42.604,77.656,42.579L77.656,42.579z"/>
		<path clip-path="url(#SVGID_25_)" fill="#E7E7F0" d="M77.178,42.303V42.3v-0.072l-0.042,0.011
			c-0.003-0.002-0.005-0.004-0.008-0.006l-0.176-0.102c-0.066-0.038-0.172-0.038-0.237,0l-0.602,0.35l-0.098,0.022v0.078
			c0.002,0.024,0.019,0.047,0.051,0.065l0.176,0.102c0.065,0.038,0.172,0.038,0.236,0l0.65-0.378
			C77.161,42.353,77.177,42.327,77.178,42.303z"/>
		<path clip-path="url(#SVGID_25_)" fill="#E7E7F0" d="M94.698,38.091L94.698,38.091v-0.078l-0.047,0.014l-0.002-0.001l-0.177-0.103
			c-0.065-0.038-0.172-0.038-0.236,0l-0.75,0.436l-0.107,0.03v0.081l0.001-0.001c0.004,0.022,0.02,0.044,0.048,0.061l0.178,0.102
			c0.065,0.038,0.172,0.038,0.236,0l0.809-0.47C94.684,38.144,94.7,38.116,94.698,38.091"/>
		<path clip-path="url(#SVGID_25_)" fill="#F4F5FA" d="M92.56,37.784l0.655,0.378c0.066,0.038,0.172,0.038,0.237,0l0.649-0.378
			c0.065-0.037,0.065-0.099,0-0.137l-0.654-0.378c-0.066-0.038-0.173-0.038-0.238,0l-0.65,0.378
			C92.494,37.684,92.494,37.747,92.56,37.784"/>
		<path clip-path="url(#SVGID_25_)" fill="#F4F5FA" d="M91.541,38.376l0.653,0.378c0.066,0.038,0.173,0.038,0.237,0l0.651-0.378
			c0.064-0.038,0.064-0.1-0.001-0.138l-0.654-0.378c-0.066-0.037-0.173-0.037-0.238,0l-0.649,0.378
			C91.475,38.276,91.475,38.338,91.541,38.376"/>
		<path clip-path="url(#SVGID_25_)" fill="#F4F5FA" d="M90.521,38.969l0.654,0.378c0.066,0.037,0.173,0.037,0.237,0l0.65-0.379
			c0.064-0.037,0.064-0.099,0-0.137l-0.655-0.378c-0.066-0.038-0.173-0.038-0.238,0l-0.649,0.378
			C90.455,38.869,90.456,38.931,90.521,38.969"/>
		<path clip-path="url(#SVGID_25_)" fill="#F4F5FA" d="M89.502,39.561l0.654,0.378c0.066,0.038,0.172,0.038,0.238,0l0.649-0.378
			c0.065-0.038,0.065-0.1-0.001-0.138l-0.653-0.377c-0.066-0.038-0.174-0.038-0.238-0.001l-0.65,0.378
			C89.437,39.461,89.437,39.523,89.502,39.561"/>
		<path clip-path="url(#SVGID_25_)" fill="#F4F5FA" d="M88.483,40.154l0.653,0.378c0.066,0.038,0.173,0.037,0.238-0.001l0.65-0.378
			c0.063-0.037,0.063-0.099-0.001-0.137l-0.655-0.378c-0.065-0.038-0.172-0.038-0.237,0l-0.649,0.378
			C88.417,40.054,88.417,40.116,88.483,40.154"/>
		<path clip-path="url(#SVGID_25_)" fill="#F4F5FA" d="M87.464,40.746l0.653,0.378c0.066,0.038,0.173,0.038,0.238,0l0.65-0.378
			c0.064-0.038,0.064-0.1-0.001-0.137l-0.654-0.378c-0.066-0.038-0.172-0.039-0.238-0.001l-0.649,0.378
			C87.397,40.646,87.397,40.708,87.464,40.746"/>
		<path clip-path="url(#SVGID_25_)" fill="#F4F5FA" d="M86.444,41.338l0.654,0.378c0.066,0.038,0.173,0.037,0.237,0l0.65-0.378
			c0.064-0.038,0.064-0.1,0-0.138l-0.655-0.378c-0.066-0.038-0.172-0.038-0.238,0L86.444,41.2
			C86.378,41.238,86.379,41.3,86.444,41.338"/>
		<path clip-path="url(#SVGID_25_)" fill="#F4F5FA" d="M85.426,41.93l0.653,0.378c0.066,0.038,0.173,0.038,0.237,0l0.651-0.378
			c0.064-0.038,0.063-0.099-0.001-0.137l-0.655-0.378c-0.066-0.038-0.172-0.038-0.237,0l-0.649,0.377
			C85.358,41.83,85.359,41.892,85.426,41.93"/>
		<path clip-path="url(#SVGID_25_)" fill="#F4F5FA" d="M84.406,42.523l0.654,0.378c0.066,0.038,0.172,0.038,0.237,0l0.65-0.378
			c0.064-0.038,0.064-0.1-0.001-0.138l-0.655-0.378c-0.065-0.038-0.171-0.038-0.237,0l-0.649,0.378
			C84.34,42.423,84.34,42.485,84.406,42.523"/>
		<path clip-path="url(#SVGID_25_)" fill="#F4F5FA" d="M83.387,43.115l0.654,0.378c0.065,0.038,0.172,0.038,0.237,0l0.65-0.378
			c0.065-0.038,0.064-0.099-0.001-0.137L84.272,42.6c-0.065-0.038-0.172-0.038-0.236,0l-0.65,0.378
			C83.321,43.015,83.321,43.077,83.387,43.115"/>
		<path clip-path="url(#SVGID_25_)" fill="#F4F5FA" d="M82.367,43.708l0.655,0.378c0.066,0.038,0.171,0.038,0.237,0l0.649-0.378
			c0.065-0.038,0.065-0.1-0.001-0.138l-0.654-0.378c-0.065-0.038-0.173-0.038-0.237,0l-0.65,0.378
			C82.302,43.607,82.303,43.669,82.367,43.708"/>
		<path clip-path="url(#SVGID_25_)" fill="#F4F5FA" d="M88.92,38.711l0.653,0.378c0.066,0.038,0.173,0.037,0.237,0l0.651-0.378
			c0.064-0.038,0.064-0.1-0.001-0.138l-0.654-0.378c-0.066-0.038-0.173-0.038-0.238,0l-0.649,0.378
			C88.854,38.611,88.854,38.673,88.92,38.711"/>
		<path clip-path="url(#SVGID_25_)" fill="#F4F5FA" d="M87.9,39.303l0.654,0.378c0.065,0.038,0.172,0.038,0.237,0l0.65-0.378
			c0.064-0.038,0.064-0.099,0-0.137l-0.655-0.378c-0.066-0.038-0.173-0.038-0.238-0.001l-0.649,0.379
			C87.834,39.203,87.834,39.265,87.9,39.303"/>
		<path clip-path="url(#SVGID_25_)" fill="#F4F5FA" d="M86.881,39.896l0.654,0.378c0.066,0.038,0.172,0.038,0.238,0l0.649-0.378
			c0.065-0.038,0.065-0.1-0.001-0.138l-0.653-0.378c-0.066-0.038-0.174-0.038-0.238,0l-0.65,0.378
			C86.815,39.796,86.815,39.858,86.881,39.896"/>
		<path clip-path="url(#SVGID_25_)" fill="#F4F5FA" d="M85.861,40.488l0.655,0.378c0.065,0.038,0.172,0.038,0.237,0l0.649-0.378
			c0.065-0.037,0.065-0.099-0.001-0.137l-0.653-0.378c-0.066-0.038-0.174-0.038-0.238,0l-0.649,0.377
			C85.796,40.388,85.796,40.451,85.861,40.488"/>
		<path clip-path="url(#SVGID_25_)" fill="#F4F5FA" d="M84.843,41.081l0.653,0.378c0.066,0.038,0.173,0.038,0.238,0l0.65-0.378
			c0.064-0.038,0.064-0.1-0.001-0.138l-0.654-0.378c-0.066-0.037-0.172-0.038-0.238,0l-0.649,0.378
			C84.776,40.98,84.776,41.042,84.843,41.081"/>
		<path clip-path="url(#SVGID_25_)" fill="#F4F5FA" d="M83.823,41.673l0.654,0.377c0.065,0.038,0.173,0.038,0.237,0l0.65-0.378
			c0.064-0.038,0.064-0.099,0-0.137l-0.655-0.378c-0.066-0.038-0.172-0.038-0.238,0l-0.648,0.378
			C83.757,41.573,83.758,41.635,83.823,41.673"/>
		<path clip-path="url(#SVGID_25_)" fill="#F4F5FA" d="M82.805,42.265l0.653,0.378c0.066,0.038,0.173,0.038,0.237,0l0.651-0.378
			c0.064-0.038,0.063-0.1-0.001-0.138L83.69,41.75c-0.066-0.038-0.172-0.039-0.237-0.001l-0.649,0.378
			C82.737,42.165,82.738,42.227,82.805,42.265"/>
		<path clip-path="url(#SVGID_25_)" fill="#F4F5FA" d="M81.785,42.857l0.654,0.378c0.065,0.038,0.172,0.038,0.237,0l0.65-0.378
			c0.064-0.037,0.063-0.099-0.001-0.137l-0.655-0.378c-0.066-0.038-0.172-0.038-0.237,0l-0.649,0.378
			C81.719,42.758,81.719,42.82,81.785,42.857"/>
		<path clip-path="url(#SVGID_25_)" fill="#F4F5FA" d="M80.766,43.45l0.654,0.378c0.066,0.038,0.172,0.038,0.237,0l0.65-0.378
			c0.065-0.038,0.064-0.1-0.001-0.137l-0.654-0.378c-0.066-0.038-0.173-0.039-0.237-0.001l-0.65,0.378
			C80.699,43.35,80.7,43.412,80.766,43.45"/>
		<path clip-path="url(#SVGID_25_)" fill="#F4F5FA" d="M79.746,44.042l0.655,0.377c0.064,0.038,0.171,0.038,0.237,0l0.649-0.377
			c0.065-0.038,0.064-0.1-0.001-0.138l-0.655-0.378c-0.065-0.038-0.172-0.038-0.236,0l-0.65,0.378
			C79.681,43.942,79.681,44.004,79.746,44.042"/>
		<path clip-path="url(#SVGID_25_)" fill="#F4F5FA" d="M81.349,44.299l0.653,0.378c0.066,0.038,0.173,0.038,0.237,0l0.651-0.378
			c0.064-0.038,0.064-0.099-0.001-0.137l-0.654-0.378c-0.066-0.038-0.173-0.038-0.238,0l-0.649,0.378
			C81.281,44.2,81.282,44.261,81.349,44.299"/>
		<path clip-path="url(#SVGID_25_)" fill="#F4F5FA" d="M80.329,44.892l0.654,0.378c0.065,0.038,0.172,0.038,0.237,0l0.649-0.378
			c0.065-0.038,0.065-0.1,0-0.138l-0.654-0.378c-0.065-0.038-0.173-0.038-0.238,0l-0.649,0.378
			C80.264,44.792,80.264,44.854,80.329,44.892"/>
		<path clip-path="url(#SVGID_25_)" fill="#F4F5FA" d="M88.429,35.399l0.655,0.378c0.064,0.038,0.171,0.038,0.237,0l0.649-0.378
			c0.065-0.038,0.064-0.1,0-0.137l-0.655-0.378c-0.065-0.038-0.173-0.038-0.237-0.001l-0.65,0.379
			C88.363,35.299,88.363,35.361,88.429,35.399"/>
		<path clip-path="url(#SVGID_25_)" fill="#F4F5FA" d="M87.41,35.992l0.653,0.378c0.066,0.037,0.173,0.037,0.237,0l0.651-0.378
			c0.064-0.038,0.063-0.1-0.001-0.138l-0.654-0.378c-0.066-0.038-0.173-0.038-0.238,0l-0.649,0.378
			C87.344,35.892,87.344,35.954,87.41,35.992"/>
		<path clip-path="url(#SVGID_25_)" fill="#F4F5FA" d="M86.391,36.583l0.654,0.378c0.065,0.038,0.173,0.038,0.237,0l0.65-0.378
			c0.064-0.038,0.063-0.1-0.001-0.137l-0.654-0.378c-0.066-0.038-0.173-0.038-0.238-0.001l-0.649,0.379
			C86.324,36.483,86.324,36.545,86.391,36.583"/>
		<path clip-path="url(#SVGID_25_)" fill="#F4F5FA" d="M85.371,37.176l0.654,0.378c0.065,0.038,0.172,0.038,0.238,0l0.649-0.378
			c0.065-0.038,0.064-0.1-0.001-0.138l-0.654-0.378c-0.065-0.038-0.173-0.038-0.237,0l-0.65,0.378
			C85.306,37.076,85.306,37.138,85.371,37.176"/>
		<path clip-path="url(#SVGID_25_)" fill="#F4F5FA" d="M89.938,38.119l0.655,0.378c0.064,0.038,0.171,0.038,0.237,0l0.649-0.378
			c0.065-0.038,0.065-0.1-0.001-0.137l-0.653-0.378c-0.066-0.038-0.174-0.038-0.238-0.001l-0.65,0.379
			C89.873,38.019,89.873,38.081,89.938,38.119"/>
		<path clip-path="url(#SVGID_25_)" fill="#F4F5FA" d="M79.152,45.576l0.653,0.378c0.066,0.038,0.173,0.038,0.238,0l0.808-0.47
			c0.065-0.037,0.065-0.098,0-0.137l-0.655-0.377c-0.065-0.039-0.172-0.039-0.237,0l-0.808,0.468
			C79.086,45.476,79.086,45.538,79.152,45.576"/>
		<path clip-path="url(#SVGID_25_)" fill="#F4F5FA" d="M79.123,40.807l0.654,0.378c0.065,0.038,0.173,0.038,0.237,0l5.879-3.417
			c0.065-0.037,0.065-0.1,0-0.137l-0.654-0.378c-0.066-0.038-0.174-0.038-0.238,0l-5.878,3.416
			C79.057,40.707,79.057,40.769,79.123,40.807"/>
		<path clip-path="url(#SVGID_25_)" fill="#F4F5FA" d="M92.409,39.06l0.176,0.102c0.066,0.038,0.173,0.039,0.237,0.001l0.65-0.378
			c0.065-0.038,0.064-0.1-0.001-0.138l-0.177-0.102c-0.065-0.038-0.172-0.038-0.236,0l-0.65,0.377
			C92.343,38.96,92.344,39.022,92.409,39.06"/>
		<path clip-path="url(#SVGID_25_)" fill="#F4F5FA" d="M91.39,39.653l0.176,0.102c0.066,0.038,0.173,0.038,0.238,0l0.65-0.378
			c0.064-0.038,0.063-0.099-0.002-0.137l-0.176-0.103c-0.066-0.038-0.173-0.038-0.237,0l-0.65,0.378
			C91.324,39.553,91.324,39.615,91.39,39.653"/>
		<path clip-path="url(#SVGID_25_)" fill="#F4F5FA" d="M90.371,40.245l0.176,0.102c0.066,0.038,0.172,0.039,0.238,0.001l0.648-0.378
			c0.066-0.038,0.065-0.1,0-0.138l-0.176-0.102c-0.066-0.038-0.173-0.038-0.238,0l-0.649,0.378
			C90.304,40.146,90.305,40.207,90.371,40.245"/>
		<path clip-path="url(#SVGID_25_)" fill="#F4F5FA" d="M89.352,40.837l0.176,0.102c0.066,0.038,0.172,0.038,0.238,0l0.649-0.378
			c0.065-0.037,0.065-0.1-0.001-0.138l-0.176-0.102c-0.066-0.038-0.172-0.038-0.238,0L89.351,40.7
			C89.285,40.737,89.285,40.799,89.352,40.837"/>
		<path clip-path="url(#SVGID_25_)" fill="#F4F5FA" d="M88.332,41.429l0.176,0.103c0.066,0.038,0.173,0.038,0.238,0l0.649-0.378
			c0.065-0.038,0.064-0.1,0-0.138l-0.176-0.102c-0.066-0.038-0.174-0.038-0.238,0l-0.65,0.378
			C88.267,41.329,88.267,41.392,88.332,41.429"/>
		<path clip-path="url(#SVGID_25_)" fill="#F4F5FA" d="M87.313,42.022l0.176,0.102c0.066,0.038,0.174,0.038,0.238,0l0.65-0.377
			c0.064-0.038,0.064-0.101-0.001-0.138l-0.177-0.103c-0.065-0.038-0.173-0.038-0.237,0l-0.65,0.378
			C87.247,41.922,87.248,41.984,87.313,42.022"/>
		<path clip-path="url(#SVGID_25_)" fill="#F4F5FA" d="M86.294,42.615l0.176,0.102c0.066,0.038,0.173,0.038,0.237,0l0.649-0.378
			c0.066-0.038,0.065-0.1,0-0.138l-0.176-0.102c-0.066-0.038-0.173-0.038-0.238,0l-0.649,0.378
			C86.228,42.514,86.228,42.577,86.294,42.615"/>
		<path clip-path="url(#SVGID_25_)" fill="#F4F5FA" d="M85.274,43.207l0.176,0.102c0.066,0.038,0.173,0.038,0.238,0.001l0.649-0.379
			c0.065-0.037,0.065-0.099-0.001-0.137l-0.176-0.103c-0.066-0.037-0.173-0.037-0.238,0l-0.649,0.378
			C85.208,43.106,85.209,43.168,85.274,43.207"/>
		<path clip-path="url(#SVGID_25_)" fill="#F4F5FA" d="M84.255,43.799l0.176,0.102c0.066,0.038,0.174,0.038,0.238,0l0.65-0.378
			c0.064-0.038,0.064-0.1-0.001-0.138l-0.176-0.102c-0.066-0.038-0.174-0.038-0.238,0l-0.65,0.378
			C84.189,43.699,84.189,43.761,84.255,43.799"/>
		<path clip-path="url(#SVGID_25_)" fill="#F4F5FA" d="M83.235,44.391l0.176,0.102c0.066,0.038,0.174,0.038,0.238,0.001l0.65-0.378
			c0.064-0.038,0.064-0.1-0.001-0.138l-0.176-0.102c-0.066-0.038-0.173-0.038-0.238-0.001l-0.65,0.379
			C83.17,44.291,83.171,44.353,83.235,44.391"/>
		<path clip-path="url(#SVGID_25_)" fill="#F4F5FA" d="M82.217,44.984l0.176,0.102c0.066,0.038,0.172,0.038,0.238,0l0.649-0.378
			c0.065-0.038,0.065-0.1-0.001-0.138l-0.176-0.102c-0.066-0.038-0.173-0.038-0.238,0l-0.649,0.378
			C82.15,44.884,82.15,44.946,82.217,44.984"/>
		<path clip-path="url(#SVGID_25_)" fill="#F4F5FA" d="M81.197,45.576l0.176,0.103c0.066,0.037,0.173,0.037,0.238,0l0.649-0.378
			c0.065-0.038,0.065-0.1-0.001-0.138l-0.176-0.102c-0.066-0.038-0.172-0.038-0.238,0l-0.649,0.378
			C81.131,45.476,81.132,45.538,81.197,45.576"/>
		<path clip-path="url(#SVGID_25_)" fill="#F4F5FA" d="M80.178,46.168l0.176,0.102c0.066,0.038,0.174,0.038,0.238,0l0.65-0.378
			c0.064-0.038,0.063-0.1-0.001-0.138l-0.176-0.102c-0.066-0.038-0.174-0.038-0.238,0l-0.65,0.378
			C80.112,46.068,80.112,46.13,80.178,46.168"/>
		<path clip-path="url(#SVGID_25_)" fill="#F4F5FA" d="M93.429,38.468l0.176,0.102c0.066,0.038,0.172,0.038,0.238,0l0.808-0.47
			c0.065-0.037,0.064-0.1-0.002-0.137l-0.176-0.102c-0.066-0.038-0.172-0.038-0.237,0l-0.808,0.469
			C93.362,38.368,93.362,38.43,93.429,38.468"/>
		<path clip-path="url(#SVGID_25_)" fill="#F4F5FA" d="M90.951,37.522l0.654,0.379c0.065,0.037,0.173,0.037,0.237,0l1.227-0.713
			c0.064-0.038,0.064-0.1,0-0.138l-0.655-0.378c-0.066-0.038-0.172-0.038-0.237,0l-1.226,0.713
			C90.885,37.423,90.886,37.485,90.951,37.522"/>
		<path clip-path="url(#SVGID_25_)" fill="#F4F5FA" d="M89.409,37.222l0.653,0.378c0.066,0.038,0.174,0.038,0.238,0l1.736-1.009
			c0.064-0.037,0.063-0.099-0.002-0.137l-0.654-0.378c-0.066-0.038-0.172-0.038-0.237,0l-1.735,1.009
			C89.343,37.123,89.343,37.184,89.409,37.222"/>
		<path clip-path="url(#SVGID_25_)" fill="#F4F5FA" d="M88.369,36.623L89.023,37c0.065,0.037,0.173,0.037,0.237,0l1.736-1.009
			c0.064-0.038,0.064-0.099-0.001-0.138l-0.655-0.377c-0.064-0.039-0.172-0.039-0.237,0l-1.734,1.008
			C88.304,36.522,88.304,36.584,88.369,36.623"/>
		<path clip-path="url(#SVGID_25_)" fill="#F4F5FA" d="M78.119,44.98l0.654,0.378c0.065,0.037,0.173,0.037,0.237,0l1.251-0.728
			c0.065-0.038,0.065-0.099-0.001-0.136l-0.655-0.378c-0.064-0.038-0.171-0.038-0.236,0l-1.25,0.726
			C78.054,44.88,78.054,44.942,78.119,44.98"/>
		<path clip-path="url(#SVGID_25_)" fill="#F4F5FA" d="M77.086,44.383l0.655,0.378c0.065,0.038,0.172,0.038,0.237,0l1.761-1.024
			c0.064-0.038,0.063-0.098-0.001-0.136l-0.655-0.378c-0.065-0.038-0.171-0.038-0.237,0l-1.76,1.022
			C77.021,44.283,77.021,44.345,77.086,44.383"/>
		<path clip-path="url(#SVGID_25_)" fill="#F4F5FA" d="M76.543,42.86l0.177,0.103c0.065,0.037,0.172,0.037,0.237,0l0.65-0.378
			c0.064-0.038,0.063-0.1-0.001-0.138l-0.178-0.102c-0.065-0.038-0.171-0.038-0.236,0l-0.649,0.378
			C76.478,42.761,76.478,42.822,76.543,42.86"/>
		<path clip-path="url(#SVGID_25_)" fill="#F4F5FA" d="M76.065,42.584l0.176,0.102c0.066,0.038,0.173,0.038,0.238,0l0.649-0.378
			c0.065-0.038,0.064-0.1-0.001-0.138l-0.176-0.102c-0.066-0.038-0.173-0.038-0.237,0l-0.65,0.378
			C75.999,42.484,76,42.546,76.065,42.584"/>
		<path clip-path="url(#SVGID_25_)" fill="#F4F5FA" d="M80.235,42.553l0.654,0.378c0.066,0.038,0.172,0.038,0.238,0l0.649-0.378
			c0.065-0.038,0.064-0.1-0.001-0.137l-0.654-0.378c-0.066-0.038-0.172-0.038-0.237,0l-0.649,0.378
			C80.17,42.454,80.17,42.515,80.235,42.553"/>
		<path clip-path="url(#SVGID_25_)" fill="#F4F5FA" d="M79.217,43.146l0.653,0.378c0.066,0.037,0.173,0.038,0.238,0l0.65-0.378
			c0.064-0.038,0.063-0.1-0.001-0.138l-0.655-0.378c-0.066-0.038-0.171-0.038-0.237,0l-0.649,0.378
			C79.15,43.046,79.15,43.108,79.217,43.146"/>
		<path clip-path="url(#SVGID_25_)" fill="#F4F5FA" d="M79.196,41.953l0.654,0.378c0.065,0.038,0.172,0.038,0.237,0l0.65-0.377
			c0.064-0.038,0.063-0.1-0.001-0.138l-0.655-0.378c-0.065-0.038-0.171-0.038-0.237,0l-0.649,0.378
			C79.13,41.854,79.131,41.916,79.196,41.953"/>
		<path clip-path="url(#SVGID_25_)" fill="#F4F5FA" d="M78.177,42.545l0.654,0.378c0.065,0.038,0.172,0.038,0.237,0l0.65-0.378
			c0.064-0.038,0.064-0.1-0.001-0.137l-0.655-0.379c-0.065-0.037-0.171-0.037-0.237,0l-0.648,0.378
			C78.11,42.445,78.111,42.507,78.177,42.545"/>
		<path clip-path="url(#SVGID_25_)" fill="#F4F5FA" d="M77.157,43.137l0.655,0.379c0.065,0.037,0.171,0.038,0.237,0l0.649-0.378
			c0.065-0.038,0.064-0.1-0.001-0.138l-0.654-0.378c-0.065-0.038-0.172-0.038-0.237,0L77.156,43
			C77.092,43.038,77.093,43.1,77.157,43.137"/>
		<path clip-path="url(#SVGID_25_)" fill="#F4F5FA" d="M76.047,43.783l0.654,0.379c0.065,0.037,0.173,0.037,0.237-0.001l0.741-0.431
			c0.065-0.038,0.064-0.099,0-0.136l-0.655-0.378c-0.065-0.038-0.172-0.038-0.237,0l-0.74,0.43
			C75.98,43.684,75.981,43.746,76.047,43.783"/>
		<path clip-path="url(#SVGID_25_)" fill="#F4F5FA" d="M82.274,41.369l0.655,0.378c0.064,0.038,0.171,0.038,0.236,0l0.65-0.378
			c0.064-0.038,0.063-0.1-0.001-0.138l-0.655-0.377c-0.066-0.038-0.171-0.038-0.237,0l-0.649,0.377
			C82.208,41.269,82.208,41.331,82.274,41.369"/>
		<path clip-path="url(#SVGID_25_)" fill="#F4F5FA" d="M81.255,41.96l0.654,0.378c0.065,0.038,0.172,0.039,0.238,0.001l0.649-0.378
			c0.065-0.038,0.064-0.1-0.001-0.138l-0.655-0.378c-0.065-0.038-0.171-0.038-0.236,0l-0.65,0.378
			C81.189,41.861,81.189,41.922,81.255,41.96"/>
		<path clip-path="url(#SVGID_25_)" fill="#F4F5FA" d="M81.234,40.768l0.655,0.378c0.065,0.038,0.171,0.038,0.237,0l0.649-0.378
			c0.065-0.037,0.064-0.099-0.001-0.137l-0.655-0.378c-0.064-0.038-0.171-0.038-0.236,0l-0.65,0.378
			C81.169,40.669,81.17,40.731,81.234,40.768"/>
		<path clip-path="url(#SVGID_25_)" fill="#F4F5FA" d="M80.215,41.361l0.655,0.378c0.065,0.038,0.172,0.038,0.237,0l0.649-0.378
			c0.065-0.038,0.064-0.1-0.001-0.137l-0.654-0.379c-0.065-0.037-0.172-0.038-0.237,0l-0.649,0.378
			C80.149,41.261,80.15,41.323,80.215,41.361"/>
		<path clip-path="url(#SVGID_25_)" fill="#F4F5FA" d="M84.313,40.184l0.654,0.378c0.065,0.038,0.173,0.038,0.237,0l0.65-0.378
			c0.065-0.038,0.064-0.1-0.001-0.138l-0.654-0.378c-0.066-0.038-0.172-0.038-0.237,0l-0.649,0.378
			C84.247,40.084,84.246,40.146,84.313,40.184"/>
		<path clip-path="url(#SVGID_25_)" fill="#F4F5FA" d="M83.293,40.777l0.654,0.378c0.066,0.037,0.173,0.037,0.238,0l0.649-0.378
			c0.065-0.038,0.065-0.1-0.001-0.138l-0.653-0.378c-0.066-0.038-0.173-0.038-0.237,0l-0.65,0.378
			C83.228,40.677,83.228,40.739,83.293,40.777"/>
		<path clip-path="url(#SVGID_25_)" fill="#F4F5FA" d="M83.272,39.583l0.655,0.379C83.993,40,84.1,40,84.165,39.961l0.649-0.378
			c0.065-0.038,0.065-0.099,0-0.137l-0.654-0.378c-0.066-0.038-0.173-0.038-0.237,0l-0.65,0.378
			C83.207,39.484,83.208,39.546,83.272,39.583"/>
		<path clip-path="url(#SVGID_25_)" fill="#F4F5FA" d="M82.253,40.176l0.655,0.378c0.065,0.038,0.172,0.038,0.238,0l0.648-0.378
			c0.066-0.038,0.065-0.1,0-0.138l-0.654-0.378c-0.066-0.037-0.173-0.038-0.237,0l-0.65,0.378
			C82.188,40.076,82.188,40.138,82.253,40.176"/>
		<path clip-path="url(#SVGID_25_)" fill="#F4F5FA" d="M86.351,39l0.654,0.378c0.065,0.038,0.173,0.038,0.238,0L87.893,39
			c0.066-0.038,0.065-0.1-0.001-0.138l-0.653-0.378c-0.066-0.038-0.173-0.038-0.237,0l-0.65,0.378
			C86.285,38.899,86.285,38.961,86.351,39"/>
		<path clip-path="url(#SVGID_25_)" fill="#F4F5FA" d="M85.332,39.591l0.653,0.378c0.066,0.038,0.174,0.038,0.238,0l0.65-0.378
			c0.064-0.037,0.064-0.099-0.001-0.137l-0.654-0.378c-0.066-0.038-0.172-0.038-0.237,0l-0.649,0.378
			C85.266,39.492,85.266,39.554,85.332,39.591"/>
		<path clip-path="url(#SVGID_25_)" fill="#F4F5FA" d="M85.312,38.399l0.654,0.378c0.065,0.038,0.173,0.038,0.237,0l0.65-0.378
			c0.064-0.038,0.064-0.1,0-0.137l-0.655-0.378c-0.066-0.038-0.172-0.038-0.237,0l-0.649,0.378
			C85.245,38.299,85.246,38.362,85.312,38.399"/>
		<path clip-path="url(#SVGID_25_)" fill="#F4F5FA" d="M84.292,38.992l0.654,0.378c0.066,0.038,0.173,0.038,0.237,0l0.65-0.378
			c0.065-0.038,0.064-0.1,0-0.138l-0.655-0.378c-0.066-0.038-0.172-0.038-0.237,0l-0.649,0.378
			C84.227,38.892,84.227,38.954,84.292,38.992"/>
		<path clip-path="url(#SVGID_25_)" fill="#F4F5FA" d="M88.39,37.815l0.653,0.378c0.066,0.038,0.174,0.038,0.238,0l0.65-0.378
			c0.064-0.038,0.064-0.1-0.001-0.138l-0.654-0.378c-0.066-0.038-0.172-0.037-0.237,0l-0.649,0.378
			C88.323,37.715,88.323,37.777,88.39,37.815"/>
		<path clip-path="url(#SVGID_25_)" fill="#F4F5FA" d="M87.37,38.407l0.654,0.378c0.065,0.038,0.173,0.038,0.238,0l0.649-0.378
			c0.065-0.038,0.065-0.099-0.001-0.137l-0.655-0.378c-0.064-0.038-0.171-0.038-0.235,0l-0.65,0.378
			C87.305,38.308,87.305,38.369,87.37,38.407"/>
		<path clip-path="url(#SVGID_25_)" fill="#F4F5FA" d="M87.35,37.214l0.655,0.378c0.064,0.038,0.172,0.038,0.237,0l0.649-0.378
			c0.065-0.038,0.065-0.1,0-0.137l-0.655-0.379c-0.065-0.037-0.172-0.037-0.236,0.001l-0.65,0.377
			C87.284,37.114,87.285,37.176,87.35,37.214"/>
		<path clip-path="url(#SVGID_25_)" fill="#F4F5FA" d="M86.33,37.807l0.655,0.378c0.065,0.037,0.172,0.037,0.237,0l0.649-0.378
			c0.066-0.038,0.065-0.1,0-0.138l-0.654-0.378c-0.066-0.038-0.173-0.038-0.237,0l-0.65,0.378
			C86.266,37.707,86.266,37.769,86.33,37.807"/>
		<path clip-path="url(#SVGID_25_)" fill="#F4F5FA" d="M78.104,41.4l0.654,0.378c0.065,0.037,0.172,0.037,0.238-0.001l0.649-0.378
			c0.065-0.037,0.064-0.099-0.001-0.137l-0.654-0.378c-0.065-0.038-0.172-0.038-0.237,0l-0.65,0.378
			C78.038,41.3,78.038,41.362,78.104,41.4"/>
		<path clip-path="url(#SVGID_25_)" fill="#F4F5FA" d="M77.085,41.992l0.654,0.378c0.065,0.038,0.172,0.038,0.237,0l0.65-0.378
			c0.064-0.038,0.063-0.1-0.001-0.137l-0.655-0.378c-0.066-0.038-0.172-0.039-0.237-0.001l-0.649,0.378
			C77.019,41.892,77.019,41.954,77.085,41.992"/>
		<path clip-path="url(#SVGID_25_)" fill="#F4F5FA" d="M75.021,43.191l0.653,0.378c0.066,0.038,0.173,0.038,0.238,0l0.65-0.378
			c0.063-0.038,0.063-0.1-0.001-0.138l-0.654-0.378c-0.066-0.037-0.173-0.037-0.238,0l-0.649,0.378
			C74.955,43.091,74.955,43.153,75.021,43.191"/>
		<path clip-path="url(#SVGID_25_)" fill="#57565E" d="M76.356,52.729l4.397-2.539c0.311-0.179,0.271-0.49-0.087-0.697l-5.959-3.441
			c-0.357-0.206-0.898-0.228-1.208-0.05l-4.397,2.54c-0.31,0.178-0.271,0.49,0.087,0.696l5.959,3.441
			C75.506,52.885,76.046,52.908,76.356,52.729"/>
		<path clip-path="url(#SVGID_25_)" fill="#C5C9D8" d="M75.09,50.625c0,0-2.015-1.185-2.188-1.317
			c-0.411-0.315-0.319-0.479-0.149-0.704c0.171-0.224,1.125-0.896,2.266-0.688c1.142,0.207,2.123,1.439,2.203,1.716
			c0.08,0.276-0.001,0.482-0.421,0.708C76.379,50.564,75.739,50.927,75.09,50.625"/>
		<path clip-path="url(#SVGID_25_)" fill="#E5E8F5" d="M75.09,50.259c0,0-2.015-1.185-2.188-1.317
			c-0.411-0.315-0.319-0.479-0.149-0.704c0.171-0.224,1.125-0.896,2.266-0.688c1.142,0.208,2.123,1.439,2.203,1.716
			c0.08,0.276-0.001,0.482-0.421,0.708C76.379,50.199,75.739,50.563,75.09,50.259"/>
		<g clip-path="url(#SVGID_25_)">
			<g>
				<defs>
					<rect id="SVGID_30_" x="87.655" y="40.878" width="21.955" height="11.635"/>
				</defs>
				<clipPath id="SVGID_31_">
					<use xlink:href="#SVGID_30_"  overflow="visible"/>
				</clipPath>
				<path clip-path="url(#SVGID_31_)" fill="#BECDD4" d="M109.444,43.875l-4.936-2.866c-0.301-0.174-0.788-0.174-1.087,0
					l-0.353,0.202l-0.35-0.202c-0.301-0.174-0.788-0.174-1.087,0l-13.755,7.913c-0.299,0.174-0.297,0.456,0.004,0.63l4.936,2.867
					c0.17,0.098,0.42,0.118,0.626,0.064c0.611,0.056,1.786,0.035,1.957-0.064l14.046-8.083
					C109.665,44.208,109.664,44.001,109.444,43.875"/>
			</g>
		</g>
		<path clip-path="url(#SVGID_25_)" fill="#C5C9D8" d="M105.523,45.015l-3.228-9.495l-2.678,1.548v0.015L99.598,42.8
			c-0.059-0.012-0.12-0.021-0.181-0.027c-0.455-0.051-0.924,0.042-1.332,0.279l-4.259,2.326c-0.111,0.065-0.196,0.15-0.26,0.245
			l-0.125-0.037l-0.003,0.464c0,0.261,0.129,0.522,0.388,0.671l4.426,2.554l0.031,0.019c0.191,0.111,0.393,0.194,0.599,0.25
			c0.009,0.003,0.018,0.007,0.025,0.008c0.05,0.014,0.099,0.024,0.146,0.033c0.114,0.026,0.227,0.04,0.342,0.048
			c0.435,0.032,0.875-0.048,1.278-0.239c0.027-0.014,0.052-0.025,0.078-0.037c0.038-0.02,0.077-0.04,0.116-0.063l1.833-1.057
			l2.059-1.189c0.135-0.078,0.256-0.172,0.362-0.28c0.131-0.133,0.238-0.287,0.319-0.452c0.033-0.066,0.062-0.135,0.084-0.204
			c0.023-0.071,0.043-0.143,0.058-0.214C105.639,45.612,105.624,45.307,105.523,45.015"/>
	</g>
	<g clip-path="url(#SVGID_2_)">
		<defs>
			<path id="SVGID_32_" d="M108.133,18.615L88.762,29.798c-0.414,0.24-0.781,0.797-0.821,1.246l-1.343,14.85
				c-0.027,0.308,0.06,0.521,0.223,0.623l-0.001,0.001l0.711,0.491l0.807-1.03l17.966-10.373c0.586-0.338,1.107-1.126,1.164-1.762
				l1.258-13.92l0.672-0.857l-0.748-0.516c-0.05-0.029-0.107-0.044-0.173-0.044C108.376,18.507,108.26,18.542,108.133,18.615"/>
		</defs>
		<clipPath id="SVGID_33_">
			<use xlink:href="#SVGID_32_"  overflow="visible"/>
		</clipPath>
		
			<linearGradient id="SVGID_34_" gradientUnits="userSpaceOnUse" x1="0" y1="115.0205" x2="1" y2="115.0205" gradientTransform="matrix(17.6023 -30.4881 -30.4881 -17.6023 3595.9858 2072.6138)">
			<stop  offset="0" style="stop-color:#A0A6C0"/>
			<stop  offset="0.0138" style="stop-color:#A0A6C0"/>
			<stop  offset="0.402" style="stop-color:#A0A6C0"/>
			<stop  offset="0.4024" style="stop-color:#A2A8C1"/>
			<stop  offset="0.4078" style="stop-color:#B8BCD0"/>
			<stop  offset="0.4131" style="stop-color:#C5C8D9"/>
			<stop  offset="0.4179" style="stop-color:#C9CCDC"/>
			<stop  offset="0.4266" style="stop-color:#D6D8E5"/>
			<stop  offset="0.4348" style="stop-color:#E7E7F0"/>
			<stop  offset="1" style="stop-color:#E7E7F0"/>
		</linearGradient>
		<polygon clip-path="url(#SVGID_33_)" fill="url(#SVGID_34_)" points="74.229,39.884 92.276,8.623 121.737,25.633 103.689,56.893 
					"/>
	</g>
	<g clip-path="url(#SVGID_2_)">
		<defs>
			<rect id="SVGID_35_" width="136.598" height="115.032"/>
		</defs>
		<clipPath id="SVGID_36_">
			<use xlink:href="#SVGID_35_"  overflow="visible"/>
		</clipPath>
		<path clip-path="url(#SVGID_36_)" fill="#C5C9D8" d="M109.536,19.498l-1.341,14.849c-0.059,0.635-0.578,1.422-1.164,1.761
			L88.282,46.934c-0.586,0.338-1.016,0.096-0.956-0.538l1.341-14.849c0.019-0.21,0.109-0.443,0.243-0.656
			c0.151-0.245,0.358-0.462,0.58-0.589l19.371-11.186c0.222-0.128,0.412-0.139,0.534-0.049
			C109.5,19.142,109.556,19.291,109.536,19.498"/>
		<path clip-path="url(#SVGID_36_)" fill="#E7E7F0" d="M105.076,44.577l-2.717-8.976l-2.605,1.504l-0.438,5.319
			c-0.497-0.098-1.021-0.017-1.473,0.245l-4.028,2.325c-0.503,0.29-0.503,1.015,0,1.305l4.222,2.438
			c0.778,0.448,1.735,0.448,2.514,0l3.781-2.184C105.021,46.156,105.331,45.329,105.076,44.577"/>
		<path clip-path="url(#SVGID_36_)" fill="#D3D3E3" d="M100.344,34.957c-5.149,3.426-8.973-0.039-11.434-4.066
			c0.151-0.245,0.358-0.462,0.58-0.589l19.371-11.186c0.222-0.128,0.413-0.138,0.535-0.049
			C109.396,19.066,110.088,28.473,100.344,34.957"/>
		<path clip-path="url(#SVGID_36_)" fill="#EFF0F5" d="M105.719,45.898c-0.014,0.073-0.033,0.144-0.057,0.214
			c-0.022,0.069-0.05,0.139-0.083,0.204c-0.081,0.167-0.188,0.32-0.321,0.452c-0.105,0.109-0.227,0.202-0.36,0.28l-2.061,1.189
			l-1.833,1.057c-0.039,0.023-0.077,0.043-0.116,0.063c-0.024,0.012-0.051,0.023-0.078,0.037c-0.318,0.144-0.768,0.265-1.273,0.234
			c-0.113-0.005-0.229-0.019-0.346-0.042c-0.048-0.01-0.097-0.02-0.146-0.034c-0.009-0.001-0.016-0.003-0.025-0.006v-0.351
			c0.38,0.052,0.7-0.118,0.7-0.843v-0.005l0.035-11.263v-0.016l2.679-1.548l3.228,9.495
			C105.761,45.307,105.776,45.612,105.719,45.898"/>
		<path clip-path="url(#SVGID_36_)" fill="#C5C9D8" d="M99.719,48.352l0.001,0.855c0,0.169-0.208,0.319-0.32,0.421l-0.004,0.005
			c-0.115-0.008-0.228-0.022-0.342-0.048c-0.047-0.009-0.098-0.019-0.146-0.033c-0.009-0.001-0.017-0.003-0.024-0.006v-0.002
			c-0.206-0.056-0.408-0.139-0.6-0.25l-0.031-0.019c-0.098-0.191-0.241-0.552,0.078-0.394c0.839,0.413,0.972-0.27,0.972-0.27
			l0.015-6.012v-2.037l0.438-3.457L99.719,48.352z"/>
		<path clip-path="url(#SVGID_36_)" fill="#FEBFBF" d="M58.63,39.603c1.418,2.879,15.028,1.708,15.955,1.763
			c0.927,0.053,1.183,0.656,1.925,1.054c0.744,0.397,2.08,0.59,2.08,0.59s1.021-0.296,1.509-0.469
			c0.489-0.175,0.667-0.753,0.667-0.753l0.5,0.182l0.805-0.138l0.411-0.595l-1.103-0.459l-2.005-1.693
			c0.073,0.048,1.245,0.833,1.582,0.939c0.348,0.111,1.187,0.079,1.205-0.116c0.015-0.193,0.012-0.349-0.779-0.694
			c-0.79-0.344-1.104-0.791-1.794-0.813c-0.687-0.024-1.984,0.065-4.562,0.298c-2.579,0.233-13.137-1.896-13.137-1.896
			s-3.254,0.832-3.316,2.45C58.569,39.367,58.587,39.483,58.63,39.603"/>
		<path clip-path="url(#SVGID_36_)" fill="#FA9698" d="M58.63,39.603c1.418,2.879,15.028,1.708,15.955,1.763
			c0.927,0.053,1.183,0.656,1.925,1.054c0.744,0.397,2.08,0.59,2.08,0.59s1.021-0.296,1.509-0.469
			c0.489-0.175,0.667-0.753,0.667-0.753l-1.073-0.763l-0.504-0.257c0,0,0.134,0.675,0.365,0.797
			c0.226,0.122,0.943,0.431,0.943,0.431l-0.5,0.444c0,0-1.26,0.412-1.527,0.437c-0.269,0.027-2.457-0.934-2.544-1.087
			c-0.087-0.154-0.846-0.531-1.068-0.601c-1.089,0.123-8.316,0.14-9.866,0.073c-1.546-0.066-3.069-0.245-4.536-0.594
			c-1.467-0.351-1.882-1.415-1.882-1.415C58.569,39.367,58.587,39.483,58.63,39.603"/>
		<path clip-path="url(#SVGID_36_)" fill="#FEBFBF" d="M81.375,36.651c0.168,0.485,0.297,0.721,0.327,0.78
			c0.003,0.002,0.003,0.002,0.004,0.005c0.002,0.003,0.006,0.005,0.007,0.011c0.202,0.206,0.449,0.434,0.66,0.534
			c0.432,0.205,1.302,1.303,1.511,1.357c0.206,0.05,0.409-0.174,0.634-0.118c0.045,0.011,0.091,0.003,0.131-0.017
			c0.002-0.004,0.005-0.004,0.005-0.004c0.02-0.012,0.037-0.021,0.054-0.035c0.002-0.003,0.007-0.007,0.013-0.011
			c0.012-0.011,0.025-0.024,0.037-0.038c0.015-0.017,0.03-0.033,0.044-0.054c0.002-0.003,0.002-0.006,0.002-0.006
			c0.01-0.008,0.015-0.016,0.021-0.026c0.059-0.089,0.093-0.17,0.093-0.17l0.146-0.09l0.232-0.148c0,0,0.008,0.01,0.027,0.027
			l0.004,0.003c0.004,0.005,0.011,0.013,0.021,0.017c0.019,0.014,0.039,0.029,0.067,0.042c0.013,0.006,0.024,0.01,0.038,0.014
			c0.012,0.006,0.026,0.01,0.043,0.013c0.023,0.005,0.047,0.01,0.07,0.009c0.023,0.003,0.049,0.001,0.078-0.003
			c0.082-0.014,0.178-0.053,0.287-0.134c0.274-0.201,0.742-0.731,1.023-1.064c0.135-0.16,0.152-0.387,0.044-0.561
			c-0.086-0.135-0.123-0.277-0.192-0.43c0-0.003-0.004-0.007-0.004-0.01c-0.009-0.02-0.018-0.036-0.027-0.055
			c-0.059-0.115-0.3-0.473-0.619-0.829c-0.018-0.021-0.025-0.03-0.025-0.03c-0.267-0.299-0.553-0.599-0.732-0.787
			c-0.027-0.027-0.055-0.054-0.077-0.077c-0.006-0.005-0.01-0.012-0.017-0.017c-0.017-0.018-0.032-0.034-0.042-0.046
			c-0.011-0.01-0.018-0.018-0.024-0.023c-0.004-0.005-0.008-0.008-0.01-0.009c-0.004-0.003-0.004-0.005-0.004-0.005l-0.46,0.073
			c0,0-0.367-0.233-0.645-0.277c-0.228-0.04-0.679,0.33-1.106,0.311l-0.003,0.001c-0.45,0.315-0.893,0.263-1.125,0.519
			C81.651,35.548,81.175,36.08,81.375,36.651"/>
		<path clip-path="url(#SVGID_36_)" fill="#FA9698" d="M83.986,38.85c0,0-0.104-0.639-0.329-0.99
			c-0.228-0.353-0.739-0.974-0.739-0.974s-0.202-0.95-0.069-1.105c0.134-0.156,0.479-0.491,0.479-0.491s0.692,0.982,0.776,1.126
			s0.021,0.967,0.021,0.967s-0.239,0.549-0.078,0.947c0.161,0.399,0.271,0.902,0.271,0.902L83.986,38.85z"/>
		<path clip-path="url(#SVGID_36_)" fill="#FA9698" d="M85.854,38.003c-0.154,0.199-0.359,0.492-0.531,0.645
			c0.024,0.022,0.067,0.056,0.13,0.076c0.054-0.167,0.758-0.912,0.813-1.029c0.053-0.119,0.472-0.903,0.481-1.085
			c0.005-0.161-0.476-0.797-0.591-0.951c-0.018-0.02-0.025-0.03-0.025-0.03s0.364,0.701,0.391,0.869
			C86.547,36.666,86.054,37.742,85.854,38.003"/>
		<path clip-path="url(#SVGID_36_)" fill="#FA9698" d="M84.824,39.029c0.06-0.089,0.092-0.17,0.092-0.17l0.146-0.09
			c-0.091-0.003-0.116-0.069-0.085-0.164c0.041-0.126,0.271-0.88,0.271-0.88s0.432-1.015,0.439-1.273
			c0.006-0.255-0.485-0.988-1.201-1.441c0.048,0.05,0.832,0.882,0.896,1.21c0.065,0.342-0.545,2.188-0.55,2.238
			C84.827,38.507,84.906,38.887,84.824,39.029"/>
		<g clip-path="url(#SVGID_36_)">
			<g>
				<defs>
					<rect id="SVGID_37_" x="76.155" y="75.99" width="4.307" height="6.428"/>
				</defs>
				<clipPath id="SVGID_38_">
					<use xlink:href="#SVGID_37_"  overflow="visible"/>
				</clipPath>
				<path clip-path="url(#SVGID_38_)" fill="#FF8E8C" d="M76.155,79.283v2.332c0,1.16,1.225,1.035,1.939-0.198l2.032-3.506
					c0.716-1.233,0.209-2.346-0.804-1.762l-2.032,1.175C76.664,77.686,76.155,78.563,76.155,79.283"/>
			</g>
		</g>
		<g clip-path="url(#SVGID_36_)">
			<g>
				<defs>
					<rect id="SVGID_39_" x="81.335" y="78.948" width="4.306" height="6.428"/>
				</defs>
				<clipPath id="SVGID_40_">
					<use xlink:href="#SVGID_39_"  overflow="visible"/>
				</clipPath>
				<path clip-path="url(#SVGID_40_)" fill="#FF8E8C" d="M85.641,82.084v-2.332c0-1.161-1.223-1.036-1.938,0.197l-2.032,3.506
					c-0.716,1.233-0.209,2.346,0.803,1.762l2.032-1.174C85.133,83.681,85.641,82.804,85.641,82.084"/>
			</g>
		</g>
		<path clip-path="url(#SVGID_36_)" fill="#DE4037" d="M76.155,79.283v2.332c0,1.16,1.225,1.035,1.939-0.198l2.032-3.506
			c0.716-1.233,0.209-2.346-0.804-1.762l-2.032,1.175C76.664,77.686,76.155,78.563,76.155,79.283"/>
		<path clip-path="url(#SVGID_36_)" fill="#DE4037" d="M85.641,82.084v-2.332c0-1.161-1.223-1.036-1.938,0.197l-2.032,3.506
			c-0.716,1.233-0.209,2.346,0.803,1.762l2.032-1.174C85.133,83.681,85.641,82.804,85.641,82.084"/>
		<path clip-path="url(#SVGID_36_)" fill="#F5B53D" d="M77.291,88.208l2.032-1.174c1.012-0.585,1.519-2.28,0.803-2.688l-2.032-1.16
			c-0.715-0.408-1.938,0.88-1.938,2.042v2.332C76.155,88.279,76.664,88.569,77.291,88.208"/>
		<path clip-path="url(#SVGID_36_)" fill="#F5B53D" d="M84.505,73.159l-2.032,1.173c-1.012,0.585-1.519,2.28-0.803,2.688l2.032,1.16
			c0.716,0.408,1.938-0.88,1.938-2.042v-2.332C85.641,73.087,85.132,72.797,84.505,73.159"/>
		<path clip-path="url(#SVGID_36_)" fill="#907A7D" d="M88.923,71.24l1.502-0.867c1.119-0.647,2.028-0.13,2.028,1.151
			c0,1.282-0.909,2.849-2.028,3.494l-1.502,0.867V71.24z M89.981,74.073l0.449-0.261c0.53-0.305,0.962-1.05,0.962-1.656
			c0-0.602-0.432-0.849-0.962-0.542l-0.449,0.26V74.073z"/>
		<polygon clip-path="url(#SVGID_36_)" fill="#907A7D" points="93.185,68.779 95.705,67.325 95.705,68.335 94.25,69.174 
			94.25,69.929 95.537,69.187 95.537,70.216 94.25,70.958 94.25,71.813 95.705,70.974 95.705,71.971 93.185,73.425 		"/>
		<polygon clip-path="url(#SVGID_36_)" fill="#907A7D" points="96.465,66.886 97.529,66.271 97.529,69.69 98.988,68.849 
			98.988,70.074 96.465,71.531 		"/>
		<polygon clip-path="url(#SVGID_36_)" fill="#907A7D" points="99.744,64.992 100.809,64.378 100.809,69.023 99.744,69.638 		"/>
		<polygon clip-path="url(#SVGID_36_)" fill="#907A7D" points="105.531,61.646 103.645,67.386 103.159,67.666 101.267,64.107 
			102.338,63.489 103.401,65.521 104.472,62.256 		"/>
		<polygon clip-path="url(#SVGID_36_)" fill="#907A7D" points="105.994,61.384 108.514,59.93 108.514,60.939 107.06,61.778 
			107.06,62.533 108.347,61.791 108.347,62.82 107.06,63.563 107.06,64.417 108.514,63.578 108.514,64.575 105.994,66.029 		"/>
		<path clip-path="url(#SVGID_36_)" fill="#907A7D" d="M111.625,62.779l-0.627-0.87l-0.659,0.38v1.231l-1.063,0.615V59.49
			l1.707-0.986c0.82-0.474,1.491-0.093,1.491,0.848c0,0.496-0.189,1.052-0.481,1.529l0.86,1.19L111.625,62.779z M110.339,61.235
			l0.659-0.381c0.324-0.187,0.583-0.628,0.583-1c0-0.37-0.259-0.519-0.583-0.332l-0.659,0.381V61.235z"/>
		<polygon clip-path="url(#SVGID_36_)" fill="#907A7D" points="115.336,58.927 115.336,60.637 114.282,61.244 114.282,59.534 
			112.802,57.452 114.029,56.744 114.808,57.844 115.59,55.843 116.817,55.134 		"/>
		<path clip-path="url(#SVGID_36_)" fill="#907A7D" d="M89.87,78.352c0-0.139-0.101-0.195-0.221-0.126
			c-0.119,0.068-0.216,0.239-0.216,0.378c0,0.137,0.097,0.191,0.216,0.123c0.283-0.163,0.537-0.155,0.7-0.011
			c0.123,0.106,0.191,0.287,0.191,0.531c0,0.566-0.397,1.247-0.892,1.532c-0.493,0.285-0.89,0.066-0.89-0.518l0.674-0.39
			c0,0.142,0.097,0.197,0.216,0.127c0.12-0.069,0.221-0.237,0.221-0.374s-0.101-0.195-0.221-0.126
			c-0.493,0.286-0.886,0.062-0.886-0.505c0-0.567,0.393-1.248,0.886-1.534c0.494-0.285,0.892-0.063,0.892,0.503L89.87,78.352z"/>
		<polygon clip-path="url(#SVGID_36_)" fill="#907A7D" points="91.082,76.634 92.88,75.596 92.88,76.316 91.843,76.915 
			91.843,77.455 92.761,76.926 92.761,77.659 91.843,78.19 91.843,78.801 92.88,78.2 92.88,78.913 91.082,79.951 		"/>
		<path clip-path="url(#SVGID_36_)" fill="#907A7D" d="M95.102,77.632l-0.446-0.624l-0.472,0.272v0.881l-0.76,0.438v-3.317
			l1.22-0.704c0.586-0.339,1.064-0.068,1.064,0.604c0,0.355-0.135,0.751-0.343,1.094l0.612,0.85L95.102,77.632z M94.184,76.528
			l0.472-0.271c0.23-0.134,0.417-0.449,0.417-0.714c0-0.266-0.187-0.371-0.417-0.238l-0.472,0.272V76.528z"/>
		<polygon clip-path="url(#SVGID_36_)" fill="#907A7D" points="99.025,72.043 97.68,76.144 97.333,76.344 95.981,73.8 
			96.745,73.358 97.506,74.81 98.27,72.479 		"/>
		<polygon clip-path="url(#SVGID_36_)" fill="#907A7D" points="99.354,71.858 100.114,71.419 100.114,74.737 99.354,75.176 		"/>
		<path clip-path="url(#SVGID_36_)" fill="#907A7D" d="M102.56,71.104c-0.119-0.067-0.289-0.051-0.484,0.063
			c-0.395,0.229-0.68,0.721-0.68,1.172c0,0.452,0.285,0.614,0.68,0.387c0.195-0.113,0.365-0.29,0.484-0.502l0.541,0.3
			c-0.263,0.452-0.625,0.852-1.025,1.083c-0.8,0.462-1.447,0.093-1.447-0.823s0.647-2.033,1.447-2.495
			c0.396-0.229,0.756-0.256,1.018-0.107L102.56,71.104z"/>
		<polygon clip-path="url(#SVGID_36_)" fill="#907A7D" points="103.679,69.361 105.477,68.323 105.477,69.044 104.439,69.642 
			104.439,70.182 105.356,69.653 105.356,70.387 104.439,70.917 104.439,71.527 105.477,70.928 105.477,71.641 103.679,72.679 		"/>
		<g clip-path="url(#SVGID_36_)">
			<g>
				<defs>
					<rect id="SVGID_41_" x="46.395" y="58.548" width="14.871" height="12.891"/>
				</defs>
				<clipPath id="SVGID_42_">
					<use xlink:href="#SVGID_41_"  overflow="visible"/>
				</clipPath>
				<polygon clip-path="url(#SVGID_42_)" fill="#BECDD4" points="57.559,71.438 46.396,64.993 57.559,58.547 61.266,71.438 				"/>
			</g>
		</g>
		<polygon clip-path="url(#SVGID_36_)" fill="#EBE7E3" points="61.266,71.438 72.431,64.993 72.431,56.987 61.266,63.432 		"/>
		<polygon clip-path="url(#SVGID_36_)" fill="#DED8D1" points="61.266,71.438 50.103,64.993 50.103,56.987 61.266,63.432 		"/>
		<polygon clip-path="url(#SVGID_36_)" fill="#A0978F" points="50.103,56.987 61.266,63.432 55.242,60.21 		"/>
		<polygon clip-path="url(#SVGID_36_)" fill="#FCFBFA" points="61.266,63.433 50.103,56.987 61.266,50.54 72.431,56.987 		"/>
		<polygon clip-path="url(#SVGID_36_)" fill="#9C754E" points="56.471,65.725 54.677,64.689 54.677,59.627 56.471,60.663 		"/>
		<polygon clip-path="url(#SVGID_36_)" fill="#F1D6BC" points="56.471,60.664 67.635,54.219 65.841,53.183 54.677,59.628 		"/>
		<polygon clip-path="url(#SVGID_36_)" fill="#D1A986" points="55.641,60.185 66.805,53.739 66.682,53.667 55.517,60.113 		"/>
	</g>
</g>
</svg>
