<?xml version="1.0" encoding="utf-8"?>
<!-- Generator: Adobe Illustrator 16.0.0, SVG Export Plug-In . SVG Version: 6.00 Build 0)  -->
<!DOCTYPE svg PUBLIC "-//W3C//DTD SVG 1.1//EN" "http://www.w3.org/Graphics/SVG/1.1/DTD/svg11.dtd">
<svg version="1.1" id="Layer_1" xmlns="http://www.w3.org/2000/svg" xmlns:xlink="http://www.w3.org/1999/xlink" x="0px" y="0px"
	 width="66.622px" height="68.932px" viewBox="0 0 66.622 68.932" enable-background="new 0 0 66.622 68.932" xml:space="preserve">
<g>
	<defs>
		<rect id="SVGID_1_" width="66.622" height="68.932"/>
	</defs>
	<clipPath id="SVGID_2_">
		<use xlink:href="#SVGID_1_"  overflow="visible"/>
	</clipPath>
	<g clip-path="url(#SVGID_2_)">
		<defs>
			<rect id="SVGID_3_" y="0" width="66.622" height="68.932"/>
		</defs>
		<clipPath id="SVGID_4_">
			<use xlink:href="#SVGID_3_"  overflow="visible"/>
		</clipPath>
		<g clip-path="url(#SVGID_4_)">
			<g>
				<defs>
					<rect id="SVGID_5_" y="27.479" width="51.47" height="28.587"/>
				</defs>
				<clipPath id="SVGID_6_">
					<use xlink:href="#SVGID_5_"  overflow="visible"/>
				</clipPath>
				<path clip-path="url(#SVGID_6_)" fill="#BECDD4" d="M3.497,56.012c-0.127,0.026-0.255,0.042-0.382,0.045
					c-0.683,0.018-1.374,0.032-2.041-0.118c-0.347-0.078-0.71-0.22-0.897-0.522c-0.142-0.229-0.159-0.509-0.173-0.778
					c-0.059-1.178,0.589-1.883,1.463-2.607c1.803-1.494,3.769-2.789,5.85-3.864c2.03-1.048,4.468-1.537,6.336-2.78
					c3.631-2.419,7.768-4.403,10.972-7.414c2.431-2.284,6.215-3.466,9.259-4.633c4.169-1.598,8.417-2.993,12.682-4.313
					c0.92-0.285,1.849-0.547,2.766-0.843c0.4-0.129,1.337-0.78,1.74-0.695c1.25,0.261-0.816,3.055-1.135,3.624
					c-0.703,1.257-1.279,2.586-2.061,3.799c-1.59,2.466-3.972,4.343-6.562,5.72c-2.589,1.377-5.396,2.289-8.202,3.147
					c-2.061,0.63-4.141,1.238-6.28,1.502c-2.738,0.339-5.119,0.65-7.526,2.052c-2.573,1.498-5.151,2.985-7.748,4.441
					c-1.833,1.027-3.67,2.054-5.548,2.996C5.244,55.154,4.374,55.83,3.497,56.012"/>
			</g>
		</g>
		<path clip-path="url(#SVGID_4_)" fill="#98D19C" d="M49.788,0.033c0.343-0.129,0.645,0.145,0.644,0.417
			c-0.01,10.541-0.654,16.495-0.654,27.301c-1.383,3.042-3.031,5.269-4.902,6.94c-1.927,1.75-4.089,2.919-6.439,3.833
			c-3.119,1.203-6.562,1.948-10.215,2.985c-5.582,1.582-9.593,2.785-13.224,4.534c-0.992,0.468-1.961,0.991-2.93,1.56
			c-2.81,1.675-5.257,4.253-8.614,7.693c-0.104,0.106-0.526,0.023-0.644-0.077V27.49c3.487-3.728,6.339-6.022,9.258-7.749
			c0.958-0.58,1.916-1.092,2.93-1.561c3.476-1.637,7.353-2.795,12.733-4.289c3.844-1.069,7.454-1.782,10.707-3.03
			C43.07,9.112,46.98,6.327,49.788,0.033"/>
		<path clip-path="url(#SVGID_4_)" fill="#A4E2A9" d="M50.432,0.45c-0.011,11.086-0.011,16.634-0.011,27.719
			c-1.382,3.041-3.031,5.269-4.902,6.94c-1.927,1.749-4.088,2.919-6.438,3.832c-3.12,1.204-6.562,1.95-10.216,2.986
			c-5.582,1.582-9.593,2.785-13.224,4.534c-0.992,0.467-1.961,0.991-2.93,1.56c-2.897,1.727-5.76,3.988-9.258,7.275V27.567
			c3.487-3.387,6.339-5.681,9.258-7.409c0.958-0.579,1.916-1.092,2.93-1.56c3.476-1.637,7.353-2.795,12.733-4.289
			c3.844-1.069,7.454-1.782,10.707-3.03C43.714,9.53,47.625,6.745,50.432,0.45"/>
		<path clip-path="url(#SVGID_4_)" fill="#9CD6A1" d="M50.432,0.45c-0.011,11.086-0.011,16.634-0.011,27.719
			c-1.927,3.208-3.431,5.37-4.902,6.94c-1.927,1.749-4.088,2.919-6.438,3.832V11.279C43.714,9.53,47.625,6.745,50.432,0.45"/>
		<path clip-path="url(#SVGID_4_)" fill="#98D19C" d="M24.026,39.483c-1.272-0.251-2.443-0.801-3.436-1.631
			c-1.846-1.543-2.862-3.896-2.862-6.846c0-5.994,4.066-12.12,9.063-13.003c2.437-0.43,4.745,0.188,6.495,1.652
			c1.845,1.543,2.861,3.896,2.861,6.846c0,5.995-4.064,12.12-9.061,13.003C26.031,39.689,24.999,39.675,24.026,39.483
			 M29.847,18.875c-0.871-0.172-1.802-0.184-2.76-0.015c-4.622,0.818-8.529,6.618-8.529,12.194c0,2.663,0.889,4.797,2.502,6.165
			c1.521,1.289,3.558,1.814,5.731,1.429c4.62-0.817,8.526-6.617,8.526-12.192c0-2.662-0.888-4.797-2.501-6.165
			C31.966,19.569,30.954,19.094,29.847,18.875"/>
		<path clip-path="url(#SVGID_4_)" fill="#98D19C" d="M9.647,39.53v1.036c-1.214,1.113-2.072,2.024-3.521,3.96v-1.125
			C7.452,41.657,8.31,40.737,9.647,39.53"/>
		<path clip-path="url(#SVGID_4_)" fill="#98D19C" d="M9.647,42.494v1.036c-1.214,1.102-2.072,2.013-3.521,3.948v-1.114
			C7.452,44.609,8.31,43.689,9.647,42.494"/>
		<path clip-path="url(#SVGID_4_)" fill="#98D19C" d="M30.885,30.464c-0.003,1.911-1.263,3.414-3.051,4.001v2.383
			c-0.562,0.101-0.844,0.149-1.406,0.249v-2.365c-1.348,0.055-2.625-0.38-3.548-1.135c0.318-0.826,0.476-1.237,0.795-2.057
			c1.022,0.851,2.37,1.26,3.434,1.071c1.065-0.187,1.703-0.773,1.703-1.589c0-2.433-5.337-0.056-5.337-4.204
			c0-1.783,1.15-3.261,2.953-3.847v-2.249c0.562-0.107,0.844-0.159,1.406-0.267v2.249c1.092-0.062,2.156,0.181,2.951,0.619
			c-0.306,0.841-0.459,1.26-0.766,2.097c-1.065-0.529-2.214-0.711-2.98-0.575c-0.894,0.158-1.477,0.646-1.477,1.363
			C25.562,28.573,30.892,26.285,30.885,30.464"/>
		<path clip-path="url(#SVGID_4_)" fill="#D0EAD2" d="M47.994,10.824c-0.001,0.854-0.576,2.193-1.394,3.274v1.064
			c-0.256,0.303-0.384,0.449-0.641,0.732v-1.056c-0.616,0.599-1.2,0.868-1.621,0.829c0.145-0.472,0.218-0.708,0.362-1.186
			c0.468,0.026,1.083-0.33,1.569-0.885c0.486-0.553,0.778-1.129,0.778-1.494c0-1.086-2.438,2.192-2.438,0.339
			c0-0.796,0.525-1.826,1.35-2.854V8.582c0.257-0.286,0.386-0.435,0.642-0.74v1.004c0.499-0.528,0.985-0.949,1.348-1.16
			c-0.14,0.533-0.21,0.797-0.35,1.324c-0.486,0.295-1.011,0.752-1.361,1.149c-0.41,0.465-0.675,0.912-0.675,1.232
			C45.563,12.448,47.997,8.952,47.994,10.824"/>
		<path clip-path="url(#SVGID_4_)" fill="#AEF0B3" d="M15.64,18.599v27.863c-0.991,0.468-1.96,0.991-2.93,1.56V20.159
			C13.667,19.579,14.625,19.066,15.64,18.599"/>
		<g clip-path="url(#SVGID_4_)">
			<g>
				<defs>
					<rect id="SVGID_7_" x="32.303" y="57.157" width="20.394" height="11.774"/>
				</defs>
				<clipPath id="SVGID_8_">
					<use xlink:href="#SVGID_7_"  overflow="visible"/>
				</clipPath>
				<path clip-path="url(#SVGID_8_)" fill="#BECDD4" d="M35.268,58.869c-3.97,2.291-3.949,6.019,0.045,8.325
					c3.995,2.307,10.451,2.317,14.42,0.026c3.97-2.292,3.95-6.02-0.045-8.326C45.693,56.589,39.237,56.577,35.268,58.869"/>
			</g>
		</g>
		<path clip-path="url(#SVGID_4_)" fill="#E3B84C" d="M33.147,59.881v1.668l0.024,0.856c0.068,1.459,1.051,2.909,2.984,4.025
			c3.994,2.307,10.451,2.318,14.42,0.026c1.827-1.056,2.77-2.416,2.907-3.801l0.057-0.666v-2.282L33.147,59.881z"/>
		<path clip-path="url(#SVGID_4_)" fill="#F7C74C" d="M36.111,55.645c-3.97,2.292-3.949,6.02,0.045,8.326
			c3.995,2.306,10.451,2.317,14.42,0.026c3.97-2.292,3.95-6.02-0.045-8.326C46.537,53.365,40.081,53.354,36.111,55.645"/>
		<path clip-path="url(#SVGID_4_)" fill="#FFE572" d="M36.207,55.643c-3.864,2.231-3.845,5.86,0.044,8.104
			c3.89,2.246,10.175,2.257,14.039,0.026c3.865-2.231,3.846-5.86-0.044-8.105C46.357,53.423,40.072,53.411,36.207,55.643"/>
		<path clip-path="url(#SVGID_4_)" fill="#F7C74C" d="M37.104,56.16c-3.373,1.947-3.354,5.113,0.038,7.073
			c3.395,1.959,8.878,1.969,12.251,0.021c3.372-1.946,3.355-5.113-0.039-7.072C45.961,54.223,40.477,54.214,37.104,56.16"/>
		<path clip-path="url(#SVGID_4_)" fill="#E3B84C" d="M49.354,56.183c-3.394-1.959-8.878-1.969-12.25-0.022
			c-2.72,1.57-3.23,3.934-1.549,5.817c-0.923-1.624-0.282-3.474,1.943-4.759c3.156-1.821,8.289-1.813,11.465,0.021
			c2.259,1.304,2.91,3.179,1.967,4.809C52.641,60.165,52.113,57.774,49.354,56.183"/>
		<path clip-path="url(#SVGID_4_)" fill="#E3B84C" d="M47.073,59.646c1.096,0.633,0.948,1.521-0.092,2.298l1.362,0.119v0.668
			l-0.938,0.541l-1.354-0.781c-1.003,0.458-2.247,0.726-3.414,0.761l-0.547-0.927c0.05-0.002-0.05-0.665,0-0.668
			c1.239-0.06,2.59,0.305,3.273-0.089c0.71-0.41,0.869-0.811,0.403-1.079c-1.393-0.804-4.161,1.708-6.534,0.339
			c-1.02-0.589-0.958-1.438,0.092-2.221l-1.286-0.743v-0.667l2.215,0.863c0.806-0.378,2.366-0.373,3.249-0.477v0.667
			c-1.139,0.164-2.125,0.48-2.637,0.775c-0.596,0.345-0.767,0.695-0.355,0.932C41.864,60.739,44.691,58.261,47.073,59.646"/>
		<path clip-path="url(#SVGID_4_)" fill="#FFE572" d="M47.073,58.979c1.096,0.634,0.948,1.521-0.092,2.299l1.362,0.786l-0.938,0.541
			l-1.354-0.781c-1.003,0.459-2.247,0.726-3.414,0.762l-0.547-0.928c1.292-0.041,2.563-0.347,3.273-0.757
			c0.71-0.409,0.869-0.81,0.403-1.079c-1.393-0.804-4.161,1.709-6.534,0.339c-1.02-0.589-0.958-1.438,0.092-2.221l-1.286-0.742
			l0.928-0.547l1.287,0.742c0.806-0.377,1.772-0.639,2.654-0.74l0.595,0.933c-1.139,0.162-2.125,0.479-2.637,0.774
			c-0.596,0.345-0.767,0.694-0.355,0.932C41.864,60.071,44.691,57.593,47.073,58.979"/>
		<g clip-path="url(#SVGID_4_)">
			<g>
				<defs>
					<rect id="SVGID_9_" x="45.385" y="41.994" width="20.394" height="11.774"/>
				</defs>
				<clipPath id="SVGID_10_">
					<use xlink:href="#SVGID_9_"  overflow="visible"/>
				</clipPath>
				<path clip-path="url(#SVGID_10_)" fill="#BECDD4" d="M48.349,43.705c-3.97,2.292-3.949,6.02,0.045,8.326
					c3.995,2.306,10.451,2.317,14.421,0.025s3.949-6.02-0.046-8.325C58.775,41.425,52.318,41.413,48.349,43.705"/>
			</g>
		</g>
		<path clip-path="url(#SVGID_4_)" fill="#E3B84C" d="M46.229,44.718v1.668l0.024,0.856c0.069,1.458,1.051,2.908,2.985,4.025
			c3.993,2.305,10.45,2.317,14.42,0.026c1.827-1.056,2.769-2.416,2.906-3.801l0.058-0.666v-2.283L46.229,44.718z"/>
		<path clip-path="url(#SVGID_4_)" fill="#F7C74C" d="M49.192,40.481c-3.97,2.292-3.949,6.02,0.046,8.325
			c3.994,2.307,10.45,2.318,14.42,0.026s3.949-6.02-0.045-8.325C59.619,38.201,53.162,38.189,49.192,40.481"/>
		<path clip-path="url(#SVGID_4_)" fill="#FFE572" d="M49.289,40.479c-3.865,2.231-3.845,5.86,0.044,8.105
			s10.174,2.257,14.039,0.025c3.864-2.23,3.845-5.859-0.044-8.105C59.439,38.259,53.154,38.249,49.289,40.479"/>
		<path clip-path="url(#SVGID_4_)" fill="#F7C74C" d="M50.186,40.997c-3.372,1.947-3.354,5.113,0.039,7.072s8.878,1.97,12.25,0.022
			c3.372-1.948,3.355-5.113-0.039-7.073C59.043,39.06,53.559,39.05,50.186,40.997"/>
		<path clip-path="url(#SVGID_4_)" fill="#E3B84C" d="M62.437,41.02c-3.395-1.96-8.878-1.97-12.25-0.022
			c-2.72,1.57-3.231,3.933-1.549,5.816c-0.923-1.623-0.282-3.474,1.942-4.758c3.156-1.822,8.289-1.813,11.464,0.021
			c2.261,1.305,2.911,3.179,1.969,4.81C65.722,45.001,65.194,42.611,62.437,41.02"/>
		<path clip-path="url(#SVGID_4_)" fill="#E3B84C" d="M57.393,47.647c-1.096,0.633-2.646,0.542-4.006-0.067l-1.362,0.786
			l-0.949-0.548V47.15l1.353-0.113c-0.807-0.586-1.278-1.311-1.349-1.989V44.38l1.614,0.355c0.08,0.751,0.619,1.491,1.339,1.907
			c0.719,0.415,1.416,0.51,1.883,0.24c1.392-0.803-3.003-2.428-0.631-3.798c1.021-0.589,2.501-0.547,3.87,0.068l1.287-0.743
			l0.959-0.125v0.667l-1.286,0.743c0.631,0.448,1.108,0.386,1.309,0.88c0.01,0.024-0.01,0.644,0,0.668L59.8,45.582
			c-0.29-0.662-0.849-1.237-1.365-1.536c-0.606-0.35-1.217-0.45-1.627-0.214C55.454,44.614,59.794,46.271,57.393,47.647"/>
		<path clip-path="url(#SVGID_4_)" fill="#FFE572" d="M57.393,46.979c-1.096,0.633-2.646,0.542-4.006-0.067l-1.362,0.786
			l-0.949-0.548l1.353-0.781c-0.807-0.586-1.278-1.311-1.349-1.989l1.614-0.312c0.08,0.751,0.619,1.491,1.339,1.906
			c0.719,0.415,1.416,0.511,1.883,0.241c1.392-0.804-3.003-2.429-0.631-3.799c1.021-0.588,2.501-0.547,3.87,0.068l1.287-0.742
			l0.959,0.542l-1.286,0.742c0.662,0.471,1.124,1.034,1.309,1.548l-1.623,0.34c-0.29-0.664-0.849-1.238-1.365-1.538
			c-0.606-0.348-1.217-0.448-1.627-0.212C55.454,43.946,59.794,45.604,57.393,46.979"/>
		<path clip-path="url(#SVGID_4_)" fill="#E3B84C" d="M46.229,41.766v1.667l0.024,0.857c0.069,1.458,1.051,2.908,2.985,4.025
			c3.993,2.306,10.45,2.317,14.42,0.026c1.827-1.055,2.769-2.417,2.906-3.801l0.058-0.666v-2.283L46.229,41.766z"/>
		<path clip-path="url(#SVGID_4_)" fill="#F7C74C" d="M49.192,37.529c-3.97,2.292-3.949,6.02,0.046,8.325
			c3.994,2.307,10.45,2.318,14.42,0.026s3.949-6.02-0.045-8.325C59.619,35.249,53.162,35.237,49.192,37.529"/>
		<path clip-path="url(#SVGID_4_)" fill="#FFE572" d="M49.289,37.526c-3.865,2.231-3.845,5.86,0.044,8.104
			c3.889,2.246,10.174,2.258,14.039,0.026c3.864-2.231,3.845-5.86-0.044-8.105S53.154,35.295,49.289,37.526"/>
		<path clip-path="url(#SVGID_4_)" fill="#F7C74C" d="M50.186,38.045c-3.372,1.946-3.354,5.113,0.039,7.072s8.878,1.969,12.25,0.022
			c3.372-1.947,3.355-5.113-0.039-7.073C59.043,36.108,53.559,36.098,50.186,38.045"/>
		<path clip-path="url(#SVGID_4_)" fill="#E3B84C" d="M62.437,38.066c-3.395-1.959-8.878-1.969-12.25-0.021
			c-2.72,1.569-3.231,3.932-1.549,5.815c-0.923-1.623-0.282-3.474,1.942-4.758c3.156-1.822,8.289-1.813,11.464,0.021
			c2.261,1.305,2.911,3.179,1.969,4.809C65.722,42.049,65.194,39.659,62.437,38.066"/>
		<path clip-path="url(#SVGID_4_)" fill="#E3B84C" d="M57.393,44.695c-1.096,0.633-2.646,0.541-4.006-0.068l-1.362,0.787
			l-0.949-0.549v-0.667l1.353-0.114c-0.807-0.586-1.278-1.31-1.349-1.989v-0.667l1.614,0.355c0.08,0.751,0.619,1.491,1.339,1.907
			c0.719,0.415,1.416,0.51,1.883,0.24c1.392-0.804-3.003-2.428-0.631-3.797c1.021-0.59,2.501-0.548,3.87,0.067l1.287-0.743
			l0.959-0.125V40l-1.286,0.743c0.631,0.448,1.108,0.386,1.309,0.88c0.01,0.024-0.01,0.644,0,0.667L59.8,42.63
			c-0.29-0.662-0.849-1.237-1.365-1.537c-0.606-0.349-1.217-0.449-1.627-0.213C55.454,41.661,59.794,43.319,57.393,44.695"/>
		<path clip-path="url(#SVGID_4_)" fill="#FFE572" d="M57.393,44.027c-1.096,0.633-2.646,0.542-4.006-0.067l-1.362,0.786
			l-0.949-0.548l1.353-0.781c-0.807-0.586-1.278-1.311-1.349-1.989l1.614-0.312c0.08,0.751,0.619,1.491,1.339,1.906
			c0.719,0.415,1.416,0.51,1.883,0.241c1.392-0.804-3.003-2.429-0.631-3.798c1.021-0.59,2.501-0.548,3.87,0.067l1.287-0.743
			l0.959,0.543l-1.286,0.742c0.662,0.471,1.124,1.034,1.309,1.548L59.8,41.962c-0.29-0.662-0.849-1.237-1.365-1.536
			c-0.606-0.349-1.217-0.449-1.627-0.213C55.454,40.994,59.794,42.652,57.393,44.027"/>
		<g clip-path="url(#SVGID_4_)">
			<g>
				<defs>
					<rect id="SVGID_11_" x="22.107" y="43.585" width="20.393" height="11.774"/>
				</defs>
				<clipPath id="SVGID_12_">
					<use xlink:href="#SVGID_11_"  overflow="visible"/>
				</clipPath>
				<path clip-path="url(#SVGID_12_)" fill="#BECDD4" d="M25.071,45.296c-3.97,2.292-3.949,6.02,0.045,8.326
					c3.995,2.306,10.451,2.317,14.42,0.025c3.97-2.291,3.949-6.019-0.046-8.325C35.497,43.016,29.041,43.004,25.071,45.296"/>
			</g>
		</g>
		<path clip-path="url(#SVGID_4_)" fill="#E3B84C" d="M22.951,46.309v1.668l0.024,0.856c0.069,1.458,1.051,2.908,2.985,4.025
			c3.994,2.305,10.451,2.318,14.42,0.026c1.827-1.056,2.769-2.416,2.906-3.801l0.058-0.666v-2.282L22.951,46.309z"/>
		<path clip-path="url(#SVGID_4_)" fill="#F7C74C" d="M25.915,42.072c-3.97,2.292-3.949,6.02,0.045,8.325
			c3.995,2.307,10.451,2.318,14.42,0.026s3.949-6.02-0.046-8.325C36.341,39.792,29.884,39.78,25.915,42.072"/>
		<path clip-path="url(#SVGID_4_)" fill="#FFE572" d="M26.011,42.07c-3.864,2.23-3.845,5.859,0.044,8.104
			c3.889,2.246,10.175,2.257,14.039,0.025c3.865-2.23,3.845-5.858-0.044-8.105C36.16,39.85,29.875,39.839,26.011,42.07"/>
		<path clip-path="url(#SVGID_4_)" fill="#F7C74C" d="M26.908,42.588c-3.372,1.947-3.355,5.113,0.038,7.072
			c3.394,1.96,8.879,1.97,12.251,0.022c3.372-1.948,3.354-5.114-0.039-7.073S30.28,40.641,26.908,42.588"/>
		<path clip-path="url(#SVGID_4_)" fill="#E3B84C" d="M39.158,42.61c-3.395-1.96-8.878-1.97-12.25-0.022
			c-2.72,1.57-3.231,3.933-1.549,5.816c-0.923-1.623-0.282-3.474,1.943-4.758c3.156-1.822,8.289-1.813,11.465,0.021
			c2.259,1.305,2.909,3.179,1.967,4.81C42.444,46.592,41.916,44.202,39.158,42.61"/>
		<path clip-path="url(#SVGID_4_)" fill="#E3B84C" d="M34.114,49.238c-1.095,0.633-2.646,0.542-4.006-0.067l-1.362,0.786
			l-0.949-0.548v-0.668l1.353-0.113c-0.807-0.586-1.279-1.311-1.349-1.989v-0.668l1.614,0.356c0.08,0.751,0.619,1.491,1.339,1.906
			c0.718,0.415,1.416,0.51,1.883,0.24c1.391-0.803-3.003-2.428-0.631-3.798c1.02-0.589,2.5-0.547,3.871,0.068l1.286-0.743
			l0.959-0.125v0.668l-1.286,0.742c0.631,0.448,1.108,0.386,1.309,0.88c0.011,0.024-0.009,0.644,0,0.668l-1.623,0.339
			c-0.29-0.663-0.849-1.237-1.365-1.536c-0.605-0.35-1.217-0.45-1.626-0.213C32.176,46.205,36.516,47.862,34.114,49.238"/>
		<path clip-path="url(#SVGID_4_)" fill="#FFE572" d="M34.114,48.57c-1.095,0.633-2.646,0.542-4.006-0.067l-1.362,0.786
			l-0.949-0.548l1.353-0.781c-0.807-0.586-1.279-1.311-1.349-1.989l1.614-0.312c0.08,0.751,0.619,1.491,1.339,1.906
			c0.718,0.416,1.416,0.511,1.883,0.241c1.391-0.804-3.003-2.428-0.631-3.798c1.02-0.589,2.5-0.548,3.871,0.067l1.286-0.742
			l0.959,0.542l-1.286,0.743c0.662,0.47,1.124,1.033,1.309,1.547l-1.623,0.34c-0.29-0.663-0.849-1.238-1.365-1.537
			c-0.605-0.349-1.217-0.449-1.626-0.213C32.176,45.537,36.516,47.195,34.114,48.57"/>
		<path clip-path="url(#SVGID_4_)" fill="#E3B84C" d="M22.951,43.356v1.668l0.024,0.856c0.069,1.458,1.051,2.908,2.985,4.025
			c3.994,2.306,10.451,2.317,14.42,0.026c1.827-1.056,2.769-2.416,2.906-3.801l0.058-0.666v-2.283L22.951,43.356z"/>
		<path clip-path="url(#SVGID_4_)" fill="#F7C74C" d="M25.915,39.12c-3.97,2.292-3.949,6.021,0.045,8.325
			c3.995,2.307,10.451,2.318,14.42,0.026s3.949-6.02-0.046-8.325C36.341,36.84,29.884,36.828,25.915,39.12"/>
		<path clip-path="url(#SVGID_4_)" fill="#FFE572" d="M26.011,39.117c-3.864,2.23-3.845,5.86,0.044,8.104
			c3.889,2.246,10.175,2.258,14.039,0.026c3.865-2.231,3.845-5.86-0.044-8.105C36.16,36.897,29.875,36.887,26.011,39.117"/>
		<path clip-path="url(#SVGID_4_)" fill="#F7C74C" d="M26.908,39.636c-3.372,1.946-3.355,5.113,0.038,7.072
			c3.394,1.959,8.879,1.97,12.251,0.022s3.354-5.113-0.039-7.073C35.765,37.699,30.28,37.688,26.908,39.636"/>
		<path clip-path="url(#SVGID_4_)" fill="#E3B84C" d="M39.158,39.657c-3.395-1.959-8.878-1.969-12.25-0.021
			c-2.72,1.569-3.231,3.932-1.549,5.815c-0.923-1.623-0.282-3.474,1.943-4.758c3.156-1.822,8.289-1.813,11.465,0.021
			c2.259,1.305,2.909,3.179,1.967,4.81C42.444,43.64,41.916,41.25,39.158,39.657"/>
		<path clip-path="url(#SVGID_4_)" fill="#E3B84C" d="M34.114,46.286c-1.095,0.633-2.646,0.542-4.006-0.067l-1.362,0.786
			l-0.949-0.548v-0.668l1.353-0.113c-0.807-0.586-1.279-1.311-1.349-1.989v-0.668l1.614,0.355c0.08,0.751,0.619,1.491,1.339,1.907
			c0.718,0.415,1.416,0.51,1.883,0.24c1.391-0.803-3.003-2.428-0.631-3.797c1.02-0.59,2.5-0.548,3.871,0.067l1.286-0.743
			l0.959-0.125v0.667l-1.286,0.743c0.631,0.448,1.108,0.386,1.309,0.88c0.011,0.024-0.009,0.644,0,0.668l-1.623,0.339
			c-0.29-0.662-0.849-1.237-1.365-1.536c-0.605-0.35-1.217-0.45-1.626-0.214C32.176,43.252,36.516,44.91,34.114,46.286"/>
		<path clip-path="url(#SVGID_4_)" fill="#FFE572" d="M34.114,45.618c-1.095,0.633-2.646,0.542-4.006-0.067l-1.362,0.786
			l-0.949-0.548l1.353-0.781c-0.807-0.586-1.279-1.311-1.349-1.989l1.614-0.312c0.08,0.751,0.619,1.491,1.339,1.906
			c0.718,0.415,1.416,0.51,1.883,0.241c1.391-0.804-3.003-2.428-0.631-3.799c1.02-0.589,2.5-0.547,3.871,0.068l1.286-0.743
			l0.959,0.543l-1.286,0.742c0.662,0.471,1.124,1.034,1.309,1.548l-1.623,0.34c-0.29-0.663-0.849-1.238-1.365-1.537
			c-0.605-0.349-1.217-0.449-1.626-0.213C32.176,42.585,36.516,44.243,34.114,45.618"/>
		<path clip-path="url(#SVGID_4_)" fill="#E3B84C" d="M22.951,40.404v1.667l0.024,0.855c0.069,1.46,1.051,2.91,2.985,4.027
			c3.994,2.305,10.451,2.317,14.42,0.026c1.827-1.056,2.769-2.416,2.906-3.802l0.058-0.665V40.23L22.951,40.404z"/>
		<path clip-path="url(#SVGID_4_)" fill="#F7C74C" d="M25.915,36.168c-3.97,2.292-3.949,6.02,0.045,8.325
			c3.995,2.307,10.451,2.318,14.42,0.026s3.949-6.02-0.046-8.326C36.341,33.888,29.884,33.876,25.915,36.168"/>
		<path clip-path="url(#SVGID_4_)" fill="#FFE572" d="M26.011,36.165c-3.864,2.231-3.845,5.86,0.044,8.105
			c3.889,2.245,10.175,2.257,14.039,0.025c3.865-2.231,3.845-5.859-0.044-8.105C36.16,33.945,29.875,33.934,26.011,36.165"/>
		<path clip-path="url(#SVGID_4_)" fill="#F7C74C" d="M26.908,36.684c-3.372,1.946-3.355,5.113,0.038,7.072
			c3.394,1.959,8.879,1.969,12.251,0.022c3.372-1.948,3.354-5.115-0.039-7.074C35.765,34.747,30.28,34.736,26.908,36.684"/>
		<path clip-path="url(#SVGID_4_)" fill="#E3B84C" d="M39.158,36.705c-3.395-1.959-8.878-1.969-12.25-0.021
			c-2.72,1.57-3.231,3.933-1.549,5.816c-0.923-1.623-0.282-3.474,1.943-4.758c3.156-1.822,8.289-1.813,11.465,0.021
			c2.259,1.305,2.909,3.179,1.967,4.809C42.444,40.688,41.916,38.298,39.158,36.705"/>
		<path clip-path="url(#SVGID_4_)" fill="#E3B84C" d="M34.114,43.334c-1.095,0.633-2.646,0.541-4.006-0.068l-1.362,0.787
			l-0.949-0.549v-0.667l1.353-0.114c-0.807-0.586-1.279-1.31-1.349-1.989v-0.667l1.614,0.355c0.08,0.751,0.619,1.491,1.339,1.906
			c0.718,0.416,1.416,0.511,1.883,0.241c1.391-0.804-3.003-2.428-0.631-3.798c1.02-0.589,2.5-0.547,3.871,0.067l1.286-0.742
			l0.959-0.125v0.667l-1.286,0.743c0.631,0.448,1.108,0.386,1.309,0.88c0.011,0.024-0.009,0.644,0,0.667l-1.623,0.34
			c-0.29-0.663-0.849-1.237-1.365-1.538c-0.605-0.348-1.217-0.448-1.626-0.212C32.176,40.3,36.516,41.958,34.114,43.334"/>
		<path clip-path="url(#SVGID_4_)" fill="#FFE572" d="M34.114,42.666c-1.095,0.633-2.646,0.542-4.006-0.067l-1.362,0.786
			l-0.949-0.548l1.353-0.781c-0.807-0.586-1.279-1.311-1.349-1.989l1.614-0.312c0.08,0.751,0.619,1.491,1.339,1.906
			c0.718,0.415,1.416,0.51,1.883,0.241c1.391-0.804-3.003-2.429-0.631-3.798c1.02-0.59,2.5-0.548,3.871,0.067l1.286-0.743
			l0.959,0.543l-1.286,0.742c0.662,0.471,1.124,1.034,1.309,1.548l-1.623,0.339c-0.29-0.662-0.849-1.237-1.365-1.536
			c-0.605-0.349-1.217-0.449-1.626-0.213C32.176,39.633,36.516,41.291,34.114,42.666"/>
	</g>
</g>
</svg>
