<?xml version="1.0" encoding="utf-8"?>
<!-- Generator: Adobe Illustrator 16.0.0, SVG Export Plug-In . SVG Version: 6.00 Build 0)  -->
<!DOCTYPE svg PUBLIC "-//W3C//DTD SVG 1.1//EN" "http://www.w3.org/Graphics/SVG/1.1/DTD/svg11.dtd">
<svg version="1.1" id="Layer_1" xmlns="http://www.w3.org/2000/svg" xmlns:xlink="http://www.w3.org/1999/xlink" x="0px" y="0px"
	 width="118.447px" height="94.519px" viewBox="0 0 118.447 94.519" enable-background="new 0 0 118.447 94.519"
	 xml:space="preserve">
<g>
	<defs>
		<rect id="SVGID_1_" width="118.447" height="94.519"/>
	</defs>
	<clipPath id="SVGID_2_">
		<use xlink:href="#SVGID_1_"  overflow="visible"/>
	</clipPath>
	<g clip-path="url(#SVGID_2_)">
		<defs>
			<rect id="SVGID_3_" y="0" width="118.447" height="94.518"/>
		</defs>
		<clipPath id="SVGID_4_">
			<use xlink:href="#SVGID_3_"  overflow="visible"/>
		</clipPath>
		<g clip-path="url(#SVGID_4_)">
			<g>
				<defs>
					<rect id="SVGID_5_" x="20.241" y="47.505" width="81.43" height="47.014"/>
				</defs>
				<clipPath id="SVGID_6_">
					<use xlink:href="#SVGID_5_"  overflow="visible"/>
				</clipPath>
				<path clip-path="url(#SVGID_6_)" fill="#BECDD4" d="M22.837,72.692l41.029-23.688c3.447-1.99,9.069-2,12.493-0.022
					l22.755,13.137c3.425,1.978,3.408,5.223-0.039,7.214L58.045,93.02c-3.445,1.989-9.067,1.999-12.492,0.023L22.798,79.905
					C19.373,77.927,19.391,74.682,22.837,72.692"/>
			</g>
		</g>
		<path clip-path="url(#SVGID_4_)" fill="#3A3D46" d="M96.409,66.122c0-0.405-0.286-0.898-0.639-1.102
			c-0.171-0.099-0.324-0.107-0.438-0.048L95.33,64.97l-0.009,0.005l-0.003,0.001L95.2,65.044l-0.002-0.003L55.409,88.01
			l-0.004,0.002l-0.013,0.007l0.002,0.005c-0.106,0.07-0.174,0.203-0.174,0.397c0,0.403,0.286,0.896,0.638,1.1
			c0.142,0.082,0.266,0.09,0.372,0.062l0.007,0.014l0.037-0.022c0.007-0.003,0.017-0.001,0.024-0.004l0.001,0.003l0.008-0.006
			c0,0,0.002-0.001,0.003-0.001l17.909-10.343l22.002-12.691c0.002,0,0.002-0.001,0.003-0.002l0.013-0.008l-0.002-0.004
			C96.342,66.448,96.409,66.314,96.409,66.122"/>
		<path clip-path="url(#SVGID_4_)" fill="#3A3D46" d="M68.831,49.745c0-0.405-0.286-0.898-0.639-1.102
			c-0.171-0.099-0.324-0.107-0.439-0.049l-0.002-0.002l-0.008,0.005l-0.004,0.001l-0.118,0.068l-0.001-0.003l-39.79,22.969
			c0,0-0.003,0.002-0.004,0.002l-0.014,0.007l0.003,0.005c-0.106,0.07-0.174,0.203-0.174,0.396c0,0.405,0.286,0.897,0.638,1.101
			c0.142,0.082,0.266,0.09,0.371,0.062l0.008,0.014l0.037-0.022c0.007-0.003,0.016-0.001,0.023-0.004l0.002,0.003l0.008-0.006
			c0,0,0.002-0.001,0.003-0.001l17.909-10.343l22.002-12.691c0.001-0.001,0.002-0.001,0.003-0.002l0.013-0.008l-0.003-0.004
			C68.764,50.071,68.831,49.938,68.831,49.745"/>
		<polygon clip-path="url(#SVGID_4_)" fill="#C99A6B" points="63.002,79.055 82.997,67.509 82.997,48.455 63.002,59.999 		"/>
		<polygon clip-path="url(#SVGID_4_)" fill="#AE835B" points="63.002,79.055 43.006,67.509 43.006,48.455 63.002,59.999 		"/>
		<polygon clip-path="url(#SVGID_4_)" fill="#E8B687" points="63.002,60 43.006,48.455 63.002,36.912 82.997,48.455 		"/>
		<polygon clip-path="url(#SVGID_4_)" fill="#9C754E" points="54.414,64.105 51.2,62.251 51.2,53.187 54.414,55.041 		"/>
		<g clip-path="url(#SVGID_4_)">
			<g>
				<defs>
					<rect id="SVGID_7_" x="51.201" y="41.642" width="23.208" height="13.399"/>
				</defs>
				<clipPath id="SVGID_8_">
					<use xlink:href="#SVGID_7_"  overflow="visible"/>
				</clipPath>
				<polygon clip-path="url(#SVGID_8_)" fill="#54493E" points="54.414,55.041 74.408,43.497 71.195,41.642 51.2,53.187 				"/>
			</g>
		</g>
		<polygon clip-path="url(#SVGID_4_)" fill="#87623F" points="43.006,48.455 63.002,59.999 52.212,54.228 		"/>
		<polygon clip-path="url(#SVGID_4_)" fill="#D1A986" points="52.927,54.184 72.922,42.639 72.701,42.511 52.706,54.057 		"/>
		<path clip-path="url(#SVGID_4_)" fill="#87623F" d="M61.686,65.686l-4.219-2.437v-4.844l4.219,2.437V65.686z M57.744,63.089
			l3.665,2.116v-4.203l-3.665-2.116V63.089z"/>
		<polygon clip-path="url(#SVGID_4_)" fill="#87623F" points="60.041,64.135 59.11,63.598 59.11,61.157 60.041,61.695 		"/>
		<polygon clip-path="url(#SVGID_4_)" fill="#87623F" points="60.956,62.688 58.195,61.094 59.575,60.226 		"/>
		<g clip-path="url(#SVGID_4_)">
			<g>
				<defs>
					<rect id="SVGID_9_" x="43.007" y="36.911" width="39.99" height="39.9"/>
				</defs>
				<clipPath id="SVGID_10_">
					<use xlink:href="#SVGID_9_"  overflow="visible"/>
				</clipPath>
				<path clip-path="url(#SVGID_10_)" fill="#DBD9D0" d="M82.997,59.516l-11.773,7.247c0,0,2.655,4.072-0.34,5.947
					c-2.995,1.874-7.882,4.101-7.882,4.101V60L43.006,48.455l19.996-11.543l19.995,11.543V59.516z"/>
			</g>
		</g>
		<path clip-path="url(#SVGID_4_)" fill="#3A3D46" d="M68.65,81.372h-1.526V68.915c0-5.169-3.666-11.492-8.172-14.095l-10.97-6.333
			c-2.039-1.178-3.921-1.387-5.297-0.594c-1.361,0.787-2.111,2.495-2.111,4.811v12.458h-1.527V52.704
			c0-2.885,1.021-5.062,2.875-6.132c1.87-1.079,4.293-0.868,6.824,0.593l10.969,6.333c4.928,2.846,8.936,9.761,8.936,15.417V81.372z
			"/>
		<path clip-path="url(#SVGID_4_)" fill="#3A3D46" d="M68.425,81.062c-0.299-0.174-0.781-0.175-1.08-0.002
			c-0.297,0.172-0.296,0.449,0.004,0.623c0.3,0.173,0.782,0.174,1.08,0.002S68.725,81.234,68.425,81.062"/>
		<path clip-path="url(#SVGID_4_)" fill="#3A3D46" d="M86.513,70.701c-0.299-0.174-0.782-0.175-1.08-0.002
			c-0.298,0.172-0.296,0.45,0.003,0.624c0.301,0.173,0.783,0.173,1.08,0.002C86.814,71.152,86.812,70.874,86.513,70.701"/>
		<path clip-path="url(#SVGID_4_)" fill="#3A3D46" d="M86.738,71.012h-1.526V58.555c0-5.17-3.666-11.493-8.175-14.094l-10.969-6.333
			c-2.038-1.177-3.922-1.389-5.297-0.594c-1.361,0.787-2.112,2.495-2.112,4.81v12.458h-1.527V42.343
			c0-2.884,1.021-5.061,2.876-6.132c1.869-1.079,4.292-0.868,6.824,0.593l10.969,6.334c4.927,2.844,8.937,9.759,8.937,15.417V71.012
			z"/>
		<path clip-path="url(#SVGID_4_)" fill="#B6B3C8" d="M17.166,38.901c-1.958,1.131-5.144,1.125-7.115-0.013
			c-1.971-1.138-1.981-2.977-0.022-4.108c1.958-1.13,5.144-1.125,7.115,0.013C19.114,35.932,19.125,37.771,17.166,38.901"/>
		<polygon clip-path="url(#SVGID_4_)" fill="#B6B3C8" points="7.549,33.565 8.667,37.403 18.391,37.739 19.634,33.57 		"/>
		<path clip-path="url(#SVGID_4_)" fill="#B6B3C8" d="M60.515,13.874c-1.958,1.131-5.144,1.125-7.115-0.013
			c-1.971-1.138-1.981-2.977-0.022-4.108c1.958-1.13,5.144-1.125,7.115,0.013C62.463,10.904,62.474,12.743,60.515,13.874"/>
		<polygon clip-path="url(#SVGID_4_)" fill="#B6B3C8" points="50.96,8.8 52.006,12.347 61.898,12.347 62.942,8.8 		"/>
		<polygon clip-path="url(#SVGID_4_)" fill="#B6B3C8" points="59.202,12.759 62.651,29.184 52.241,35.194 54.862,13.288 		"/>
		<polygon clip-path="url(#SVGID_4_)" fill="#B6B3C8" points="18.391,37.739 40.932,41.723 51.343,35.712 17.426,34.901 		"/>
		<path clip-path="url(#SVGID_4_)" fill="#F4F3FD" d="M61.236,10.799c-2.354,1.359-6.185,1.353-8.554-0.016
			c-2.369-1.367-2.381-3.578-0.026-4.938c2.354-1.359,6.184-1.352,8.553,0.016C63.579,7.229,63.591,9.44,61.236,10.799"/>
		<path clip-path="url(#SVGID_4_)" fill="#EAE9FB" d="M52.881,5.792c-2.231,1.288-2.22,3.383,0.025,4.68
			c2.246,1.296,5.874,1.303,8.105,0.014c2.231-1.288,2.221-3.383-0.025-4.679C58.741,4.51,55.112,4.504,52.881,5.792"/>
		<polygon clip-path="url(#SVGID_4_)" fill="#EAE9FB" points="59.453,12.55 62.651,25.041 56.946,26.969 52.241,31.051 
			54.755,12.864 56.882,11.851 		"/>
		<polygon clip-path="url(#SVGID_4_)" fill="#F4F3FD" points="56.947,26.969 56.883,11.851 54.755,12.865 52.241,31.051 		"/>
		<polygon clip-path="url(#SVGID_4_)" fill="#EAE9FB" points="18.327,36.316 40.932,37.58 45.457,32.385 51.343,31.569 
			19.634,33.57 		"/>
		<polygon clip-path="url(#SVGID_4_)" fill="#F4F3FD" points="45.457,32.385 19.298,34.604 18.326,36.316 40.933,37.581 		"/>
		<path clip-path="url(#SVGID_4_)" fill="#6B6164" d="M55.231,7.331c-0.942,0.544-0.937,1.428,0.011,1.976
			c0.947,0.546,2.479,0.549,3.421,0.005c0.941-0.543,0.936-1.427-0.011-1.975C57.705,6.79,56.172,6.788,55.231,7.331"/>
		<path clip-path="url(#SVGID_4_)" fill="#D2D0DD" d="M90.229,37.722c0,0.2-0.013,0.4-0.034,0.604
			c-0.226,2.03-1.593,4.104-4.049,5.522l-9.633,3.848l-9.586,7.249c-4.933,2.847-12.464,3.16-16.734,0.694l-9.214-5.318
			c-1.674-0.967-2.609-2.4-2.828-3.958c-0.038-0.241-0.054-0.485-0.054-0.732c0-1.22,0.423-2.484,1.252-3.632
			c0.676-0.936,1.62-1.796,2.831-2.494l1.771-1.023L57.73,30.53l3.672-2.121c4.932-2.848,12.462-3.161,16.735-0.695l7.843,4.53
			l1.367,0.789c0.684,0.394,1.239,0.863,1.671,1.385C89.833,35.385,90.229,36.534,90.229,37.722"/>
		<polygon clip-path="url(#SVGID_4_)" fill="#B6B3C8" points="108.946,40.338 76.986,45.338 76.986,47.507 71.936,50.376 
			108.031,43.985 		"/>
		<polygon clip-path="url(#SVGID_4_)" fill="#B6B3C8" points="66.255,66.127 65.678,56.011 65.678,51.867 76.089,45.856 
			76.986,47.507 70.595,65.599 		"/>
		<polygon clip-path="url(#SVGID_4_)" fill="#D2D0DD" points="90.229,31.612 90.229,38.313 90.195,38.326 78.126,43.028 
			76.574,43.632 59.992,50.089 59.789,50.168 59.591,50.134 59.588,50.134 49.95,48.438 38.152,46.363 38.098,46.354 38.098,39.353 
			38.111,39.349 43.952,38.482 66.262,35.172 85.98,32.244 90.217,31.615 		"/>
		<path clip-path="url(#SVGID_4_)" fill="#EAE9FB" d="M90.217,31.615c-0.067,0.938-0.47,1.896-1.197,2.803
			c-0.276,0.351-0.604,0.695-0.98,1.027c-0.409,0.362-6.929,5.318-9.914,7.583c-0.894,0.676-1.471,1.114-1.471,1.114
			s-11.509,4.651-12.489,4.993c-1.329,0.463-2.743,0.778-4.174,0.954c-0.133,0.016-0.265,0.031-0.4,0.044h-0.003
			c-3.47,0.354-6.961-0.15-9.394-1.556l-0.245-0.141L40.98,43.26c-0.658-0.379-1.201-0.804-1.63-1.261
			c-0.764-0.804-1.174-1.712-1.239-2.65c-0.148-1.984,1.239-4.114,4.07-5.751l10.932-4.36l8.29-6.736
			c4.93-2.847,12.46-3.16,16.734-0.695l9.21,5.319C89.404,28.314,90.345,29.936,90.217,31.615"/>
		<g clip-path="url(#SVGID_4_)">
			<g>
				<defs>
					<rect id="SVGID_11_" x="38.098" y="29.109" width="38.557" height="28.193"/>
				</defs>
				<clipPath id="SVGID_12_">
					<use xlink:href="#SVGID_11_"  overflow="visible"/>
				</clipPath>
				<path clip-path="url(#SVGID_12_)" fill="#464647" d="M76.654,44.142l-0.141,3.554l-9.586,7.249
					c-4.934,2.847-12.463,3.16-16.734,0.695l-9.214-5.319c-1.674-0.967-2.609-2.4-2.828-3.958l-0.054-0.009v-7.002l0.013-0.003
					c-0.147-1.983,1.239-4.114,4.07-5.75l10.932-4.361l2.008-0.129l2.609,1.421l8.532,4.642l9.827,5.347l0.484,3.113L76.654,44.142z
					"/>
			</g>
		</g>
		<path clip-path="url(#SVGID_4_)" fill="#F4F3FD" d="M57.457,46.632c-2.447,0-4.638-0.486-6.169-1.37l-9.212-5.319
			c-0.667-0.385-1.787-1.196-1.787-2.297c0-1.139,1.146-2.508,2.988-3.572l11.843-4.965l7.376-6.131
			c2.272-1.312,5.325-2.064,8.377-2.064c2.447,0,4.639,0.486,6.169,1.37l9.213,5.318c0.667,0.385,1.786,1.197,1.786,2.297
			c0,0.693-0.424,1.471-1.171,2.213c-0.479,0.479-10.78,8.407-10.78,8.407s-12.063,4.951-13.089,5.275
			C61.28,46.337,59.368,46.632,57.457,46.632"/>
		<path clip-path="url(#SVGID_4_)" fill="#F9F8FE" d="M86.254,27.602l-9.212-5.318c-1.165-0.673-2.716-1.112-4.469-1.285
			c1.194,0.23,2.266,0.585,3.118,1.077l9.212,5.318c0.668,0.386,1.788,1.197,1.788,2.298c0,0.692-0.424,1.471-1.17,2.213
			c-0.482,0.478-10.783,8.406-10.783,8.406s-12.062,4.951-13.087,5.275c-1.72,0.543-3.633,0.838-5.545,0.838
			c-0.584,0-1.151-0.031-1.701-0.086c0.949,0.183,1.967,0.294,3.051,0.294c1.912,0,3.824-0.296,5.545-0.839
			c1.025-0.324,13.088-5.274,13.088-5.274s10.302-7.928,10.781-8.406c0.747-0.743,1.171-1.521,1.171-2.214
			C88.041,28.798,86.921,27.988,86.254,27.602"/>
		<polygon clip-path="url(#SVGID_4_)" fill="#EAE9FB" points="106.352,40.172 87.397,39.327 82.845,39.373 76.987,45.339 
			106.844,42.904 		"/>
		<polygon clip-path="url(#SVGID_4_)" fill="#EAE9FB" points="66.255,64.936 65.678,51.867 70.098,46.733 76.089,45.856 
			70.595,64.407 		"/>
		<polygon clip-path="url(#SVGID_4_)" fill="#F4F3FD" points="70.097,46.733 68.39,64.164 66.255,64.936 65.678,51.867 		"/>
		<path clip-path="url(#SVGID_4_)" fill="#C0DDED" d="M62.358,4.416c0.455-0.419,1.024-0.781,1.698-1.079l5.96-2.634
			c0.229-0.101,0.15-0.346-0.169-0.53c-0.253-0.146-0.583-0.209-0.797-0.152l-7.446,1.973c-1.755,0.465-3.049,1.26-3.763,2.312
			l-1.959,2.886L58.01,8.42L62.358,4.416z"/>
		<path clip-path="url(#SVGID_4_)" fill="#ACD1E3" d="M51.535,11.196c-0.455,0.419-1.025,0.781-1.698,1.079l-5.96,2.634
			c-0.229,0.101-0.151,0.345,0.169,0.529c0.253,0.147,0.583,0.21,0.796,0.153l7.447-1.973c1.755-0.465,3.049-1.26,3.763-2.312
			l1.959-2.886l-2.127-1.228L51.535,11.196z"/>
		<path clip-path="url(#SVGID_4_)" fill="#3A3D46" d="M50.771,49.826l-10.157-5.864c-1.05-0.607-1.908-0.117-1.908,1.088v1.368
			c0,1.204,0.858,2.686,1.908,3.292l10.157,5.864c1.05,0.605,1.909,0.116,1.909-1.089v-1.367
			C52.68,51.913,51.821,50.432,50.771,49.826"/>
		<path clip-path="url(#SVGID_4_)" fill="#FF4C4A" d="M47.716,48.749l-2.064-1.19c-0.213-0.124-0.388-0.024-0.388,0.221v0.278
			c0,0.243,0.175,0.546,0.388,0.669l2.064,1.19c0.213,0.124,0.388,0.024,0.388-0.221v-0.278
			C48.104,49.173,47.929,48.873,47.716,48.749"/>
		<path clip-path="url(#SVGID_4_)" fill="#F4F3FD" d="M51.685,55.079l-10.158-5.864c-1.05-0.606-1.908-2.088-1.908-3.292v-1.368
			c0-0.348,0.078-0.627,0.204-0.846c-0.657-0.032-1.117,0.46-1.117,1.341v1.368c0,1.204,0.858,2.686,1.908,3.292l10.157,5.865
			c0.748,0.431,1.392,0.298,1.704-0.243C52.234,55.319,51.967,55.243,51.685,55.079"/>
		<polygon clip-path="url(#SVGID_4_)" fill="#F4F3FD" points="82.845,39.373 106.353,40.511 106.844,42.904 76.987,45.338 		"/>
		<path clip-path="url(#SVGID_4_)" fill="#B6B3C8" d="M65.496,66.797c-1.959,1.131-1.948,2.97,0.021,4.107
			c1.972,1.138,5.158,1.145,7.116,0.013c1.959-1.131,1.948-2.971-0.023-4.107C70.641,65.672,67.454,65.665,65.496,66.797"/>
		<polygon clip-path="url(#SVGID_4_)" fill="#B6B3C8" points="75.098,65.627 73.97,69.521 64.094,69.286 63.047,65.765 		"/>
		<path clip-path="url(#SVGID_4_)" fill="#F4F3FD" d="M64.76,62.889c-2.354,1.359-2.343,3.57,0.026,4.938
			c2.37,1.367,6.2,1.375,8.554,0.016c2.355-1.36,2.342-3.571-0.026-4.938C70.944,61.536,67.114,61.529,64.76,62.889"/>
		<path clip-path="url(#SVGID_4_)" fill="#EAE9FB" d="M65.007,62.836c-2.23,1.289-2.22,3.384,0.025,4.68
			c2.246,1.297,5.874,1.302,8.106,0.014c2.23-1.288,2.22-3.383-0.026-4.679C70.867,61.555,67.238,61.548,65.007,62.836"/>
		<path clip-path="url(#SVGID_4_)" fill="#6B6164" d="M67.334,64.375c-0.941,0.543-0.937,1.428,0.012,1.975
			c0.946,0.548,2.478,0.551,3.421,0.007c0.94-0.544,0.936-1.429-0.012-1.976C69.809,63.834,68.275,63.831,67.334,64.375"/>
		<path clip-path="url(#SVGID_4_)" fill="#ACD1E3" d="M77.052,64.677c0.838-0.107,1.688-0.13,2.53-0.063l7.468,0.582
			c0.285,0.021,0.529-0.183,0.527-0.441c-0.001-0.206-0.158-0.386-0.379-0.433l-7.715-1.653c-1.819-0.39-3.713-0.36-5.51,0.088
			l-4.929,1.228l0.01,1.732L77.052,64.677z"/>
		<path clip-path="url(#SVGID_4_)" fill="#C0DDED" d="M61.047,65.022c-0.837,0.107-1.686,0.13-2.529,0.063l-7.468-0.582
			c-0.285-0.021-0.529,0.183-0.528,0.442c0.002,0.205,0.159,0.385,0.379,0.432l7.716,1.654c1.819,0.389,3.713,0.358,5.509-0.089
			l4.93-1.229l-0.011-1.73L61.047,65.022z"/>
		<path clip-path="url(#SVGID_4_)" fill="#F4F3FD" d="M17.887,35.827c-2.354,1.359-6.184,1.353-8.554-0.016
			c-2.369-1.367-2.381-3.578-0.026-4.938c2.354-1.359,6.184-1.352,8.553,0.016C20.23,32.257,20.241,34.468,17.887,35.827"/>
		<path clip-path="url(#SVGID_4_)" fill="#EAE9FB" d="M9.526,30.873c-2.23,1.288-2.22,3.383,0.025,4.68
			c2.246,1.296,5.875,1.303,8.106,0.014c2.231-1.288,2.221-3.383-0.026-4.679C15.386,29.591,11.757,29.585,9.526,30.873"/>
		<path clip-path="url(#SVGID_4_)" fill="#6B6164" d="M11.881,32.359c-0.942,0.544-0.937,1.428,0.011,1.976
			c0.947,0.546,2.479,0.549,3.421,0.005c0.941-0.543,0.937-1.427-0.011-1.975C14.355,31.818,12.822,31.816,11.881,32.359"/>
		<path clip-path="url(#SVGID_4_)" fill="#ACD1E3" d="M7.692,29.688c-0.729-0.266-1.359-0.597-1.879-0.987l-4.6-3.458
			c-0.177-0.133-0.6-0.089-0.917,0.094c-0.251,0.145-0.358,0.335-0.259,0.459l3.465,4.311c0.816,1.017,2.201,1.769,4.027,2.188
			l5.011,1.149l2.114-1.221L7.692,29.688z"/>
		<path clip-path="url(#SVGID_4_)" fill="#C0DDED" d="M19.502,35.979c0.729,0.266,1.359,0.597,1.879,0.987l4.6,3.458
			c0.176,0.132,0.599,0.089,0.917-0.094c0.25-0.145,0.358-0.335,0.258-0.459l-3.464-4.312c-0.817-1.016-2.202-1.768-4.027-2.187
			l-5.012-1.149l-2.114,1.22L19.502,35.979z"/>
		<path clip-path="url(#SVGID_4_)" fill="#B6B3C8" d="M108.83,41.769c-1.958,1.131-1.947,2.97,0.022,4.108
			c1.971,1.138,5.157,1.143,7.116,0.013c1.959-1.131,1.947-2.97-0.023-4.108C113.976,40.644,110.789,40.638,108.83,41.769"/>
		<polygon clip-path="url(#SVGID_4_)" fill="#B6B3C8" points="107.523,44.53 106.486,40.925 118.448,40.527 117.351,44.363 		"/>
		<path clip-path="url(#SVGID_4_)" fill="#F4F3FD" d="M108.109,37.861c-2.354,1.359-2.343,3.57,0.026,4.938
			c2.37,1.368,6.2,1.375,8.554,0.016c2.355-1.36,2.342-3.571-0.026-4.938C114.294,36.508,110.464,36.502,108.109,37.861"/>
		<path clip-path="url(#SVGID_4_)" fill="#EAE9FB" d="M108.334,37.702c-2.23,1.288-2.221,3.383,0.025,4.68
			c2.246,1.296,5.874,1.302,8.105,0.014c2.23-1.288,2.221-3.383-0.025-4.679C114.193,36.42,110.564,36.414,108.334,37.702"/>
		<path clip-path="url(#SVGID_4_)" fill="#EAE9FB" d="M108.334,37.702c-2.23,1.288-2.221,3.383,0.025,4.68
			c2.246,1.296,5.874,1.302,8.105,0.014c2.23-1.288,2.221-3.383-0.025-4.679C114.193,36.42,110.564,36.414,108.334,37.702"/>
		<path clip-path="url(#SVGID_4_)" fill="#6B6164" d="M110.684,39.347c-0.941,0.543-0.937,1.428,0.011,1.975s2.479,0.55,3.422,0.006
			c0.94-0.544,0.936-1.428-0.012-1.975C113.157,38.806,111.625,38.803,110.684,39.347"/>
		<path clip-path="url(#SVGID_4_)" fill="#C0DDED" d="M112.05,35.2c-0.192-0.484-0.235-0.974-0.127-1.461l0.961-4.308
			c0.037-0.165-0.316-0.307-0.768-0.308c-0.356,0-0.665,0.09-0.746,0.217l-2.815,4.444c-0.664,1.048-0.6,2.142,0.187,3.181
			l2.159,2.854l2.999,0.005L112.05,35.2z"/>
		<path clip-path="url(#SVGID_4_)" fill="#ACD1E3" d="M112.748,44.443c0.193,0.484,0.236,0.974,0.128,1.461l-0.962,4.308
			c-0.036,0.165,0.317,0.307,0.769,0.308c0.355,0,0.666-0.09,0.746-0.217l2.814-4.444c0.664-1.048,0.601-2.142-0.186-3.181
			l-2.159-2.854l-2.999-0.005L112.748,44.443z"/>
		<path clip-path="url(#SVGID_4_)" fill="#BCC3D4" d="M71.469,64.556L71.469,64.556l-0.001-0.002
			c-0.001-0.141-0.042-0.283-0.116-0.419c-0.185-0.557-0.601-1.518-1.384-1.937c-1.135-0.607-1.843-0.004-1.843-0.004
			s-1.422,0.911-1.489,2.281c-0.002,0.026-0.006,0.052-0.005,0.077c0,0.001-0.001,0.002-0.001,0.002l0.001,0.001
			c0.004,0.356,0.241,0.712,0.714,0.984c0.947,0.548,2.479,0.55,3.421,0.007C71.239,65.273,71.472,64.915,71.469,64.556"/>
		<path clip-path="url(#SVGID_4_)" fill="#EEF1FA" d="M70.121,63.177c0.16,0.516-0.011,1.027-0.383,1.144
			c-0.371,0.115-0.803-0.209-0.963-0.726c-0.161-0.517,0.011-1.028,0.382-1.145C69.529,62.335,69.96,62.659,70.121,63.177"/>
		<path clip-path="url(#SVGID_4_)" fill="#BCC3D4" d="M114.818,39.528L114.818,39.528l-0.001-0.002
			c-0.001-0.141-0.042-0.283-0.116-0.419c-0.185-0.557-0.601-1.518-1.384-1.937c-1.135-0.607-1.843-0.003-1.843-0.003
			s-1.422,0.911-1.489,2.281c-0.002,0.026-0.006,0.052-0.005,0.077l-0.001,0.002l0.001,0.001c0.004,0.356,0.241,0.712,0.713,0.984
			c0.948,0.547,2.479,0.55,3.422,0.006C114.589,40.245,114.821,39.887,114.818,39.528"/>
		<path clip-path="url(#SVGID_4_)" fill="#EEF1FA" d="M113.471,38.148c0.16,0.517-0.011,1.029-0.383,1.145
			c-0.371,0.115-0.803-0.21-0.963-0.726c-0.161-0.517,0.01-1.029,0.382-1.145C112.879,37.307,113.31,37.632,113.471,38.148"/>
		<path clip-path="url(#SVGID_4_)" fill="#BCC3D4" d="M16.016,32.54L16.016,32.54L16.016,32.54c-0.002-0.143-0.042-0.284-0.118-0.42
			c-0.184-0.558-0.6-1.519-1.382-1.937c-1.136-0.608-1.844-0.004-1.844-0.004s-1.422,0.912-1.488,2.282
			c-0.003,0.025-0.006,0.051-0.006,0.077v0.002c0.004,0.356,0.241,0.712,0.714,0.984c0.947,0.548,2.479,0.551,3.421,0.007
			C15.786,33.258,16.02,32.898,16.016,32.54"/>
		<path clip-path="url(#SVGID_4_)" fill="#EEF1FA" d="M14.668,31.16c0.16,0.517-0.011,1.029-0.382,1.144
			c-0.372,0.116-0.804-0.209-0.964-0.726c-0.16-0.516,0.011-1.028,0.382-1.144C14.076,30.319,14.508,30.644,14.668,31.16"/>
		<path clip-path="url(#SVGID_4_)" fill="#BCC3D4" d="M59.365,7.512L59.365,7.512L59.365,7.512c-0.002-0.143-0.042-0.284-0.117-0.42
			c-0.185-0.558-0.601-1.519-1.383-1.937c-1.135-0.608-1.843-0.004-1.843-0.004S54.6,6.063,54.534,7.433
			c-0.003,0.025-0.006,0.051-0.006,0.077v0.001v0.001c0.004,0.356,0.241,0.712,0.714,0.985c0.947,0.547,2.479,0.55,3.421,0.006
			C59.136,8.23,59.369,7.871,59.365,7.512"/>
		<path clip-path="url(#SVGID_4_)" fill="#EEF1FA" d="M58.018,6.132c0.16,0.517-0.011,1.029-0.382,1.144
			c-0.372,0.116-0.804-0.209-0.964-0.726c-0.161-0.516,0.011-1.028,0.382-1.144C57.426,5.292,57.857,5.616,58.018,6.132"/>
	</g>
</g>
</svg>
