<?xml version="1.0" encoding="utf-8"?>
<!-- Generator: Adobe Illustrator 16.0.0, SVG Export Plug-In . SVG Version: 6.00 Build 0)  -->
<!DOCTYPE svg PUBLIC "-//W3C//DTD SVG 1.1//EN" "http://www.w3.org/Graphics/SVG/1.1/DTD/svg11.dtd">
<svg version="1.1" id="Layer_1" xmlns="http://www.w3.org/2000/svg" xmlns:xlink="http://www.w3.org/1999/xlink" x="0px" y="0px"
	 width="459.999px" height="463.501px" viewBox="0 0 459.999 463.501" enable-background="new 0 0 459.999 463.501"
	 xml:space="preserve">
<path fill="#444444" d="M151.826,350h156.347l7.201,30H144.625L151.826,350z M59.999,60h339.999v259.999H59.999V60z M215,0v30H0v30
	h30v290h90.974l-25.56,106.5l29.172,7.001l12.839-53.5h185.149l12.84,53.5l29.171-7.001L339.025,350h90.974V60h30V30H245V0H215z"/>
<polygon fill="#444444" points="207.723,188.936 252.278,233.491 358.106,127.663 336.894,106.45 252.278,191.064 207.723,146.51 
	101.893,252.337 123.106,273.55 "/>
</svg>
