<?xml version="1.0" encoding="utf-8"?>
<!-- Generator: Adobe Illustrator 16.0.0, SVG Export Plug-In . SVG Version: 6.00 Build 0)  -->
<!DOCTYPE svg PUBLIC "-//W3C//DTD SVG 1.1//EN" "http://www.w3.org/Graphics/SVG/1.1/DTD/svg11.dtd">
<svg version="1.1" id="Layer_1" xmlns="http://www.w3.org/2000/svg" xmlns:xlink="http://www.w3.org/1999/xlink" x="0px" y="0px"
	 width="389.566px" height="445.219px" viewBox="0 0 389.566 445.219" enable-background="new 0 0 389.566 445.219"
	 xml:space="preserve">
<g>
	<defs>
		<rect id="SVGID_1_" width="389.566" height="445.219"/>
	</defs>
	<clipPath id="SVGID_2_">
		<use xlink:href="#SVGID_1_"  overflow="visible"/>
	</clipPath>
	<path clip-path="url(#SVGID_2_)" fill="#444444" d="M389.566,16.696C389.566,7.476,382.091,0,372.87,0L83.478,0.001
		c-9.22,0-16.696,7.475-16.696,16.696v50.087H16.696C7.476,66.784,0,74.259,0,83.48v345.043c0,9.22,7.475,16.695,16.696,16.695
		h289.391c9.22,0,16.696-7.475,16.696-16.695v-50.088h50.087c9.22,0,16.696-7.475,16.696-16.696V16.696z M289.391,411.827h-256
		V100.175h256V411.827z M356.174,345.044h-33.391V83.479c0-9.22-7.476-16.696-16.696-16.696H100.174V33.392h256V345.044z"/>
	<path clip-path="url(#SVGID_2_)" fill="#444444" d="M239.304,144.696H83.478c-9.22,0-16.696,7.475-16.696,16.696
		c0,9.22,7.475,16.696,16.696,16.696h155.826c9.22,0,16.696-7.475,16.696-16.696C256,152.171,248.524,144.696,239.304,144.696"/>
	<path clip-path="url(#SVGID_2_)" fill="#444444" d="M239.304,211.479h-41.75c-9.22,0-16.696,7.476-16.696,16.696
		c0,9.221,7.475,16.696,16.696,16.696h41.75c9.22,0,16.696-7.476,16.696-16.696C256,218.955,248.524,211.479,239.304,211.479"/>
	<path clip-path="url(#SVGID_2_)" fill="#444444" d="M130.772,211.479H83.479c-9.22,0-16.696,7.476-16.696,16.696
		c0,9.221,7.475,16.696,16.696,16.696h47.293c9.22,0,16.696-7.476,16.696-16.696C147.468,218.955,139.992,211.479,130.772,211.479"
		/>
	<path clip-path="url(#SVGID_2_)" fill="#444444" d="M239.304,278.261H83.478c-9.22,0-16.696,7.475-16.696,16.696
		c0,9.221,7.475,16.695,16.696,16.695h155.826c9.22,0,16.696-7.475,16.696-16.695C256,285.735,248.524,278.261,239.304,278.261"/>
	<path clip-path="url(#SVGID_2_)" fill="#444444" d="M239.304,345.044h-77.913c-9.22,0-16.696,7.475-16.696,16.695
		c0,9.222,7.475,16.696,16.696,16.696h77.913c9.22,0,16.696-7.475,16.696-16.696C256,352.519,248.524,345.044,239.304,345.044"/>
</g>
</svg>
