<?xml version="1.0" encoding="utf-8"?>
<!-- Generator: Adobe Illustrator 16.0.0, SVG Export Plug-In . SVG Version: 6.00 Build 0)  -->
<!DOCTYPE svg PUBLIC "-//W3C//DTD SVG 1.1//EN" "http://www.w3.org/Graphics/SVG/1.1/DTD/svg11.dtd">
<svg version="1.1" id="Layer_1" xmlns="http://www.w3.org/2000/svg" xmlns:xlink="http://www.w3.org/1999/xlink" x="0px" y="0px"
	 width="511.999px" height="434.069px" viewBox="0 0 511.999 434.069" enable-background="new 0 0 511.999 434.069"
	 xml:space="preserve">
<g>
	<defs>
		<rect id="SVGID_1_" width="511.999" height="434.069"/>
	</defs>
	<clipPath id="SVGID_2_">
		<use xlink:href="#SVGID_1_"  overflow="visible"/>
	</clipPath>
	<path clip-path="url(#SVGID_2_)" fill="#444444" d="M255.999,66.78c-27.617,0-50.085,22.468-50.085,50.085
		s22.468,50.085,50.085,50.085c27.617,0,50.085-22.468,50.085-50.085S283.616,66.78,255.999,66.78 M255.999,133.56
		c-9.206,0-16.695-7.489-16.695-16.695s7.489-16.695,16.695-16.695s16.695,7.489,16.695,16.695
		C272.694,126.07,265.205,133.56,255.999,133.56"/>
	<path clip-path="url(#SVGID_2_)" fill="#444444" d="M511.131,412.094l-66.78-200.338c-2.272-6.818-8.651-11.416-15.837-11.416
		h-87.037c14.7-23.209,31.387-44.77,31.387-83.475C372.863,52.426,320.438,0,255.998,0c-64.44,0-116.863,52.427-116.863,116.866
		c0,38.935,16.89,60.626,31.638,83.475H83.485c-7.187,0-13.565,4.598-15.838,11.416L0.867,412.094
		c-3.597,10.796,4.446,21.976,15.838,21.976h478.588C506.672,434.068,514.733,422.903,511.131,412.094 M255.999,33.389
		c46.028,0,83.475,37.447,83.475,83.476c0,15.854-4.459,31.273-12.893,44.59l-69.912,110.383L185.807,162.06
		c-8.689-13.457-13.281-29.086-13.281-45.194C172.524,70.835,209.971,33.389,255.999,33.389 M39.868,400.679L39.868,400.679
		l55.65-166.949h96.808l50.45,78.155c6.607,10.235,21.61,10.177,28.131-0.12l49.423-78.033h96.151l55.649,166.949H39.868V400.679z"
		/>
</g>
</svg>
