<?xml version="1.0" encoding="utf-8"?>
<!-- Generator: Adobe Illustrator 16.0.0, SVG Export Plug-In . SVG Version: 6.00 Build 0)  -->
<!DOCTYPE svg PUBLIC "-//W3C//DTD SVG 1.1//EN" "http://www.w3.org/Graphics/SVG/1.1/DTD/svg11.dtd">
<svg version="1.1" id="Layer_1" xmlns="http://www.w3.org/2000/svg" xmlns:xlink="http://www.w3.org/1999/xlink" x="0px" y="0px"
	 width="20px" height="20px" viewBox="0 0 20 20" enable-background="new 0 0 20 20" xml:space="preserve">
<g>
	<defs>
		<rect id="SVGID_1_" width="20" height="20"/>
	</defs>
	<clipPath id="SVGID_2_">
		<use xlink:href="#SVGID_1_"  overflow="visible"/>
	</clipPath>
	
		<path clip-path="url(#SVGID_2_)" fill="none" stroke="#000000" stroke-width="2" stroke-linecap="round" stroke-linejoin="round" d="
		M19,9.5c0.004,1.32-0.305,2.622-0.9,3.8c-1.438,2.88-4.381,4.699-7.6,4.7c-1.32,0.004-2.622-0.305-3.8-0.9L1,19l1.9-5.7
		C2.305,12.122,1.997,10.82,2,9.5c0.001-3.219,1.821-6.161,4.7-7.6C7.878,1.305,9.18,0.997,10.5,1H11c4.315,0.238,7.762,3.684,8,8
		V9.5z"/>
</g>
<text transform="matrix(1 0 0 1 6.5742 13.8516)" font-family="'OpenSans-Bold'" font-size="12">B</text>
</svg>
